<?xml version="1.0" encoding="utf-8"?>
<svg xmlns="http://www.w3.org/2000/svg" xmlns:xlink="http://www.w3.org/1999/xlink" width="600" height="400" viewBox="0 0 2400 1600">
<defs>
  <clipPath id="clip700">
    <rect x="0" y="0" width="2400" height="1600"/>
  </clipPath>
</defs>
<path clip-path="url(#clip700)" d="M0 1600 L2400 1600 L2400 0 L0 0  Z" fill="#ffffff" fill-rule="evenodd" fill-opacity="1"/>
<defs>
  <clipPath id="clip701">
    <rect x="480" y="0" width="1681" height="1600"/>
  </clipPath>
</defs>
<defs>
  <clipPath id="clip702">
    <rect x="262" y="47" width="2091" height="1364"/>
  </clipPath>
</defs>
<path clip-path="url(#clip700)" d="M262.502 1410.22 L2352.76 1410.22 L2352.76 47.2441 L262.502 47.2441  Z" fill="#ffffff" fill-rule="evenodd" fill-opacity="1"/>
<polyline clip-path="url(#clip702)" style="stroke:#000000; stroke-linecap:round; stroke-linejoin:round; stroke-width:2; stroke-opacity:0.1; fill:none" points="281.417,1410.22 281.417,47.2441 "/>
<polyline clip-path="url(#clip702)" style="stroke:#000000; stroke-linecap:round; stroke-linejoin:round; stroke-width:2; stroke-opacity:0.1; fill:none" points="683.853,1410.22 683.853,47.2441 "/>
<polyline clip-path="url(#clip702)" style="stroke:#000000; stroke-linecap:round; stroke-linejoin:round; stroke-width:2; stroke-opacity:0.1; fill:none" points="1086.29,1410.22 1086.29,47.2441 "/>
<polyline clip-path="url(#clip702)" style="stroke:#000000; stroke-linecap:round; stroke-linejoin:round; stroke-width:2; stroke-opacity:0.1; fill:none" points="1488.73,1410.22 1488.73,47.2441 "/>
<polyline clip-path="url(#clip702)" style="stroke:#000000; stroke-linecap:round; stroke-linejoin:round; stroke-width:2; stroke-opacity:0.1; fill:none" points="1891.16,1410.22 1891.16,47.2441 "/>
<polyline clip-path="url(#clip702)" style="stroke:#000000; stroke-linecap:round; stroke-linejoin:round; stroke-width:2; stroke-opacity:0.1; fill:none" points="2293.6,1410.22 2293.6,47.2441 "/>
<polyline clip-path="url(#clip700)" style="stroke:#000000; stroke-linecap:round; stroke-linejoin:round; stroke-width:4; stroke-opacity:1; fill:none" points="262.502,1410.22 2352.76,1410.22 "/>
<polyline clip-path="url(#clip700)" style="stroke:#000000; stroke-linecap:round; stroke-linejoin:round; stroke-width:4; stroke-opacity:1; fill:none" points="281.417,1410.22 281.417,1391.32 "/>
<polyline clip-path="url(#clip700)" style="stroke:#000000; stroke-linecap:round; stroke-linejoin:round; stroke-width:4; stroke-opacity:1; fill:none" points="683.853,1410.22 683.853,1391.32 "/>
<polyline clip-path="url(#clip700)" style="stroke:#000000; stroke-linecap:round; stroke-linejoin:round; stroke-width:4; stroke-opacity:1; fill:none" points="1086.29,1410.22 1086.29,1391.32 "/>
<polyline clip-path="url(#clip700)" style="stroke:#000000; stroke-linecap:round; stroke-linejoin:round; stroke-width:4; stroke-opacity:1; fill:none" points="1488.73,1410.22 1488.73,1391.32 "/>
<polyline clip-path="url(#clip700)" style="stroke:#000000; stroke-linecap:round; stroke-linejoin:round; stroke-width:4; stroke-opacity:1; fill:none" points="1891.16,1410.22 1891.16,1391.32 "/>
<polyline clip-path="url(#clip700)" style="stroke:#000000; stroke-linecap:round; stroke-linejoin:round; stroke-width:4; stroke-opacity:1; fill:none" points="2293.6,1410.22 2293.6,1391.32 "/>
<path clip-path="url(#clip700)" d="M281.417 1441.14 Q277.805 1441.14 275.977 1444.7 Q274.171 1448.24 274.171 1455.37 Q274.171 1462.48 275.977 1466.05 Q277.805 1469.59 281.417 1469.59 Q285.051 1469.59 286.856 1466.05 Q288.685 1462.48 288.685 1455.37 Q288.685 1448.24 286.856 1444.7 Q285.051 1441.14 281.417 1441.14 M281.417 1437.43 Q287.227 1437.43 290.282 1442.04 Q293.361 1446.62 293.361 1455.37 Q293.361 1464.1 290.282 1468.71 Q287.227 1473.29 281.417 1473.29 Q275.606 1473.29 272.528 1468.71 Q269.472 1464.1 269.472 1455.37 Q269.472 1446.62 272.528 1442.04 Q275.606 1437.43 281.417 1437.43 Z" fill="#000000" fill-rule="nonzero" fill-opacity="1" /><path clip-path="url(#clip700)" d="M674.235 1468.68 L681.874 1468.68 L681.874 1442.32 L673.563 1443.99 L673.563 1439.73 L681.827 1438.06 L686.503 1438.06 L686.503 1468.68 L694.142 1468.68 L694.142 1472.62 L674.235 1472.62 L674.235 1468.68 Z" fill="#000000" fill-rule="nonzero" fill-opacity="1" /><path clip-path="url(#clip700)" d="M1080.94 1468.68 L1097.26 1468.68 L1097.26 1472.62 L1075.32 1472.62 L1075.32 1468.68 Q1077.98 1465.93 1082.56 1461.3 Q1087.17 1456.65 1088.35 1455.31 Q1090.59 1452.78 1091.47 1451.05 Q1092.38 1449.29 1092.38 1447.6 Q1092.38 1444.84 1090.43 1443.11 Q1088.51 1441.37 1085.41 1441.37 Q1083.21 1441.37 1080.76 1442.13 Q1078.33 1442.9 1075.55 1444.45 L1075.55 1439.73 Q1078.37 1438.59 1080.83 1438.01 Q1083.28 1437.43 1085.32 1437.43 Q1090.69 1437.43 1093.88 1440.12 Q1097.08 1442.81 1097.08 1447.3 Q1097.08 1449.43 1096.27 1451.35 Q1095.48 1453.24 1093.37 1455.84 Q1092.79 1456.51 1089.69 1459.73 Q1086.59 1462.92 1080.94 1468.68 Z" fill="#000000" fill-rule="nonzero" fill-opacity="1" /><path clip-path="url(#clip700)" d="M1492.97 1453.99 Q1496.33 1454.7 1498.2 1456.97 Q1500.1 1459.24 1500.1 1462.57 Q1500.1 1467.69 1496.58 1470.49 Q1493.07 1473.29 1486.58 1473.29 Q1484.41 1473.29 1482.09 1472.85 Q1479.8 1472.43 1477.35 1471.58 L1477.35 1467.06 Q1479.29 1468.2 1481.61 1468.78 Q1483.92 1469.36 1486.45 1469.36 Q1490.84 1469.36 1493.13 1467.62 Q1495.45 1465.88 1495.45 1462.57 Q1495.45 1459.52 1493.3 1457.81 Q1491.17 1456.07 1487.35 1456.07 L1483.32 1456.07 L1483.32 1452.23 L1487.53 1452.23 Q1490.98 1452.23 1492.81 1450.86 Q1494.64 1449.47 1494.64 1446.88 Q1494.64 1444.22 1492.74 1442.81 Q1490.87 1441.37 1487.35 1441.37 Q1485.43 1441.37 1483.23 1441.79 Q1481.03 1442.2 1478.39 1443.08 L1478.39 1438.92 Q1481.05 1438.18 1483.37 1437.81 Q1485.7 1437.43 1487.76 1437.43 Q1493.09 1437.43 1496.19 1439.87 Q1499.29 1442.27 1499.29 1446.39 Q1499.29 1449.26 1497.65 1451.25 Q1496.01 1453.22 1492.97 1453.99 Z" fill="#000000" fill-rule="nonzero" fill-opacity="1" /><path clip-path="url(#clip700)" d="M1894.17 1442.13 L1882.37 1460.58 L1894.17 1460.58 L1894.17 1442.13 M1892.94 1438.06 L1898.82 1438.06 L1898.82 1460.58 L1903.75 1460.58 L1903.75 1464.47 L1898.82 1464.47 L1898.82 1472.62 L1894.17 1472.62 L1894.17 1464.47 L1878.57 1464.47 L1878.57 1459.96 L1892.94 1438.06 Z" fill="#000000" fill-rule="nonzero" fill-opacity="1" /><path clip-path="url(#clip700)" d="M2283.88 1438.06 L2302.23 1438.06 L2302.23 1442 L2288.16 1442 L2288.16 1450.47 Q2289.18 1450.12 2290.2 1449.96 Q2291.21 1449.77 2292.23 1449.77 Q2298.02 1449.77 2301.4 1452.94 Q2304.78 1456.12 2304.78 1461.53 Q2304.78 1467.11 2301.31 1470.21 Q2297.83 1473.29 2291.51 1473.29 Q2289.34 1473.29 2287.07 1472.92 Q2284.82 1472.55 2282.42 1471.81 L2282.42 1467.11 Q2284.5 1468.24 2286.72 1468.8 Q2288.95 1469.36 2291.42 1469.36 Q2295.43 1469.36 2297.76 1467.25 Q2300.1 1465.14 2300.1 1461.53 Q2300.1 1457.92 2297.76 1455.81 Q2295.43 1453.71 2291.42 1453.71 Q2289.55 1453.71 2287.67 1454.12 Q2285.82 1454.54 2283.88 1455.42 L2283.88 1438.06 Z" fill="#000000" fill-rule="nonzero" fill-opacity="1" /><path clip-path="url(#clip700)" d="M1326.87 1515.39 Q1326.87 1514.04 1326.5 1512.93 Q1326.17 1511.78 1325.64 1511.01 Q1325.15 1510.19 1324.21 1509.57 Q1323.26 1508.92 1322.49 1508.51 Q1321.71 1508.1 1320.4 1507.85 Q1319.08 1507.56 1318.22 1507.44 Q1317.36 1507.28 1315.89 1507.19 Q1314.41 1507.11 1313.67 1507.11 Q1312.98 1507.11 1311.58 1507.11 Q1307.2 1507.11 1306.46 1507.19 Q1305.35 1507.36 1304.94 1508.01 Q1304.53 1508.63 1304.12 1510.31 L1298.67 1532.2 L1308.06 1532.2 Q1313.18 1532.2 1316.71 1530.76 Q1320.23 1529.33 1322.24 1527.32 Q1324.45 1525.11 1325.64 1521.54 Q1326.87 1517.97 1326.87 1515.39 M1336.01 1554.04 Q1336.01 1554.5 1335.64 1555.52 Q1335.32 1556.54 1334.5 1557.98 Q1333.68 1559.37 1332.57 1560.64 Q1331.46 1561.91 1329.7 1562.77 Q1327.94 1563.68 1325.93 1563.68 Q1325.44 1563.68 1324.95 1563.64 Q1324.45 1563.64 1323.22 1563.43 Q1322.03 1563.27 1321.05 1562.94 Q1320.07 1562.65 1318.84 1561.96 Q1317.61 1561.3 1316.75 1560.4 Q1315.93 1559.45 1315.35 1557.98 Q1314.78 1556.46 1314.78 1554.62 Q1314.78 1552.98 1316.13 1547.49 Q1317.32 1542.81 1317.32 1541.67 Q1317.32 1540.39 1316.91 1539.21 Q1316.54 1538.02 1315.6 1536.79 Q1314.7 1535.56 1312.77 1534.82 Q1310.84 1534.04 1308.14 1534.04 L1298.18 1534.04 L1292.6 1556.3 Q1292.6 1556.34 1292.48 1556.91 Q1292.36 1557.45 1292.36 1557.73 Q1292.36 1558.27 1292.69 1558.59 Q1293.06 1558.92 1293.96 1559.09 Q1294.86 1559.21 1295.56 1559.25 Q1296.29 1559.25 1297.81 1559.25 Q1299.7 1559.25 1300.02 1559.58 Q1300.19 1559.78 1300.19 1560.15 Q1300.19 1560.73 1300.02 1561.14 Q1299.9 1561.5 1299.57 1561.63 Q1299.29 1561.75 1299.08 1561.79 Q1298.88 1561.83 1298.51 1561.83 L1287.85 1561.59 L1277.27 1561.83 Q1276.09 1561.83 1276.09 1560.89 Q1276.09 1560.07 1276.37 1559.74 Q1276.66 1559.37 1277.03 1559.33 Q1277.4 1559.25 1278.34 1559.25 Q1280.39 1559.25 1281.62 1559.13 Q1282.85 1559 1283.63 1558.84 Q1284.45 1558.64 1284.86 1558.06 Q1285.31 1557.49 1285.51 1557 Q1285.72 1556.46 1286.01 1555.27 L1297.24 1510.19 Q1297.56 1508.83 1297.56 1508.63 Q1297.56 1507.85 1297.07 1507.64 Q1296.62 1507.4 1295.31 1507.28 L1292.11 1507.11 Q1291.13 1507.11 1290.72 1507.07 Q1290.35 1507.03 1290.06 1506.82 Q1289.78 1506.62 1289.78 1506.17 Q1289.78 1505.02 1290.27 1504.78 Q1290.76 1504.49 1292.19 1504.49 L1316.13 1504.49 Q1324.29 1504.49 1329.45 1508.05 Q1334.66 1511.62 1334.66 1517.07 Q1334.66 1519.53 1333.55 1521.83 Q1332.45 1524.12 1330.6 1525.93 Q1328.8 1527.73 1326.38 1529.25 Q1323.96 1530.72 1321.38 1531.75 Q1318.84 1532.73 1316.21 1533.3 Q1317.36 1533.71 1318.43 1534.33 Q1319.53 1534.94 1320.93 1536.09 Q1322.36 1537.24 1323.22 1539.08 Q1324.08 1540.93 1324.08 1543.18 Q1324.08 1544.78 1323.76 1547.16 Q1322.94 1553.92 1322.94 1556.71 Q1322.94 1559.37 1323.63 1560.6 Q1324.33 1561.83 1326.3 1561.83 Q1328.22 1561.83 1330.36 1560.11 Q1332.53 1558.35 1333.92 1554.21 Q1334.25 1553.02 1335.03 1553.02 Q1335.07 1553.02 1335.11 1553.02 Q1335.19 1553.02 1335.36 1553.1 Q1335.52 1553.14 1335.64 1553.27 Q1335.81 1553.35 1335.89 1553.55 Q1336.01 1553.76 1336.01 1554.04 Z" fill="#000000" fill-rule="nonzero" fill-opacity="1" /><polyline clip-path="url(#clip702)" style="stroke:#000000; stroke-linecap:round; stroke-linejoin:round; stroke-width:2; stroke-opacity:0.1; fill:none" points="262.502,1371.65 2352.76,1371.65 "/>
<polyline clip-path="url(#clip702)" style="stroke:#000000; stroke-linecap:round; stroke-linejoin:round; stroke-width:2; stroke-opacity:0.1; fill:none" points="262.502,1050.19 2352.76,1050.19 "/>
<polyline clip-path="url(#clip702)" style="stroke:#000000; stroke-linecap:round; stroke-linejoin:round; stroke-width:2; stroke-opacity:0.1; fill:none" points="262.502,728.732 2352.76,728.732 "/>
<polyline clip-path="url(#clip702)" style="stroke:#000000; stroke-linecap:round; stroke-linejoin:round; stroke-width:2; stroke-opacity:0.1; fill:none" points="262.502,407.275 2352.76,407.275 "/>
<polyline clip-path="url(#clip702)" style="stroke:#000000; stroke-linecap:round; stroke-linejoin:round; stroke-width:2; stroke-opacity:0.1; fill:none" points="262.502,85.8189 2352.76,85.8189 "/>
<polyline clip-path="url(#clip700)" style="stroke:#000000; stroke-linecap:round; stroke-linejoin:round; stroke-width:4; stroke-opacity:1; fill:none" points="262.502,1410.22 262.502,47.2441 "/>
<polyline clip-path="url(#clip700)" style="stroke:#000000; stroke-linecap:round; stroke-linejoin:round; stroke-width:4; stroke-opacity:1; fill:none" points="262.502,1371.65 281.4,1371.65 "/>
<polyline clip-path="url(#clip700)" style="stroke:#000000; stroke-linecap:round; stroke-linejoin:round; stroke-width:4; stroke-opacity:1; fill:none" points="262.502,1050.19 281.4,1050.19 "/>
<polyline clip-path="url(#clip700)" style="stroke:#000000; stroke-linecap:round; stroke-linejoin:round; stroke-width:4; stroke-opacity:1; fill:none" points="262.502,728.732 281.4,728.732 "/>
<polyline clip-path="url(#clip700)" style="stroke:#000000; stroke-linecap:round; stroke-linejoin:round; stroke-width:4; stroke-opacity:1; fill:none" points="262.502,407.275 281.4,407.275 "/>
<polyline clip-path="url(#clip700)" style="stroke:#000000; stroke-linecap:round; stroke-linejoin:round; stroke-width:4; stroke-opacity:1; fill:none" points="262.502,85.8189 281.4,85.8189 "/>
<path clip-path="url(#clip700)" d="M139.165 1357.44 Q135.553 1357.44 133.725 1361.01 Q131.919 1364.55 131.919 1371.68 Q131.919 1378.79 133.725 1382.35 Q135.553 1385.89 139.165 1385.89 Q142.799 1385.89 144.604 1382.35 Q146.433 1378.79 146.433 1371.68 Q146.433 1364.55 144.604 1361.01 Q142.799 1357.44 139.165 1357.44 M139.165 1353.74 Q144.975 1353.74 148.03 1358.35 Q151.109 1362.93 151.109 1371.68 Q151.109 1380.41 148.03 1385.01 Q144.975 1389.6 139.165 1389.6 Q133.354 1389.6 130.276 1385.01 Q127.22 1380.41 127.22 1371.68 Q127.22 1362.93 130.276 1358.35 Q133.354 1353.74 139.165 1353.74 Z" fill="#000000" fill-rule="nonzero" fill-opacity="1" /><path clip-path="url(#clip700)" d="M159.326 1383.05 L164.211 1383.05 L164.211 1388.93 L159.326 1388.93 L159.326 1383.05 Z" fill="#000000" fill-rule="nonzero" fill-opacity="1" /><path clip-path="url(#clip700)" d="M184.396 1357.44 Q180.785 1357.44 178.956 1361.01 Q177.15 1364.55 177.15 1371.68 Q177.15 1378.79 178.956 1382.35 Q180.785 1385.89 184.396 1385.89 Q188.03 1385.89 189.836 1382.35 Q191.664 1378.79 191.664 1371.68 Q191.664 1364.55 189.836 1361.01 Q188.03 1357.44 184.396 1357.44 M184.396 1353.74 Q190.206 1353.74 193.261 1358.35 Q196.34 1362.93 196.34 1371.68 Q196.34 1380.41 193.261 1385.01 Q190.206 1389.6 184.396 1389.6 Q178.586 1389.6 175.507 1385.01 Q172.451 1380.41 172.451 1371.68 Q172.451 1362.93 175.507 1358.35 Q178.586 1353.74 184.396 1353.74 Z" fill="#000000" fill-rule="nonzero" fill-opacity="1" /><path clip-path="url(#clip700)" d="M214.558 1357.44 Q210.947 1357.44 209.118 1361.01 Q207.312 1364.55 207.312 1371.68 Q207.312 1378.79 209.118 1382.35 Q210.947 1385.89 214.558 1385.89 Q218.192 1385.89 219.997 1382.35 Q221.826 1378.79 221.826 1371.68 Q221.826 1364.55 219.997 1361.01 Q218.192 1357.44 214.558 1357.44 M214.558 1353.74 Q220.368 1353.74 223.423 1358.35 Q226.502 1362.93 226.502 1371.68 Q226.502 1380.41 223.423 1385.01 Q220.368 1389.6 214.558 1389.6 Q208.747 1389.6 205.669 1385.01 Q202.613 1380.41 202.613 1371.68 Q202.613 1362.93 205.669 1358.35 Q208.747 1353.74 214.558 1353.74 Z" fill="#000000" fill-rule="nonzero" fill-opacity="1" /><path clip-path="url(#clip700)" d="M140.16 1035.99 Q136.549 1035.99 134.72 1039.55 Q132.915 1043.09 132.915 1050.22 Q132.915 1057.33 134.72 1060.89 Q136.549 1064.44 140.16 1064.44 Q143.794 1064.44 145.6 1060.89 Q147.428 1057.33 147.428 1050.22 Q147.428 1043.09 145.6 1039.55 Q143.794 1035.99 140.16 1035.99 M140.16 1032.28 Q145.97 1032.28 149.026 1036.89 Q152.104 1041.47 152.104 1050.22 Q152.104 1058.95 149.026 1063.56 Q145.97 1068.14 140.16 1068.14 Q134.35 1068.14 131.271 1063.56 Q128.216 1058.95 128.216 1050.22 Q128.216 1041.47 131.271 1036.89 Q134.35 1032.28 140.16 1032.28 Z" fill="#000000" fill-rule="nonzero" fill-opacity="1" /><path clip-path="url(#clip700)" d="M160.322 1061.59 L165.206 1061.59 L165.206 1067.47 L160.322 1067.47 L160.322 1061.59 Z" fill="#000000" fill-rule="nonzero" fill-opacity="1" /><path clip-path="url(#clip700)" d="M179.419 1063.53 L195.738 1063.53 L195.738 1067.47 L173.794 1067.47 L173.794 1063.53 Q176.456 1060.78 181.039 1056.15 Q185.646 1051.5 186.826 1050.15 Q189.072 1047.63 189.951 1045.89 Q190.854 1044.14 190.854 1042.45 Q190.854 1039.69 188.91 1037.95 Q186.988 1036.22 183.887 1036.22 Q181.687 1036.22 179.234 1036.98 Q176.803 1037.75 174.025 1039.3 L174.025 1034.58 Q176.85 1033.44 179.303 1032.86 Q181.757 1032.28 183.794 1032.28 Q189.164 1032.28 192.359 1034.97 Q195.553 1037.65 195.553 1042.14 Q195.553 1044.27 194.743 1046.2 Q193.956 1048.09 191.849 1050.69 Q191.271 1051.36 188.169 1054.58 Q185.067 1057.77 179.419 1063.53 Z" fill="#000000" fill-rule="nonzero" fill-opacity="1" /><path clip-path="url(#clip700)" d="M205.599 1032.91 L223.956 1032.91 L223.956 1036.84 L209.882 1036.84 L209.882 1045.32 Q210.9 1044.97 211.919 1044.81 Q212.937 1044.62 213.956 1044.62 Q219.743 1044.62 223.122 1047.79 Q226.502 1050.96 226.502 1056.38 Q226.502 1061.96 223.03 1065.06 Q219.558 1068.14 213.238 1068.14 Q211.062 1068.14 208.794 1067.77 Q206.548 1067.4 204.141 1066.66 L204.141 1061.96 Q206.224 1063.09 208.447 1063.65 Q210.669 1064.2 213.146 1064.2 Q217.15 1064.2 219.488 1062.1 Q221.826 1059.99 221.826 1056.38 Q221.826 1052.77 219.488 1050.66 Q217.15 1048.56 213.146 1048.56 Q211.271 1048.56 209.396 1048.97 Q207.544 1049.39 205.599 1050.27 L205.599 1032.91 Z" fill="#000000" fill-rule="nonzero" fill-opacity="1" /><path clip-path="url(#clip700)" d="M139.165 714.531 Q135.553 714.531 133.725 718.095 Q131.919 721.637 131.919 728.767 Q131.919 735.873 133.725 739.438 Q135.553 742.98 139.165 742.98 Q142.799 742.98 144.604 739.438 Q146.433 735.873 146.433 728.767 Q146.433 721.637 144.604 718.095 Q142.799 714.531 139.165 714.531 M139.165 710.827 Q144.975 710.827 148.03 715.433 Q151.109 720.017 151.109 728.767 Q151.109 737.493 148.03 742.1 Q144.975 746.683 139.165 746.683 Q133.354 746.683 130.276 742.1 Q127.22 737.493 127.22 728.767 Q127.22 720.017 130.276 715.433 Q133.354 710.827 139.165 710.827 Z" fill="#000000" fill-rule="nonzero" fill-opacity="1" /><path clip-path="url(#clip700)" d="M159.326 740.132 L164.211 740.132 L164.211 746.012 L159.326 746.012 L159.326 740.132 Z" fill="#000000" fill-rule="nonzero" fill-opacity="1" /><path clip-path="url(#clip700)" d="M174.442 711.452 L192.799 711.452 L192.799 715.387 L178.725 715.387 L178.725 723.859 Q179.743 723.512 180.762 723.35 Q181.78 723.165 182.799 723.165 Q188.586 723.165 191.965 726.336 Q195.345 729.507 195.345 734.924 Q195.345 740.503 191.873 743.605 Q188.4 746.683 182.081 746.683 Q179.905 746.683 177.637 746.313 Q175.391 745.943 172.984 745.202 L172.984 740.503 Q175.067 741.637 177.289 742.193 Q179.512 742.748 181.988 742.748 Q185.993 742.748 188.331 740.642 Q190.669 738.535 190.669 734.924 Q190.669 731.313 188.331 729.207 Q185.993 727.1 181.988 727.1 Q180.113 727.1 178.238 727.517 Q176.387 727.933 174.442 728.813 L174.442 711.452 Z" fill="#000000" fill-rule="nonzero" fill-opacity="1" /><path clip-path="url(#clip700)" d="M214.558 714.531 Q210.947 714.531 209.118 718.095 Q207.312 721.637 207.312 728.767 Q207.312 735.873 209.118 739.438 Q210.947 742.98 214.558 742.98 Q218.192 742.98 219.997 739.438 Q221.826 735.873 221.826 728.767 Q221.826 721.637 219.997 718.095 Q218.192 714.531 214.558 714.531 M214.558 710.827 Q220.368 710.827 223.423 715.433 Q226.502 720.017 226.502 728.767 Q226.502 737.493 223.423 742.1 Q220.368 746.683 214.558 746.683 Q208.747 746.683 205.669 742.1 Q202.613 737.493 202.613 728.767 Q202.613 720.017 205.669 715.433 Q208.747 710.827 214.558 710.827 Z" fill="#000000" fill-rule="nonzero" fill-opacity="1" /><path clip-path="url(#clip700)" d="M140.16 393.074 Q136.549 393.074 134.72 396.639 Q132.915 400.181 132.915 407.31 Q132.915 414.417 134.72 417.981 Q136.549 421.523 140.16 421.523 Q143.794 421.523 145.6 417.981 Q147.428 414.417 147.428 407.31 Q147.428 400.181 145.6 396.639 Q143.794 393.074 140.16 393.074 M140.16 389.37 Q145.97 389.37 149.026 393.977 Q152.104 398.56 152.104 407.31 Q152.104 416.037 149.026 420.643 Q145.97 425.227 140.16 425.227 Q134.35 425.227 131.271 420.643 Q128.216 416.037 128.216 407.31 Q128.216 398.56 131.271 393.977 Q134.35 389.37 140.16 389.37 Z" fill="#000000" fill-rule="nonzero" fill-opacity="1" /><path clip-path="url(#clip700)" d="M160.322 418.676 L165.206 418.676 L165.206 424.555 L160.322 424.555 L160.322 418.676 Z" fill="#000000" fill-rule="nonzero" fill-opacity="1" /><path clip-path="url(#clip700)" d="M174.211 389.995 L196.433 389.995 L196.433 391.986 L183.887 424.555 L179.002 424.555 L190.808 393.931 L174.211 393.931 L174.211 389.995 Z" fill="#000000" fill-rule="nonzero" fill-opacity="1" /><path clip-path="url(#clip700)" d="M205.599 389.995 L223.956 389.995 L223.956 393.931 L209.882 393.931 L209.882 402.403 Q210.9 402.056 211.919 401.894 Q212.937 401.708 213.956 401.708 Q219.743 401.708 223.122 404.88 Q226.502 408.051 226.502 413.468 Q226.502 419.046 223.03 422.148 Q219.558 425.227 213.238 425.227 Q211.062 425.227 208.794 424.856 Q206.548 424.486 204.141 423.745 L204.141 419.046 Q206.224 420.18 208.447 420.736 Q210.669 421.292 213.146 421.292 Q217.15 421.292 219.488 419.185 Q221.826 417.079 221.826 413.468 Q221.826 409.856 219.488 407.75 Q217.15 405.643 213.146 405.643 Q211.271 405.643 209.396 406.06 Q207.544 406.477 205.599 407.356 L205.599 389.995 Z" fill="#000000" fill-rule="nonzero" fill-opacity="1" /><path clip-path="url(#clip700)" d="M129.975 99.1637 L137.614 99.1637 L137.614 72.7981 L129.303 74.4648 L129.303 70.2055 L137.567 68.5389 L142.243 68.5389 L142.243 99.1637 L149.882 99.1637 L149.882 103.099 L129.975 103.099 L129.975 99.1637 Z" fill="#000000" fill-rule="nonzero" fill-opacity="1" /><path clip-path="url(#clip700)" d="M159.326 97.2193 L164.211 97.2193 L164.211 103.099 L159.326 103.099 L159.326 97.2193 Z" fill="#000000" fill-rule="nonzero" fill-opacity="1" /><path clip-path="url(#clip700)" d="M184.396 71.6176 Q180.785 71.6176 178.956 75.1824 Q177.15 78.724 177.15 85.8536 Q177.15 92.96 178.956 96.5248 Q180.785 100.066 184.396 100.066 Q188.03 100.066 189.836 96.5248 Q191.664 92.96 191.664 85.8536 Q191.664 78.724 189.836 75.1824 Q188.03 71.6176 184.396 71.6176 M184.396 67.9139 Q190.206 67.9139 193.261 72.5203 Q196.34 77.1036 196.34 85.8536 Q196.34 94.5804 193.261 99.1869 Q190.206 103.77 184.396 103.77 Q178.586 103.77 175.507 99.1869 Q172.451 94.5804 172.451 85.8536 Q172.451 77.1036 175.507 72.5203 Q178.586 67.9139 184.396 67.9139 Z" fill="#000000" fill-rule="nonzero" fill-opacity="1" /><path clip-path="url(#clip700)" d="M214.558 71.6176 Q210.947 71.6176 209.118 75.1824 Q207.312 78.724 207.312 85.8536 Q207.312 92.96 209.118 96.5248 Q210.947 100.066 214.558 100.066 Q218.192 100.066 219.997 96.5248 Q221.826 92.96 221.826 85.8536 Q221.826 78.724 219.997 75.1824 Q218.192 71.6176 214.558 71.6176 M214.558 67.9139 Q220.368 67.9139 223.423 72.5203 Q226.502 77.1036 226.502 85.8536 Q226.502 94.5804 223.423 99.1869 Q220.368 103.77 214.558 103.77 Q208.747 103.77 205.669 99.1869 Q202.613 94.5804 202.613 85.8536 Q202.613 77.1036 205.669 72.5203 Q208.747 67.9139 214.558 67.9139 Z" fill="#000000" fill-rule="nonzero" fill-opacity="1" /><path clip-path="url(#clip700)" d="M75.611 1174.18 L99.6734 1174.18 L99.6734 1181.67 L37.0464 1181.67 L37.0464 1174.18 L43.9329 1174.18 Q39.882 1171.83 37.9376 1168.26 Q35.9527 1164.66 35.9527 1159.67 Q35.9527 1151.41 42.5151 1146.27 Q49.0776 1141.08 59.772 1141.08 Q70.4664 1141.08 77.0288 1146.27 Q83.5913 1151.41 83.5913 1159.67 Q83.5913 1164.66 81.6469 1168.26 Q79.6619 1171.83 75.611 1174.18 M59.772 1148.82 Q51.5486 1148.82 46.8901 1152.22 Q42.1911 1155.58 42.1911 1161.5 Q42.1911 1167.41 46.8901 1170.81 Q51.5486 1174.18 59.772 1174.18 Q67.9953 1174.18 72.6944 1170.81 Q77.3529 1167.41 77.3529 1161.5 Q77.3529 1155.58 72.6944 1152.22 Q67.9953 1148.82 59.772 1148.82 Z" fill="#000000" fill-rule="nonzero" fill-opacity="1" /><path clip-path="url(#clip700)" d="M44.014 1102.43 Q43.2848 1103.69 42.9607 1105.19 Q42.5961 1106.65 42.5961 1108.43 Q42.5961 1114.75 46.7281 1118.15 Q50.8195 1121.51 58.5162 1121.51 L82.4165 1121.51 L82.4165 1129.01 L37.0464 1129.01 L37.0464 1121.51 L44.095 1121.51 Q39.9631 1119.16 37.9781 1115.4 Q35.9527 1111.63 35.9527 1106.24 Q35.9527 1105.47 36.0742 1104.54 Q36.1552 1103.61 36.3578 1102.48 L44.014 1102.43 Z" fill="#000000" fill-rule="nonzero" fill-opacity="1" /><path clip-path="url(#clip700)" d="M42.2721 1078.86 Q42.2721 1084.85 46.9711 1088.34 Q51.6297 1091.82 59.772 1091.82 Q67.9143 1091.82 72.6133 1088.38 Q77.2719 1084.89 77.2719 1078.86 Q77.2719 1072.9 72.5728 1069.42 Q67.8738 1065.94 59.772 1065.94 Q51.7107 1065.94 47.0116 1069.42 Q42.2721 1072.9 42.2721 1078.86 M35.9527 1078.86 Q35.9527 1069.14 42.2721 1063.59 Q48.5915 1058.04 59.772 1058.04 Q70.912 1058.04 77.2719 1063.59 Q83.5913 1069.14 83.5913 1078.86 Q83.5913 1088.62 77.2719 1094.17 Q70.912 1099.68 59.772 1099.68 Q48.5915 1099.68 42.2721 1094.17 Q35.9527 1088.62 35.9527 1078.86 Z" fill="#000000" fill-rule="nonzero" fill-opacity="1" /><path clip-path="url(#clip700)" d="M19.3845 1022.71 L25.5823 1022.71 L25.5823 1029.84 Q25.5823 1033.85 27.2027 1035.43 Q28.8231 1036.97 33.036 1036.97 L37.0464 1036.97 L37.0464 1024.7 L42.8392 1024.7 L42.8392 1036.97 L82.4165 1036.97 L82.4165 1044.47 L42.8392 1044.47 L42.8392 1051.6 L37.0464 1051.6 L37.0464 1044.47 L33.8867 1044.47 Q26.3115 1044.47 22.8682 1040.94 Q19.3845 1037.42 19.3845 1029.76 L19.3845 1022.71 Z" fill="#000000" fill-rule="nonzero" fill-opacity="1" /><path clip-path="url(#clip700)" d="M37.0464 1016.47 L37.0464 1009.02 L82.4165 1009.02 L82.4165 1016.47 L37.0464 1016.47 M19.3845 1016.47 L19.3845 1009.02 L28.8231 1009.02 L28.8231 1016.47 L19.3845 1016.47 Z" fill="#000000" fill-rule="nonzero" fill-opacity="1" /><path clip-path="url(#clip700)" d="M19.3845 993.425 L19.3845 985.971 L82.4165 985.971 L82.4165 993.425 L19.3845 993.425 Z" fill="#000000" fill-rule="nonzero" fill-opacity="1" /><path clip-path="url(#clip700)" d="M57.8681 931.568 L61.5139 931.568 L61.5139 965.838 Q69.2106 965.352 73.2615 961.22 Q77.2719 957.048 77.2719 949.635 Q77.2719 945.341 76.2186 941.33 Q75.1654 937.279 73.0589 933.309 L80.1075 933.309 Q81.8089 937.32 82.7001 941.533 Q83.5913 945.746 83.5913 950.08 Q83.5913 960.937 77.2719 967.297 Q70.9525 973.616 60.1771 973.616 Q49.0371 973.616 42.5151 967.621 Q35.9527 961.585 35.9527 951.376 Q35.9527 942.221 41.867 936.915 Q47.7408 931.568 57.8681 931.568 M55.6806 939.021 Q49.5637 939.102 45.9179 942.464 Q42.2721 945.786 42.2721 951.295 Q42.2721 957.534 45.7964 961.301 Q49.3206 965.028 55.7211 965.595 L55.6806 939.021 Z" fill="#000000" fill-rule="nonzero" fill-opacity="1" /><path clip-path="url(#clip700)" d="M19.3845 892.962 L19.3845 885.509 L82.4165 885.509 L82.4165 892.962 L19.3845 892.962 Z" fill="#000000" fill-rule="nonzero" fill-opacity="1" /><path clip-path="url(#clip700)" d="M37.0464 869.913 L37.0464 862.459 L82.4165 862.459 L82.4165 869.913 L37.0464 869.913 M19.3845 869.913 L19.3845 862.459 L28.8231 862.459 L28.8231 869.913 L19.3845 869.913 Z" fill="#000000" fill-rule="nonzero" fill-opacity="1" /><path clip-path="url(#clip700)" d="M19.3845 847.147 L19.3845 839.653 L56.6123 839.653 L37.0464 817.413 L37.0464 807.893 L58.2731 831.956 L82.4165 806.881 L82.4165 816.603 L60.2581 839.653 L82.4165 839.653 L82.4165 847.147 L19.3845 847.147 Z" fill="#000000" fill-rule="nonzero" fill-opacity="1" /><path clip-path="url(#clip700)" d="M57.8681 762.969 L61.5139 762.969 L61.5139 797.24 Q69.2106 796.753 73.2615 792.622 Q77.2719 788.449 77.2719 781.036 Q77.2719 776.742 76.2186 772.732 Q75.1654 768.681 73.0589 764.711 L80.1075 764.711 Q81.8089 768.721 82.7001 772.934 Q83.5913 777.147 83.5913 781.482 Q83.5913 792.338 77.2719 798.698 Q70.9525 805.017 60.1771 805.017 Q49.0371 805.017 42.5151 799.022 Q35.9527 792.986 35.9527 782.778 Q35.9527 773.623 41.867 768.316 Q47.7408 762.969 57.8681 762.969 M55.6806 770.423 Q49.5637 770.504 45.9179 773.866 Q42.2721 777.188 42.2721 782.697 Q42.2721 788.935 45.7964 792.703 Q49.3206 796.429 55.7211 796.997 L55.6806 770.423 Z" fill="#000000" fill-rule="nonzero" fill-opacity="1" /><path clip-path="url(#clip700)" d="M19.3845 750.735 L19.3845 743.282 L82.4165 743.282 L82.4165 750.735 L19.3845 750.735 Z" fill="#000000" fill-rule="nonzero" fill-opacity="1" /><path clip-path="url(#clip700)" d="M37.0464 727.686 L37.0464 720.232 L82.4165 720.232 L82.4165 727.686 L37.0464 727.686 M19.3845 727.686 L19.3845 720.232 L28.8231 720.232 L28.8231 727.686 L19.3845 727.686 Z" fill="#000000" fill-rule="nonzero" fill-opacity="1" /><path clip-path="url(#clip700)" d="M55.0324 666.922 L82.4165 666.922 L82.4165 674.376 L55.2755 674.376 Q48.8345 674.376 45.6343 676.887 Q42.4341 679.399 42.4341 684.422 Q42.4341 690.458 46.2825 693.942 Q50.1308 697.425 56.7743 697.425 L82.4165 697.425 L82.4165 704.919 L19.3845 704.919 L19.3845 697.425 L44.095 697.425 Q40.0036 694.752 37.9781 691.146 Q35.9527 687.501 35.9527 682.761 Q35.9527 674.943 40.8137 670.932 Q45.6343 666.922 55.0324 666.922 Z" fill="#000000" fill-rule="nonzero" fill-opacity="1" /><path clip-path="url(#clip700)" d="M42.2721 634.474 Q42.2721 640.47 46.9711 643.953 Q51.6297 647.437 59.772 647.437 Q67.9143 647.437 72.6133 643.994 Q77.2719 640.51 77.2719 634.474 Q77.2719 628.519 72.5728 625.036 Q67.8738 621.552 59.772 621.552 Q51.7107 621.552 47.0116 625.036 Q42.2721 628.519 42.2721 634.474 M35.9527 634.474 Q35.9527 624.752 42.2721 619.202 Q48.5915 613.653 59.772 613.653 Q70.912 613.653 77.2719 619.202 Q83.5913 624.752 83.5913 634.474 Q83.5913 644.237 77.2719 649.787 Q70.912 655.296 59.772 655.296 Q48.5915 655.296 42.2721 649.787 Q35.9527 644.237 35.9527 634.474 Z" fill="#000000" fill-rule="nonzero" fill-opacity="1" /><path clip-path="url(#clip700)" d="M42.2721 583.716 Q42.2721 589.712 46.9711 593.196 Q51.6297 596.679 59.772 596.679 Q67.9143 596.679 72.6133 593.236 Q77.2719 589.752 77.2719 583.716 Q77.2719 577.762 72.5728 574.278 Q67.8738 570.794 59.772 570.794 Q51.7107 570.794 47.0116 574.278 Q42.2721 577.762 42.2721 583.716 M35.9527 583.716 Q35.9527 573.994 42.2721 568.444 Q48.5915 562.895 59.772 562.895 Q70.912 562.895 77.2719 568.444 Q83.5913 573.994 83.5913 583.716 Q83.5913 593.479 77.2719 599.029 Q70.912 604.538 59.772 604.538 Q48.5915 604.538 42.2721 599.029 Q35.9527 593.479 35.9527 583.716 Z" fill="#000000" fill-rule="nonzero" fill-opacity="1" /><path clip-path="url(#clip700)" d="M43.9329 520.684 L19.3845 520.684 L19.3845 513.231 L82.4165 513.231 L82.4165 520.684 L75.611 520.684 Q79.6619 523.034 81.6469 526.639 Q83.5913 530.204 83.5913 535.227 Q83.5913 543.45 77.0288 548.636 Q70.4664 553.78 59.772 553.78 Q49.0776 553.78 42.5151 548.636 Q35.9527 543.45 35.9527 535.227 Q35.9527 530.204 37.9376 526.639 Q39.882 523.034 43.9329 520.684 M59.772 546.084 Q67.9953 546.084 72.6944 542.721 Q77.3529 539.318 77.3529 533.404 Q77.3529 527.49 72.6944 524.087 Q67.9953 520.684 59.772 520.684 Q51.5486 520.684 46.8901 524.087 Q42.1911 527.49 42.1911 533.404 Q42.1911 539.318 46.8901 542.721 Q51.5486 546.084 59.772 546.084 Z" fill="#000000" fill-rule="nonzero" fill-opacity="1" /><path clip-path="url(#clip700)" d="M19.3845 448.538 L25.5823 448.538 L25.5823 455.667 Q25.5823 459.678 27.2027 461.258 Q28.8231 462.797 33.036 462.797 L37.0464 462.797 L37.0464 450.523 L42.8392 450.523 L42.8392 462.797 L82.4165 462.797 L82.4165 470.291 L42.8392 470.291 L42.8392 477.421 L37.0464 477.421 L37.0464 470.291 L33.8867 470.291 Q26.3115 470.291 22.8682 466.767 Q19.3845 463.243 19.3845 455.586 L19.3845 448.538 Z" fill="#000000" fill-rule="nonzero" fill-opacity="1" /><path clip-path="url(#clip700)" d="M42.2721 424.718 Q42.2721 430.714 46.9711 434.198 Q51.6297 437.681 59.772 437.681 Q67.9143 437.681 72.6133 434.238 Q77.2719 430.754 77.2719 424.718 Q77.2719 418.764 72.5728 415.28 Q67.8738 411.796 59.772 411.796 Q51.7107 411.796 47.0116 415.28 Q42.2721 418.764 42.2721 424.718 M35.9527 424.718 Q35.9527 414.996 42.2721 409.447 Q48.5915 403.897 59.772 403.897 Q70.912 403.897 77.2719 409.447 Q83.5913 414.996 83.5913 424.718 Q83.5913 434.481 77.2719 440.031 Q70.912 445.54 59.772 445.54 Q48.5915 445.54 42.2721 440.031 Q35.9527 434.481 35.9527 424.718 Z" fill="#000000" fill-rule="nonzero" fill-opacity="1" /><path clip-path="url(#clip700)" d="M44.014 365.251 Q43.2848 366.507 42.9607 368.006 Q42.5961 369.464 42.5961 371.246 Q42.5961 377.566 46.7281 380.969 Q50.8195 384.331 58.5162 384.331 L82.4165 384.331 L82.4165 391.825 L37.0464 391.825 L37.0464 384.331 L44.095 384.331 Q39.9631 381.981 37.9781 378.214 Q35.9527 374.447 35.9527 369.059 Q35.9527 368.289 36.0742 367.358 Q36.1552 366.426 36.3578 365.292 L44.014 365.251 Z" fill="#000000" fill-rule="nonzero" fill-opacity="1" /><path clip-path="url(#clip700)" d="M35.9757 288.094 Q34.623 288.094 33.5163 288.463 Q32.3686 288.791 31.5898 289.324 Q30.77 289.816 30.1552 290.758 Q29.4994 291.701 29.0895 292.48 Q28.6796 293.259 28.4337 294.57 Q28.1467 295.882 28.0238 296.743 Q27.8598 297.604 27.7778 299.079 Q27.6958 300.555 27.6958 301.293 Q27.6958 301.989 27.6958 303.383 Q27.6958 307.769 27.7778 308.507 Q27.9418 309.613 28.5976 310.023 Q29.2124 310.433 30.893 310.843 L52.7813 316.295 L52.7813 306.908 Q52.7813 301.784 51.3467 298.259 Q49.912 294.734 47.9036 292.726 Q45.6901 290.512 42.1241 289.324 Q38.558 288.094 35.9757 288.094 M74.6286 278.953 Q75.0795 278.953 76.1042 279.322 Q77.1289 279.65 78.5635 280.47 Q79.9572 281.29 81.2278 282.397 Q82.4985 283.503 83.3593 285.266 Q84.261 287.028 84.261 289.037 Q84.261 289.529 84.2201 290.021 Q84.2201 290.512 84.0151 291.742 Q83.8512 292.931 83.5232 293.915 Q83.2363 294.898 82.5395 296.128 Q81.8837 297.358 80.9819 298.218 Q80.0392 299.038 78.5635 299.612 Q77.0469 300.186 75.2024 300.186 Q73.5628 300.186 68.0703 298.833 Q63.3975 297.645 62.2498 297.645 Q60.9791 297.645 59.7905 298.054 Q58.6018 298.423 57.3721 299.366 Q56.1424 300.268 55.4046 302.194 Q54.6258 304.121 54.6258 306.826 L54.6258 316.787 L76.883 322.361 Q76.924 322.361 77.4978 322.484 Q78.0307 322.607 78.3176 322.607 Q78.8505 322.607 79.1784 322.279 Q79.5063 321.91 79.6703 321.008 Q79.7932 320.107 79.8342 319.41 Q79.8342 318.672 79.8342 317.155 Q79.8342 315.27 80.1621 314.942 Q80.3671 314.778 80.736 314.778 Q81.3098 314.778 81.7197 314.942 Q82.0886 315.065 82.2116 315.393 Q82.3346 315.68 82.3755 315.885 Q82.4165 316.09 82.4165 316.459 L82.1706 327.116 L82.4165 337.691 Q82.4165 338.88 81.4738 338.88 Q80.654 338.88 80.3261 338.593 Q79.9572 338.306 79.9162 337.937 Q79.8342 337.568 79.8342 336.625 Q79.8342 334.576 79.7112 333.346 Q79.5883 332.117 79.4243 331.338 Q79.2194 330.518 78.6455 330.108 Q78.0717 329.657 77.5798 329.452 Q77.0469 329.247 75.8582 328.96 L30.77 317.729 Q29.4174 317.401 29.2124 317.401 Q28.4337 317.401 28.2287 317.893 Q27.9828 318.344 27.8598 319.656 L27.6958 322.853 Q27.6958 323.837 27.6549 324.247 Q27.6139 324.615 27.4089 324.902 Q27.204 325.189 26.7531 325.189 Q25.6054 325.189 25.3595 324.697 Q25.0725 324.206 25.0725 322.771 L25.0725 298.833 Q25.0725 290.676 28.6386 285.512 Q32.2047 280.306 37.6562 280.306 Q40.1156 280.306 42.411 281.413 Q44.7064 282.519 46.5099 284.364 Q48.3135 286.168 49.8301 288.586 Q51.3057 291.004 52.3304 293.587 Q53.3141 296.128 53.888 298.751 Q54.2979 297.604 54.9127 296.538 Q55.5276 295.431 56.6753 294.037 Q57.823 292.603 59.6675 291.742 Q61.512 290.881 63.7664 290.881 Q65.365 290.881 67.7424 291.209 Q74.5056 292.029 77.2929 292.029 Q79.9572 292.029 81.1869 291.332 Q82.4165 290.635 82.4165 288.668 Q82.4165 286.741 80.695 284.61 Q78.9324 282.438 74.7925 281.044 Q73.6038 280.716 73.6038 279.937 Q73.6038 279.896 73.6038 279.855 Q73.6038 279.773 73.6858 279.609 Q73.7268 279.445 73.8498 279.322 Q73.9318 279.158 74.1367 279.076 Q74.3416 278.953 74.6286 278.953 Z" fill="#000000" fill-rule="nonzero" fill-opacity="1" /><polyline clip-path="url(#clip702)" style="stroke:#000000; stroke-linecap:round; stroke-linejoin:round; stroke-width:8; stroke-opacity:1; fill:none" points="321.66,958.193 325.612,958.193 329.564,958.193 333.515,958.193 337.467,958.193 341.419,958.193 345.371,958.193 349.323,958.193 353.274,958.193 357.226,930.565 361.178,828.525 365.13,728.688 369.082,634.029 373.033,546.544 376.985,467.396 380.937,397.089 384.889,335.642 388.84,282.741 392.792,237.861 396.744,200.356 400.696,169.53 404.648,144.676 408.599,125.109 412.551,110.187 416.503,99.3154 420.455,91.9557 424.406,87.6245 428.358,85.8917 432.31,86.3774 436.262,88.7481 440.214,92.7119 444.165,98.0147 448.117,104.436 452.069,111.784 456.021,119.894 459.972,128.622 463.924,137.847 467.876,147.463 471.828,157.379 475.78,167.518 479.731,177.813 483.683,188.208 487.635,198.655 491.587,209.113 495.538,219.548 499.49,229.931 503.442,240.237 507.394,221.701 511.346,203.511 515.297,187.008 519.249,172.101 523.201,158.704 527.153,146.728 531.104,136.088 535.056,126.703 539.008,118.492 542.96,111.38 546.912,105.292 550.863,100.16 554.815,95.9159 558.767,92.4984 562.719,89.8477 566.67,87.9078 570.622,86.626 574.574,85.9529 578.526,85.8419 582.478,86.2495 586.429,87.1348 590.381,88.4598 594.333,90.1887 598.285,92.2884 602.236,94.7278 606.188,97.478 610.14,100.512 614.092,103.805 618.044,107.333 621.995,111.075 625.947,115.01 629.899,119.121 633.851,123.389 637.802,127.798 641.754,132.334 645.706,136.982 649.658,141.73 653.61,140.132 657.561,133.414 661.513,127.243 665.465,121.597 669.417,116.451 673.368,111.785 677.32,107.576 681.272,103.804 685.224,100.448 689.176,97.4882 693.127,94.9067 697.079,92.685 701.031,90.8056 704.983,89.2517 708.934,88.0071 712.886,87.0564 716.838,86.3846 720.79,85.9775 724.742,85.8214 728.693,85.9032 732.645,86.2104 736.597,86.7309 740.549,87.4534 744.5,88.3667 748.452,89.4605 752.404,90.7247 756.356,92.1498 760.308,93.7266 764.259,95.4465 768.211,97.3012 772.163,99.2826 776.115,101.383 780.067,103.596 784.018,105.914 787.97,108.331 791.922,110.84 795.874,113.436 799.825,115.461 803.777,111.989 807.729,108.775 811.681,105.81 815.633,103.086 819.584,100.593 823.536,98.3237 827.488,96.2702 831.44,94.4247 835.391,92.7794 839.343,91.3271 843.295,90.0606 847.247,88.9731 851.199,88.0577 855.15,87.308 859.102,86.7176 863.054,86.2805 867.006,85.9906 870.957,85.8422 874.909,85.8298 878.861,85.948 882.813,86.1915 886.765,86.5554 890.716,87.0346 894.668,87.6246 898.62,88.3207 902.572,89.1186 906.523,90.014 910.475,91.0028 914.427,92.081 918.379,93.2447 922.331,94.4904 926.282,95.8144 930.234,97.2132 934.186,98.6835 938.138,100.222 942.089,101.826 946.041,103.492 949.993,102.663 953.945,100.68 957.897,98.8411 961.848,97.1411 965.8,95.5762 969.752,94.1426 973.704,92.8364 977.655,91.6539 981.607,90.5913 985.559,89.6452 989.511,88.812 993.463,88.0884 997.414,87.6123 1001.37,86.9563 1005.32,86.5414 1009.27,86.2232 1013.22,85.9987 1017.17,85.8649 1021.13,85.8189 1025.08,85.8579 1029.03,85.9793 1032.98,86.1804 1036.93,86.4586 1040.88,86.8114 1044.84,87.2364 1048.79,87.7311 1052.74,88.2933 1056.69,88.9208 1060.64,89.6112 1064.59,90.3626 1068.55,91.1728 1072.5,92.0398 1076.45,92.9617 1080.4,93.9365 1084.35,94.9625 1088.31,96.0377 1092.26,97.1605 1096.21,97.7439 1100.16,96.3899 1104.11,95.1285 1108.06,93.9574 1112.02,92.8745 1115.97,91.8775 1119.92,90.9644 1123.87,90.133 1127.82,89.3812 1131.77,88.7072 1135.73,88.1089 1139.68,87.5844 1143.63,87.1318 1147.58,86.7493 1151.53,86.435 1155.49,86.1873 1159.44,86.0042 1163.39,85.8842 1167.34,85.8256 1171.29,85.828 1175.24,86.9629 1179.2,90.1599 1183.15,95.3977 1187.1,102.646 1191.05,111.863 1195,112.313 1198.96,111.951 1202.91,113.709 1206.86,117.572 1210.81,123.512 1214.76,131.494 1218.71,141.473 1222.67,153.392 1226.62,167.189 1230.57,182.791 1234.52,191.781 1238.47,198.434 1242.42,207.068 1246.38,217.631 1250.33,230.065 1254.28,244.299 1258.23,260.258 1262.18,277.857 1266.14,297.005 1270.09,316.269 1274.04,327.213 1277.99,339.88 1281.94,354.198 1285.89,370.089 1289.85,387.467 1293.8,406.239 1297.75,426.31 1301.7,447.577 1305.65,469.241 1309.6,483.292 1313.56,498.714 1317.51,515.422 1321.46,533.328 1325.41,552.337 1329.36,572.352 1333.32,593.274 1337.27,615 1341.22,633.934 1345.17,649.586 1349.12,666.217 1353.07,683.738 1357.03,702.06 1360.98,721.091 1364.93,740.738 1368.88,760.909 1372.83,780.254 1376.79,795.299 1380.74,811.023 1384.69,827.347 1388.64,844.189 1392.59,861.468 1396.54,879.103 1400.5,897.015 1404.45,913.786 1408.4,927.527 1412.35,941.685 1416.3,956.192 1420.25,970.977 1424.21,985.974 1428.16,1001.12 1432.11,1016.34 1436.06,1029.29 1440.01,1041.25 1443.97,1053.41 1447.92,1065.72 1451.87,1078.13 1455.82,1090.58 1459.77,1103.02 1463.72,1114.66 1467.68,1124.49 1471.63,1134.41 1475.58,1144.38 1479.53,1154.37 1483.48,1164.33 1487.43,1174.22 1491.39,1183.71 1495.34,1191.57 1499.29,1199.45 1503.24,1207.31 1507.19,1215.13 1511.15,1222.88 1515.1,1230.53 1519.05,1237.73 1523,1243.84 1526.95,1249.92 1530.9,1255.95 1534.86,1261.91 1538.81,1267.77 1542.76,1273.51 1546.71,1278.65 1550.66,1283.27 1554.62,1287.84 1558.57,1292.34 1562.52,1296.75 1566.47,1301.06 1570.42,1305.26 1574.37,1308.72 1578.33,1312.12 1582.28,1315.46 1586.23,1318.71 1590.18,1321.89 1594.13,1324.97 1598.08,1327.69 1602.04,1330.17 1605.99,1332.6 1609.94,1334.97 1613.89,1337.26 1617.84,1339.48 1621.8,1341.5 1625.75,1343.29 1629.7,1345.03 1633.65,1346.71 1637.6,1348.34 1641.55,1349.91 1645.51,1351.35 1649.46,1352.62 1653.41,1353.84 1657.36,1355.02 1661.31,1356.15 1665.26,1357.24 1669.22,1358.23 1673.17,1359.11 1677.12,1359.95 1681.07,1360.76 1685.02,1361.54 1688.98,1362.28 1692.93,1362.94 1696.88,1363.54 1700.83,1364.11 1704.78,1364.66 1708.73,1365.18 1712.69,1365.67 1716.64,1366.1 1720.59,1366.5 1724.54,1366.88 1728.49,1367.24 1732.45,1367.58 1736.4,1367.9 1740.35,1368.17 1744.3,1368.44 1748.25,1368.69 1752.2,1368.92 1756.16,1369.14 1760.11,1369.34 1764.06,1369.51 1768.01,1369.68 1771.96,1369.84 1775.91,1369.99 1779.87,1370.13 1783.82,1370.25 1787.77,1370.36 1791.72,1370.47 1795.67,1370.57 1799.63,1370.66 1803.58,1370.74 1807.53,1370.81 1811.48,1370.89 1815.43,1370.95 1819.38,1371.01 1823.34,1371.07 1827.29,1371.11 1831.24,1371.16 1835.19,1371.2 1839.14,1371.24 1843.09,1371.28 1847.05,1371.31 1851,1371.34 1854.95,1371.37 1858.9,1371.39 1862.85,1371.42 1866.81,1371.44 1870.76,1371.46 1874.71,1371.47 1878.66,1371.49 1882.61,1371.5 1886.56,1371.52 1890.52,1371.53 1894.47,1371.54 1898.42,1371.55 1902.37,1371.56 1906.32,1371.57 1910.28,1371.65 1914.23,1371.65 1918.18,1371.65 1922.13,1371.65 1926.08,1371.65 1930.03,1371.65 1933.99,1371.65 1937.94,1371.65 1941.89,1371.65 1945.84,1371.65 1949.79,1371.62 1953.74,1371.62 1957.7,1371.62 1961.65,1371.63 1965.6,1371.63 1969.55,1371.63 1973.5,1371.63 1977.46,1371.63 1981.41,1371.63 1985.36,1371.64 1989.31,1371.64 1993.26,1371.64 1997.21,1371.64 2001.17,1371.64 2005.12,1371.64 2009.07,1371.64 2013.02,1371.64 2016.97,1371.64 2020.93,1371.64 2024.88,1371.64 2028.83,1371.64 2032.78,1371.64 2036.73,1371.64 2040.68,1371.64 2044.64,1371.64 2048.59,1371.64 2052.54,1371.64 2056.49,1371.64 2060.44,1371.64 2064.39,1371.64 2068.35,1371.64 2072.3,1371.64 2076.25,1371.64 2080.2,1371.64 2084.15,1371.64 2088.11,1371.64 2092.06,1371.64 2096.01,1371.64 2099.96,1371.64 2103.91,1371.64 2107.86,1371.64 2111.82,1371.64 2115.77,1371.64 2119.72,1371.64 2123.67,1371.64 2127.62,1371.64 2131.57,1371.64 2135.53,1371.64 2139.48,1371.64 2143.43,1371.64 2147.38,1371.64 2151.33,1371.64 2155.29,1371.65 2159.24,1371.65 2163.19,1371.65 2167.14,1371.65 2171.09,1371.65 2175.04,1371.65 2179,1371.65 2182.95,1371.65 2186.9,1371.65 2190.85,1371.65 2194.8,1371.65 2198.76,1371.65 2202.71,1371.65 2206.66,1371.65 2210.61,1371.65 2214.56,1371.65 2218.51,1371.65 2222.47,1371.65 2226.42,1371.65 2230.37,1371.65 2234.32,1371.65 2238.27,1371.65 2242.22,1371.65 2246.18,1371.65 2250.13,1371.65 2254.08,1371.65 2258.03,1371.65 2261.98,1371.65 2265.94,1371.65 2269.89,1371.65 2273.84,1371.65 2277.79,1371.65 2281.74,1371.65 2285.69,1371.65 2289.65,1371.65 2293.6,1371.65 "/>
<polyline clip-path="url(#clip702)" style="stroke:#000000; stroke-linecap:round; stroke-linejoin:round; stroke-width:8; stroke-opacity:1; fill:none" stroke-dasharray="4, 8" points="1021.13,2773.2 1021.13,-1315.73 "/>
<polyline clip-path="url(#clip702)" style="stroke:#000000; stroke-linecap:round; stroke-linejoin:round; stroke-width:4; stroke-opacity:1; fill:none" points="-1827.75,1183.27 4443.01,1183.27 "/>
<polyline clip-path="url(#clip702)" style="stroke:#808080; stroke-linecap:round; stroke-linejoin:round; stroke-width:8; stroke-opacity:1; fill:none" points="683.853,2773.2 683.853,-1315.73 "/>
</svg>
