<?xml version="1.0" encoding="utf-8"?>
<svg xmlns="http://www.w3.org/2000/svg" xmlns:xlink="http://www.w3.org/1999/xlink" width="600" height="400" viewBox="0 0 2400 1600">
<defs>
  <clipPath id="clip220">
    <rect x="0" y="0" width="2400" height="1600"/>
  </clipPath>
</defs>
<path clip-path="url(#clip220)" d="M0 1600 L2400 1600 L2400 0 L0 0  Z" fill="#ffffff" fill-rule="evenodd" fill-opacity="1"/>
<defs>
  <clipPath id="clip221">
    <rect x="480" y="0" width="1681" height="1600"/>
  </clipPath>
</defs>
<defs>
  <clipPath id="clip222">
    <rect x="262" y="47" width="2091" height="1364"/>
  </clipPath>
</defs>
<path clip-path="url(#clip220)" d="M262.502 1410.22 L2352.76 1410.22 L2352.76 47.2441 L262.502 47.2441  Z" fill="#ffffff" fill-rule="evenodd" fill-opacity="1"/>
<polyline clip-path="url(#clip222)" style="stroke:#000000; stroke-linecap:round; stroke-linejoin:round; stroke-width:2; stroke-opacity:0.1; fill:none" points="281.417,1410.22 281.417,47.2441 "/>
<polyline clip-path="url(#clip222)" style="stroke:#000000; stroke-linecap:round; stroke-linejoin:round; stroke-width:2; stroke-opacity:0.1; fill:none" points="683.853,1410.22 683.853,47.2441 "/>
<polyline clip-path="url(#clip222)" style="stroke:#000000; stroke-linecap:round; stroke-linejoin:round; stroke-width:2; stroke-opacity:0.1; fill:none" points="1086.29,1410.22 1086.29,47.2441 "/>
<polyline clip-path="url(#clip222)" style="stroke:#000000; stroke-linecap:round; stroke-linejoin:round; stroke-width:2; stroke-opacity:0.1; fill:none" points="1488.73,1410.22 1488.73,47.2441 "/>
<polyline clip-path="url(#clip222)" style="stroke:#000000; stroke-linecap:round; stroke-linejoin:round; stroke-width:2; stroke-opacity:0.1; fill:none" points="1891.16,1410.22 1891.16,47.2441 "/>
<polyline clip-path="url(#clip222)" style="stroke:#000000; stroke-linecap:round; stroke-linejoin:round; stroke-width:2; stroke-opacity:0.1; fill:none" points="2293.6,1410.22 2293.6,47.2441 "/>
<polyline clip-path="url(#clip220)" style="stroke:#000000; stroke-linecap:round; stroke-linejoin:round; stroke-width:4; stroke-opacity:1; fill:none" points="262.502,1410.22 2352.76,1410.22 "/>
<polyline clip-path="url(#clip220)" style="stroke:#000000; stroke-linecap:round; stroke-linejoin:round; stroke-width:4; stroke-opacity:1; fill:none" points="281.417,1410.22 281.417,1391.32 "/>
<polyline clip-path="url(#clip220)" style="stroke:#000000; stroke-linecap:round; stroke-linejoin:round; stroke-width:4; stroke-opacity:1; fill:none" points="683.853,1410.22 683.853,1391.32 "/>
<polyline clip-path="url(#clip220)" style="stroke:#000000; stroke-linecap:round; stroke-linejoin:round; stroke-width:4; stroke-opacity:1; fill:none" points="1086.29,1410.22 1086.29,1391.32 "/>
<polyline clip-path="url(#clip220)" style="stroke:#000000; stroke-linecap:round; stroke-linejoin:round; stroke-width:4; stroke-opacity:1; fill:none" points="1488.73,1410.22 1488.73,1391.32 "/>
<polyline clip-path="url(#clip220)" style="stroke:#000000; stroke-linecap:round; stroke-linejoin:round; stroke-width:4; stroke-opacity:1; fill:none" points="1891.16,1410.22 1891.16,1391.32 "/>
<polyline clip-path="url(#clip220)" style="stroke:#000000; stroke-linecap:round; stroke-linejoin:round; stroke-width:4; stroke-opacity:1; fill:none" points="2293.6,1410.22 2293.6,1391.32 "/>
<path clip-path="url(#clip220)" d="M281.417 1441.14 Q277.805 1441.14 275.977 1444.7 Q274.171 1448.24 274.171 1455.37 Q274.171 1462.48 275.977 1466.05 Q277.805 1469.59 281.417 1469.59 Q285.051 1469.59 286.856 1466.05 Q288.685 1462.48 288.685 1455.37 Q288.685 1448.24 286.856 1444.7 Q285.051 1441.14 281.417 1441.14 M281.417 1437.43 Q287.227 1437.43 290.282 1442.04 Q293.361 1446.62 293.361 1455.37 Q293.361 1464.1 290.282 1468.71 Q287.227 1473.29 281.417 1473.29 Q275.606 1473.29 272.528 1468.71 Q269.472 1464.1 269.472 1455.37 Q269.472 1446.62 272.528 1442.04 Q275.606 1437.43 281.417 1437.43 Z" fill="#000000" fill-rule="nonzero" fill-opacity="1" /><path clip-path="url(#clip220)" d="M674.235 1468.68 L681.874 1468.68 L681.874 1442.32 L673.563 1443.99 L673.563 1439.73 L681.827 1438.06 L686.503 1438.06 L686.503 1468.68 L694.142 1468.68 L694.142 1472.62 L674.235 1472.62 L674.235 1468.68 Z" fill="#000000" fill-rule="nonzero" fill-opacity="1" /><path clip-path="url(#clip220)" d="M1080.94 1468.68 L1097.26 1468.68 L1097.26 1472.62 L1075.32 1472.62 L1075.32 1468.68 Q1077.98 1465.93 1082.56 1461.3 Q1087.17 1456.65 1088.35 1455.31 Q1090.59 1452.78 1091.47 1451.05 Q1092.38 1449.29 1092.38 1447.6 Q1092.38 1444.84 1090.43 1443.11 Q1088.51 1441.37 1085.41 1441.37 Q1083.21 1441.37 1080.76 1442.13 Q1078.33 1442.9 1075.55 1444.45 L1075.55 1439.73 Q1078.37 1438.59 1080.83 1438.01 Q1083.28 1437.43 1085.32 1437.43 Q1090.69 1437.43 1093.88 1440.12 Q1097.08 1442.81 1097.08 1447.3 Q1097.08 1449.43 1096.27 1451.35 Q1095.48 1453.24 1093.37 1455.84 Q1092.79 1456.51 1089.69 1459.73 Q1086.59 1462.92 1080.94 1468.68 Z" fill="#000000" fill-rule="nonzero" fill-opacity="1" /><path clip-path="url(#clip220)" d="M1492.97 1453.99 Q1496.33 1454.7 1498.2 1456.97 Q1500.1 1459.24 1500.1 1462.57 Q1500.1 1467.69 1496.58 1470.49 Q1493.07 1473.29 1486.58 1473.29 Q1484.41 1473.29 1482.09 1472.85 Q1479.8 1472.43 1477.35 1471.58 L1477.35 1467.06 Q1479.29 1468.2 1481.61 1468.78 Q1483.92 1469.36 1486.45 1469.36 Q1490.84 1469.36 1493.13 1467.62 Q1495.45 1465.88 1495.45 1462.57 Q1495.45 1459.52 1493.3 1457.81 Q1491.17 1456.07 1487.35 1456.07 L1483.32 1456.07 L1483.32 1452.23 L1487.53 1452.23 Q1490.98 1452.23 1492.81 1450.86 Q1494.64 1449.47 1494.64 1446.88 Q1494.64 1444.22 1492.74 1442.81 Q1490.87 1441.37 1487.35 1441.37 Q1485.43 1441.37 1483.23 1441.79 Q1481.03 1442.2 1478.39 1443.08 L1478.39 1438.92 Q1481.05 1438.18 1483.37 1437.81 Q1485.7 1437.43 1487.76 1437.43 Q1493.09 1437.43 1496.19 1439.87 Q1499.29 1442.27 1499.29 1446.39 Q1499.29 1449.26 1497.65 1451.25 Q1496.01 1453.22 1492.97 1453.99 Z" fill="#000000" fill-rule="nonzero" fill-opacity="1" /><path clip-path="url(#clip220)" d="M1894.17 1442.13 L1882.37 1460.58 L1894.17 1460.58 L1894.17 1442.13 M1892.94 1438.06 L1898.82 1438.06 L1898.82 1460.58 L1903.75 1460.58 L1903.75 1464.47 L1898.82 1464.47 L1898.82 1472.62 L1894.17 1472.62 L1894.17 1464.47 L1878.57 1464.47 L1878.57 1459.96 L1892.94 1438.06 Z" fill="#000000" fill-rule="nonzero" fill-opacity="1" /><path clip-path="url(#clip220)" d="M2283.88 1438.06 L2302.23 1438.06 L2302.23 1442 L2288.16 1442 L2288.16 1450.47 Q2289.18 1450.12 2290.2 1449.96 Q2291.21 1449.77 2292.23 1449.77 Q2298.02 1449.77 2301.4 1452.94 Q2304.78 1456.12 2304.78 1461.53 Q2304.78 1467.11 2301.31 1470.21 Q2297.83 1473.29 2291.51 1473.29 Q2289.34 1473.29 2287.07 1472.92 Q2284.82 1472.55 2282.42 1471.81 L2282.42 1467.11 Q2284.5 1468.24 2286.72 1468.8 Q2288.95 1469.36 2291.42 1469.36 Q2295.43 1469.36 2297.76 1467.25 Q2300.1 1465.14 2300.1 1461.53 Q2300.1 1457.92 2297.76 1455.81 Q2295.43 1453.71 2291.42 1453.71 Q2289.55 1453.71 2287.67 1454.12 Q2285.82 1454.54 2283.88 1455.42 L2283.88 1438.06 Z" fill="#000000" fill-rule="nonzero" fill-opacity="1" /><path clip-path="url(#clip220)" d="M1321.45 1515.01 Q1321.45 1521.77 1318.54 1528.41 Q1315.67 1535.01 1311 1540.01 Q1306.36 1544.97 1300.09 1548.04 Q1293.82 1551.12 1287.43 1551.12 L1259.64 1551.12 Q1258.65 1551.12 1258.24 1551.08 Q1257.87 1551.04 1257.59 1550.83 Q1257.3 1550.58 1257.3 1550.09 Q1257.3 1549.31 1257.63 1548.99 Q1257.96 1548.62 1258.32 1548.58 Q1258.69 1548.54 1259.64 1548.54 Q1261.69 1548.54 1262.92 1548.41 Q1264.15 1548.29 1264.92 1548.13 Q1265.74 1547.92 1266.15 1547.35 Q1266.6 1546.77 1266.81 1546.28 Q1267.01 1545.75 1267.3 1544.56 L1278.53 1499.47 Q1278.86 1498.12 1278.86 1497.91 Q1278.86 1497.22 1278.45 1496.97 Q1278.08 1496.68 1277.02 1496.56 Q1274.97 1496.4 1273.41 1496.4 Q1272.38 1496.4 1271.97 1496.36 Q1271.61 1496.31 1271.28 1496.11 Q1270.99 1495.86 1270.99 1495.37 Q1270.99 1494.59 1271.32 1494.27 Q1271.69 1493.9 1272.1 1493.86 Q1272.51 1493.77 1273.49 1493.77 L1301.69 1493.77 Q1307.8 1493.77 1312.35 1496.64 Q1316.9 1499.47 1319.15 1504.27 Q1321.45 1509.02 1321.45 1515.01 M1314.11 1511.93 Q1314.11 1504.1 1309.85 1500.25 Q1305.63 1496.4 1298.95 1496.4 L1289.97 1496.4 Q1287.3 1496.4 1286.65 1496.89 Q1285.99 1497.34 1285.42 1499.59 L1273.9 1545.67 Q1273.49 1547.18 1273.49 1547.59 Q1273.49 1548.04 1273.7 1548.21 Q1273.94 1548.33 1274.6 1548.41 Q1275.34 1548.54 1276.44 1548.54 L1285.91 1548.54 Q1289.56 1548.54 1292.88 1547.55 Q1296.24 1546.53 1298.66 1544.93 Q1301.08 1543.29 1302.63 1541.89 Q1304.19 1540.46 1305.3 1539.03 Q1307.8 1535.79 1309.64 1531.57 Q1311.53 1527.34 1312.39 1523.49 Q1313.29 1519.6 1313.7 1516.73 Q1314.11 1513.82 1314.11 1511.93 Z" fill="#000000" fill-rule="nonzero" fill-opacity="1" /><path clip-path="url(#clip220)" d="M1329.79 1540.83 L1329.79 1539 Q1336.85 1539 1340.49 1535.24 Q1341.5 1535.24 1341.67 1535.47 Q1341.84 1535.7 1341.84 1536.76 L1341.84 1569.73 Q1341.84 1571.48 1342.7 1572.02 Q1343.56 1572.57 1347.32 1572.57 L1349.19 1572.57 L1349.19 1574.38 Q1347.12 1574.2 1339.66 1574.2 Q1332.2 1574.2 1330.16 1574.38 L1330.16 1572.57 L1332.03 1572.57 Q1335.73 1572.57 1336.62 1572.05 Q1337.51 1571.51 1337.51 1569.73 L1337.51 1539.28 Q1334.44 1540.83 1329.79 1540.83 Z" fill="#000000" fill-rule="nonzero" fill-opacity="1" /><polyline clip-path="url(#clip222)" style="stroke:#000000; stroke-linecap:round; stroke-linejoin:round; stroke-width:2; stroke-opacity:0.1; fill:none" points="262.502,1371.65 2352.76,1371.65 "/>
<polyline clip-path="url(#clip222)" style="stroke:#000000; stroke-linecap:round; stroke-linejoin:round; stroke-width:2; stroke-opacity:0.1; fill:none" points="262.502,1050.19 2352.76,1050.19 "/>
<polyline clip-path="url(#clip222)" style="stroke:#000000; stroke-linecap:round; stroke-linejoin:round; stroke-width:2; stroke-opacity:0.1; fill:none" points="262.502,728.732 2352.76,728.732 "/>
<polyline clip-path="url(#clip222)" style="stroke:#000000; stroke-linecap:round; stroke-linejoin:round; stroke-width:2; stroke-opacity:0.1; fill:none" points="262.502,407.275 2352.76,407.275 "/>
<polyline clip-path="url(#clip222)" style="stroke:#000000; stroke-linecap:round; stroke-linejoin:round; stroke-width:2; stroke-opacity:0.1; fill:none" points="262.502,85.8189 2352.76,85.8189 "/>
<polyline clip-path="url(#clip220)" style="stroke:#000000; stroke-linecap:round; stroke-linejoin:round; stroke-width:4; stroke-opacity:1; fill:none" points="262.502,1410.22 262.502,47.2441 "/>
<polyline clip-path="url(#clip220)" style="stroke:#000000; stroke-linecap:round; stroke-linejoin:round; stroke-width:4; stroke-opacity:1; fill:none" points="262.502,1371.65 281.4,1371.65 "/>
<polyline clip-path="url(#clip220)" style="stroke:#000000; stroke-linecap:round; stroke-linejoin:round; stroke-width:4; stroke-opacity:1; fill:none" points="262.502,1050.19 281.4,1050.19 "/>
<polyline clip-path="url(#clip220)" style="stroke:#000000; stroke-linecap:round; stroke-linejoin:round; stroke-width:4; stroke-opacity:1; fill:none" points="262.502,728.732 281.4,728.732 "/>
<polyline clip-path="url(#clip220)" style="stroke:#000000; stroke-linecap:round; stroke-linejoin:round; stroke-width:4; stroke-opacity:1; fill:none" points="262.502,407.275 281.4,407.275 "/>
<polyline clip-path="url(#clip220)" style="stroke:#000000; stroke-linecap:round; stroke-linejoin:round; stroke-width:4; stroke-opacity:1; fill:none" points="262.502,85.8189 281.4,85.8189 "/>
<path clip-path="url(#clip220)" d="M139.165 1357.44 Q135.553 1357.44 133.725 1361.01 Q131.919 1364.55 131.919 1371.68 Q131.919 1378.79 133.725 1382.35 Q135.553 1385.89 139.165 1385.89 Q142.799 1385.89 144.604 1382.35 Q146.433 1378.79 146.433 1371.68 Q146.433 1364.55 144.604 1361.01 Q142.799 1357.44 139.165 1357.44 M139.165 1353.74 Q144.975 1353.74 148.03 1358.35 Q151.109 1362.93 151.109 1371.68 Q151.109 1380.41 148.03 1385.01 Q144.975 1389.6 139.165 1389.6 Q133.354 1389.6 130.276 1385.01 Q127.22 1380.41 127.22 1371.68 Q127.22 1362.93 130.276 1358.35 Q133.354 1353.74 139.165 1353.74 Z" fill="#000000" fill-rule="nonzero" fill-opacity="1" /><path clip-path="url(#clip220)" d="M159.326 1383.05 L164.211 1383.05 L164.211 1388.93 L159.326 1388.93 L159.326 1383.05 Z" fill="#000000" fill-rule="nonzero" fill-opacity="1" /><path clip-path="url(#clip220)" d="M184.396 1357.44 Q180.785 1357.44 178.956 1361.01 Q177.15 1364.55 177.15 1371.68 Q177.15 1378.79 178.956 1382.35 Q180.785 1385.89 184.396 1385.89 Q188.03 1385.89 189.836 1382.35 Q191.664 1378.79 191.664 1371.68 Q191.664 1364.55 189.836 1361.01 Q188.03 1357.44 184.396 1357.44 M184.396 1353.74 Q190.206 1353.74 193.261 1358.35 Q196.34 1362.93 196.34 1371.68 Q196.34 1380.41 193.261 1385.01 Q190.206 1389.6 184.396 1389.6 Q178.586 1389.6 175.507 1385.01 Q172.451 1380.41 172.451 1371.68 Q172.451 1362.93 175.507 1358.35 Q178.586 1353.74 184.396 1353.74 Z" fill="#000000" fill-rule="nonzero" fill-opacity="1" /><path clip-path="url(#clip220)" d="M214.558 1357.44 Q210.947 1357.44 209.118 1361.01 Q207.312 1364.55 207.312 1371.68 Q207.312 1378.79 209.118 1382.35 Q210.947 1385.89 214.558 1385.89 Q218.192 1385.89 219.997 1382.35 Q221.826 1378.79 221.826 1371.68 Q221.826 1364.55 219.997 1361.01 Q218.192 1357.44 214.558 1357.44 M214.558 1353.74 Q220.368 1353.74 223.423 1358.35 Q226.502 1362.93 226.502 1371.68 Q226.502 1380.41 223.423 1385.01 Q220.368 1389.6 214.558 1389.6 Q208.747 1389.6 205.669 1385.01 Q202.613 1380.41 202.613 1371.68 Q202.613 1362.93 205.669 1358.35 Q208.747 1353.74 214.558 1353.74 Z" fill="#000000" fill-rule="nonzero" fill-opacity="1" /><path clip-path="url(#clip220)" d="M140.16 1035.99 Q136.549 1035.99 134.72 1039.55 Q132.915 1043.09 132.915 1050.22 Q132.915 1057.33 134.72 1060.89 Q136.549 1064.44 140.16 1064.44 Q143.794 1064.44 145.6 1060.89 Q147.428 1057.33 147.428 1050.22 Q147.428 1043.09 145.6 1039.55 Q143.794 1035.99 140.16 1035.99 M140.16 1032.28 Q145.97 1032.28 149.026 1036.89 Q152.104 1041.47 152.104 1050.22 Q152.104 1058.95 149.026 1063.56 Q145.97 1068.14 140.16 1068.14 Q134.35 1068.14 131.271 1063.56 Q128.216 1058.95 128.216 1050.22 Q128.216 1041.47 131.271 1036.89 Q134.35 1032.28 140.16 1032.28 Z" fill="#000000" fill-rule="nonzero" fill-opacity="1" /><path clip-path="url(#clip220)" d="M160.322 1061.59 L165.206 1061.59 L165.206 1067.47 L160.322 1067.47 L160.322 1061.59 Z" fill="#000000" fill-rule="nonzero" fill-opacity="1" /><path clip-path="url(#clip220)" d="M179.419 1063.53 L195.738 1063.53 L195.738 1067.47 L173.794 1067.47 L173.794 1063.53 Q176.456 1060.78 181.039 1056.15 Q185.646 1051.5 186.826 1050.15 Q189.072 1047.63 189.951 1045.89 Q190.854 1044.14 190.854 1042.45 Q190.854 1039.69 188.91 1037.95 Q186.988 1036.22 183.887 1036.22 Q181.687 1036.22 179.234 1036.98 Q176.803 1037.75 174.025 1039.3 L174.025 1034.58 Q176.85 1033.44 179.303 1032.86 Q181.757 1032.28 183.794 1032.28 Q189.164 1032.28 192.359 1034.97 Q195.553 1037.65 195.553 1042.14 Q195.553 1044.27 194.743 1046.2 Q193.956 1048.09 191.849 1050.69 Q191.271 1051.36 188.169 1054.58 Q185.067 1057.77 179.419 1063.53 Z" fill="#000000" fill-rule="nonzero" fill-opacity="1" /><path clip-path="url(#clip220)" d="M205.599 1032.91 L223.956 1032.91 L223.956 1036.84 L209.882 1036.84 L209.882 1045.32 Q210.9 1044.97 211.919 1044.81 Q212.937 1044.62 213.956 1044.62 Q219.743 1044.62 223.122 1047.79 Q226.502 1050.96 226.502 1056.38 Q226.502 1061.96 223.03 1065.06 Q219.558 1068.14 213.238 1068.14 Q211.062 1068.14 208.794 1067.77 Q206.548 1067.4 204.141 1066.66 L204.141 1061.96 Q206.224 1063.09 208.447 1063.65 Q210.669 1064.2 213.146 1064.2 Q217.15 1064.2 219.488 1062.1 Q221.826 1059.99 221.826 1056.38 Q221.826 1052.77 219.488 1050.66 Q217.15 1048.56 213.146 1048.56 Q211.271 1048.56 209.396 1048.97 Q207.544 1049.39 205.599 1050.27 L205.599 1032.91 Z" fill="#000000" fill-rule="nonzero" fill-opacity="1" /><path clip-path="url(#clip220)" d="M139.165 714.531 Q135.553 714.531 133.725 718.095 Q131.919 721.637 131.919 728.767 Q131.919 735.873 133.725 739.438 Q135.553 742.98 139.165 742.98 Q142.799 742.98 144.604 739.438 Q146.433 735.873 146.433 728.767 Q146.433 721.637 144.604 718.095 Q142.799 714.531 139.165 714.531 M139.165 710.827 Q144.975 710.827 148.03 715.433 Q151.109 720.017 151.109 728.767 Q151.109 737.493 148.03 742.1 Q144.975 746.683 139.165 746.683 Q133.354 746.683 130.276 742.1 Q127.22 737.493 127.22 728.767 Q127.22 720.017 130.276 715.433 Q133.354 710.827 139.165 710.827 Z" fill="#000000" fill-rule="nonzero" fill-opacity="1" /><path clip-path="url(#clip220)" d="M159.326 740.132 L164.211 740.132 L164.211 746.012 L159.326 746.012 L159.326 740.132 Z" fill="#000000" fill-rule="nonzero" fill-opacity="1" /><path clip-path="url(#clip220)" d="M174.442 711.452 L192.799 711.452 L192.799 715.387 L178.725 715.387 L178.725 723.859 Q179.743 723.512 180.762 723.35 Q181.78 723.165 182.799 723.165 Q188.586 723.165 191.965 726.336 Q195.345 729.507 195.345 734.924 Q195.345 740.503 191.873 743.605 Q188.4 746.683 182.081 746.683 Q179.905 746.683 177.637 746.313 Q175.391 745.943 172.984 745.202 L172.984 740.503 Q175.067 741.637 177.289 742.193 Q179.512 742.748 181.988 742.748 Q185.993 742.748 188.331 740.642 Q190.669 738.535 190.669 734.924 Q190.669 731.313 188.331 729.207 Q185.993 727.1 181.988 727.1 Q180.113 727.1 178.238 727.517 Q176.387 727.933 174.442 728.813 L174.442 711.452 Z" fill="#000000" fill-rule="nonzero" fill-opacity="1" /><path clip-path="url(#clip220)" d="M214.558 714.531 Q210.947 714.531 209.118 718.095 Q207.312 721.637 207.312 728.767 Q207.312 735.873 209.118 739.438 Q210.947 742.98 214.558 742.98 Q218.192 742.98 219.997 739.438 Q221.826 735.873 221.826 728.767 Q221.826 721.637 219.997 718.095 Q218.192 714.531 214.558 714.531 M214.558 710.827 Q220.368 710.827 223.423 715.433 Q226.502 720.017 226.502 728.767 Q226.502 737.493 223.423 742.1 Q220.368 746.683 214.558 746.683 Q208.747 746.683 205.669 742.1 Q202.613 737.493 202.613 728.767 Q202.613 720.017 205.669 715.433 Q208.747 710.827 214.558 710.827 Z" fill="#000000" fill-rule="nonzero" fill-opacity="1" /><path clip-path="url(#clip220)" d="M140.16 393.074 Q136.549 393.074 134.72 396.639 Q132.915 400.181 132.915 407.31 Q132.915 414.417 134.72 417.981 Q136.549 421.523 140.16 421.523 Q143.794 421.523 145.6 417.981 Q147.428 414.417 147.428 407.31 Q147.428 400.181 145.6 396.639 Q143.794 393.074 140.16 393.074 M140.16 389.37 Q145.97 389.37 149.026 393.977 Q152.104 398.56 152.104 407.31 Q152.104 416.037 149.026 420.643 Q145.97 425.227 140.16 425.227 Q134.35 425.227 131.271 420.643 Q128.216 416.037 128.216 407.31 Q128.216 398.56 131.271 393.977 Q134.35 389.37 140.16 389.37 Z" fill="#000000" fill-rule="nonzero" fill-opacity="1" /><path clip-path="url(#clip220)" d="M160.322 418.676 L165.206 418.676 L165.206 424.555 L160.322 424.555 L160.322 418.676 Z" fill="#000000" fill-rule="nonzero" fill-opacity="1" /><path clip-path="url(#clip220)" d="M174.211 389.995 L196.433 389.995 L196.433 391.986 L183.887 424.555 L179.002 424.555 L190.808 393.931 L174.211 393.931 L174.211 389.995 Z" fill="#000000" fill-rule="nonzero" fill-opacity="1" /><path clip-path="url(#clip220)" d="M205.599 389.995 L223.956 389.995 L223.956 393.931 L209.882 393.931 L209.882 402.403 Q210.9 402.056 211.919 401.894 Q212.937 401.708 213.956 401.708 Q219.743 401.708 223.122 404.88 Q226.502 408.051 226.502 413.468 Q226.502 419.046 223.03 422.148 Q219.558 425.227 213.238 425.227 Q211.062 425.227 208.794 424.856 Q206.548 424.486 204.141 423.745 L204.141 419.046 Q206.224 420.18 208.447 420.736 Q210.669 421.292 213.146 421.292 Q217.15 421.292 219.488 419.185 Q221.826 417.079 221.826 413.468 Q221.826 409.856 219.488 407.75 Q217.15 405.643 213.146 405.643 Q211.271 405.643 209.396 406.06 Q207.544 406.477 205.599 407.356 L205.599 389.995 Z" fill="#000000" fill-rule="nonzero" fill-opacity="1" /><path clip-path="url(#clip220)" d="M129.975 99.1637 L137.614 99.1637 L137.614 72.7981 L129.303 74.4648 L129.303 70.2055 L137.567 68.5389 L142.243 68.5389 L142.243 99.1637 L149.882 99.1637 L149.882 103.099 L129.975 103.099 L129.975 99.1637 Z" fill="#000000" fill-rule="nonzero" fill-opacity="1" /><path clip-path="url(#clip220)" d="M159.326 97.2193 L164.211 97.2193 L164.211 103.099 L159.326 103.099 L159.326 97.2193 Z" fill="#000000" fill-rule="nonzero" fill-opacity="1" /><path clip-path="url(#clip220)" d="M184.396 71.6176 Q180.785 71.6176 178.956 75.1824 Q177.15 78.724 177.15 85.8536 Q177.15 92.96 178.956 96.5248 Q180.785 100.066 184.396 100.066 Q188.03 100.066 189.836 96.5248 Q191.664 92.96 191.664 85.8536 Q191.664 78.724 189.836 75.1824 Q188.03 71.6176 184.396 71.6176 M184.396 67.9139 Q190.206 67.9139 193.261 72.5203 Q196.34 77.1036 196.34 85.8536 Q196.34 94.5804 193.261 99.1869 Q190.206 103.77 184.396 103.77 Q178.586 103.77 175.507 99.1869 Q172.451 94.5804 172.451 85.8536 Q172.451 77.1036 175.507 72.5203 Q178.586 67.9139 184.396 67.9139 Z" fill="#000000" fill-rule="nonzero" fill-opacity="1" /><path clip-path="url(#clip220)" d="M214.558 71.6176 Q210.947 71.6176 209.118 75.1824 Q207.312 78.724 207.312 85.8536 Q207.312 92.96 209.118 96.5248 Q210.947 100.066 214.558 100.066 Q218.192 100.066 219.997 96.5248 Q221.826 92.96 221.826 85.8536 Q221.826 78.724 219.997 75.1824 Q218.192 71.6176 214.558 71.6176 M214.558 67.9139 Q220.368 67.9139 223.423 72.5203 Q226.502 77.1036 226.502 85.8536 Q226.502 94.5804 223.423 99.1869 Q220.368 103.77 214.558 103.77 Q208.747 103.77 205.669 99.1869 Q202.613 94.5804 202.613 85.8536 Q202.613 77.1036 205.669 72.5203 Q208.747 67.9139 214.558 67.9139 Z" fill="#000000" fill-rule="nonzero" fill-opacity="1" /><path clip-path="url(#clip220)" d="M64.8963 1192.96 L88.9587 1192.96 L88.9587 1200.46 L26.3317 1200.46 L26.3317 1192.96 L33.2183 1192.96 Q29.1674 1190.61 27.2229 1187.05 Q25.238 1183.44 25.238 1178.46 Q25.238 1170.2 31.8004 1165.05 Q38.3629 1159.87 49.0573 1159.87 Q59.7517 1159.87 66.3141 1165.05 Q72.8766 1170.2 72.8766 1178.46 Q72.8766 1183.44 70.9322 1187.05 Q68.9472 1190.61 64.8963 1192.96 M49.0573 1167.6 Q40.834 1167.6 36.1754 1171.01 Q31.4764 1174.37 31.4764 1180.28 Q31.4764 1186.2 36.1754 1189.6 Q40.834 1192.96 49.0573 1192.96 Q57.2806 1192.96 61.9797 1189.6 Q66.6382 1186.2 66.6382 1180.28 Q66.6382 1174.37 61.9797 1171.01 Q57.2806 1167.6 49.0573 1167.6 Z" fill="#000000" fill-rule="nonzero" fill-opacity="1" /><path clip-path="url(#clip220)" d="M33.2993 1121.22 Q32.5701 1122.48 32.246 1123.97 Q31.8815 1125.43 31.8815 1127.22 Q31.8815 1133.54 36.0134 1136.94 Q40.1048 1140.3 47.8015 1140.3 L71.7018 1140.3 L71.7018 1147.79 L26.3317 1147.79 L26.3317 1140.3 L33.3803 1140.3 Q29.2484 1137.95 27.2634 1134.18 Q25.238 1130.42 25.238 1125.03 Q25.238 1124.26 25.3595 1123.33 Q25.4405 1122.4 25.6431 1121.26 L33.2993 1121.22 Z" fill="#000000" fill-rule="nonzero" fill-opacity="1" /><path clip-path="url(#clip220)" d="M31.5574 1097.64 Q31.5574 1103.64 36.2564 1107.12 Q40.915 1110.61 49.0573 1110.61 Q57.1996 1110.61 61.8987 1107.16 Q66.5572 1103.68 66.5572 1097.64 Q66.5572 1091.69 61.8581 1088.21 Q57.1591 1084.72 49.0573 1084.72 Q40.996 1084.72 36.2969 1088.21 Q31.5574 1091.69 31.5574 1097.64 M25.238 1097.64 Q25.238 1087.92 31.5574 1082.37 Q37.8768 1076.82 49.0573 1076.82 Q60.1973 1076.82 66.5572 1082.37 Q72.8766 1087.92 72.8766 1097.64 Q72.8766 1107.41 66.5572 1112.96 Q60.1973 1118.47 49.0573 1118.47 Q37.8768 1118.47 31.5574 1112.96 Q25.238 1107.41 25.238 1097.64 Z" fill="#000000" fill-rule="nonzero" fill-opacity="1" /><path clip-path="url(#clip220)" d="M8.66978 1041.5 L14.8677 1041.5 L14.8677 1048.63 Q14.8677 1052.64 16.488 1054.22 Q18.1084 1055.76 22.3213 1055.76 L26.3317 1055.76 L26.3317 1043.48 L32.1245 1043.48 L32.1245 1055.76 L71.7018 1055.76 L71.7018 1063.25 L32.1245 1063.25 L32.1245 1070.38 L26.3317 1070.38 L26.3317 1063.25 L23.172 1063.25 Q15.5968 1063.25 12.1536 1059.73 Q8.66978 1056.2 8.66978 1048.55 L8.66978 1041.5 Z" fill="#000000" fill-rule="nonzero" fill-opacity="1" /><path clip-path="url(#clip220)" d="M26.3317 1035.26 L26.3317 1027.81 L71.7018 1027.81 L71.7018 1035.26 L26.3317 1035.26 M8.66978 1035.26 L8.66978 1027.81 L18.1084 1027.81 L18.1084 1035.26 L8.66978 1035.26 Z" fill="#000000" fill-rule="nonzero" fill-opacity="1" /><path clip-path="url(#clip220)" d="M8.66978 1012.21 L8.66978 1004.76 L71.7018 1004.76 L71.7018 1012.21 L8.66978 1012.21 Z" fill="#000000" fill-rule="nonzero" fill-opacity="1" /><path clip-path="url(#clip220)" d="M47.1534 950.353 L50.7992 950.353 L50.7992 984.624 Q58.4959 984.138 62.5468 980.006 Q66.5572 975.833 66.5572 968.42 Q66.5572 964.126 65.504 960.116 Q64.4507 956.065 62.3443 952.095 L69.3928 952.095 Q71.0942 956.105 71.9854 960.318 Q72.8766 964.531 72.8766 968.866 Q72.8766 979.722 66.5572 986.082 Q60.2378 992.402 49.4624 992.402 Q38.3224 992.402 31.8004 986.406 Q25.238 980.37 25.238 970.162 Q25.238 961.007 31.1523 955.7 Q37.0261 950.353 47.1534 950.353 M44.9659 957.807 Q38.849 957.888 35.2032 961.25 Q31.5574 964.572 31.5574 970.081 Q31.5574 976.319 35.0817 980.087 Q38.606 983.814 45.0064 984.381 L44.9659 957.807 Z" fill="#000000" fill-rule="nonzero" fill-opacity="1" /><path clip-path="url(#clip220)" d="M8.66978 911.748 L8.66978 904.294 L71.7018 904.294 L71.7018 911.748 L8.66978 911.748 Z" fill="#000000" fill-rule="nonzero" fill-opacity="1" /><path clip-path="url(#clip220)" d="M26.3317 888.698 L26.3317 881.245 L71.7018 881.245 L71.7018 888.698 L26.3317 888.698 M8.66978 888.698 L8.66978 881.245 L18.1084 881.245 L18.1084 888.698 L8.66978 888.698 Z" fill="#000000" fill-rule="nonzero" fill-opacity="1" /><path clip-path="url(#clip220)" d="M8.66978 865.932 L8.66978 858.438 L45.8976 858.438 L26.3317 836.199 L26.3317 826.679 L47.5585 850.741 L71.7018 825.666 L71.7018 835.389 L49.5434 858.438 L71.7018 858.438 L71.7018 865.932 L8.66978 865.932 Z" fill="#000000" fill-rule="nonzero" fill-opacity="1" /><path clip-path="url(#clip220)" d="M47.1534 781.755 L50.7992 781.755 L50.7992 816.025 Q58.4959 815.539 62.5468 811.407 Q66.5572 807.235 66.5572 799.822 Q66.5572 795.528 65.504 791.517 Q64.4507 787.466 62.3443 783.496 L69.3928 783.496 Q71.0942 787.507 71.9854 791.72 Q72.8766 795.933 72.8766 800.267 Q72.8766 811.124 66.5572 817.484 Q60.2378 823.803 49.4624 823.803 Q38.3224 823.803 31.8004 817.808 Q25.238 811.772 25.238 801.563 Q25.238 792.408 31.1523 787.102 Q37.0261 781.755 47.1534 781.755 M44.9659 789.208 Q38.849 789.289 35.2032 792.652 Q31.5574 795.973 31.5574 801.482 Q31.5574 807.721 35.0817 811.488 Q38.606 815.215 45.0064 815.782 L44.9659 789.208 Z" fill="#000000" fill-rule="nonzero" fill-opacity="1" /><path clip-path="url(#clip220)" d="M8.66978 769.521 L8.66978 762.067 L71.7018 762.067 L71.7018 769.521 L8.66978 769.521 Z" fill="#000000" fill-rule="nonzero" fill-opacity="1" /><path clip-path="url(#clip220)" d="M26.3317 746.471 L26.3317 739.018 L71.7018 739.018 L71.7018 746.471 L26.3317 746.471 M8.66978 746.471 L8.66978 739.018 L18.1084 739.018 L18.1084 746.471 L8.66978 746.471 Z" fill="#000000" fill-rule="nonzero" fill-opacity="1" /><path clip-path="url(#clip220)" d="M44.3177 685.708 L71.7018 685.708 L71.7018 693.161 L44.5608 693.161 Q38.1198 693.161 34.9196 695.673 Q31.7194 698.184 31.7194 703.208 Q31.7194 709.243 35.5678 712.727 Q39.4161 716.211 46.0596 716.211 L71.7018 716.211 L71.7018 723.705 L8.66978 723.705 L8.66978 716.211 L33.3803 716.211 Q29.2889 713.537 27.2634 709.932 Q25.238 706.286 25.238 701.547 Q25.238 693.728 30.0991 689.718 Q34.9196 685.708 44.3177 685.708 Z" fill="#000000" fill-rule="nonzero" fill-opacity="1" /><path clip-path="url(#clip220)" d="M31.5574 653.26 Q31.5574 659.255 36.2564 662.739 Q40.915 666.223 49.0573 666.223 Q57.1996 666.223 61.8987 662.78 Q66.5572 659.296 66.5572 653.26 Q66.5572 647.305 61.8581 643.821 Q57.1591 640.338 49.0573 640.338 Q40.996 640.338 36.2969 643.821 Q31.5574 647.305 31.5574 653.26 M25.238 653.26 Q25.238 643.538 31.5574 637.988 Q37.8768 632.438 49.0573 632.438 Q60.1973 632.438 66.5572 637.988 Q72.8766 643.538 72.8766 653.26 Q72.8766 663.023 66.5572 668.572 Q60.1973 674.082 49.0573 674.082 Q37.8768 674.082 31.5574 668.572 Q25.238 663.023 25.238 653.26 Z" fill="#000000" fill-rule="nonzero" fill-opacity="1" /><path clip-path="url(#clip220)" d="M31.5574 602.502 Q31.5574 608.497 36.2564 611.981 Q40.915 615.465 49.0573 615.465 Q57.1996 615.465 61.8987 612.022 Q66.5572 608.538 66.5572 602.502 Q66.5572 596.547 61.8581 593.063 Q57.1591 589.58 49.0573 589.58 Q40.996 589.58 36.2969 593.063 Q31.5574 596.547 31.5574 602.502 M25.238 602.502 Q25.238 592.78 31.5574 587.23 Q37.8768 581.68 49.0573 581.68 Q60.1973 581.68 66.5572 587.23 Q72.8766 592.78 72.8766 602.502 Q72.8766 612.265 66.5572 617.814 Q60.1973 623.324 49.0573 623.324 Q37.8768 623.324 31.5574 617.814 Q25.238 612.265 25.238 602.502 Z" fill="#000000" fill-rule="nonzero" fill-opacity="1" /><path clip-path="url(#clip220)" d="M33.2183 539.47 L8.66978 539.47 L8.66978 532.016 L71.7018 532.016 L71.7018 539.47 L64.8963 539.47 Q68.9472 541.82 70.9322 545.425 Q72.8766 548.99 72.8766 554.013 Q72.8766 562.236 66.3141 567.421 Q59.7517 572.566 49.0573 572.566 Q38.3629 572.566 31.8004 567.421 Q25.238 562.236 25.238 554.013 Q25.238 548.99 27.2229 545.425 Q29.1674 541.82 33.2183 539.47 M49.0573 564.869 Q57.2806 564.869 61.9797 561.507 Q66.6382 558.104 66.6382 552.19 Q66.6382 546.276 61.9797 542.873 Q57.2806 539.47 49.0573 539.47 Q40.834 539.47 36.1754 542.873 Q31.4764 546.276 31.4764 552.19 Q31.4764 558.104 36.1754 561.507 Q40.834 564.869 49.0573 564.869 Z" fill="#000000" fill-rule="nonzero" fill-opacity="1" /><path clip-path="url(#clip220)" d="M8.66978 467.323 L14.8677 467.323 L14.8677 474.453 Q14.8677 478.463 16.488 480.043 Q18.1084 481.583 22.3213 481.583 L26.3317 481.583 L26.3317 469.308 L32.1245 469.308 L32.1245 481.583 L71.7018 481.583 L71.7018 489.077 L32.1245 489.077 L32.1245 496.206 L26.3317 496.206 L26.3317 489.077 L23.172 489.077 Q15.5968 489.077 12.1536 485.552 Q8.66978 482.028 8.66978 474.372 L8.66978 467.323 Z" fill="#000000" fill-rule="nonzero" fill-opacity="1" /><path clip-path="url(#clip220)" d="M31.5574 443.504 Q31.5574 449.499 36.2564 452.983 Q40.915 456.467 49.0573 456.467 Q57.1996 456.467 61.8987 453.024 Q66.5572 449.54 66.5572 443.504 Q66.5572 437.549 61.8581 434.065 Q57.1591 430.582 49.0573 430.582 Q40.996 430.582 36.2969 434.065 Q31.5574 437.549 31.5574 443.504 M25.238 443.504 Q25.238 433.782 31.5574 428.232 Q37.8768 422.682 49.0573 422.682 Q60.1973 422.682 66.5572 428.232 Q72.8766 433.782 72.8766 443.504 Q72.8766 453.267 66.5572 458.816 Q60.1973 464.326 49.0573 464.326 Q37.8768 464.326 31.5574 458.816 Q25.238 453.267 25.238 443.504 Z" fill="#000000" fill-rule="nonzero" fill-opacity="1" /><path clip-path="url(#clip220)" d="M33.2993 384.037 Q32.5701 385.293 32.246 386.791 Q31.8815 388.25 31.8815 390.032 Q31.8815 396.352 36.0134 399.754 Q40.1048 403.117 47.8015 403.117 L71.7018 403.117 L71.7018 410.611 L26.3317 410.611 L26.3317 403.117 L33.3803 403.117 Q29.2484 400.767 27.2634 397 Q25.238 393.232 25.238 387.845 Q25.238 387.075 25.3595 386.143 Q25.4405 385.212 25.6431 384.077 L33.2993 384.037 Z" fill="#000000" fill-rule="nonzero" fill-opacity="1" /><path clip-path="url(#clip220)" d="M35.5903 293.517 Q42.3535 293.517 48.9938 296.427 Q55.5931 299.297 60.5938 303.969 Q65.5535 308.601 68.6276 314.873 Q71.7018 321.144 71.7018 327.538 L71.7018 355.329 Q71.7018 356.313 71.6609 356.723 Q71.6199 357.092 71.4149 357.378 Q71.169 357.665 70.6771 357.665 Q69.8983 357.665 69.5704 357.337 Q69.2015 357.01 69.1605 356.641 Q69.1195 356.272 69.1195 355.329 Q69.1195 353.28 68.9966 352.05 Q68.8736 350.82 68.7096 350.041 Q68.5047 349.222 67.9308 348.812 Q67.357 348.361 66.8651 348.156 Q66.3322 347.951 65.1436 347.664 L20.0554 336.433 Q18.7027 336.105 18.4978 336.105 Q17.8009 336.105 17.555 336.515 Q17.2681 336.884 17.1451 337.95 Q16.9812 339.999 16.9812 341.557 Q16.9812 342.581 16.9402 342.991 Q16.8992 343.36 16.6942 343.688 Q16.4483 343.975 15.9564 343.975 Q15.1776 343.975 14.8497 343.647 Q14.4808 343.278 14.4398 342.868 Q14.3578 342.458 14.3578 341.475 L14.3578 313.274 Q14.3578 307.167 17.2271 302.617 Q20.0554 298.067 24.8511 295.813 Q29.6059 293.517 35.5903 293.517 M32.5161 300.854 Q24.6871 300.854 20.8342 305.117 Q16.9812 309.339 16.9812 316.02 L16.9812 324.997 Q16.9812 327.661 17.473 328.317 Q17.9239 328.973 20.1783 329.547 L66.2503 341.065 Q67.7669 341.475 68.1768 341.475 Q68.6276 341.475 68.7916 341.27 Q68.9146 341.024 68.9966 340.368 Q69.1195 339.63 69.1195 338.523 L69.1195 329.055 Q69.1195 325.407 68.1358 322.087 Q67.111 318.726 65.5125 316.307 Q63.8729 313.889 62.4793 312.331 Q61.0446 310.774 59.61 309.667 Q56.3719 307.167 52.15 305.322 Q47.9281 303.437 44.0751 302.576 Q40.1811 301.674 37.3118 301.264 Q34.4016 300.854 32.5161 300.854 Z" fill="#000000" fill-rule="nonzero" fill-opacity="1" /><path clip-path="url(#clip220)" d="M61.4178 285.174 L59.5815 285.174 Q59.5815 278.116 55.8228 274.472 Q55.8228 273.468 56.0523 273.295 Q56.2819 273.123 57.3435 273.123 L90.3112 273.123 Q92.0614 273.123 92.6066 272.263 Q93.1517 271.402 93.1517 267.643 L93.1517 265.778 L94.9593 265.778 Q94.7872 267.844 94.7872 275.304 Q94.7872 282.764 94.9593 284.801 L93.1517 284.801 L93.1517 282.936 Q93.1517 279.235 92.6353 278.345 Q92.0901 277.456 90.3112 277.456 L59.8684 277.456 Q61.4178 280.526 61.4178 285.174 Z" fill="#000000" fill-rule="nonzero" fill-opacity="1" /><polyline clip-path="url(#clip222)" style="stroke:#000000; stroke-linecap:round; stroke-linejoin:round; stroke-width:8; stroke-opacity:1; fill:none" points="321.66,1371.65 325.612,1371.65 329.564,1371.65 333.515,1371.65 337.467,1371.65 341.419,1371.65 345.371,1371.65 349.323,1371.65 353.274,1371.65 357.226,1371.65 361.178,1371.65 365.13,1371.65 369.082,1371.65 373.033,1371.65 376.985,1371.65 380.937,1371.65 384.889,1371.65 388.84,1371.65 392.792,1371.65 396.744,1371.65 400.696,1371.65 404.648,1371.65 408.599,1371.65 412.551,1371.65 416.503,1371.65 420.455,1371.65 424.406,1371.65 428.358,1371.65 432.31,1371.65 436.262,1371.65 440.214,1371.65 444.165,1371.65 448.117,1371.65 452.069,1371.65 456.021,1371.65 459.972,1371.65 463.924,1371.65 467.876,1371.65 471.828,1371.65 475.78,1371.65 479.731,1371.65 483.683,1371.65 487.635,1371.65 491.587,1371.65 495.538,1371.65 499.49,1371.65 503.442,1371.65 507.394,1371.65 511.346,1371.65 515.297,1371.65 519.249,1371.65 523.201,1371.65 527.153,1371.65 531.104,1371.65 535.056,1371.65 539.008,1371.65 542.96,1371.65 546.912,1371.65 550.863,1371.65 554.815,1371.65 558.767,1371.65 562.719,1371.65 566.67,1371.65 570.622,1371.65 574.574,1371.65 578.526,1371.65 582.478,1371.65 586.429,1371.65 590.381,1371.65 594.333,1371.65 598.285,1371.65 602.236,1371.65 606.188,1371.65 610.14,1371.65 614.092,1371.65 618.044,1371.65 621.995,1371.65 625.947,1371.65 629.899,85.819 633.851,85.8191 637.802,88.5157 641.754,85.8233 645.706,88.1993 649.658,85.82 653.61,85.8189 657.561,85.8189 661.513,85.8189 665.465,85.8189 669.417,85.8189 673.368,88.0644 677.32,85.9101 681.272,85.819 685.224,87.9551 689.176,85.8189 693.127,87.8458 697.079,85.8193 701.031,87.7833 704.983,91.9258 708.934,85.8189 712.886,87.6533 716.838,85.819 720.79,87.6171 724.742,85.8197 728.693,85.8189 732.645,87.2847 736.597,85.8189 740.549,87.2445 744.5,85.8419 748.452,85.8189 752.404,87.1447 756.356,85.8244 760.308,85.8195 764.259,87.1128 768.211,85.8193 772.163,87.0755 776.115,85.8189 780.067,87.0322 784.018,90.4388 787.97,85.8197 791.922,86.9618 795.874,85.8189 799.825,85.8196 803.777,85.8189 807.729,85.8189 811.681,85.8189 815.633,85.8189 819.584,85.8189 823.536,86.7413 827.488,85.8314 831.44,85.8206 835.391,86.7112 839.343,85.8189 843.295,85.8194 847.247,85.8792 851.199,85.8189 855.15,85.8192 859.102,85.819 863.054,85.819 867.006,85.8189 870.957,85.8191 874.909,85.8192 878.861,85.8192 882.813,85.8206 886.765,85.8192 890.716,85.8189 894.668,85.8192 898.62,85.819 902.572,85.8189 906.523,85.8189 910.475,85.821 914.427,85.8271 918.379,86.6182 922.331,85.8189 926.282,85.8189 930.234,85.8189 934.186,85.8276 938.138,86.5905 942.089,85.8197 946.041,86.6004 949.993,85.8201 953.945,85.8189 957.897,86.5714 961.848,85.829 965.8,86.3994 969.752,88.1713 973.704,91.2828 977.655,85.8189 981.607,86.5218 985.559,88.984 989.511,85.8262 993.463,86.4236 997.414,87.9589 1001.37,85.8206 1005.32,86.4837 1009.27,85.8192 1013.22,86.436 1017.17,85.8189 1021.13,86.3671 1025.08,85.8189 1029.03,86.3598 1032.98,85.8189 1036.93,86.4197 1040.88,85.8193 1044.84,86.4411 1048.79,85.8189 1052.74,86.4027 1056.69,85.819 1060.64,86.3964 1064.59,88.0796 1068.55,85.819 1072.5,86.301 1076.45,85.8189 1080.4,86.2936 1084.35,85.8189 1088.31,86.2848 1092.26,87.7856 1096.21,85.8189 1100.16,85.8192 1104.11,86.2756 1108.06,87.674 1112.02,85.8201 1115.97,86.2379 1119.92,87.5748 1123.87,85.8189 1127.82,86.2619 1131.77,87.595 1135.73,89.7299 1139.68,85.8189 1143.63,85.9828 1147.58,86.5696 1151.53,88.0719 1155.49,85.8189 1159.44,86.2281 1163.39,85.8189 1167.34,86.2111 1171.29,87.4303 1175.24,89.1949 1179.2,85.8242 1183.15,86.3285 1187.1,85.8189 1191.05,86.2062 1195,85.819 1198.96,86.1931 1202.91,85.8189 1206.86,85.8191 1210.81,86.1765 1214.76,85.8232 1218.71,86.1733 1222.67,87.2666 1226.62,85.8189 1230.57,86.15 1234.52,85.8189 1238.47,86.1806 1242.42,85.8189 1246.38,86.1423 1250.33,87.1638 1254.28,88.799 1258.23,85.8189 1262.18,86.1288 1266.14,87.1145 1270.09,88.6947 1274.04,85.8193 1277.99,86.1568 1281.94,87.1103 1285.89,85.8189 1289.85,86.2133 1293.8,87.1997 1297.75,88.7202 1301.7,85.8189 1305.65,86.104 1309.6,85.819 1313.56,86.1087 1317.51,87.0122 1321.46,88.4052 1325.41,85.8192 1329.36,86.0969 1333.32,86.9556 1337.27,85.8199 1341.22,86.1042 1345.17,86.9724 1349.12,85.8192 1353.07,86.132 1357.03,86.9509 1360.98,85.8194 1364.93,86.0572 1368.88,86.8373 1372.83,85.8189 1376.79,86.1006 1380.74,86.927 1384.69,85.8189 1388.64,86.0675 1392.59,86.8345 1396.54,85.8193 1400.5,86.0573 1404.45,86.8181 1408.4,85.819 1412.35,86.093 1416.3,86.8778 1420.25,85.8189 1424.21,86.0513 1428.16,86.7855 1432.11,85.8189 1436.06,86.0727 1440.01,85.8189 1443.97,86.0344 1447.92,86.7346 1451.87,85.8189 1455.82,86.0336 1459.77,86.7235 1463.72,85.8189 1467.68,86.0594 1471.63,86.6982 1475.58,87.7732 1479.53,89.2176 1483.48,90.7577 1487.43,85.8192 1491.39,86.0462 1495.34,85.8198 1499.29,86.0417 1503.24,86.6886 1507.19,85.8195 1511.15,86.0334 1515.1,86.6126 1519.05,87.6431 1523,85.8189 1526.95,86.019 1530.9,85.836 1534.86,86.1367 1538.81,85.8189 1542.76,86.0134 1546.71,86.5768 1550.66,85.82 1554.62,86.0362 1558.57,86.6262 1562.52,87.5661 1566.47,88.8543 1570.42,85.8189 1574.37,85.8189 1578.33,85.8202 1582.28,85.819 1586.23,85.8207 1590.18,85.8189 1594.13,86.0049 1598.08,85.8189 1602.04,85.82 1605.99,86.0424 1609.94,85.8193 1613.89,85.8231 1617.84,85.821 1621.8,86.0728 1625.75,86.5873 1629.7,85.8839 1633.65,86.074 1637.6,85.8189 1641.55,85.819 1645.51,85.8194 1649.46,85.8205 1653.41,85.8206 1657.36,85.8338 1661.31,85.8206 1665.26,85.8195 1669.22,85.8334 1673.17,85.8219 1677.12,85.8223 1681.07,85.8194 1685.02,85.9142 1688.98,85.8191 1692.93,85.8242 1696.88,85.931 1700.83,85.8189 1704.78,85.8189 1708.73,85.8195 1712.69,85.8194 1716.64,85.8202 1720.59,85.8189 1724.54,85.8189 1728.49,85.8189 1732.45,85.8189 1736.4,85.8189 1740.35,85.8189 1744.3,85.819 1748.25,85.8189 1752.2,85.8189 1756.16,85.8189 1760.11,85.8189 1764.06,85.8189 1768.01,85.8189 1771.96,85.8189 1775.91,85.8189 1779.87,85.8192 1783.82,85.8193 1787.77,85.9672 1791.72,86.3742 1795.67,87.0329 1799.63,85.8308 1803.58,85.9509 1807.53,86.3633 1811.48,85.8189 1815.43,85.9482 1819.38,86.3617 1823.34,87.0506 1827.29,85.8189 1831.24,85.9652 1835.19,86.3899 1839.14,87.0846 1843.09,87.974 1847.05,85.819 1851,85.9602 1854.95,86.3391 1858.9,86.9989 1862.85,87.8563 1866.81,85.8198 1870.76,85.9593 1874.71,86.3271 1878.66,86.9717 1882.61,87.8095 1886.56,88.8089 1890.52,85.8194 1894.47,85.9269 1898.42,86.2616 1902.37,86.861 1906.32,85.8235 1910.28,85.936 1914.23,86.2744 1918.18,86.8742 1922.13,85.819 1926.08,85.9355 1930.03,86.2701 1933.99,86.8599 1937.94,87.6346 1941.89,85.8229 1945.84,85.9746 1949.79,86.3386 1953.74,86.9499 1957.7,87.7421 1961.65,85.82 1965.6,85.949 1969.55,86.3146 1973.5,86.9091 1977.46,85.8189 1981.41,85.941 1985.36,86.3848 1989.31,85.819 1993.26,85.9359 1997.21,86.2824 2001.17,86.8511 2005.12,87.5888 2009.07,85.8189 2013.02,85.9259 2016.97,86.2569 2020.93,86.8049 2024.88,87.5195 2028.83,88.3798 2032.78,89.3069 2036.73,90.5088 2040.68,91.8617 2044.64,85.8189 2048.59,85.9204 2052.54,86.2109 2056.49,86.7228 2060.44,87.4377 2064.39,85.8191 2068.35,85.9172 2072.3,86.2004 2076.25,86.7002 2080.2,87.3924 2084.15,85.8189 2088.11,85.9156 2092.06,86.1932 2096.01,86.6826 2099.96,87.3665 2103.91,85.819 2107.86,85.9075 2111.82,86.1733 2115.77,86.6463 2119.72,85.8189 2123.67,85.9091 2127.62,86.1734 2131.57,86.6411 2135.53,87.2906 2139.48,85.8354 2143.43,85.9977 2147.38,86.3288 2151.33,86.8252 2155.29,85.8189 2159.24,85.9062 2163.19,86.1836 2167.14,86.6221 2171.09,85.8261 2175.04,85.8991 2179,86.1446 2182.95,86.5595 2186.9,87.1556 2190.85,87.8442 2194.8,85.8201 2198.76,85.9292 2202.71,86.2219 2206.66,86.6667 2210.61,85.8189 2214.56,85.9119 2218.51,86.1818 2222.47,86.628 2226.42,85.8194 2230.37,85.9076 2234.32,86.1477 2238.27,86.5726 2242.22,87.1608 2246.18,85.8189 2250.13,85.9064 2254.08,86.1647 2258.03,86.5923 2261.98,87.0835 2265.94,87.6454 2269.89,85.8189 2273.84,85.8952 2277.79,86.1219 2281.74,86.5012 2285.69,85.8308 2289.65,85.9028 2293.6,86.1341 "/>
<polyline clip-path="url(#clip222)" style="stroke:#000000; stroke-linecap:round; stroke-linejoin:round; stroke-width:8; stroke-opacity:1; fill:none" stroke-dasharray="32, 20" points="321.66,102.075 325.612,99.8044 329.564,97.7019 333.515,95.7684 337.467,94.0047 341.419,92.4114 345.371,90.9891 349.323,89.7386 353.274,88.6603 357.226,87.7546 361.178,87.0218 365.13,86.4624 369.082,86.0764 373.033,85.8641 376.985,85.8189 380.937,85.8189 384.889,85.8189 388.84,85.819 392.792,85.819 396.744,85.819 400.696,85.819 404.648,85.8191 408.599,85.8191 412.551,85.8191 416.503,85.8191 420.455,85.8192 424.406,85.8192 428.358,85.8192 432.31,85.8192 436.262,85.8193 440.214,85.8193 444.165,85.8193 448.117,85.8193 452.069,85.8193 456.021,85.8194 459.972,85.8194 463.924,85.8194 467.876,85.8194 471.828,85.8195 475.78,85.8195 479.731,85.8195 483.683,85.8195 487.635,85.8196 491.587,85.8196 495.538,85.8196 499.49,85.8196 503.442,85.8197 507.394,85.8197 511.346,85.8197 515.297,85.8197 519.249,85.8198 523.201,85.8198 527.153,85.8198 531.104,85.8198 535.056,85.8198 539.008,85.8199 542.96,85.8199 546.912,85.8199 550.863,85.8199 554.815,85.82 558.767,85.82 562.719,85.82 566.67,85.82 570.622,85.8201 574.574,85.8201 578.526,85.8201 582.478,85.8201 586.429,85.8201 590.381,85.8202 594.333,85.8202 598.285,85.8202 602.236,85.8202 606.188,85.8203 610.14,85.8203 614.092,85.8203 618.044,85.8203 621.995,85.8203 625.947,85.8204 629.899,85.8204 633.851,85.8204 637.802,85.8204 641.754,85.8205 645.706,85.8205 649.658,85.8205 653.61,85.8205 657.561,85.8205 661.513,85.8206 665.465,85.8206 669.417,85.8206 673.368,85.8206 677.32,85.8206 681.272,85.8207 685.224,85.8207 689.176,85.8207 693.127,85.8207 697.079,85.8208 701.031,85.8208 704.983,85.8208 708.934,85.8208 712.886,85.8208 716.838,85.8209 720.79,85.8209 724.742,85.8209 728.693,85.8209 732.645,85.8209 736.597,85.821 740.549,85.821 744.5,85.821 748.452,85.821 752.404,85.821 756.356,85.8211 760.308,85.8211 764.259,85.8211 768.211,85.8211 772.163,85.8211 776.115,85.8212 780.067,85.8212 784.018,85.8212 787.97,85.8212 791.922,85.8212 795.874,85.8213 799.825,85.8213 803.777,85.8213 807.729,85.8213 811.681,85.8213 815.633,85.8214 819.584,85.8214 823.536,85.8214 827.488,85.8214 831.44,85.8214 835.391,85.8215 839.343,85.8215 843.295,85.8215 847.247,85.8215 851.199,85.8215 855.15,85.8216 859.102,85.8216 863.054,85.8216 867.006,85.8216 870.957,85.8216 874.909,85.8216 878.861,85.8217 882.813,85.8217 886.765,85.8217 890.716,85.8217 894.668,85.8217 898.62,85.8218 902.572,85.8218 906.523,85.8218 910.475,85.8218 914.427,85.8218 918.379,85.8218 922.331,85.8219 926.282,85.8219 930.234,85.8219 934.186,85.8219 938.138,85.8219 942.089,85.822 946.041,85.822 949.993,85.822 953.945,85.822 957.897,85.822 961.848,85.822 965.8,85.8221 969.752,85.8221 973.704,85.8221 977.655,85.8221 981.607,85.8221 985.559,85.8221 989.511,85.8222 993.463,85.8222 997.414,85.8222 1001.37,85.8222 1005.32,85.8222 1009.27,85.8222 1013.22,85.8223 1017.17,85.8223 1021.13,85.8223 1025.08,85.8223 1029.03,85.8223 1032.98,85.8223 1036.93,85.8224 1040.88,85.8224 1044.84,85.8224 1048.79,85.8224 1052.74,85.8224 1056.69,85.8224 1060.64,85.8225 1064.59,85.8225 1068.55,85.8225 1072.5,85.8225 1076.45,85.8225 1080.4,85.8225 1084.35,85.8226 1088.31,85.8226 1092.26,85.8226 1096.21,85.8226 1100.16,85.8226 1104.11,85.8226 1108.06,85.8227 1112.02,85.8227 1115.97,85.8227 1119.92,85.8227 1123.87,85.8227 1127.82,85.8227 1131.77,85.8227 1135.73,85.8228 1139.68,85.8228 1143.63,85.8228 1147.58,85.8228 1151.53,85.8228 1155.49,85.8228 1159.44,85.8229 1163.39,85.8229 1167.34,85.8229 1171.29,85.8229 1175.24,85.8229 1179.2,85.8229 1183.15,85.8229 1187.1,85.823 1191.05,85.823 1195,85.823 1198.96,85.823 1202.91,85.823 1206.86,85.823 1210.81,85.823 1214.76,85.8231 1218.71,85.8231 1222.67,85.8231 1226.62,85.8231 1230.57,85.8231 1234.52,85.8231 1238.47,85.8231 1242.42,85.8232 1246.38,85.8232 1250.33,85.8232 1254.28,85.8232 1258.23,85.8232 1262.18,85.8232 1266.14,85.8232 1270.09,85.8233 1274.04,85.8233 1277.99,85.8233 1281.94,85.8233 1285.89,85.8233 1289.85,85.8233 1293.8,85.8233 1297.75,85.8233 1301.7,85.8234 1305.65,85.8234 1309.6,85.8234 1313.56,85.8234 1317.51,85.8234 1321.46,85.8234 1325.41,85.8234 1329.36,85.8234 1333.32,85.8235 1337.27,85.8235 1341.22,85.8235 1345.17,85.8235 1349.12,85.8235 1353.07,85.8235 1357.03,85.8235 1360.98,85.8235 1364.93,85.8236 1368.88,85.8236 1372.83,85.8236 1376.79,85.8236 1380.74,85.8236 1384.69,85.8236 1388.64,85.8236 1392.59,85.8236 1396.54,85.8237 1400.5,85.8237 1404.45,85.8237 1408.4,85.8237 1412.35,85.8237 1416.3,85.8237 1420.25,85.8237 1424.21,85.8237 1428.16,85.8237 1432.11,85.8238 1436.06,85.8238 1440.01,85.8238 1443.97,85.8238 1447.92,85.8238 1451.87,85.8238 1455.82,85.8238 1459.77,85.8238 1463.72,85.8238 1467.68,85.8239 1471.63,85.8239 1475.58,85.8239 1479.53,85.8239 1483.48,85.8239 1487.43,85.8239 1491.39,85.8239 1495.34,85.8239 1499.29,85.8239 1503.24,85.824 1507.19,85.824 1511.15,85.824 1515.1,85.824 1519.05,85.824 1523,85.824 1526.95,85.824 1530.9,85.824 1534.86,85.824 1538.81,85.824 1542.76,85.8241 1546.71,85.8241 1550.66,85.8241 1554.62,85.8241 1558.57,85.8241 1562.52,85.8241 1566.47,85.8241 1570.42,85.8241 1574.37,85.8241 1578.33,85.8241 1582.28,85.8242 1586.23,85.8242 1590.18,85.8242 1594.13,85.8242 1598.08,85.8242 1602.04,85.8242 1605.99,85.8242 1609.94,85.8242 1613.89,85.8242 1617.84,85.8242 1621.8,85.8242 1625.75,85.8243 1629.7,85.8243 1633.65,85.8243 1637.6,85.8243 1641.55,85.8243 1645.51,85.8243 1649.46,85.8243 1653.41,85.8243 1657.36,85.8243 1661.31,85.8243 1665.26,85.8243 1669.22,85.8243 1673.17,85.8244 1677.12,85.8244 1681.07,85.8244 1685.02,85.8244 1688.98,85.8244 1692.93,85.8244 1696.88,85.8244 1700.83,85.8244 1704.78,85.8244 1708.73,85.8244 1712.69,85.8244 1716.64,85.8244 1720.59,85.8244 1724.54,85.8245 1728.49,85.8245 1732.45,85.8245 1736.4,85.8245 1740.35,85.8245 1744.3,85.8245 1748.25,85.8245 1752.2,85.8245 1756.16,85.8245 1760.11,85.8245 1764.06,85.8245 1768.01,85.8245 1771.96,85.8245 1775.91,85.8245 1779.87,85.8246 1783.82,85.8246 1787.77,85.8246 1791.72,85.8246 1795.67,85.8246 1799.63,85.8246 1803.58,85.8246 1807.53,85.8246 1811.48,85.8246 1815.43,85.8246 1819.38,85.8246 1823.34,85.8246 1827.29,85.8246 1831.24,85.8246 1835.19,85.8246 1839.14,85.8247 1843.09,85.8247 1847.05,85.8247 1851,85.8247 1854.95,85.8247 1858.9,85.8247 1862.85,85.8247 1866.81,85.8247 1870.76,85.8247 1874.71,85.8247 1878.66,85.8247 1882.61,85.8247 1886.56,85.8247 1890.52,85.8247 1894.47,85.8247 1898.42,85.8247 1902.37,85.8247 1906.32,85.8247 1910.28,85.8248 1914.23,85.8248 1918.18,85.8248 1922.13,85.8248 1926.08,85.8248 1930.03,85.8248 1933.99,85.8248 1937.94,85.8248 1941.89,85.8248 1945.84,85.8248 1949.79,85.8248 1953.74,85.8248 1957.7,85.8248 1961.65,85.8248 1965.6,85.8248 1969.55,85.8248 1973.5,85.8248 1977.46,85.8248 1981.41,85.8248 1985.36,85.8248 1989.31,85.8248 1993.26,85.8248 1997.21,85.8248 2001.17,85.8249 2005.12,85.8249 2009.07,85.8249 2013.02,85.8249 2016.97,85.8249 2020.93,85.8249 2024.88,85.8249 2028.83,85.8249 2032.78,85.8249 2036.73,85.8249 2040.68,85.8249 2044.64,85.8249 2048.59,85.8249 2052.54,85.8249 2056.49,85.8249 2060.44,85.8249 2064.39,85.8249 2068.35,85.8249 2072.3,85.8249 2076.25,85.8249 2080.2,85.8249 2084.15,85.8249 2088.11,85.8249 2092.06,85.8249 2096.01,85.8249 2099.96,85.8249 2103.91,85.8249 2107.86,85.8249 2111.82,85.8249 2115.77,85.8249 2119.72,85.8249 2123.67,85.8249 2127.62,85.8249 2131.57,85.825 2135.53,85.825 2139.48,85.825 2143.43,85.825 2147.38,85.825 2151.33,85.825 2155.29,85.825 2159.24,85.825 2163.19,85.825 2167.14,85.825 2171.09,85.825 2175.04,85.825 2179,85.825 2182.95,85.825 2186.9,85.825 2190.85,85.825 2194.8,85.825 2198.76,85.825 2202.71,85.825 2206.66,85.825 2210.61,85.825 2214.56,85.825 2218.51,85.825 2222.47,85.825 2226.42,85.825 2230.37,85.825 2234.32,85.825 2238.27,85.825 2242.22,85.825 2246.18,85.825 2250.13,85.825 2254.08,85.825 2258.03,85.825 2261.98,85.825 2265.94,85.825 2269.89,85.825 2273.84,85.825 2277.79,85.825 2281.74,85.825 2285.69,85.825 2289.65,85.825 2293.6,85.825 "/>
<polyline clip-path="url(#clip222)" style="stroke:#000000; stroke-linecap:round; stroke-linejoin:round; stroke-width:8; stroke-opacity:1; fill:none" stroke-dasharray="4, 8" points="1764.06,2773.2 1764.06,-1315.73 "/>
<polyline clip-path="url(#clip222)" style="stroke:#000000; stroke-linecap:round; stroke-linejoin:round; stroke-width:4; stroke-opacity:1; fill:none" points="-1827.75,1183.27 4443.01,1183.27 "/>
<polyline clip-path="url(#clip222)" style="stroke:#808080; stroke-linecap:round; stroke-linejoin:round; stroke-width:8; stroke-opacity:1; fill:none" points="1488.73,2773.2 1488.73,-1315.73 "/>
</svg>
