<?xml version="1.0" encoding="utf-8"?>
<svg xmlns="http://www.w3.org/2000/svg" xmlns:xlink="http://www.w3.org/1999/xlink" width="600" height="400" viewBox="0 0 2400 1600">
<defs>
  <clipPath id="clip130">
    <rect x="0" y="0" width="2400" height="1600"/>
  </clipPath>
</defs>
<path clip-path="url(#clip130)" d="M0 1600 L2400 1600 L2400 0 L0 0  Z" fill="#ffffff" fill-rule="evenodd" fill-opacity="1"/>
<defs>
  <clipPath id="clip131">
    <rect x="480" y="0" width="1681" height="1600"/>
  </clipPath>
</defs>
<defs>
  <clipPath id="clip132">
    <rect x="262" y="47" width="2091" height="1364"/>
  </clipPath>
</defs>
<path clip-path="url(#clip130)" d="M262.502 1410.22 L2352.76 1410.22 L2352.76 47.2441 L262.502 47.2441  Z" fill="#ffffff" fill-rule="evenodd" fill-opacity="1"/>
<polyline clip-path="url(#clip132)" style="stroke:#000000; stroke-linecap:round; stroke-linejoin:round; stroke-width:2; stroke-opacity:0.1; fill:none" points="474.185,1410.22 474.185,47.2441 "/>
<polyline clip-path="url(#clip132)" style="stroke:#000000; stroke-linecap:round; stroke-linejoin:round; stroke-width:2; stroke-opacity:0.1; fill:none" points="978.256,1410.22 978.256,47.2441 "/>
<polyline clip-path="url(#clip132)" style="stroke:#000000; stroke-linecap:round; stroke-linejoin:round; stroke-width:2; stroke-opacity:0.1; fill:none" points="1482.33,1410.22 1482.33,47.2441 "/>
<polyline clip-path="url(#clip132)" style="stroke:#000000; stroke-linecap:round; stroke-linejoin:round; stroke-width:2; stroke-opacity:0.1; fill:none" points="1986.4,1410.22 1986.4,47.2441 "/>
<polyline clip-path="url(#clip130)" style="stroke:#000000; stroke-linecap:round; stroke-linejoin:round; stroke-width:4; stroke-opacity:1; fill:none" points="262.502,1410.22 2352.76,1410.22 "/>
<polyline clip-path="url(#clip130)" style="stroke:#000000; stroke-linecap:round; stroke-linejoin:round; stroke-width:4; stroke-opacity:1; fill:none" points="474.185,1410.22 474.185,1391.32 "/>
<polyline clip-path="url(#clip130)" style="stroke:#000000; stroke-linecap:round; stroke-linejoin:round; stroke-width:4; stroke-opacity:1; fill:none" points="978.256,1410.22 978.256,1391.32 "/>
<polyline clip-path="url(#clip130)" style="stroke:#000000; stroke-linecap:round; stroke-linejoin:round; stroke-width:4; stroke-opacity:1; fill:none" points="1482.33,1410.22 1482.33,1391.32 "/>
<polyline clip-path="url(#clip130)" style="stroke:#000000; stroke-linecap:round; stroke-linejoin:round; stroke-width:4; stroke-opacity:1; fill:none" points="1986.4,1410.22 1986.4,1391.32 "/>
<path clip-path="url(#clip130)" d="M444.127 1455.79 L473.803 1455.79 L473.803 1459.73 L444.127 1459.73 L444.127 1455.79 Z" fill="#000000" fill-rule="nonzero" fill-opacity="1" /><path clip-path="url(#clip130)" d="M487.923 1468.68 L504.242 1468.68 L504.242 1472.62 L482.298 1472.62 L482.298 1468.68 Q484.96 1465.93 489.543 1461.3 Q494.15 1456.65 495.33 1455.31 Q497.576 1452.78 498.455 1451.05 Q499.358 1449.29 499.358 1447.6 Q499.358 1444.84 497.414 1443.11 Q495.492 1441.37 492.39 1441.37 Q490.191 1441.37 487.738 1442.13 Q485.307 1442.9 482.529 1444.45 L482.529 1439.73 Q485.353 1438.59 487.807 1438.01 Q490.261 1437.43 492.298 1437.43 Q497.668 1437.43 500.863 1440.12 Q504.057 1442.81 504.057 1447.3 Q504.057 1449.43 503.247 1451.35 Q502.46 1453.24 500.353 1455.84 Q499.775 1456.51 496.673 1459.73 Q493.571 1462.92 487.923 1468.68 Z" fill="#000000" fill-rule="nonzero" fill-opacity="1" /><path clip-path="url(#clip130)" d="M948.013 1455.79 L977.688 1455.79 L977.688 1459.73 L948.013 1459.73 L948.013 1455.79 Z" fill="#000000" fill-rule="nonzero" fill-opacity="1" /><path clip-path="url(#clip130)" d="M988.591 1468.68 L996.23 1468.68 L996.23 1442.32 L987.92 1443.99 L987.92 1439.73 L996.184 1438.06 L1000.86 1438.06 L1000.86 1468.68 L1008.5 1468.68 L1008.5 1472.62 L988.591 1472.62 L988.591 1468.68 Z" fill="#000000" fill-rule="nonzero" fill-opacity="1" /><path clip-path="url(#clip130)" d="M1482.33 1441.14 Q1478.72 1441.14 1476.89 1444.7 Q1475.08 1448.24 1475.08 1455.37 Q1475.08 1462.48 1476.89 1466.05 Q1478.72 1469.59 1482.33 1469.59 Q1485.96 1469.59 1487.77 1466.05 Q1489.6 1462.48 1489.6 1455.37 Q1489.6 1448.24 1487.77 1444.7 Q1485.96 1441.14 1482.33 1441.14 M1482.33 1437.43 Q1488.14 1437.43 1491.19 1442.04 Q1494.27 1446.62 1494.27 1455.37 Q1494.27 1464.1 1491.19 1468.71 Q1488.14 1473.29 1482.33 1473.29 Q1476.52 1473.29 1473.44 1468.71 Q1470.38 1464.1 1470.38 1455.37 Q1470.38 1446.62 1473.44 1442.04 Q1476.52 1437.43 1482.33 1437.43 Z" fill="#000000" fill-rule="nonzero" fill-opacity="1" /><path clip-path="url(#clip130)" d="M1976.78 1468.68 L1984.42 1468.68 L1984.42 1442.32 L1976.11 1443.99 L1976.11 1439.73 L1984.37 1438.06 L1989.05 1438.06 L1989.05 1468.68 L1996.69 1468.68 L1996.69 1472.62 L1976.78 1472.62 L1976.78 1468.68 Z" fill="#000000" fill-rule="nonzero" fill-opacity="1" /><path clip-path="url(#clip130)" d="M1211.31 1551.56 L1211.31 1548.98 Q1215.77 1548.98 1216.8 1548.45 Q1217.82 1547.87 1217.82 1545.17 L1217.82 1501.51 Q1217.82 1498.4 1216.72 1497.62 Q1215.65 1496.84 1211.31 1496.84 L1211.31 1494.22 L1223.36 1493.32 L1223.36 1545.17 Q1223.36 1547.87 1224.42 1548.45 Q1225.49 1548.98 1229.92 1548.98 L1229.92 1551.56 Q1228.89 1551.56 1226.76 1551.48 Q1224.63 1551.4 1223.07 1551.36 Q1221.51 1551.32 1220.61 1551.32 Q1219.63 1551.32 1211.31 1551.56 Z" fill="#000000" fill-rule="nonzero" fill-opacity="1" /><path clip-path="url(#clip130)" d="M1235 1551.56 L1235 1548.98 Q1239.46 1548.98 1240.49 1548.45 Q1241.51 1547.87 1241.51 1545.17 L1241.51 1522.67 Q1241.51 1519.55 1240.41 1518.77 Q1239.34 1517.99 1235 1517.99 L1235 1515.37 L1246.8 1514.47 L1246.8 1523.28 Q1250.74 1514.47 1259.22 1514.47 Q1265.53 1514.47 1268.03 1517.58 Q1269.88 1519.67 1270.25 1522.01 Q1270.66 1524.35 1270.66 1530.41 L1270.66 1546.44 Q1270.74 1548.2 1272.09 1548.61 Q1273.44 1548.98 1277.21 1548.98 L1277.21 1551.56 Q1268.65 1551.32 1267.79 1551.32 Q1267.13 1551.32 1258.32 1551.56 L1258.32 1548.98 Q1262.79 1548.98 1263.81 1548.45 Q1264.88 1547.87 1264.88 1545.17 L1264.88 1525.62 Q1264.88 1521.35 1263.57 1518.85 Q1262.25 1516.31 1258.65 1516.31 Q1254.3 1516.31 1250.82 1519.96 Q1247.33 1523.61 1247.33 1529.76 L1247.33 1545.17 Q1247.33 1547.87 1248.36 1548.45 Q1249.42 1548.98 1253.85 1548.98 L1253.85 1551.56 Q1245.28 1551.32 1244.46 1551.32 Q1243.81 1551.32 1235 1551.56 Z" fill="#000000" fill-rule="nonzero" fill-opacity="1" /><path clip-path="url(#clip130)" d="M1367.44 1515.45 Q1367.44 1522.21 1364.53 1528.85 Q1361.66 1535.45 1356.99 1540.45 Q1352.36 1545.41 1346.09 1548.49 Q1339.82 1551.56 1333.42 1551.56 L1305.63 1551.56 Q1304.65 1551.56 1304.24 1551.52 Q1303.87 1551.48 1303.58 1551.28 Q1303.29 1551.03 1303.29 1550.54 Q1303.29 1549.76 1303.62 1549.43 Q1303.95 1549.06 1304.32 1549.02 Q1304.69 1548.98 1305.63 1548.98 Q1307.68 1548.98 1308.91 1548.86 Q1310.14 1548.73 1310.92 1548.57 Q1311.74 1548.37 1312.15 1547.79 Q1312.6 1547.22 1312.8 1546.73 Q1313.01 1546.19 1313.3 1545 L1324.53 1499.92 Q1324.85 1498.56 1324.85 1498.36 Q1324.85 1497.66 1324.44 1497.42 Q1324.08 1497.13 1323.01 1497.01 Q1320.96 1496.84 1319.4 1496.84 Q1318.38 1496.84 1317.97 1496.8 Q1317.6 1496.76 1317.27 1496.56 Q1316.98 1496.31 1316.98 1495.82 Q1316.98 1495.04 1317.31 1494.71 Q1317.68 1494.34 1318.09 1494.3 Q1318.5 1494.22 1319.49 1494.22 L1347.69 1494.22 Q1353.79 1494.22 1358.34 1497.09 Q1362.89 1499.92 1365.15 1504.71 Q1367.44 1509.47 1367.44 1515.45 M1360.11 1512.38 Q1360.11 1504.55 1355.84 1500.7 Q1351.62 1496.84 1344.94 1496.84 L1335.96 1496.84 Q1333.3 1496.84 1332.64 1497.33 Q1331.99 1497.78 1331.41 1500.04 L1319.89 1546.11 Q1319.49 1547.63 1319.49 1548.04 Q1319.49 1548.49 1319.69 1548.65 Q1319.94 1548.78 1320.59 1548.86 Q1321.33 1548.98 1322.44 1548.98 L1331.9 1548.98 Q1335.55 1548.98 1338.87 1548 Q1342.23 1546.97 1344.65 1545.37 Q1347.07 1543.73 1348.63 1542.34 Q1350.19 1540.91 1351.29 1539.47 Q1353.79 1536.23 1355.64 1532.01 Q1357.52 1527.79 1358.38 1523.94 Q1359.29 1520.04 1359.7 1517.17 Q1360.11 1514.26 1360.11 1512.38 Z" fill="#000000" fill-rule="nonzero" fill-opacity="1" /><path clip-path="url(#clip130)" d="M1375.79 1541.28 L1375.79 1539.44 Q1382.84 1539.44 1386.49 1535.68 Q1387.49 1535.68 1387.66 1535.91 Q1387.84 1536.14 1387.84 1537.2 L1387.84 1570.17 Q1387.84 1571.92 1388.7 1572.47 Q1389.56 1573.01 1393.32 1573.01 L1395.18 1573.01 L1395.18 1574.82 Q1393.12 1574.65 1385.66 1574.65 Q1378.2 1574.65 1376.16 1574.82 L1376.16 1573.01 L1378.02 1573.01 Q1381.72 1573.01 1382.61 1572.5 Q1383.5 1571.95 1383.5 1570.17 L1383.5 1539.73 Q1380.43 1541.28 1375.79 1541.28 Z" fill="#000000" fill-rule="nonzero" fill-opacity="1" /><polyline clip-path="url(#clip132)" style="stroke:#000000; stroke-linecap:round; stroke-linejoin:round; stroke-width:2; stroke-opacity:0.1; fill:none" points="262.502,1371.65 2352.76,1371.65 "/>
<polyline clip-path="url(#clip132)" style="stroke:#000000; stroke-linecap:round; stroke-linejoin:round; stroke-width:2; stroke-opacity:0.1; fill:none" points="262.502,1050.19 2352.76,1050.19 "/>
<polyline clip-path="url(#clip132)" style="stroke:#000000; stroke-linecap:round; stroke-linejoin:round; stroke-width:2; stroke-opacity:0.1; fill:none" points="262.502,728.732 2352.76,728.732 "/>
<polyline clip-path="url(#clip132)" style="stroke:#000000; stroke-linecap:round; stroke-linejoin:round; stroke-width:2; stroke-opacity:0.1; fill:none" points="262.502,407.275 2352.76,407.275 "/>
<polyline clip-path="url(#clip132)" style="stroke:#000000; stroke-linecap:round; stroke-linejoin:round; stroke-width:2; stroke-opacity:0.1; fill:none" points="262.502,85.8189 2352.76,85.8189 "/>
<polyline clip-path="url(#clip130)" style="stroke:#000000; stroke-linecap:round; stroke-linejoin:round; stroke-width:4; stroke-opacity:1; fill:none" points="262.502,1410.22 262.502,47.2441 "/>
<polyline clip-path="url(#clip130)" style="stroke:#000000; stroke-linecap:round; stroke-linejoin:round; stroke-width:4; stroke-opacity:1; fill:none" points="262.502,1371.65 281.4,1371.65 "/>
<polyline clip-path="url(#clip130)" style="stroke:#000000; stroke-linecap:round; stroke-linejoin:round; stroke-width:4; stroke-opacity:1; fill:none" points="262.502,1050.19 281.4,1050.19 "/>
<polyline clip-path="url(#clip130)" style="stroke:#000000; stroke-linecap:round; stroke-linejoin:round; stroke-width:4; stroke-opacity:1; fill:none" points="262.502,728.732 281.4,728.732 "/>
<polyline clip-path="url(#clip130)" style="stroke:#000000; stroke-linecap:round; stroke-linejoin:round; stroke-width:4; stroke-opacity:1; fill:none" points="262.502,407.275 281.4,407.275 "/>
<polyline clip-path="url(#clip130)" style="stroke:#000000; stroke-linecap:round; stroke-linejoin:round; stroke-width:4; stroke-opacity:1; fill:none" points="262.502,85.8189 281.4,85.8189 "/>
<path clip-path="url(#clip130)" d="M139.165 1357.44 Q135.553 1357.44 133.725 1361.01 Q131.919 1364.55 131.919 1371.68 Q131.919 1378.79 133.725 1382.35 Q135.553 1385.89 139.165 1385.89 Q142.799 1385.89 144.604 1382.35 Q146.433 1378.79 146.433 1371.68 Q146.433 1364.55 144.604 1361.01 Q142.799 1357.44 139.165 1357.44 M139.165 1353.74 Q144.975 1353.74 148.03 1358.35 Q151.109 1362.93 151.109 1371.68 Q151.109 1380.41 148.03 1385.01 Q144.975 1389.6 139.165 1389.6 Q133.354 1389.6 130.276 1385.01 Q127.22 1380.41 127.22 1371.68 Q127.22 1362.93 130.276 1358.35 Q133.354 1353.74 139.165 1353.74 Z" fill="#000000" fill-rule="nonzero" fill-opacity="1" /><path clip-path="url(#clip130)" d="M159.326 1383.05 L164.211 1383.05 L164.211 1388.93 L159.326 1388.93 L159.326 1383.05 Z" fill="#000000" fill-rule="nonzero" fill-opacity="1" /><path clip-path="url(#clip130)" d="M184.396 1357.44 Q180.785 1357.44 178.956 1361.01 Q177.15 1364.55 177.15 1371.68 Q177.15 1378.79 178.956 1382.35 Q180.785 1385.89 184.396 1385.89 Q188.03 1385.89 189.836 1382.35 Q191.664 1378.79 191.664 1371.68 Q191.664 1364.55 189.836 1361.01 Q188.03 1357.44 184.396 1357.44 M184.396 1353.74 Q190.206 1353.74 193.261 1358.35 Q196.34 1362.93 196.34 1371.68 Q196.34 1380.41 193.261 1385.01 Q190.206 1389.6 184.396 1389.6 Q178.586 1389.6 175.507 1385.01 Q172.451 1380.41 172.451 1371.68 Q172.451 1362.93 175.507 1358.35 Q178.586 1353.74 184.396 1353.74 Z" fill="#000000" fill-rule="nonzero" fill-opacity="1" /><path clip-path="url(#clip130)" d="M214.558 1357.44 Q210.947 1357.44 209.118 1361.01 Q207.312 1364.55 207.312 1371.68 Q207.312 1378.79 209.118 1382.35 Q210.947 1385.89 214.558 1385.89 Q218.192 1385.89 219.997 1382.35 Q221.826 1378.79 221.826 1371.68 Q221.826 1364.55 219.997 1361.01 Q218.192 1357.44 214.558 1357.44 M214.558 1353.74 Q220.368 1353.74 223.423 1358.35 Q226.502 1362.93 226.502 1371.68 Q226.502 1380.41 223.423 1385.01 Q220.368 1389.6 214.558 1389.6 Q208.747 1389.6 205.669 1385.01 Q202.613 1380.41 202.613 1371.68 Q202.613 1362.93 205.669 1358.35 Q208.747 1353.74 214.558 1353.74 Z" fill="#000000" fill-rule="nonzero" fill-opacity="1" /><path clip-path="url(#clip130)" d="M140.16 1035.99 Q136.549 1035.99 134.72 1039.55 Q132.915 1043.09 132.915 1050.22 Q132.915 1057.33 134.72 1060.89 Q136.549 1064.44 140.16 1064.44 Q143.794 1064.44 145.6 1060.89 Q147.428 1057.33 147.428 1050.22 Q147.428 1043.09 145.6 1039.55 Q143.794 1035.99 140.16 1035.99 M140.16 1032.28 Q145.97 1032.28 149.026 1036.89 Q152.104 1041.47 152.104 1050.22 Q152.104 1058.95 149.026 1063.56 Q145.97 1068.14 140.16 1068.14 Q134.35 1068.14 131.271 1063.56 Q128.216 1058.95 128.216 1050.22 Q128.216 1041.47 131.271 1036.89 Q134.35 1032.28 140.16 1032.28 Z" fill="#000000" fill-rule="nonzero" fill-opacity="1" /><path clip-path="url(#clip130)" d="M160.322 1061.59 L165.206 1061.59 L165.206 1067.47 L160.322 1067.47 L160.322 1061.59 Z" fill="#000000" fill-rule="nonzero" fill-opacity="1" /><path clip-path="url(#clip130)" d="M179.419 1063.53 L195.738 1063.53 L195.738 1067.47 L173.794 1067.47 L173.794 1063.53 Q176.456 1060.78 181.039 1056.15 Q185.646 1051.5 186.826 1050.15 Q189.072 1047.63 189.951 1045.89 Q190.854 1044.14 190.854 1042.45 Q190.854 1039.69 188.91 1037.95 Q186.988 1036.22 183.887 1036.22 Q181.687 1036.22 179.234 1036.98 Q176.803 1037.75 174.025 1039.3 L174.025 1034.58 Q176.85 1033.44 179.303 1032.86 Q181.757 1032.28 183.794 1032.28 Q189.164 1032.28 192.359 1034.97 Q195.553 1037.65 195.553 1042.14 Q195.553 1044.27 194.743 1046.2 Q193.956 1048.09 191.849 1050.69 Q191.271 1051.36 188.169 1054.58 Q185.067 1057.77 179.419 1063.53 Z" fill="#000000" fill-rule="nonzero" fill-opacity="1" /><path clip-path="url(#clip130)" d="M205.599 1032.91 L223.956 1032.91 L223.956 1036.84 L209.882 1036.84 L209.882 1045.32 Q210.9 1044.97 211.919 1044.81 Q212.937 1044.62 213.956 1044.62 Q219.743 1044.62 223.122 1047.79 Q226.502 1050.96 226.502 1056.38 Q226.502 1061.96 223.03 1065.06 Q219.558 1068.14 213.238 1068.14 Q211.062 1068.14 208.794 1067.77 Q206.548 1067.4 204.141 1066.66 L204.141 1061.96 Q206.224 1063.09 208.447 1063.65 Q210.669 1064.2 213.146 1064.2 Q217.15 1064.2 219.488 1062.1 Q221.826 1059.99 221.826 1056.38 Q221.826 1052.77 219.488 1050.66 Q217.15 1048.56 213.146 1048.56 Q211.271 1048.56 209.396 1048.97 Q207.544 1049.39 205.599 1050.27 L205.599 1032.91 Z" fill="#000000" fill-rule="nonzero" fill-opacity="1" /><path clip-path="url(#clip130)" d="M139.165 714.531 Q135.553 714.531 133.725 718.095 Q131.919 721.637 131.919 728.767 Q131.919 735.873 133.725 739.438 Q135.553 742.98 139.165 742.98 Q142.799 742.98 144.604 739.438 Q146.433 735.873 146.433 728.767 Q146.433 721.637 144.604 718.095 Q142.799 714.531 139.165 714.531 M139.165 710.827 Q144.975 710.827 148.03 715.433 Q151.109 720.017 151.109 728.767 Q151.109 737.493 148.03 742.1 Q144.975 746.683 139.165 746.683 Q133.354 746.683 130.276 742.1 Q127.22 737.493 127.22 728.767 Q127.22 720.017 130.276 715.433 Q133.354 710.827 139.165 710.827 Z" fill="#000000" fill-rule="nonzero" fill-opacity="1" /><path clip-path="url(#clip130)" d="M159.326 740.132 L164.211 740.132 L164.211 746.012 L159.326 746.012 L159.326 740.132 Z" fill="#000000" fill-rule="nonzero" fill-opacity="1" /><path clip-path="url(#clip130)" d="M174.442 711.452 L192.799 711.452 L192.799 715.387 L178.725 715.387 L178.725 723.859 Q179.743 723.512 180.762 723.35 Q181.78 723.165 182.799 723.165 Q188.586 723.165 191.965 726.336 Q195.345 729.507 195.345 734.924 Q195.345 740.503 191.873 743.605 Q188.4 746.683 182.081 746.683 Q179.905 746.683 177.637 746.313 Q175.391 745.943 172.984 745.202 L172.984 740.503 Q175.067 741.637 177.289 742.193 Q179.512 742.748 181.988 742.748 Q185.993 742.748 188.331 740.642 Q190.669 738.535 190.669 734.924 Q190.669 731.313 188.331 729.207 Q185.993 727.1 181.988 727.1 Q180.113 727.1 178.238 727.517 Q176.387 727.933 174.442 728.813 L174.442 711.452 Z" fill="#000000" fill-rule="nonzero" fill-opacity="1" /><path clip-path="url(#clip130)" d="M214.558 714.531 Q210.947 714.531 209.118 718.095 Q207.312 721.637 207.312 728.767 Q207.312 735.873 209.118 739.438 Q210.947 742.98 214.558 742.98 Q218.192 742.98 219.997 739.438 Q221.826 735.873 221.826 728.767 Q221.826 721.637 219.997 718.095 Q218.192 714.531 214.558 714.531 M214.558 710.827 Q220.368 710.827 223.423 715.433 Q226.502 720.017 226.502 728.767 Q226.502 737.493 223.423 742.1 Q220.368 746.683 214.558 746.683 Q208.747 746.683 205.669 742.1 Q202.613 737.493 202.613 728.767 Q202.613 720.017 205.669 715.433 Q208.747 710.827 214.558 710.827 Z" fill="#000000" fill-rule="nonzero" fill-opacity="1" /><path clip-path="url(#clip130)" d="M140.16 393.074 Q136.549 393.074 134.72 396.639 Q132.915 400.181 132.915 407.31 Q132.915 414.417 134.72 417.981 Q136.549 421.523 140.16 421.523 Q143.794 421.523 145.6 417.981 Q147.428 414.417 147.428 407.31 Q147.428 400.181 145.6 396.639 Q143.794 393.074 140.16 393.074 M140.16 389.37 Q145.97 389.37 149.026 393.977 Q152.104 398.56 152.104 407.31 Q152.104 416.037 149.026 420.643 Q145.97 425.227 140.16 425.227 Q134.35 425.227 131.271 420.643 Q128.216 416.037 128.216 407.31 Q128.216 398.56 131.271 393.977 Q134.35 389.37 140.16 389.37 Z" fill="#000000" fill-rule="nonzero" fill-opacity="1" /><path clip-path="url(#clip130)" d="M160.322 418.676 L165.206 418.676 L165.206 424.555 L160.322 424.555 L160.322 418.676 Z" fill="#000000" fill-rule="nonzero" fill-opacity="1" /><path clip-path="url(#clip130)" d="M174.211 389.995 L196.433 389.995 L196.433 391.986 L183.887 424.555 L179.002 424.555 L190.808 393.931 L174.211 393.931 L174.211 389.995 Z" fill="#000000" fill-rule="nonzero" fill-opacity="1" /><path clip-path="url(#clip130)" d="M205.599 389.995 L223.956 389.995 L223.956 393.931 L209.882 393.931 L209.882 402.403 Q210.9 402.056 211.919 401.894 Q212.937 401.708 213.956 401.708 Q219.743 401.708 223.122 404.88 Q226.502 408.051 226.502 413.468 Q226.502 419.046 223.03 422.148 Q219.558 425.227 213.238 425.227 Q211.062 425.227 208.794 424.856 Q206.548 424.486 204.141 423.745 L204.141 419.046 Q206.224 420.18 208.447 420.736 Q210.669 421.292 213.146 421.292 Q217.15 421.292 219.488 419.185 Q221.826 417.079 221.826 413.468 Q221.826 409.856 219.488 407.75 Q217.15 405.643 213.146 405.643 Q211.271 405.643 209.396 406.06 Q207.544 406.477 205.599 407.356 L205.599 389.995 Z" fill="#000000" fill-rule="nonzero" fill-opacity="1" /><path clip-path="url(#clip130)" d="M129.975 99.1637 L137.614 99.1637 L137.614 72.7981 L129.303 74.4648 L129.303 70.2055 L137.567 68.5389 L142.243 68.5389 L142.243 99.1637 L149.882 99.1637 L149.882 103.099 L129.975 103.099 L129.975 99.1637 Z" fill="#000000" fill-rule="nonzero" fill-opacity="1" /><path clip-path="url(#clip130)" d="M159.326 97.2193 L164.211 97.2193 L164.211 103.099 L159.326 103.099 L159.326 97.2193 Z" fill="#000000" fill-rule="nonzero" fill-opacity="1" /><path clip-path="url(#clip130)" d="M184.396 71.6176 Q180.785 71.6176 178.956 75.1824 Q177.15 78.724 177.15 85.8536 Q177.15 92.96 178.956 96.5248 Q180.785 100.066 184.396 100.066 Q188.03 100.066 189.836 96.5248 Q191.664 92.96 191.664 85.8536 Q191.664 78.724 189.836 75.1824 Q188.03 71.6176 184.396 71.6176 M184.396 67.9139 Q190.206 67.9139 193.261 72.5203 Q196.34 77.1036 196.34 85.8536 Q196.34 94.5804 193.261 99.1869 Q190.206 103.77 184.396 103.77 Q178.586 103.77 175.507 99.1869 Q172.451 94.5804 172.451 85.8536 Q172.451 77.1036 175.507 72.5203 Q178.586 67.9139 184.396 67.9139 Z" fill="#000000" fill-rule="nonzero" fill-opacity="1" /><path clip-path="url(#clip130)" d="M214.558 71.6176 Q210.947 71.6176 209.118 75.1824 Q207.312 78.724 207.312 85.8536 Q207.312 92.96 209.118 96.5248 Q210.947 100.066 214.558 100.066 Q218.192 100.066 219.997 96.5248 Q221.826 92.96 221.826 85.8536 Q221.826 78.724 219.997 75.1824 Q218.192 71.6176 214.558 71.6176 M214.558 67.9139 Q220.368 67.9139 223.423 72.5203 Q226.502 77.1036 226.502 85.8536 Q226.502 94.5804 223.423 99.1869 Q220.368 103.77 214.558 103.77 Q208.747 103.77 205.669 99.1869 Q202.613 94.5804 202.613 85.8536 Q202.613 77.1036 205.669 72.5203 Q208.747 67.9139 214.558 67.9139 Z" fill="#000000" fill-rule="nonzero" fill-opacity="1" /><path clip-path="url(#clip130)" d="M65.3416 1238.96 L89.404 1238.96 L89.404 1246.45 L26.777 1246.45 L26.777 1238.96 L33.6636 1238.96 Q29.6127 1236.61 27.6682 1233.04 Q25.6833 1229.44 25.6833 1224.45 Q25.6833 1216.19 32.2458 1211.05 Q38.8082 1205.86 49.5026 1205.86 Q60.197 1205.86 66.7595 1211.05 Q73.3219 1216.19 73.3219 1224.45 Q73.3219 1229.44 71.3775 1233.04 Q69.3925 1236.61 65.3416 1238.96 M49.5026 1213.6 Q41.2793 1213.6 36.6207 1217 Q31.9217 1220.36 31.9217 1226.28 Q31.9217 1232.19 36.6207 1235.59 Q41.2793 1238.96 49.5026 1238.96 Q57.7259 1238.96 62.425 1235.59 Q67.0835 1232.19 67.0835 1226.28 Q67.0835 1220.36 62.425 1217 Q57.7259 1213.6 49.5026 1213.6 Z" fill="#000000" fill-rule="nonzero" fill-opacity="1" /><path clip-path="url(#clip130)" d="M33.7446 1167.21 Q33.0154 1168.47 32.6914 1169.97 Q32.3268 1171.43 32.3268 1173.21 Q32.3268 1179.53 36.4587 1182.93 Q40.5501 1186.29 48.2468 1186.29 L72.1472 1186.29 L72.1472 1193.79 L26.777 1193.79 L26.777 1186.29 L33.8256 1186.29 Q29.6937 1183.94 27.7087 1180.18 Q25.6833 1176.41 25.6833 1171.02 Q25.6833 1170.25 25.8048 1169.32 Q25.8858 1168.39 26.0884 1167.25 L33.7446 1167.21 Z" fill="#000000" fill-rule="nonzero" fill-opacity="1" /><path clip-path="url(#clip130)" d="M32.0027 1143.64 Q32.0027 1149.63 36.7017 1153.12 Q41.3603 1156.6 49.5026 1156.6 Q57.6449 1156.6 62.344 1153.16 Q67.0025 1149.67 67.0025 1143.64 Q67.0025 1137.68 62.3035 1134.2 Q57.6044 1130.72 49.5026 1130.72 Q41.4413 1130.72 36.7423 1134.2 Q32.0027 1137.68 32.0027 1143.64 M25.6833 1143.64 Q25.6833 1133.92 32.0027 1128.37 Q38.3221 1122.82 49.5026 1122.82 Q60.6426 1122.82 67.0025 1128.37 Q73.3219 1133.92 73.3219 1143.64 Q73.3219 1153.4 67.0025 1158.95 Q60.6426 1164.46 49.5026 1164.46 Q38.3221 1164.46 32.0027 1158.95 Q25.6833 1153.4 25.6833 1143.64 Z" fill="#000000" fill-rule="nonzero" fill-opacity="1" /><path clip-path="url(#clip130)" d="M9.11509 1087.49 L15.313 1087.49 L15.313 1094.62 Q15.313 1098.63 16.9333 1100.21 Q18.5537 1101.75 22.7666 1101.75 L26.777 1101.75 L26.777 1089.48 L32.5698 1089.48 L32.5698 1101.75 L72.1472 1101.75 L72.1472 1109.25 L32.5698 1109.25 L32.5698 1116.38 L26.777 1116.38 L26.777 1109.25 L23.6173 1109.25 Q16.0421 1109.25 12.5989 1105.72 Q9.11509 1102.2 9.11509 1094.54 L9.11509 1087.49 Z" fill="#000000" fill-rule="nonzero" fill-opacity="1" /><path clip-path="url(#clip130)" d="M26.777 1081.25 L26.777 1073.8 L72.1472 1073.8 L72.1472 1081.25 L26.777 1081.25 M9.11509 1081.25 L9.11509 1073.8 L18.5537 1073.8 L18.5537 1081.25 L9.11509 1081.25 Z" fill="#000000" fill-rule="nonzero" fill-opacity="1" /><path clip-path="url(#clip130)" d="M9.11509 1058.2 L9.11509 1050.75 L72.1472 1050.75 L72.1472 1058.2 L9.11509 1058.2 Z" fill="#000000" fill-rule="nonzero" fill-opacity="1" /><path clip-path="url(#clip130)" d="M47.5987 996.347 L51.2445 996.347 L51.2445 1030.62 Q58.9412 1030.13 62.9921 1026 Q67.0025 1021.83 67.0025 1014.41 Q67.0025 1010.12 65.9493 1006.11 Q64.896 1002.06 62.7896 998.089 L69.8381 998.089 Q71.5395 1002.1 72.4307 1006.31 Q73.3219 1010.53 73.3219 1014.86 Q73.3219 1025.72 67.0025 1032.08 Q60.6831 1038.4 49.9077 1038.4 Q38.7677 1038.4 32.2458 1032.4 Q25.6833 1026.36 25.6833 1016.16 Q25.6833 1007 31.5976 1001.69 Q37.4714 996.347 47.5987 996.347 M45.4112 1003.8 Q39.2943 1003.88 35.6485 1007.24 Q32.0027 1010.57 32.0027 1016.08 Q32.0027 1022.31 35.527 1026.08 Q39.0513 1029.81 45.4517 1030.37 L45.4112 1003.8 Z" fill="#000000" fill-rule="nonzero" fill-opacity="1" /><path clip-path="url(#clip130)" d="M9.11509 957.742 L9.11509 950.289 L72.1472 950.289 L72.1472 957.742 L9.11509 957.742 Z" fill="#000000" fill-rule="nonzero" fill-opacity="1" /><path clip-path="url(#clip130)" d="M26.777 934.693 L26.777 927.239 L72.1472 927.239 L72.1472 934.693 L26.777 934.693 M9.11509 934.693 L9.11509 927.239 L18.5537 927.239 L18.5537 934.693 L9.11509 934.693 Z" fill="#000000" fill-rule="nonzero" fill-opacity="1" /><path clip-path="url(#clip130)" d="M9.11509 911.926 L9.11509 904.432 L46.3429 904.432 L26.777 882.193 L26.777 872.673 L48.0038 896.736 L72.1472 871.66 L72.1472 881.383 L49.9887 904.432 L72.1472 904.432 L72.1472 911.926 L9.11509 911.926 Z" fill="#000000" fill-rule="nonzero" fill-opacity="1" /><path clip-path="url(#clip130)" d="M47.5987 827.749 L51.2445 827.749 L51.2445 862.019 Q58.9412 861.533 62.9921 857.401 Q67.0025 853.229 67.0025 845.816 Q67.0025 841.522 65.9493 837.511 Q64.896 833.46 62.7896 829.491 L69.8381 829.491 Q71.5395 833.501 72.4307 837.714 Q73.3219 841.927 73.3219 846.261 Q73.3219 857.118 67.0025 863.478 Q60.6831 869.797 49.9077 869.797 Q38.7677 869.797 32.2458 863.802 Q25.6833 857.766 25.6833 847.558 Q25.6833 838.403 31.5976 833.096 Q37.4714 827.749 47.5987 827.749 M45.4112 835.202 Q39.2943 835.283 35.6485 838.646 Q32.0027 841.967 32.0027 847.477 Q32.0027 853.715 35.527 857.482 Q39.0513 861.209 45.4517 861.776 L45.4112 835.202 Z" fill="#000000" fill-rule="nonzero" fill-opacity="1" /><path clip-path="url(#clip130)" d="M9.11509 815.515 L9.11509 808.061 L72.1472 808.061 L72.1472 815.515 L9.11509 815.515 Z" fill="#000000" fill-rule="nonzero" fill-opacity="1" /><path clip-path="url(#clip130)" d="M26.777 792.465 L26.777 785.012 L72.1472 785.012 L72.1472 792.465 L26.777 792.465 M9.11509 792.465 L9.11509 785.012 L18.5537 785.012 L18.5537 792.465 L9.11509 792.465 Z" fill="#000000" fill-rule="nonzero" fill-opacity="1" /><path clip-path="url(#clip130)" d="M44.763 731.702 L72.1472 731.702 L72.1472 739.155 L45.0061 739.155 Q38.5652 739.155 35.3649 741.667 Q32.1647 744.179 32.1647 749.202 Q32.1647 755.237 36.0131 758.721 Q39.8615 762.205 46.5049 762.205 L72.1472 762.205 L72.1472 769.699 L9.11509 769.699 L9.11509 762.205 L33.8256 762.205 Q29.7342 759.531 27.7087 755.926 Q25.6833 752.28 25.6833 747.541 Q25.6833 739.723 30.5444 735.712 Q35.3649 731.702 44.763 731.702 Z" fill="#000000" fill-rule="nonzero" fill-opacity="1" /><path clip-path="url(#clip130)" d="M32.0027 699.254 Q32.0027 705.249 36.7017 708.733 Q41.3603 712.217 49.5026 712.217 Q57.6449 712.217 62.344 708.774 Q67.0025 705.29 67.0025 699.254 Q67.0025 693.299 62.3035 689.815 Q57.6044 686.332 49.5026 686.332 Q41.4413 686.332 36.7423 689.815 Q32.0027 693.299 32.0027 699.254 M25.6833 699.254 Q25.6833 689.532 32.0027 683.982 Q38.3221 678.432 49.5026 678.432 Q60.6426 678.432 67.0025 683.982 Q73.3219 689.532 73.3219 699.254 Q73.3219 709.017 67.0025 714.566 Q60.6426 720.076 49.5026 720.076 Q38.3221 720.076 32.0027 714.566 Q25.6833 709.017 25.6833 699.254 Z" fill="#000000" fill-rule="nonzero" fill-opacity="1" /><path clip-path="url(#clip130)" d="M32.0027 648.496 Q32.0027 654.492 36.7017 657.975 Q41.3603 661.459 49.5026 661.459 Q57.6449 661.459 62.344 658.016 Q67.0025 654.532 67.0025 648.496 Q67.0025 642.541 62.3035 639.058 Q57.6044 635.574 49.5026 635.574 Q41.4413 635.574 36.7423 639.058 Q32.0027 642.541 32.0027 648.496 M25.6833 648.496 Q25.6833 638.774 32.0027 633.224 Q38.3221 627.675 49.5026 627.675 Q60.6426 627.675 67.0025 633.224 Q73.3219 638.774 73.3219 648.496 Q73.3219 658.259 67.0025 663.809 Q60.6426 669.318 49.5026 669.318 Q38.3221 669.318 32.0027 663.809 Q25.6833 658.259 25.6833 648.496 Z" fill="#000000" fill-rule="nonzero" fill-opacity="1" /><path clip-path="url(#clip130)" d="M33.6636 585.464 L9.11509 585.464 L9.11509 578.01 L72.1472 578.01 L72.1472 585.464 L65.3416 585.464 Q69.3925 587.814 71.3775 591.419 Q73.3219 594.984 73.3219 600.007 Q73.3219 608.23 66.7595 613.415 Q60.197 618.56 49.5026 618.56 Q38.8082 618.56 32.2458 613.415 Q25.6833 608.23 25.6833 600.007 Q25.6833 594.984 27.6682 591.419 Q29.6127 587.814 33.6636 585.464 M49.5026 610.863 Q57.7259 610.863 62.425 607.501 Q67.0835 604.098 67.0835 598.184 Q67.0835 592.27 62.425 588.867 Q57.7259 585.464 49.5026 585.464 Q41.2793 585.464 36.6207 588.867 Q31.9217 592.27 31.9217 598.184 Q31.9217 604.098 36.6207 607.501 Q41.2793 610.863 49.5026 610.863 Z" fill="#000000" fill-rule="nonzero" fill-opacity="1" /><path clip-path="url(#clip130)" d="M9.11509 513.317 L15.313 513.317 L15.313 520.447 Q15.313 524.457 16.9333 526.037 Q18.5537 527.577 22.7666 527.577 L26.777 527.577 L26.777 515.302 L32.5698 515.302 L32.5698 527.577 L72.1472 527.577 L72.1472 535.071 L32.5698 535.071 L32.5698 542.2 L26.777 542.2 L26.777 535.071 L23.6173 535.071 Q16.0421 535.071 12.5989 531.547 Q9.11509 528.022 9.11509 520.366 L9.11509 513.317 Z" fill="#000000" fill-rule="nonzero" fill-opacity="1" /><path clip-path="url(#clip130)" d="M32.0027 489.498 Q32.0027 495.494 36.7017 498.977 Q41.3603 502.461 49.5026 502.461 Q57.6449 502.461 62.344 499.018 Q67.0025 495.534 67.0025 489.498 Q67.0025 483.543 62.3035 480.06 Q57.6044 476.576 49.5026 476.576 Q41.4413 476.576 36.7423 480.06 Q32.0027 483.543 32.0027 489.498 M25.6833 489.498 Q25.6833 479.776 32.0027 474.226 Q38.3221 468.677 49.5026 468.677 Q60.6426 468.677 67.0025 474.226 Q73.3219 479.776 73.3219 489.498 Q73.3219 499.261 67.0025 504.811 Q60.6426 510.32 49.5026 510.32 Q38.3221 510.32 32.0027 504.811 Q25.6833 499.261 25.6833 489.498 Z" fill="#000000" fill-rule="nonzero" fill-opacity="1" /><path clip-path="url(#clip130)" d="M33.7446 430.031 Q33.0154 431.287 32.6914 432.786 Q32.3268 434.244 32.3268 436.026 Q32.3268 442.346 36.4587 445.748 Q40.5501 449.111 48.2468 449.111 L72.1472 449.111 L72.1472 456.605 L26.777 456.605 L26.777 449.111 L33.8256 449.111 Q29.6937 446.761 27.7087 442.994 Q25.6833 439.226 25.6833 433.839 Q25.6833 433.069 25.8048 432.137 Q25.8858 431.206 26.0884 430.071 L33.7446 430.031 Z" fill="#000000" fill-rule="nonzero" fill-opacity="1" /><path clip-path="url(#clip130)" d="M72.1472 403.66 L69.5648 403.66 Q69.5648 399.192 69.032 398.167 Q68.4581 397.142 65.7528 397.142 L22.0992 397.142 Q18.9841 397.142 18.2053 398.249 Q17.4265 399.315 17.4265 403.66 L14.8032 403.66 L13.9014 391.609 L65.7528 391.609 Q68.4581 391.609 69.032 390.543 Q69.5648 389.477 69.5648 385.05 L72.1472 385.05 Q72.1472 386.075 72.0652 388.207 Q71.9832 390.338 71.9422 391.896 Q71.9012 393.453 71.9012 394.355 Q71.9012 395.339 72.1472 403.66 Z" fill="#000000" fill-rule="nonzero" fill-opacity="1" /><path clip-path="url(#clip130)" d="M72.1472 379.97 L69.5648 379.97 Q69.5648 375.502 69.032 374.477 Q68.4581 373.452 65.7528 373.452 L43.2497 373.452 Q40.1345 373.452 39.3557 374.559 Q38.5769 375.625 38.5769 379.97 L35.9536 379.97 L35.0519 368.165 L43.8646 368.165 Q35.0519 364.23 35.0519 355.745 Q35.0519 349.433 38.167 346.932 Q40.2575 345.088 42.5939 344.719 Q44.9303 344.309 50.9967 344.309 L67.0235 344.309 Q68.786 344.227 69.1959 342.874 Q69.5648 341.522 69.5648 337.751 L72.1472 337.751 Q71.9012 346.317 71.9012 347.178 Q71.9012 347.834 72.1472 356.647 L69.5648 356.647 Q69.5648 352.179 69.032 351.154 Q68.4581 350.088 65.7528 350.088 L46.2009 350.088 Q41.9381 350.088 39.4377 351.4 Q36.8964 352.712 36.8964 356.319 Q36.8964 360.664 40.5444 364.148 Q44.1925 367.632 50.3409 367.632 L65.7528 367.632 Q68.4581 367.632 69.032 366.607 Q69.5648 365.541 69.5648 361.115 L72.1472 361.115 Q71.9012 369.681 71.9012 370.501 Q71.9012 371.157 72.1472 379.97 Z" fill="#000000" fill-rule="nonzero" fill-opacity="1" /><path clip-path="url(#clip130)" d="M36.0356 247.523 Q42.7988 247.523 49.4391 250.433 Q56.0384 253.303 61.0391 257.975 Q65.9988 262.607 69.073 268.878 Q72.1472 275.15 72.1472 281.544 L72.1472 309.335 Q72.1472 310.319 72.1062 310.729 Q72.0652 311.097 71.8602 311.384 Q71.6143 311.671 71.1224 311.671 Q70.3436 311.671 70.0157 311.343 Q69.6468 311.015 69.6058 310.647 Q69.5648 310.278 69.5648 309.335 Q69.5648 307.285 69.4419 306.056 Q69.3189 304.826 69.1549 304.047 Q68.95 303.228 68.3761 302.818 Q67.8023 302.367 67.3104 302.162 Q66.7776 301.957 65.5889 301.67 L20.5007 290.439 Q19.148 290.111 18.9431 290.111 Q18.2463 290.111 18.0003 290.521 Q17.7134 290.89 17.5904 291.955 Q17.4265 294.005 17.4265 295.563 Q17.4265 296.587 17.3855 296.997 Q17.3445 297.366 17.1395 297.694 Q16.8936 297.981 16.4017 297.981 Q15.6229 297.981 15.295 297.653 Q14.9261 297.284 14.8851 296.874 Q14.8032 296.464 14.8032 295.481 L14.8032 267.28 Q14.8032 261.173 17.6724 256.623 Q20.5007 252.073 25.2964 249.818 Q30.0512 247.523 36.0356 247.523 M32.9614 254.86 Q25.1325 254.86 21.2795 259.123 Q17.4265 263.345 17.4265 270.026 L17.4265 279.003 Q17.4265 281.667 17.9183 282.323 Q18.3692 282.979 20.6236 283.553 L66.6956 295.071 Q68.2122 295.481 68.6221 295.481 Q69.073 295.481 69.2369 295.276 Q69.3599 295.03 69.4419 294.374 Q69.5648 293.636 69.5648 292.529 L69.5648 283.061 Q69.5648 279.413 68.5811 276.093 Q67.5564 272.731 65.9578 270.313 Q64.3182 267.895 62.9246 266.337 Q61.4899 264.78 60.0553 263.673 Q56.8172 261.173 52.5953 259.328 Q48.3734 257.442 44.5204 256.582 Q40.6264 255.68 37.7572 255.27 Q34.8469 254.86 32.9614 254.86 Z" fill="#000000" fill-rule="nonzero" fill-opacity="1" /><path clip-path="url(#clip130)" d="M61.8631 239.18 L60.0268 239.18 Q60.0268 232.122 56.2681 228.478 Q56.2681 227.474 56.4976 227.301 Q56.7272 227.129 57.7888 227.129 L90.7565 227.129 Q92.5067 227.129 93.0519 226.268 Q93.597 225.408 93.597 221.649 L93.597 219.784 L95.4047 219.784 Q95.2325 221.85 95.2325 229.31 Q95.2325 236.77 95.4047 238.807 L93.597 238.807 L93.597 236.942 Q93.597 233.241 93.0806 232.351 Q92.5354 231.462 90.7565 231.462 L60.3137 231.462 Q61.8631 234.532 61.8631 239.18 Z" fill="#000000" fill-rule="nonzero" fill-opacity="1" /><polyline clip-path="url(#clip132)" style="stroke:#000000; stroke-linecap:round; stroke-linejoin:round; stroke-width:8; stroke-opacity:1; fill:none" points="321.66,1371.65 325.612,1371.65 329.564,1371.65 333.515,1371.65 337.467,1371.65 341.419,1371.65 345.371,1371.65 349.323,1371.65 353.274,1371.65 357.226,1371.65 361.178,1371.65 365.13,1371.65 369.082,1371.65 373.033,1371.65 376.985,1371.65 380.937,1371.65 384.889,1371.65 388.84,1371.65 392.792,1371.65 396.744,1371.65 400.696,1371.65 404.648,1371.65 408.599,1371.65 412.551,1371.65 416.503,1371.65 420.455,1371.65 424.406,1371.65 428.358,1371.65 432.31,1371.65 436.262,1371.65 440.214,1371.65 444.165,1371.65 448.117,1371.65 452.069,1371.65 456.021,1371.65 459.972,1371.65 463.924,1371.65 467.876,1371.65 471.828,1371.65 475.78,1371.65 479.731,1371.65 483.683,1371.65 487.635,1371.65 491.587,1371.65 495.538,1371.65 499.49,1371.65 503.442,1371.65 507.394,1371.65 511.346,1371.65 515.297,1371.65 519.249,1371.65 523.201,1371.65 527.153,1371.65 531.104,1371.65 535.056,1371.65 539.008,1371.65 542.96,1371.65 546.912,1371.65 550.863,1371.65 554.815,1371.65 558.767,1371.65 562.719,1371.65 566.67,1371.65 570.622,1371.65 574.574,1371.65 578.526,1371.65 582.478,1371.65 586.429,1371.65 590.381,1371.65 594.333,1371.65 598.285,1371.65 602.236,1371.65 606.188,1371.65 610.14,1371.65 614.092,1371.65 618.044,1371.65 621.995,1371.65 625.947,1371.65 629.899,1371.65 633.851,1371.65 637.802,1371.65 641.754,1371.65 645.706,1371.65 649.658,1371.65 653.61,1371.65 657.561,1371.65 661.513,1371.65 665.465,1371.65 669.417,1371.65 673.368,1371.65 677.32,1371.65 681.272,1371.65 685.224,1371.65 689.176,1371.65 693.127,1371.65 697.079,1371.65 701.031,1371.65 704.983,1371.65 708.934,1371.65 712.886,1371.65 716.838,1371.65 720.79,1371.65 724.742,1371.65 728.693,1371.65 732.645,1371.65 736.597,1371.65 740.549,1371.65 744.5,1371.65 748.452,1371.65 752.404,1371.65 756.356,1371.65 760.308,1371.65 764.259,1371.65 768.211,1371.65 772.163,1371.65 776.115,1371.65 780.067,1371.65 784.018,1371.65 787.97,1371.65 791.922,1371.65 795.874,1371.65 799.825,1371.65 803.777,1371.65 807.729,1371.65 811.681,1371.65 815.633,1371.65 819.584,1371.65 823.536,1371.65 827.488,1371.65 831.44,1371.65 835.391,1371.65 839.343,1371.65 843.295,1371.65 847.247,1371.65 851.199,1371.65 855.15,1371.65 859.102,1371.65 863.054,1371.65 867.006,1371.65 870.957,1371.65 874.909,1371.65 878.861,1371.65 882.813,1371.65 886.765,1371.65 890.716,1371.65 894.668,1371.65 898.62,1371.65 902.572,1371.65 906.523,1371.65 910.475,1371.65 914.427,1371.65 918.379,1371.65 922.331,1371.65 926.282,1371.65 930.234,1371.65 934.186,1371.65 938.138,1371.65 942.089,1371.65 946.041,1371.65 949.993,1371.65 953.945,1371.65 957.897,1371.65 961.848,1371.65 965.8,1371.65 969.752,1371.65 973.704,1371.65 977.655,1371.65 981.607,1371.65 985.559,1371.65 989.511,1371.65 993.463,1371.65 997.414,1371.65 1001.37,1371.65 1005.32,1371.65 1009.27,1371.65 1013.22,1371.65 1017.17,1371.65 1021.13,1371.65 1025.08,1371.65 1029.03,1371.65 1032.98,1371.65 1036.93,1371.65 1040.88,1371.65 1044.84,1371.65 1048.79,1371.65 1052.74,1371.65 1056.69,1371.65 1060.64,1371.65 1064.59,1371.65 1068.55,1371.65 1072.5,1371.65 1076.45,1371.65 1080.4,1371.65 1084.35,1371.65 1088.31,1371.65 1092.26,1371.65 1096.21,1371.65 1100.16,1371.65 1104.11,1371.65 1108.06,1371.65 1112.02,1371.65 1115.97,1371.65 1119.92,1371.65 1123.87,1371.65 1127.82,1371.65 1131.77,1371.65 1135.73,1371.65 1139.68,1371.65 1143.63,1371.65 1147.58,1371.65 1151.53,1371.65 1155.49,1371.65 1159.44,1371.65 1163.39,1371.65 1167.34,1371.65 1171.29,1371.65 1175.24,1371.65 1179.2,1371.65 1183.15,1371.65 1187.1,1371.65 1191.05,1371.65 1195,1371.65 1198.96,1371.65 1202.91,1371.65 1206.86,1371.65 1210.81,1371.65 1214.76,1371.65 1218.71,1371.65 1222.67,1371.65 1226.62,1371.65 1230.57,1371.65 1234.52,1371.65 1238.47,1371.65 1242.42,1371.65 1246.38,1371.65 1250.33,1371.65 1254.28,1371.65 1258.23,1371.65 1262.18,1371.65 1266.14,1371.65 1270.09,1371.65 1274.04,1371.65 1277.99,1371.65 1281.94,1371.65 1285.89,1371.65 1289.85,1371.65 1293.8,1371.65 1297.75,1371.65 1301.7,1371.65 1305.65,1371.65 1309.6,1371.65 1313.56,1371.65 1317.51,1371.65 1321.46,1371.65 1325.41,1371.65 1329.36,1371.65 1333.32,1371.65 1337.27,1371.65 1341.22,1371.65 1345.17,1371.65 1349.12,1371.65 1353.07,1371.65 1357.03,1371.65 1360.98,1371.65 1364.93,1371.65 1368.88,1371.65 1372.83,1371.65 1376.79,1371.65 1380.74,1371.65 1384.69,1371.65 1388.64,1371.65 1392.59,1371.65 1396.54,1371.65 1400.5,1371.65 1404.45,1371.65 1408.4,1371.65 1412.35,1371.65 1416.3,1371.65 1420.25,1371.65 1424.21,1371.65 1428.16,1371.65 1432.11,1371.65 1436.06,1371.65 1440.01,1371.65 1443.97,1371.65 1447.92,1371.65 1451.87,1371.65 1455.82,1371.65 1459.77,1371.65 1463.72,1371.65 1467.68,1371.65 1471.63,1371.65 1475.58,1371.65 1479.53,1371.65 1483.48,1371.65 1487.43,1371.65 1491.39,1371.65 1495.34,1371.65 1499.29,1371.65 1503.24,1371.65 1507.19,1371.65 1511.15,1371.65 1515.1,1371.65 1519.05,1371.65 1523,1371.65 1526.95,85.8189 1530.9,86.6526 1534.86,89.1496 1538.81,85.8196 1542.76,86.6306 1546.71,89.1054 1550.66,85.8224 1554.62,86.6226 1558.57,89.0896 1562.52,85.8222 1566.47,86.6223 1570.42,89.0889 1574.37,85.8222 1578.33,86.6223 1582.28,89.089 1586.23,85.8222 1590.18,86.6223 1594.13,89.089 1598.08,85.8222 1602.04,86.6223 1605.99,89.089 1609.94,85.8222 1613.89,86.6223 1617.84,89.089 1621.8,85.8222 1625.75,86.6223 1629.7,89.089 1633.65,85.8222 1637.6,86.6223 1641.55,89.089 1645.51,85.8222 1649.46,86.6223 1653.41,89.089 1657.36,85.8222 1661.31,86.6223 1665.26,89.089 1669.22,85.8222 1673.17,86.6223 1677.12,89.089 1681.07,85.8222 1685.02,86.6223 1688.98,89.089 1692.93,85.8222 1696.88,86.6223 1700.83,89.089 1704.78,85.8222 1708.73,86.6223 1712.69,89.089 1716.64,85.8222 1720.59,86.6223 1724.54,89.089 1728.49,85.8222 1732.45,86.6223 1736.4,89.089 1740.35,85.8222 1744.3,86.6223 1748.25,89.089 1752.2,85.8222 1756.16,86.6223 1760.11,89.089 1764.06,85.8222 1768.01,86.6223 1771.96,89.089 1775.91,85.8222 1779.87,86.6223 1783.82,89.089 1787.77,85.8222 1791.72,86.6223 1795.67,89.089 1799.63,85.8222 1803.58,86.6223 1807.53,89.089 1811.48,85.8222 1815.43,86.6223 1819.38,89.089 1823.34,85.8222 1827.29,86.6223 1831.24,89.089 1835.19,85.8222 1839.14,86.6223 1843.09,89.089 1847.05,85.8222 1851,86.6223 1854.95,89.089 1858.9,85.8222 1862.85,86.6223 1866.81,89.089 1870.76,85.8222 1874.71,86.6223 1878.66,89.089 1882.61,85.8222 1886.56,86.6223 1890.52,89.089 1894.47,85.8222 1898.42,86.6223 1902.37,89.089 1906.32,85.8222 1910.28,86.6223 1914.23,89.089 1918.18,85.8222 1922.13,86.6223 1926.08,89.089 1930.03,85.8222 1933.99,86.6223 1937.94,89.089 1941.89,85.8222 1945.84,86.6223 1949.79,89.089 1953.74,85.8222 1957.7,86.6223 1961.65,89.089 1965.6,85.8222 1969.55,86.6223 1973.5,89.089 1977.46,85.8222 1981.41,86.6223 1985.36,89.089 1989.31,85.8222 1993.26,86.6223 1997.21,89.089 2001.17,85.8222 2005.12,86.6223 2009.07,89.089 2013.02,85.8222 2016.97,86.6223 2020.93,89.089 2024.88,85.8222 2028.83,86.6223 2032.78,89.089 2036.73,85.8222 2040.68,86.6223 2044.64,89.089 2048.59,85.8222 2052.54,86.6223 2056.49,89.089 2060.44,85.8222 2064.39,86.6223 2068.35,89.089 2072.3,85.8222 2076.25,86.6223 2080.2,89.089 2084.15,85.8222 2088.11,86.6223 2092.06,89.089 2096.01,85.8222 2099.96,86.6223 2103.91,89.089 2107.86,85.8222 2111.82,86.6223 2115.77,89.089 2119.72,85.8222 2123.67,86.6223 2127.62,89.089 2131.57,85.8222 2135.53,86.6223 2139.48,89.089 2143.43,85.8222 2147.38,86.6223 2151.33,89.089 2155.29,85.8222 2159.24,86.6223 2163.19,89.089 2167.14,85.8222 2171.09,86.6223 2175.04,89.089 2179,85.8222 2182.95,86.6223 2186.9,89.089 2190.85,85.8222 2194.8,86.6223 2198.76,89.089 2202.71,85.8222 2206.66,86.6223 2210.61,89.089 2214.56,85.8222 2218.51,86.6223 2222.47,89.089 2226.42,85.8222 2230.37,86.6223 2234.32,89.089 2238.27,85.8222 2242.22,86.6223 2246.18,89.089 2250.13,85.8222 2254.08,86.6223 2258.03,89.089 2261.98,85.8222 2265.94,86.6223 2269.89,89.089 2273.84,85.8222 2277.79,86.6223 2281.74,89.089 2285.69,85.8222 2289.65,86.6223 2293.6,89.089 "/>
<polyline clip-path="url(#clip132)" style="stroke:#000000; stroke-linecap:round; stroke-linejoin:round; stroke-width:8; stroke-opacity:1; fill:none" stroke-dasharray="4, 8" points="1526.95,2773.2 1526.95,-1315.73 "/>
<polyline clip-path="url(#clip132)" style="stroke:#000000; stroke-linecap:round; stroke-linejoin:round; stroke-width:4; stroke-opacity:1; fill:none" points="-1827.75,1183.27 4443.01,1183.27 "/>
<polyline clip-path="url(#clip132)" style="stroke:#808080; stroke-linecap:round; stroke-linejoin:round; stroke-width:8; stroke-opacity:1; fill:none" points="2036.11,2773.2 2036.11,-1315.73 "/>
</svg>
