<?xml version="1.0" encoding="utf-8"?>
<svg xmlns="http://www.w3.org/2000/svg" xmlns:xlink="http://www.w3.org/1999/xlink" width="600" height="400" viewBox="0 0 2400 1600">
<defs>
  <clipPath id="clip260">
    <rect x="0" y="0" width="2400" height="1600"/>
  </clipPath>
</defs>
<path clip-path="url(#clip260)" d="M0 1600 L2400 1600 L2400 8.88178e-14 L0 8.88178e-14  Z" fill="#ffffff" fill-rule="evenodd" fill-opacity="1"/>
<defs>
  <clipPath id="clip261">
    <rect x="480" y="0" width="1681" height="1600"/>
  </clipPath>
</defs>
<path clip-path="url(#clip260)" d="M232.826 1410.22 L2352.76 1410.22 L2352.76 47.2441 L232.826 47.2441  Z" fill="#ffffff" fill-rule="evenodd" fill-opacity="1"/>
<defs>
  <clipPath id="clip262">
    <rect x="232" y="47" width="2121" height="1364"/>
  </clipPath>
</defs>
<polyline clip-path="url(#clip262)" style="stroke:#000000; stroke-linecap:round; stroke-linejoin:round; stroke-width:2; stroke-opacity:0.1; fill:none" points="252.009,1410.22 252.009,47.2441 "/>
<polyline clip-path="url(#clip262)" style="stroke:#000000; stroke-linecap:round; stroke-linejoin:round; stroke-width:2; stroke-opacity:0.1; fill:none" points="660.159,1410.22 660.159,47.2441 "/>
<polyline clip-path="url(#clip262)" style="stroke:#000000; stroke-linecap:round; stroke-linejoin:round; stroke-width:2; stroke-opacity:0.1; fill:none" points="1068.31,1410.22 1068.31,47.2441 "/>
<polyline clip-path="url(#clip262)" style="stroke:#000000; stroke-linecap:round; stroke-linejoin:round; stroke-width:2; stroke-opacity:0.1; fill:none" points="1476.46,1410.22 1476.46,47.2441 "/>
<polyline clip-path="url(#clip262)" style="stroke:#000000; stroke-linecap:round; stroke-linejoin:round; stroke-width:2; stroke-opacity:0.1; fill:none" points="1884.61,1410.22 1884.61,47.2441 "/>
<polyline clip-path="url(#clip262)" style="stroke:#000000; stroke-linecap:round; stroke-linejoin:round; stroke-width:2; stroke-opacity:0.1; fill:none" points="2292.76,1410.22 2292.76,47.2441 "/>
<polyline clip-path="url(#clip262)" style="stroke:#000000; stroke-linecap:round; stroke-linejoin:round; stroke-width:2; stroke-opacity:0.1; fill:none" points="232.826,1241.5 2352.76,1241.5 "/>
<polyline clip-path="url(#clip262)" style="stroke:#000000; stroke-linecap:round; stroke-linejoin:round; stroke-width:2; stroke-opacity:0.1; fill:none" points="232.826,952.579 2352.76,952.579 "/>
<polyline clip-path="url(#clip262)" style="stroke:#000000; stroke-linecap:round; stroke-linejoin:round; stroke-width:2; stroke-opacity:0.1; fill:none" points="232.826,663.659 2352.76,663.659 "/>
<polyline clip-path="url(#clip262)" style="stroke:#000000; stroke-linecap:round; stroke-linejoin:round; stroke-width:2; stroke-opacity:0.1; fill:none" points="232.826,374.739 2352.76,374.739 "/>
<polyline clip-path="url(#clip262)" style="stroke:#000000; stroke-linecap:round; stroke-linejoin:round; stroke-width:2; stroke-opacity:0.1; fill:none" points="232.826,85.8189 2352.76,85.8189 "/>
<polyline clip-path="url(#clip260)" style="stroke:#000000; stroke-linecap:round; stroke-linejoin:round; stroke-width:4; stroke-opacity:1; fill:none" points="232.826,1410.22 2352.76,1410.22 "/>
<polyline clip-path="url(#clip260)" style="stroke:#000000; stroke-linecap:round; stroke-linejoin:round; stroke-width:4; stroke-opacity:1; fill:none" points="252.009,1410.22 252.009,1391.32 "/>
<polyline clip-path="url(#clip260)" style="stroke:#000000; stroke-linecap:round; stroke-linejoin:round; stroke-width:4; stroke-opacity:1; fill:none" points="660.159,1410.22 660.159,1391.32 "/>
<polyline clip-path="url(#clip260)" style="stroke:#000000; stroke-linecap:round; stroke-linejoin:round; stroke-width:4; stroke-opacity:1; fill:none" points="1068.31,1410.22 1068.31,1391.32 "/>
<polyline clip-path="url(#clip260)" style="stroke:#000000; stroke-linecap:round; stroke-linejoin:round; stroke-width:4; stroke-opacity:1; fill:none" points="1476.46,1410.22 1476.46,1391.32 "/>
<polyline clip-path="url(#clip260)" style="stroke:#000000; stroke-linecap:round; stroke-linejoin:round; stroke-width:4; stroke-opacity:1; fill:none" points="1884.61,1410.22 1884.61,1391.32 "/>
<polyline clip-path="url(#clip260)" style="stroke:#000000; stroke-linecap:round; stroke-linejoin:round; stroke-width:4; stroke-opacity:1; fill:none" points="2292.76,1410.22 2292.76,1391.32 "/>
<path clip-path="url(#clip260)" d="M252.009 1441.14 Q248.398 1441.14 246.57 1444.7 Q244.764 1448.24 244.764 1455.37 Q244.764 1462.48 246.57 1466.05 Q248.398 1469.59 252.009 1469.59 Q255.644 1469.59 257.449 1466.05 Q259.278 1462.48 259.278 1455.37 Q259.278 1448.24 257.449 1444.7 Q255.644 1441.14 252.009 1441.14 M252.009 1437.43 Q257.819 1437.43 260.875 1442.04 Q263.954 1446.62 263.954 1455.37 Q263.954 1464.1 260.875 1468.71 Q257.819 1473.29 252.009 1473.29 Q246.199 1473.29 243.12 1468.71 Q240.065 1464.1 240.065 1455.37 Q240.065 1446.62 243.12 1442.04 Q246.199 1437.43 252.009 1437.43 Z" fill="#000000" fill-rule="nonzero" fill-opacity="1" /><path clip-path="url(#clip260)" d="M650.541 1468.68 L658.18 1468.68 L658.18 1442.32 L649.87 1443.99 L649.87 1439.73 L658.134 1438.06 L662.809 1438.06 L662.809 1468.68 L670.448 1468.68 L670.448 1472.62 L650.541 1472.62 L650.541 1468.68 Z" fill="#000000" fill-rule="nonzero" fill-opacity="1" /><path clip-path="url(#clip260)" d="M1062.96 1468.68 L1079.28 1468.68 L1079.28 1472.62 L1057.34 1472.62 L1057.34 1468.68 Q1060 1465.93 1064.58 1461.3 Q1069.19 1456.65 1070.37 1455.31 Q1072.61 1452.78 1073.49 1451.05 Q1074.4 1449.29 1074.4 1447.6 Q1074.4 1444.84 1072.45 1443.11 Q1070.53 1441.37 1067.43 1441.37 Q1065.23 1441.37 1062.78 1442.13 Q1060.35 1442.9 1057.57 1444.45 L1057.57 1439.73 Q1060.39 1438.59 1062.85 1438.01 Q1065.3 1437.43 1067.34 1437.43 Q1072.71 1437.43 1075.9 1440.12 Q1079.1 1442.81 1079.1 1447.3 Q1079.1 1449.43 1078.29 1451.35 Q1077.5 1453.24 1075.39 1455.84 Q1074.81 1456.51 1071.71 1459.73 Q1068.61 1462.92 1062.96 1468.68 Z" fill="#000000" fill-rule="nonzero" fill-opacity="1" /><path clip-path="url(#clip260)" d="M1480.71 1453.99 Q1484.06 1454.7 1485.94 1456.97 Q1487.84 1459.24 1487.84 1462.57 Q1487.84 1467.69 1484.32 1470.49 Q1480.8 1473.29 1474.32 1473.29 Q1472.14 1473.29 1469.83 1472.85 Q1467.53 1472.43 1465.08 1471.58 L1465.08 1467.06 Q1467.03 1468.2 1469.34 1468.78 Q1471.66 1469.36 1474.18 1469.36 Q1478.58 1469.36 1480.87 1467.62 Q1483.18 1465.88 1483.18 1462.57 Q1483.18 1459.52 1481.03 1457.81 Q1478.9 1456.07 1475.08 1456.07 L1471.05 1456.07 L1471.05 1452.23 L1475.27 1452.23 Q1478.72 1452.23 1480.54 1450.86 Q1482.37 1449.47 1482.37 1446.88 Q1482.37 1444.22 1480.47 1442.81 Q1478.6 1441.37 1475.08 1441.37 Q1473.16 1441.37 1470.96 1441.79 Q1468.76 1442.2 1466.12 1443.08 L1466.12 1438.92 Q1468.78 1438.18 1471.1 1437.81 Q1473.44 1437.43 1475.5 1437.43 Q1480.82 1437.43 1483.92 1439.87 Q1487.03 1442.27 1487.03 1446.39 Q1487.03 1449.26 1485.38 1451.25 Q1483.74 1453.22 1480.71 1453.99 Z" fill="#000000" fill-rule="nonzero" fill-opacity="1" /><path clip-path="url(#clip260)" d="M1887.62 1442.13 L1875.81 1460.58 L1887.62 1460.58 L1887.62 1442.13 M1886.39 1438.06 L1892.27 1438.06 L1892.27 1460.58 L1897.2 1460.58 L1897.2 1464.47 L1892.27 1464.47 L1892.27 1472.62 L1887.62 1472.62 L1887.62 1464.47 L1872.02 1464.47 L1872.02 1459.96 L1886.39 1438.06 Z" fill="#000000" fill-rule="nonzero" fill-opacity="1" /><path clip-path="url(#clip260)" d="M2283.04 1438.06 L2301.39 1438.06 L2301.39 1442 L2287.32 1442 L2287.32 1450.47 Q2288.34 1450.12 2289.36 1449.96 Q2290.37 1449.77 2291.39 1449.77 Q2297.18 1449.77 2300.56 1452.94 Q2303.94 1456.12 2303.94 1461.53 Q2303.94 1467.11 2300.47 1470.21 Q2296.99 1473.29 2290.67 1473.29 Q2288.5 1473.29 2286.23 1472.92 Q2283.98 1472.55 2281.58 1471.81 L2281.58 1467.11 Q2283.66 1468.24 2285.88 1468.8 Q2288.11 1469.36 2290.58 1469.36 Q2294.59 1469.36 2296.92 1467.25 Q2299.26 1465.14 2299.26 1461.53 Q2299.26 1457.92 2296.92 1455.81 Q2294.59 1453.71 2290.58 1453.71 Q2288.71 1453.71 2286.83 1454.12 Q2284.98 1454.54 2283.04 1455.42 L2283.04 1438.06 Z" fill="#000000" fill-rule="nonzero" fill-opacity="1" /><path clip-path="url(#clip260)" d="M1306.61 1515.01 Q1306.61 1521.77 1303.7 1528.41 Q1300.83 1535.01 1296.16 1540.01 Q1291.53 1544.97 1285.26 1548.04 Q1278.98 1551.12 1272.59 1551.12 L1244.8 1551.12 Q1243.81 1551.12 1243.41 1551.08 Q1243.04 1551.04 1242.75 1550.83 Q1242.46 1550.58 1242.46 1550.09 Q1242.46 1549.31 1242.79 1548.99 Q1243.12 1548.62 1243.49 1548.58 Q1243.86 1548.54 1244.8 1548.54 Q1246.85 1548.54 1248.08 1548.41 Q1249.31 1548.29 1250.09 1548.13 Q1250.91 1547.92 1251.32 1547.35 Q1251.77 1546.77 1251.97 1546.28 Q1252.18 1545.75 1252.46 1544.56 L1263.69 1499.47 Q1264.02 1498.12 1264.02 1497.91 Q1264.02 1497.22 1263.61 1496.97 Q1263.24 1496.68 1262.18 1496.56 Q1260.13 1496.4 1258.57 1496.4 Q1257.55 1496.4 1257.14 1496.36 Q1256.77 1496.31 1256.44 1496.11 Q1256.15 1495.86 1256.15 1495.37 Q1256.15 1494.59 1256.48 1494.27 Q1256.85 1493.9 1257.26 1493.86 Q1257.67 1493.77 1258.65 1493.77 L1286.85 1493.77 Q1292.96 1493.77 1297.51 1496.64 Q1302.06 1499.47 1304.32 1504.27 Q1306.61 1509.02 1306.61 1515.01 M1299.27 1511.93 Q1299.27 1504.1 1295.01 1500.25 Q1290.79 1496.4 1284.11 1496.4 L1275.13 1496.4 Q1272.47 1496.4 1271.81 1496.89 Q1271.15 1497.34 1270.58 1499.59 L1259.06 1545.67 Q1258.65 1547.18 1258.65 1547.59 Q1258.65 1548.04 1258.86 1548.21 Q1259.1 1548.33 1259.76 1548.41 Q1260.5 1548.54 1261.6 1548.54 L1271.07 1548.54 Q1274.72 1548.54 1278.04 1547.55 Q1281.4 1546.53 1283.82 1544.93 Q1286.24 1543.29 1287.8 1541.89 Q1289.35 1540.46 1290.46 1539.03 Q1292.96 1535.79 1294.81 1531.57 Q1296.69 1527.34 1297.55 1523.49 Q1298.45 1519.6 1298.86 1516.73 Q1299.27 1513.82 1299.27 1511.93 Z" fill="#000000" fill-rule="nonzero" fill-opacity="1" /><path clip-path="url(#clip260)" d="M1314.95 1540.83 L1314.95 1539 Q1322.01 1539 1325.66 1535.24 Q1326.66 1535.24 1326.83 1535.47 Q1327 1535.7 1327 1536.76 L1327 1569.73 Q1327 1571.48 1327.87 1572.02 Q1328.73 1572.57 1332.48 1572.57 L1334.35 1572.57 L1334.35 1574.38 Q1332.28 1574.2 1324.82 1574.2 Q1317.36 1574.2 1315.33 1574.38 L1315.33 1572.57 L1317.19 1572.57 Q1320.89 1572.57 1321.78 1572.05 Q1322.67 1571.51 1322.67 1569.73 L1322.67 1539.28 Q1319.6 1540.83 1314.95 1540.83 Z" fill="#000000" fill-rule="nonzero" fill-opacity="1" /><polyline clip-path="url(#clip260)" style="stroke:#000000; stroke-linecap:round; stroke-linejoin:round; stroke-width:4; stroke-opacity:1; fill:none" points="232.826,1410.22 232.826,47.2441 "/>
<polyline clip-path="url(#clip260)" style="stroke:#000000; stroke-linecap:round; stroke-linejoin:round; stroke-width:4; stroke-opacity:1; fill:none" points="232.826,1241.5 251.724,1241.5 "/>
<polyline clip-path="url(#clip260)" style="stroke:#000000; stroke-linecap:round; stroke-linejoin:round; stroke-width:4; stroke-opacity:1; fill:none" points="232.826,952.579 251.724,952.579 "/>
<polyline clip-path="url(#clip260)" style="stroke:#000000; stroke-linecap:round; stroke-linejoin:round; stroke-width:4; stroke-opacity:1; fill:none" points="232.826,663.659 251.724,663.659 "/>
<polyline clip-path="url(#clip260)" style="stroke:#000000; stroke-linecap:round; stroke-linejoin:round; stroke-width:4; stroke-opacity:1; fill:none" points="232.826,374.739 251.724,374.739 "/>
<polyline clip-path="url(#clip260)" style="stroke:#000000; stroke-linecap:round; stroke-linejoin:round; stroke-width:4; stroke-opacity:1; fill:none" points="232.826,85.8189 251.724,85.8189 "/>
<path clip-path="url(#clip260)" d="M141.248 1227.3 Q137.637 1227.3 135.808 1230.86 Q134.003 1234.4 134.003 1241.53 Q134.003 1248.64 135.808 1252.21 Q137.637 1255.75 141.248 1255.75 Q144.882 1255.75 146.688 1252.21 Q148.516 1248.64 148.516 1241.53 Q148.516 1234.4 146.688 1230.86 Q144.882 1227.3 141.248 1227.3 M141.248 1223.59 Q147.058 1223.59 150.114 1228.2 Q153.192 1232.78 153.192 1241.53 Q153.192 1250.26 150.114 1254.87 Q147.058 1259.45 141.248 1259.45 Q135.438 1259.45 132.359 1254.87 Q129.303 1250.26 129.303 1241.53 Q129.303 1232.78 132.359 1228.2 Q135.438 1223.59 141.248 1223.59 Z" fill="#000000" fill-rule="nonzero" fill-opacity="1" /><path clip-path="url(#clip260)" d="M161.41 1252.9 L166.294 1252.9 L166.294 1258.78 L161.41 1258.78 L161.41 1252.9 Z" fill="#000000" fill-rule="nonzero" fill-opacity="1" /><path clip-path="url(#clip260)" d="M180.507 1254.84 L196.826 1254.84 L196.826 1258.78 L174.882 1258.78 L174.882 1254.84 Q177.544 1252.09 182.127 1247.46 Q186.734 1242.81 187.914 1241.46 Q190.16 1238.94 191.039 1237.21 Q191.942 1235.45 191.942 1233.76 Q191.942 1231 189.998 1229.27 Q188.076 1227.53 184.974 1227.53 Q182.775 1227.53 180.322 1228.29 Q177.891 1229.06 175.113 1230.61 L175.113 1225.89 Q177.937 1224.75 180.391 1224.17 Q182.845 1223.59 184.882 1223.59 Q190.252 1223.59 193.447 1226.28 Q196.641 1228.97 196.641 1233.46 Q196.641 1235.59 195.831 1237.51 Q195.044 1239.4 192.937 1242 Q192.359 1242.67 189.257 1245.89 Q186.155 1249.08 180.507 1254.84 Z" fill="#000000" fill-rule="nonzero" fill-opacity="1" /><path clip-path="url(#clip260)" d="M139.165 938.378 Q135.553 938.378 133.725 941.943 Q131.919 945.485 131.919 952.614 Q131.919 959.721 133.725 963.285 Q135.553 966.827 139.165 966.827 Q142.799 966.827 144.604 963.285 Q146.433 959.721 146.433 952.614 Q146.433 945.485 144.604 941.943 Q142.799 938.378 139.165 938.378 M139.165 934.674 Q144.975 934.674 148.03 939.281 Q151.109 943.864 151.109 952.614 Q151.109 961.341 148.03 965.947 Q144.975 970.531 139.165 970.531 Q133.354 970.531 130.276 965.947 Q127.22 961.341 127.22 952.614 Q127.22 943.864 130.276 939.281 Q133.354 934.674 139.165 934.674 Z" fill="#000000" fill-rule="nonzero" fill-opacity="1" /><path clip-path="url(#clip260)" d="M159.326 963.98 L164.211 963.98 L164.211 969.859 L159.326 969.859 L159.326 963.98 Z" fill="#000000" fill-rule="nonzero" fill-opacity="1" /><path clip-path="url(#clip260)" d="M187.243 939.374 L175.437 957.823 L187.243 957.823 L187.243 939.374 M186.016 935.299 L191.896 935.299 L191.896 957.823 L196.826 957.823 L196.826 961.711 L191.896 961.711 L191.896 969.859 L187.243 969.859 L187.243 961.711 L171.641 961.711 L171.641 957.198 L186.016 935.299 Z" fill="#000000" fill-rule="nonzero" fill-opacity="1" /><path clip-path="url(#clip260)" d="M139.489 649.458 Q135.878 649.458 134.049 653.023 Q132.243 656.564 132.243 663.694 Q132.243 670.8 134.049 674.365 Q135.878 677.907 139.489 677.907 Q143.123 677.907 144.928 674.365 Q146.757 670.8 146.757 663.694 Q146.757 656.564 144.928 653.023 Q143.123 649.458 139.489 649.458 M139.489 645.754 Q145.299 645.754 148.354 650.361 Q151.433 654.944 151.433 663.694 Q151.433 672.421 148.354 677.027 Q145.299 681.611 139.489 681.611 Q133.678 681.611 130.6 677.027 Q127.544 672.421 127.544 663.694 Q127.544 654.944 130.6 650.361 Q133.678 645.754 139.489 645.754 Z" fill="#000000" fill-rule="nonzero" fill-opacity="1" /><path clip-path="url(#clip260)" d="M159.651 675.06 L164.535 675.06 L164.535 680.939 L159.651 680.939 L159.651 675.06 Z" fill="#000000" fill-rule="nonzero" fill-opacity="1" /><path clip-path="url(#clip260)" d="M185.299 661.796 Q182.15 661.796 180.299 663.949 Q178.47 666.101 178.47 669.851 Q178.47 673.578 180.299 675.754 Q182.15 677.907 185.299 677.907 Q188.447 677.907 190.275 675.754 Q192.127 673.578 192.127 669.851 Q192.127 666.101 190.275 663.949 Q188.447 661.796 185.299 661.796 M194.581 647.143 L194.581 651.402 Q192.822 650.569 191.016 650.129 Q189.234 649.689 187.474 649.689 Q182.845 649.689 180.391 652.814 Q177.961 655.939 177.613 662.259 Q178.979 660.245 181.039 659.18 Q183.099 658.092 185.576 658.092 Q190.785 658.092 193.794 661.263 Q196.826 664.412 196.826 669.851 Q196.826 675.175 193.678 678.393 Q190.53 681.611 185.299 681.611 Q179.303 681.611 176.132 677.027 Q172.961 672.421 172.961 663.694 Q172.961 655.5 176.85 650.639 Q180.738 645.754 187.289 645.754 Q189.049 645.754 190.831 646.102 Q192.636 646.449 194.581 647.143 Z" fill="#000000" fill-rule="nonzero" fill-opacity="1" /><path clip-path="url(#clip260)" d="M139.743 360.538 Q136.132 360.538 134.303 364.103 Q132.498 367.644 132.498 374.774 Q132.498 381.88 134.303 385.445 Q136.132 388.987 139.743 388.987 Q143.377 388.987 145.183 385.445 Q147.012 381.88 147.012 374.774 Q147.012 367.644 145.183 364.103 Q143.377 360.538 139.743 360.538 M139.743 356.834 Q145.553 356.834 148.609 361.441 Q151.688 366.024 151.688 374.774 Q151.688 383.501 148.609 388.107 Q145.553 392.69 139.743 392.69 Q133.933 392.69 130.854 388.107 Q127.799 383.501 127.799 374.774 Q127.799 366.024 130.854 361.441 Q133.933 356.834 139.743 356.834 Z" fill="#000000" fill-rule="nonzero" fill-opacity="1" /><path clip-path="url(#clip260)" d="M159.905 386.139 L164.789 386.139 L164.789 392.019 L159.905 392.019 L159.905 386.139 Z" fill="#000000" fill-rule="nonzero" fill-opacity="1" /><path clip-path="url(#clip260)" d="M184.974 375.607 Q181.641 375.607 179.72 377.39 Q177.822 379.172 177.822 382.297 Q177.822 385.422 179.72 387.204 Q181.641 388.987 184.974 388.987 Q188.308 388.987 190.229 387.204 Q192.15 385.399 192.15 382.297 Q192.15 379.172 190.229 377.39 Q188.331 375.607 184.974 375.607 M180.299 373.616 Q177.289 372.876 175.6 370.815 Q173.933 368.755 173.933 365.792 Q173.933 361.649 176.873 359.241 Q179.836 356.834 184.974 356.834 Q190.136 356.834 193.076 359.241 Q196.016 361.649 196.016 365.792 Q196.016 368.755 194.326 370.815 Q192.66 372.876 189.674 373.616 Q193.053 374.403 194.928 376.695 Q196.826 378.987 196.826 382.297 Q196.826 387.32 193.748 390.005 Q190.692 392.69 184.974 392.69 Q179.257 392.69 176.178 390.005 Q173.123 387.32 173.123 382.297 Q173.123 378.987 175.021 376.695 Q176.919 374.403 180.299 373.616 M178.586 366.232 Q178.586 368.917 180.252 370.422 Q181.942 371.927 184.974 371.927 Q187.984 371.927 189.674 370.422 Q191.386 368.917 191.386 366.232 Q191.386 363.547 189.674 362.042 Q187.984 360.538 184.974 360.538 Q181.942 360.538 180.252 362.042 Q178.586 363.547 178.586 366.232 Z" fill="#000000" fill-rule="nonzero" fill-opacity="1" /><path clip-path="url(#clip260)" d="M130.461 99.1637 L138.1 99.1637 L138.1 72.7981 L129.79 74.4648 L129.79 70.2055 L138.053 68.5389 L142.729 68.5389 L142.729 99.1637 L150.368 99.1637 L150.368 103.099 L130.461 103.099 L130.461 99.1637 Z" fill="#000000" fill-rule="nonzero" fill-opacity="1" /><path clip-path="url(#clip260)" d="M159.813 97.2193 L164.697 97.2193 L164.697 103.099 L159.813 103.099 L159.813 97.2193 Z" fill="#000000" fill-rule="nonzero" fill-opacity="1" /><path clip-path="url(#clip260)" d="M184.882 71.6176 Q181.271 71.6176 179.442 75.1824 Q177.637 78.724 177.637 85.8536 Q177.637 92.96 179.442 96.5248 Q181.271 100.066 184.882 100.066 Q188.516 100.066 190.322 96.5248 Q192.15 92.96 192.15 85.8536 Q192.15 78.724 190.322 75.1824 Q188.516 71.6176 184.882 71.6176 M184.882 67.9139 Q190.692 67.9139 193.748 72.5203 Q196.826 77.1036 196.826 85.8536 Q196.826 94.5804 193.748 99.1869 Q190.692 103.77 184.882 103.77 Q179.072 103.77 175.993 99.1869 Q172.938 94.5804 172.938 85.8536 Q172.938 77.1036 175.993 72.5203 Q179.072 67.9139 184.882 67.9139 Z" fill="#000000" fill-rule="nonzero" fill-opacity="1" /><path clip-path="url(#clip260)" d="M64.8963 1192.96 L88.9587 1192.96 L88.9587 1200.46 L26.3317 1200.46 L26.3317 1192.96 L33.2183 1192.96 Q29.1674 1190.61 27.2229 1187.05 Q25.238 1183.44 25.238 1178.46 Q25.238 1170.2 31.8004 1165.05 Q38.3629 1159.87 49.0573 1159.87 Q59.7517 1159.87 66.3141 1165.05 Q72.8766 1170.2 72.8766 1178.46 Q72.8766 1183.44 70.9322 1187.05 Q68.9472 1190.61 64.8963 1192.96 M49.0573 1167.6 Q40.834 1167.6 36.1754 1171.01 Q31.4764 1174.37 31.4764 1180.28 Q31.4764 1186.2 36.1754 1189.6 Q40.834 1192.96 49.0573 1192.96 Q57.2806 1192.96 61.9797 1189.6 Q66.6382 1186.2 66.6382 1180.28 Q66.6382 1174.37 61.9797 1171.01 Q57.2806 1167.6 49.0573 1167.6 Z" fill="#000000" fill-rule="nonzero" fill-opacity="1" /><path clip-path="url(#clip260)" d="M33.2993 1121.22 Q32.5701 1122.48 32.246 1123.97 Q31.8815 1125.43 31.8815 1127.22 Q31.8815 1133.54 36.0134 1136.94 Q40.1048 1140.3 47.8015 1140.3 L71.7018 1140.3 L71.7018 1147.79 L26.3317 1147.79 L26.3317 1140.3 L33.3803 1140.3 Q29.2484 1137.95 27.2634 1134.18 Q25.238 1130.42 25.238 1125.03 Q25.238 1124.26 25.3595 1123.33 Q25.4405 1122.4 25.6431 1121.26 L33.2993 1121.22 Z" fill="#000000" fill-rule="nonzero" fill-opacity="1" /><path clip-path="url(#clip260)" d="M31.5574 1097.64 Q31.5574 1103.64 36.2564 1107.12 Q40.915 1110.61 49.0573 1110.61 Q57.1996 1110.61 61.8987 1107.16 Q66.5572 1103.68 66.5572 1097.64 Q66.5572 1091.69 61.8581 1088.21 Q57.1591 1084.72 49.0573 1084.72 Q40.996 1084.72 36.2969 1088.21 Q31.5574 1091.69 31.5574 1097.64 M25.238 1097.64 Q25.238 1087.92 31.5574 1082.37 Q37.8768 1076.82 49.0573 1076.82 Q60.1973 1076.82 66.5572 1082.37 Q72.8766 1087.92 72.8766 1097.64 Q72.8766 1107.41 66.5572 1112.96 Q60.1973 1118.47 49.0573 1118.47 Q37.8768 1118.47 31.5574 1112.96 Q25.238 1107.41 25.238 1097.64 Z" fill="#000000" fill-rule="nonzero" fill-opacity="1" /><path clip-path="url(#clip260)" d="M8.66978 1041.5 L14.8677 1041.5 L14.8677 1048.63 Q14.8677 1052.64 16.488 1054.22 Q18.1084 1055.76 22.3213 1055.76 L26.3317 1055.76 L26.3317 1043.48 L32.1245 1043.48 L32.1245 1055.76 L71.7018 1055.76 L71.7018 1063.25 L32.1245 1063.25 L32.1245 1070.38 L26.3317 1070.38 L26.3317 1063.25 L23.172 1063.25 Q15.5968 1063.25 12.1536 1059.73 Q8.66978 1056.2 8.66978 1048.55 L8.66978 1041.5 Z" fill="#000000" fill-rule="nonzero" fill-opacity="1" /><path clip-path="url(#clip260)" d="M26.3317 1035.26 L26.3317 1027.81 L71.7018 1027.81 L71.7018 1035.26 L26.3317 1035.26 M8.66978 1035.26 L8.66978 1027.81 L18.1084 1027.81 L18.1084 1035.26 L8.66978 1035.26 Z" fill="#000000" fill-rule="nonzero" fill-opacity="1" /><path clip-path="url(#clip260)" d="M8.66978 1012.21 L8.66978 1004.76 L71.7018 1004.76 L71.7018 1012.21 L8.66978 1012.21 Z" fill="#000000" fill-rule="nonzero" fill-opacity="1" /><path clip-path="url(#clip260)" d="M47.1534 950.353 L50.7992 950.353 L50.7992 984.624 Q58.4959 984.138 62.5468 980.006 Q66.5572 975.833 66.5572 968.42 Q66.5572 964.126 65.504 960.116 Q64.4507 956.065 62.3443 952.095 L69.3928 952.095 Q71.0942 956.105 71.9854 960.318 Q72.8766 964.531 72.8766 968.866 Q72.8766 979.722 66.5572 986.082 Q60.2378 992.402 49.4624 992.402 Q38.3224 992.402 31.8004 986.406 Q25.238 980.37 25.238 970.162 Q25.238 961.007 31.1523 955.7 Q37.0261 950.353 47.1534 950.353 M44.9659 957.807 Q38.849 957.888 35.2032 961.25 Q31.5574 964.572 31.5574 970.081 Q31.5574 976.319 35.0817 980.087 Q38.606 983.814 45.0064 984.381 L44.9659 957.807 Z" fill="#000000" fill-rule="nonzero" fill-opacity="1" /><path clip-path="url(#clip260)" d="M8.66978 911.748 L8.66978 904.294 L71.7018 904.294 L71.7018 911.748 L8.66978 911.748 Z" fill="#000000" fill-rule="nonzero" fill-opacity="1" /><path clip-path="url(#clip260)" d="M26.3317 888.698 L26.3317 881.245 L71.7018 881.245 L71.7018 888.698 L26.3317 888.698 M8.66978 888.698 L8.66978 881.245 L18.1084 881.245 L18.1084 888.698 L8.66978 888.698 Z" fill="#000000" fill-rule="nonzero" fill-opacity="1" /><path clip-path="url(#clip260)" d="M8.66978 865.932 L8.66978 858.438 L45.8976 858.438 L26.3317 836.199 L26.3317 826.679 L47.5585 850.741 L71.7018 825.666 L71.7018 835.389 L49.5434 858.438 L71.7018 858.438 L71.7018 865.932 L8.66978 865.932 Z" fill="#000000" fill-rule="nonzero" fill-opacity="1" /><path clip-path="url(#clip260)" d="M47.1534 781.755 L50.7992 781.755 L50.7992 816.025 Q58.4959 815.539 62.5468 811.407 Q66.5572 807.235 66.5572 799.822 Q66.5572 795.528 65.504 791.517 Q64.4507 787.466 62.3443 783.496 L69.3928 783.496 Q71.0942 787.507 71.9854 791.72 Q72.8766 795.933 72.8766 800.267 Q72.8766 811.124 66.5572 817.484 Q60.2378 823.803 49.4624 823.803 Q38.3224 823.803 31.8004 817.808 Q25.238 811.772 25.238 801.563 Q25.238 792.408 31.1523 787.102 Q37.0261 781.755 47.1534 781.755 M44.9659 789.208 Q38.849 789.289 35.2032 792.652 Q31.5574 795.973 31.5574 801.482 Q31.5574 807.721 35.0817 811.488 Q38.606 815.215 45.0064 815.782 L44.9659 789.208 Z" fill="#000000" fill-rule="nonzero" fill-opacity="1" /><path clip-path="url(#clip260)" d="M8.66978 769.521 L8.66978 762.067 L71.7018 762.067 L71.7018 769.521 L8.66978 769.521 Z" fill="#000000" fill-rule="nonzero" fill-opacity="1" /><path clip-path="url(#clip260)" d="M26.3317 746.471 L26.3317 739.018 L71.7018 739.018 L71.7018 746.471 L26.3317 746.471 M8.66978 746.471 L8.66978 739.018 L18.1084 739.018 L18.1084 746.471 L8.66978 746.471 Z" fill="#000000" fill-rule="nonzero" fill-opacity="1" /><path clip-path="url(#clip260)" d="M44.3177 685.708 L71.7018 685.708 L71.7018 693.161 L44.5608 693.161 Q38.1198 693.161 34.9196 695.673 Q31.7194 698.184 31.7194 703.208 Q31.7194 709.243 35.5678 712.727 Q39.4161 716.211 46.0596 716.211 L71.7018 716.211 L71.7018 723.705 L8.66978 723.705 L8.66978 716.211 L33.3803 716.211 Q29.2889 713.537 27.2634 709.932 Q25.238 706.286 25.238 701.547 Q25.238 693.728 30.0991 689.718 Q34.9196 685.708 44.3177 685.708 Z" fill="#000000" fill-rule="nonzero" fill-opacity="1" /><path clip-path="url(#clip260)" d="M31.5574 653.26 Q31.5574 659.255 36.2564 662.739 Q40.915 666.223 49.0573 666.223 Q57.1996 666.223 61.8987 662.78 Q66.5572 659.296 66.5572 653.26 Q66.5572 647.305 61.8581 643.821 Q57.1591 640.338 49.0573 640.338 Q40.996 640.338 36.2969 643.821 Q31.5574 647.305 31.5574 653.26 M25.238 653.26 Q25.238 643.538 31.5574 637.988 Q37.8768 632.438 49.0573 632.438 Q60.1973 632.438 66.5572 637.988 Q72.8766 643.538 72.8766 653.26 Q72.8766 663.023 66.5572 668.572 Q60.1973 674.082 49.0573 674.082 Q37.8768 674.082 31.5574 668.572 Q25.238 663.023 25.238 653.26 Z" fill="#000000" fill-rule="nonzero" fill-opacity="1" /><path clip-path="url(#clip260)" d="M31.5574 602.502 Q31.5574 608.497 36.2564 611.981 Q40.915 615.465 49.0573 615.465 Q57.1996 615.465 61.8987 612.022 Q66.5572 608.538 66.5572 602.502 Q66.5572 596.547 61.8581 593.063 Q57.1591 589.58 49.0573 589.58 Q40.996 589.58 36.2969 593.063 Q31.5574 596.547 31.5574 602.502 M25.238 602.502 Q25.238 592.78 31.5574 587.23 Q37.8768 581.68 49.0573 581.68 Q60.1973 581.68 66.5572 587.23 Q72.8766 592.78 72.8766 602.502 Q72.8766 612.265 66.5572 617.814 Q60.1973 623.324 49.0573 623.324 Q37.8768 623.324 31.5574 617.814 Q25.238 612.265 25.238 602.502 Z" fill="#000000" fill-rule="nonzero" fill-opacity="1" /><path clip-path="url(#clip260)" d="M33.2183 539.47 L8.66978 539.47 L8.66978 532.016 L71.7018 532.016 L71.7018 539.47 L64.8963 539.47 Q68.9472 541.82 70.9322 545.425 Q72.8766 548.99 72.8766 554.013 Q72.8766 562.236 66.3141 567.421 Q59.7517 572.566 49.0573 572.566 Q38.3629 572.566 31.8004 567.421 Q25.238 562.236 25.238 554.013 Q25.238 548.99 27.2229 545.425 Q29.1674 541.82 33.2183 539.47 M49.0573 564.869 Q57.2806 564.869 61.9797 561.507 Q66.6382 558.104 66.6382 552.19 Q66.6382 546.276 61.9797 542.873 Q57.2806 539.47 49.0573 539.47 Q40.834 539.47 36.1754 542.873 Q31.4764 546.276 31.4764 552.19 Q31.4764 558.104 36.1754 561.507 Q40.834 564.869 49.0573 564.869 Z" fill="#000000" fill-rule="nonzero" fill-opacity="1" /><path clip-path="url(#clip260)" d="M8.66978 467.323 L14.8677 467.323 L14.8677 474.453 Q14.8677 478.463 16.488 480.043 Q18.1084 481.583 22.3213 481.583 L26.3317 481.583 L26.3317 469.308 L32.1245 469.308 L32.1245 481.583 L71.7018 481.583 L71.7018 489.077 L32.1245 489.077 L32.1245 496.206 L26.3317 496.206 L26.3317 489.077 L23.172 489.077 Q15.5968 489.077 12.1536 485.552 Q8.66978 482.028 8.66978 474.372 L8.66978 467.323 Z" fill="#000000" fill-rule="nonzero" fill-opacity="1" /><path clip-path="url(#clip260)" d="M31.5574 443.504 Q31.5574 449.499 36.2564 452.983 Q40.915 456.467 49.0573 456.467 Q57.1996 456.467 61.8987 453.024 Q66.5572 449.54 66.5572 443.504 Q66.5572 437.549 61.8581 434.065 Q57.1591 430.582 49.0573 430.582 Q40.996 430.582 36.2969 434.065 Q31.5574 437.549 31.5574 443.504 M25.238 443.504 Q25.238 433.782 31.5574 428.232 Q37.8768 422.682 49.0573 422.682 Q60.1973 422.682 66.5572 428.232 Q72.8766 433.782 72.8766 443.504 Q72.8766 453.267 66.5572 458.816 Q60.1973 464.326 49.0573 464.326 Q37.8768 464.326 31.5574 458.816 Q25.238 453.267 25.238 443.504 Z" fill="#000000" fill-rule="nonzero" fill-opacity="1" /><path clip-path="url(#clip260)" d="M33.2993 384.037 Q32.5701 385.293 32.246 386.791 Q31.8815 388.25 31.8815 390.032 Q31.8815 396.352 36.0134 399.754 Q40.1048 403.117 47.8015 403.117 L71.7018 403.117 L71.7018 410.611 L26.3317 410.611 L26.3317 403.117 L33.3803 403.117 Q29.2484 400.767 27.2634 397 Q25.238 393.232 25.238 387.845 Q25.238 387.075 25.3595 386.143 Q25.4405 385.212 25.6431 384.077 L33.2993 384.037 Z" fill="#000000" fill-rule="nonzero" fill-opacity="1" /><path clip-path="url(#clip260)" d="M35.5903 293.517 Q42.3535 293.517 48.9938 296.427 Q55.5931 299.297 60.5938 303.969 Q65.5535 308.601 68.6276 314.873 Q71.7018 321.144 71.7018 327.538 L71.7018 355.329 Q71.7018 356.313 71.6609 356.723 Q71.6199 357.092 71.4149 357.378 Q71.169 357.665 70.6771 357.665 Q69.8983 357.665 69.5704 357.337 Q69.2015 357.01 69.1605 356.641 Q69.1195 356.272 69.1195 355.329 Q69.1195 353.28 68.9966 352.05 Q68.8736 350.82 68.7096 350.041 Q68.5047 349.222 67.9308 348.812 Q67.357 348.361 66.8651 348.156 Q66.3322 347.951 65.1436 347.664 L20.0554 336.433 Q18.7027 336.105 18.4978 336.105 Q17.8009 336.105 17.555 336.515 Q17.2681 336.884 17.1451 337.95 Q16.9812 339.999 16.9812 341.557 Q16.9812 342.581 16.9402 342.991 Q16.8992 343.36 16.6942 343.688 Q16.4483 343.975 15.9564 343.975 Q15.1776 343.975 14.8497 343.647 Q14.4808 343.278 14.4398 342.868 Q14.3578 342.458 14.3578 341.475 L14.3578 313.274 Q14.3578 307.167 17.2271 302.617 Q20.0554 298.067 24.8511 295.813 Q29.6059 293.517 35.5903 293.517 M32.5161 300.854 Q24.6871 300.854 20.8342 305.117 Q16.9812 309.339 16.9812 316.02 L16.9812 324.997 Q16.9812 327.661 17.473 328.317 Q17.9239 328.973 20.1783 329.547 L66.2503 341.065 Q67.7669 341.475 68.1768 341.475 Q68.6276 341.475 68.7916 341.27 Q68.9146 341.024 68.9966 340.368 Q69.1195 339.63 69.1195 338.523 L69.1195 329.055 Q69.1195 325.407 68.1358 322.087 Q67.111 318.726 65.5125 316.307 Q63.8729 313.889 62.4793 312.331 Q61.0446 310.774 59.61 309.667 Q56.3719 307.167 52.15 305.322 Q47.9281 303.437 44.0751 302.576 Q40.1811 301.674 37.3118 301.264 Q34.4016 300.854 32.5161 300.854 Z" fill="#000000" fill-rule="nonzero" fill-opacity="1" /><path clip-path="url(#clip260)" d="M61.4178 285.174 L59.5815 285.174 Q59.5815 278.116 55.8228 274.472 Q55.8228 273.468 56.0523 273.295 Q56.2819 273.123 57.3435 273.123 L90.3112 273.123 Q92.0614 273.123 92.6066 272.263 Q93.1517 271.402 93.1517 267.643 L93.1517 265.778 L94.9593 265.778 Q94.7872 267.844 94.7872 275.304 Q94.7872 282.764 94.9593 284.801 L93.1517 284.801 L93.1517 282.936 Q93.1517 279.235 92.6353 278.345 Q92.0901 277.456 90.3112 277.456 L59.8684 277.456 Q61.4178 280.526 61.4178 285.174 Z" fill="#000000" fill-rule="nonzero" fill-opacity="1" /><polyline clip-path="url(#clip262)" style="stroke:#000000; stroke-linecap:round; stroke-linejoin:round; stroke-width:8; stroke-opacity:1; fill:none" points="292.824,1371.65 296.832,1185.4 300.84,955.278 304.848,721.878 308.856,515.327 312.864,350.472 316.872,230.287 320.879,150.931 324.887,105.664 328.895,87.2409 332.903,85.8189 336.911,85.8189 340.919,85.8189 344.927,85.8189 348.935,85.8189 352.943,85.8189 356.95,85.8189 360.958,85.8189 364.966,85.8189 368.974,85.8189 372.982,85.819 376.99,85.8189 380.998,85.8192 385.006,85.8189 389.013,85.8189 393.021,85.8189 397.029,85.8195 401.037,85.8189 405.045,85.8189 409.053,85.8189 413.061,85.8191 417.069,85.8189 421.077,85.8192 425.084,85.819 429.092,85.8189 433.1,85.8189 437.108,85.819 441.116,85.8189 445.124,85.8189 449.132,85.8189 453.14,85.8189 457.147,85.8189 461.155,85.8189 465.163,85.8189 469.171,85.8189 473.179,85.8189 477.187,85.8189 481.195,85.8189 485.203,85.8189 489.211,85.8189 493.218,85.8189 497.226,85.8191 501.234,85.8208 505.242,85.8189 509.25,85.8189 513.258,85.8189 517.266,85.8189 521.274,85.8189 525.281,85.8189 529.289,85.8189 533.297,85.8189 537.305,85.8189 541.313,85.8189 545.321,85.8189 549.329,85.8189 553.337,85.819 557.345,85.8189 561.352,85.8189 565.36,85.8189 569.368,85.8189 573.376,85.8189 577.384,85.8189 581.392,85.8189 585.4,85.8189 589.408,85.8189 593.416,85.8189 597.423,85.8189 601.431,85.8189 605.439,85.8189 609.447,85.8189 613.455,85.8189 617.463,85.8189 621.471,85.8189 625.479,85.8189 629.486,85.8189 633.494,85.8189 637.502,85.8189 641.51,85.8189 645.518,85.8189 649.526,85.8189 653.534,85.8189 657.542,85.8189 661.55,85.8189 665.557,85.8189 669.565,85.8189 673.573,85.8189 677.581,85.8189 681.589,85.8189 685.597,85.8189 689.605,85.8189 693.613,85.8189 697.62,85.8189 701.628,85.8189 705.636,85.8189 709.644,85.8189 713.652,85.8189 717.66,85.8189 721.668,85.8189 725.676,85.8189 729.684,85.8189 733.691,85.8189 737.699,85.8189 741.707,85.8189 745.715,85.8189 749.723,85.8189 753.731,85.8189 757.739,85.8189 761.747,85.8189 765.754,85.8189 769.762,85.8189 773.77,85.8189 777.778,85.8191 781.786,85.8189 785.794,85.8191 789.802,85.8189 793.81,85.8189 797.818,85.8189 801.825,85.819 805.833,85.8189 809.841,85.8189 813.849,85.8189 817.857,85.8189 821.865,85.8189 825.873,85.8189 829.881,85.8189 833.888,85.8189 837.896,85.8189 841.904,85.8189 845.912,85.8189 849.92,85.819 853.928,85.8189 857.936,85.8189 861.944,85.8189 865.952,85.8189 869.959,85.8189 873.967,85.8189 877.975,85.8189 881.983,85.8189 885.991,85.8189 889.999,85.8189 894.007,85.8189 898.015,85.8192 902.022,85.8189 906.03,85.8189 910.038,85.8189 914.046,85.8189 918.054,85.8189 922.062,85.8189 926.07,85.8189 930.078,85.8189 934.086,85.8189 938.093,85.8189 942.101,85.8189 946.109,85.8189 950.117,85.8189 954.125,85.8189 958.133,85.8189 962.141,85.8189 966.149,85.8189 970.157,85.8189 974.164,85.8189 978.172,85.8189 982.18,85.8189 986.188,85.8189 990.196,85.8189 994.204,85.8189 998.212,85.8189 1002.22,85.8189 1006.23,85.8189 1010.24,85.8189 1014.24,85.8189 1018.25,85.8189 1022.26,85.8189 1026.27,85.8189 1030.27,85.8189 1034.28,85.8189 1038.29,85.8189 1042.3,85.8189 1046.31,85.819 1050.31,85.8191 1054.32,85.8189 1058.33,85.8189 1062.34,85.8189 1066.35,85.8189 1070.35,85.8189 1074.36,85.8189 1078.37,85.8201 1082.38,85.8189 1086.39,85.8189 1090.39,85.8189 1094.4,85.8189 1098.41,85.8189 1102.42,85.8189 1106.42,85.8189 1110.43,85.8189 1114.44,85.8189 1118.45,85.8189 1122.46,85.8189 1126.46,85.8189 1130.47,85.8189 1134.48,85.8189 1138.49,85.8189 1142.5,85.8189 1146.5,85.819 1150.51,85.8189 1154.52,85.8189 1158.53,85.8189 1162.53,85.8189 1166.54,85.8189 1170.55,85.8189 1174.56,85.8189 1178.57,85.8189 1182.57,85.8189 1186.58,85.819 1190.59,85.8189 1194.6,85.8189 1198.61,85.8189 1202.61,85.8189 1206.62,85.8189 1210.63,85.8189 1214.64,85.8189 1218.65,85.8189 1222.65,85.8189 1226.66,85.8189 1230.67,85.8189 1234.68,85.8189 1238.68,85.8189 1242.69,85.8189 1246.7,85.8189 1250.71,85.8189 1254.72,85.8191 1258.72,85.8189 1262.73,85.8189 1266.74,85.8189 1270.75,85.8189 1274.76,85.8191 1278.76,85.8189 1282.77,85.8189 1286.78,85.8189 1290.79,85.8189 1294.8,85.8189 1298.8,85.8189 1302.81,85.8189 1306.82,85.8189 1310.83,85.8189 1314.83,85.8189 1318.84,85.8189 1322.85,85.8189 1326.86,85.8189 1330.87,85.8189 1334.87,85.8189 1338.88,85.8189 1342.89,85.8189 1346.9,85.8189 1350.91,85.8189 1354.91,85.8189 1358.92,85.8189 1362.93,85.8189 1366.94,85.8189 1370.94,85.8189 1374.95,85.819 1378.96,85.8189 1382.97,85.8189 1386.98,85.8189 1390.98,85.8189 1394.99,85.8189 1399,85.8189 1403.01,85.8189 1407.02,85.8189 1411.02,85.8193 1415.03,85.8189 1419.04,85.8189 1423.05,85.8189 1427.06,85.8189 1431.06,85.819 1435.07,85.8189 1439.08,85.8189 1443.09,85.8189 1447.09,85.8189 1451.1,85.8189 1455.11,85.8189 1459.12,85.8189 1463.13,85.8189 1467.13,85.8189 1471.14,85.8189 1475.15,85.8189 1479.16,85.8189 1483.17,85.8189 1487.17,85.8189 1491.18,85.8189 1495.19,85.8189 1499.2,85.8189 1503.2,85.8189 1507.21,85.8189 1511.22,85.8189 1515.23,85.8189 1519.24,85.8189 1523.24,85.8189 1527.25,85.8189 1531.26,85.8189 1535.27,85.8189 1539.28,85.8189 1543.28,85.8189 1547.29,85.8189 1551.3,85.8191 1555.31,85.8189 1559.32,85.8189 1563.32,85.8189 1567.33,85.8189 1571.34,85.8189 1575.35,85.8189 1579.35,85.819 1583.36,85.8189 1587.37,85.8189 1591.38,85.8189 1595.39,85.8189 1599.39,85.8189 1603.4,85.8189 1607.41,85.819 1611.42,85.8189 1615.43,85.8189 1619.43,85.8189 1623.44,85.8189 1627.45,85.8189 1631.46,85.8189 1635.47,85.8189 1639.47,85.8189 1643.48,85.8189 1647.49,85.8189 1651.5,85.8191 1655.5,85.8189 1659.51,85.8189 1663.52,85.8189 1667.53,85.8189 1671.54,85.8189 1675.54,85.8189 1679.55,85.8189 1683.56,85.8189 1687.57,85.8189 1691.58,85.8189 1695.58,85.8189 1699.59,85.8189 1703.6,85.8189 1707.61,85.819 1711.61,85.8189 1715.62,85.8189 1719.63,85.8189 1723.64,85.8189 1727.65,85.8189 1731.65,85.8189 1735.66,85.8189 1739.67,85.8189 1743.68,85.8192 1747.69,85.8189 1751.69,85.819 1755.7,85.8189 1759.71,85.8189 1763.72,85.8189 1767.73,85.8189 1771.73,85.8189 1775.74,85.8189 1779.75,85.819 1783.76,85.8189 1787.76,85.8189 1791.77,85.8189 1795.78,85.8189 1799.79,85.8189 1803.8,85.819 1807.8,85.8189 1811.81,85.8189 1815.82,85.8189 1819.83,85.8189 1823.84,85.8189 1827.84,85.8189 1831.85,85.8189 1835.86,85.8189 1839.87,85.8189 1843.87,85.8189 1847.88,85.8189 1851.89,85.8189 1855.9,85.8189 1859.91,85.8189 1863.91,85.8189 1867.92,85.8189 1871.93,85.8189 1875.94,85.8189 1879.95,85.8189 1883.95,85.8189 1887.96,85.8191 1891.97,85.8189 1895.98,85.8189 1899.99,85.8189 1903.99,85.8189 1908,85.8189 1912.01,85.8189 1916.02,85.8189 1920.02,85.8189 1924.03,85.8189 1928.04,85.8189 1932.05,85.8189 1936.06,85.8189 1940.06,85.8189 1944.07,85.8189 1948.08,85.8189 1952.09,85.8189 1956.1,85.8189 1960.1,85.819 1964.11,85.8189 1968.12,85.8189 1972.13,85.8189 1976.14,85.8191 1980.14,85.8189 1984.15,85.8189 1988.16,85.8189 1992.17,85.8189 1996.17,85.8189 2000.18,85.8189 2004.19,85.8189 2008.2,85.8189 2012.21,85.8189 2016.21,85.8189 2020.22,85.8194 2024.23,85.819 2028.24,85.8189 2032.25,85.8189 2036.25,85.8189 2040.26,85.8189 2044.27,85.8189 2048.28,85.8189 2052.28,85.8189 2056.29,85.8189 2060.3,85.8189 2064.31,85.8189 2068.32,85.8193 2072.32,85.8189 2076.33,85.8189 2080.34,85.8189 2084.35,85.8189 2088.36,85.8189 2092.36,85.8189 2096.37,85.819 2100.38,85.819 2104.39,85.8189 2108.4,85.8191 2112.4,85.8189 2116.41,85.8189 2120.42,85.8189 2124.43,85.819 2128.43,85.8189 2132.44,85.8189 2136.45,85.8189 2140.46,85.8189 2144.47,85.819 2148.47,85.8189 2152.48,85.8193 2156.49,85.8189 2160.5,85.8191 2164.51,85.8189 2168.51,85.8189 2172.52,85.8189 2176.53,85.8191 2180.54,85.8189 2184.55,85.8189 2188.55,85.8189 2192.56,85.8189 2196.57,85.8189 2200.58,85.8189 2204.58,85.8189 2208.59,85.8189 2212.6,85.8189 2216.61,85.8189 2220.62,85.8189 2224.62,85.8189 2228.63,85.8189 2232.64,85.8189 2236.65,85.8189 2240.66,85.8189 2244.66,85.82 2248.67,85.8189 2252.68,85.819 2256.69,85.8189 2260.69,85.8189 2264.7,85.8189 2268.71,85.8189 2272.72,85.8189 2276.73,85.8189 2280.73,85.8189 2284.74,85.8189 2288.75,85.8189 2292.76,85.8189 "/>
<polyline clip-path="url(#clip262)" style="stroke:#000000; stroke-linecap:round; stroke-linejoin:round; stroke-width:8; stroke-opacity:1; fill:none" points="1262.73,2773.2 1262.73,-1315.73 "/>
<polyline clip-path="url(#clip262)" style="stroke:#000000; stroke-linecap:round; stroke-linejoin:round; stroke-width:4; stroke-opacity:1; fill:none" points="-1887.1,1318.79 4472.69,1318.79 "/>
<polyline clip-path="url(#clip262)" style="stroke:#000000; stroke-linecap:round; stroke-linejoin:round; stroke-width:8; stroke-opacity:1; fill:none" stroke-dasharray="32, 20" points="1476.46,2773.2 1476.46,-1315.73 "/>
</svg>
