<?xml version="1.0" encoding="utf-8"?>
<svg xmlns="http://www.w3.org/2000/svg" xmlns:xlink="http://www.w3.org/1999/xlink" width="600" height="400" viewBox="0 0 2400 1600">
<defs>
  <clipPath id="clip840">
    <rect x="0" y="0" width="2400" height="1600"/>
  </clipPath>
</defs>
<path clip-path="url(#clip840)" d="M0 1600 L2400 1600 L2400 0 L0 0  Z" fill="#ffffff" fill-rule="evenodd" fill-opacity="1"/>
<defs>
  <clipPath id="clip841">
    <rect x="480" y="0" width="1681" height="1600"/>
  </clipPath>
</defs>
<defs>
  <clipPath id="clip842">
    <rect x="232" y="47" width="2121" height="1364"/>
  </clipPath>
</defs>
<path clip-path="url(#clip840)" d="M232.826 1410.22 L2352.76 1410.22 L2352.76 47.2441 L232.826 47.2441  Z" fill="#ffffff" fill-rule="evenodd" fill-opacity="1"/>
<polyline clip-path="url(#clip842)" style="stroke:#000000; stroke-linecap:round; stroke-linejoin:round; stroke-width:2; stroke-opacity:0.1; fill:none" points="292.824,1410.22 292.824,47.2441 "/>
<polyline clip-path="url(#clip842)" style="stroke:#000000; stroke-linecap:round; stroke-linejoin:round; stroke-width:2; stroke-opacity:0.1; fill:none" points="792.808,1410.22 792.808,47.2441 "/>
<polyline clip-path="url(#clip842)" style="stroke:#000000; stroke-linecap:round; stroke-linejoin:round; stroke-width:2; stroke-opacity:0.1; fill:none" points="1292.79,1410.22 1292.79,47.2441 "/>
<polyline clip-path="url(#clip842)" style="stroke:#000000; stroke-linecap:round; stroke-linejoin:round; stroke-width:2; stroke-opacity:0.1; fill:none" points="1792.77,1410.22 1792.77,47.2441 "/>
<polyline clip-path="url(#clip842)" style="stroke:#000000; stroke-linecap:round; stroke-linejoin:round; stroke-width:2; stroke-opacity:0.1; fill:none" points="2292.76,1410.22 2292.76,47.2441 "/>
<polyline clip-path="url(#clip840)" style="stroke:#000000; stroke-linecap:round; stroke-linejoin:round; stroke-width:4; stroke-opacity:1; fill:none" points="232.826,1410.22 2352.76,1410.22 "/>
<polyline clip-path="url(#clip840)" style="stroke:#000000; stroke-linecap:round; stroke-linejoin:round; stroke-width:4; stroke-opacity:1; fill:none" points="292.824,1410.22 292.824,1391.32 "/>
<polyline clip-path="url(#clip840)" style="stroke:#000000; stroke-linecap:round; stroke-linejoin:round; stroke-width:4; stroke-opacity:1; fill:none" points="792.808,1410.22 792.808,1391.32 "/>
<polyline clip-path="url(#clip840)" style="stroke:#000000; stroke-linecap:round; stroke-linejoin:round; stroke-width:4; stroke-opacity:1; fill:none" points="1292.79,1410.22 1292.79,1391.32 "/>
<polyline clip-path="url(#clip840)" style="stroke:#000000; stroke-linecap:round; stroke-linejoin:round; stroke-width:4; stroke-opacity:1; fill:none" points="1792.77,1410.22 1792.77,1391.32 "/>
<polyline clip-path="url(#clip840)" style="stroke:#000000; stroke-linecap:round; stroke-linejoin:round; stroke-width:4; stroke-opacity:1; fill:none" points="2292.76,1410.22 2292.76,1391.32 "/>
<path clip-path="url(#clip840)" d="M292.824 1441.14 Q289.213 1441.14 287.384 1444.7 Q285.579 1448.24 285.579 1455.37 Q285.579 1462.48 287.384 1466.05 Q289.213 1469.59 292.824 1469.59 Q296.458 1469.59 298.264 1466.05 Q300.093 1462.48 300.093 1455.37 Q300.093 1448.24 298.264 1444.7 Q296.458 1441.14 292.824 1441.14 M292.824 1437.43 Q298.634 1437.43 301.69 1442.04 Q304.769 1446.62 304.769 1455.37 Q304.769 1464.1 301.69 1468.71 Q298.634 1473.29 292.824 1473.29 Q287.014 1473.29 283.935 1468.71 Q280.88 1464.1 280.88 1455.37 Q280.88 1446.62 283.935 1442.04 Q287.014 1437.43 292.824 1437.43 Z" fill="#000000" fill-rule="nonzero" fill-opacity="1" /><path clip-path="url(#clip840)" d="M756.5 1468.68 L772.819 1468.68 L772.819 1472.62 L750.875 1472.62 L750.875 1468.68 Q753.537 1465.93 758.12 1461.3 Q762.727 1456.65 763.907 1455.31 Q766.153 1452.78 767.032 1451.05 Q767.935 1449.29 767.935 1447.6 Q767.935 1444.84 765.991 1443.11 Q764.069 1441.37 760.968 1441.37 Q758.768 1441.37 756.315 1442.13 Q753.884 1442.9 751.106 1444.45 L751.106 1439.73 Q753.931 1438.59 756.384 1438.01 Q758.838 1437.43 760.875 1437.43 Q766.245 1437.43 769.44 1440.12 Q772.634 1442.81 772.634 1447.3 Q772.634 1449.43 771.824 1451.35 Q771.037 1453.24 768.93 1455.84 Q768.352 1456.51 765.25 1459.73 Q762.148 1462.92 756.5 1468.68 Z" fill="#000000" fill-rule="nonzero" fill-opacity="1" /><path clip-path="url(#clip840)" d="M782.68 1438.06 L801.037 1438.06 L801.037 1442 L786.963 1442 L786.963 1450.47 Q787.981 1450.12 789 1449.96 Q790.018 1449.77 791.037 1449.77 Q796.824 1449.77 800.203 1452.94 Q803.583 1456.12 803.583 1461.53 Q803.583 1467.11 800.111 1470.21 Q796.639 1473.29 790.319 1473.29 Q788.143 1473.29 785.875 1472.92 Q783.629 1472.55 781.222 1471.81 L781.222 1467.11 Q783.305 1468.24 785.528 1468.8 Q787.75 1469.36 790.227 1469.36 Q794.231 1469.36 796.569 1467.25 Q798.907 1465.14 798.907 1461.53 Q798.907 1457.92 796.569 1455.81 Q794.231 1453.71 790.227 1453.71 Q788.352 1453.71 786.477 1454.12 Q784.625 1454.54 782.68 1455.42 L782.68 1438.06 Z" fill="#000000" fill-rule="nonzero" fill-opacity="1" /><path clip-path="url(#clip840)" d="M822.796 1441.14 Q819.185 1441.14 817.356 1444.7 Q815.551 1448.24 815.551 1455.37 Q815.551 1462.48 817.356 1466.05 Q819.185 1469.59 822.796 1469.59 Q826.43 1469.59 828.236 1466.05 Q830.064 1462.48 830.064 1455.37 Q830.064 1448.24 828.236 1444.7 Q826.43 1441.14 822.796 1441.14 M822.796 1437.43 Q828.606 1437.43 831.662 1442.04 Q834.74 1446.62 834.74 1455.37 Q834.74 1464.1 831.662 1468.71 Q828.606 1473.29 822.796 1473.29 Q816.986 1473.29 813.907 1468.71 Q810.852 1464.1 810.852 1455.37 Q810.852 1446.62 813.907 1442.04 Q816.986 1437.43 822.796 1437.43 Z" fill="#000000" fill-rule="nonzero" fill-opacity="1" /><path clip-path="url(#clip840)" d="M1252.41 1438.06 L1270.77 1438.06 L1270.77 1442 L1256.69 1442 L1256.69 1450.47 Q1257.71 1450.12 1258.73 1449.96 Q1259.75 1449.77 1260.77 1449.77 Q1266.55 1449.77 1269.93 1452.94 Q1273.31 1456.12 1273.31 1461.53 Q1273.31 1467.11 1269.84 1470.21 Q1266.37 1473.29 1260.05 1473.29 Q1257.87 1473.29 1255.6 1472.92 Q1253.36 1472.55 1250.95 1471.81 L1250.95 1467.11 Q1253.03 1468.24 1255.26 1468.8 Q1257.48 1469.36 1259.96 1469.36 Q1263.96 1469.36 1266.3 1467.25 Q1268.64 1465.14 1268.64 1461.53 Q1268.64 1457.92 1266.3 1455.81 Q1263.96 1453.71 1259.96 1453.71 Q1258.08 1453.71 1256.21 1454.12 Q1254.35 1454.54 1252.41 1455.42 L1252.41 1438.06 Z" fill="#000000" fill-rule="nonzero" fill-opacity="1" /><path clip-path="url(#clip840)" d="M1292.52 1441.14 Q1288.91 1441.14 1287.09 1444.7 Q1285.28 1448.24 1285.28 1455.37 Q1285.28 1462.48 1287.09 1466.05 Q1288.91 1469.59 1292.52 1469.59 Q1296.16 1469.59 1297.96 1466.05 Q1299.79 1462.48 1299.79 1455.37 Q1299.79 1448.24 1297.96 1444.7 Q1296.16 1441.14 1292.52 1441.14 M1292.52 1437.43 Q1298.34 1437.43 1301.39 1442.04 Q1304.47 1446.62 1304.47 1455.37 Q1304.47 1464.1 1301.39 1468.71 Q1298.34 1473.29 1292.52 1473.29 Q1286.71 1473.29 1283.64 1468.71 Q1280.58 1464.1 1280.58 1455.37 Q1280.58 1446.62 1283.64 1442.04 Q1286.71 1437.43 1292.52 1437.43 Z" fill="#000000" fill-rule="nonzero" fill-opacity="1" /><path clip-path="url(#clip840)" d="M1322.69 1441.14 Q1319.08 1441.14 1317.25 1444.7 Q1315.44 1448.24 1315.44 1455.37 Q1315.44 1462.48 1317.25 1466.05 Q1319.08 1469.59 1322.69 1469.59 Q1326.32 1469.59 1328.13 1466.05 Q1329.96 1462.48 1329.96 1455.37 Q1329.96 1448.24 1328.13 1444.7 Q1326.32 1441.14 1322.69 1441.14 M1322.69 1437.43 Q1328.5 1437.43 1331.55 1442.04 Q1334.63 1446.62 1334.63 1455.37 Q1334.63 1464.1 1331.55 1468.71 Q1328.5 1473.29 1322.69 1473.29 Q1316.88 1473.29 1313.8 1468.71 Q1310.74 1464.1 1310.74 1455.37 Q1310.74 1446.62 1313.8 1442.04 Q1316.88 1437.43 1322.69 1437.43 Z" fill="#000000" fill-rule="nonzero" fill-opacity="1" /><path clip-path="url(#clip840)" d="M1751.05 1438.06 L1773.27 1438.06 L1773.27 1440.05 L1760.73 1472.62 L1755.84 1472.62 L1767.65 1442 L1751.05 1442 L1751.05 1438.06 Z" fill="#000000" fill-rule="nonzero" fill-opacity="1" /><path clip-path="url(#clip840)" d="M1782.44 1438.06 L1800.8 1438.06 L1800.8 1442 L1786.72 1442 L1786.72 1450.47 Q1787.74 1450.12 1788.76 1449.96 Q1789.78 1449.77 1790.8 1449.77 Q1796.58 1449.77 1799.96 1452.94 Q1803.34 1456.12 1803.34 1461.53 Q1803.34 1467.11 1799.87 1470.21 Q1796.4 1473.29 1790.08 1473.29 Q1787.9 1473.29 1785.63 1472.92 Q1783.39 1472.55 1780.98 1471.81 L1780.98 1467.11 Q1783.06 1468.24 1785.29 1468.8 Q1787.51 1469.36 1789.99 1469.36 Q1793.99 1469.36 1796.33 1467.25 Q1798.67 1465.14 1798.67 1461.53 Q1798.67 1457.92 1796.33 1455.81 Q1793.99 1453.71 1789.99 1453.71 Q1788.11 1453.71 1786.24 1454.12 Q1784.38 1454.54 1782.44 1455.42 L1782.44 1438.06 Z" fill="#000000" fill-rule="nonzero" fill-opacity="1" /><path clip-path="url(#clip840)" d="M1822.55 1441.14 Q1818.94 1441.14 1817.11 1444.7 Q1815.31 1448.24 1815.31 1455.37 Q1815.31 1462.48 1817.11 1466.05 Q1818.94 1469.59 1822.55 1469.59 Q1826.19 1469.59 1827.99 1466.05 Q1829.82 1462.48 1829.82 1455.37 Q1829.82 1448.24 1827.99 1444.7 Q1826.19 1441.14 1822.55 1441.14 M1822.55 1437.43 Q1828.36 1437.43 1831.42 1442.04 Q1834.5 1446.62 1834.5 1455.37 Q1834.5 1464.1 1831.42 1468.71 Q1828.36 1473.29 1822.55 1473.29 Q1816.74 1473.29 1813.67 1468.71 Q1810.61 1464.1 1810.61 1455.37 Q1810.61 1446.62 1813.67 1442.04 Q1816.74 1437.43 1822.55 1437.43 Z" fill="#000000" fill-rule="nonzero" fill-opacity="1" /><path clip-path="url(#clip840)" d="M2237.28 1468.68 L2244.92 1468.68 L2244.92 1442.32 L2236.61 1443.99 L2236.61 1439.73 L2244.88 1438.06 L2249.55 1438.06 L2249.55 1468.68 L2257.19 1468.68 L2257.19 1472.62 L2237.28 1472.62 L2237.28 1468.68 Z" fill="#000000" fill-rule="nonzero" fill-opacity="1" /><path clip-path="url(#clip840)" d="M2276.64 1441.14 Q2273.02 1441.14 2271.2 1444.7 Q2269.39 1448.24 2269.39 1455.37 Q2269.39 1462.48 2271.2 1466.05 Q2273.02 1469.59 2276.64 1469.59 Q2280.27 1469.59 2282.08 1466.05 Q2283.9 1462.48 2283.9 1455.37 Q2283.9 1448.24 2282.08 1444.7 Q2280.27 1441.14 2276.64 1441.14 M2276.64 1437.43 Q2282.45 1437.43 2285.5 1442.04 Q2288.58 1446.62 2288.58 1455.37 Q2288.58 1464.1 2285.5 1468.71 Q2282.45 1473.29 2276.64 1473.29 Q2270.83 1473.29 2267.75 1468.71 Q2264.69 1464.1 2264.69 1455.37 Q2264.69 1446.62 2267.75 1442.04 Q2270.83 1437.43 2276.64 1437.43 Z" fill="#000000" fill-rule="nonzero" fill-opacity="1" /><path clip-path="url(#clip840)" d="M2306.8 1441.14 Q2303.19 1441.14 2301.36 1444.7 Q2299.55 1448.24 2299.55 1455.37 Q2299.55 1462.48 2301.36 1466.05 Q2303.19 1469.59 2306.8 1469.59 Q2310.43 1469.59 2312.24 1466.05 Q2314.07 1462.48 2314.07 1455.37 Q2314.07 1448.24 2312.24 1444.7 Q2310.43 1441.14 2306.8 1441.14 M2306.8 1437.43 Q2312.61 1437.43 2315.66 1442.04 Q2318.74 1446.62 2318.74 1455.37 Q2318.74 1464.1 2315.66 1468.71 Q2312.61 1473.29 2306.8 1473.29 Q2300.99 1473.29 2297.91 1468.71 Q2294.85 1464.1 2294.85 1455.37 Q2294.85 1446.62 2297.91 1442.04 Q2300.99 1437.43 2306.8 1437.43 Z" fill="#000000" fill-rule="nonzero" fill-opacity="1" /><path clip-path="url(#clip840)" d="M2336.96 1441.14 Q2333.35 1441.14 2331.52 1444.7 Q2329.71 1448.24 2329.71 1455.37 Q2329.71 1462.48 2331.52 1466.05 Q2333.35 1469.59 2336.96 1469.59 Q2340.59 1469.59 2342.4 1466.05 Q2344.23 1462.48 2344.23 1455.37 Q2344.23 1448.24 2342.4 1444.7 Q2340.59 1441.14 2336.96 1441.14 M2336.96 1437.43 Q2342.77 1437.43 2345.82 1442.04 Q2348.9 1446.62 2348.9 1455.37 Q2348.9 1464.1 2345.82 1468.71 Q2342.77 1473.29 2336.96 1473.29 Q2331.15 1473.29 2328.07 1468.71 Q2325.01 1464.1 2325.01 1455.37 Q2325.01 1446.62 2328.07 1442.04 Q2331.15 1437.43 2336.96 1437.43 Z" fill="#000000" fill-rule="nonzero" fill-opacity="1" /><path clip-path="url(#clip840)" d="M1222.72 1515.01 Q1222.72 1521.77 1219.81 1528.41 Q1216.94 1535.01 1212.27 1540.01 Q1207.64 1544.97 1201.37 1548.04 Q1195.09 1551.12 1188.7 1551.12 L1160.91 1551.12 Q1159.93 1551.12 1159.52 1551.08 Q1159.15 1551.04 1158.86 1550.83 Q1158.57 1550.58 1158.57 1550.09 Q1158.57 1549.31 1158.9 1548.99 Q1159.23 1548.62 1159.6 1548.58 Q1159.97 1548.54 1160.91 1548.54 Q1162.96 1548.54 1164.19 1548.41 Q1165.42 1548.29 1166.2 1548.13 Q1167.02 1547.92 1167.43 1547.35 Q1167.88 1546.77 1168.08 1546.28 Q1168.29 1545.75 1168.57 1544.56 L1179.8 1499.47 Q1180.13 1498.12 1180.13 1497.91 Q1180.13 1497.22 1179.72 1496.97 Q1179.35 1496.68 1178.29 1496.56 Q1176.24 1496.4 1174.68 1496.4 Q1173.66 1496.4 1173.25 1496.36 Q1172.88 1496.31 1172.55 1496.11 Q1172.26 1495.86 1172.26 1495.37 Q1172.26 1494.59 1172.59 1494.27 Q1172.96 1493.9 1173.37 1493.86 Q1173.78 1493.77 1174.76 1493.77 L1202.96 1493.77 Q1209.07 1493.77 1213.62 1496.64 Q1218.17 1499.47 1220.43 1504.27 Q1222.72 1509.02 1222.72 1515.01 M1215.38 1511.93 Q1215.38 1504.1 1211.12 1500.25 Q1206.9 1496.4 1200.22 1496.4 L1191.24 1496.4 Q1188.58 1496.4 1187.92 1496.89 Q1187.27 1497.34 1186.69 1499.59 L1175.17 1545.67 Q1174.76 1547.18 1174.76 1547.59 Q1174.76 1548.04 1174.97 1548.21 Q1175.21 1548.33 1175.87 1548.41 Q1176.61 1548.54 1177.71 1548.54 L1187.18 1548.54 Q1190.83 1548.54 1194.15 1547.55 Q1197.51 1546.53 1199.93 1544.93 Q1202.35 1543.29 1203.91 1541.89 Q1205.46 1540.46 1206.57 1539.03 Q1209.07 1535.79 1210.92 1531.57 Q1212.8 1527.34 1213.66 1523.49 Q1214.56 1519.6 1214.97 1516.73 Q1215.38 1513.82 1215.38 1511.93 Z" fill="#000000" fill-rule="nonzero" fill-opacity="1" /><path clip-path="url(#clip840)" d="M1231.06 1540.83 L1231.06 1539 Q1238.12 1539 1241.77 1535.24 Q1242.77 1535.24 1242.94 1535.47 Q1243.11 1535.7 1243.11 1536.76 L1243.11 1569.73 Q1243.11 1571.48 1243.98 1572.02 Q1244.84 1572.57 1248.59 1572.57 L1250.46 1572.57 L1250.46 1574.38 Q1248.39 1574.2 1240.93 1574.2 Q1233.47 1574.2 1231.44 1574.38 L1231.44 1572.57 L1233.3 1572.57 Q1237 1572.57 1237.89 1572.05 Q1238.78 1571.51 1238.78 1569.73 L1238.78 1539.28 Q1235.71 1540.83 1231.06 1540.83 Z" fill="#000000" fill-rule="nonzero" fill-opacity="1" /><path clip-path="url(#clip840)" d="M1323.38 1515.01 Q1323.38 1521.77 1320.47 1528.41 Q1317.6 1535.01 1312.93 1540.01 Q1308.29 1544.97 1302.02 1548.04 Q1295.75 1551.12 1289.36 1551.12 L1261.57 1551.12 Q1260.58 1551.12 1260.17 1551.08 Q1259.8 1551.04 1259.52 1550.83 Q1259.23 1550.58 1259.23 1550.09 Q1259.23 1549.31 1259.56 1548.99 Q1259.89 1548.62 1260.25 1548.58 Q1260.62 1548.54 1261.57 1548.54 Q1263.62 1548.54 1264.85 1548.41 Q1266.08 1548.29 1266.85 1548.13 Q1267.67 1547.92 1268.08 1547.35 Q1268.53 1546.77 1268.74 1546.28 Q1268.94 1545.75 1269.23 1544.56 L1280.46 1499.47 Q1280.79 1498.12 1280.79 1497.91 Q1280.79 1497.22 1280.38 1496.97 Q1280.01 1496.68 1278.95 1496.56 Q1276.9 1496.4 1275.34 1496.4 Q1274.31 1496.4 1273.9 1496.36 Q1273.54 1496.31 1273.21 1496.11 Q1272.92 1495.86 1272.92 1495.37 Q1272.92 1494.59 1273.25 1494.27 Q1273.62 1493.9 1274.03 1493.86 Q1274.44 1493.77 1275.42 1493.77 L1303.62 1493.77 Q1309.73 1493.77 1314.28 1496.64 Q1318.83 1499.47 1321.08 1504.27 Q1323.38 1509.02 1323.38 1515.01 M1316.04 1511.93 Q1316.04 1504.1 1311.78 1500.25 Q1307.56 1496.4 1300.88 1496.4 L1291.9 1496.4 Q1289.23 1496.4 1288.58 1496.89 Q1287.92 1497.34 1287.35 1499.59 L1275.83 1545.67 Q1275.42 1547.18 1275.42 1547.59 Q1275.42 1548.04 1275.63 1548.21 Q1275.87 1548.33 1276.53 1548.41 Q1277.27 1548.54 1278.37 1548.54 L1287.84 1548.54 Q1291.49 1548.54 1294.81 1547.55 Q1298.17 1546.53 1300.59 1544.93 Q1303.01 1543.29 1304.56 1541.89 Q1306.12 1540.46 1307.23 1539.03 Q1309.73 1535.79 1311.57 1531.57 Q1313.46 1527.34 1314.32 1523.49 Q1315.22 1519.6 1315.63 1516.73 Q1316.04 1513.82 1316.04 1511.93 Z" fill="#000000" fill-rule="nonzero" fill-opacity="1" /><path clip-path="url(#clip840)" d="M1331.72 1574.38 Q1331.72 1573.31 1331.81 1573 Q1331.92 1572.68 1332.38 1572.19 L1343.66 1559.63 Q1349.83 1552.68 1349.83 1546.63 Q1349.83 1542.7 1347.76 1539.89 Q1345.72 1537.07 1341.96 1537.07 Q1339.38 1537.07 1337.2 1538.65 Q1335.02 1540.23 1334.02 1543.04 Q1334.19 1542.99 1334.79 1542.99 Q1336.25 1542.99 1337.06 1543.9 Q1337.89 1544.82 1337.89 1546.06 Q1337.89 1547.63 1336.86 1548.41 Q1335.85 1549.15 1334.85 1549.15 Q1334.45 1549.15 1333.9 1549.07 Q1333.39 1548.98 1332.55 1548.18 Q1331.72 1547.35 1331.72 1545.88 Q1331.72 1541.78 1334.82 1538.51 Q1337.95 1535.24 1342.71 1535.24 Q1348.1 1535.24 1351.63 1538.45 Q1355.19 1541.64 1355.19 1546.63 Q1355.19 1548.38 1354.65 1549.99 Q1354.13 1551.56 1353.41 1552.8 Q1352.72 1554.03 1350.83 1556.01 Q1348.94 1557.99 1347.42 1559.4 Q1345.9 1560.8 1342.48 1563.79 L1336.25 1569.84 L1346.84 1569.84 Q1352.01 1569.84 1352.41 1569.38 Q1352.98 1568.55 1353.7 1564.16 L1355.19 1564.16 L1353.53 1574.38 L1331.72 1574.38 Z" fill="#000000" fill-rule="nonzero" fill-opacity="1" /><path clip-path="url(#clip840)" d="M1414.71 1504.68 Q1414.71 1503.32 1414.34 1502.22 Q1414.01 1501.07 1413.48 1500.29 Q1412.99 1499.47 1412.04 1498.86 Q1411.1 1498.2 1410.32 1497.79 Q1409.54 1497.38 1408.23 1497.13 Q1406.92 1496.85 1406.06 1496.72 Q1405.2 1496.56 1403.72 1496.48 Q1402.25 1496.4 1401.51 1496.4 Q1400.81 1496.4 1399.42 1496.4 Q1395.03 1496.4 1394.3 1496.48 Q1393.19 1496.64 1392.78 1497.3 Q1392.37 1497.91 1391.96 1499.59 L1386.51 1521.48 L1395.9 1521.48 Q1401.02 1521.48 1404.54 1520.05 Q1408.07 1518.61 1410.08 1516.6 Q1412.29 1514.39 1413.48 1510.83 Q1414.71 1507.26 1414.71 1504.68 M1423.85 1543.33 Q1423.85 1543.78 1423.48 1544.81 Q1423.15 1545.83 1422.33 1547.26 Q1421.51 1548.66 1420.41 1549.93 Q1419.3 1551.2 1417.54 1552.06 Q1415.77 1552.96 1413.77 1552.96 Q1413.27 1552.96 1412.78 1552.92 Q1412.29 1552.92 1411.06 1552.72 Q1409.87 1552.55 1408.89 1552.22 Q1407.9 1551.94 1406.68 1551.24 Q1405.45 1550.58 1404.58 1549.68 Q1403.77 1548.74 1403.19 1547.26 Q1402.62 1545.75 1402.62 1543.9 Q1402.62 1542.26 1403.97 1536.77 Q1405.16 1532.1 1405.16 1530.95 Q1405.16 1529.68 1404.75 1528.49 Q1404.38 1527.3 1403.44 1526.07 Q1402.54 1524.84 1400.61 1524.11 Q1398.68 1523.33 1395.98 1523.33 L1386.02 1523.33 L1380.44 1545.58 Q1380.44 1545.62 1380.32 1546.2 Q1380.2 1546.73 1380.2 1547.02 Q1380.2 1547.55 1380.52 1547.88 Q1380.89 1548.21 1381.79 1548.37 Q1382.7 1548.49 1383.39 1548.54 Q1384.13 1548.54 1385.65 1548.54 Q1387.53 1548.54 1387.86 1548.86 Q1388.03 1549.07 1388.03 1549.44 Q1388.03 1550.01 1387.86 1550.42 Q1387.74 1550.79 1387.41 1550.91 Q1387.12 1551.04 1386.92 1551.08 Q1386.71 1551.12 1386.34 1551.12 L1375.69 1550.87 L1365.11 1551.12 Q1363.92 1551.12 1363.92 1550.17 Q1363.92 1549.35 1364.21 1549.03 Q1364.5 1548.66 1364.87 1548.62 Q1365.24 1548.54 1366.18 1548.54 Q1368.23 1548.54 1369.46 1548.41 Q1370.69 1548.29 1371.47 1548.13 Q1372.29 1547.92 1372.7 1547.35 Q1373.15 1546.77 1373.35 1546.28 Q1373.56 1545.75 1373.84 1544.56 L1385.07 1499.47 Q1385.4 1498.12 1385.4 1497.91 Q1385.4 1497.13 1384.91 1496.93 Q1384.46 1496.68 1383.15 1496.56 L1379.95 1496.4 Q1378.97 1496.4 1378.56 1496.36 Q1378.19 1496.31 1377.9 1496.11 Q1377.61 1495.9 1377.61 1495.45 Q1377.61 1494.31 1378.11 1494.06 Q1378.6 1493.77 1380.03 1493.77 L1403.97 1493.77 Q1412.13 1493.77 1417.29 1497.34 Q1422.5 1500.91 1422.5 1506.36 Q1422.5 1508.82 1421.39 1511.11 Q1420.28 1513.41 1418.44 1515.21 Q1416.64 1517.01 1414.22 1518.53 Q1411.8 1520.01 1409.22 1521.03 Q1406.68 1522.02 1404.05 1522.59 Q1405.2 1523 1406.27 1523.61 Q1407.37 1524.23 1408.77 1525.38 Q1410.2 1526.52 1411.06 1528.37 Q1411.92 1530.21 1411.92 1532.47 Q1411.92 1534.07 1411.59 1536.44 Q1410.77 1543.21 1410.77 1545.99 Q1410.77 1548.66 1411.47 1549.89 Q1412.17 1551.12 1414.14 1551.12 Q1416.06 1551.12 1418.19 1549.4 Q1420.37 1547.63 1421.76 1543.49 Q1422.09 1542.3 1422.87 1542.3 Q1422.91 1542.3 1422.95 1542.3 Q1423.03 1542.3 1423.19 1542.39 Q1423.36 1542.43 1423.48 1542.55 Q1423.64 1542.63 1423.73 1542.84 Q1423.85 1543.04 1423.85 1543.33 Z" fill="#000000" fill-rule="nonzero" fill-opacity="1" /><polyline clip-path="url(#clip842)" style="stroke:#000000; stroke-linecap:round; stroke-linejoin:round; stroke-width:2; stroke-opacity:0.1; fill:none" points="232.826,1291.05 2352.76,1291.05 "/>
<polyline clip-path="url(#clip842)" style="stroke:#000000; stroke-linecap:round; stroke-linejoin:round; stroke-width:2; stroke-opacity:0.1; fill:none" points="232.826,989.739 2352.76,989.739 "/>
<polyline clip-path="url(#clip842)" style="stroke:#000000; stroke-linecap:round; stroke-linejoin:round; stroke-width:2; stroke-opacity:0.1; fill:none" points="232.826,688.432 2352.76,688.432 "/>
<polyline clip-path="url(#clip842)" style="stroke:#000000; stroke-linecap:round; stroke-linejoin:round; stroke-width:2; stroke-opacity:0.1; fill:none" points="232.826,387.126 2352.76,387.126 "/>
<polyline clip-path="url(#clip842)" style="stroke:#000000; stroke-linecap:round; stroke-linejoin:round; stroke-width:2; stroke-opacity:0.1; fill:none" points="232.826,85.8189 2352.76,85.8189 "/>
<polyline clip-path="url(#clip840)" style="stroke:#000000; stroke-linecap:round; stroke-linejoin:round; stroke-width:4; stroke-opacity:1; fill:none" points="232.826,1410.22 232.826,47.2441 "/>
<polyline clip-path="url(#clip840)" style="stroke:#000000; stroke-linecap:round; stroke-linejoin:round; stroke-width:4; stroke-opacity:1; fill:none" points="232.826,1291.05 251.724,1291.05 "/>
<polyline clip-path="url(#clip840)" style="stroke:#000000; stroke-linecap:round; stroke-linejoin:round; stroke-width:4; stroke-opacity:1; fill:none" points="232.826,989.739 251.724,989.739 "/>
<polyline clip-path="url(#clip840)" style="stroke:#000000; stroke-linecap:round; stroke-linejoin:round; stroke-width:4; stroke-opacity:1; fill:none" points="232.826,688.432 251.724,688.432 "/>
<polyline clip-path="url(#clip840)" style="stroke:#000000; stroke-linecap:round; stroke-linejoin:round; stroke-width:4; stroke-opacity:1; fill:none" points="232.826,387.126 251.724,387.126 "/>
<polyline clip-path="url(#clip840)" style="stroke:#000000; stroke-linecap:round; stroke-linejoin:round; stroke-width:4; stroke-opacity:1; fill:none" points="232.826,85.8189 251.724,85.8189 "/>
<path clip-path="url(#clip840)" d="M141.248 1276.84 Q137.637 1276.84 135.808 1280.41 Q134.003 1283.95 134.003 1291.08 Q134.003 1298.19 135.808 1301.75 Q137.637 1305.29 141.248 1305.29 Q144.882 1305.29 146.688 1301.75 Q148.516 1298.19 148.516 1291.08 Q148.516 1283.95 146.688 1280.41 Q144.882 1276.84 141.248 1276.84 M141.248 1273.14 Q147.058 1273.14 150.114 1277.75 Q153.192 1282.33 153.192 1291.08 Q153.192 1299.81 150.114 1304.41 Q147.058 1309 141.248 1309 Q135.438 1309 132.359 1304.41 Q129.303 1299.81 129.303 1291.08 Q129.303 1282.33 132.359 1277.75 Q135.438 1273.14 141.248 1273.14 Z" fill="#000000" fill-rule="nonzero" fill-opacity="1" /><path clip-path="url(#clip840)" d="M161.41 1302.45 L166.294 1302.45 L166.294 1308.33 L161.41 1308.33 L161.41 1302.45 Z" fill="#000000" fill-rule="nonzero" fill-opacity="1" /><path clip-path="url(#clip840)" d="M180.507 1304.39 L196.826 1304.39 L196.826 1308.33 L174.882 1308.33 L174.882 1304.39 Q177.544 1301.64 182.127 1297.01 Q186.734 1292.35 187.914 1291.01 Q190.16 1288.49 191.039 1286.75 Q191.942 1284.99 191.942 1283.3 Q191.942 1280.55 189.998 1278.81 Q188.076 1277.08 184.974 1277.08 Q182.775 1277.08 180.322 1277.84 Q177.891 1278.6 175.113 1280.15 L175.113 1275.43 Q177.937 1274.3 180.391 1273.72 Q182.845 1273.14 184.882 1273.14 Q190.252 1273.14 193.447 1275.83 Q196.641 1278.51 196.641 1283 Q196.641 1285.13 195.831 1287.05 Q195.044 1288.95 192.937 1291.54 Q192.359 1292.21 189.257 1295.43 Q186.155 1298.63 180.507 1304.39 Z" fill="#000000" fill-rule="nonzero" fill-opacity="1" /><path clip-path="url(#clip840)" d="M139.165 975.538 Q135.553 975.538 133.725 979.102 Q131.919 982.644 131.919 989.774 Q131.919 996.88 133.725 1000.44 Q135.553 1003.99 139.165 1003.99 Q142.799 1003.99 144.604 1000.44 Q146.433 996.88 146.433 989.774 Q146.433 982.644 144.604 979.102 Q142.799 975.538 139.165 975.538 M139.165 971.834 Q144.975 971.834 148.03 976.44 Q151.109 981.024 151.109 989.774 Q151.109 998.5 148.03 1003.11 Q144.975 1007.69 139.165 1007.69 Q133.354 1007.69 130.276 1003.11 Q127.22 998.5 127.22 989.774 Q127.22 981.024 130.276 976.44 Q133.354 971.834 139.165 971.834 Z" fill="#000000" fill-rule="nonzero" fill-opacity="1" /><path clip-path="url(#clip840)" d="M159.326 1001.14 L164.211 1001.14 L164.211 1007.02 L159.326 1007.02 L159.326 1001.14 Z" fill="#000000" fill-rule="nonzero" fill-opacity="1" /><path clip-path="url(#clip840)" d="M187.243 976.533 L175.437 994.982 L187.243 994.982 L187.243 976.533 M186.016 972.459 L191.896 972.459 L191.896 994.982 L196.826 994.982 L196.826 998.871 L191.896 998.871 L191.896 1007.02 L187.243 1007.02 L187.243 998.871 L171.641 998.871 L171.641 994.357 L186.016 972.459 Z" fill="#000000" fill-rule="nonzero" fill-opacity="1" /><path clip-path="url(#clip840)" d="M139.489 674.231 Q135.878 674.231 134.049 677.796 Q132.243 681.337 132.243 688.467 Q132.243 695.573 134.049 699.138 Q135.878 702.68 139.489 702.68 Q143.123 702.68 144.928 699.138 Q146.757 695.573 146.757 688.467 Q146.757 681.337 144.928 677.796 Q143.123 674.231 139.489 674.231 M139.489 670.527 Q145.299 670.527 148.354 675.134 Q151.433 679.717 151.433 688.467 Q151.433 697.194 148.354 701.8 Q145.299 706.384 139.489 706.384 Q133.678 706.384 130.6 701.8 Q127.544 697.194 127.544 688.467 Q127.544 679.717 130.6 675.134 Q133.678 670.527 139.489 670.527 Z" fill="#000000" fill-rule="nonzero" fill-opacity="1" /><path clip-path="url(#clip840)" d="M159.651 699.833 L164.535 699.833 L164.535 705.712 L159.651 705.712 L159.651 699.833 Z" fill="#000000" fill-rule="nonzero" fill-opacity="1" /><path clip-path="url(#clip840)" d="M185.299 686.569 Q182.15 686.569 180.299 688.722 Q178.47 690.874 178.47 694.624 Q178.47 698.351 180.299 700.527 Q182.15 702.68 185.299 702.68 Q188.447 702.68 190.275 700.527 Q192.127 698.351 192.127 694.624 Q192.127 690.874 190.275 688.722 Q188.447 686.569 185.299 686.569 M194.581 671.916 L194.581 676.175 Q192.822 675.342 191.016 674.902 Q189.234 674.462 187.474 674.462 Q182.845 674.462 180.391 677.587 Q177.961 680.712 177.613 687.032 Q178.979 685.018 181.039 683.953 Q183.099 682.865 185.576 682.865 Q190.785 682.865 193.794 686.036 Q196.826 689.185 196.826 694.624 Q196.826 699.948 193.678 703.166 Q190.53 706.384 185.299 706.384 Q179.303 706.384 176.132 701.8 Q172.961 697.194 172.961 688.467 Q172.961 680.273 176.85 675.411 Q180.738 670.527 187.289 670.527 Q189.049 670.527 190.831 670.874 Q192.636 671.222 194.581 671.916 Z" fill="#000000" fill-rule="nonzero" fill-opacity="1" /><path clip-path="url(#clip840)" d="M139.743 372.924 Q136.132 372.924 134.303 376.489 Q132.498 380.031 132.498 387.16 Q132.498 394.267 134.303 397.832 Q136.132 401.373 139.743 401.373 Q143.377 401.373 145.183 397.832 Q147.012 394.267 147.012 387.16 Q147.012 380.031 145.183 376.489 Q143.377 372.924 139.743 372.924 M139.743 369.221 Q145.553 369.221 148.609 373.827 Q151.688 378.41 151.688 387.16 Q151.688 395.887 148.609 400.494 Q145.553 405.077 139.743 405.077 Q133.933 405.077 130.854 400.494 Q127.799 395.887 127.799 387.16 Q127.799 378.41 130.854 373.827 Q133.933 369.221 139.743 369.221 Z" fill="#000000" fill-rule="nonzero" fill-opacity="1" /><path clip-path="url(#clip840)" d="M159.905 398.526 L164.789 398.526 L164.789 404.406 L159.905 404.406 L159.905 398.526 Z" fill="#000000" fill-rule="nonzero" fill-opacity="1" /><path clip-path="url(#clip840)" d="M184.974 387.994 Q181.641 387.994 179.72 389.776 Q177.822 391.558 177.822 394.683 Q177.822 397.808 179.72 399.591 Q181.641 401.373 184.974 401.373 Q188.308 401.373 190.229 399.591 Q192.15 397.785 192.15 394.683 Q192.15 391.558 190.229 389.776 Q188.331 387.994 184.974 387.994 M180.299 386.003 Q177.289 385.262 175.6 383.202 Q173.933 381.142 173.933 378.179 Q173.933 374.035 176.873 371.628 Q179.836 369.221 184.974 369.221 Q190.136 369.221 193.076 371.628 Q196.016 374.035 196.016 378.179 Q196.016 381.142 194.326 383.202 Q192.66 385.262 189.674 386.003 Q193.053 386.79 194.928 389.082 Q196.826 391.373 196.826 394.683 Q196.826 399.707 193.748 402.392 Q190.692 405.077 184.974 405.077 Q179.257 405.077 176.178 402.392 Q173.123 399.707 173.123 394.683 Q173.123 391.373 175.021 389.082 Q176.919 386.79 180.299 386.003 M178.586 378.619 Q178.586 381.304 180.252 382.808 Q181.942 384.313 184.974 384.313 Q187.984 384.313 189.674 382.808 Q191.386 381.304 191.386 378.619 Q191.386 375.933 189.674 374.429 Q187.984 372.924 184.974 372.924 Q181.942 372.924 180.252 374.429 Q178.586 375.933 178.586 378.619 Z" fill="#000000" fill-rule="nonzero" fill-opacity="1" /><path clip-path="url(#clip840)" d="M130.461 99.1637 L138.1 99.1637 L138.1 72.7981 L129.79 74.4648 L129.79 70.2055 L138.053 68.5389 L142.729 68.5389 L142.729 99.1637 L150.368 99.1637 L150.368 103.099 L130.461 103.099 L130.461 99.1637 Z" fill="#000000" fill-rule="nonzero" fill-opacity="1" /><path clip-path="url(#clip840)" d="M159.813 97.2193 L164.697 97.2193 L164.697 103.099 L159.813 103.099 L159.813 97.2193 Z" fill="#000000" fill-rule="nonzero" fill-opacity="1" /><path clip-path="url(#clip840)" d="M184.882 71.6176 Q181.271 71.6176 179.442 75.1824 Q177.637 78.724 177.637 85.8536 Q177.637 92.96 179.442 96.5248 Q181.271 100.066 184.882 100.066 Q188.516 100.066 190.322 96.5248 Q192.15 92.96 192.15 85.8536 Q192.15 78.724 190.322 75.1824 Q188.516 71.6176 184.882 71.6176 M184.882 67.9139 Q190.692 67.9139 193.748 72.5203 Q196.826 77.1036 196.826 85.8536 Q196.826 94.5804 193.748 99.1869 Q190.692 103.77 184.882 103.77 Q179.072 103.77 175.993 99.1869 Q172.938 94.5804 172.938 85.8536 Q172.938 77.1036 175.993 72.5203 Q179.072 67.9139 184.882 67.9139 Z" fill="#000000" fill-rule="nonzero" fill-opacity="1" /><path clip-path="url(#clip840)" d="M64.8963 1276.85 L88.9587 1276.85 L88.9587 1284.35 L26.3317 1284.35 L26.3317 1276.85 L33.2183 1276.85 Q29.1674 1274.5 27.2229 1270.94 Q25.238 1267.33 25.238 1262.35 Q25.238 1254.09 31.8004 1248.94 Q38.3629 1243.76 49.0573 1243.76 Q59.7517 1243.76 66.3141 1248.94 Q72.8766 1254.09 72.8766 1262.35 Q72.8766 1267.33 70.9322 1270.94 Q68.9472 1274.5 64.8963 1276.85 M49.0573 1251.49 Q40.834 1251.49 36.1754 1254.9 Q31.4764 1258.26 31.4764 1264.17 Q31.4764 1270.09 36.1754 1273.49 Q40.834 1276.85 49.0573 1276.85 Q57.2806 1276.85 61.9797 1273.49 Q66.6382 1270.09 66.6382 1264.17 Q66.6382 1258.26 61.9797 1254.9 Q57.2806 1251.49 49.0573 1251.49 Z" fill="#000000" fill-rule="nonzero" fill-opacity="1" /><path clip-path="url(#clip840)" d="M33.2993 1205.11 Q32.5701 1206.37 32.246 1207.86 Q31.8815 1209.32 31.8815 1211.11 Q31.8815 1217.42 36.0134 1220.83 Q40.1048 1224.19 47.8015 1224.19 L71.7018 1224.19 L71.7018 1231.68 L26.3317 1231.68 L26.3317 1224.19 L33.3803 1224.19 Q29.2484 1221.84 27.2634 1218.07 Q25.238 1214.31 25.238 1208.92 Q25.238 1208.15 25.3595 1207.22 Q25.4405 1206.28 25.6431 1205.15 L33.2993 1205.11 Z" fill="#000000" fill-rule="nonzero" fill-opacity="1" /><path clip-path="url(#clip840)" d="M31.5574 1181.53 Q31.5574 1187.53 36.2564 1191.01 Q40.915 1194.5 49.0573 1194.5 Q57.1996 1194.5 61.8987 1191.05 Q66.5572 1187.57 66.5572 1181.53 Q66.5572 1175.58 61.8581 1172.1 Q57.1591 1168.61 49.0573 1168.61 Q40.996 1168.61 36.2969 1172.1 Q31.5574 1175.58 31.5574 1181.53 M25.238 1181.53 Q25.238 1171.81 31.5574 1166.26 Q37.8768 1160.71 49.0573 1160.71 Q60.1973 1160.71 66.5572 1166.26 Q72.8766 1171.81 72.8766 1181.53 Q72.8766 1191.3 66.5572 1196.85 Q60.1973 1202.36 49.0573 1202.36 Q37.8768 1202.36 31.5574 1196.85 Q25.238 1191.3 25.238 1181.53 Z" fill="#000000" fill-rule="nonzero" fill-opacity="1" /><path clip-path="url(#clip840)" d="M8.66978 1125.39 L14.8677 1125.39 L14.8677 1132.52 Q14.8677 1136.53 16.488 1138.11 Q18.1084 1139.65 22.3213 1139.65 L26.3317 1139.65 L26.3317 1127.37 L32.1245 1127.37 L32.1245 1139.65 L71.7018 1139.65 L71.7018 1147.14 L32.1245 1147.14 L32.1245 1154.27 L26.3317 1154.27 L26.3317 1147.14 L23.172 1147.14 Q15.5968 1147.14 12.1536 1143.62 Q8.66978 1140.09 8.66978 1132.44 L8.66978 1125.39 Z" fill="#000000" fill-rule="nonzero" fill-opacity="1" /><path clip-path="url(#clip840)" d="M26.3317 1119.15 L26.3317 1111.7 L71.7018 1111.7 L71.7018 1119.15 L26.3317 1119.15 M8.66978 1119.15 L8.66978 1111.7 L18.1084 1111.7 L18.1084 1119.15 L8.66978 1119.15 Z" fill="#000000" fill-rule="nonzero" fill-opacity="1" /><path clip-path="url(#clip840)" d="M8.66978 1096.1 L8.66978 1088.65 L71.7018 1088.65 L71.7018 1096.1 L8.66978 1096.1 Z" fill="#000000" fill-rule="nonzero" fill-opacity="1" /><path clip-path="url(#clip840)" d="M47.1534 1034.24 L50.7992 1034.24 L50.7992 1068.51 Q58.4959 1068.03 62.5468 1063.9 Q66.5572 1059.72 66.5572 1052.31 Q66.5572 1048.02 65.504 1044.01 Q64.4507 1039.95 62.3443 1035.98 L69.3928 1035.98 Q71.0942 1040 71.9854 1044.21 Q72.8766 1048.42 72.8766 1052.76 Q72.8766 1063.61 66.5572 1069.97 Q60.2378 1076.29 49.4624 1076.29 Q38.3224 1076.29 31.8004 1070.3 Q25.238 1064.26 25.238 1054.05 Q25.238 1044.9 31.1523 1039.59 Q37.0261 1034.24 47.1534 1034.24 M44.9659 1041.7 Q38.849 1041.78 35.2032 1045.14 Q31.5574 1048.46 31.5574 1053.97 Q31.5574 1060.21 35.0817 1063.98 Q38.606 1067.7 45.0064 1068.27 L44.9659 1041.7 Z" fill="#000000" fill-rule="nonzero" fill-opacity="1" /><path clip-path="url(#clip840)" d="M8.66978 995.638 L8.66978 988.184 L71.7018 988.184 L71.7018 995.638 L8.66978 995.638 Z" fill="#000000" fill-rule="nonzero" fill-opacity="1" /><path clip-path="url(#clip840)" d="M26.3317 972.588 L26.3317 965.135 L71.7018 965.135 L71.7018 972.588 L26.3317 972.588 M8.66978 972.588 L8.66978 965.135 L18.1084 965.135 L18.1084 972.588 L8.66978 972.588 Z" fill="#000000" fill-rule="nonzero" fill-opacity="1" /><path clip-path="url(#clip840)" d="M8.66978 949.822 L8.66978 942.328 L45.8976 942.328 L26.3317 920.089 L26.3317 910.569 L47.5585 934.631 L71.7018 909.556 L71.7018 919.278 L49.5434 942.328 L71.7018 942.328 L71.7018 949.822 L8.66978 949.822 Z" fill="#000000" fill-rule="nonzero" fill-opacity="1" /><path clip-path="url(#clip840)" d="M47.1534 865.644 L50.7992 865.644 L50.7992 899.915 Q58.4959 899.429 62.5468 895.297 Q66.5572 891.125 66.5572 883.711 Q66.5572 879.417 65.504 875.407 Q64.4507 871.356 62.3443 867.386 L69.3928 867.386 Q71.0942 871.397 71.9854 875.61 Q72.8766 879.823 72.8766 884.157 Q72.8766 895.013 66.5572 901.373 Q60.2378 907.693 49.4624 907.693 Q38.3224 907.693 31.8004 901.697 Q25.238 895.662 25.238 885.453 Q25.238 876.298 31.1523 870.992 Q37.0261 865.644 47.1534 865.644 M44.9659 873.098 Q38.849 873.179 35.2032 876.541 Q31.5574 879.863 31.5574 885.372 Q31.5574 891.611 35.0817 895.378 Q38.606 899.105 45.0064 899.672 L44.9659 873.098 Z" fill="#000000" fill-rule="nonzero" fill-opacity="1" /><path clip-path="url(#clip840)" d="M8.66978 853.411 L8.66978 845.957 L71.7018 845.957 L71.7018 853.411 L8.66978 853.411 Z" fill="#000000" fill-rule="nonzero" fill-opacity="1" /><path clip-path="url(#clip840)" d="M26.3317 830.361 L26.3317 822.907 L71.7018 822.907 L71.7018 830.361 L26.3317 830.361 M8.66978 830.361 L8.66978 822.907 L18.1084 822.907 L18.1084 830.361 L8.66978 830.361 Z" fill="#000000" fill-rule="nonzero" fill-opacity="1" /><path clip-path="url(#clip840)" d="M44.3177 769.597 L71.7018 769.597 L71.7018 777.051 L44.5608 777.051 Q38.1198 777.051 34.9196 779.563 Q31.7194 782.074 31.7194 787.097 Q31.7194 793.133 35.5678 796.617 Q39.4161 800.101 46.0596 800.101 L71.7018 800.101 L71.7018 807.595 L8.66978 807.595 L8.66978 800.101 L33.3803 800.101 Q29.2889 797.427 27.2634 793.822 Q25.238 790.176 25.238 785.436 Q25.238 777.618 30.0991 773.608 Q34.9196 769.597 44.3177 769.597 Z" fill="#000000" fill-rule="nonzero" fill-opacity="1" /><path clip-path="url(#clip840)" d="M31.5574 737.15 Q31.5574 743.145 36.2564 746.629 Q40.915 750.113 49.0573 750.113 Q57.1996 750.113 61.8987 746.669 Q66.5572 743.186 66.5572 737.15 Q66.5572 731.195 61.8581 727.711 Q57.1591 724.227 49.0573 724.227 Q40.996 724.227 36.2969 727.711 Q31.5574 731.195 31.5574 737.15 M25.238 737.15 Q25.238 727.428 31.5574 721.878 Q37.8768 716.328 49.0573 716.328 Q60.1973 716.328 66.5572 721.878 Q72.8766 727.428 72.8766 737.15 Q72.8766 746.912 66.5572 752.462 Q60.1973 757.971 49.0573 757.971 Q37.8768 757.971 31.5574 752.462 Q25.238 746.912 25.238 737.15 Z" fill="#000000" fill-rule="nonzero" fill-opacity="1" /><path clip-path="url(#clip840)" d="M31.5574 686.392 Q31.5574 692.387 36.2564 695.871 Q40.915 699.355 49.0573 699.355 Q57.1996 699.355 61.8987 695.912 Q66.5572 692.428 66.5572 686.392 Q66.5572 680.437 61.8581 676.953 Q57.1591 673.469 49.0573 673.469 Q40.996 673.469 36.2969 676.953 Q31.5574 680.437 31.5574 686.392 M25.238 686.392 Q25.238 676.67 31.5574 671.12 Q37.8768 665.57 49.0573 665.57 Q60.1973 665.57 66.5572 671.12 Q72.8766 676.67 72.8766 686.392 Q72.8766 696.155 66.5572 701.704 Q60.1973 707.214 49.0573 707.214 Q37.8768 707.214 31.5574 701.704 Q25.238 696.155 25.238 686.392 Z" fill="#000000" fill-rule="nonzero" fill-opacity="1" /><path clip-path="url(#clip840)" d="M33.2183 623.36 L8.66978 623.36 L8.66978 615.906 L71.7018 615.906 L71.7018 623.36 L64.8963 623.36 Q68.9472 625.709 70.9322 629.315 Q72.8766 632.879 72.8766 637.903 Q72.8766 646.126 66.3141 651.311 Q59.7517 656.456 49.0573 656.456 Q38.3629 656.456 31.8004 651.311 Q25.238 646.126 25.238 637.903 Q25.238 632.879 27.2229 629.315 Q29.1674 625.709 33.2183 623.36 M49.0573 648.759 Q57.2806 648.759 61.9797 645.397 Q66.6382 641.994 66.6382 636.08 Q66.6382 630.165 61.9797 626.763 Q57.2806 623.36 49.0573 623.36 Q40.834 623.36 36.1754 626.763 Q31.4764 630.165 31.4764 636.08 Q31.4764 641.994 36.1754 645.397 Q40.834 648.759 49.0573 648.759 Z" fill="#000000" fill-rule="nonzero" fill-opacity="1" /><path clip-path="url(#clip840)" d="M8.66978 551.213 L14.8677 551.213 L14.8677 558.343 Q14.8677 562.353 16.488 563.933 Q18.1084 565.472 22.3213 565.472 L26.3317 565.472 L26.3317 553.198 L32.1245 553.198 L32.1245 565.472 L71.7018 565.472 L71.7018 572.967 L32.1245 572.967 L32.1245 580.096 L26.3317 580.096 L26.3317 572.967 L23.172 572.967 Q15.5968 572.967 12.1536 569.442 Q8.66978 565.918 8.66978 558.262 L8.66978 551.213 Z" fill="#000000" fill-rule="nonzero" fill-opacity="1" /><path clip-path="url(#clip840)" d="M31.5574 527.394 Q31.5574 533.389 36.2564 536.873 Q40.915 540.357 49.0573 540.357 Q57.1996 540.357 61.8987 536.914 Q66.5572 533.43 66.5572 527.394 Q66.5572 521.439 61.8581 517.955 Q57.1591 514.472 49.0573 514.472 Q40.996 514.472 36.2969 517.955 Q31.5574 521.439 31.5574 527.394 M25.238 527.394 Q25.238 517.672 31.5574 512.122 Q37.8768 506.572 49.0573 506.572 Q60.1973 506.572 66.5572 512.122 Q72.8766 517.672 72.8766 527.394 Q72.8766 537.157 66.5572 542.706 Q60.1973 548.216 49.0573 548.216 Q37.8768 548.216 31.5574 542.706 Q25.238 537.157 25.238 527.394 Z" fill="#000000" fill-rule="nonzero" fill-opacity="1" /><path clip-path="url(#clip840)" d="M33.2993 467.927 Q32.5701 469.182 32.246 470.681 Q31.8815 472.14 31.8815 473.922 Q31.8815 480.241 36.0134 483.644 Q40.1048 487.006 47.8015 487.006 L71.7018 487.006 L71.7018 494.501 L26.3317 494.501 L26.3317 487.006 L33.3803 487.006 Q29.2484 484.657 27.2634 480.89 Q25.238 477.122 25.238 471.734 Q25.238 470.965 25.3595 470.033 Q25.4405 469.101 25.6431 467.967 L33.2993 467.927 Z" fill="#000000" fill-rule="nonzero" fill-opacity="1" /><path clip-path="url(#clip840)" d="M35.5903 377.407 Q42.3535 377.407 48.9938 380.317 Q55.5931 383.186 60.5938 387.859 Q65.5535 392.491 68.6276 398.762 Q71.7018 405.034 71.7018 411.428 L71.7018 439.219 Q71.7018 440.203 71.6609 440.612 Q71.6199 440.981 71.4149 441.268 Q71.169 441.555 70.6771 441.555 Q69.8983 441.555 69.5704 441.227 Q69.2015 440.899 69.1605 440.53 Q69.1195 440.162 69.1195 439.219 Q69.1195 437.169 68.9966 435.94 Q68.8736 434.71 68.7096 433.931 Q68.5047 433.111 67.9308 432.702 Q67.357 432.251 66.8651 432.046 Q66.3322 431.841 65.1436 431.554 L20.0554 420.323 Q18.7027 419.995 18.4978 419.995 Q17.8009 419.995 17.555 420.405 Q17.2681 420.774 17.1451 421.839 Q16.9812 423.889 16.9812 425.446 Q16.9812 426.471 16.9402 426.881 Q16.8992 427.25 16.6942 427.578 Q16.4483 427.865 15.9564 427.865 Q15.1776 427.865 14.8497 427.537 Q14.4808 427.168 14.4398 426.758 Q14.3578 426.348 14.3578 425.364 L14.3578 397.164 Q14.3578 391.056 17.2271 386.507 Q20.0554 381.957 24.8511 379.702 Q29.6059 377.407 35.5903 377.407 M32.5161 384.744 Q24.6871 384.744 20.8342 389.007 Q16.9812 393.229 16.9812 399.91 L16.9812 408.887 Q16.9812 411.551 17.473 412.207 Q17.9239 412.863 20.1783 413.437 L66.2503 424.955 Q67.7669 425.364 68.1768 425.364 Q68.6276 425.364 68.7916 425.16 Q68.9146 424.914 68.9966 424.258 Q69.1195 423.52 69.1195 422.413 L69.1195 412.945 Q69.1195 409.297 68.1358 405.977 Q67.111 402.615 65.5125 400.197 Q63.8729 397.779 62.4793 396.221 Q61.0446 394.663 59.61 393.557 Q56.3719 391.056 52.15 389.212 Q47.9281 387.326 44.0751 386.466 Q40.1811 385.564 37.3118 385.154 Q34.4016 384.744 32.5161 384.744 Z" fill="#000000" fill-rule="nonzero" fill-opacity="1" /><path clip-path="url(#clip840)" d="M61.4178 369.064 L59.5815 369.064 Q59.5815 362.006 55.8228 358.362 Q55.8228 357.357 56.0523 357.185 Q56.2819 357.013 57.3435 357.013 L90.3112 357.013 Q92.0614 357.013 92.6066 356.152 Q93.1517 355.292 93.1517 351.533 L93.1517 349.668 L94.9593 349.668 Q94.7872 351.734 94.7872 359.194 Q94.7872 366.654 94.9593 368.691 L93.1517 368.691 L93.1517 366.826 Q93.1517 363.125 92.6353 362.235 Q92.0901 361.346 90.3112 361.346 L59.8684 361.346 Q61.4178 364.416 61.4178 369.064 Z" fill="#000000" fill-rule="nonzero" fill-opacity="1" /><path clip-path="url(#clip840)" d="M35.5903 276.75 Q42.3535 276.75 48.9938 279.66 Q55.5931 282.529 60.5938 287.202 Q65.5535 291.834 68.6276 298.105 Q71.7018 304.376 71.7018 310.771 L71.7018 338.561 Q71.7018 339.545 71.6609 339.955 Q71.6199 340.324 71.4149 340.611 Q71.169 340.898 70.6771 340.898 Q69.8983 340.898 69.5704 340.57 Q69.2015 340.242 69.1605 339.873 Q69.1195 339.504 69.1195 338.561 Q69.1195 336.512 68.9966 335.282 Q68.8736 334.053 68.7096 333.274 Q68.5047 332.454 67.9308 332.044 Q67.357 331.593 66.8651 331.388 Q66.3322 331.183 65.1436 330.896 L20.0554 319.665 Q18.7027 319.337 18.4978 319.337 Q17.8009 319.337 17.555 319.747 Q17.2681 320.116 17.1451 321.182 Q16.9812 323.231 16.9812 324.789 Q16.9812 325.814 16.9402 326.224 Q16.8992 326.592 16.6942 326.92 Q16.4483 327.207 15.9564 327.207 Q15.1776 327.207 14.8497 326.879 Q14.4808 326.51 14.4398 326.101 Q14.3578 325.691 14.3578 324.707 L14.3578 296.506 Q14.3578 290.399 17.2271 285.849 Q20.0554 281.299 24.8511 279.045 Q29.6059 276.75 35.5903 276.75 M32.5161 284.087 Q24.6871 284.087 20.8342 288.349 Q16.9812 292.571 16.9812 299.253 L16.9812 308.229 Q16.9812 310.894 17.473 311.549 Q17.9239 312.205 20.1783 312.779 L66.2503 324.297 Q67.7669 324.707 68.1768 324.707 Q68.6276 324.707 68.7916 324.502 Q68.9146 324.256 68.9966 323.6 Q69.1195 322.862 69.1195 321.756 L69.1195 312.287 Q69.1195 308.639 68.1358 305.319 Q67.111 301.958 65.5125 299.54 Q63.8729 297.121 62.4793 295.564 Q61.0446 294.006 59.61 292.899 Q56.3719 290.399 52.15 288.554 Q47.9281 286.669 44.0751 285.808 Q40.1811 284.906 37.3118 284.496 Q34.4016 284.087 32.5161 284.087 Z" fill="#000000" fill-rule="nonzero" fill-opacity="1" /><path clip-path="url(#clip840)" d="M94.9593 268.406 Q93.8977 268.406 93.5821 268.32 Q93.2665 268.206 92.7787 267.747 L80.2114 256.47 Q73.2678 250.302 67.2137 250.302 Q63.2828 250.302 60.471 252.367 Q57.6591 254.405 57.6591 258.163 Q57.6591 260.746 59.2372 262.926 Q60.8153 265.107 63.6271 266.111 Q63.5698 265.939 63.5698 265.336 Q63.5698 263.873 64.4879 263.07 Q65.4061 262.238 66.6399 262.238 Q68.2179 262.238 68.9926 263.271 Q69.7386 264.275 69.7386 265.279 Q69.7386 265.681 69.6526 266.226 Q69.5665 266.742 68.7631 267.574 Q67.931 268.406 66.4677 268.406 Q62.3647 268.406 59.0937 265.308 Q55.8228 262.18 55.8228 257.417 Q55.8228 252.023 59.0363 248.494 Q62.2212 244.936 67.2137 244.936 Q68.9639 244.936 70.5707 245.481 Q72.1488 245.998 73.3826 246.715 Q74.6164 247.404 76.5961 249.297 Q78.5759 251.191 79.9819 252.712 Q81.3878 254.232 84.3718 257.647 L90.4259 263.873 L90.4259 253.286 Q90.4259 248.121 89.9669 247.719 Q89.1348 247.145 84.7448 246.428 L84.7448 244.936 L94.9593 246.6 L94.9593 268.406 Z" fill="#000000" fill-rule="nonzero" fill-opacity="1" /><path clip-path="url(#clip840)" d="M25.261 185.419 Q23.9083 185.419 22.8016 185.787 Q21.6539 186.115 20.8751 186.648 Q20.0554 187.14 19.4405 188.083 Q18.7847 189.026 18.3748 189.804 Q17.9649 190.583 17.719 191.895 Q17.432 193.207 17.3091 194.067 Q17.1451 194.928 17.0631 196.404 Q16.9812 197.879 16.9812 198.617 Q16.9812 199.314 16.9812 200.708 Q16.9812 205.093 17.0631 205.831 Q17.2271 206.938 17.8829 207.348 Q18.4978 207.758 20.1783 208.168 L42.0666 213.619 L42.0666 204.233 Q42.0666 199.109 40.632 195.584 Q39.1973 192.059 37.1889 190.05 Q34.9755 187.837 31.4094 186.648 Q27.8433 185.419 25.261 185.419 M63.9139 176.278 Q64.3648 176.278 65.3895 176.647 Q66.4142 176.975 67.8489 177.795 Q69.2425 178.614 70.5132 179.721 Q71.7838 180.828 72.6446 182.59 Q73.5464 184.353 73.5464 186.361 Q73.5464 186.853 73.5054 187.345 Q73.5054 187.837 73.3004 189.067 Q73.1365 190.255 72.8086 191.239 Q72.5216 192.223 71.8248 193.452 Q71.169 194.682 70.2672 195.543 Q69.3245 196.363 67.8489 196.937 Q66.3322 197.51 64.4877 197.51 Q62.8482 197.51 57.3556 196.158 Q52.6828 194.969 51.5351 194.969 Q50.2645 194.969 49.0758 195.379 Q47.8871 195.748 46.6574 196.691 Q45.4277 197.592 44.6899 199.519 Q43.9111 201.445 43.9111 204.151 L43.9111 214.111 L66.1683 219.686 Q66.2093 219.686 66.7831 219.809 Q67.316 219.932 67.6029 219.932 Q68.1358 219.932 68.4637 219.604 Q68.7916 219.235 68.9556 218.333 Q69.0785 217.431 69.1195 216.734 Q69.1195 215.997 69.1195 214.48 Q69.1195 212.594 69.4474 212.267 Q69.6524 212.103 70.0213 212.103 Q70.5951 212.103 71.005 212.267 Q71.3739 212.39 71.4969 212.717 Q71.6199 213.004 71.6609 213.209 Q71.7018 213.414 71.7018 213.783 L71.4559 224.44 L71.7018 235.016 Q71.7018 236.204 70.7591 236.204 Q69.9393 236.204 69.6114 235.917 Q69.2425 235.63 69.2015 235.262 Q69.1195 234.893 69.1195 233.95 Q69.1195 231.9 68.9966 230.671 Q68.8736 229.441 68.7096 228.662 Q68.5047 227.842 67.9308 227.433 Q67.357 226.982 66.8651 226.777 Q66.3322 226.572 65.1436 226.285 L20.0554 215.054 Q18.7027 214.726 18.4978 214.726 Q17.719 214.726 17.514 215.218 Q17.2681 215.669 17.1451 216.98 L16.9812 220.177 Q16.9812 221.161 16.9402 221.571 Q16.8992 221.94 16.6942 222.227 Q16.4893 222.514 16.0384 222.514 Q14.8907 222.514 14.6448 222.022 Q14.3578 221.53 14.3578 220.096 L14.3578 196.158 Q14.3578 188.001 17.9239 182.836 Q21.49 177.631 26.9416 177.631 Q29.4009 177.631 31.6963 178.737 Q33.9917 179.844 35.7952 181.689 Q37.5988 183.492 39.1154 185.91 Q40.591 188.329 41.6157 190.911 Q42.5995 193.452 43.1733 196.076 Q43.5832 194.928 44.198 193.862 Q44.8129 192.756 45.9606 191.362 Q47.1083 189.927 48.9528 189.067 Q50.7973 188.206 53.0517 188.206 Q54.6503 188.206 57.0277 188.534 Q63.7909 189.354 66.5782 189.354 Q69.2425 189.354 70.4722 188.657 Q71.7018 187.96 71.7018 185.992 Q71.7018 184.066 69.9803 181.934 Q68.2178 179.762 64.0778 178.368 Q62.8892 178.041 62.8892 177.262 Q62.8892 177.221 62.8892 177.18 Q62.8892 177.098 62.9711 176.934 Q63.0121 176.77 63.1351 176.647 Q63.2171 176.483 63.422 176.401 Q63.627 176.278 63.9139 176.278 Z" fill="#000000" fill-rule="nonzero" fill-opacity="1" /><polyline clip-path="url(#clip842)" style="stroke:#000000; stroke-linecap:round; stroke-linejoin:round; stroke-width:8; stroke-opacity:1; fill:none" points="292.824,85.8189 296.832,85.8189 300.84,85.8189 304.848,85.8189 308.856,85.8189 312.864,85.8189 316.872,85.8189 320.879,85.8189 324.887,85.8189 328.895,85.8189 332.903,85.8189 336.911,85.8189 340.919,85.8189 344.927,85.8189 348.935,85.8189 352.943,85.8189 356.95,85.8189 360.958,85.8189 364.966,85.8189 368.974,85.8189 372.982,85.8189 376.99,85.8189 380.998,85.8189 385.006,85.8189 389.013,85.8189 393.021,85.8189 397.029,85.8189 401.037,85.8189 405.045,85.8189 409.053,85.8189 413.061,85.8189 417.069,85.8189 421.077,85.8189 425.084,85.8189 429.092,85.8189 433.1,85.8189 437.108,85.8189 441.116,85.8189 445.124,85.8189 449.132,85.8189 453.14,85.8189 457.147,85.8189 461.155,85.8189 465.163,85.8189 469.171,85.8189 473.179,85.8189 477.187,85.8189 481.195,85.8189 485.203,85.8189 489.211,85.8189 493.218,85.8189 497.226,85.8189 501.234,85.8189 505.242,85.8189 509.25,85.8189 513.258,85.8189 517.266,85.8189 521.274,85.8189 525.281,85.8189 529.289,85.8189 533.297,85.8189 537.305,85.8189 541.313,85.8189 545.321,85.8189 549.329,85.8189 553.337,85.8189 557.345,85.8189 561.352,85.8189 565.36,85.8189 569.368,85.8189 573.376,85.8189 577.384,85.8189 581.392,85.8189 585.4,85.8189 589.408,85.8189 593.416,85.8189 597.423,85.8189 601.431,85.8189 605.439,85.8189 609.447,85.8189 613.455,85.8189 617.463,85.8189 621.471,85.8189 625.479,85.8189 629.486,85.8189 633.494,85.8189 637.502,85.8189 641.51,85.8189 645.518,85.8189 649.526,85.8189 653.534,85.8189 657.542,85.8189 661.55,85.8189 665.557,85.8189 669.565,85.8189 673.573,85.8189 677.581,85.8189 681.589,85.8189 685.597,85.8189 689.605,85.8189 693.613,85.8189 697.62,85.8189 701.628,85.8189 705.636,85.8189 709.644,85.8189 713.652,85.8189 717.66,85.8189 721.668,85.8189 725.676,85.8189 729.684,85.8189 733.691,85.8189 737.699,85.8189 741.707,85.8189 745.715,85.8189 749.723,85.8189 753.731,85.8189 757.739,85.8189 761.747,85.8189 765.754,85.8189 769.762,85.8189 773.77,85.8189 777.778,85.8189 781.786,85.8189 785.794,85.8189 789.802,85.8189 793.81,85.8189 797.818,85.8189 801.825,85.8189 805.833,85.8189 809.841,85.8189 813.849,85.8189 817.857,85.8189 821.865,85.8189 825.873,85.8189 829.881,85.8189 833.888,85.8189 837.896,85.8189 841.904,85.8189 845.912,85.8189 849.92,85.8189 853.928,85.8189 857.936,85.8189 861.944,85.8189 865.952,85.8189 869.959,85.8189 873.967,85.8189 877.975,85.8189 881.983,85.8189 885.991,85.8189 889.999,85.8189 894.007,85.8189 898.015,85.8189 902.022,85.8189 906.03,85.8189 910.038,85.8189 914.046,85.8189 918.054,85.8189 922.062,85.8189 926.07,85.8189 930.078,85.8189 934.086,85.8189 938.093,85.8189 942.101,85.8189 946.109,85.8189 950.117,85.8189 954.125,85.8189 958.133,85.8189 962.141,85.8189 966.149,85.8189 970.157,85.8189 974.164,85.8189 978.172,85.8189 982.18,85.8189 986.188,85.8189 990.196,85.8189 994.204,85.8189 998.212,85.8189 1002.22,85.8189 1006.23,85.8189 1010.24,85.8189 1014.24,85.8189 1018.25,85.8189 1022.26,85.8189 1026.27,85.8189 1030.27,85.8189 1034.28,85.8189 1038.29,85.8189 1042.3,85.8189 1046.31,85.8189 1050.31,85.8189 1054.32,85.8189 1058.33,85.8189 1062.34,85.8189 1066.35,85.8189 1070.35,85.8189 1074.36,85.8189 1078.37,85.8189 1082.38,85.8189 1086.39,85.8189 1090.39,85.8189 1094.4,85.8189 1098.41,85.8189 1102.42,85.8189 1106.42,85.8189 1110.43,85.8189 1114.44,85.8189 1118.45,85.8189 1122.46,85.8189 1126.46,85.8189 1130.47,85.8189 1134.48,85.8189 1138.49,85.8189 1142.5,85.8189 1146.5,85.8189 1150.51,85.8189 1154.52,85.8189 1158.53,85.8189 1162.53,85.8189 1166.54,85.8189 1170.55,85.8189 1174.56,85.8189 1178.57,85.8189 1182.57,85.8189 1186.58,85.8189 1190.59,85.8189 1194.6,85.8189 1198.61,85.8189 1202.61,85.8189 1206.62,85.8189 1210.63,85.8189 1214.64,85.8189 1218.65,85.8189 1222.65,85.8189 1226.66,85.8189 1230.67,85.8189 1234.68,85.8189 1238.68,85.8189 1242.69,85.8189 1246.7,85.8189 1250.71,85.8189 1254.72,85.8189 1258.72,85.8189 1262.73,85.8189 1266.74,85.8189 1270.75,85.8189 1274.76,85.8189 1278.76,85.8189 1282.77,85.8189 1286.78,85.8189 1290.79,85.8189 1294.8,85.8189 1298.8,85.8189 1302.81,85.8189 1306.82,85.8189 1310.83,85.8189 1314.83,85.8189 1318.84,85.8189 1322.85,85.8189 1326.86,85.8189 1330.87,85.8189 1334.87,85.8189 1338.88,85.8189 1342.89,85.8189 1346.9,85.8189 1350.91,85.8189 1354.91,85.8189 1358.92,85.8189 1362.93,85.8189 1366.94,85.8189 1370.94,85.8189 1374.95,85.8189 1378.96,85.8189 1382.97,85.8189 1386.98,85.8189 1390.98,85.8189 1394.99,85.8189 1399,85.8189 1403.01,85.8189 1407.02,85.8189 1411.02,85.8189 1415.03,85.8189 1419.04,85.8189 1423.05,85.8189 1427.06,85.8189 1431.06,85.8189 1435.07,85.8189 1439.08,85.8189 1443.09,85.8189 1447.09,85.8189 1451.1,85.8189 1455.11,85.8189 1459.12,85.8189 1463.13,85.8189 1467.13,85.8189 1471.14,85.8189 1475.15,85.8189 1479.16,85.8189 1483.17,85.8189 1487.17,85.8189 1491.18,85.8189 1495.19,85.8189 1499.2,85.8189 1503.2,85.8189 1507.21,85.8189 1511.22,85.8189 1515.23,85.8189 1519.24,85.8189 1523.24,85.8189 1527.25,85.8189 1531.26,85.8189 1535.27,85.8189 1539.28,85.8189 1543.28,85.8189 1547.29,85.8189 1551.3,85.8189 1555.31,85.8189 1559.32,85.8189 1563.32,85.8189 1567.33,85.8189 1571.34,85.8189 1575.35,85.8189 1579.35,85.8189 1583.36,85.8189 1587.37,85.8189 1591.38,85.8189 1595.39,85.8189 1599.39,85.8189 1603.4,85.8189 1607.41,85.8189 1611.42,85.8189 1615.43,85.8189 1619.43,85.8189 1623.44,85.8189 1627.45,85.8189 1631.46,85.8189 1635.47,85.8189 1639.47,85.8189 1643.48,85.8189 1647.49,85.8189 1651.5,85.8189 1655.5,85.8189 1659.51,85.8189 1663.52,85.8189 1667.53,85.8189 1671.54,85.8189 1675.54,85.8189 1679.55,85.8189 1683.56,85.8189 1687.57,85.8189 1691.58,85.8189 1695.58,85.8189 1699.59,85.8189 1703.6,85.8189 1707.61,85.8189 1711.61,85.8189 1715.62,85.8189 1719.63,85.8189 1723.64,85.8189 1727.65,85.8189 1731.65,85.8189 1735.66,85.8189 1739.67,85.8189 1743.68,85.8189 1747.69,85.8189 1751.69,85.8189 1755.7,85.8189 1759.71,85.8189 1763.72,85.8189 1767.73,85.8189 1771.73,85.8189 1775.74,85.8189 1779.75,85.8189 1783.76,85.8189 1787.76,85.8189 1791.77,85.8189 1795.78,85.8189 1799.79,85.8189 1803.8,85.8189 1807.8,85.8189 1811.81,85.8189 1815.82,85.8189 1819.83,85.8189 1823.84,85.8189 1827.84,85.8189 1831.85,85.8189 1835.86,85.8189 1839.87,85.8189 1843.87,85.8189 1847.88,85.8189 1851.89,85.8189 1855.9,85.8189 1859.91,85.8189 1863.91,85.8189 1867.92,85.8189 1871.93,85.8189 1875.94,85.8189 1879.95,85.8189 1883.95,85.8189 1887.96,85.8189 1891.97,85.8189 1895.98,85.8189 1899.99,85.8189 1903.99,85.8189 1908,85.8189 1912.01,85.8189 1916.02,85.8189 1920.02,85.8189 1924.03,85.8189 1928.04,85.8189 1932.05,85.8189 1936.06,85.8189 1940.06,85.8189 1944.07,85.8189 1948.08,85.8189 1952.09,85.8189 1956.1,85.8189 1960.1,85.8189 1964.11,85.8189 1968.12,85.8189 1972.13,85.8189 1976.14,85.8189 1980.14,85.8189 1984.15,85.8189 1988.16,85.8189 1992.17,85.8189 1996.17,85.8189 2000.18,85.8189 2004.19,85.8189 2008.2,85.8189 2012.21,85.8189 2016.21,85.8189 2020.22,85.8189 2024.23,85.8189 2028.24,85.8189 2032.25,85.8189 2036.25,85.8189 2040.26,85.8189 2044.27,85.8189 2048.28,85.8189 2052.28,85.8189 2056.29,85.8189 2060.3,85.8189 2064.31,85.8189 2068.32,85.8189 2072.32,85.8189 2076.33,85.8189 2080.34,85.8189 2084.35,85.8189 2088.36,85.8189 2092.36,85.8189 2096.37,85.8189 2100.38,85.8189 2104.39,85.8189 2108.4,85.8189 2112.4,85.8189 2116.41,85.8189 2120.42,85.8189 2124.43,85.8189 2128.43,85.8189 2132.44,85.8189 2136.45,85.8189 2140.46,85.8189 2144.47,85.8189 2148.47,85.8189 2152.48,85.8189 2156.49,85.8189 2160.5,85.8189 2164.51,85.8189 2168.51,85.8189 2172.52,85.8189 2176.53,85.8189 2180.54,85.8189 2184.55,85.8189 2188.55,85.8189 2192.56,85.8189 2196.57,85.8189 2200.58,85.8189 2204.58,85.8189 2208.59,85.8189 2212.6,85.8189 2216.61,85.8189 2220.62,85.8189 2224.62,85.8189 2228.63,85.8189 2232.64,85.8189 2236.65,85.8189 2240.66,85.8189 2244.66,85.8189 2248.67,85.8189 2252.68,85.8189 2256.69,85.8189 2260.69,85.8189 2264.7,85.8189 2268.71,85.8189 2272.72,85.8189 2276.73,85.8189 2280.73,85.8189 2284.74,85.8189 2288.75,85.8189 2292.76,85.8189 "/>
<polyline clip-path="url(#clip842)" style="stroke:#000000; stroke-linecap:round; stroke-linejoin:round; stroke-width:8; stroke-opacity:1; fill:none" stroke-dasharray="32, 20" points="292.824,85.8189 296.832,85.8189 300.84,85.8189 304.848,85.8189 308.856,85.8189 312.864,85.8189 316.872,85.8189 320.879,85.8189 324.887,85.8189 328.895,85.8189 332.903,85.8189 336.911,85.8189 340.919,85.8189 344.927,85.8189 348.935,85.8189 352.943,85.8189 356.95,85.8189 360.958,85.8189 364.966,85.8189 368.974,85.8189 372.982,85.8189 376.99,85.8189 380.998,85.8189 385.006,85.8189 389.013,85.8189 393.021,85.8189 397.029,85.8189 401.037,85.8189 405.045,85.8189 409.053,85.8189 413.061,85.8189 417.069,85.8189 421.077,85.8189 425.084,85.8189 429.092,85.8189 433.1,85.8189 437.108,85.8189 441.116,85.8189 445.124,85.8189 449.132,85.8189 453.14,85.8189 457.147,85.8189 461.155,85.8189 465.163,85.8189 469.171,85.8189 473.179,85.8189 477.187,85.8189 481.195,85.8189 485.203,85.8189 489.211,85.8189 493.218,85.8189 497.226,85.8189 501.234,85.8189 505.242,85.8189 509.25,85.8189 513.258,85.8189 517.266,85.8189 521.274,85.8189 525.281,85.8189 529.289,85.8189 533.297,85.8189 537.305,85.8189 541.313,85.8189 545.321,85.8189 549.329,85.8189 553.337,85.8189 557.345,85.8189 561.352,85.8189 565.36,85.8189 569.368,85.8189 573.376,85.8189 577.384,85.8189 581.392,85.8189 585.4,85.8189 589.408,85.8189 593.416,85.8189 597.423,85.8189 601.431,85.8189 605.439,85.8189 609.447,85.8189 613.455,85.8189 617.463,85.8189 621.471,85.8189 625.479,85.8189 629.486,85.8189 633.494,85.8189 637.502,85.8189 641.51,85.8189 645.518,85.8189 649.526,85.8189 653.534,85.8189 657.542,85.8189 661.55,85.8189 665.557,85.8189 669.565,85.8189 673.573,85.8189 677.581,85.8189 681.589,85.8189 685.597,85.8189 689.605,85.8189 693.613,85.8189 697.62,85.8189 701.628,85.8189 705.636,85.8189 709.644,85.8189 713.652,85.8189 717.66,85.8189 721.668,85.8189 725.676,85.8189 729.684,85.8189 733.691,85.8189 737.699,85.8189 741.707,85.8189 745.715,85.8189 749.723,85.8189 753.731,85.8189 757.739,85.8189 761.747,85.8189 765.754,85.8189 769.762,85.8189 773.77,85.8189 777.778,85.8189 781.786,85.8189 785.794,85.8189 789.802,85.8189 793.81,85.8189 797.818,85.8189 801.825,85.8189 805.833,85.8189 809.841,85.8189 813.849,85.8189 817.857,85.8189 821.865,85.8189 825.873,85.8189 829.881,85.8189 833.888,85.8189 837.896,85.8189 841.904,85.8189 845.912,85.8189 849.92,85.8189 853.928,85.8189 857.936,85.8189 861.944,85.8189 865.952,85.8189 869.959,85.8189 873.967,85.8189 877.975,85.8189 881.983,85.8189 885.991,85.8189 889.999,85.8189 894.007,85.8189 898.015,85.8189 902.022,85.8189 906.03,85.8189 910.038,85.8189 914.046,85.8189 918.054,85.8189 922.062,85.8189 926.07,85.8189 930.078,85.8189 934.086,85.8189 938.093,85.8189 942.101,85.8189 946.109,85.8189 950.117,85.8189 954.125,85.8189 958.133,85.8189 962.141,85.8189 966.149,85.8189 970.157,85.8189 974.164,85.8189 978.172,85.8189 982.18,85.8189 986.188,85.8189 990.196,85.8189 994.204,85.8189 998.212,85.8189 1002.22,85.8189 1006.23,85.8189 1010.24,85.8189 1014.24,85.8189 1018.25,85.8189 1022.26,85.8189 1026.27,85.8189 1030.27,85.8189 1034.28,85.8189 1038.29,85.8189 1042.3,85.8189 1046.31,85.8189 1050.31,85.8189 1054.32,85.8189 1058.33,85.8189 1062.34,85.8189 1066.35,85.8189 1070.35,85.8189 1074.36,85.8189 1078.37,85.8189 1082.38,85.8189 1086.39,85.8189 1090.39,85.8189 1094.4,85.8189 1098.41,85.8189 1102.42,85.8189 1106.42,85.8189 1110.43,85.8189 1114.44,85.8189 1118.45,85.8189 1122.46,85.8189 1126.46,85.8189 1130.47,85.8189 1134.48,85.8189 1138.49,85.8189 1142.5,85.8189 1146.5,85.8189 1150.51,85.8189 1154.52,85.8189 1158.53,85.8189 1162.53,85.8189 1166.54,85.8189 1170.55,85.8189 1174.56,85.8189 1178.57,85.8189 1182.57,85.8189 1186.58,85.8189 1190.59,85.8189 1194.6,85.8189 1198.61,85.8189 1202.61,85.8189 1206.62,85.8189 1210.63,85.8189 1214.64,85.8189 1218.65,85.8189 1222.65,85.8189 1226.66,85.8189 1230.67,85.8189 1234.68,85.8189 1238.68,85.8189 1242.69,85.8189 1246.7,85.8189 1250.71,85.8189 1254.72,85.8189 1258.72,85.8189 1262.73,85.8189 1266.74,85.8189 1270.75,85.8189 1274.76,85.8189 1278.76,85.8189 1282.77,85.8189 1286.78,85.8189 1290.79,85.8189 1294.8,85.8189 1298.8,85.8189 1302.81,85.8189 1306.82,85.8189 1310.83,85.8189 1314.83,85.8189 1318.84,85.8189 1322.85,85.8189 1326.86,85.8189 1330.87,85.8189 1334.87,85.8189 1338.88,85.8189 1342.89,85.8189 1346.9,85.8189 1350.91,85.8189 1354.91,85.8189 1358.92,85.8189 1362.93,85.8189 1366.94,85.8189 1370.94,85.8189 1374.95,85.8189 1378.96,85.8189 1382.97,85.8189 1386.98,85.8189 1390.98,85.8189 1394.99,85.8189 1399,85.8189 1403.01,85.8189 1407.02,85.8189 1411.02,85.8189 1415.03,85.8189 1419.04,85.8189 1423.05,85.8189 1427.06,85.8189 1431.06,85.8189 1435.07,85.8189 1439.08,85.8189 1443.09,85.8189 1447.09,85.8189 1451.1,85.8189 1455.11,85.8189 1459.12,85.8189 1463.13,85.8189 1467.13,85.8189 1471.14,85.8189 1475.15,85.8189 1479.16,85.8189 1483.17,85.8189 1487.17,85.8189 1491.18,85.8189 1495.19,85.8189 1499.2,85.8189 1503.2,85.8189 1507.21,85.8189 1511.22,85.8189 1515.23,85.8189 1519.24,85.8189 1523.24,85.8189 1527.25,85.8189 1531.26,85.8189 1535.27,85.8189 1539.28,85.8189 1543.28,85.8189 1547.29,85.8189 1551.3,85.8189 1555.31,85.8189 1559.32,85.8189 1563.32,85.8189 1567.33,85.8189 1571.34,85.8189 1575.35,85.8189 1579.35,85.8189 1583.36,85.8189 1587.37,85.8189 1591.38,85.8189 1595.39,85.8189 1599.39,85.8189 1603.4,85.8189 1607.41,85.8189 1611.42,85.8189 1615.43,85.8189 1619.43,85.8189 1623.44,85.8189 1627.45,85.8189 1631.46,85.8189 1635.47,85.8189 1639.47,85.8189 1643.48,85.8189 1647.49,85.8189 1651.5,85.8189 1655.5,85.8189 1659.51,85.8189 1663.52,85.8189 1667.53,85.8189 1671.54,85.8189 1675.54,85.8189 1679.55,85.8189 1683.56,85.8189 1687.57,85.8189 1691.58,85.8189 1695.58,85.8189 1699.59,85.8189 1703.6,85.8189 1707.61,85.8189 1711.61,85.8189 1715.62,85.8189 1719.63,85.8189 1723.64,85.8189 1727.65,85.8189 1731.65,85.8189 1735.66,85.8189 1739.67,85.8189 1743.68,85.8189 1747.69,85.8189 1751.69,85.8189 1755.7,85.8189 1759.71,85.8189 1763.72,85.8189 1767.73,85.8189 1771.73,85.8189 1775.74,85.8189 1779.75,85.8189 1783.76,85.8189 1787.76,85.8189 1791.77,85.8189 1795.78,85.8189 1799.79,85.8189 1803.8,85.8189 1807.8,85.8189 1811.81,85.8189 1815.82,85.8189 1819.83,85.8189 1823.84,85.8189 1827.84,85.8189 1831.85,85.8189 1835.86,85.8189 1839.87,85.8189 1843.87,85.8189 1847.88,85.8189 1851.89,85.8189 1855.9,85.8189 1859.91,85.8189 1863.91,85.8189 1867.92,85.8189 1871.93,85.8189 1875.94,85.8189 1879.95,85.8189 1883.95,85.8189 1887.96,85.8189 1891.97,85.8189 1895.98,85.8189 1899.99,85.8189 1903.99,85.8189 1908,85.8189 1912.01,85.8189 1916.02,85.8189 1920.02,85.8189 1924.03,85.8189 1928.04,85.8189 1932.05,85.8189 1936.06,85.8189 1940.06,85.8189 1944.07,85.8189 1948.08,85.8189 1952.09,85.8189 1956.1,85.8189 1960.1,85.8189 1964.11,85.8189 1968.12,85.8189 1972.13,85.8189 1976.14,85.8189 1980.14,85.8189 1984.15,85.8189 1988.16,85.8189 1992.17,85.8189 1996.17,85.8189 2000.18,85.8189 2004.19,85.8189 2008.2,85.8189 2012.21,85.8189 2016.21,85.8189 2020.22,85.8189 2024.23,85.8189 2028.24,85.8189 2032.25,85.8189 2036.25,85.8189 2040.26,85.8189 2044.27,85.8189 2048.28,85.8189 2052.28,85.8189 2056.29,85.8189 2060.3,85.8189 2064.31,85.8189 2068.32,85.8189 2072.32,85.8189 2076.33,85.8189 2080.34,85.8189 2084.35,85.8189 2088.36,85.8189 2092.36,85.8189 2096.37,85.8189 2100.38,85.8189 2104.39,85.8189 2108.4,85.8189 2112.4,85.8189 2116.41,85.8189 2120.42,85.8189 2124.43,85.8189 2128.43,85.8189 2132.44,85.8189 2136.45,85.8189 2140.46,85.8189 2144.47,85.8189 2148.47,85.8189 2152.48,85.8189 2156.49,85.8189 2160.5,85.8189 2164.51,85.8189 2168.51,85.8189 2172.52,85.8189 2176.53,85.8189 2180.54,85.8189 2184.55,85.8189 2188.55,85.8189 2192.56,85.8189 2196.57,85.8189 2200.58,85.8189 2204.58,85.8189 2208.59,85.8189 2212.6,85.8189 2216.61,85.8189 2220.62,85.8189 2224.62,85.8189 2228.63,85.8189 2232.64,85.8189 2236.65,85.8189 2240.66,85.8189 2244.66,85.8189 2248.67,85.8189 2252.68,85.8189 2256.69,85.8189 2260.69,85.8189 2264.7,85.8189 2268.71,85.8189 2272.72,85.8189 2276.73,85.8189 2280.73,85.8189 2284.74,85.8189 2288.75,85.8189 2292.76,85.8189 "/>
<polyline clip-path="url(#clip842)" style="stroke:#000000; stroke-linecap:round; stroke-linejoin:round; stroke-width:8; stroke-opacity:1; fill:none" stroke-dasharray="4, 8" points="405.045,2773.2 405.045,-1315.73 "/>
<polyline clip-path="url(#clip842)" style="stroke:#000000; stroke-linecap:round; stroke-linejoin:round; stroke-width:4; stroke-opacity:1; fill:none" points="-1887.1,1371.65 4472.69,1371.65 "/>
<polyline clip-path="url(#clip842)" style="stroke:#808080; stroke-linecap:round; stroke-linejoin:round; stroke-width:8; stroke-opacity:1; fill:none" points="298.824,2773.2 298.824,-1315.73 "/>
</svg>
