<?xml version="1.0" encoding="utf-8"?>
<svg xmlns="http://www.w3.org/2000/svg" xmlns:xlink="http://www.w3.org/1999/xlink" width="600" height="400" viewBox="0 0 2400 1600">
<defs>
  <clipPath id="clip120">
    <rect x="0" y="0" width="2400" height="1600"/>
  </clipPath>
</defs>
<path clip-path="url(#clip120)" d="M0 1600 L2400 1600 L2400 0 L0 0  Z" fill="#ffffff" fill-rule="evenodd" fill-opacity="1"/>
<defs>
  <clipPath id="clip121">
    <rect x="480" y="0" width="1681" height="1600"/>
  </clipPath>
</defs>
<defs>
  <clipPath id="clip122">
    <rect x="262" y="47" width="2091" height="1364"/>
  </clipPath>
</defs>
<path clip-path="url(#clip120)" d="M262.502 1410.22 L2352.76 1410.22 L2352.76 47.2441 L262.502 47.2441  Z" fill="#ffffff" fill-rule="evenodd" fill-opacity="1"/>
<polyline clip-path="url(#clip122)" style="stroke:#000000; stroke-linecap:round; stroke-linejoin:round; stroke-width:2; stroke-opacity:0.1; fill:none" points="474.185,1410.22 474.185,47.2441 "/>
<polyline clip-path="url(#clip122)" style="stroke:#000000; stroke-linecap:round; stroke-linejoin:round; stroke-width:2; stroke-opacity:0.1; fill:none" points="978.256,1410.22 978.256,47.2441 "/>
<polyline clip-path="url(#clip122)" style="stroke:#000000; stroke-linecap:round; stroke-linejoin:round; stroke-width:2; stroke-opacity:0.1; fill:none" points="1482.33,1410.22 1482.33,47.2441 "/>
<polyline clip-path="url(#clip122)" style="stroke:#000000; stroke-linecap:round; stroke-linejoin:round; stroke-width:2; stroke-opacity:0.1; fill:none" points="1986.4,1410.22 1986.4,47.2441 "/>
<polyline clip-path="url(#clip120)" style="stroke:#000000; stroke-linecap:round; stroke-linejoin:round; stroke-width:4; stroke-opacity:1; fill:none" points="262.502,1410.22 2352.76,1410.22 "/>
<polyline clip-path="url(#clip120)" style="stroke:#000000; stroke-linecap:round; stroke-linejoin:round; stroke-width:4; stroke-opacity:1; fill:none" points="474.185,1410.22 474.185,1391.32 "/>
<polyline clip-path="url(#clip120)" style="stroke:#000000; stroke-linecap:round; stroke-linejoin:round; stroke-width:4; stroke-opacity:1; fill:none" points="978.256,1410.22 978.256,1391.32 "/>
<polyline clip-path="url(#clip120)" style="stroke:#000000; stroke-linecap:round; stroke-linejoin:round; stroke-width:4; stroke-opacity:1; fill:none" points="1482.33,1410.22 1482.33,1391.32 "/>
<polyline clip-path="url(#clip120)" style="stroke:#000000; stroke-linecap:round; stroke-linejoin:round; stroke-width:4; stroke-opacity:1; fill:none" points="1986.4,1410.22 1986.4,1391.32 "/>
<path clip-path="url(#clip120)" d="M444.127 1455.79 L473.803 1455.79 L473.803 1459.73 L444.127 1459.73 L444.127 1455.79 Z" fill="#000000" fill-rule="nonzero" fill-opacity="1" /><path clip-path="url(#clip120)" d="M487.923 1468.68 L504.242 1468.68 L504.242 1472.62 L482.298 1472.62 L482.298 1468.68 Q484.96 1465.93 489.543 1461.3 Q494.15 1456.65 495.33 1455.31 Q497.576 1452.78 498.455 1451.05 Q499.358 1449.29 499.358 1447.6 Q499.358 1444.84 497.414 1443.11 Q495.492 1441.37 492.39 1441.37 Q490.191 1441.37 487.738 1442.13 Q485.307 1442.9 482.529 1444.45 L482.529 1439.73 Q485.353 1438.59 487.807 1438.01 Q490.261 1437.43 492.298 1437.43 Q497.668 1437.43 500.863 1440.12 Q504.057 1442.81 504.057 1447.3 Q504.057 1449.43 503.247 1451.35 Q502.46 1453.24 500.353 1455.84 Q499.775 1456.51 496.673 1459.73 Q493.571 1462.92 487.923 1468.68 Z" fill="#000000" fill-rule="nonzero" fill-opacity="1" /><path clip-path="url(#clip120)" d="M948.013 1455.79 L977.688 1455.79 L977.688 1459.73 L948.013 1459.73 L948.013 1455.79 Z" fill="#000000" fill-rule="nonzero" fill-opacity="1" /><path clip-path="url(#clip120)" d="M988.591 1468.68 L996.23 1468.68 L996.23 1442.32 L987.92 1443.99 L987.92 1439.73 L996.184 1438.06 L1000.86 1438.06 L1000.86 1468.68 L1008.5 1468.68 L1008.5 1472.62 L988.591 1472.62 L988.591 1468.68 Z" fill="#000000" fill-rule="nonzero" fill-opacity="1" /><path clip-path="url(#clip120)" d="M1482.33 1441.14 Q1478.72 1441.14 1476.89 1444.7 Q1475.08 1448.24 1475.08 1455.37 Q1475.08 1462.48 1476.89 1466.05 Q1478.72 1469.59 1482.33 1469.59 Q1485.96 1469.59 1487.77 1466.05 Q1489.6 1462.48 1489.6 1455.37 Q1489.6 1448.24 1487.77 1444.7 Q1485.96 1441.14 1482.33 1441.14 M1482.33 1437.43 Q1488.14 1437.43 1491.19 1442.04 Q1494.27 1446.62 1494.27 1455.37 Q1494.27 1464.1 1491.19 1468.71 Q1488.14 1473.29 1482.33 1473.29 Q1476.52 1473.29 1473.44 1468.71 Q1470.38 1464.1 1470.38 1455.37 Q1470.38 1446.62 1473.44 1442.04 Q1476.52 1437.43 1482.33 1437.43 Z" fill="#000000" fill-rule="nonzero" fill-opacity="1" /><path clip-path="url(#clip120)" d="M1976.78 1468.68 L1984.42 1468.68 L1984.42 1442.32 L1976.11 1443.99 L1976.11 1439.73 L1984.37 1438.06 L1989.05 1438.06 L1989.05 1468.68 L1996.69 1468.68 L1996.69 1472.62 L1976.78 1472.62 L1976.78 1468.68 Z" fill="#000000" fill-rule="nonzero" fill-opacity="1" /><path clip-path="url(#clip120)" d="M1230.09 1562.28 L1230.09 1559.7 Q1234.56 1559.7 1235.58 1559.16 Q1236.61 1558.59 1236.61 1555.88 L1236.61 1512.23 Q1236.61 1509.11 1235.5 1508.34 Q1234.44 1507.56 1230.09 1507.56 L1230.09 1504.93 L1242.14 1504.03 L1242.14 1555.88 Q1242.14 1558.59 1243.21 1559.16 Q1244.27 1559.7 1248.7 1559.7 L1248.7 1562.28 Q1247.68 1562.28 1245.54 1562.2 Q1243.41 1562.11 1241.86 1562.07 Q1240.3 1562.03 1239.4 1562.03 Q1238.41 1562.03 1230.09 1562.28 Z" fill="#000000" fill-rule="nonzero" fill-opacity="1" /><path clip-path="url(#clip120)" d="M1253.78 1562.28 L1253.78 1559.7 Q1258.25 1559.7 1259.27 1559.16 Q1260.3 1558.59 1260.3 1555.88 L1260.3 1533.38 Q1260.3 1530.26 1259.19 1529.49 Q1258.13 1528.71 1253.78 1528.71 L1253.78 1526.08 L1265.59 1525.18 L1265.59 1533.99 Q1269.52 1525.18 1278.01 1525.18 Q1284.32 1525.18 1286.82 1528.3 Q1288.66 1530.39 1289.03 1532.72 Q1289.44 1535.06 1289.44 1541.13 L1289.44 1557.15 Q1289.52 1558.92 1290.88 1559.33 Q1292.23 1559.7 1296 1559.7 L1296 1562.28 Q1287.43 1562.03 1286.57 1562.03 Q1285.92 1562.03 1277.1 1562.28 L1277.1 1559.7 Q1281.57 1559.7 1282.6 1559.16 Q1283.66 1558.59 1283.66 1555.88 L1283.66 1536.33 Q1283.66 1532.07 1282.35 1529.57 Q1281.04 1527.03 1277.43 1527.03 Q1273.09 1527.03 1269.6 1530.67 Q1266.12 1534.32 1266.12 1540.47 L1266.12 1555.88 Q1266.12 1558.59 1267.14 1559.16 Q1268.21 1559.7 1272.64 1559.7 L1272.64 1562.28 Q1264.07 1562.03 1263.25 1562.03 Q1262.59 1562.03 1253.78 1562.28 Z" fill="#000000" fill-rule="nonzero" fill-opacity="1" /><path clip-path="url(#clip120)" d="M1372.87 1515.84 Q1372.87 1514.48 1372.5 1513.38 Q1372.17 1512.23 1371.64 1511.45 Q1371.14 1510.63 1370.2 1510.02 Q1369.26 1509.36 1368.48 1508.95 Q1367.7 1508.54 1366.39 1508.29 Q1365.08 1508.01 1364.22 1507.88 Q1363.36 1507.72 1361.88 1507.64 Q1360.4 1507.56 1359.67 1507.56 Q1358.97 1507.56 1357.58 1507.56 Q1353.19 1507.56 1352.45 1507.64 Q1351.35 1507.8 1350.94 1508.46 Q1350.53 1509.07 1350.12 1510.75 L1344.67 1532.64 L1354.05 1532.64 Q1359.18 1532.64 1362.7 1531.21 Q1366.23 1529.77 1368.23 1527.76 Q1370.45 1525.55 1371.64 1521.99 Q1372.87 1518.42 1372.87 1515.84 M1382.01 1554.49 Q1382.01 1554.94 1381.64 1555.97 Q1381.31 1556.99 1380.49 1558.42 Q1379.67 1559.82 1378.56 1561.09 Q1377.46 1562.36 1375.69 1563.22 Q1373.93 1564.12 1371.92 1564.12 Q1371.43 1564.12 1370.94 1564.08 Q1370.45 1564.08 1369.22 1563.88 Q1368.03 1563.71 1367.05 1563.38 Q1366.06 1563.1 1364.83 1562.4 Q1363.6 1561.74 1362.74 1560.84 Q1361.92 1559.9 1361.35 1558.42 Q1360.77 1556.91 1360.77 1555.06 Q1360.77 1553.42 1362.13 1547.93 Q1363.32 1543.26 1363.32 1542.11 Q1363.32 1540.84 1362.91 1539.65 Q1362.54 1538.46 1361.59 1537.23 Q1360.69 1536 1358.77 1535.27 Q1356.84 1534.49 1354.13 1534.49 L1344.17 1534.49 L1338.6 1556.74 Q1338.6 1556.78 1338.48 1557.36 Q1338.35 1557.89 1338.35 1558.18 Q1338.35 1558.71 1338.68 1559.04 Q1339.05 1559.37 1339.95 1559.53 Q1340.85 1559.65 1341.55 1559.7 Q1342.29 1559.7 1343.8 1559.7 Q1345.69 1559.7 1346.02 1560.02 Q1346.18 1560.23 1346.18 1560.6 Q1346.18 1561.17 1346.02 1561.58 Q1345.89 1561.95 1345.57 1562.07 Q1345.28 1562.2 1345.07 1562.24 Q1344.87 1562.28 1344.5 1562.28 L1333.84 1562.03 L1323.27 1562.28 Q1322.08 1562.28 1322.08 1561.33 Q1322.08 1560.51 1322.37 1560.19 Q1322.65 1559.82 1323.02 1559.78 Q1323.39 1559.7 1324.33 1559.7 Q1326.38 1559.7 1327.61 1559.57 Q1328.84 1559.45 1329.62 1559.29 Q1330.44 1559.08 1330.85 1558.51 Q1331.3 1557.93 1331.51 1557.44 Q1331.71 1556.91 1332 1555.72 L1343.23 1510.63 Q1343.56 1509.28 1343.56 1509.07 Q1343.56 1508.29 1343.07 1508.09 Q1342.62 1507.84 1341.3 1507.72 L1338.11 1507.56 Q1337.12 1507.56 1336.71 1507.52 Q1336.34 1507.47 1336.06 1507.27 Q1335.77 1507.06 1335.77 1506.61 Q1335.77 1505.47 1336.26 1505.22 Q1336.75 1504.93 1338.19 1504.93 L1362.13 1504.93 Q1370.28 1504.93 1375.45 1508.5 Q1380.65 1512.07 1380.65 1517.52 Q1380.65 1519.98 1379.55 1522.27 Q1378.44 1524.57 1376.6 1526.37 Q1374.79 1528.17 1372.37 1529.69 Q1369.96 1531.17 1367.37 1532.19 Q1364.83 1533.18 1362.21 1533.75 Q1363.36 1534.16 1364.42 1534.77 Q1365.53 1535.39 1366.92 1536.54 Q1368.36 1537.68 1369.22 1539.53 Q1370.08 1541.37 1370.08 1543.63 Q1370.08 1545.23 1369.75 1547.6 Q1368.93 1554.37 1368.93 1557.15 Q1368.93 1559.82 1369.63 1561.05 Q1370.32 1562.28 1372.29 1562.28 Q1374.22 1562.28 1376.35 1560.56 Q1378.52 1558.79 1379.92 1554.65 Q1380.24 1553.46 1381.02 1553.46 Q1381.06 1553.46 1381.1 1553.46 Q1381.19 1553.46 1381.35 1553.55 Q1381.51 1553.59 1381.64 1553.71 Q1381.8 1553.79 1381.88 1554 Q1382.01 1554.2 1382.01 1554.49 Z" fill="#000000" fill-rule="nonzero" fill-opacity="1" /><polyline clip-path="url(#clip122)" style="stroke:#000000; stroke-linecap:round; stroke-linejoin:round; stroke-width:2; stroke-opacity:0.1; fill:none" points="262.502,1371.65 2352.76,1371.65 "/>
<polyline clip-path="url(#clip122)" style="stroke:#000000; stroke-linecap:round; stroke-linejoin:round; stroke-width:2; stroke-opacity:0.1; fill:none" points="262.502,1050.19 2352.76,1050.19 "/>
<polyline clip-path="url(#clip122)" style="stroke:#000000; stroke-linecap:round; stroke-linejoin:round; stroke-width:2; stroke-opacity:0.1; fill:none" points="262.502,728.732 2352.76,728.732 "/>
<polyline clip-path="url(#clip122)" style="stroke:#000000; stroke-linecap:round; stroke-linejoin:round; stroke-width:2; stroke-opacity:0.1; fill:none" points="262.502,407.275 2352.76,407.275 "/>
<polyline clip-path="url(#clip122)" style="stroke:#000000; stroke-linecap:round; stroke-linejoin:round; stroke-width:2; stroke-opacity:0.1; fill:none" points="262.502,85.8189 2352.76,85.8189 "/>
<polyline clip-path="url(#clip120)" style="stroke:#000000; stroke-linecap:round; stroke-linejoin:round; stroke-width:4; stroke-opacity:1; fill:none" points="262.502,1410.22 262.502,47.2441 "/>
<polyline clip-path="url(#clip120)" style="stroke:#000000; stroke-linecap:round; stroke-linejoin:round; stroke-width:4; stroke-opacity:1; fill:none" points="262.502,1371.65 281.4,1371.65 "/>
<polyline clip-path="url(#clip120)" style="stroke:#000000; stroke-linecap:round; stroke-linejoin:round; stroke-width:4; stroke-opacity:1; fill:none" points="262.502,1050.19 281.4,1050.19 "/>
<polyline clip-path="url(#clip120)" style="stroke:#000000; stroke-linecap:round; stroke-linejoin:round; stroke-width:4; stroke-opacity:1; fill:none" points="262.502,728.732 281.4,728.732 "/>
<polyline clip-path="url(#clip120)" style="stroke:#000000; stroke-linecap:round; stroke-linejoin:round; stroke-width:4; stroke-opacity:1; fill:none" points="262.502,407.275 281.4,407.275 "/>
<polyline clip-path="url(#clip120)" style="stroke:#000000; stroke-linecap:round; stroke-linejoin:round; stroke-width:4; stroke-opacity:1; fill:none" points="262.502,85.8189 281.4,85.8189 "/>
<path clip-path="url(#clip120)" d="M139.165 1357.44 Q135.553 1357.44 133.725 1361.01 Q131.919 1364.55 131.919 1371.68 Q131.919 1378.79 133.725 1382.35 Q135.553 1385.89 139.165 1385.89 Q142.799 1385.89 144.604 1382.35 Q146.433 1378.79 146.433 1371.68 Q146.433 1364.55 144.604 1361.01 Q142.799 1357.44 139.165 1357.44 M139.165 1353.74 Q144.975 1353.74 148.03 1358.35 Q151.109 1362.93 151.109 1371.68 Q151.109 1380.41 148.03 1385.01 Q144.975 1389.6 139.165 1389.6 Q133.354 1389.6 130.276 1385.01 Q127.22 1380.41 127.22 1371.68 Q127.22 1362.93 130.276 1358.35 Q133.354 1353.74 139.165 1353.74 Z" fill="#000000" fill-rule="nonzero" fill-opacity="1" /><path clip-path="url(#clip120)" d="M159.326 1383.05 L164.211 1383.05 L164.211 1388.93 L159.326 1388.93 L159.326 1383.05 Z" fill="#000000" fill-rule="nonzero" fill-opacity="1" /><path clip-path="url(#clip120)" d="M184.396 1357.44 Q180.785 1357.44 178.956 1361.01 Q177.15 1364.55 177.15 1371.68 Q177.15 1378.79 178.956 1382.35 Q180.785 1385.89 184.396 1385.89 Q188.03 1385.89 189.836 1382.35 Q191.664 1378.79 191.664 1371.68 Q191.664 1364.55 189.836 1361.01 Q188.03 1357.44 184.396 1357.44 M184.396 1353.74 Q190.206 1353.74 193.261 1358.35 Q196.34 1362.93 196.34 1371.68 Q196.34 1380.41 193.261 1385.01 Q190.206 1389.6 184.396 1389.6 Q178.586 1389.6 175.507 1385.01 Q172.451 1380.41 172.451 1371.68 Q172.451 1362.93 175.507 1358.35 Q178.586 1353.74 184.396 1353.74 Z" fill="#000000" fill-rule="nonzero" fill-opacity="1" /><path clip-path="url(#clip120)" d="M214.558 1357.44 Q210.947 1357.44 209.118 1361.01 Q207.312 1364.55 207.312 1371.68 Q207.312 1378.79 209.118 1382.35 Q210.947 1385.89 214.558 1385.89 Q218.192 1385.89 219.997 1382.35 Q221.826 1378.79 221.826 1371.68 Q221.826 1364.55 219.997 1361.01 Q218.192 1357.44 214.558 1357.44 M214.558 1353.74 Q220.368 1353.74 223.423 1358.35 Q226.502 1362.93 226.502 1371.68 Q226.502 1380.41 223.423 1385.01 Q220.368 1389.6 214.558 1389.6 Q208.747 1389.6 205.669 1385.01 Q202.613 1380.41 202.613 1371.68 Q202.613 1362.93 205.669 1358.35 Q208.747 1353.74 214.558 1353.74 Z" fill="#000000" fill-rule="nonzero" fill-opacity="1" /><path clip-path="url(#clip120)" d="M140.16 1035.99 Q136.549 1035.99 134.72 1039.55 Q132.915 1043.09 132.915 1050.22 Q132.915 1057.33 134.72 1060.89 Q136.549 1064.44 140.16 1064.44 Q143.794 1064.44 145.6 1060.89 Q147.428 1057.33 147.428 1050.22 Q147.428 1043.09 145.6 1039.55 Q143.794 1035.99 140.16 1035.99 M140.16 1032.28 Q145.97 1032.28 149.026 1036.89 Q152.104 1041.47 152.104 1050.22 Q152.104 1058.95 149.026 1063.56 Q145.97 1068.14 140.16 1068.14 Q134.35 1068.14 131.271 1063.56 Q128.216 1058.95 128.216 1050.22 Q128.216 1041.47 131.271 1036.89 Q134.35 1032.28 140.16 1032.28 Z" fill="#000000" fill-rule="nonzero" fill-opacity="1" /><path clip-path="url(#clip120)" d="M160.322 1061.59 L165.206 1061.59 L165.206 1067.47 L160.322 1067.47 L160.322 1061.59 Z" fill="#000000" fill-rule="nonzero" fill-opacity="1" /><path clip-path="url(#clip120)" d="M179.419 1063.53 L195.738 1063.53 L195.738 1067.47 L173.794 1067.47 L173.794 1063.53 Q176.456 1060.78 181.039 1056.15 Q185.646 1051.5 186.826 1050.15 Q189.072 1047.63 189.951 1045.89 Q190.854 1044.14 190.854 1042.45 Q190.854 1039.69 188.91 1037.95 Q186.988 1036.22 183.887 1036.22 Q181.687 1036.22 179.234 1036.98 Q176.803 1037.75 174.025 1039.3 L174.025 1034.58 Q176.85 1033.44 179.303 1032.86 Q181.757 1032.28 183.794 1032.28 Q189.164 1032.28 192.359 1034.97 Q195.553 1037.65 195.553 1042.14 Q195.553 1044.27 194.743 1046.2 Q193.956 1048.09 191.849 1050.69 Q191.271 1051.36 188.169 1054.58 Q185.067 1057.77 179.419 1063.53 Z" fill="#000000" fill-rule="nonzero" fill-opacity="1" /><path clip-path="url(#clip120)" d="M205.599 1032.91 L223.956 1032.91 L223.956 1036.84 L209.882 1036.84 L209.882 1045.32 Q210.9 1044.97 211.919 1044.81 Q212.937 1044.62 213.956 1044.62 Q219.743 1044.62 223.122 1047.79 Q226.502 1050.96 226.502 1056.38 Q226.502 1061.96 223.03 1065.06 Q219.558 1068.14 213.238 1068.14 Q211.062 1068.14 208.794 1067.77 Q206.548 1067.4 204.141 1066.66 L204.141 1061.96 Q206.224 1063.09 208.447 1063.65 Q210.669 1064.2 213.146 1064.2 Q217.15 1064.2 219.488 1062.1 Q221.826 1059.99 221.826 1056.38 Q221.826 1052.77 219.488 1050.66 Q217.15 1048.56 213.146 1048.56 Q211.271 1048.56 209.396 1048.97 Q207.544 1049.39 205.599 1050.27 L205.599 1032.91 Z" fill="#000000" fill-rule="nonzero" fill-opacity="1" /><path clip-path="url(#clip120)" d="M139.165 714.531 Q135.553 714.531 133.725 718.095 Q131.919 721.637 131.919 728.767 Q131.919 735.873 133.725 739.438 Q135.553 742.98 139.165 742.98 Q142.799 742.98 144.604 739.438 Q146.433 735.873 146.433 728.767 Q146.433 721.637 144.604 718.095 Q142.799 714.531 139.165 714.531 M139.165 710.827 Q144.975 710.827 148.03 715.433 Q151.109 720.017 151.109 728.767 Q151.109 737.493 148.03 742.1 Q144.975 746.683 139.165 746.683 Q133.354 746.683 130.276 742.1 Q127.22 737.493 127.22 728.767 Q127.22 720.017 130.276 715.433 Q133.354 710.827 139.165 710.827 Z" fill="#000000" fill-rule="nonzero" fill-opacity="1" /><path clip-path="url(#clip120)" d="M159.326 740.132 L164.211 740.132 L164.211 746.012 L159.326 746.012 L159.326 740.132 Z" fill="#000000" fill-rule="nonzero" fill-opacity="1" /><path clip-path="url(#clip120)" d="M174.442 711.452 L192.799 711.452 L192.799 715.387 L178.725 715.387 L178.725 723.859 Q179.743 723.512 180.762 723.35 Q181.78 723.165 182.799 723.165 Q188.586 723.165 191.965 726.336 Q195.345 729.507 195.345 734.924 Q195.345 740.503 191.873 743.605 Q188.4 746.683 182.081 746.683 Q179.905 746.683 177.637 746.313 Q175.391 745.943 172.984 745.202 L172.984 740.503 Q175.067 741.637 177.289 742.193 Q179.512 742.748 181.988 742.748 Q185.993 742.748 188.331 740.642 Q190.669 738.535 190.669 734.924 Q190.669 731.313 188.331 729.207 Q185.993 727.1 181.988 727.1 Q180.113 727.1 178.238 727.517 Q176.387 727.933 174.442 728.813 L174.442 711.452 Z" fill="#000000" fill-rule="nonzero" fill-opacity="1" /><path clip-path="url(#clip120)" d="M214.558 714.531 Q210.947 714.531 209.118 718.095 Q207.312 721.637 207.312 728.767 Q207.312 735.873 209.118 739.438 Q210.947 742.98 214.558 742.98 Q218.192 742.98 219.997 739.438 Q221.826 735.873 221.826 728.767 Q221.826 721.637 219.997 718.095 Q218.192 714.531 214.558 714.531 M214.558 710.827 Q220.368 710.827 223.423 715.433 Q226.502 720.017 226.502 728.767 Q226.502 737.493 223.423 742.1 Q220.368 746.683 214.558 746.683 Q208.747 746.683 205.669 742.1 Q202.613 737.493 202.613 728.767 Q202.613 720.017 205.669 715.433 Q208.747 710.827 214.558 710.827 Z" fill="#000000" fill-rule="nonzero" fill-opacity="1" /><path clip-path="url(#clip120)" d="M140.16 393.074 Q136.549 393.074 134.72 396.639 Q132.915 400.181 132.915 407.31 Q132.915 414.417 134.72 417.981 Q136.549 421.523 140.16 421.523 Q143.794 421.523 145.6 417.981 Q147.428 414.417 147.428 407.31 Q147.428 400.181 145.6 396.639 Q143.794 393.074 140.16 393.074 M140.16 389.37 Q145.97 389.37 149.026 393.977 Q152.104 398.56 152.104 407.31 Q152.104 416.037 149.026 420.643 Q145.97 425.227 140.16 425.227 Q134.35 425.227 131.271 420.643 Q128.216 416.037 128.216 407.31 Q128.216 398.56 131.271 393.977 Q134.35 389.37 140.16 389.37 Z" fill="#000000" fill-rule="nonzero" fill-opacity="1" /><path clip-path="url(#clip120)" d="M160.322 418.676 L165.206 418.676 L165.206 424.555 L160.322 424.555 L160.322 418.676 Z" fill="#000000" fill-rule="nonzero" fill-opacity="1" /><path clip-path="url(#clip120)" d="M174.211 389.995 L196.433 389.995 L196.433 391.986 L183.887 424.555 L179.002 424.555 L190.808 393.931 L174.211 393.931 L174.211 389.995 Z" fill="#000000" fill-rule="nonzero" fill-opacity="1" /><path clip-path="url(#clip120)" d="M205.599 389.995 L223.956 389.995 L223.956 393.931 L209.882 393.931 L209.882 402.403 Q210.9 402.056 211.919 401.894 Q212.937 401.708 213.956 401.708 Q219.743 401.708 223.122 404.88 Q226.502 408.051 226.502 413.468 Q226.502 419.046 223.03 422.148 Q219.558 425.227 213.238 425.227 Q211.062 425.227 208.794 424.856 Q206.548 424.486 204.141 423.745 L204.141 419.046 Q206.224 420.18 208.447 420.736 Q210.669 421.292 213.146 421.292 Q217.15 421.292 219.488 419.185 Q221.826 417.079 221.826 413.468 Q221.826 409.856 219.488 407.75 Q217.15 405.643 213.146 405.643 Q211.271 405.643 209.396 406.06 Q207.544 406.477 205.599 407.356 L205.599 389.995 Z" fill="#000000" fill-rule="nonzero" fill-opacity="1" /><path clip-path="url(#clip120)" d="M129.975 99.1637 L137.614 99.1637 L137.614 72.7981 L129.303 74.4648 L129.303 70.2055 L137.567 68.5389 L142.243 68.5389 L142.243 99.1637 L149.882 99.1637 L149.882 103.099 L129.975 103.099 L129.975 99.1637 Z" fill="#000000" fill-rule="nonzero" fill-opacity="1" /><path clip-path="url(#clip120)" d="M159.326 97.2193 L164.211 97.2193 L164.211 103.099 L159.326 103.099 L159.326 97.2193 Z" fill="#000000" fill-rule="nonzero" fill-opacity="1" /><path clip-path="url(#clip120)" d="M184.396 71.6176 Q180.785 71.6176 178.956 75.1824 Q177.15 78.724 177.15 85.8536 Q177.15 92.96 178.956 96.5248 Q180.785 100.066 184.396 100.066 Q188.03 100.066 189.836 96.5248 Q191.664 92.96 191.664 85.8536 Q191.664 78.724 189.836 75.1824 Q188.03 71.6176 184.396 71.6176 M184.396 67.9139 Q190.206 67.9139 193.261 72.5203 Q196.34 77.1036 196.34 85.8536 Q196.34 94.5804 193.261 99.1869 Q190.206 103.77 184.396 103.77 Q178.586 103.77 175.507 99.1869 Q172.451 94.5804 172.451 85.8536 Q172.451 77.1036 175.507 72.5203 Q178.586 67.9139 184.396 67.9139 Z" fill="#000000" fill-rule="nonzero" fill-opacity="1" /><path clip-path="url(#clip120)" d="M214.558 71.6176 Q210.947 71.6176 209.118 75.1824 Q207.312 78.724 207.312 85.8536 Q207.312 92.96 209.118 96.5248 Q210.947 100.066 214.558 100.066 Q218.192 100.066 219.997 96.5248 Q221.826 92.96 221.826 85.8536 Q221.826 78.724 219.997 75.1824 Q218.192 71.6176 214.558 71.6176 M214.558 67.9139 Q220.368 67.9139 223.423 72.5203 Q226.502 77.1036 226.502 85.8536 Q226.502 94.5804 223.423 99.1869 Q220.368 103.77 214.558 103.77 Q208.747 103.77 205.669 99.1869 Q202.613 94.5804 202.613 85.8536 Q202.613 77.1036 205.669 72.5203 Q208.747 67.9139 214.558 67.9139 Z" fill="#000000" fill-rule="nonzero" fill-opacity="1" /><path clip-path="url(#clip120)" d="M76.0563 1220.17 L100.119 1220.17 L100.119 1227.66 L37.4917 1227.66 L37.4917 1220.17 L44.3783 1220.17 Q40.3274 1217.82 38.3829 1214.26 Q36.398 1210.65 36.398 1205.67 Q36.398 1197.4 42.9604 1192.26 Q49.5229 1187.07 60.2173 1187.07 Q70.9117 1187.07 77.4741 1192.26 Q84.0366 1197.4 84.0366 1205.67 Q84.0366 1210.65 82.0922 1214.26 Q80.1072 1217.82 76.0563 1220.17 M60.2173 1194.81 Q51.994 1194.81 47.3354 1198.21 Q42.6364 1201.58 42.6364 1207.49 Q42.6364 1213.41 47.3354 1216.81 Q51.994 1220.17 60.2173 1220.17 Q68.4406 1220.17 73.1397 1216.81 Q77.7982 1213.41 77.7982 1207.49 Q77.7982 1201.58 73.1397 1198.21 Q68.4406 1194.81 60.2173 1194.81 Z" fill="#000000" fill-rule="nonzero" fill-opacity="1" /><path clip-path="url(#clip120)" d="M44.4593 1148.43 Q43.7301 1149.68 43.406 1151.18 Q43.0415 1152.64 43.0415 1154.42 Q43.0415 1160.74 47.1734 1164.15 Q51.2648 1167.51 58.9615 1167.51 L82.8618 1167.51 L82.8618 1175 L37.4917 1175 L37.4917 1167.51 L44.5403 1167.51 Q40.4084 1165.16 38.4234 1161.39 Q36.398 1157.62 36.398 1152.24 Q36.398 1151.47 36.5195 1150.54 Q36.6005 1149.6 36.8031 1148.47 L44.4593 1148.43 Z" fill="#000000" fill-rule="nonzero" fill-opacity="1" /><path clip-path="url(#clip120)" d="M42.7174 1124.85 Q42.7174 1130.85 47.4164 1134.33 Q52.075 1137.82 60.2173 1137.82 Q68.3596 1137.82 73.0587 1134.37 Q77.7172 1130.89 77.7172 1124.85 Q77.7172 1118.9 73.0181 1115.41 Q68.3191 1111.93 60.2173 1111.93 Q52.156 1111.93 47.4569 1115.41 Q42.7174 1118.9 42.7174 1124.85 M36.398 1124.85 Q36.398 1115.13 42.7174 1109.58 Q49.0368 1104.03 60.2173 1104.03 Q71.3573 1104.03 77.7172 1109.58 Q84.0366 1115.13 84.0366 1124.85 Q84.0366 1134.62 77.7172 1140.16 Q71.3573 1145.67 60.2173 1145.67 Q49.0368 1145.67 42.7174 1140.16 Q36.398 1134.62 36.398 1124.85 Z" fill="#000000" fill-rule="nonzero" fill-opacity="1" /><path clip-path="url(#clip120)" d="M19.8298 1068.71 L26.0277 1068.71 L26.0277 1075.84 Q26.0277 1079.85 27.648 1081.43 Q29.2684 1082.97 33.4813 1082.97 L37.4917 1082.97 L37.4917 1070.69 L43.2845 1070.69 L43.2845 1082.97 L82.8618 1082.97 L82.8618 1090.46 L43.2845 1090.46 L43.2845 1097.59 L37.4917 1097.59 L37.4917 1090.46 L34.332 1090.46 Q26.7568 1090.46 23.3136 1086.94 Q19.8298 1083.41 19.8298 1075.76 L19.8298 1068.71 Z" fill="#000000" fill-rule="nonzero" fill-opacity="1" /><path clip-path="url(#clip120)" d="M37.4917 1062.47 L37.4917 1055.01 L82.8618 1055.01 L82.8618 1062.47 L37.4917 1062.47 M19.8298 1062.47 L19.8298 1055.01 L29.2684 1055.01 L29.2684 1062.47 L19.8298 1062.47 Z" fill="#000000" fill-rule="nonzero" fill-opacity="1" /><path clip-path="url(#clip120)" d="M19.8298 1039.42 L19.8298 1031.97 L82.8618 1031.97 L82.8618 1039.42 L19.8298 1039.42 Z" fill="#000000" fill-rule="nonzero" fill-opacity="1" /><path clip-path="url(#clip120)" d="M58.3134 977.562 L61.9592 977.562 L61.9592 1011.83 Q69.6559 1011.35 73.7068 1007.21 Q77.7172 1003.04 77.7172 995.629 Q77.7172 991.335 76.664 987.324 Q75.6107 983.273 73.5043 979.304 L80.5528 979.304 Q82.2542 983.314 83.1454 987.527 Q84.0366 991.74 84.0366 996.074 Q84.0366 1006.93 77.7172 1013.29 Q71.3978 1019.61 60.6224 1019.61 Q49.4824 1019.61 42.9604 1013.61 Q36.398 1007.58 36.398 997.371 Q36.398 988.216 42.3123 982.909 Q48.1861 977.562 58.3134 977.562 M56.1259 985.015 Q50.009 985.096 46.3632 988.459 Q42.7174 991.78 42.7174 997.29 Q42.7174 1003.53 46.2417 1007.3 Q49.766 1011.02 56.1664 1011.59 L56.1259 985.015 Z" fill="#000000" fill-rule="nonzero" fill-opacity="1" /><path clip-path="url(#clip120)" d="M19.8298 938.957 L19.8298 931.503 L82.8618 931.503 L82.8618 938.957 L19.8298 938.957 Z" fill="#000000" fill-rule="nonzero" fill-opacity="1" /><path clip-path="url(#clip120)" d="M37.4917 915.907 L37.4917 908.453 L82.8618 908.453 L82.8618 915.907 L37.4917 915.907 M19.8298 915.907 L19.8298 908.453 L29.2684 908.453 L29.2684 915.907 L19.8298 915.907 Z" fill="#000000" fill-rule="nonzero" fill-opacity="1" /><path clip-path="url(#clip120)" d="M19.8298 893.141 L19.8298 885.647 L57.0576 885.647 L37.4917 863.407 L37.4917 853.888 L58.7185 877.95 L82.8618 852.875 L82.8618 862.597 L60.7034 885.647 L82.8618 885.647 L82.8618 893.141 L19.8298 893.141 Z" fill="#000000" fill-rule="nonzero" fill-opacity="1" /><path clip-path="url(#clip120)" d="M58.3134 808.963 L61.9592 808.963 L61.9592 843.234 Q69.6559 842.748 73.7068 838.616 Q77.7172 834.443 77.7172 827.03 Q77.7172 822.736 76.664 818.726 Q75.6107 814.675 73.5043 810.705 L80.5528 810.705 Q82.2542 814.715 83.1454 818.928 Q84.0366 823.141 84.0366 827.476 Q84.0366 838.332 77.7172 844.692 Q71.3978 851.011 60.6224 851.011 Q49.4824 851.011 42.9604 845.016 Q36.398 838.98 36.398 828.772 Q36.398 819.617 42.3123 814.31 Q48.1861 808.963 58.3134 808.963 M56.1259 816.417 Q50.009 816.498 46.3632 819.86 Q42.7174 823.182 42.7174 828.691 Q42.7174 834.929 46.2417 838.697 Q49.766 842.423 56.1664 842.991 L56.1259 816.417 Z" fill="#000000" fill-rule="nonzero" fill-opacity="1" /><path clip-path="url(#clip120)" d="M19.8298 796.729 L19.8298 789.276 L82.8618 789.276 L82.8618 796.729 L19.8298 796.729 Z" fill="#000000" fill-rule="nonzero" fill-opacity="1" /><path clip-path="url(#clip120)" d="M37.4917 773.68 L37.4917 766.226 L82.8618 766.226 L82.8618 773.68 L37.4917 773.68 M19.8298 773.68 L19.8298 766.226 L29.2684 766.226 L29.2684 773.68 L19.8298 773.68 Z" fill="#000000" fill-rule="nonzero" fill-opacity="1" /><path clip-path="url(#clip120)" d="M55.4777 712.916 L82.8618 712.916 L82.8618 720.37 L55.7208 720.37 Q49.2798 720.37 46.0796 722.881 Q42.8794 725.393 42.8794 730.416 Q42.8794 736.452 46.7278 739.936 Q50.5761 743.419 57.2196 743.419 L82.8618 743.419 L82.8618 750.914 L19.8298 750.914 L19.8298 743.419 L44.5403 743.419 Q40.4489 740.746 38.4234 737.14 Q36.398 733.495 36.398 728.755 Q36.398 720.937 41.2591 716.926 Q46.0796 712.916 55.4777 712.916 Z" fill="#000000" fill-rule="nonzero" fill-opacity="1" /><path clip-path="url(#clip120)" d="M42.7174 680.468 Q42.7174 686.464 47.4164 689.947 Q52.075 693.431 60.2173 693.431 Q68.3596 693.431 73.0587 689.988 Q77.7172 686.504 77.7172 680.468 Q77.7172 674.514 73.0181 671.03 Q68.3191 667.546 60.2173 667.546 Q52.156 667.546 47.4569 671.03 Q42.7174 674.514 42.7174 680.468 M36.398 680.468 Q36.398 670.746 42.7174 665.196 Q49.0368 659.647 60.2173 659.647 Q71.3573 659.647 77.7172 665.196 Q84.0366 670.746 84.0366 680.468 Q84.0366 690.231 77.7172 695.781 Q71.3573 701.29 60.2173 701.29 Q49.0368 701.29 42.7174 695.781 Q36.398 690.231 36.398 680.468 Z" fill="#000000" fill-rule="nonzero" fill-opacity="1" /><path clip-path="url(#clip120)" d="M42.7174 629.711 Q42.7174 635.706 47.4164 639.19 Q52.075 642.673 60.2173 642.673 Q68.3596 642.673 73.0587 639.23 Q77.7172 635.746 77.7172 629.711 Q77.7172 623.756 73.0181 620.272 Q68.3191 616.788 60.2173 616.788 Q52.156 616.788 47.4569 620.272 Q42.7174 623.756 42.7174 629.711 M36.398 629.711 Q36.398 619.988 42.7174 614.439 Q49.0368 608.889 60.2173 608.889 Q71.3573 608.889 77.7172 614.439 Q84.0366 619.988 84.0366 629.711 Q84.0366 639.473 77.7172 645.023 Q71.3573 650.532 60.2173 650.532 Q49.0368 650.532 42.7174 645.023 Q36.398 639.473 36.398 629.711 Z" fill="#000000" fill-rule="nonzero" fill-opacity="1" /><path clip-path="url(#clip120)" d="M44.3783 566.678 L19.8298 566.678 L19.8298 559.225 L82.8618 559.225 L82.8618 566.678 L76.0563 566.678 Q80.1072 569.028 82.0922 572.633 Q84.0366 576.198 84.0366 581.221 Q84.0366 589.445 77.4741 594.63 Q70.9117 599.774 60.2173 599.774 Q49.5229 599.774 42.9604 594.63 Q36.398 589.445 36.398 581.221 Q36.398 576.198 38.3829 572.633 Q40.3274 569.028 44.3783 566.678 M60.2173 592.078 Q68.4406 592.078 73.1397 588.715 Q77.7982 585.313 77.7982 579.398 Q77.7982 573.484 73.1397 570.081 Q68.4406 566.678 60.2173 566.678 Q51.994 566.678 47.3354 570.081 Q42.6364 573.484 42.6364 579.398 Q42.6364 585.313 47.3354 588.715 Q51.994 592.078 60.2173 592.078 Z" fill="#000000" fill-rule="nonzero" fill-opacity="1" /><path clip-path="url(#clip120)" d="M19.8298 494.532 L26.0277 494.532 L26.0277 501.661 Q26.0277 505.672 27.648 507.252 Q29.2684 508.791 33.4813 508.791 L37.4917 508.791 L37.4917 496.517 L43.2845 496.517 L43.2845 508.791 L82.8618 508.791 L82.8618 516.285 L43.2845 516.285 L43.2845 523.415 L37.4917 523.415 L37.4917 516.285 L34.332 516.285 Q26.7568 516.285 23.3136 512.761 Q19.8298 509.237 19.8298 501.58 L19.8298 494.532 Z" fill="#000000" fill-rule="nonzero" fill-opacity="1" /><path clip-path="url(#clip120)" d="M42.7174 470.713 Q42.7174 476.708 47.4164 480.192 Q52.075 483.675 60.2173 483.675 Q68.3596 483.675 73.0587 480.232 Q77.7172 476.748 77.7172 470.713 Q77.7172 464.758 73.0181 461.274 Q68.3191 457.79 60.2173 457.79 Q52.156 457.79 47.4569 461.274 Q42.7174 464.758 42.7174 470.713 M36.398 470.713 Q36.398 460.99 42.7174 455.441 Q49.0368 449.891 60.2173 449.891 Q71.3573 449.891 77.7172 455.441 Q84.0366 460.99 84.0366 470.713 Q84.0366 480.475 77.7172 486.025 Q71.3573 491.534 60.2173 491.534 Q49.0368 491.534 42.7174 486.025 Q36.398 480.475 36.398 470.713 Z" fill="#000000" fill-rule="nonzero" fill-opacity="1" /><path clip-path="url(#clip120)" d="M44.4593 411.245 Q43.7301 412.501 43.406 414 Q43.0415 415.458 43.0415 417.241 Q43.0415 423.56 47.1734 426.963 Q51.2648 430.325 58.9615 430.325 L82.8618 430.325 L82.8618 437.819 L37.4917 437.819 L37.4917 430.325 L44.5403 430.325 Q40.4084 427.975 38.4234 424.208 Q36.398 420.441 36.398 415.053 Q36.398 414.283 36.5195 413.352 Q36.6005 412.42 36.8031 411.286 L44.4593 411.245 Z" fill="#000000" fill-rule="nonzero" fill-opacity="1" /><path clip-path="url(#clip120)" d="M82.8618 384.874 L80.2795 384.874 Q80.2795 380.406 79.7467 379.381 Q79.1728 378.357 76.4675 378.357 L32.8139 378.357 Q29.6988 378.357 28.92 379.463 Q28.1412 380.529 28.1412 384.874 L25.5178 384.874 L24.6161 372.823 L76.4675 372.823 Q79.1728 372.823 79.7467 371.757 Q80.2795 370.692 80.2795 366.265 L82.8618 366.265 Q82.8618 367.289 82.7799 369.421 Q82.6979 371.552 82.6569 373.11 Q82.6159 374.668 82.6159 375.569 Q82.6159 376.553 82.8618 384.874 Z" fill="#000000" fill-rule="nonzero" fill-opacity="1" /><path clip-path="url(#clip120)" d="M82.8618 361.184 L80.2795 361.184 Q80.2795 356.716 79.7467 355.691 Q79.1728 354.667 76.4675 354.667 L53.9644 354.667 Q50.8492 354.667 50.0704 355.773 Q49.2916 356.839 49.2916 361.184 L46.6683 361.184 L45.7665 349.379 L54.5792 349.379 Q45.7665 345.444 45.7665 336.959 Q45.7665 330.647 48.8817 328.147 Q50.9722 326.302 53.3086 325.933 Q55.645 325.523 61.7114 325.523 L77.7382 325.523 Q79.5007 325.441 79.9106 324.089 Q80.2795 322.736 80.2795 318.965 L82.8618 318.965 Q82.6159 327.532 82.6159 328.393 Q82.6159 329.048 82.8618 337.861 L80.2795 337.861 Q80.2795 333.393 79.7467 332.368 Q79.1728 331.303 76.4675 331.303 L56.9156 331.303 Q52.6527 331.303 50.1524 332.614 Q47.6111 333.926 47.6111 337.533 Q47.6111 341.878 51.2591 345.362 Q54.9072 348.846 61.0555 348.846 L76.4675 348.846 Q79.1728 348.846 79.7467 347.821 Q80.2795 346.756 80.2795 342.329 L82.8618 342.329 Q82.6159 350.896 82.6159 351.715 Q82.6159 352.371 82.8618 361.184 Z" fill="#000000" fill-rule="nonzero" fill-opacity="1" /><path clip-path="url(#clip120)" d="M36.421 242.1 Q35.0683 242.1 33.9616 242.469 Q32.8139 242.797 32.0351 243.33 Q31.2154 243.821 30.6005 244.764 Q29.9447 245.707 29.5348 246.486 Q29.1249 247.265 28.879 248.576 Q28.592 249.888 28.4691 250.749 Q28.3051 251.609 28.2231 253.085 Q28.1412 254.561 28.1412 255.298 Q28.1412 255.995 28.1412 257.389 Q28.1412 261.775 28.2231 262.513 Q28.3871 263.619 29.0429 264.029 Q29.6578 264.439 31.3383 264.849 L53.2266 270.301 L53.2266 260.914 Q53.2266 255.79 51.792 252.265 Q50.3573 248.74 48.3489 246.732 Q46.1355 244.518 42.5694 243.33 Q39.0033 242.1 36.421 242.1 M75.0739 232.959 Q75.5248 232.959 76.5495 233.328 Q77.5742 233.656 79.0089 234.476 Q80.4025 235.296 81.6732 236.402 Q82.9438 237.509 83.8046 239.272 Q84.7064 241.034 84.7064 243.043 Q84.7064 243.535 84.6654 244.026 Q84.6654 244.518 84.4604 245.748 Q84.2965 246.937 83.9686 247.92 Q83.6816 248.904 82.9848 250.134 Q82.329 251.364 81.4272 252.224 Q80.4845 253.044 79.0089 253.618 Q77.4922 254.192 75.6477 254.192 Q74.0082 254.192 68.5156 252.839 Q63.8428 251.65 62.6951 251.65 Q61.4245 251.65 60.2358 252.06 Q59.0471 252.429 57.8174 253.372 Q56.5877 254.274 55.8499 256.2 Q55.0711 258.127 55.0711 260.832 L55.0711 270.792 L77.3283 276.367 Q77.3693 276.367 77.9431 276.49 Q78.476 276.613 78.7629 276.613 Q79.2958 276.613 79.6237 276.285 Q79.9516 275.916 80.1156 275.014 Q80.2385 274.113 80.2795 273.416 Q80.2795 272.678 80.2795 271.161 Q80.2795 269.276 80.6074 268.948 Q80.8124 268.784 81.1813 268.784 Q81.7551 268.784 82.165 268.948 Q82.5339 269.071 82.6569 269.399 Q82.7799 269.686 82.8209 269.891 Q82.8618 270.096 82.8618 270.465 L82.6159 281.122 L82.8618 291.697 Q82.8618 292.886 81.9191 292.886 Q81.0993 292.886 80.7714 292.599 Q80.4025 292.312 80.3615 291.943 Q80.2795 291.574 80.2795 290.631 Q80.2795 288.582 80.1566 287.352 Q80.0336 286.122 79.8696 285.344 Q79.6647 284.524 79.0908 284.114 Q78.517 283.663 78.0251 283.458 Q77.4922 283.253 76.3036 282.966 L31.2154 271.735 Q29.8627 271.407 29.6578 271.407 Q28.879 271.407 28.674 271.899 Q28.4281 272.35 28.3051 273.662 L28.1412 276.859 Q28.1412 277.843 28.1002 278.252 Q28.0592 278.621 27.8542 278.908 Q27.6493 279.195 27.1984 279.195 Q26.0507 279.195 25.8048 278.703 Q25.5178 278.211 25.5178 276.777 L25.5178 252.839 Q25.5178 244.682 29.0839 239.518 Q32.65 234.312 38.1016 234.312 Q40.5609 234.312 42.8563 235.419 Q45.1517 236.525 46.9552 238.37 Q48.7588 240.173 50.2754 242.592 Q51.751 245.01 52.7757 247.592 Q53.7595 250.134 54.3333 252.757 Q54.7432 251.609 55.358 250.544 Q55.9729 249.437 57.1206 248.043 Q58.2683 246.609 60.1128 245.748 Q61.9573 244.887 64.2117 244.887 Q65.8103 244.887 68.1877 245.215 Q74.9509 246.035 77.7382 246.035 Q80.4025 246.035 81.6322 245.338 Q82.8618 244.641 82.8618 242.674 Q82.8618 240.747 81.1403 238.616 Q79.3778 236.443 75.2378 235.05 Q74.0492 234.722 74.0492 233.943 Q74.0492 233.902 74.0492 233.861 Q74.0492 233.779 74.1311 233.615 Q74.1721 233.451 74.2951 233.328 Q74.3771 233.164 74.582 233.082 Q74.787 232.959 75.0739 232.959 Z" fill="#000000" fill-rule="nonzero" fill-opacity="1" /><polyline clip-path="url(#clip122)" style="stroke:#000000; stroke-linecap:round; stroke-linejoin:round; stroke-width:8; stroke-opacity:1; fill:none" points="321.66,85.819 325.612,85.82 329.564,85.8189 333.515,85.8189 337.467,85.8198 341.419,85.819 345.371,85.819 349.323,85.8189 353.274,85.8189 357.226,85.819 361.178,85.8189 365.13,85.8189 369.082,85.8189 373.033,85.8189 376.985,85.8189 380.937,85.8425 384.889,85.819 388.84,85.8202 392.792,85.8213 396.744,85.8199 400.696,85.8195 404.648,85.8189 408.599,85.8193 412.551,85.8191 416.503,85.8191 420.455,85.8192 424.406,85.8192 428.358,85.8192 432.31,85.8191 436.262,85.8191 440.214,85.8191 444.165,85.836 448.117,85.8192 452.069,85.8327 456.021,85.8199 459.972,85.8206 463.924,85.83 467.876,85.8323 471.828,85.8314 475.78,85.8304 479.731,85.8277 483.683,85.8283 487.635,85.8245 491.587,85.8191 495.538,85.8189 499.49,85.8189 503.442,85.8189 507.394,85.8214 511.346,85.819 515.297,85.8212 519.249,85.819 523.201,85.8194 527.153,85.8189 531.104,85.819 535.056,85.819 539.008,85.819 542.96,85.819 546.912,85.819 550.863,85.819 554.815,85.819 558.767,85.8193 562.719,85.8191 566.67,85.8189 570.622,85.8189 574.574,85.8189 578.526,85.8191 582.478,85.8189 586.429,85.8189 590.381,85.8189 594.333,85.8189 598.285,85.8189 602.236,85.8191 606.188,85.8219 610.14,85.8189 614.092,85.8192 618.044,85.8189 621.995,85.8244 625.947,85.8192 629.899,85.8189 633.851,85.8189 637.802,85.8189 641.754,85.8189 645.706,85.8189 649.658,85.819 653.61,85.8189 657.561,85.819 661.513,85.8208 665.465,85.822 669.417,85.819 673.368,85.8203 677.32,85.819 681.272,85.8189 685.224,85.819 689.176,85.8211 693.127,85.8209 697.079,85.8299 701.031,85.8211 704.983,85.8192 708.934,85.8195 712.886,85.828 716.838,85.8197 720.79,85.8189 724.742,85.8193 728.693,85.8189 732.645,85.8189 736.597,86.109 740.549,85.8197 744.5,85.819 748.452,85.8204 752.404,85.8189 756.356,85.8256 760.308,85.8191 764.259,85.8189 768.211,85.8189 772.163,85.8189 776.115,85.8189 780.067,85.8189 784.018,85.819 787.97,85.8191 791.922,85.8189 795.874,85.8707 799.825,85.8189 803.777,85.8189 807.729,85.8194 811.681,85.8194 815.633,85.8194 819.584,85.8194 823.536,85.8194 827.488,85.8194 831.44,85.8194 835.391,85.8194 839.343,85.8194 843.295,85.8194 847.247,85.8194 851.199,85.8194 855.15,85.8194 859.102,85.8194 863.054,85.8194 867.006,85.8194 870.957,85.8194 874.909,85.8194 878.861,85.8194 882.813,85.8194 886.765,85.8194 890.716,85.8194 894.668,85.8194 898.62,85.8194 902.572,85.8194 906.523,85.8194 910.475,85.8194 914.427,85.8194 918.379,85.8194 922.331,85.8194 926.282,85.8194 930.234,85.8194 934.186,85.8194 938.138,85.8194 942.089,85.8194 946.041,85.8194 949.993,85.8194 953.945,85.8194 957.897,85.8194 961.848,85.8194 965.8,85.8194 969.752,85.8194 973.704,85.8194 977.655,85.8194 981.607,85.8194 985.559,85.8194 989.511,85.8194 993.463,85.8194 997.414,85.8194 1001.37,85.8194 1005.32,85.8194 1009.27,85.8194 1013.22,85.8194 1017.17,85.8194 1021.13,85.8194 1025.08,85.8194 1029.03,85.8194 1032.98,85.8194 1036.93,85.8194 1040.88,85.8194 1044.84,85.8194 1048.79,85.8194 1052.74,85.8194 1056.69,85.8194 1060.64,85.8194 1064.59,85.8194 1068.55,85.8194 1072.5,85.8194 1076.45,85.8194 1080.4,85.8194 1084.35,85.8194 1088.31,85.8194 1092.26,85.8194 1096.21,85.8194 1100.16,85.8194 1104.11,85.8194 1108.06,85.8194 1112.02,85.8189 1115.97,85.8271 1119.92,85.8391 1123.87,85.8216 1127.82,85.8189 1131.77,85.8189 1135.73,85.8189 1139.68,85.8271 1143.63,85.819 1147.58,85.819 1151.53,85.819 1155.49,85.8189 1159.44,85.8189 1163.39,85.8189 1167.34,85.8189 1171.29,85.8193 1175.24,85.8194 1179.2,85.8191 1183.15,85.8189 1187.1,85.819 1191.05,85.819 1195,85.8191 1198.96,85.8269 1202.91,85.8189 1206.86,85.8189 1210.81,85.8189 1214.76,85.8189 1218.71,85.8189 1222.67,85.8189 1226.62,85.8189 1230.57,85.8189 1234.52,85.819 1238.47,85.8189 1242.42,85.8223 1246.38,85.8189 1250.33,85.8189 1254.28,85.8677 1258.23,85.8189 1262.18,85.8189 1266.14,85.8189 1270.09,85.819 1274.04,85.8189 1277.99,85.8189 1281.94,85.819 1285.89,85.8191 1289.85,85.8189 1293.8,85.8189 1297.75,85.8189 1301.7,85.8189 1305.65,85.8408 1309.6,85.8379 1313.56,85.8189 1317.51,85.8189 1321.46,85.8189 1325.41,85.8189 1329.36,85.8189 1333.32,85.8327 1337.27,85.8189 1341.22,85.8189 1345.17,85.8292 1349.12,85.819 1353.07,85.8189 1357.03,85.8189 1360.98,85.8189 1364.93,85.8189 1368.88,85.8288 1372.83,85.8213 1376.79,85.8202 1380.74,85.8194 1384.69,85.8189 1388.64,85.8189 1392.59,85.8194 1396.54,85.8191 1400.5,85.819 1404.45,85.8598 1408.4,85.8189 1412.35,85.8189 1416.3,85.819 1420.25,85.8189 1424.21,85.8189 1428.16,85.8255 1432.11,85.8189 1436.06,85.8189 1440.01,85.8189 1443.97,85.8189 1447.92,85.8189 1451.87,85.8234 1455.82,87.0627 1459.77,85.8189 1463.72,85.8196 1467.68,85.8189 1471.63,85.8196 1475.58,85.8189 1479.53,85.8762 1483.48,85.8189 1487.43,85.8373 1491.39,85.8189 1495.34,85.8189 1499.29,85.8189 1503.24,85.8189 1507.19,85.8208 1511.15,85.8189 1515.1,85.8189 1519.05,85.8192 1523,85.8189 1526.95,85.8189 1530.9,130.064 1534.86,85.8192 1538.81,85.8191 1542.76,85.8198 1546.71,85.8191 1550.66,85.8189 1554.62,85.8202 1558.57,85.8189 1562.52,85.8197 1566.47,85.8191 1570.42,85.9655 1574.37,86.07 1578.33,85.8191 1582.28,85.8194 1586.23,86.1204 1590.18,100.914 1594.13,85.8233 1598.08,88.9334 1602.04,105.838 1605.99,86.8122 1609.94,88.6309 1613.89,91.3948 1617.84,95.1186 1621.8,99.8152 1625.75,105.495 1629.7,112.167 1633.65,119.837 1637.6,128.508 1641.55,138.181 1645.51,148.855 1649.46,160.524 1653.41,173.182 1657.36,186.817 1661.31,201.417 1665.26,216.964 1669.22,233.439 1673.17,250.82 1677.12,269.081 1681.07,288.192 1685.02,308.123 1688.98,328.838 1692.93,350.3 1696.88,372.467 1700.83,395.299 1704.78,418.747 1708.73,442.765 1712.69,467.303 1716.64,492.308 1720.59,517.726 1724.54,543.501 1728.49,569.577 1732.45,595.895 1736.4,622.397 1740.35,649.023 1744.3,675.713 1748.25,702.408 1752.2,729.049 1756.16,755.576 1760.11,781.932 1764.06,808.06 1768.01,833.905 1771.96,859.414 1775.91,884.536 1779.87,909.22 1783.82,933.422 1787.77,957.096 1791.72,980.204 1795.67,1002.71 1799.63,1024.57 1803.58,1045.76 1807.53,1066.26 1811.48,1086.03 1815.43,1105.07 1819.38,1123.35 1823.34,1140.86 1827.29,1157.59 1831.24,1173.55 1835.19,1188.71 1839.14,1203.1 1843.09,1216.71 1847.05,1229.56 1851,1241.65 1854.95,1252.99 1858.9,1263.62 1862.85,1273.53 1866.81,1282.77 1870.76,1291.34 1874.71,1299.28 1878.66,1306.61 1882.61,1313.35 1886.56,1319.54 1890.52,1325.21 1894.47,1330.37 1898.42,1335.07 1902.37,1339.33 1906.32,1343.18 1910.28,1346.65 1914.23,1349.77 1918.18,1352.55 1922.13,1355.04 1926.08,1357.25 1930.03,1359.2 1933.99,1360.93 1937.94,1362.45 1941.89,1363.78 1945.84,1364.95 1949.79,1365.96 1953.74,1366.83 1957.7,1367.59 1961.65,1368.24 1965.6,1368.8 1969.55,1369.27 1973.5,1369.68 1977.46,1370.02 1981.41,1370.31 1985.36,1370.55 1989.31,1370.75 1993.26,1370.92 1997.21,1371.06 2001.17,1371.17 2005.12,1371.27 2009.07,1371.34 2013.02,1371.4 2016.97,1371.45 2020.93,1371.5 2024.88,1371.53 2028.83,1371.55 2032.78,1371.57 2036.73,1371.59 2040.68,1371.6 2044.64,1371.61 2048.59,1371.62 2052.54,1371.63 2056.49,1371.63 2060.44,1371.63 2064.39,1371.64 2068.35,1371.64 2072.3,1371.64 2076.25,1371.64 2080.2,1371.64 2084.15,1371.64 2088.11,1371.64 2092.06,1371.64 2096.01,1371.64 2099.96,1371.64 2103.91,1371.64 2107.86,1371.64 2111.82,1371.64 2115.77,1371.64 2119.72,1371.64 2123.67,1371.65 2127.62,1371.65 2131.57,1371.65 2135.53,1371.65 2139.48,1371.65 2143.43,1371.65 2147.38,1371.65 2151.33,1371.65 2155.29,1371.65 2159.24,1371.65 2163.19,1371.65 2167.14,1371.65 2171.09,1371.65 2175.04,1371.65 2179,1371.65 2182.95,1371.65 2186.9,1371.65 2190.85,1371.65 2194.8,1371.65 2198.76,1371.65 2202.71,1371.65 2206.66,1371.65 2210.61,1371.65 2214.56,1371.65 2218.51,1371.65 2222.47,1371.65 2226.42,1371.65 2230.37,1371.65 2234.32,1371.65 2238.27,1371.65 2242.22,1371.65 2246.18,1371.65 2250.13,1371.65 2254.08,1371.65 2258.03,1371.65 2261.98,1371.65 2265.94,1371.65 2269.89,1371.65 2273.84,1371.65 2277.79,1371.65 2281.74,1371.65 2285.69,1371.65 2289.65,1371.65 2293.6,1371.65 "/>
<polyline clip-path="url(#clip122)" style="stroke:#000000; stroke-linecap:round; stroke-linejoin:round; stroke-width:8; stroke-opacity:1; fill:none" stroke-dasharray="32, 20" points="321.66,85.8189 325.612,85.8189 329.564,85.8189 333.515,85.8189 337.467,85.8189 341.419,85.8189 345.371,85.8189 349.323,85.8189 353.274,85.8189 357.226,85.8189 361.178,85.8189 365.13,85.8189 369.082,85.8189 373.033,85.8189 376.985,85.8189 380.937,85.8189 384.889,85.8189 388.84,85.8189 392.792,85.8189 396.744,85.8189 400.696,85.8189 404.648,85.8189 408.599,85.8189 412.551,85.8189 416.503,85.8189 420.455,85.8189 424.406,85.8189 428.358,85.8189 432.31,85.8189 436.262,85.8189 440.214,85.8189 444.165,85.8189 448.117,85.8189 452.069,85.8189 456.021,85.8189 459.972,85.8189 463.924,85.8189 467.876,85.8189 471.828,85.8189 475.78,85.8189 479.731,85.8189 483.683,85.8189 487.635,85.8189 491.587,85.8189 495.538,85.8189 499.49,85.8189 503.442,85.8189 507.394,85.8189 511.346,85.8189 515.297,85.8189 519.249,85.8189 523.201,85.8189 527.153,85.8189 531.104,85.8189 535.056,85.8189 539.008,85.8189 542.96,85.8189 546.912,85.8189 550.863,85.8189 554.815,85.8189 558.767,85.8189 562.719,85.8189 566.67,85.8189 570.622,85.8189 574.574,85.8189 578.526,85.8189 582.478,85.8189 586.429,85.8189 590.381,85.8189 594.333,85.8189 598.285,85.8189 602.236,85.8189 606.188,85.8189 610.14,85.8189 614.092,85.8189 618.044,85.8189 621.995,85.8189 625.947,85.8189 629.899,85.8189 633.851,85.8189 637.802,85.8189 641.754,85.8189 645.706,85.8189 649.658,85.8189 653.61,85.8189 657.561,85.8189 661.513,85.8189 665.465,85.8189 669.417,85.8189 673.368,85.8189 677.32,85.8189 681.272,85.8189 685.224,85.8189 689.176,85.8189 693.127,85.8189 697.079,85.8189 701.031,85.8189 704.983,85.8189 708.934,85.8189 712.886,85.8189 716.838,85.8189 720.79,85.8189 724.742,85.8189 728.693,85.8189 732.645,85.8189 736.597,85.8189 740.549,85.8189 744.5,85.8189 748.452,85.8189 752.404,85.8189 756.356,85.8189 760.308,85.8189 764.259,85.8189 768.211,85.8189 772.163,85.8189 776.115,85.8189 780.067,85.8189 784.018,85.8189 787.97,85.8189 791.922,85.8189 795.874,85.8189 799.825,85.8189 803.777,85.8189 807.729,85.8189 811.681,85.8189 815.633,85.8189 819.584,85.8189 823.536,85.8189 827.488,85.8189 831.44,85.8189 835.391,85.8189 839.343,85.8189 843.295,85.8189 847.247,85.8189 851.199,85.8189 855.15,85.8189 859.102,85.8189 863.054,85.8189 867.006,85.8189 870.957,85.8189 874.909,85.8189 878.861,85.8189 882.813,85.8189 886.765,85.8189 890.716,85.8189 894.668,85.8189 898.62,85.8189 902.572,85.8189 906.523,85.8189 910.475,85.8189 914.427,85.8189 918.379,85.8189 922.331,85.8189 926.282,85.8189 930.234,85.8189 934.186,85.8189 938.138,85.8189 942.089,85.8189 946.041,85.8189 949.993,85.8189 953.945,85.8189 957.897,85.8189 961.848,85.8189 965.8,85.8189 969.752,85.8189 973.704,85.8189 977.655,85.8189 981.607,85.8189 985.559,85.8189 989.511,85.8189 993.463,85.8189 997.414,85.8189 1001.37,85.8189 1005.32,85.8189 1009.27,85.8189 1013.22,85.8189 1017.17,85.8189 1021.13,85.8189 1025.08,85.8189 1029.03,85.8189 1032.98,85.8189 1036.93,85.8189 1040.88,85.8189 1044.84,85.8189 1048.79,85.8189 1052.74,85.8189 1056.69,85.8189 1060.64,85.8189 1064.59,85.8189 1068.55,85.8189 1072.5,85.8189 1076.45,85.8189 1080.4,85.8189 1084.35,85.8189 1088.31,85.8189 1092.26,85.8189 1096.21,85.8189 1100.16,85.8189 1104.11,85.8189 1108.06,85.8189 1112.02,85.8189 1115.97,85.8189 1119.92,85.8189 1123.87,85.8189 1127.82,85.8189 1131.77,85.8189 1135.73,85.8189 1139.68,85.8189 1143.63,85.8189 1147.58,85.8189 1151.53,85.8189 1155.49,85.8189 1159.44,85.8189 1163.39,85.8189 1167.34,85.8189 1171.29,85.8189 1175.24,85.8189 1179.2,85.8189 1183.15,85.8189 1187.1,85.8189 1191.05,85.8189 1195,85.8189 1198.96,85.8189 1202.91,85.8189 1206.86,85.8189 1210.81,85.8189 1214.76,85.8189 1218.71,85.8189 1222.67,85.8189 1226.62,85.8189 1230.57,85.8189 1234.52,85.8189 1238.47,85.8189 1242.42,85.8189 1246.38,85.8189 1250.33,85.8189 1254.28,85.8189 1258.23,85.8189 1262.18,85.8189 1266.14,85.8189 1270.09,85.8189 1274.04,85.8189 1277.99,85.8189 1281.94,85.8189 1285.89,85.8189 1289.85,85.8189 1293.8,85.8189 1297.75,85.8189 1301.7,85.8189 1305.65,85.8189 1309.6,85.8189 1313.56,85.8189 1317.51,85.8189 1321.46,85.8189 1325.41,85.8189 1329.36,85.8189 1333.32,85.8189 1337.27,85.8189 1341.22,85.8189 1345.17,85.8189 1349.12,85.8189 1353.07,85.8189 1357.03,85.8189 1360.98,85.8189 1364.93,85.8189 1368.88,85.8189 1372.83,85.8189 1376.79,85.8189 1380.74,85.8189 1384.69,85.8189 1388.64,85.8189 1392.59,85.8189 1396.54,85.8189 1400.5,85.8189 1404.45,85.8189 1408.4,85.8189 1412.35,85.8189 1416.3,85.8189 1420.25,85.8189 1424.21,85.8189 1428.16,85.8189 1432.11,85.8189 1436.06,85.8189 1440.01,85.8189 1443.97,85.8189 1447.92,85.8189 1451.87,85.8189 1455.82,85.8189 1459.77,85.8189 1463.72,85.8189 1467.68,85.8189 1471.63,85.8189 1475.58,85.8189 1479.53,85.8189 1483.48,85.8189 1487.43,85.8189 1491.39,85.8189 1495.34,85.8189 1499.29,85.8189 1503.24,85.8189 1507.19,85.8189 1511.15,85.8189 1515.1,85.8189 1519.05,85.8189 1523,85.8189 1526.95,85.8189 1530.9,85.8189 1534.86,85.8189 1538.81,85.8189 1542.76,85.8189 1546.71,85.8189 1550.66,85.8189 1554.62,85.8189 1558.57,85.8189 1562.52,85.8189 1566.47,85.8189 1570.42,85.8189 1574.37,85.8189 1578.33,85.8189 1582.28,85.8189 1586.23,85.8189 1590.18,85.8189 1594.13,85.8189 1598.08,85.8189 1602.04,85.9056 1605.99,86.7506 1609.94,88.4936 1613.89,91.131 1617.84,94.6572 1621.8,99.0649 1625.75,104.345 1629.7,110.486 1633.65,117.476 1637.6,125.3 1641.55,133.941 1645.51,143.383 1649.46,153.606 1653.41,164.59 1657.36,176.311 1661.31,188.747 1665.26,201.872 1669.22,215.662 1673.17,230.088 1677.12,245.123 1681.07,260.738 1685.02,276.904 1688.98,293.589 1692.93,310.762 1696.88,328.393 1700.83,346.449 1704.78,364.897 1708.73,383.705 1712.69,402.84 1716.64,422.269 1720.59,441.96 1724.54,461.879 1728.49,481.995 1732.45,502.275 1736.4,522.687 1740.35,543.199 1744.3,563.782 1748.25,584.405 1752.2,605.038 1756.16,625.653 1760.11,646.222 1764.06,666.717 1768.01,687.112 1771.96,707.383 1775.91,727.504 1779.87,747.453 1783.82,767.207 1787.77,786.746 1791.72,806.05 1795.67,825.099 1799.63,843.876 1803.58,862.364 1807.53,880.549 1811.48,898.416 1815.43,915.952 1819.38,933.145 1823.34,949.985 1827.29,966.462 1831.24,982.567 1835.19,998.294 1839.14,1013.64 1843.09,1028.59 1847.05,1043.14 1851,1057.3 1854.95,1071.06 1858.9,1084.42 1862.85,1097.38 1866.81,1109.94 1870.76,1122.09 1874.71,1133.85 1878.66,1145.21 1882.61,1156.18 1886.56,1166.76 1890.52,1176.96 1894.47,1186.78 1898.42,1196.23 1902.37,1205.31 1906.32,1214.03 1910.28,1222.4 1914.23,1230.43 1918.18,1238.11 1922.13,1245.47 1926.08,1252.5 1930.03,1259.22 1933.99,1265.64 1937.94,1271.76 1941.89,1277.59 1945.84,1283.14 1949.79,1288.43 1953.74,1293.45 1957.7,1298.22 1961.65,1302.75 1965.6,1307.05 1969.55,1311.11 1973.5,1314.97 1977.46,1318.61 1981.41,1322.06 1985.36,1325.31 1989.31,1328.38 1993.26,1331.28 1997.21,1334 2001.17,1336.57 2005.12,1338.99 2009.07,1341.26 2013.02,1343.39 2016.97,1345.39 2020.93,1347.27 2024.88,1349.03 2028.83,1350.67 2032.78,1352.21 2036.73,1353.65 2040.68,1355 2044.64,1356.25 2048.59,1357.42 2052.54,1358.51 2056.49,1359.53 2060.44,1360.47 2064.39,1361.35 2068.35,1362.17 2072.3,1362.92 2076.25,1363.63 2080.2,1364.28 2084.15,1364.88 2088.11,1365.44 2092.06,1365.95 2096.01,1366.43 2099.96,1366.87 2103.91,1367.28 2107.86,1367.65 2111.82,1368 2115.77,1368.31 2119.72,1368.6 2123.67,1368.87 2127.62,1369.12 2131.57,1369.35 2135.53,1369.55 2139.48,1369.74 2143.43,1369.92 2147.38,1370.08 2151.33,1370.22 2155.29,1370.35 2159.24,1370.48 2163.19,1370.59 2167.14,1370.69 2171.09,1370.78 2175.04,1370.86 2179,1370.94 2182.95,1371.01 2186.9,1371.07 2190.85,1371.13 2194.8,1371.18 2198.76,1371.23 2202.71,1371.27 2206.66,1371.31 2210.61,1371.34 2214.56,1371.37 2218.51,1371.4 2222.47,1371.43 2226.42,1371.45 2230.37,1371.47 2234.32,1371.49 2238.27,1371.5 2242.22,1371.52 2246.18,1371.53 2250.13,1371.55 2254.08,1371.56 2258.03,1371.57 2261.98,1371.57 2265.94,1371.58 2269.89,1371.59 2273.84,1371.6 2277.79,1371.6 2281.74,1371.61 2285.69,1371.61 2289.65,1371.61 2293.6,1371.62 "/>
<polyline clip-path="url(#clip122)" style="stroke:#000000; stroke-linecap:round; stroke-linejoin:round; stroke-width:8; stroke-opacity:1; fill:none" stroke-dasharray="4, 8" points="728.693,2773.2 728.693,-1315.73 "/>
<polyline clip-path="url(#clip122)" style="stroke:#000000; stroke-linecap:round; stroke-linejoin:round; stroke-width:4; stroke-opacity:1; fill:none" points="-1827.75,1183.27 4443.01,1183.27 "/>
<polyline clip-path="url(#clip122)" style="stroke:#808080; stroke-linecap:round; stroke-linejoin:round; stroke-width:8; stroke-opacity:1; fill:none" points="1482.33,2773.2 1482.33,-1315.73 "/>
</svg>
