<?xml version="1.0" encoding="utf-8"?>
<svg xmlns="http://www.w3.org/2000/svg" xmlns:xlink="http://www.w3.org/1999/xlink" width="600" height="400" viewBox="0 0 2400 1600">
<defs>
  <clipPath id="clip030">
    <rect x="0" y="0" width="2400" height="1600"/>
  </clipPath>
</defs>
<path clip-path="url(#clip030)" d="M0 1600 L2400 1600 L2400 0 L0 0  Z" fill="#ffffff" fill-rule="evenodd" fill-opacity="1"/>
<defs>
  <clipPath id="clip031">
    <rect x="480" y="0" width="1681" height="1600"/>
  </clipPath>
</defs>
<defs>
  <clipPath id="clip032">
    <rect x="262" y="47" width="2091" height="1364"/>
  </clipPath>
</defs>
<path clip-path="url(#clip030)" d="M262.502 1410.22 L2352.76 1410.22 L2352.76 47.2441 L262.502 47.2441  Z" fill="#ffffff" fill-rule="evenodd" fill-opacity="1"/>
<polyline clip-path="url(#clip032)" style="stroke:#000000; stroke-linecap:round; stroke-linejoin:round; stroke-width:2; stroke-opacity:0.1; fill:none" points="474.185,1410.22 474.185,47.2441 "/>
<polyline clip-path="url(#clip032)" style="stroke:#000000; stroke-linecap:round; stroke-linejoin:round; stroke-width:2; stroke-opacity:0.1; fill:none" points="978.256,1410.22 978.256,47.2441 "/>
<polyline clip-path="url(#clip032)" style="stroke:#000000; stroke-linecap:round; stroke-linejoin:round; stroke-width:2; stroke-opacity:0.1; fill:none" points="1482.33,1410.22 1482.33,47.2441 "/>
<polyline clip-path="url(#clip032)" style="stroke:#000000; stroke-linecap:round; stroke-linejoin:round; stroke-width:2; stroke-opacity:0.1; fill:none" points="1986.4,1410.22 1986.4,47.2441 "/>
<polyline clip-path="url(#clip030)" style="stroke:#000000; stroke-linecap:round; stroke-linejoin:round; stroke-width:4; stroke-opacity:1; fill:none" points="262.502,1410.22 2352.76,1410.22 "/>
<polyline clip-path="url(#clip030)" style="stroke:#000000; stroke-linecap:round; stroke-linejoin:round; stroke-width:4; stroke-opacity:1; fill:none" points="474.185,1410.22 474.185,1391.32 "/>
<polyline clip-path="url(#clip030)" style="stroke:#000000; stroke-linecap:round; stroke-linejoin:round; stroke-width:4; stroke-opacity:1; fill:none" points="978.256,1410.22 978.256,1391.32 "/>
<polyline clip-path="url(#clip030)" style="stroke:#000000; stroke-linecap:round; stroke-linejoin:round; stroke-width:4; stroke-opacity:1; fill:none" points="1482.33,1410.22 1482.33,1391.32 "/>
<polyline clip-path="url(#clip030)" style="stroke:#000000; stroke-linecap:round; stroke-linejoin:round; stroke-width:4; stroke-opacity:1; fill:none" points="1986.4,1410.22 1986.4,1391.32 "/>
<path clip-path="url(#clip030)" d="M444.127 1455.79 L473.803 1455.79 L473.803 1459.73 L444.127 1459.73 L444.127 1455.79 Z" fill="#000000" fill-rule="nonzero" fill-opacity="1" /><path clip-path="url(#clip030)" d="M487.923 1468.68 L504.242 1468.68 L504.242 1472.62 L482.298 1472.62 L482.298 1468.68 Q484.96 1465.93 489.543 1461.3 Q494.15 1456.65 495.33 1455.31 Q497.576 1452.78 498.455 1451.05 Q499.358 1449.29 499.358 1447.6 Q499.358 1444.84 497.414 1443.11 Q495.492 1441.37 492.39 1441.37 Q490.191 1441.37 487.738 1442.13 Q485.307 1442.9 482.529 1444.45 L482.529 1439.73 Q485.353 1438.59 487.807 1438.01 Q490.261 1437.43 492.298 1437.43 Q497.668 1437.43 500.863 1440.12 Q504.057 1442.81 504.057 1447.3 Q504.057 1449.43 503.247 1451.35 Q502.46 1453.24 500.353 1455.84 Q499.775 1456.51 496.673 1459.73 Q493.571 1462.92 487.923 1468.68 Z" fill="#000000" fill-rule="nonzero" fill-opacity="1" /><path clip-path="url(#clip030)" d="M948.013 1455.79 L977.688 1455.79 L977.688 1459.73 L948.013 1459.73 L948.013 1455.79 Z" fill="#000000" fill-rule="nonzero" fill-opacity="1" /><path clip-path="url(#clip030)" d="M988.591 1468.68 L996.23 1468.68 L996.23 1442.32 L987.92 1443.99 L987.92 1439.73 L996.184 1438.06 L1000.86 1438.06 L1000.86 1468.68 L1008.5 1468.68 L1008.5 1472.62 L988.591 1472.62 L988.591 1468.68 Z" fill="#000000" fill-rule="nonzero" fill-opacity="1" /><path clip-path="url(#clip030)" d="M1482.33 1441.14 Q1478.72 1441.14 1476.89 1444.7 Q1475.08 1448.24 1475.08 1455.37 Q1475.08 1462.48 1476.89 1466.05 Q1478.72 1469.59 1482.33 1469.59 Q1485.96 1469.59 1487.77 1466.05 Q1489.6 1462.48 1489.6 1455.37 Q1489.6 1448.24 1487.77 1444.7 Q1485.96 1441.14 1482.33 1441.14 M1482.33 1437.43 Q1488.14 1437.43 1491.19 1442.04 Q1494.27 1446.62 1494.27 1455.37 Q1494.27 1464.1 1491.19 1468.71 Q1488.14 1473.29 1482.33 1473.29 Q1476.52 1473.29 1473.44 1468.71 Q1470.38 1464.1 1470.38 1455.37 Q1470.38 1446.62 1473.44 1442.04 Q1476.52 1437.43 1482.33 1437.43 Z" fill="#000000" fill-rule="nonzero" fill-opacity="1" /><path clip-path="url(#clip030)" d="M1976.78 1468.68 L1984.42 1468.68 L1984.42 1442.32 L1976.11 1443.99 L1976.11 1439.73 L1984.37 1438.06 L1989.05 1438.06 L1989.05 1468.68 L1996.69 1468.68 L1996.69 1472.62 L1976.78 1472.62 L1976.78 1468.68 Z" fill="#000000" fill-rule="nonzero" fill-opacity="1" /><path clip-path="url(#clip030)" d="M1209.29 1551.56 L1209.29 1548.98 Q1213.76 1548.98 1214.78 1548.45 Q1215.81 1547.87 1215.81 1545.17 L1215.81 1501.51 Q1215.81 1498.4 1214.7 1497.62 Q1213.63 1496.84 1209.29 1496.84 L1209.29 1494.22 L1221.34 1493.32 L1221.34 1545.17 Q1221.34 1547.87 1222.4 1548.45 Q1223.47 1548.98 1227.9 1548.98 L1227.9 1551.56 Q1226.87 1551.56 1224.74 1551.48 Q1222.61 1551.4 1221.05 1551.36 Q1219.49 1551.32 1218.59 1551.32 Q1217.61 1551.32 1209.29 1551.56 Z" fill="#000000" fill-rule="nonzero" fill-opacity="1" /><path clip-path="url(#clip030)" d="M1232.98 1551.56 L1232.98 1548.98 Q1237.45 1548.98 1238.47 1548.45 Q1239.5 1547.87 1239.5 1545.17 L1239.5 1522.67 Q1239.5 1519.55 1238.39 1518.77 Q1237.32 1517.99 1232.98 1517.99 L1232.98 1515.37 L1244.78 1514.47 L1244.78 1523.28 Q1248.72 1514.47 1257.2 1514.47 Q1263.52 1514.47 1266.02 1517.58 Q1267.86 1519.67 1268.23 1522.01 Q1268.64 1524.35 1268.64 1530.41 L1268.64 1546.44 Q1268.72 1548.2 1270.07 1548.61 Q1271.43 1548.98 1275.2 1548.98 L1275.2 1551.56 Q1266.63 1551.32 1265.77 1551.32 Q1265.11 1551.32 1256.3 1551.56 L1256.3 1548.98 Q1260.77 1548.98 1261.79 1548.45 Q1262.86 1547.87 1262.86 1545.17 L1262.86 1525.62 Q1262.86 1521.35 1261.55 1518.85 Q1260.24 1516.31 1256.63 1516.31 Q1252.28 1516.31 1248.8 1519.96 Q1245.32 1523.61 1245.32 1529.76 L1245.32 1545.17 Q1245.32 1547.87 1246.34 1548.45 Q1247.41 1548.98 1251.83 1548.98 L1251.83 1551.56 Q1243.27 1551.32 1242.45 1551.32 Q1241.79 1551.32 1232.98 1551.56 Z" fill="#000000" fill-rule="nonzero" fill-opacity="1" /><path clip-path="url(#clip030)" d="M1365.42 1515.45 Q1365.42 1522.21 1362.51 1528.85 Q1359.65 1535.45 1354.97 1540.45 Q1350.34 1545.41 1344.07 1548.49 Q1337.8 1551.56 1331.4 1551.56 L1303.61 1551.56 Q1302.63 1551.56 1302.22 1551.52 Q1301.85 1551.48 1301.56 1551.28 Q1301.28 1551.03 1301.28 1550.54 Q1301.28 1549.76 1301.6 1549.43 Q1301.93 1549.06 1302.3 1549.02 Q1302.67 1548.98 1303.61 1548.98 Q1305.66 1548.98 1306.89 1548.86 Q1308.12 1548.73 1308.9 1548.57 Q1309.72 1548.37 1310.13 1547.79 Q1310.58 1547.22 1310.79 1546.73 Q1310.99 1546.19 1311.28 1545 L1322.51 1499.92 Q1322.84 1498.56 1322.84 1498.36 Q1322.84 1497.66 1322.43 1497.42 Q1322.06 1497.13 1320.99 1497.01 Q1318.94 1496.84 1317.39 1496.84 Q1316.36 1496.84 1315.95 1496.8 Q1315.58 1496.76 1315.25 1496.56 Q1314.97 1496.31 1314.97 1495.82 Q1314.97 1495.04 1315.29 1494.71 Q1315.66 1494.34 1316.07 1494.3 Q1316.48 1494.22 1317.47 1494.22 L1345.67 1494.22 Q1351.78 1494.22 1356.32 1497.09 Q1360.87 1499.92 1363.13 1504.71 Q1365.42 1509.47 1365.42 1515.45 M1358.09 1512.38 Q1358.09 1504.55 1353.82 1500.7 Q1349.6 1496.84 1342.92 1496.84 L1333.94 1496.84 Q1331.28 1496.84 1330.62 1497.33 Q1329.97 1497.78 1329.4 1500.04 L1317.88 1546.11 Q1317.47 1547.63 1317.47 1548.04 Q1317.47 1548.49 1317.67 1548.65 Q1317.92 1548.78 1318.57 1548.86 Q1319.31 1548.98 1320.42 1548.98 L1329.89 1548.98 Q1333.53 1548.98 1336.86 1548 Q1340.22 1546.97 1342.63 1545.37 Q1345.05 1543.73 1346.61 1542.34 Q1348.17 1540.91 1349.27 1539.47 Q1351.78 1536.23 1353.62 1532.01 Q1355.51 1527.79 1356.37 1523.94 Q1357.27 1520.04 1357.68 1517.17 Q1358.09 1514.26 1358.09 1512.38 Z" fill="#000000" fill-rule="nonzero" fill-opacity="1" /><path clip-path="url(#clip030)" d="M1373.77 1574.82 Q1373.77 1573.76 1373.85 1573.44 Q1373.97 1573.13 1374.43 1572.64 L1385.7 1560.07 Q1391.87 1553.13 1391.87 1547.07 Q1391.87 1543.14 1389.81 1540.33 Q1387.77 1537.52 1384.01 1537.52 Q1381.43 1537.52 1379.25 1539.1 Q1377.07 1540.68 1376.06 1543.49 Q1376.24 1543.43 1376.84 1543.43 Q1378.3 1543.43 1379.1 1544.35 Q1379.94 1545.27 1379.94 1546.5 Q1379.94 1548.08 1378.9 1548.85 Q1377.9 1549.6 1376.9 1549.6 Q1376.49 1549.6 1375.95 1549.51 Q1375.43 1549.43 1374.6 1548.62 Q1373.77 1547.79 1373.77 1546.33 Q1373.77 1542.23 1376.87 1538.95 Q1379.99 1535.68 1384.76 1535.68 Q1390.15 1535.68 1393.68 1538.9 Q1397.24 1542.08 1397.24 1547.07 Q1397.24 1548.82 1396.69 1550.43 Q1396.18 1552.01 1395.46 1553.24 Q1394.77 1554.48 1392.88 1556.46 Q1390.98 1558.44 1389.46 1559.84 Q1387.94 1561.25 1384.53 1564.23 L1378.3 1570.29 L1388.89 1570.29 Q1394.05 1570.29 1394.45 1569.83 Q1395.03 1569 1395.75 1564.61 L1397.24 1564.61 L1395.57 1574.82 L1373.77 1574.82 Z" fill="#000000" fill-rule="nonzero" fill-opacity="1" /><polyline clip-path="url(#clip032)" style="stroke:#000000; stroke-linecap:round; stroke-linejoin:round; stroke-width:2; stroke-opacity:0.1; fill:none" points="262.502,1371.65 2352.76,1371.65 "/>
<polyline clip-path="url(#clip032)" style="stroke:#000000; stroke-linecap:round; stroke-linejoin:round; stroke-width:2; stroke-opacity:0.1; fill:none" points="262.502,1050.19 2352.76,1050.19 "/>
<polyline clip-path="url(#clip032)" style="stroke:#000000; stroke-linecap:round; stroke-linejoin:round; stroke-width:2; stroke-opacity:0.1; fill:none" points="262.502,728.732 2352.76,728.732 "/>
<polyline clip-path="url(#clip032)" style="stroke:#000000; stroke-linecap:round; stroke-linejoin:round; stroke-width:2; stroke-opacity:0.1; fill:none" points="262.502,407.275 2352.76,407.275 "/>
<polyline clip-path="url(#clip032)" style="stroke:#000000; stroke-linecap:round; stroke-linejoin:round; stroke-width:2; stroke-opacity:0.1; fill:none" points="262.502,85.8189 2352.76,85.8189 "/>
<polyline clip-path="url(#clip030)" style="stroke:#000000; stroke-linecap:round; stroke-linejoin:round; stroke-width:4; stroke-opacity:1; fill:none" points="262.502,1410.22 262.502,47.2441 "/>
<polyline clip-path="url(#clip030)" style="stroke:#000000; stroke-linecap:round; stroke-linejoin:round; stroke-width:4; stroke-opacity:1; fill:none" points="262.502,1371.65 281.4,1371.65 "/>
<polyline clip-path="url(#clip030)" style="stroke:#000000; stroke-linecap:round; stroke-linejoin:round; stroke-width:4; stroke-opacity:1; fill:none" points="262.502,1050.19 281.4,1050.19 "/>
<polyline clip-path="url(#clip030)" style="stroke:#000000; stroke-linecap:round; stroke-linejoin:round; stroke-width:4; stroke-opacity:1; fill:none" points="262.502,728.732 281.4,728.732 "/>
<polyline clip-path="url(#clip030)" style="stroke:#000000; stroke-linecap:round; stroke-linejoin:round; stroke-width:4; stroke-opacity:1; fill:none" points="262.502,407.275 281.4,407.275 "/>
<polyline clip-path="url(#clip030)" style="stroke:#000000; stroke-linecap:round; stroke-linejoin:round; stroke-width:4; stroke-opacity:1; fill:none" points="262.502,85.8189 281.4,85.8189 "/>
<path clip-path="url(#clip030)" d="M139.165 1357.44 Q135.553 1357.44 133.725 1361.01 Q131.919 1364.55 131.919 1371.68 Q131.919 1378.79 133.725 1382.35 Q135.553 1385.89 139.165 1385.89 Q142.799 1385.89 144.604 1382.35 Q146.433 1378.79 146.433 1371.68 Q146.433 1364.55 144.604 1361.01 Q142.799 1357.44 139.165 1357.44 M139.165 1353.74 Q144.975 1353.74 148.03 1358.35 Q151.109 1362.93 151.109 1371.68 Q151.109 1380.41 148.03 1385.01 Q144.975 1389.6 139.165 1389.6 Q133.354 1389.6 130.276 1385.01 Q127.22 1380.41 127.22 1371.68 Q127.22 1362.93 130.276 1358.35 Q133.354 1353.74 139.165 1353.74 Z" fill="#000000" fill-rule="nonzero" fill-opacity="1" /><path clip-path="url(#clip030)" d="M159.326 1383.05 L164.211 1383.05 L164.211 1388.93 L159.326 1388.93 L159.326 1383.05 Z" fill="#000000" fill-rule="nonzero" fill-opacity="1" /><path clip-path="url(#clip030)" d="M184.396 1357.44 Q180.785 1357.44 178.956 1361.01 Q177.15 1364.55 177.15 1371.68 Q177.15 1378.79 178.956 1382.35 Q180.785 1385.89 184.396 1385.89 Q188.03 1385.89 189.836 1382.35 Q191.664 1378.79 191.664 1371.68 Q191.664 1364.55 189.836 1361.01 Q188.03 1357.44 184.396 1357.44 M184.396 1353.74 Q190.206 1353.74 193.261 1358.35 Q196.34 1362.93 196.34 1371.68 Q196.34 1380.41 193.261 1385.01 Q190.206 1389.6 184.396 1389.6 Q178.586 1389.6 175.507 1385.01 Q172.451 1380.41 172.451 1371.68 Q172.451 1362.93 175.507 1358.35 Q178.586 1353.74 184.396 1353.74 Z" fill="#000000" fill-rule="nonzero" fill-opacity="1" /><path clip-path="url(#clip030)" d="M214.558 1357.44 Q210.947 1357.44 209.118 1361.01 Q207.312 1364.55 207.312 1371.68 Q207.312 1378.79 209.118 1382.35 Q210.947 1385.89 214.558 1385.89 Q218.192 1385.89 219.997 1382.35 Q221.826 1378.79 221.826 1371.68 Q221.826 1364.55 219.997 1361.01 Q218.192 1357.44 214.558 1357.44 M214.558 1353.74 Q220.368 1353.74 223.423 1358.35 Q226.502 1362.93 226.502 1371.68 Q226.502 1380.41 223.423 1385.01 Q220.368 1389.6 214.558 1389.6 Q208.747 1389.6 205.669 1385.01 Q202.613 1380.41 202.613 1371.68 Q202.613 1362.93 205.669 1358.35 Q208.747 1353.74 214.558 1353.74 Z" fill="#000000" fill-rule="nonzero" fill-opacity="1" /><path clip-path="url(#clip030)" d="M140.16 1035.99 Q136.549 1035.99 134.72 1039.55 Q132.915 1043.09 132.915 1050.22 Q132.915 1057.33 134.72 1060.89 Q136.549 1064.44 140.16 1064.44 Q143.794 1064.44 145.6 1060.89 Q147.428 1057.33 147.428 1050.22 Q147.428 1043.09 145.6 1039.55 Q143.794 1035.99 140.16 1035.99 M140.16 1032.28 Q145.97 1032.28 149.026 1036.89 Q152.104 1041.47 152.104 1050.22 Q152.104 1058.95 149.026 1063.56 Q145.97 1068.14 140.16 1068.14 Q134.35 1068.14 131.271 1063.56 Q128.216 1058.95 128.216 1050.22 Q128.216 1041.47 131.271 1036.89 Q134.35 1032.28 140.16 1032.28 Z" fill="#000000" fill-rule="nonzero" fill-opacity="1" /><path clip-path="url(#clip030)" d="M160.322 1061.59 L165.206 1061.59 L165.206 1067.47 L160.322 1067.47 L160.322 1061.59 Z" fill="#000000" fill-rule="nonzero" fill-opacity="1" /><path clip-path="url(#clip030)" d="M179.419 1063.53 L195.738 1063.53 L195.738 1067.47 L173.794 1067.47 L173.794 1063.53 Q176.456 1060.78 181.039 1056.15 Q185.646 1051.5 186.826 1050.15 Q189.072 1047.63 189.951 1045.89 Q190.854 1044.14 190.854 1042.45 Q190.854 1039.69 188.91 1037.95 Q186.988 1036.22 183.887 1036.22 Q181.687 1036.22 179.234 1036.98 Q176.803 1037.75 174.025 1039.3 L174.025 1034.58 Q176.85 1033.44 179.303 1032.86 Q181.757 1032.28 183.794 1032.28 Q189.164 1032.28 192.359 1034.97 Q195.553 1037.65 195.553 1042.14 Q195.553 1044.27 194.743 1046.2 Q193.956 1048.09 191.849 1050.69 Q191.271 1051.36 188.169 1054.58 Q185.067 1057.77 179.419 1063.53 Z" fill="#000000" fill-rule="nonzero" fill-opacity="1" /><path clip-path="url(#clip030)" d="M205.599 1032.91 L223.956 1032.91 L223.956 1036.84 L209.882 1036.84 L209.882 1045.32 Q210.9 1044.97 211.919 1044.81 Q212.937 1044.62 213.956 1044.62 Q219.743 1044.62 223.122 1047.79 Q226.502 1050.96 226.502 1056.38 Q226.502 1061.96 223.03 1065.06 Q219.558 1068.14 213.238 1068.14 Q211.062 1068.14 208.794 1067.77 Q206.548 1067.4 204.141 1066.66 L204.141 1061.96 Q206.224 1063.09 208.447 1063.65 Q210.669 1064.2 213.146 1064.2 Q217.15 1064.2 219.488 1062.1 Q221.826 1059.99 221.826 1056.38 Q221.826 1052.77 219.488 1050.66 Q217.15 1048.56 213.146 1048.56 Q211.271 1048.56 209.396 1048.97 Q207.544 1049.39 205.599 1050.27 L205.599 1032.91 Z" fill="#000000" fill-rule="nonzero" fill-opacity="1" /><path clip-path="url(#clip030)" d="M139.165 714.531 Q135.553 714.531 133.725 718.095 Q131.919 721.637 131.919 728.767 Q131.919 735.873 133.725 739.438 Q135.553 742.98 139.165 742.98 Q142.799 742.98 144.604 739.438 Q146.433 735.873 146.433 728.767 Q146.433 721.637 144.604 718.095 Q142.799 714.531 139.165 714.531 M139.165 710.827 Q144.975 710.827 148.03 715.433 Q151.109 720.017 151.109 728.767 Q151.109 737.493 148.03 742.1 Q144.975 746.683 139.165 746.683 Q133.354 746.683 130.276 742.1 Q127.22 737.493 127.22 728.767 Q127.22 720.017 130.276 715.433 Q133.354 710.827 139.165 710.827 Z" fill="#000000" fill-rule="nonzero" fill-opacity="1" /><path clip-path="url(#clip030)" d="M159.326 740.132 L164.211 740.132 L164.211 746.012 L159.326 746.012 L159.326 740.132 Z" fill="#000000" fill-rule="nonzero" fill-opacity="1" /><path clip-path="url(#clip030)" d="M174.442 711.452 L192.799 711.452 L192.799 715.387 L178.725 715.387 L178.725 723.859 Q179.743 723.512 180.762 723.35 Q181.78 723.165 182.799 723.165 Q188.586 723.165 191.965 726.336 Q195.345 729.507 195.345 734.924 Q195.345 740.503 191.873 743.605 Q188.4 746.683 182.081 746.683 Q179.905 746.683 177.637 746.313 Q175.391 745.943 172.984 745.202 L172.984 740.503 Q175.067 741.637 177.289 742.193 Q179.512 742.748 181.988 742.748 Q185.993 742.748 188.331 740.642 Q190.669 738.535 190.669 734.924 Q190.669 731.313 188.331 729.207 Q185.993 727.1 181.988 727.1 Q180.113 727.1 178.238 727.517 Q176.387 727.933 174.442 728.813 L174.442 711.452 Z" fill="#000000" fill-rule="nonzero" fill-opacity="1" /><path clip-path="url(#clip030)" d="M214.558 714.531 Q210.947 714.531 209.118 718.095 Q207.312 721.637 207.312 728.767 Q207.312 735.873 209.118 739.438 Q210.947 742.98 214.558 742.98 Q218.192 742.98 219.997 739.438 Q221.826 735.873 221.826 728.767 Q221.826 721.637 219.997 718.095 Q218.192 714.531 214.558 714.531 M214.558 710.827 Q220.368 710.827 223.423 715.433 Q226.502 720.017 226.502 728.767 Q226.502 737.493 223.423 742.1 Q220.368 746.683 214.558 746.683 Q208.747 746.683 205.669 742.1 Q202.613 737.493 202.613 728.767 Q202.613 720.017 205.669 715.433 Q208.747 710.827 214.558 710.827 Z" fill="#000000" fill-rule="nonzero" fill-opacity="1" /><path clip-path="url(#clip030)" d="M140.16 393.074 Q136.549 393.074 134.72 396.639 Q132.915 400.181 132.915 407.31 Q132.915 414.417 134.72 417.981 Q136.549 421.523 140.16 421.523 Q143.794 421.523 145.6 417.981 Q147.428 414.417 147.428 407.31 Q147.428 400.181 145.6 396.639 Q143.794 393.074 140.16 393.074 M140.16 389.37 Q145.97 389.37 149.026 393.977 Q152.104 398.56 152.104 407.31 Q152.104 416.037 149.026 420.643 Q145.97 425.227 140.16 425.227 Q134.35 425.227 131.271 420.643 Q128.216 416.037 128.216 407.31 Q128.216 398.56 131.271 393.977 Q134.35 389.37 140.16 389.37 Z" fill="#000000" fill-rule="nonzero" fill-opacity="1" /><path clip-path="url(#clip030)" d="M160.322 418.676 L165.206 418.676 L165.206 424.555 L160.322 424.555 L160.322 418.676 Z" fill="#000000" fill-rule="nonzero" fill-opacity="1" /><path clip-path="url(#clip030)" d="M174.211 389.995 L196.433 389.995 L196.433 391.986 L183.887 424.555 L179.002 424.555 L190.808 393.931 L174.211 393.931 L174.211 389.995 Z" fill="#000000" fill-rule="nonzero" fill-opacity="1" /><path clip-path="url(#clip030)" d="M205.599 389.995 L223.956 389.995 L223.956 393.931 L209.882 393.931 L209.882 402.403 Q210.9 402.056 211.919 401.894 Q212.937 401.708 213.956 401.708 Q219.743 401.708 223.122 404.88 Q226.502 408.051 226.502 413.468 Q226.502 419.046 223.03 422.148 Q219.558 425.227 213.238 425.227 Q211.062 425.227 208.794 424.856 Q206.548 424.486 204.141 423.745 L204.141 419.046 Q206.224 420.18 208.447 420.736 Q210.669 421.292 213.146 421.292 Q217.15 421.292 219.488 419.185 Q221.826 417.079 221.826 413.468 Q221.826 409.856 219.488 407.75 Q217.15 405.643 213.146 405.643 Q211.271 405.643 209.396 406.06 Q207.544 406.477 205.599 407.356 L205.599 389.995 Z" fill="#000000" fill-rule="nonzero" fill-opacity="1" /><path clip-path="url(#clip030)" d="M129.975 99.1637 L137.614 99.1637 L137.614 72.7981 L129.303 74.4648 L129.303 70.2055 L137.567 68.5389 L142.243 68.5389 L142.243 99.1637 L149.882 99.1637 L149.882 103.099 L129.975 103.099 L129.975 99.1637 Z" fill="#000000" fill-rule="nonzero" fill-opacity="1" /><path clip-path="url(#clip030)" d="M159.326 97.2193 L164.211 97.2193 L164.211 103.099 L159.326 103.099 L159.326 97.2193 Z" fill="#000000" fill-rule="nonzero" fill-opacity="1" /><path clip-path="url(#clip030)" d="M184.396 71.6176 Q180.785 71.6176 178.956 75.1824 Q177.15 78.724 177.15 85.8536 Q177.15 92.96 178.956 96.5248 Q180.785 100.066 184.396 100.066 Q188.03 100.066 189.836 96.5248 Q191.664 92.96 191.664 85.8536 Q191.664 78.724 189.836 75.1824 Q188.03 71.6176 184.396 71.6176 M184.396 67.9139 Q190.206 67.9139 193.261 72.5203 Q196.34 77.1036 196.34 85.8536 Q196.34 94.5804 193.261 99.1869 Q190.206 103.77 184.396 103.77 Q178.586 103.77 175.507 99.1869 Q172.451 94.5804 172.451 85.8536 Q172.451 77.1036 175.507 72.5203 Q178.586 67.9139 184.396 67.9139 Z" fill="#000000" fill-rule="nonzero" fill-opacity="1" /><path clip-path="url(#clip030)" d="M214.558 71.6176 Q210.947 71.6176 209.118 75.1824 Q207.312 78.724 207.312 85.8536 Q207.312 92.96 209.118 96.5248 Q210.947 100.066 214.558 100.066 Q218.192 100.066 219.997 96.5248 Q221.826 92.96 221.826 85.8536 Q221.826 78.724 219.997 75.1824 Q218.192 71.6176 214.558 71.6176 M214.558 67.9139 Q220.368 67.9139 223.423 72.5203 Q226.502 77.1036 226.502 85.8536 Q226.502 94.5804 223.423 99.1869 Q220.368 103.77 214.558 103.77 Q208.747 103.77 205.669 99.1869 Q202.613 94.5804 202.613 85.8536 Q202.613 77.1036 205.669 72.5203 Q208.747 67.9139 214.558 67.9139 Z" fill="#000000" fill-rule="nonzero" fill-opacity="1" /><path clip-path="url(#clip030)" d="M65.3416 1240.97 L89.404 1240.97 L89.404 1248.47 L26.777 1248.47 L26.777 1240.97 L33.6636 1240.97 Q29.6127 1238.62 27.6682 1235.06 Q25.6833 1231.45 25.6833 1226.47 Q25.6833 1218.21 32.2458 1213.06 Q38.8082 1207.88 49.5026 1207.88 Q60.197 1207.88 66.7595 1213.06 Q73.3219 1218.21 73.3219 1226.47 Q73.3219 1231.45 71.3775 1235.06 Q69.3925 1238.62 65.3416 1240.97 M49.5026 1215.62 Q41.2793 1215.62 36.6207 1219.02 Q31.9217 1222.38 31.9217 1228.29 Q31.9217 1234.21 36.6207 1237.61 Q41.2793 1240.97 49.5026 1240.97 Q57.7259 1240.97 62.425 1237.61 Q67.0835 1234.21 67.0835 1228.29 Q67.0835 1222.38 62.425 1219.02 Q57.7259 1215.62 49.5026 1215.62 Z" fill="#000000" fill-rule="nonzero" fill-opacity="1" /><path clip-path="url(#clip030)" d="M33.7446 1169.23 Q33.0154 1170.49 32.6914 1171.99 Q32.3268 1173.45 32.3268 1175.23 Q32.3268 1181.55 36.4587 1184.95 Q40.5501 1188.31 48.2468 1188.31 L72.1472 1188.31 L72.1472 1195.81 L26.777 1195.81 L26.777 1188.31 L33.8256 1188.31 Q29.6937 1185.96 27.7087 1182.2 Q25.6833 1178.43 25.6833 1173.04 Q25.6833 1172.27 25.8048 1171.34 Q25.8858 1170.41 26.0884 1169.27 L33.7446 1169.23 Z" fill="#000000" fill-rule="nonzero" fill-opacity="1" /><path clip-path="url(#clip030)" d="M32.0027 1145.66 Q32.0027 1151.65 36.7017 1155.14 Q41.3603 1158.62 49.5026 1158.62 Q57.6449 1158.62 62.344 1155.18 Q67.0025 1151.69 67.0025 1145.66 Q67.0025 1139.7 62.3035 1136.22 Q57.6044 1132.73 49.5026 1132.73 Q41.4413 1132.73 36.7423 1136.22 Q32.0027 1139.7 32.0027 1145.66 M25.6833 1145.66 Q25.6833 1135.93 32.0027 1130.38 Q38.3221 1124.83 49.5026 1124.83 Q60.6426 1124.83 67.0025 1130.38 Q73.3219 1135.93 73.3219 1145.66 Q73.3219 1155.42 67.0025 1160.97 Q60.6426 1166.48 49.5026 1166.48 Q38.3221 1166.48 32.0027 1160.97 Q25.6833 1155.42 25.6833 1145.66 Z" fill="#000000" fill-rule="nonzero" fill-opacity="1" /><path clip-path="url(#clip030)" d="M9.11509 1089.51 L15.313 1089.51 L15.313 1096.64 Q15.313 1100.65 16.9333 1102.23 Q18.5537 1103.77 22.7666 1103.77 L26.777 1103.77 L26.777 1091.5 L32.5698 1091.5 L32.5698 1103.77 L72.1472 1103.77 L72.1472 1111.26 L32.5698 1111.26 L32.5698 1118.39 L26.777 1118.39 L26.777 1111.26 L23.6173 1111.26 Q16.0421 1111.26 12.5989 1107.74 Q9.11509 1104.22 9.11509 1096.56 L9.11509 1089.51 Z" fill="#000000" fill-rule="nonzero" fill-opacity="1" /><path clip-path="url(#clip030)" d="M26.777 1083.27 L26.777 1075.82 L72.1472 1075.82 L72.1472 1083.27 L26.777 1083.27 M9.11509 1083.27 L9.11509 1075.82 L18.5537 1075.82 L18.5537 1083.27 L9.11509 1083.27 Z" fill="#000000" fill-rule="nonzero" fill-opacity="1" /><path clip-path="url(#clip030)" d="M9.11509 1060.22 L9.11509 1052.77 L72.1472 1052.77 L72.1472 1060.22 L9.11509 1060.22 Z" fill="#000000" fill-rule="nonzero" fill-opacity="1" /><path clip-path="url(#clip030)" d="M47.5987 998.365 L51.2445 998.365 L51.2445 1032.64 Q58.9412 1032.15 62.9921 1028.02 Q67.0025 1023.85 67.0025 1016.43 Q67.0025 1012.14 65.9493 1008.13 Q64.896 1004.08 62.7896 1000.11 L69.8381 1000.11 Q71.5395 1004.12 72.4307 1008.33 Q73.3219 1012.54 73.3219 1016.88 Q73.3219 1027.73 67.0025 1034.09 Q60.6831 1040.41 49.9077 1040.41 Q38.7677 1040.41 32.2458 1034.42 Q25.6833 1028.38 25.6833 1018.17 Q25.6833 1009.02 31.5976 1003.71 Q37.4714 998.365 47.5987 998.365 M45.4112 1005.82 Q39.2943 1005.9 35.6485 1009.26 Q32.0027 1012.58 32.0027 1018.09 Q32.0027 1024.33 35.527 1028.1 Q39.0513 1031.83 45.4517 1032.39 L45.4112 1005.82 Z" fill="#000000" fill-rule="nonzero" fill-opacity="1" /><path clip-path="url(#clip030)" d="M9.11509 959.76 L9.11509 952.306 L72.1472 952.306 L72.1472 959.76 L9.11509 959.76 Z" fill="#000000" fill-rule="nonzero" fill-opacity="1" /><path clip-path="url(#clip030)" d="M26.777 936.711 L26.777 929.257 L72.1472 929.257 L72.1472 936.711 L26.777 936.711 M9.11509 936.711 L9.11509 929.257 L18.5537 929.257 L18.5537 936.711 L9.11509 936.711 Z" fill="#000000" fill-rule="nonzero" fill-opacity="1" /><path clip-path="url(#clip030)" d="M9.11509 913.944 L9.11509 906.45 L46.3429 906.45 L26.777 884.211 L26.777 874.691 L48.0038 898.754 L72.1472 873.678 L72.1472 883.401 L49.9887 906.45 L72.1472 906.45 L72.1472 913.944 L9.11509 913.944 Z" fill="#000000" fill-rule="nonzero" fill-opacity="1" /><path clip-path="url(#clip030)" d="M47.5987 829.767 L51.2445 829.767 L51.2445 864.037 Q58.9412 863.551 62.9921 859.419 Q67.0025 855.247 67.0025 847.834 Q67.0025 843.54 65.9493 839.529 Q64.896 835.478 62.7896 831.509 L69.8381 831.509 Q71.5395 835.519 72.4307 839.732 Q73.3219 843.945 73.3219 848.279 Q73.3219 859.136 67.0025 865.496 Q60.6831 871.815 49.9077 871.815 Q38.7677 871.815 32.2458 865.82 Q25.6833 859.784 25.6833 849.576 Q25.6833 840.421 31.5976 835.114 Q37.4714 829.767 47.5987 829.767 M45.4112 837.22 Q39.2943 837.301 35.6485 840.664 Q32.0027 843.985 32.0027 849.495 Q32.0027 855.733 35.527 859.5 Q39.0513 863.227 45.4517 863.794 L45.4112 837.22 Z" fill="#000000" fill-rule="nonzero" fill-opacity="1" /><path clip-path="url(#clip030)" d="M9.11509 817.533 L9.11509 810.079 L72.1472 810.079 L72.1472 817.533 L9.11509 817.533 Z" fill="#000000" fill-rule="nonzero" fill-opacity="1" /><path clip-path="url(#clip030)" d="M26.777 794.483 L26.777 787.03 L72.1472 787.03 L72.1472 794.483 L26.777 794.483 M9.11509 794.483 L9.11509 787.03 L18.5537 787.03 L18.5537 794.483 L9.11509 794.483 Z" fill="#000000" fill-rule="nonzero" fill-opacity="1" /><path clip-path="url(#clip030)" d="M44.763 733.72 L72.1472 733.72 L72.1472 741.173 L45.0061 741.173 Q38.5652 741.173 35.3649 743.685 Q32.1647 746.196 32.1647 751.22 Q32.1647 757.255 36.0131 760.739 Q39.8615 764.223 46.5049 764.223 L72.1472 764.223 L72.1472 771.717 L9.11509 771.717 L9.11509 764.223 L33.8256 764.223 Q29.7342 761.549 27.7087 757.944 Q25.6833 754.298 25.6833 749.559 Q25.6833 741.74 30.5444 737.73 Q35.3649 733.72 44.763 733.72 Z" fill="#000000" fill-rule="nonzero" fill-opacity="1" /><path clip-path="url(#clip030)" d="M32.0027 701.272 Q32.0027 707.267 36.7017 710.751 Q41.3603 714.235 49.5026 714.235 Q57.6449 714.235 62.344 710.792 Q67.0025 707.308 67.0025 701.272 Q67.0025 695.317 62.3035 691.833 Q57.6044 688.35 49.5026 688.35 Q41.4413 688.35 36.7423 691.833 Q32.0027 695.317 32.0027 701.272 M25.6833 701.272 Q25.6833 691.55 32.0027 686 Q38.3221 680.45 49.5026 680.45 Q60.6426 680.45 67.0025 686 Q73.3219 691.55 73.3219 701.272 Q73.3219 711.035 67.0025 716.584 Q60.6426 722.094 49.5026 722.094 Q38.3221 722.094 32.0027 716.584 Q25.6833 711.035 25.6833 701.272 Z" fill="#000000" fill-rule="nonzero" fill-opacity="1" /><path clip-path="url(#clip030)" d="M32.0027 650.514 Q32.0027 656.509 36.7017 659.993 Q41.3603 663.477 49.5026 663.477 Q57.6449 663.477 62.344 660.034 Q67.0025 656.55 67.0025 650.514 Q67.0025 644.559 62.3035 641.076 Q57.6044 637.592 49.5026 637.592 Q41.4413 637.592 36.7423 641.076 Q32.0027 644.559 32.0027 650.514 M25.6833 650.514 Q25.6833 640.792 32.0027 635.242 Q38.3221 629.692 49.5026 629.692 Q60.6426 629.692 67.0025 635.242 Q73.3219 640.792 73.3219 650.514 Q73.3219 660.277 67.0025 665.827 Q60.6426 671.336 49.5026 671.336 Q38.3221 671.336 32.0027 665.827 Q25.6833 660.277 25.6833 650.514 Z" fill="#000000" fill-rule="nonzero" fill-opacity="1" /><path clip-path="url(#clip030)" d="M33.6636 587.482 L9.11509 587.482 L9.11509 580.028 L72.1472 580.028 L72.1472 587.482 L65.3416 587.482 Q69.3925 589.832 71.3775 593.437 Q73.3219 597.002 73.3219 602.025 Q73.3219 610.248 66.7595 615.433 Q60.197 620.578 49.5026 620.578 Q38.8082 620.578 32.2458 615.433 Q25.6833 610.248 25.6833 602.025 Q25.6833 597.002 27.6682 593.437 Q29.6127 589.832 33.6636 587.482 M49.5026 612.881 Q57.7259 612.881 62.425 609.519 Q67.0835 606.116 67.0835 600.202 Q67.0835 594.288 62.425 590.885 Q57.7259 587.482 49.5026 587.482 Q41.2793 587.482 36.6207 590.885 Q31.9217 594.288 31.9217 600.202 Q31.9217 606.116 36.6207 609.519 Q41.2793 612.881 49.5026 612.881 Z" fill="#000000" fill-rule="nonzero" fill-opacity="1" /><path clip-path="url(#clip030)" d="M9.11509 515.335 L15.313 515.335 L15.313 522.465 Q15.313 526.475 16.9333 528.055 Q18.5537 529.595 22.7666 529.595 L26.777 529.595 L26.777 517.32 L32.5698 517.32 L32.5698 529.595 L72.1472 529.595 L72.1472 537.089 L32.5698 537.089 L32.5698 544.218 L26.777 544.218 L26.777 537.089 L23.6173 537.089 Q16.0421 537.089 12.5989 533.565 Q9.11509 530.04 9.11509 522.384 L9.11509 515.335 Z" fill="#000000" fill-rule="nonzero" fill-opacity="1" /><path clip-path="url(#clip030)" d="M32.0027 491.516 Q32.0027 497.511 36.7017 500.995 Q41.3603 504.479 49.5026 504.479 Q57.6449 504.479 62.344 501.036 Q67.0025 497.552 67.0025 491.516 Q67.0025 485.561 62.3035 482.078 Q57.6044 478.594 49.5026 478.594 Q41.4413 478.594 36.7423 482.078 Q32.0027 485.561 32.0027 491.516 M25.6833 491.516 Q25.6833 481.794 32.0027 476.244 Q38.3221 470.694 49.5026 470.694 Q60.6426 470.694 67.0025 476.244 Q73.3219 481.794 73.3219 491.516 Q73.3219 501.279 67.0025 506.829 Q60.6426 512.338 49.5026 512.338 Q38.3221 512.338 32.0027 506.829 Q25.6833 501.279 25.6833 491.516 Z" fill="#000000" fill-rule="nonzero" fill-opacity="1" /><path clip-path="url(#clip030)" d="M33.7446 432.049 Q33.0154 433.305 32.6914 434.803 Q32.3268 436.262 32.3268 438.044 Q32.3268 444.364 36.4587 447.766 Q40.5501 451.129 48.2468 451.129 L72.1472 451.129 L72.1472 458.623 L26.777 458.623 L26.777 451.129 L33.8256 451.129 Q29.6937 448.779 27.7087 445.012 Q25.6833 441.244 25.6833 435.857 Q25.6833 435.087 25.8048 434.155 Q25.8858 433.224 26.0884 432.089 L33.7446 432.049 Z" fill="#000000" fill-rule="nonzero" fill-opacity="1" /><path clip-path="url(#clip030)" d="M72.1472 405.677 L69.5648 405.677 Q69.5648 401.21 69.032 400.185 Q68.4581 399.16 65.7528 399.16 L22.0992 399.16 Q18.9841 399.16 18.2053 400.267 Q17.4265 401.333 17.4265 405.677 L14.8032 405.677 L13.9014 393.627 L65.7528 393.627 Q68.4581 393.627 69.032 392.561 Q69.5648 391.495 69.5648 387.068 L72.1472 387.068 Q72.1472 388.093 72.0652 390.225 Q71.9832 392.356 71.9422 393.914 Q71.9012 395.471 71.9012 396.373 Q71.9012 397.357 72.1472 405.677 Z" fill="#000000" fill-rule="nonzero" fill-opacity="1" /><path clip-path="url(#clip030)" d="M72.1472 381.988 L69.5648 381.988 Q69.5648 377.52 69.032 376.495 Q68.4581 375.47 65.7528 375.47 L43.2497 375.47 Q40.1345 375.47 39.3557 376.577 Q38.5769 377.643 38.5769 381.988 L35.9536 381.988 L35.0519 370.183 L43.8646 370.183 Q35.0519 366.248 35.0519 357.763 Q35.0519 351.451 38.167 348.95 Q40.2575 347.106 42.5939 346.737 Q44.9303 346.327 50.9967 346.327 L67.0235 346.327 Q68.786 346.245 69.1959 344.892 Q69.5648 343.54 69.5648 339.769 L72.1472 339.769 Q71.9012 348.335 71.9012 349.196 Q71.9012 349.852 72.1472 358.665 L69.5648 358.665 Q69.5648 354.197 69.032 353.172 Q68.4581 352.106 65.7528 352.106 L46.2009 352.106 Q41.9381 352.106 39.4377 353.418 Q36.8964 354.73 36.8964 358.337 Q36.8964 362.682 40.5444 366.166 Q44.1925 369.65 50.3409 369.65 L65.7528 369.65 Q68.4581 369.65 69.032 368.625 Q69.5648 367.559 69.5648 363.132 L72.1472 363.132 Q71.9012 371.699 71.9012 372.519 Q71.9012 373.175 72.1472 381.988 Z" fill="#000000" fill-rule="nonzero" fill-opacity="1" /><path clip-path="url(#clip030)" d="M36.0356 249.541 Q42.7988 249.541 49.4391 252.451 Q56.0384 255.321 61.0391 259.993 Q65.9988 264.625 69.073 270.896 Q72.1472 277.168 72.1472 283.562 L72.1472 311.353 Q72.1472 312.337 72.1062 312.747 Q72.0652 313.115 71.8602 313.402 Q71.6143 313.689 71.1224 313.689 Q70.3436 313.689 70.0157 313.361 Q69.6468 313.033 69.6058 312.665 Q69.5648 312.296 69.5648 311.353 Q69.5648 309.303 69.4419 308.074 Q69.3189 306.844 69.1549 306.065 Q68.95 305.245 68.3761 304.836 Q67.8023 304.385 67.3104 304.18 Q66.7776 303.975 65.5889 303.688 L20.5007 292.457 Q19.148 292.129 18.9431 292.129 Q18.2463 292.129 18.0003 292.539 Q17.7134 292.908 17.5904 293.973 Q17.4265 296.023 17.4265 297.58 Q17.4265 298.605 17.3855 299.015 Q17.3445 299.384 17.1395 299.712 Q16.8936 299.999 16.4017 299.999 Q15.6229 299.999 15.295 299.671 Q14.9261 299.302 14.8851 298.892 Q14.8032 298.482 14.8032 297.499 L14.8032 269.298 Q14.8032 263.19 17.6724 258.641 Q20.5007 254.091 25.2964 251.836 Q30.0512 249.541 36.0356 249.541 M32.9614 256.878 Q25.1325 256.878 21.2795 261.141 Q17.4265 265.363 17.4265 272.044 L17.4265 281.021 Q17.4265 283.685 17.9183 284.341 Q18.3692 284.997 20.6236 285.571 L66.6956 297.089 Q68.2122 297.499 68.6221 297.499 Q69.073 297.499 69.2369 297.294 Q69.3599 297.048 69.4419 296.392 Q69.5648 295.654 69.5648 294.547 L69.5648 285.079 Q69.5648 281.431 68.5811 278.111 Q67.5564 274.749 65.9578 272.331 Q64.3182 269.913 62.9246 268.355 Q61.4899 266.798 60.0553 265.691 Q56.8172 263.19 52.5953 261.346 Q48.3734 259.46 44.5204 258.6 Q40.6264 257.698 37.7572 257.288 Q34.8469 256.878 32.9614 256.878 Z" fill="#000000" fill-rule="nonzero" fill-opacity="1" /><path clip-path="url(#clip030)" d="M95.4047 241.198 Q94.343 241.198 94.0274 241.112 Q93.7118 240.997 93.224 240.538 L80.6567 229.262 Q73.7131 223.093 67.659 223.093 Q63.7281 223.093 60.9163 225.159 Q58.1044 227.196 58.1044 230.955 Q58.1044 233.537 59.6825 235.718 Q61.2606 237.898 64.0725 238.903 Q64.0151 238.73 64.0151 238.128 Q64.0151 236.665 64.9332 235.861 Q65.8514 235.029 67.0852 235.029 Q68.6633 235.029 69.4379 236.062 Q70.184 237.066 70.184 238.071 Q70.184 238.472 70.0979 239.017 Q70.0118 239.534 69.2084 240.366 Q68.3763 241.198 66.913 241.198 Q62.81 241.198 59.539 238.099 Q56.2681 234.972 56.2681 230.209 Q56.2681 224.815 59.4817 221.285 Q62.6665 217.728 67.659 217.728 Q69.4093 217.728 71.016 218.273 Q72.5941 218.789 73.8279 219.506 Q75.0617 220.195 77.0415 222.089 Q79.0212 223.983 80.4272 225.503 Q81.8331 227.024 84.8171 230.438 L90.8712 236.665 L90.8712 226.077 Q90.8712 220.912 90.4122 220.511 Q89.5801 219.937 85.1901 219.22 L85.1901 217.728 L95.4047 219.392 L95.4047 241.198 Z" fill="#000000" fill-rule="nonzero" fill-opacity="1" /><polyline clip-path="url(#clip032)" style="stroke:#000000; stroke-linecap:round; stroke-linejoin:round; stroke-width:8; stroke-opacity:1; fill:none" points="321.66,1009.3 325.612,708.995 329.564,372.577 333.515,131.323 337.467,85.8189 341.419,85.8192 345.371,86.0166 349.323,85.8189 353.274,85.8189 357.226,85.8189 361.178,85.8196 365.13,85.8189 369.082,85.8193 373.033,85.819 376.985,85.8189 380.937,85.8189 384.889,85.8189 388.84,85.8189 392.792,85.819 396.744,85.8189 400.696,85.8189 404.648,85.859 408.599,85.8189 412.551,85.8189 416.503,85.8189 420.455,85.8203 424.406,85.8239 428.358,85.819 432.31,85.8189 436.262,85.8191 440.214,85.8196 444.165,85.8189 448.117,85.8189 452.069,85.8189 456.021,85.819 459.972,85.8189 463.924,85.8191 467.876,85.819 471.828,85.8189 475.78,85.8189 479.731,85.8189 483.683,85.8189 487.635,85.8189 491.587,85.8189 495.538,85.8189 499.49,85.8204 503.442,85.8189 507.394,85.8189 511.346,85.8189 515.297,85.8189 519.249,85.819 523.201,85.8189 527.153,85.819 531.104,85.819 535.056,85.819 539.008,85.8193 542.96,85.8193 546.912,85.8193 550.863,85.8193 554.815,85.8189 558.767,85.819 562.719,85.8196 566.67,85.819 570.622,85.8189 574.574,85.8189 578.526,85.8189 582.478,85.8209 586.429,85.8203 590.381,85.819 594.333,85.819 598.285,85.819 602.236,85.819 606.188,85.8191 610.14,85.8192 614.092,85.8192 618.044,85.8243 621.995,85.8198 625.947,85.8243 629.899,85.8191 633.851,85.8213 637.802,85.8224 641.754,85.8225 645.706,85.8225 649.658,85.8225 653.61,85.82 657.561,85.822 661.513,85.8223 665.465,85.8223 669.417,85.8223 673.368,85.8223 677.32,85.8205 681.272,85.8198 685.224,85.8218 689.176,85.8206 693.127,85.8219 697.079,85.8207 701.031,85.8219 704.983,85.8208 708.934,85.8206 712.886,85.8218 716.838,85.8219 720.79,85.8209 724.742,85.8206 728.693,85.8206 732.645,85.821 736.597,85.8194 740.549,85.8214 744.5,85.8217 748.452,85.8205 752.404,85.8216 756.356,85.8243 760.308,85.8203 764.259,85.8213 768.211,85.8204 772.163,85.8215 776.115,85.8242 780.067,85.8202 784.018,85.824 787.97,85.8202 791.922,85.824 795.874,85.8202 799.825,85.8236 803.777,85.8243 807.729,85.8245 811.681,85.8245 815.633,85.8245 819.584,85.8245 823.536,85.8202 827.488,85.8211 831.44,85.8239 835.391,85.8311 839.343,85.8293 843.295,85.829 847.247,85.8228 851.199,85.8222 855.15,85.8221 859.102,85.8307 863.054,85.8218 867.006,85.8306 870.957,85.8218 874.909,85.8306 878.861,85.8218 882.813,85.8221 886.765,85.8307 890.716,85.8292 894.668,85.8229 898.62,85.8222 902.572,85.8307 906.523,85.8218 910.475,85.8306 914.427,85.8218 918.379,85.8221 922.331,85.8221 926.282,85.8221 930.234,85.8221 934.186,85.8221 938.138,85.8307 942.089,85.8293 946.041,85.8229 949.993,85.8222 953.945,85.8221 957.897,85.8221 961.848,85.8221 965.8,85.8307 969.752,85.8293 973.704,85.829 977.655,85.8228 981.607,85.8222 985.559,85.8221 989.511,85.8221 993.463,85.8307 997.414,85.8218 1001.37,85.8306 1005.32,85.8292 1009.27,85.8228 1013.22,85.8308 1017.17,85.8218 1021.13,85.8306 1025.08,85.8218 1029.03,85.8306 1032.98,85.8292 1036.93,85.8228 1040.88,85.8222 1044.84,85.8307 1048.79,85.8293 1052.74,85.829 1056.69,85.829 1060.64,85.8228 1064.59,85.8222 1068.55,85.8307 1072.5,85.8293 1076.45,85.829 1080.4,85.8228 1084.35,85.8308 1088.31,85.8218 1092.26,85.8306 1096.21,85.8218 1100.16,85.8221 1104.11,85.8221 1108.06,85.8221 1112.02,85.8307 1115.97,85.8218 1119.92,85.8306 1123.87,85.8292 1127.82,85.8189 1131.77,85.8189 1135.73,85.8191 1139.68,85.819 1143.63,85.8189 1147.58,85.8348 1151.53,85.82 1155.49,85.8214 1159.44,85.822 1163.39,85.9729 1167.34,85.8216 1171.29,85.9242 1175.24,85.8189 1179.2,85.8829 1183.15,85.8195 1187.1,85.8191 1191.05,85.8206 1195,85.8205 1198.96,85.82 1202.91,85.8191 1206.86,85.821 1210.81,85.8192 1214.76,85.8223 1218.71,85.8197 1222.67,85.8206 1226.62,85.82 1230.57,85.8213 1234.52,85.8277 1238.47,85.8257 1242.42,85.8522 1246.38,85.825 1250.33,85.8254 1254.28,85.8193 1258.23,85.8192 1262.18,85.8197 1266.14,85.8315 1270.09,85.8211 1274.04,85.819 1277.99,85.819 1281.94,85.8194 1285.89,85.8189 1289.85,85.8189 1293.8,85.8189 1297.75,85.8251 1301.7,85.8245 1305.65,85.8235 1309.6,85.8189 1313.56,85.824 1317.51,85.8222 1321.46,85.8208 1325.41,85.833 1329.36,85.8243 1333.32,85.8241 1337.27,85.8381 1341.22,85.8228 1345.17,85.8206 1349.12,85.8213 1353.07,85.819 1357.03,85.8211 1360.98,85.821 1364.93,85.8209 1368.88,85.8189 1372.83,85.8199 1376.79,85.8208 1380.74,85.8189 1384.69,85.8189 1388.64,85.8205 1392.59,85.8205 1396.54,85.8201 1400.5,85.8398 1404.45,85.8223 1408.4,85.8189 1412.35,85.8189 1416.3,85.8189 1420.25,85.8189 1424.21,85.8189 1428.16,85.8189 1432.11,85.8514 1436.06,85.8193 1440.01,85.8502 1443.97,85.8189 1447.92,85.8488 1451.87,85.8189 1455.82,85.8189 1459.77,85.8189 1463.72,85.8189 1467.68,85.8189 1471.63,85.8189 1475.58,85.8189 1479.53,85.8189 1483.48,85.8189 1487.43,85.846 1491.39,85.819 1495.34,85.8194 1499.29,85.8209 1503.24,85.8245 1507.19,85.8238 1511.15,85.8199 1515.1,85.8193 1519.05,85.821 1523,85.8192 1526.95,85.8195 1530.9,85.8189 1534.86,85.819 1538.81,85.8192 1542.76,85.823 1546.71,85.8223 1550.66,85.822 1554.62,85.8189 1558.57,85.8189 1562.52,85.8195 1566.47,85.8191 1570.42,85.8189 1574.37,85.8189 1578.33,85.8189 1582.28,85.8189 1586.23,86.3683 1590.18,85.8189 1594.13,85.8192 1598.08,85.8202 1602.04,85.8351 1605.99,85.8323 1609.94,85.8189 1613.89,85.8189 1617.84,86.2091 1621.8,87.5502 1625.75,89.9097 1629.7,287.521 1633.65,712.826 1637.6,1084.1 1641.55,1281.54 1645.51,1351.38 1649.46,1368.37 1653.41,136.062 1657.36,333.849 1661.31,746.437 1665.26,1101.59 1669.22,186.259 1673.17,201.479 1677.12,217.738 1681.07,235.015 1685.02,253.285 1688.98,272.519 1692.93,292.685 1696.88,313.747 1700.83,335.666 1704.78,358.399 1708.73,381.899 1712.69,406.117 1716.64,431 1720.59,456.492 1724.54,482.534 1728.49,509.067 1732.45,536.027 1736.4,563.35 1740.35,590.968 1744.3,618.814 1748.25,646.819 1752.2,674.915 1756.16,703.031 1760.11,731.098 1764.06,759.048 1768.01,786.813 1771.96,814.327 1775.91,841.525 1779.87,868.344 1783.82,894.724 1787.77,920.608 1791.72,945.941 1795.67,970.674 1799.63,994.758 1803.58,1018.15 1807.53,1040.81 1811.48,1062.71 1815.43,1083.82 1819.38,1104.1 1823.34,1123.54 1827.29,1142.12 1831.24,1159.84 1835.19,1176.68 1839.14,1192.64 1843.09,1207.72 1847.05,1221.94 1851,1235.29 1854.95,1247.8 1858.9,1259.48 1862.85,1270.36 1866.81,1280.45 1870.76,1289.78 1874.71,1298.38 1878.66,1306.29 1882.61,1313.53 1886.56,1320.14 1890.52,1326.15 1894.47,1331.59 1898.42,1336.51 1902.37,1340.93 1906.32,1344.89 1910.28,1348.43 1914.23,1351.57 1918.18,1354.36 1922.13,1356.81 1926.08,1358.97 1930.03,1360.86 1933.99,1362.51 1937.94,1363.94 1941.89,1365.17 1945.84,1366.23 1949.79,1367.13 1953.74,1367.91 1957.7,1368.56 1961.65,1369.11 1965.6,1369.58 1969.55,1369.96 1973.5,1370.28 1977.46,1370.55 1981.41,1370.77 1985.36,1370.95 1989.31,1371.09 1993.26,1371.21 1997.21,1371.3 2001.17,1371.38 2005.12,1371.44 2009.07,1371.49 2013.02,1371.52 2016.97,1371.55 2020.93,1371.58 2024.88,1371.59 2028.83,1371.61 2032.78,1371.62 2036.73,1371.62 2040.68,1371.63 2044.64,1371.63 2048.59,1371.64 2052.54,1371.64 2056.49,1371.64 2060.44,1371.64 2064.39,1371.64 2068.35,1371.64 2072.3,1371.64 2076.25,1371.64 2080.2,1371.64 2084.15,1371.64 2088.11,1371.64 2092.06,1371.64 2096.01,1371.64 2099.96,1371.65 2103.91,1371.65 2107.86,1371.65 2111.82,1371.65 2115.77,1371.65 2119.72,1371.65 2123.67,1371.65 2127.62,1371.65 2131.57,1371.65 2135.53,1371.65 2139.48,1371.65 2143.43,1371.65 2147.38,1371.65 2151.33,1371.65 2155.29,1371.65 2159.24,1371.65 2163.19,1371.65 2167.14,1371.65 2171.09,1371.65 2175.04,1371.65 2179,1371.65 2182.95,1371.65 2186.9,1371.65 2190.85,1371.65 2194.8,1371.65 2198.76,1371.65 2202.71,1371.65 2206.66,1371.65 2210.61,1371.65 2214.56,1371.65 2218.51,1371.65 2222.47,1371.65 2226.42,1371.65 2230.37,1371.65 2234.32,1371.65 2238.27,1371.65 2242.22,1371.65 2246.18,1371.65 2250.13,1371.65 2254.08,1371.65 2258.03,1371.65 2261.98,1371.65 2265.94,1371.65 2269.89,1371.65 2273.84,1371.65 2277.79,1371.65 2281.74,1371.65 2285.69,1371.65 2289.65,1371.65 2293.6,1371.65 "/>
<polyline clip-path="url(#clip032)" style="stroke:#000000; stroke-linecap:round; stroke-linejoin:round; stroke-width:8; stroke-opacity:1; fill:none" stroke-dasharray="32, 20" points="321.66,1009.94 325.612,707.736 329.564,370.096 333.515,129.858 337.467,85.8189 341.419,85.8189 345.371,85.8189 349.323,85.8189 353.274,85.8189 357.226,85.8189 361.178,85.8189 365.13,85.8189 369.082,85.8189 373.033,85.8189 376.985,85.8189 380.937,85.8189 384.889,85.8189 388.84,85.8189 392.792,85.8189 396.744,85.8189 400.696,85.8189 404.648,85.8189 408.599,85.8189 412.551,85.8189 416.503,85.8189 420.455,85.8189 424.406,85.8189 428.358,85.8189 432.31,85.8189 436.262,85.8189 440.214,85.8189 444.165,85.8189 448.117,85.8189 452.069,85.8189 456.021,85.8189 459.972,85.8189 463.924,85.8189 467.876,85.8189 471.828,85.8189 475.78,85.8189 479.731,85.8189 483.683,85.8189 487.635,85.8189 491.587,85.8189 495.538,85.8189 499.49,85.8189 503.442,85.8189 507.394,85.8189 511.346,85.8189 515.297,85.8189 519.249,85.8189 523.201,85.8189 527.153,85.8189 531.104,85.8189 535.056,85.8189 539.008,85.8189 542.96,85.8189 546.912,85.8189 550.863,85.8189 554.815,85.8189 558.767,85.8189 562.719,85.8189 566.67,85.8189 570.622,85.8189 574.574,85.8189 578.526,85.8189 582.478,85.8189 586.429,85.8189 590.381,85.8189 594.333,85.8189 598.285,85.8189 602.236,85.8189 606.188,85.8189 610.14,85.8189 614.092,85.8189 618.044,85.8189 621.995,85.8189 625.947,85.8189 629.899,85.8189 633.851,85.8189 637.802,85.8189 641.754,85.8189 645.706,85.8189 649.658,85.8189 653.61,85.8189 657.561,85.8189 661.513,85.8189 665.465,85.8189 669.417,85.8189 673.368,85.8189 677.32,85.8189 681.272,85.8189 685.224,85.8189 689.176,85.8189 693.127,85.8189 697.079,85.8189 701.031,85.8189 704.983,85.8189 708.934,85.8189 712.886,85.8189 716.838,85.8189 720.79,85.8189 724.742,85.8189 728.693,85.8189 732.645,85.8189 736.597,85.8189 740.549,85.8189 744.5,85.8189 748.452,85.8189 752.404,85.8189 756.356,85.8189 760.308,85.8189 764.259,85.8189 768.211,85.8189 772.163,85.8189 776.115,85.8189 780.067,85.8189 784.018,85.8189 787.97,85.8189 791.922,85.8189 795.874,85.8189 799.825,85.8189 803.777,85.8189 807.729,85.8189 811.681,85.8189 815.633,85.8189 819.584,85.8189 823.536,85.8189 827.488,85.8189 831.44,85.8189 835.391,85.8189 839.343,85.8189 843.295,85.8189 847.247,85.8189 851.199,85.8189 855.15,85.8189 859.102,85.8189 863.054,85.8189 867.006,85.8189 870.957,85.8189 874.909,85.8189 878.861,85.8189 882.813,85.8189 886.765,85.8189 890.716,85.8189 894.668,85.8189 898.62,85.8189 902.572,85.8189 906.523,85.8189 910.475,85.8189 914.427,85.8189 918.379,85.8189 922.331,85.8189 926.282,85.8189 930.234,85.8189 934.186,85.8189 938.138,85.8189 942.089,85.8189 946.041,85.8189 949.993,85.8189 953.945,85.8189 957.897,85.8189 961.848,85.8189 965.8,85.8189 969.752,85.8189 973.704,85.8189 977.655,85.8189 981.607,85.8189 985.559,85.8189 989.511,85.8189 993.463,85.8189 997.414,85.8189 1001.37,85.8189 1005.32,85.8189 1009.27,85.8189 1013.22,85.8189 1017.17,85.8189 1021.13,85.8189 1025.08,85.8189 1029.03,85.8189 1032.98,85.8189 1036.93,85.8189 1040.88,85.8189 1044.84,85.8189 1048.79,85.8189 1052.74,85.8189 1056.69,85.8189 1060.64,85.8189 1064.59,85.8189 1068.55,85.8189 1072.5,85.8189 1076.45,85.8189 1080.4,85.8189 1084.35,85.8189 1088.31,85.8189 1092.26,85.8189 1096.21,85.8189 1100.16,85.8189 1104.11,85.8189 1108.06,85.8189 1112.02,85.8189 1115.97,85.8189 1119.92,85.8189 1123.87,85.8189 1127.82,85.8189 1131.77,85.8189 1135.73,85.8189 1139.68,85.8189 1143.63,85.8189 1147.58,85.8189 1151.53,85.8189 1155.49,85.8189 1159.44,85.8189 1163.39,85.8189 1167.34,85.8189 1171.29,85.8189 1175.24,85.8189 1179.2,85.8189 1183.15,85.8189 1187.1,85.8189 1191.05,85.8189 1195,85.8189 1198.96,85.8189 1202.91,85.8189 1206.86,85.8189 1210.81,85.8189 1214.76,85.8189 1218.71,85.8189 1222.67,85.8189 1226.62,85.8189 1230.57,85.8189 1234.52,85.8189 1238.47,85.8189 1242.42,85.8189 1246.38,85.8189 1250.33,85.8189 1254.28,85.8189 1258.23,85.8189 1262.18,85.8189 1266.14,85.8189 1270.09,85.8189 1274.04,85.8189 1277.99,85.8189 1281.94,85.8189 1285.89,85.8189 1289.85,85.8189 1293.8,85.8189 1297.75,85.8189 1301.7,85.8189 1305.65,85.8189 1309.6,85.8189 1313.56,85.8189 1317.51,85.8189 1321.46,85.8189 1325.41,85.8189 1329.36,85.8189 1333.32,85.8189 1337.27,85.8189 1341.22,85.8189 1345.17,85.8189 1349.12,85.8189 1353.07,85.8189 1357.03,85.8189 1360.98,85.8189 1364.93,85.8189 1368.88,85.8189 1372.83,85.8189 1376.79,85.8189 1380.74,85.8189 1384.69,85.8189 1388.64,85.8189 1392.59,85.8189 1396.54,85.8189 1400.5,85.8189 1404.45,85.8189 1408.4,85.8189 1412.35,85.8189 1416.3,85.8189 1420.25,85.8189 1424.21,85.8189 1428.16,85.8189 1432.11,85.8189 1436.06,85.8189 1440.01,85.8189 1443.97,85.8189 1447.92,85.8189 1451.87,85.8189 1455.82,85.8189 1459.77,85.8189 1463.72,85.8189 1467.68,85.8189 1471.63,85.8189 1475.58,85.8189 1479.53,85.8189 1483.48,85.8189 1487.43,85.8189 1491.39,85.8189 1495.34,85.8189 1499.29,85.8189 1503.24,85.8189 1507.19,85.8189 1511.15,85.8189 1515.1,85.8189 1519.05,85.8189 1523,85.8189 1526.95,85.8189 1530.9,85.8189 1534.86,85.8189 1538.81,85.8189 1542.76,85.8189 1546.71,85.8189 1550.66,85.8189 1554.62,85.8189 1558.57,85.8189 1562.52,85.8189 1566.47,85.8189 1570.42,85.8189 1574.37,85.8189 1578.33,85.8189 1582.28,85.8189 1586.23,85.8189 1590.18,85.8189 1594.13,85.8189 1598.08,85.8189 1602.04,85.8189 1605.99,85.8189 1609.94,85.8189 1613.89,85.8189 1617.84,86.1637 1621.8,87.466 1625.75,89.7348 1629.7,92.9651 1633.65,97.1496 1637.6,102.279 1641.55,108.341 1645.51,115.323 1649.46,123.209 1653.41,131.981 1657.36,141.621 1661.31,152.106 1665.26,163.414 1669.22,175.521 1673.17,188.399 1677.12,202.022 1681.07,216.361 1685.02,231.384 1688.98,247.061 1692.93,263.36 1696.88,280.246 1700.83,297.686 1704.78,315.645 1708.73,334.086 1712.69,352.975 1716.64,372.274 1720.59,391.948 1724.54,411.958 1728.49,432.27 1732.45,452.845 1736.4,473.647 1740.35,494.641 1744.3,515.79 1748.25,537.059 1752.2,558.413 1756.16,579.819 1760.11,601.244 1764.06,622.654 1768.01,644.018 1771.96,665.307 1775.91,686.489 1779.87,707.538 1783.82,728.426 1787.77,749.127 1791.72,769.617 1795.67,789.871 1799.63,809.868 1803.58,829.587 1807.53,849.008 1811.48,868.114 1815.43,886.887 1819.38,905.312 1823.34,923.376 1827.29,941.065 1831.24,958.368 1835.19,975.275 1839.14,991.777 1843.09,1007.87 1847.05,1023.54 1851,1038.78 1854.95,1053.6 1858.9,1067.99 1862.85,1081.95 1866.81,1095.47 1870.76,1108.56 1874.71,1121.22 1878.66,1133.45 1882.61,1145.26 1886.56,1156.64 1890.52,1167.6 1894.47,1178.15 1898.42,1188.3 1902.37,1198.04 1906.32,1207.39 1910.28,1216.35 1914.23,1224.93 1918.18,1233.15 1922.13,1241 1926.08,1248.5 1930.03,1255.66 1933.99,1262.48 1937.94,1268.98 1941.89,1275.17 1945.84,1281.05 1949.79,1286.64 1953.74,1291.94 1957.7,1296.97 1961.65,1301.73 1965.6,1306.24 1969.55,1310.51 1973.5,1314.54 1977.46,1318.34 1981.41,1321.93 1985.36,1325.31 1989.31,1328.5 1993.26,1331.49 1997.21,1334.31 2001.17,1336.95 2005.12,1339.44 2009.07,1341.76 2013.02,1343.94 2016.97,1345.98 2020.93,1347.89 2024.88,1349.67 2028.83,1351.34 2032.78,1352.89 2036.73,1354.33 2040.68,1355.68 2044.64,1356.94 2048.59,1358.1 2052.54,1359.18 2056.49,1360.19 2060.44,1361.12 2064.39,1361.98 2068.35,1362.78 2072.3,1363.52 2076.25,1364.2 2080.2,1364.83 2084.15,1365.42 2088.11,1365.95 2092.06,1366.45 2096.01,1366.9 2099.96,1367.32 2103.91,1367.7 2107.86,1368.06 2111.82,1368.38 2115.77,1368.68 2119.72,1368.95 2123.67,1369.2 2127.62,1369.43 2131.57,1369.63 2135.53,1369.82 2139.48,1370 2143.43,1370.15 2147.38,1370.3 2151.33,1370.43 2155.29,1370.55 2159.24,1370.66 2163.19,1370.75 2167.14,1370.84 2171.09,1370.92 2175.04,1371 2179,1371.06 2182.95,1371.12 2186.9,1371.18 2190.85,1371.23 2194.8,1371.27 2198.76,1371.31 2202.71,1371.34 2206.66,1371.38 2210.61,1371.41 2214.56,1371.43 2218.51,1371.45 2222.47,1371.48 2226.42,1371.49 2230.37,1371.51 2234.32,1371.53 2238.27,1371.54 2242.22,1371.55 2246.18,1371.56 2250.13,1371.57 2254.08,1371.58 2258.03,1371.59 2261.98,1371.59 2265.94,1371.6 2269.89,1371.61 2273.84,1371.61 2277.79,1371.61 2281.74,1371.62 2285.69,1371.62 2289.65,1371.63 2293.6,1371.64 "/>
<polyline clip-path="url(#clip032)" style="stroke:#000000; stroke-linecap:round; stroke-linejoin:round; stroke-width:8; stroke-opacity:1; fill:none" stroke-dasharray="4, 8" points="578.526,2773.2 578.526,-1315.73 "/>
<polyline clip-path="url(#clip032)" style="stroke:#000000; stroke-linecap:round; stroke-linejoin:round; stroke-width:4; stroke-opacity:1; fill:none" points="-1827.75,1183.27 4443.01,1183.27 "/>
<polyline clip-path="url(#clip032)" style="stroke:#808080; stroke-linecap:round; stroke-linejoin:round; stroke-width:8; stroke-opacity:1; fill:none" points="1482.33,2773.2 1482.33,-1315.73 "/>
</svg>
