<?xml version="1.0" encoding="utf-8"?>
<svg xmlns="http://www.w3.org/2000/svg" xmlns:xlink="http://www.w3.org/1999/xlink" width="600" height="400" viewBox="0 0 2400 1600">
<defs>
  <clipPath id="clip500">
    <rect x="0" y="0" width="2400" height="1600"/>
  </clipPath>
</defs>
<path clip-path="url(#clip500)" d="M0 1600 L2400 1600 L2400 8.88178e-14 L0 8.88178e-14  Z" fill="#ffffff" fill-rule="evenodd" fill-opacity="1"/>
<defs>
  <clipPath id="clip501">
    <rect x="480" y="0" width="1681" height="1600"/>
  </clipPath>
</defs>
<path clip-path="url(#clip500)" d="M262.551 1423.18 L2352.76 1423.18 L2352.76 47.2441 L262.551 47.2441  Z" fill="#ffffff" fill-rule="evenodd" fill-opacity="1"/>
<defs>
  <clipPath id="clip502">
    <rect x="262" y="47" width="2091" height="1377"/>
  </clipPath>
</defs>
<polyline clip-path="url(#clip502)" style="stroke:#000000; stroke-linecap:round; stroke-linejoin:round; stroke-width:2; stroke-opacity:0.1; fill:none" points="262.551,1423.18 262.551,47.2441 "/>
<polyline clip-path="url(#clip502)" style="stroke:#000000; stroke-linecap:round; stroke-linejoin:round; stroke-width:2; stroke-opacity:0.1; fill:none" points="680.592,1423.18 680.592,47.2441 "/>
<polyline clip-path="url(#clip502)" style="stroke:#000000; stroke-linecap:round; stroke-linejoin:round; stroke-width:2; stroke-opacity:0.1; fill:none" points="1098.63,1423.18 1098.63,47.2441 "/>
<polyline clip-path="url(#clip502)" style="stroke:#000000; stroke-linecap:round; stroke-linejoin:round; stroke-width:2; stroke-opacity:0.1; fill:none" points="1516.67,1423.18 1516.67,47.2441 "/>
<polyline clip-path="url(#clip502)" style="stroke:#000000; stroke-linecap:round; stroke-linejoin:round; stroke-width:2; stroke-opacity:0.1; fill:none" points="1934.71,1423.18 1934.71,47.2441 "/>
<polyline clip-path="url(#clip502)" style="stroke:#000000; stroke-linecap:round; stroke-linejoin:round; stroke-width:2; stroke-opacity:0.1; fill:none" points="2352.76,1423.18 2352.76,47.2441 "/>
<polyline clip-path="url(#clip502)" style="stroke:#000000; stroke-linecap:round; stroke-linejoin:round; stroke-width:2; stroke-opacity:0.1; fill:none" points="262.551,1384.24 2352.76,1384.24 "/>
<polyline clip-path="url(#clip502)" style="stroke:#000000; stroke-linecap:round; stroke-linejoin:round; stroke-width:2; stroke-opacity:0.1; fill:none" points="262.551,1009.79 2352.76,1009.79 "/>
<polyline clip-path="url(#clip502)" style="stroke:#000000; stroke-linecap:round; stroke-linejoin:round; stroke-width:2; stroke-opacity:0.1; fill:none" points="262.551,635.343 2352.76,635.343 "/>
<polyline clip-path="url(#clip502)" style="stroke:#000000; stroke-linecap:round; stroke-linejoin:round; stroke-width:2; stroke-opacity:0.1; fill:none" points="262.551,260.896 2352.76,260.896 "/>
<polyline clip-path="url(#clip500)" style="stroke:#000000; stroke-linecap:round; stroke-linejoin:round; stroke-width:4; stroke-opacity:1; fill:none" points="262.551,1423.18 2352.76,1423.18 "/>
<polyline clip-path="url(#clip500)" style="stroke:#000000; stroke-linecap:round; stroke-linejoin:round; stroke-width:4; stroke-opacity:1; fill:none" points="262.551,1423.18 262.551,1404.28 "/>
<polyline clip-path="url(#clip500)" style="stroke:#000000; stroke-linecap:round; stroke-linejoin:round; stroke-width:4; stroke-opacity:1; fill:none" points="680.592,1423.18 680.592,1404.28 "/>
<polyline clip-path="url(#clip500)" style="stroke:#000000; stroke-linecap:round; stroke-linejoin:round; stroke-width:4; stroke-opacity:1; fill:none" points="1098.63,1423.18 1098.63,1404.28 "/>
<polyline clip-path="url(#clip500)" style="stroke:#000000; stroke-linecap:round; stroke-linejoin:round; stroke-width:4; stroke-opacity:1; fill:none" points="1516.67,1423.18 1516.67,1404.28 "/>
<polyline clip-path="url(#clip500)" style="stroke:#000000; stroke-linecap:round; stroke-linejoin:round; stroke-width:4; stroke-opacity:1; fill:none" points="1934.71,1423.18 1934.71,1404.28 "/>
<polyline clip-path="url(#clip500)" style="stroke:#000000; stroke-linecap:round; stroke-linejoin:round; stroke-width:4; stroke-opacity:1; fill:none" points="2352.76,1423.18 2352.76,1404.28 "/>
<path clip-path="url(#clip500)" d="M262.551 1454.1 Q258.94 1454.1 257.111 1457.66 Q255.306 1461.2 255.306 1468.33 Q255.306 1475.44 257.111 1479.01 Q258.94 1482.55 262.551 1482.55 Q266.185 1482.55 267.991 1479.01 Q269.82 1475.44 269.82 1468.33 Q269.82 1461.2 267.991 1457.66 Q266.185 1454.1 262.551 1454.1 M262.551 1450.39 Q268.361 1450.39 271.417 1455 Q274.496 1459.58 274.496 1468.33 Q274.496 1477.06 271.417 1481.67 Q268.361 1486.25 262.551 1486.25 Q256.741 1486.25 253.662 1481.67 Q250.607 1477.06 250.607 1468.33 Q250.607 1459.58 253.662 1455 Q256.741 1450.39 262.551 1450.39 Z" fill="#000000" fill-rule="nonzero" fill-opacity="1" /><path clip-path="url(#clip500)" d="M659.365 1481.64 L675.685 1481.64 L675.685 1485.58 L653.74 1485.58 L653.74 1481.64 Q656.402 1478.89 660.986 1474.26 Q665.592 1469.61 666.773 1468.27 Q669.018 1465.74 669.898 1464.01 Q670.801 1462.25 670.801 1460.56 Q670.801 1457.8 668.856 1456.07 Q666.935 1454.33 663.833 1454.33 Q661.634 1454.33 659.18 1455.09 Q656.75 1455.86 653.972 1457.41 L653.972 1452.69 Q656.796 1451.55 659.25 1450.97 Q661.703 1450.39 663.74 1450.39 Q669.111 1450.39 672.305 1453.08 Q675.5 1455.77 675.5 1460.26 Q675.5 1462.39 674.689 1464.31 Q673.902 1466.2 671.796 1468.8 Q671.217 1469.47 668.115 1472.69 Q665.014 1475.88 659.365 1481.64 Z" fill="#000000" fill-rule="nonzero" fill-opacity="1" /><path clip-path="url(#clip500)" d="M695.499 1454.1 Q691.888 1454.1 690.06 1457.66 Q688.254 1461.2 688.254 1468.33 Q688.254 1475.44 690.06 1479.01 Q691.888 1482.55 695.499 1482.55 Q699.134 1482.55 700.939 1479.01 Q702.768 1475.44 702.768 1468.33 Q702.768 1461.2 700.939 1457.66 Q699.134 1454.1 695.499 1454.1 M695.499 1450.39 Q701.31 1450.39 704.365 1455 Q707.444 1459.58 707.444 1468.33 Q707.444 1477.06 704.365 1481.67 Q701.31 1486.25 695.499 1486.25 Q689.689 1486.25 686.611 1481.67 Q683.555 1477.06 683.555 1468.33 Q683.555 1459.58 686.611 1455 Q689.689 1450.39 695.499 1450.39 Z" fill="#000000" fill-rule="nonzero" fill-opacity="1" /><path clip-path="url(#clip500)" d="M1086.8 1455.09 L1075 1473.54 L1086.8 1473.54 L1086.8 1455.09 M1085.58 1451.02 L1091.46 1451.02 L1091.46 1473.54 L1096.39 1473.54 L1096.39 1477.43 L1091.46 1477.43 L1091.46 1485.58 L1086.8 1485.58 L1086.8 1477.43 L1071.2 1477.43 L1071.2 1472.92 L1085.58 1451.02 Z" fill="#000000" fill-rule="nonzero" fill-opacity="1" /><path clip-path="url(#clip500)" d="M1114.12 1454.1 Q1110.51 1454.1 1108.68 1457.66 Q1106.87 1461.2 1106.87 1468.33 Q1106.87 1475.44 1108.68 1479.01 Q1110.51 1482.55 1114.12 1482.55 Q1117.75 1482.55 1119.56 1479.01 Q1121.39 1475.44 1121.39 1468.33 Q1121.39 1461.2 1119.56 1457.66 Q1117.75 1454.1 1114.12 1454.1 M1114.12 1450.39 Q1119.93 1450.39 1122.98 1455 Q1126.06 1459.58 1126.06 1468.33 Q1126.06 1477.06 1122.98 1481.67 Q1119.93 1486.25 1114.12 1486.25 Q1108.31 1486.25 1105.23 1481.67 Q1102.17 1477.06 1102.17 1468.33 Q1102.17 1459.58 1105.23 1455 Q1108.31 1450.39 1114.12 1450.39 Z" fill="#000000" fill-rule="nonzero" fill-opacity="1" /><path clip-path="url(#clip500)" d="M1502.08 1466.44 Q1498.93 1466.44 1497.08 1468.59 Q1495.25 1470.74 1495.25 1474.49 Q1495.25 1478.22 1497.08 1480.39 Q1498.93 1482.55 1502.08 1482.55 Q1505.23 1482.55 1507.06 1480.39 Q1508.91 1478.22 1508.91 1474.49 Q1508.91 1470.74 1507.06 1468.59 Q1505.23 1466.44 1502.08 1466.44 M1511.36 1451.78 L1511.36 1456.04 Q1509.6 1455.21 1507.8 1454.77 Q1506.01 1454.33 1504.26 1454.33 Q1499.63 1454.33 1497.17 1457.45 Q1494.74 1460.58 1494.39 1466.9 Q1495.76 1464.89 1497.82 1463.82 Q1499.88 1462.73 1502.36 1462.73 Q1507.57 1462.73 1510.57 1465.9 Q1513.61 1469.05 1513.61 1474.49 Q1513.61 1479.82 1510.46 1483.03 Q1507.31 1486.25 1502.08 1486.25 Q1496.08 1486.25 1492.91 1481.67 Q1489.74 1477.06 1489.74 1468.33 Q1489.74 1460.14 1493.63 1455.28 Q1497.52 1450.39 1504.07 1450.39 Q1505.83 1450.39 1507.61 1450.74 Q1509.42 1451.09 1511.36 1451.78 Z" fill="#000000" fill-rule="nonzero" fill-opacity="1" /><path clip-path="url(#clip500)" d="M1531.66 1454.1 Q1528.05 1454.1 1526.22 1457.66 Q1524.42 1461.2 1524.42 1468.33 Q1524.42 1475.44 1526.22 1479.01 Q1528.05 1482.55 1531.66 1482.55 Q1535.3 1482.55 1537.1 1479.01 Q1538.93 1475.44 1538.93 1468.33 Q1538.93 1461.2 1537.1 1457.66 Q1535.3 1454.1 1531.66 1454.1 M1531.66 1450.39 Q1537.47 1450.39 1540.53 1455 Q1543.61 1459.58 1543.61 1468.33 Q1543.61 1477.06 1540.53 1481.67 Q1537.47 1486.25 1531.66 1486.25 Q1525.85 1486.25 1522.77 1481.67 Q1519.72 1477.06 1519.72 1468.33 Q1519.72 1459.58 1522.77 1455 Q1525.85 1450.39 1531.66 1450.39 Z" fill="#000000" fill-rule="nonzero" fill-opacity="1" /><path clip-path="url(#clip500)" d="M1919.59 1469.17 Q1916.25 1469.17 1914.33 1470.95 Q1912.43 1472.73 1912.43 1475.86 Q1912.43 1478.98 1914.33 1480.77 Q1916.25 1482.55 1919.59 1482.55 Q1922.92 1482.55 1924.84 1480.77 Q1926.76 1478.96 1926.76 1475.86 Q1926.76 1472.73 1924.84 1470.95 Q1922.94 1469.17 1919.59 1469.17 M1914.91 1467.18 Q1911.9 1466.44 1910.21 1464.38 Q1908.55 1462.32 1908.55 1459.35 Q1908.55 1455.21 1911.49 1452.8 Q1914.45 1450.39 1919.59 1450.39 Q1924.75 1450.39 1927.69 1452.8 Q1930.63 1455.21 1930.63 1459.35 Q1930.63 1462.32 1928.94 1464.38 Q1927.27 1466.44 1924.29 1467.18 Q1927.67 1467.96 1929.54 1470.26 Q1931.44 1472.55 1931.44 1475.86 Q1931.44 1480.88 1928.36 1483.57 Q1925.31 1486.25 1919.59 1486.25 Q1913.87 1486.25 1910.79 1483.57 Q1907.74 1480.88 1907.74 1475.86 Q1907.74 1472.55 1909.63 1470.26 Q1911.53 1467.96 1914.91 1467.18 M1913.2 1459.79 Q1913.2 1462.48 1914.87 1463.98 Q1916.56 1465.49 1919.59 1465.49 Q1922.6 1465.49 1924.29 1463.98 Q1926 1462.48 1926 1459.79 Q1926 1457.11 1924.29 1455.6 Q1922.6 1454.1 1919.59 1454.1 Q1916.56 1454.1 1914.87 1455.6 Q1913.2 1457.11 1913.2 1459.79 Z" fill="#000000" fill-rule="nonzero" fill-opacity="1" /><path clip-path="url(#clip500)" d="M1949.75 1454.1 Q1946.14 1454.1 1944.31 1457.66 Q1942.5 1461.2 1942.5 1468.33 Q1942.5 1475.44 1944.31 1479.01 Q1946.14 1482.55 1949.75 1482.55 Q1953.38 1482.55 1955.19 1479.01 Q1957.02 1475.44 1957.02 1468.33 Q1957.02 1461.2 1955.19 1457.66 Q1953.38 1454.1 1949.75 1454.1 M1949.75 1450.39 Q1955.56 1450.39 1958.62 1455 Q1961.69 1459.58 1961.69 1468.33 Q1961.69 1477.06 1958.62 1481.67 Q1955.56 1486.25 1949.75 1486.25 Q1943.94 1486.25 1940.86 1481.67 Q1937.81 1477.06 1937.81 1468.33 Q1937.81 1459.58 1940.86 1455 Q1943.94 1450.39 1949.75 1450.39 Z" fill="#000000" fill-rule="nonzero" fill-opacity="1" /><path clip-path="url(#clip500)" d="M2312.36 1481.64 L2320 1481.64 L2320 1455.28 L2311.69 1456.95 L2311.69 1452.69 L2319.96 1451.02 L2324.63 1451.02 L2324.63 1481.64 L2332.27 1481.64 L2332.27 1485.58 L2312.36 1485.58 L2312.36 1481.64 Z" fill="#000000" fill-rule="nonzero" fill-opacity="1" /><path clip-path="url(#clip500)" d="M2351.71 1454.1 Q2348.1 1454.1 2346.27 1457.66 Q2344.47 1461.2 2344.47 1468.33 Q2344.47 1475.44 2346.27 1479.01 Q2348.1 1482.55 2351.71 1482.55 Q2355.35 1482.55 2357.15 1479.01 Q2358.98 1475.44 2358.98 1468.33 Q2358.98 1461.2 2357.15 1457.66 Q2355.35 1454.1 2351.71 1454.1 M2351.71 1450.39 Q2357.52 1450.39 2360.58 1455 Q2363.66 1459.58 2363.66 1468.33 Q2363.66 1477.06 2360.58 1481.67 Q2357.52 1486.25 2351.71 1486.25 Q2345.9 1486.25 2342.83 1481.67 Q2339.77 1477.06 2339.77 1468.33 Q2339.77 1459.58 2342.83 1455 Q2345.9 1450.39 2351.71 1450.39 Z" fill="#000000" fill-rule="nonzero" fill-opacity="1" /><path clip-path="url(#clip500)" d="M2381.88 1454.1 Q2378.27 1454.1 2376.44 1457.66 Q2374.63 1461.2 2374.63 1468.33 Q2374.63 1475.44 2376.44 1479.01 Q2378.27 1482.55 2381.88 1482.55 Q2385.51 1482.55 2387.32 1479.01 Q2389.14 1475.44 2389.14 1468.33 Q2389.14 1461.2 2387.32 1457.66 Q2385.51 1454.1 2381.88 1454.1 M2381.88 1450.39 Q2387.69 1450.39 2390.74 1455 Q2393.82 1459.58 2393.82 1468.33 Q2393.82 1477.06 2390.74 1481.67 Q2387.69 1486.25 2381.88 1486.25 Q2376.07 1486.25 2372.99 1481.67 Q2369.93 1477.06 2369.93 1468.33 Q2369.93 1459.58 2372.99 1455 Q2376.07 1450.39 2381.88 1450.39 Z" fill="#000000" fill-rule="nonzero" fill-opacity="1" /><path clip-path="url(#clip500)" d="M1321.83 1528.8 Q1321.83 1530.61 1320.7 1531.64 Q1319.57 1532.64 1318.28 1532.64 Q1317.06 1532.64 1316.42 1531.93 Q1315.77 1531.22 1315.77 1530.32 Q1315.77 1529.09 1316.67 1528.03 Q1317.58 1526.97 1318.93 1526.74 Q1317.61 1525.91 1315.64 1525.91 Q1314.36 1525.91 1313.23 1526.58 Q1312.13 1527.26 1311.46 1528.13 Q1310.81 1529 1310.23 1530.25 Q1309.69 1531.48 1309.46 1532.22 Q1309.27 1532.93 1309.11 1533.7 L1306.85 1542.72 Q1305.76 1547 1305.76 1548.51 Q1305.76 1550.38 1306.66 1551.64 Q1307.56 1552.86 1309.36 1552.86 Q1310.07 1552.86 1310.88 1552.67 Q1311.68 1552.44 1312.71 1551.86 Q1313.78 1551.25 1314.71 1550.35 Q1315.68 1549.42 1316.61 1547.84 Q1317.54 1546.26 1318.16 1544.23 Q1318.35 1543.52 1318.99 1543.52 Q1319.8 1543.52 1319.8 1544.17 Q1319.8 1544.71 1319.35 1545.87 Q1318.93 1547 1317.99 1548.48 Q1317.09 1549.93 1315.9 1551.25 Q1314.71 1552.54 1312.94 1553.44 Q1311.17 1554.34 1309.23 1554.34 Q1306.46 1554.34 1304.63 1552.86 Q1302.79 1551.38 1302.12 1549.32 Q1301.96 1549.61 1301.73 1550 Q1301.51 1550.38 1300.83 1551.25 Q1300.18 1552.09 1299.44 1552.73 Q1298.7 1553.34 1297.54 1553.83 Q1296.42 1554.34 1295.19 1554.34 Q1293.65 1554.34 1292.26 1553.89 Q1290.91 1553.44 1289.94 1552.41 Q1288.98 1551.38 1288.98 1549.96 Q1288.98 1548.38 1290.04 1547.29 Q1291.13 1546.16 1292.62 1546.16 Q1293.55 1546.16 1294.29 1546.71 Q1295.06 1547.26 1295.06 1548.45 Q1295.06 1549.77 1294.16 1550.77 Q1293.26 1551.77 1291.97 1552.02 Q1293.29 1552.86 1295.26 1552.86 Q1297.38 1552.86 1299.06 1550.99 Q1300.73 1549.13 1301.54 1546 Q1303.53 1538.5 1304.31 1535.15 Q1305.08 1531.77 1305.08 1530.32 Q1305.08 1528.96 1304.73 1528.03 Q1304.37 1527.1 1303.76 1526.68 Q1303.18 1526.23 1302.63 1526.07 Q1302.12 1525.91 1301.54 1525.91 Q1300.57 1525.91 1299.48 1526.29 Q1298.41 1526.68 1297.13 1527.58 Q1295.87 1528.45 1294.68 1530.25 Q1293.49 1532.06 1292.68 1534.54 Q1292.52 1535.28 1291.81 1535.28 Q1291.04 1535.24 1291.04 1534.6 Q1291.04 1534.05 1291.46 1532.93 Q1291.91 1531.77 1292.81 1530.32 Q1293.74 1528.87 1294.94 1527.58 Q1296.16 1526.26 1297.93 1525.36 Q1299.73 1524.46 1301.67 1524.46 Q1302.54 1524.46 1303.37 1524.65 Q1304.24 1524.81 1305.27 1525.29 Q1306.34 1525.78 1307.27 1526.84 Q1308.2 1527.9 1308.78 1529.45 Q1309.17 1528.71 1309.69 1528 Q1310.23 1527.29 1311.07 1526.42 Q1311.94 1525.52 1313.13 1525 Q1314.36 1524.46 1315.71 1524.46 Q1317.03 1524.46 1318.32 1524.81 Q1319.6 1525.13 1320.7 1526.19 Q1321.83 1527.23 1321.83 1528.8 Z" fill="#000000" fill-rule="nonzero" fill-opacity="1" /><polyline clip-path="url(#clip500)" style="stroke:#000000; stroke-linecap:round; stroke-linejoin:round; stroke-width:4; stroke-opacity:1; fill:none" points="262.551,1423.18 262.551,47.2441 "/>
<polyline clip-path="url(#clip500)" style="stroke:#000000; stroke-linecap:round; stroke-linejoin:round; stroke-width:4; stroke-opacity:1; fill:none" points="262.551,1384.24 281.449,1384.24 "/>
<polyline clip-path="url(#clip500)" style="stroke:#000000; stroke-linecap:round; stroke-linejoin:round; stroke-width:4; stroke-opacity:1; fill:none" points="262.551,1009.79 281.449,1009.79 "/>
<polyline clip-path="url(#clip500)" style="stroke:#000000; stroke-linecap:round; stroke-linejoin:round; stroke-width:4; stroke-opacity:1; fill:none" points="262.551,635.343 281.449,635.343 "/>
<polyline clip-path="url(#clip500)" style="stroke:#000000; stroke-linecap:round; stroke-linejoin:round; stroke-width:4; stroke-opacity:1; fill:none" points="262.551,260.896 281.449,260.896 "/>
<path clip-path="url(#clip500)" d="M214.607 1370.04 Q210.996 1370.04 209.167 1373.6 Q207.362 1377.14 207.362 1384.27 Q207.362 1391.38 209.167 1394.94 Q210.996 1398.49 214.607 1398.49 Q218.241 1398.49 220.047 1394.94 Q221.875 1391.38 221.875 1384.27 Q221.875 1377.14 220.047 1373.6 Q218.241 1370.04 214.607 1370.04 M214.607 1366.33 Q220.417 1366.33 223.473 1370.94 Q226.551 1375.52 226.551 1384.27 Q226.551 1393 223.473 1397.61 Q220.417 1402.19 214.607 1402.19 Q208.797 1402.19 205.718 1397.61 Q202.662 1393 202.662 1384.27 Q202.662 1375.52 205.718 1370.94 Q208.797 1366.33 214.607 1366.33 Z" fill="#000000" fill-rule="nonzero" fill-opacity="1" /><path clip-path="url(#clip500)" d="M144.329 992.511 L162.686 992.511 L162.686 996.446 L148.612 996.446 L148.612 1004.92 Q149.63 1004.57 150.649 1004.41 Q151.667 1004.22 152.686 1004.22 Q158.473 1004.22 161.852 1007.39 Q165.232 1010.57 165.232 1015.98 Q165.232 1021.56 161.76 1024.66 Q158.288 1027.74 151.968 1027.74 Q149.792 1027.74 147.524 1027.37 Q145.279 1027 142.871 1026.26 L142.871 1021.56 Q144.954 1022.7 147.177 1023.25 Q149.399 1023.81 151.876 1023.81 Q155.88 1023.81 158.218 1021.7 Q160.556 1019.59 160.556 1015.98 Q160.556 1012.37 158.218 1010.27 Q155.88 1008.16 151.876 1008.16 Q150.001 1008.16 148.126 1008.58 Q146.274 1008.99 144.329 1009.87 L144.329 992.511 Z" fill="#000000" fill-rule="nonzero" fill-opacity="1" /><path clip-path="url(#clip500)" d="M184.445 995.589 Q180.834 995.589 179.005 999.154 Q177.2 1002.7 177.2 1009.83 Q177.2 1016.93 179.005 1020.5 Q180.834 1024.04 184.445 1024.04 Q188.079 1024.04 189.885 1020.5 Q191.713 1016.93 191.713 1009.83 Q191.713 1002.7 189.885 999.154 Q188.079 995.589 184.445 995.589 M184.445 991.886 Q190.255 991.886 193.311 996.492 Q196.389 1001.08 196.389 1009.83 Q196.389 1018.55 193.311 1023.16 Q190.255 1027.74 184.445 1027.74 Q178.635 1027.74 175.556 1023.16 Q172.501 1018.55 172.501 1009.83 Q172.501 1001.08 175.556 996.492 Q178.635 991.886 184.445 991.886 Z" fill="#000000" fill-rule="nonzero" fill-opacity="1" /><path clip-path="url(#clip500)" d="M214.607 995.589 Q210.996 995.589 209.167 999.154 Q207.362 1002.7 207.362 1009.83 Q207.362 1016.93 209.167 1020.5 Q210.996 1024.04 214.607 1024.04 Q218.241 1024.04 220.047 1020.5 Q221.875 1016.93 221.875 1009.83 Q221.875 1002.7 220.047 999.154 Q218.241 995.589 214.607 995.589 M214.607 991.886 Q220.417 991.886 223.473 996.492 Q226.551 1001.08 226.551 1009.83 Q226.551 1018.55 223.473 1023.16 Q220.417 1027.74 214.607 1027.74 Q208.797 1027.74 205.718 1023.16 Q202.662 1018.55 202.662 1009.83 Q202.662 1001.08 205.718 996.492 Q208.797 991.886 214.607 991.886 Z" fill="#000000" fill-rule="nonzero" fill-opacity="1" /><path clip-path="url(#clip500)" d="M114.931 648.688 L122.57 648.688 L122.57 622.323 L114.26 623.989 L114.26 619.73 L122.524 618.063 L127.2 618.063 L127.2 648.688 L134.839 648.688 L134.839 652.623 L114.931 652.623 L114.931 648.688 Z" fill="#000000" fill-rule="nonzero" fill-opacity="1" /><path clip-path="url(#clip500)" d="M154.283 621.142 Q150.672 621.142 148.843 624.707 Q147.038 628.248 147.038 635.378 Q147.038 642.485 148.843 646.049 Q150.672 649.591 154.283 649.591 Q157.917 649.591 159.723 646.049 Q161.552 642.485 161.552 635.378 Q161.552 628.248 159.723 624.707 Q157.917 621.142 154.283 621.142 M154.283 617.438 Q160.093 617.438 163.149 622.045 Q166.227 626.628 166.227 635.378 Q166.227 644.105 163.149 648.711 Q160.093 653.295 154.283 653.295 Q148.473 653.295 145.394 648.711 Q142.339 644.105 142.339 635.378 Q142.339 626.628 145.394 622.045 Q148.473 617.438 154.283 617.438 Z" fill="#000000" fill-rule="nonzero" fill-opacity="1" /><path clip-path="url(#clip500)" d="M184.445 621.142 Q180.834 621.142 179.005 624.707 Q177.2 628.248 177.2 635.378 Q177.2 642.485 179.005 646.049 Q180.834 649.591 184.445 649.591 Q188.079 649.591 189.885 646.049 Q191.713 642.485 191.713 635.378 Q191.713 628.248 189.885 624.707 Q188.079 621.142 184.445 621.142 M184.445 617.438 Q190.255 617.438 193.311 622.045 Q196.389 626.628 196.389 635.378 Q196.389 644.105 193.311 648.711 Q190.255 653.295 184.445 653.295 Q178.635 653.295 175.556 648.711 Q172.501 644.105 172.501 635.378 Q172.501 626.628 175.556 622.045 Q178.635 617.438 184.445 617.438 Z" fill="#000000" fill-rule="nonzero" fill-opacity="1" /><path clip-path="url(#clip500)" d="M214.607 621.142 Q210.996 621.142 209.167 624.707 Q207.362 628.248 207.362 635.378 Q207.362 642.485 209.167 646.049 Q210.996 649.591 214.607 649.591 Q218.241 649.591 220.047 646.049 Q221.875 642.485 221.875 635.378 Q221.875 628.248 220.047 624.707 Q218.241 621.142 214.607 621.142 M214.607 617.438 Q220.417 617.438 223.473 622.045 Q226.551 626.628 226.551 635.378 Q226.551 644.105 223.473 648.711 Q220.417 653.295 214.607 653.295 Q208.797 653.295 205.718 648.711 Q202.662 644.105 202.662 635.378 Q202.662 626.628 205.718 622.045 Q208.797 617.438 214.607 617.438 Z" fill="#000000" fill-rule="nonzero" fill-opacity="1" /><path clip-path="url(#clip500)" d="M114.931 274.241 L122.57 274.241 L122.57 247.875 L114.26 249.542 L114.26 245.283 L122.524 243.616 L127.2 243.616 L127.2 274.241 L134.839 274.241 L134.839 278.176 L114.931 278.176 L114.931 274.241 Z" fill="#000000" fill-rule="nonzero" fill-opacity="1" /><path clip-path="url(#clip500)" d="M144.329 243.616 L162.686 243.616 L162.686 247.551 L148.612 247.551 L148.612 256.023 Q149.63 255.676 150.649 255.514 Q151.667 255.329 152.686 255.329 Q158.473 255.329 161.852 258.5 Q165.232 261.671 165.232 267.088 Q165.232 272.667 161.76 275.768 Q158.288 278.847 151.968 278.847 Q149.792 278.847 147.524 278.477 Q145.279 278.106 142.871 277.366 L142.871 272.667 Q144.954 273.801 147.177 274.356 Q149.399 274.912 151.876 274.912 Q155.88 274.912 158.218 272.806 Q160.556 270.699 160.556 267.088 Q160.556 263.477 158.218 261.37 Q155.88 259.264 151.876 259.264 Q150.001 259.264 148.126 259.681 Q146.274 260.097 144.329 260.977 L144.329 243.616 Z" fill="#000000" fill-rule="nonzero" fill-opacity="1" /><path clip-path="url(#clip500)" d="M184.445 246.695 Q180.834 246.695 179.005 250.259 Q177.2 253.801 177.2 260.931 Q177.2 268.037 179.005 271.602 Q180.834 275.143 184.445 275.143 Q188.079 275.143 189.885 271.602 Q191.713 268.037 191.713 260.931 Q191.713 253.801 189.885 250.259 Q188.079 246.695 184.445 246.695 M184.445 242.991 Q190.255 242.991 193.311 247.597 Q196.389 252.181 196.389 260.931 Q196.389 269.657 193.311 274.264 Q190.255 278.847 184.445 278.847 Q178.635 278.847 175.556 274.264 Q172.501 269.657 172.501 260.931 Q172.501 252.181 175.556 247.597 Q178.635 242.991 184.445 242.991 Z" fill="#000000" fill-rule="nonzero" fill-opacity="1" /><path clip-path="url(#clip500)" d="M214.607 246.695 Q210.996 246.695 209.167 250.259 Q207.362 253.801 207.362 260.931 Q207.362 268.037 209.167 271.602 Q210.996 275.143 214.607 275.143 Q218.241 275.143 220.047 271.602 Q221.875 268.037 221.875 260.931 Q221.875 253.801 220.047 250.259 Q218.241 246.695 214.607 246.695 M214.607 242.991 Q220.417 242.991 223.473 247.597 Q226.551 252.181 226.551 260.931 Q226.551 269.657 223.473 274.264 Q220.417 278.847 214.607 278.847 Q208.797 278.847 205.718 274.264 Q202.662 269.657 202.662 260.931 Q202.662 252.181 205.718 247.597 Q208.797 242.991 214.607 242.991 Z" fill="#000000" fill-rule="nonzero" fill-opacity="1" /><path clip-path="url(#clip500)" d="M58.657 1209.79 L77.5631 1209.79 L77.5631 1215.68 L28.3562 1215.68 L28.3562 1209.79 L33.7671 1209.79 Q30.5842 1207.95 29.0564 1205.14 Q27.4968 1202.31 27.4968 1198.4 Q27.4968 1191.9 32.6531 1187.86 Q37.8093 1183.79 46.212 1183.79 Q54.6147 1183.79 59.771 1187.86 Q64.9272 1191.9 64.9272 1198.4 Q64.9272 1202.31 63.3994 1205.14 Q61.8398 1207.95 58.657 1209.79 M46.212 1189.87 Q39.7508 1189.87 36.0905 1192.54 Q32.3984 1195.18 32.3984 1199.83 Q32.3984 1204.48 36.0905 1207.15 Q39.7508 1209.79 46.212 1209.79 Q52.6732 1209.79 56.3653 1207.15 Q60.0256 1204.48 60.0256 1199.83 Q60.0256 1195.18 56.3653 1192.54 Q52.6732 1189.87 46.212 1189.87 Z" fill="#000000" fill-rule="nonzero" fill-opacity="1" /><path clip-path="url(#clip500)" d="M33.8307 1153.42 Q33.2578 1154.41 33.0032 1155.59 Q32.7167 1156.73 32.7167 1158.13 Q32.7167 1163.1 35.9632 1165.77 Q39.1779 1168.41 45.2253 1168.41 L64.0042 1168.41 L64.0042 1174.3 L28.3562 1174.3 L28.3562 1168.41 L33.8944 1168.41 Q30.6479 1166.57 29.0883 1163.61 Q27.4968 1160.65 27.4968 1156.41 Q27.4968 1155.81 27.5923 1155.08 Q27.656 1154.35 27.8151 1153.45 L33.8307 1153.42 Z" fill="#000000" fill-rule="nonzero" fill-opacity="1" /><path clip-path="url(#clip500)" d="M32.4621 1134.9 Q32.4621 1139.61 36.1542 1142.35 Q39.8145 1145.08 46.212 1145.08 Q52.6095 1145.08 56.3017 1142.38 Q59.9619 1139.64 59.9619 1134.9 Q59.9619 1130.22 56.2698 1127.48 Q52.5777 1124.75 46.212 1124.75 Q39.8781 1124.75 36.186 1127.48 Q32.4621 1130.22 32.4621 1134.9 M27.4968 1134.9 Q27.4968 1127.26 32.4621 1122.9 Q37.4273 1118.54 46.212 1118.54 Q54.9649 1118.54 59.9619 1122.9 Q64.9272 1127.26 64.9272 1134.9 Q64.9272 1142.57 59.9619 1146.93 Q54.9649 1151.26 46.212 1151.26 Q37.4273 1151.26 32.4621 1146.93 Q27.4968 1142.57 27.4968 1134.9 Z" fill="#000000" fill-rule="nonzero" fill-opacity="1" /><path clip-path="url(#clip500)" d="M14.479 1090.78 L19.3487 1090.78 L19.3487 1096.39 Q19.3487 1099.54 20.6219 1100.78 Q21.895 1101.99 25.2052 1101.99 L28.3562 1101.99 L28.3562 1092.34 L32.9077 1092.34 L32.9077 1101.99 L64.0042 1101.99 L64.0042 1107.88 L32.9077 1107.88 L32.9077 1113.48 L28.3562 1113.48 L28.3562 1107.88 L25.8736 1107.88 Q19.9216 1107.88 17.2162 1105.11 Q14.479 1102.34 14.479 1096.32 L14.479 1090.78 Z" fill="#000000" fill-rule="nonzero" fill-opacity="1" /><path clip-path="url(#clip500)" d="M28.3562 1085.88 L28.3562 1080.03 L64.0042 1080.03 L64.0042 1085.88 L28.3562 1085.88 M14.479 1085.88 L14.479 1080.03 L21.895 1080.03 L21.895 1085.88 L14.479 1085.88 Z" fill="#000000" fill-rule="nonzero" fill-opacity="1" /><path clip-path="url(#clip500)" d="M14.479 1067.77 L14.479 1061.92 L64.0042 1061.92 L64.0042 1067.77 L14.479 1067.77 Z" fill="#000000" fill-rule="nonzero" fill-opacity="1" /><path clip-path="url(#clip500)" d="M44.7161 1019.17 L47.5806 1019.17 L47.5806 1046.1 Q53.6281 1045.72 56.8109 1042.47 Q59.9619 1039.19 59.9619 1033.37 Q59.9619 1029.99 59.1344 1026.84 Q58.3069 1023.66 56.6518 1020.54 L62.1899 1020.54 Q63.5267 1023.69 64.227 1027 Q64.9272 1030.31 64.9272 1033.72 Q64.9272 1042.25 59.9619 1047.24 Q54.9967 1052.21 46.5303 1052.21 Q37.7774 1052.21 32.6531 1047.5 Q27.4968 1042.76 27.4968 1034.73 Q27.4968 1027.54 32.1438 1023.37 Q36.7589 1019.17 44.7161 1019.17 M42.9973 1025.03 Q38.1912 1025.09 35.3266 1027.73 Q32.4621 1030.34 32.4621 1034.67 Q32.4621 1039.57 35.2312 1042.53 Q38.0002 1045.46 43.0292 1045.91 L42.9973 1025.03 Z" fill="#000000" fill-rule="nonzero" fill-opacity="1" /><path clip-path="url(#clip500)" d="M14.479 988.838 L14.479 982.981 L64.0042 982.981 L64.0042 988.838 L14.479 988.838 Z" fill="#000000" fill-rule="nonzero" fill-opacity="1" /><path clip-path="url(#clip500)" d="M28.3562 970.727 L28.3562 964.871 L64.0042 964.871 L64.0042 970.727 L28.3562 970.727 M14.479 970.727 L14.479 964.871 L21.895 964.871 L21.895 970.727 L14.479 970.727 Z" fill="#000000" fill-rule="nonzero" fill-opacity="1" /><path clip-path="url(#clip500)" d="M14.479 952.84 L14.479 946.951 L43.7294 946.951 L28.3562 929.477 L28.3562 921.998 L45.0344 940.904 L64.0042 921.202 L64.0042 928.841 L46.5939 946.951 L64.0042 946.951 L64.0042 952.84 L14.479 952.84 Z" fill="#000000" fill-rule="nonzero" fill-opacity="1" /><path clip-path="url(#clip500)" d="M44.7161 886.7 L47.5806 886.7 L47.5806 913.627 Q53.6281 913.245 56.8109 909.998 Q59.9619 906.72 59.9619 900.895 Q59.9619 897.522 59.1344 894.371 Q58.3069 891.188 56.6518 888.068 L62.1899 888.068 Q63.5267 891.22 64.227 894.53 Q64.9272 897.84 64.9272 901.246 Q64.9272 909.776 59.9619 914.773 Q54.9967 919.738 46.5303 919.738 Q37.7774 919.738 32.6531 915.027 Q27.4968 910.285 27.4968 902.264 Q27.4968 895.071 32.1438 890.901 Q36.7589 886.7 44.7161 886.7 M42.9973 892.556 Q38.1912 892.62 35.3266 895.262 Q32.4621 897.872 32.4621 902.2 Q32.4621 907.102 35.2312 910.062 Q38.0002 912.99 43.0292 913.436 L42.9973 892.556 Z" fill="#000000" fill-rule="nonzero" fill-opacity="1" /><path clip-path="url(#clip500)" d="M14.479 877.088 L14.479 871.231 L64.0042 871.231 L64.0042 877.088 L14.479 877.088 Z" fill="#000000" fill-rule="nonzero" fill-opacity="1" /><path clip-path="url(#clip500)" d="M28.3562 858.977 L28.3562 853.121 L64.0042 853.121 L64.0042 858.977 L28.3562 858.977 M14.479 858.977 L14.479 853.121 L21.895 853.121 L21.895 858.977 L14.479 858.977 Z" fill="#000000" fill-rule="nonzero" fill-opacity="1" /><path clip-path="url(#clip500)" d="M42.4881 811.234 L64.0042 811.234 L64.0042 817.091 L42.679 817.091 Q37.6183 817.091 35.1038 819.064 Q32.5894 821.038 32.5894 824.984 Q32.5894 829.727 35.6131 832.464 Q38.6368 835.201 43.8567 835.201 L64.0042 835.201 L64.0042 841.09 L14.479 841.09 L14.479 835.201 L33.8944 835.201 Q30.6797 833.101 29.0883 830.268 Q27.4968 827.403 27.4968 823.679 Q27.4968 817.536 31.3163 814.385 Q35.1038 811.234 42.4881 811.234 Z" fill="#000000" fill-rule="nonzero" fill-opacity="1" /><path clip-path="url(#clip500)" d="M32.4621 785.74 Q32.4621 790.45 36.1542 793.188 Q39.8145 795.925 46.212 795.925 Q52.6095 795.925 56.3017 793.219 Q59.9619 790.482 59.9619 785.74 Q59.9619 781.061 56.2698 778.324 Q52.5777 775.586 46.212 775.586 Q39.8781 775.586 36.186 778.324 Q32.4621 781.061 32.4621 785.74 M27.4968 785.74 Q27.4968 778.101 32.4621 773.74 Q37.4273 769.38 46.212 769.38 Q54.9649 769.38 59.9619 773.74 Q64.9272 778.101 64.9272 785.74 Q64.9272 793.41 59.9619 797.771 Q54.9649 802.1 46.212 802.1 Q37.4273 802.1 32.4621 797.771 Q27.4968 793.41 27.4968 785.74 Z" fill="#000000" fill-rule="nonzero" fill-opacity="1" /><path clip-path="url(#clip500)" d="M32.4621 745.859 Q32.4621 750.569 36.1542 753.306 Q39.8145 756.044 46.212 756.044 Q52.6095 756.044 56.3017 753.338 Q59.9619 750.601 59.9619 745.859 Q59.9619 741.18 56.2698 738.443 Q52.5777 735.705 46.212 735.705 Q39.8781 735.705 36.186 738.443 Q32.4621 741.18 32.4621 745.859 M27.4968 745.859 Q27.4968 738.22 32.4621 733.859 Q37.4273 729.499 46.212 729.499 Q54.9649 729.499 59.9619 733.859 Q64.9272 738.22 64.9272 745.859 Q64.9272 753.529 59.9619 757.89 Q54.9649 762.218 46.212 762.218 Q37.4273 762.218 32.4621 757.89 Q27.4968 753.529 27.4968 745.859 Z" fill="#000000" fill-rule="nonzero" fill-opacity="1" /><path clip-path="url(#clip500)" d="M33.7671 696.333 L14.479 696.333 L14.479 690.477 L64.0042 690.477 L64.0042 696.333 L58.657 696.333 Q61.8398 698.179 63.3994 701.012 Q64.9272 703.813 64.9272 707.76 Q64.9272 714.221 59.771 718.295 Q54.6147 722.337 46.212 722.337 Q37.8093 722.337 32.6531 718.295 Q27.4968 714.221 27.4968 707.76 Q27.4968 703.813 29.0564 701.012 Q30.5842 698.179 33.7671 696.333 M46.212 716.29 Q52.6732 716.29 56.3653 713.648 Q60.0256 710.975 60.0256 706.328 Q60.0256 701.681 56.3653 699.007 Q52.6732 696.333 46.212 696.333 Q39.7508 696.333 36.0905 699.007 Q32.3984 701.681 32.3984 706.328 Q32.3984 710.975 36.0905 713.648 Q39.7508 716.29 46.212 716.29 Z" fill="#000000" fill-rule="nonzero" fill-opacity="1" /><path clip-path="url(#clip500)" d="M20.1444 621.855 L26.9239 621.855 Q23.9002 625.101 22.4043 628.793 Q20.9083 632.454 20.9083 636.591 Q20.9083 644.739 25.9054 649.068 Q30.8707 653.397 40.2919 653.397 Q49.6813 653.397 54.6784 649.068 Q59.6436 644.739 59.6436 636.591 Q59.6436 632.454 58.1477 628.793 Q56.6518 625.101 53.6281 621.855 L60.3439 621.855 Q62.6355 625.228 63.7814 629.016 Q64.9272 632.772 64.9272 636.973 Q64.9272 647.763 58.3387 653.97 Q51.7183 660.176 40.2919 660.176 Q28.8336 660.176 22.2451 653.97 Q15.6248 647.763 15.6248 636.973 Q15.6248 632.708 16.7706 628.952 Q17.8846 625.165 20.1444 621.855 Z" fill="#000000" fill-rule="nonzero" fill-opacity="1" /><path clip-path="url(#clip500)" d="M16.4842 611.924 L16.4842 605.495 L64.0042 605.495 L64.0042 611.924 L16.4842 611.924 Z" fill="#000000" fill-rule="nonzero" fill-opacity="1" /><path clip-path="url(#clip500)" d="M29.4065 570.229 L34.9447 570.229 Q33.6716 572.711 33.035 575.385 Q32.3984 578.059 32.3984 580.923 Q32.3984 585.284 33.7352 587.48 Q35.072 589.644 37.7456 589.644 Q39.7826 589.644 40.9603 588.085 Q42.1061 586.525 43.1565 581.814 L43.6021 579.809 Q44.9389 573.571 47.3897 570.961 Q49.8086 568.319 54.1691 568.319 Q59.1344 568.319 62.0308 572.266 Q64.9272 576.181 64.9272 583.056 Q64.9272 585.92 64.3543 589.039 Q63.8132 592.127 62.6992 595.564 L56.6518 595.564 Q58.3387 592.318 59.198 589.167 Q60.0256 586.016 60.0256 582.928 Q60.0256 578.791 58.6251 576.563 Q57.1929 574.335 54.6147 574.335 Q52.2276 574.335 50.9545 575.958 Q49.6813 577.549 48.5037 582.992 L48.0262 585.029 Q46.8804 590.472 44.5251 592.891 Q42.138 595.31 38.0002 595.31 Q32.9713 595.31 30.2341 591.745 Q27.4968 588.18 27.4968 581.623 Q27.4968 578.377 27.9743 575.512 Q28.4517 572.648 29.4065 570.229 Z" fill="#000000" fill-rule="nonzero" fill-opacity="1" /><path clip-path="url(#clip500)" d="M14.479 520.226 L19.3487 520.226 L19.3487 525.828 Q19.3487 528.979 20.6219 530.22 Q21.895 531.43 25.2052 531.43 L28.3562 531.43 L28.3562 521.786 L32.9077 521.786 L32.9077 531.43 L64.0042 531.43 L64.0042 537.318 L32.9077 537.318 L32.9077 542.92 L28.3562 542.92 L28.3562 537.318 L25.8736 537.318 Q19.9216 537.318 17.2162 534.549 Q14.479 531.78 14.479 525.764 L14.479 520.226 Z" fill="#000000" fill-rule="nonzero" fill-opacity="1" /><path clip-path="url(#clip500)" d="M32.4621 501.511 Q32.4621 506.222 36.1542 508.959 Q39.8145 511.696 46.212 511.696 Q52.6095 511.696 56.3017 508.991 Q59.9619 506.253 59.9619 501.511 Q59.9619 496.832 56.2698 494.095 Q52.5777 491.358 46.212 491.358 Q39.8781 491.358 36.186 494.095 Q32.4621 496.832 32.4621 501.511 M27.4968 501.511 Q27.4968 493.872 32.4621 489.512 Q37.4273 485.151 46.212 485.151 Q54.9649 485.151 59.9619 489.512 Q64.9272 493.872 64.9272 501.511 Q64.9272 509.182 59.9619 513.542 Q54.9649 517.871 46.212 517.871 Q37.4273 517.871 32.4621 513.542 Q27.4968 509.182 27.4968 501.511 Z" fill="#000000" fill-rule="nonzero" fill-opacity="1" /><path clip-path="url(#clip500)" d="M33.8307 454.787 Q33.2578 455.773 33.0032 456.951 Q32.7167 458.097 32.7167 459.497 Q32.7167 464.463 35.9632 467.136 Q39.1779 469.778 45.2253 469.778 L64.0042 469.778 L64.0042 475.666 L28.3562 475.666 L28.3562 469.778 L33.8944 469.778 Q30.6479 467.932 29.0883 464.972 Q27.4968 462.012 27.4968 457.779 Q27.4968 457.174 27.5923 456.442 Q27.656 455.71 27.8151 454.819 L33.8307 454.787 Z" fill="#000000" fill-rule="nonzero" fill-opacity="1" /><path clip-path="url(#clip500)" d="M35.1993 400.169 Q31.2526 397.973 29.3747 394.917 Q27.4968 391.862 27.4968 387.724 Q27.4968 382.154 31.4117 379.13 Q35.2948 376.107 42.4881 376.107 L64.0042 376.107 L64.0042 381.995 L42.679 381.995 Q37.5546 381.995 35.072 383.809 Q32.5894 385.623 32.5894 389.347 Q32.5894 393.899 35.6131 396.54 Q38.6368 399.182 43.8567 399.182 L64.0042 399.182 L64.0042 405.071 L42.679 405.071 Q37.5228 405.071 35.072 406.885 Q32.5894 408.699 32.5894 412.487 Q32.5894 416.974 35.6449 419.616 Q38.6686 422.258 43.8567 422.258 L64.0042 422.258 L64.0042 428.146 L28.3562 428.146 L28.3562 422.258 L33.8944 422.258 Q30.616 420.253 29.0564 417.452 Q27.4968 414.651 27.4968 410.8 Q27.4968 406.917 29.4702 404.211 Q31.4436 401.474 35.1993 400.169 Z" fill="#000000" fill-rule="nonzero" fill-opacity="1" /><path clip-path="url(#clip500)" d="M44.7161 333.934 L47.5806 333.934 L47.5806 360.861 Q53.6281 360.479 56.8109 357.232 Q59.9619 353.954 59.9619 348.129 Q59.9619 344.755 59.1344 341.604 Q58.3069 338.422 56.6518 335.302 L62.1899 335.302 Q63.5267 338.453 64.227 341.764 Q64.9272 345.074 64.9272 348.479 Q64.9272 357.009 59.9619 362.007 Q54.9967 366.972 46.5303 366.972 Q37.7774 366.972 32.6531 362.261 Q27.4968 357.519 27.4968 349.498 Q27.4968 342.305 32.1438 338.135 Q36.7589 333.934 44.7161 333.934 M42.9973 339.79 Q38.1912 339.854 35.3266 342.496 Q32.4621 345.106 32.4621 349.434 Q32.4621 354.336 35.2312 357.296 Q38.0002 360.224 43.0292 360.67 L42.9973 339.79 Z" fill="#000000" fill-rule="nonzero" fill-opacity="1" /><path clip-path="url(#clip500)" d="M46.0847 308.121 Q46.0847 315.219 47.7079 317.956 Q49.3312 320.693 53.2461 320.693 Q56.3653 320.693 58.2114 318.656 Q60.0256 316.587 60.0256 313.054 Q60.0256 308.184 56.5881 305.256 Q53.1188 302.296 47.3897 302.296 L46.0847 302.296 L46.0847 308.121 M43.6657 296.44 L64.0042 296.44 L64.0042 302.296 L58.5933 302.296 Q61.8398 304.301 63.3994 307.293 Q64.9272 310.285 64.9272 314.614 Q64.9272 320.088 61.8716 323.335 Q58.7843 326.55 53.6281 326.55 Q47.6125 326.55 44.5569 322.539 Q41.5014 318.497 41.5014 310.508 L41.5014 302.296 L40.9285 302.296 Q36.8862 302.296 34.6901 304.97 Q32.4621 307.612 32.4621 312.418 Q32.4621 315.473 33.1941 318.37 Q33.9262 321.266 35.3903 323.94 L29.9795 323.94 Q28.7381 320.725 28.1334 317.701 Q27.4968 314.677 27.4968 311.813 Q27.4968 304.079 31.5072 300.259 Q35.5176 296.44 43.6657 296.44 Z" fill="#000000" fill-rule="nonzero" fill-opacity="1" /><path clip-path="url(#clip500)" d="M42.4881 254.744 L64.0042 254.744 L64.0042 260.601 L42.679 260.601 Q37.6183 260.601 35.1038 262.574 Q32.5894 264.548 32.5894 268.494 Q32.5894 273.237 35.6131 275.974 Q38.6368 278.711 43.8567 278.711 L64.0042 278.711 L64.0042 284.6 L28.3562 284.6 L28.3562 278.711 L33.8944 278.711 Q30.6797 276.611 29.0883 273.778 Q27.4968 270.913 27.4968 267.189 Q27.4968 261.046 31.3163 257.895 Q35.1038 254.744 42.4881 254.744 Z" fill="#000000" fill-rule="nonzero" fill-opacity="1" /><path clip-path="url(#clip502)" d="M262.551 1384.24 L273.002 1370.38 L283.453 1356.54 L293.904 1342.73 L304.355 1328.93 L314.806 1315.14 L325.257 1301.38 L335.708 1287.63 L346.159 1273.91 L356.61 1260.2 L367.061 1246.51 L377.512 1232.84 L387.964 1219.19 L398.415 1205.55 L408.866 1191.94 L419.317 1178.34 L429.768 1164.76 L440.219 1151.2 L450.67 1137.66 L461.121 1124.14 L471.572 1110.63 L482.023 1097.14 L492.474 1083.68 L502.925 1070.23 L513.376 1056.8 L523.827 1043.38 L534.278 1029.99 L544.729 1016.61 L555.18 1003.26 L565.631 989.918 L576.082 976.598 L586.533 963.296 L596.984 950.013 L607.435 936.749 L617.886 923.502 L628.337 910.275 L638.788 897.065 L649.239 883.875 L659.69 870.702 L670.141 857.549 L680.592 844.413 L691.043 831.296 L701.494 818.198 L711.945 805.118 L722.396 792.056 L732.847 779.014 L743.298 765.989 L753.749 752.983 L764.2 739.995 L774.651 727.026 L785.102 714.076 L795.553 701.144 L806.004 688.23 L816.455 675.335 L826.906 662.458 L837.358 649.6 L847.809 636.76 L858.26 623.939 L868.711 611.136 L879.162 598.352 L889.613 585.586 L900.064 572.839 L910.515 560.11 L920.966 547.399 L931.417 534.707 L941.868 522.034 L952.319 509.379 L962.77 496.742 L973.221 484.124 L983.672 471.525 L994.123 458.945 L1004.57 446.668 L1015.02 435.103 L1025.48 424.328 L1035.93 414.409 L1046.38 405.418 L1056.83 397.449 L1067.28 390.589 L1077.73 384.938 L1088.18 379.982 L1098.63 375.225 L1109.08 370.667 L1119.54 366.308 L1129.99 362.148 L1140.44 358.186 L1150.89 354.424 L1161.34 350.86 L1171.79 347.495 L1182.24 344.329 L1192.69 341.362 L1203.14 338.594 L1213.59 336.025 L1224.05 333.654 L1234.5 331.483 L1244.95 329.51 L1255.4 327.737 L1265.85 326.162 L1276.3 324.786 L1286.75 323.609 L1297.2 321.728 L1307.65 321.851 L1318.1 322.182 L1328.56 322.72 L1339.01 323.467 L1349.46 324.421 L1359.91 325.583 L1370.36 326.954 L1380.81 328.532 L1391.26 330.318 L1401.71 332.312 L1412.16 334.515 L1422.61 336.925 L1433.07 339.543 L1443.52 342.369 L1453.97 345.402 L1464.42 348.644 L1474.87 352.094 L1485.32 355.752 L1495.77 359.617 L1506.22 363.691 L1516.67 367.973 L1527.13 372.462 L1537.58 377.16 L1548.03 382.065 L1558.48 387.178 L1568.93 392.5 L1579.38 398.029 L1589.83 403.766 L1600.28 409.711 L1610.73 415.864 L1621.18 422.225 L1631.64 428.794 L1642.09 435.571 L1652.54 442.556 L1662.99 449.749 L1673.44 457.149 L1683.89 464.758 L1694.34 472.575 L1704.79 480.599 L1715.24 488.832 L1725.69 497.272 L1736.15 505.921 L1746.6 514.777 L1757.05 523.841 L1767.5 533.114 L1777.95 542.594 L1788.4 552.282 L1798.85 562.178 L1809.3 572.282 L1819.75 582.594 L1830.2 593.114 L1840.66 603.842 L1851.11 614.777 L1861.56 625.921 L1872.01 637.273 L1882.46 648.832 L1892.91 660.6 L1903.36 672.576 L1913.81 684.759 L1924.26 697.15 L1934.71 709.75 L1945.17 722.557 L1955.62 735.572 L1966.07 748.795 L1976.52 762.227 L1986.97 775.866 L1997.42 789.713 L2007.87 803.768 L2018.32 818.031 L2028.77 832.501 L2039.23 847.18 L2049.68 862.067 L2060.13 877.162 L2070.58 892.464 L2081.03 907.975 L2091.48 923.693 L2101.93 939.62 L2112.38 955.754 L2122.83 972.097 L2133.28 988.647 L2143.74 1005.41 L2154.19 1022.37 L2164.64 1039.55 L2175.09 1056.93 L2185.54 1074.52 L2195.99 1092.32 L2206.44 1110.32 L2216.89 1128.54 L2227.34 1146.96 L2237.79 1165.59 L2248.25 1184.42 L2258.7 1203.47 L2269.15 1222.72 L2279.6 1242.19 L2290.05 1261.85 L2300.5 1281.73 L2310.95 1301.82 L2321.4 1322.11 L2331.85 1342.61 L2342.3 1363.32 L2352.76 1384.24 L2352.76 1384.24 L2342.3 1362.45 L2331.85 1340.84 L2321.4 1319.41 L2310.95 1298.16 L2300.5 1277.09 L2290.05 1256.19 L2279.6 1235.48 L2269.15 1214.94 L2258.7 1194.58 L2248.25 1174.41 L2237.79 1154.4 L2227.34 1134.58 L2216.89 1114.94 L2206.44 1095.48 L2195.99 1076.19 L2185.54 1057.08 L2175.09 1038.16 L2164.64 1019.41 L2154.19 1000.84 L2143.74 982.443 L2133.28 964.23 L2122.83 946.195 L2112.38 928.339 L2101.93 910.662 L2091.48 893.164 L2081.03 875.844 L2070.58 858.703 L2060.13 841.74 L2049.68 824.957 L2039.23 808.352 L2028.77 791.926 L2018.32 775.678 L2007.87 759.609 L1997.42 743.719 L1986.97 728.008 L1976.52 712.475 L1966.07 697.121 L1955.62 681.946 L1945.17 666.95 L1934.71 652.132 L1924.26 637.493 L1913.81 623.032 L1903.36 608.751 L1892.91 594.648 L1882.46 580.723 L1872.01 566.978 L1861.56 553.411 L1851.11 540.023 L1840.66 526.813 L1830.2 513.783 L1819.75 500.931 L1809.3 488.257 L1798.85 475.763 L1788.4 463.447 L1777.95 451.31 L1767.5 439.351 L1757.05 427.572 L1746.6 415.971 L1736.15 404.548 L1725.69 393.305 L1715.24 382.24 L1704.79 371.354 L1694.34 360.646 L1683.89 350.117 L1673.44 339.767 L1662.99 329.596 L1652.54 319.603 L1642.09 309.789 L1631.64 300.154 L1621.18 290.698 L1610.73 281.42 L1600.28 272.321 L1589.83 263.4 L1579.38 254.659 L1568.93 246.096 L1558.48 237.711 L1548.03 229.506 L1537.58 221.479 L1527.13 213.631 L1516.67 205.961 L1506.22 198.471 L1495.77 191.159 L1485.32 184.025 L1474.87 177.071 L1464.42 170.295 L1453.97 163.698 L1443.52 157.279 L1433.07 151.04 L1422.61 144.979 L1412.16 139.096 L1401.71 133.393 L1391.26 127.868 L1380.81 122.522 L1370.36 117.354 L1359.91 112.365 L1349.46 107.555 L1339.01 102.924 L1328.56 98.4713 L1318.1 94.1974 L1307.65 90.1022 L1297.2 86.1857 L1286.75 114.174 L1276.3 126.238 L1265.85 138.32 L1255.4 150.421 L1244.95 162.54 L1234.5 174.678 L1224.05 186.834 L1213.59 199.009 L1203.14 211.202 L1192.69 223.413 L1182.24 235.643 L1171.79 247.892 L1161.34 260.159 L1150.89 272.444 L1140.44 284.748 L1129.99 297.071 L1119.54 309.412 L1109.08 321.771 L1098.63 334.149 L1088.18 346.545 L1077.73 358.96 L1067.28 371.393 L1056.83 383.845 L1046.38 396.315 L1035.93 406.75 L1025.48 412.7 L1015.02 418.849 L1004.57 425.197 L994.123 431.744 L983.672 438.49 L973.221 445.435 L962.77 452.578 L952.319 459.92 L941.868 467.462 L931.417 475.202 L920.966 483.141 L910.515 491.279 L900.064 499.615 L889.613 508.151 L879.162 516.886 L868.711 525.819 L858.26 534.951 L847.809 544.282 L837.358 553.813 L826.906 563.541 L816.455 573.469 L806.004 583.596 L795.553 593.921 L785.102 604.446 L774.651 615.169 L764.2 626.091 L753.749 637.212 L743.298 648.532 L732.847 660.051 L722.396 671.769 L711.945 683.686 L701.494 695.801 L691.043 708.115 L680.592 720.629 L670.141 733.341 L659.69 746.252 L649.239 759.362 L638.788 772.67 L628.337 786.178 L617.886 799.884 L607.435 813.79 L596.984 827.894 L586.533 842.197 L576.082 856.699 L565.631 871.4 L555.18 886.3 L544.729 901.398 L534.278 916.696 L523.827 932.192 L513.376 947.888 L502.925 963.782 L492.474 979.875 L482.023 996.167 L471.572 1012.66 L461.121 1029.35 L450.67 1046.24 L440.219 1063.32 L429.768 1080.61 L419.317 1098.09 L408.866 1115.78 L398.415 1133.66 L387.964 1151.74 L377.512 1170.02 L367.061 1188.5 L356.61 1207.18 L346.159 1226.06 L335.708 1245.14 L325.257 1264.41 L314.806 1283.89 L304.355 1303.56 L293.904 1323.43 L283.453 1343.5 L273.002 1363.77 L262.551 1384.24  Z" fill="#800080" fill-rule="evenodd" fill-opacity="0.2"/>
<polyline clip-path="url(#clip502)" style="stroke:#800080; stroke-linecap:round; stroke-linejoin:round; stroke-width:0; stroke-opacity:1; fill:none" points="262.551,1384.24 273.002,1370.38 283.453,1356.54 293.904,1342.73 304.355,1328.93 314.806,1315.14 325.257,1301.38 335.708,1287.63 346.159,1273.91 356.61,1260.2 367.061,1246.51 377.512,1232.84 387.964,1219.19 398.415,1205.55 408.866,1191.94 419.317,1178.34 429.768,1164.76 440.219,1151.2 450.67,1137.66 461.121,1124.14 471.572,1110.63 482.023,1097.14 492.474,1083.68 502.925,1070.23 513.376,1056.8 523.827,1043.38 534.278,1029.99 544.729,1016.61 555.18,1003.26 565.631,989.918 576.082,976.598 586.533,963.296 596.984,950.013 607.435,936.749 617.886,923.502 628.337,910.275 638.788,897.065 649.239,883.875 659.69,870.702 670.141,857.549 680.592,844.413 691.043,831.296 701.494,818.198 711.945,805.118 722.396,792.056 732.847,779.014 743.298,765.989 753.749,752.983 764.2,739.995 774.651,727.026 785.102,714.076 795.553,701.144 806.004,688.23 816.455,675.335 826.906,662.458 837.358,649.6 847.809,636.76 858.26,623.939 868.711,611.136 879.162,598.352 889.613,585.586 900.064,572.839 910.515,560.11 920.966,547.399 931.417,534.707 941.868,522.034 952.319,509.379 962.77,496.742 973.221,484.124 983.672,471.525 994.123,458.945 1004.57,446.668 1015.02,435.103 1025.48,424.328 1035.93,414.409 1046.38,405.418 1056.83,397.449 1067.28,390.589 1077.73,384.938 1088.18,379.982 1098.63,375.225 1109.08,370.667 1119.54,366.308 1129.99,362.148 1140.44,358.186 1150.89,354.424 1161.34,350.86 1171.79,347.495 1182.24,344.329 1192.69,341.362 1203.14,338.594 1213.59,336.025 1224.05,333.654 1234.5,331.483 1244.95,329.51 1255.4,327.737 1265.85,326.162 1276.3,324.786 1286.75,323.609 1297.2,321.728 1307.65,321.851 1318.1,322.182 1328.56,322.72 1339.01,323.467 1349.46,324.421 1359.91,325.583 1370.36,326.954 1380.81,328.532 1391.26,330.318 1401.71,332.312 1412.16,334.515 1422.61,336.925 1433.07,339.543 1443.52,342.369 1453.97,345.402 1464.42,348.644 1474.87,352.094 1485.32,355.752 1495.77,359.617 1506.22,363.691 1516.67,367.973 1527.13,372.462 1537.58,377.16 1548.03,382.065 1558.48,387.178 1568.93,392.5 1579.38,398.029 1589.83,403.766 1600.28,409.711 1610.73,415.864 1621.18,422.225 1631.64,428.794 1642.09,435.571 1652.54,442.556 1662.99,449.749 1673.44,457.149 1683.89,464.758 1694.34,472.575 1704.79,480.599 1715.24,488.832 1725.69,497.272 1736.15,505.921 1746.6,514.777 1757.05,523.841 1767.5,533.114 1777.95,542.594 1788.4,552.282 1798.85,562.178 1809.3,572.282 1819.75,582.594 1830.2,593.114 1840.66,603.842 1851.11,614.777 1861.56,625.921 1872.01,637.273 1882.46,648.832 1892.91,660.6 1903.36,672.576 1913.81,684.759 1924.26,697.15 1934.71,709.75 1945.17,722.557 1955.62,735.572 1966.07,748.795 1976.52,762.227 1986.97,775.866 1997.42,789.713 2007.87,803.768 2018.32,818.031 2028.77,832.501 2039.23,847.18 2049.68,862.067 2060.13,877.162 2070.58,892.464 2081.03,907.975 2091.48,923.693 2101.93,939.62 2112.38,955.754 2122.83,972.097 2133.28,988.647 2143.74,1005.41 2154.19,1022.37 2164.64,1039.55 2175.09,1056.93 2185.54,1074.52 2195.99,1092.32 2206.44,1110.32 2216.89,1128.54 2227.34,1146.96 2237.79,1165.59 2248.25,1184.42 2258.7,1203.47 2269.15,1222.72 2279.6,1242.19 2290.05,1261.85 2300.5,1281.73 2310.95,1301.82 2321.4,1322.11 2331.85,1342.61 2342.3,1363.32 2352.76,1384.24 "/>
<polyline clip-path="url(#clip502)" style="stroke:#551a8b; stroke-linecap:round; stroke-linejoin:round; stroke-width:4; stroke-opacity:1; fill:none" points="262.551,1384.24 273.002,1367.51 283.453,1350.89 293.904,1334.36 304.355,1317.93 314.806,1301.6 325.257,1285.37 335.708,1269.24 346.159,1253.21 356.61,1237.28 367.061,1221.44 377.512,1205.71 387.964,1190.07 398.415,1174.54 408.866,1159.1 419.317,1143.76 429.768,1128.52 440.219,1113.39 450.67,1098.35 461.121,1083.41 471.572,1068.56 482.023,1053.82 492.474,1039.18 502.925,1024.63 513.376,1010.19 523.827,995.844 534.278,981.597 544.729,967.45 555.18,953.402 565.631,939.453 576.082,925.604 586.533,911.853 596.984,898.202 607.435,884.65 617.886,871.197 628.337,857.843 638.788,844.588 649.239,831.433 659.69,818.377 670.141,805.419 680.592,792.562 691.043,779.803 701.494,767.143 711.945,754.583 722.396,742.122 732.847,729.76 743.298,717.497 753.749,705.334 764.2,693.269 774.651,681.304 785.102,669.438 795.553,657.671 806.004,646.003 816.455,634.435 826.906,622.966 837.358,611.595 847.809,600.324 858.26,589.153 868.711,578.08 879.162,567.107 889.613,556.232 900.064,545.457 910.515,534.782 920.966,524.205 931.417,513.727 941.868,503.349 952.319,493.07 962.77,482.89 973.221,472.809 983.672,462.828 994.123,452.945 1004.57,443.162 1015.02,433.478 1025.48,423.893 1035.93,414.407 1046.38,405.021 1056.83,395.734 1067.28,386.545 1077.73,377.456 1088.18,368.467 1098.63,359.576 1109.08,350.785 1119.54,342.092 1129.99,333.499 1140.44,325.005 1150.89,316.611 1161.34,308.315 1171.79,300.119 1182.24,292.022 1192.69,284.024 1203.14,276.125 1213.59,268.326 1224.05,260.625 1234.5,253.024 1244.95,245.522 1255.4,238.119 1265.85,230.815 1276.3,223.611 1286.75,216.505 1297.2,200.402 1307.65,202.592 1318.1,204.973 1328.56,207.545 1339.01,210.308 1349.46,213.26 1359.91,216.404 1370.36,219.738 1380.81,223.263 1391.26,226.978 1401.71,230.884 1412.16,234.981 1422.61,239.268 1433.07,243.746 1443.52,248.414 1453.97,253.274 1464.42,258.323 1474.87,263.564 1485.32,268.994 1495.77,274.616 1506.22,280.428 1516.67,286.431 1527.13,292.624 1537.58,299.008 1548.03,305.583 1558.48,312.348 1568.93,319.304 1579.38,326.45 1589.83,333.787 1600.28,341.315 1610.73,349.033 1621.18,356.942 1631.64,365.042 1642.09,373.332 1652.54,381.812 1662.99,390.484 1673.44,399.346 1683.89,408.398 1694.34,417.641 1704.79,427.075 1715.24,436.7 1725.69,446.515 1736.15,456.52 1746.6,466.717 1757.05,477.103 1767.5,487.681 1777.95,498.449 1788.4,509.408 1798.85,520.557 1809.3,531.897 1819.75,543.427 1830.2,555.149 1840.66,567.06 1851.11,579.163 1861.56,591.456 1872.01,603.939 1882.46,616.614 1892.91,629.478 1903.36,642.534 1913.81,655.78 1924.26,669.217 1934.71,682.844 1945.17,696.662 1955.62,710.67 1966.07,724.869 1976.52,739.259 1986.97,753.839 1997.42,768.61 2007.87,783.572 2018.32,798.724 2028.77,814.067 2039.23,829.6 2049.68,845.324 2060.13,861.239 2070.58,877.344 2081.03,893.64 2091.48,910.127 2101.93,926.804 2112.38,943.672 2122.83,960.73 2133.28,977.979 2143.74,995.418 2154.19,1013.05 2164.64,1030.87 2175.09,1048.88 2185.54,1067.08 2195.99,1085.48 2206.44,1104.06 2216.89,1122.83 2227.34,1141.8 2237.79,1160.95 2248.25,1180.3 2258.7,1199.83 2269.15,1219.56 2279.6,1239.48 2290.05,1259.59 2300.5,1279.89 2310.95,1300.37 2321.4,1321.05 2331.85,1341.93 2342.3,1362.99 2352.76,1384.24 "/>
<line clip-path="url(#clip502)" x1="356.61" y1="1244.63" x2="344.61" y2="1232.63" style="stroke:#000000; stroke-width:3.2; stroke-opacity:1"/>
<line clip-path="url(#clip502)" x1="356.61" y1="1244.63" x2="344.61" y2="1256.63" style="stroke:#000000; stroke-width:3.2; stroke-opacity:1"/>
<line clip-path="url(#clip502)" x1="356.61" y1="1244.63" x2="368.61" y2="1256.63" style="stroke:#000000; stroke-width:3.2; stroke-opacity:1"/>
<line clip-path="url(#clip502)" x1="356.61" y1="1244.63" x2="368.61" y2="1232.63" style="stroke:#000000; stroke-width:3.2; stroke-opacity:1"/>
<line clip-path="url(#clip502)" x1="461.121" y1="1082.74" x2="449.121" y2="1070.74" style="stroke:#000000; stroke-width:3.2; stroke-opacity:1"/>
<line clip-path="url(#clip502)" x1="461.121" y1="1082.74" x2="449.121" y2="1094.74" style="stroke:#000000; stroke-width:3.2; stroke-opacity:1"/>
<line clip-path="url(#clip502)" x1="461.121" y1="1082.74" x2="473.121" y2="1094.74" style="stroke:#000000; stroke-width:3.2; stroke-opacity:1"/>
<line clip-path="url(#clip502)" x1="461.121" y1="1082.74" x2="473.121" y2="1070.74" style="stroke:#000000; stroke-width:3.2; stroke-opacity:1"/>
<line clip-path="url(#clip502)" x1="565.631" y1="1005.9" x2="553.631" y2="993.904" style="stroke:#000000; stroke-width:3.2; stroke-opacity:1"/>
<line clip-path="url(#clip502)" x1="565.631" y1="1005.9" x2="553.631" y2="1017.9" style="stroke:#000000; stroke-width:3.2; stroke-opacity:1"/>
<line clip-path="url(#clip502)" x1="565.631" y1="1005.9" x2="577.631" y2="1017.9" style="stroke:#000000; stroke-width:3.2; stroke-opacity:1"/>
<line clip-path="url(#clip502)" x1="565.631" y1="1005.9" x2="577.631" y2="993.904" style="stroke:#000000; stroke-width:3.2; stroke-opacity:1"/>
<line clip-path="url(#clip502)" x1="670.141" y1="817.963" x2="658.141" y2="805.963" style="stroke:#000000; stroke-width:3.2; stroke-opacity:1"/>
<line clip-path="url(#clip502)" x1="670.141" y1="817.963" x2="658.141" y2="829.963" style="stroke:#000000; stroke-width:3.2; stroke-opacity:1"/>
<line clip-path="url(#clip502)" x1="670.141" y1="817.963" x2="682.141" y2="829.963" style="stroke:#000000; stroke-width:3.2; stroke-opacity:1"/>
<line clip-path="url(#clip502)" x1="670.141" y1="817.963" x2="682.141" y2="805.963" style="stroke:#000000; stroke-width:3.2; stroke-opacity:1"/>
<line clip-path="url(#clip502)" x1="774.651" y1="527.411" x2="762.651" y2="515.411" style="stroke:#000000; stroke-width:3.2; stroke-opacity:1"/>
<line clip-path="url(#clip502)" x1="774.651" y1="527.411" x2="762.651" y2="539.411" style="stroke:#000000; stroke-width:3.2; stroke-opacity:1"/>
<line clip-path="url(#clip502)" x1="774.651" y1="527.411" x2="786.651" y2="539.411" style="stroke:#000000; stroke-width:3.2; stroke-opacity:1"/>
<line clip-path="url(#clip502)" x1="774.651" y1="527.411" x2="786.651" y2="515.411" style="stroke:#000000; stroke-width:3.2; stroke-opacity:1"/>
<line clip-path="url(#clip502)" x1="879.162" y1="791.911" x2="867.162" y2="779.911" style="stroke:#000000; stroke-width:3.2; stroke-opacity:1"/>
<line clip-path="url(#clip502)" x1="879.162" y1="791.911" x2="867.162" y2="803.911" style="stroke:#000000; stroke-width:3.2; stroke-opacity:1"/>
<line clip-path="url(#clip502)" x1="879.162" y1="791.911" x2="891.162" y2="803.911" style="stroke:#000000; stroke-width:3.2; stroke-opacity:1"/>
<line clip-path="url(#clip502)" x1="879.162" y1="791.911" x2="891.162" y2="779.911" style="stroke:#000000; stroke-width:3.2; stroke-opacity:1"/>
<line clip-path="url(#clip502)" x1="983.672" y1="423.029" x2="971.672" y2="411.029" style="stroke:#000000; stroke-width:3.2; stroke-opacity:1"/>
<line clip-path="url(#clip502)" x1="983.672" y1="423.029" x2="971.672" y2="435.029" style="stroke:#000000; stroke-width:3.2; stroke-opacity:1"/>
<line clip-path="url(#clip502)" x1="983.672" y1="423.029" x2="995.672" y2="435.029" style="stroke:#000000; stroke-width:3.2; stroke-opacity:1"/>
<line clip-path="url(#clip502)" x1="983.672" y1="423.029" x2="995.672" y2="411.029" style="stroke:#000000; stroke-width:3.2; stroke-opacity:1"/>
<line clip-path="url(#clip502)" x1="1088.18" y1="150.324" x2="1076.18" y2="138.324" style="stroke:#000000; stroke-width:3.2; stroke-opacity:1"/>
<line clip-path="url(#clip502)" x1="1088.18" y1="150.324" x2="1076.18" y2="162.324" style="stroke:#000000; stroke-width:3.2; stroke-opacity:1"/>
<line clip-path="url(#clip502)" x1="1088.18" y1="150.324" x2="1100.18" y2="162.324" style="stroke:#000000; stroke-width:3.2; stroke-opacity:1"/>
<line clip-path="url(#clip502)" x1="1088.18" y1="150.324" x2="1100.18" y2="138.324" style="stroke:#000000; stroke-width:3.2; stroke-opacity:1"/>
<line clip-path="url(#clip502)" x1="1192.69" y1="730.986" x2="1180.69" y2="718.986" style="stroke:#000000; stroke-width:3.2; stroke-opacity:1"/>
<line clip-path="url(#clip502)" x1="1192.69" y1="730.986" x2="1180.69" y2="742.986" style="stroke:#000000; stroke-width:3.2; stroke-opacity:1"/>
<line clip-path="url(#clip502)" x1="1192.69" y1="730.986" x2="1204.69" y2="742.986" style="stroke:#000000; stroke-width:3.2; stroke-opacity:1"/>
<line clip-path="url(#clip502)" x1="1192.69" y1="730.986" x2="1204.69" y2="718.986" style="stroke:#000000; stroke-width:3.2; stroke-opacity:1"/>
<line clip-path="url(#clip502)" x1="1297.2" y1="527.234" x2="1285.2" y2="515.234" style="stroke:#000000; stroke-width:3.2; stroke-opacity:1"/>
<line clip-path="url(#clip502)" x1="1297.2" y1="527.234" x2="1285.2" y2="539.234" style="stroke:#000000; stroke-width:3.2; stroke-opacity:1"/>
<line clip-path="url(#clip502)" x1="1297.2" y1="527.234" x2="1309.2" y2="539.234" style="stroke:#000000; stroke-width:3.2; stroke-opacity:1"/>
<line clip-path="url(#clip502)" x1="1297.2" y1="527.234" x2="1309.2" y2="515.234" style="stroke:#000000; stroke-width:3.2; stroke-opacity:1"/>
<line clip-path="url(#clip502)" x1="1401.71" y1="117.743" x2="1389.71" y2="105.743" style="stroke:#000000; stroke-width:3.2; stroke-opacity:1"/>
<line clip-path="url(#clip502)" x1="1401.71" y1="117.743" x2="1389.71" y2="129.743" style="stroke:#000000; stroke-width:3.2; stroke-opacity:1"/>
<line clip-path="url(#clip502)" x1="1401.71" y1="117.743" x2="1413.71" y2="129.743" style="stroke:#000000; stroke-width:3.2; stroke-opacity:1"/>
<line clip-path="url(#clip502)" x1="1401.71" y1="117.743" x2="1413.71" y2="105.743" style="stroke:#000000; stroke-width:3.2; stroke-opacity:1"/>
<line clip-path="url(#clip502)" x1="1506.22" y1="371.177" x2="1494.22" y2="359.177" style="stroke:#000000; stroke-width:3.2; stroke-opacity:1"/>
<line clip-path="url(#clip502)" x1="1506.22" y1="371.177" x2="1494.22" y2="383.177" style="stroke:#000000; stroke-width:3.2; stroke-opacity:1"/>
<line clip-path="url(#clip502)" x1="1506.22" y1="371.177" x2="1518.22" y2="383.177" style="stroke:#000000; stroke-width:3.2; stroke-opacity:1"/>
<line clip-path="url(#clip502)" x1="1506.22" y1="371.177" x2="1518.22" y2="359.177" style="stroke:#000000; stroke-width:3.2; stroke-opacity:1"/>
<line clip-path="url(#clip502)" x1="1610.73" y1="246.001" x2="1598.73" y2="234.001" style="stroke:#000000; stroke-width:3.2; stroke-opacity:1"/>
<line clip-path="url(#clip502)" x1="1610.73" y1="246.001" x2="1598.73" y2="258.001" style="stroke:#000000; stroke-width:3.2; stroke-opacity:1"/>
<line clip-path="url(#clip502)" x1="1610.73" y1="246.001" x2="1622.73" y2="258.001" style="stroke:#000000; stroke-width:3.2; stroke-opacity:1"/>
<line clip-path="url(#clip502)" x1="1610.73" y1="246.001" x2="1622.73" y2="234.001" style="stroke:#000000; stroke-width:3.2; stroke-opacity:1"/>
<line clip-path="url(#clip502)" x1="1715.24" y1="398.704" x2="1703.24" y2="386.704" style="stroke:#000000; stroke-width:3.2; stroke-opacity:1"/>
<line clip-path="url(#clip502)" x1="1715.24" y1="398.704" x2="1703.24" y2="410.704" style="stroke:#000000; stroke-width:3.2; stroke-opacity:1"/>
<line clip-path="url(#clip502)" x1="1715.24" y1="398.704" x2="1727.24" y2="410.704" style="stroke:#000000; stroke-width:3.2; stroke-opacity:1"/>
<line clip-path="url(#clip502)" x1="1715.24" y1="398.704" x2="1727.24" y2="386.704" style="stroke:#000000; stroke-width:3.2; stroke-opacity:1"/>
<line clip-path="url(#clip502)" x1="1819.75" y1="308.02" x2="1807.75" y2="296.02" style="stroke:#000000; stroke-width:3.2; stroke-opacity:1"/>
<line clip-path="url(#clip502)" x1="1819.75" y1="308.02" x2="1807.75" y2="320.02" style="stroke:#000000; stroke-width:3.2; stroke-opacity:1"/>
<line clip-path="url(#clip502)" x1="1819.75" y1="308.02" x2="1831.75" y2="320.02" style="stroke:#000000; stroke-width:3.2; stroke-opacity:1"/>
<line clip-path="url(#clip502)" x1="1819.75" y1="308.02" x2="1831.75" y2="296.02" style="stroke:#000000; stroke-width:3.2; stroke-opacity:1"/>
<line clip-path="url(#clip502)" x1="1924.26" y1="840.021" x2="1912.26" y2="828.021" style="stroke:#000000; stroke-width:3.2; stroke-opacity:1"/>
<line clip-path="url(#clip502)" x1="1924.26" y1="840.021" x2="1912.26" y2="852.021" style="stroke:#000000; stroke-width:3.2; stroke-opacity:1"/>
<line clip-path="url(#clip502)" x1="1924.26" y1="840.021" x2="1936.26" y2="852.021" style="stroke:#000000; stroke-width:3.2; stroke-opacity:1"/>
<line clip-path="url(#clip502)" x1="1924.26" y1="840.021" x2="1936.26" y2="828.021" style="stroke:#000000; stroke-width:3.2; stroke-opacity:1"/>
<line clip-path="url(#clip502)" x1="2028.77" y1="671.075" x2="2016.77" y2="659.075" style="stroke:#000000; stroke-width:3.2; stroke-opacity:1"/>
<line clip-path="url(#clip502)" x1="2028.77" y1="671.075" x2="2016.77" y2="683.075" style="stroke:#000000; stroke-width:3.2; stroke-opacity:1"/>
<line clip-path="url(#clip502)" x1="2028.77" y1="671.075" x2="2040.77" y2="683.075" style="stroke:#000000; stroke-width:3.2; stroke-opacity:1"/>
<line clip-path="url(#clip502)" x1="2028.77" y1="671.075" x2="2040.77" y2="659.075" style="stroke:#000000; stroke-width:3.2; stroke-opacity:1"/>
<line clip-path="url(#clip502)" x1="2133.28" y1="815.532" x2="2121.28" y2="803.532" style="stroke:#000000; stroke-width:3.2; stroke-opacity:1"/>
<line clip-path="url(#clip502)" x1="2133.28" y1="815.532" x2="2121.28" y2="827.532" style="stroke:#000000; stroke-width:3.2; stroke-opacity:1"/>
<line clip-path="url(#clip502)" x1="2133.28" y1="815.532" x2="2145.28" y2="827.532" style="stroke:#000000; stroke-width:3.2; stroke-opacity:1"/>
<line clip-path="url(#clip502)" x1="2133.28" y1="815.532" x2="2145.28" y2="803.532" style="stroke:#000000; stroke-width:3.2; stroke-opacity:1"/>
<line clip-path="url(#clip502)" x1="2237.79" y1="1180.54" x2="2225.79" y2="1168.54" style="stroke:#000000; stroke-width:3.2; stroke-opacity:1"/>
<line clip-path="url(#clip502)" x1="2237.79" y1="1180.54" x2="2225.79" y2="1192.54" style="stroke:#000000; stroke-width:3.2; stroke-opacity:1"/>
<line clip-path="url(#clip502)" x1="2237.79" y1="1180.54" x2="2249.79" y2="1192.54" style="stroke:#000000; stroke-width:3.2; stroke-opacity:1"/>
<line clip-path="url(#clip502)" x1="2237.79" y1="1180.54" x2="2249.79" y2="1168.54" style="stroke:#000000; stroke-width:3.2; stroke-opacity:1"/>
<polyline clip-path="url(#clip502)" style="stroke:#000000; stroke-linecap:round; stroke-linejoin:round; stroke-width:4; stroke-opacity:1; fill:none" stroke-dasharray="16, 10" points="262.551,1384.24 273.002,1368.35 283.453,1352.53 293.904,1336.77 304.355,1321.08 314.806,1305.45 325.257,1289.88 335.708,1274.38 346.159,1258.94 356.61,1243.56 367.061,1228.25 377.512,1213 387.964,1197.82 398.415,1182.7 408.866,1167.64 419.317,1152.64 429.768,1137.71 440.219,1122.85 450.67,1108.04 461.121,1093.3 471.572,1078.63 482.023,1064.02 492.474,1049.47 502.925,1034.98 513.376,1020.56 523.827,1006.21 534.278,991.912 544.729,977.682 555.18,963.516 565.631,949.413 576.082,935.374 586.533,921.399 596.984,907.488 607.435,893.64 617.886,879.855 628.337,866.135 638.788,852.478 649.239,838.885 659.69,825.355 670.141,811.889 680.592,798.487 691.043,785.148 701.494,771.873 711.945,758.662 722.396,745.515 732.847,732.431 743.298,719.41 753.749,706.454 764.2,693.561 774.651,680.732 785.102,667.966 795.553,655.264 806.004,642.626 816.455,630.051 826.906,617.541 837.358,605.093 847.809,592.71 858.26,580.39 868.711,568.134 879.162,555.941 889.613,543.812 900.064,531.747 910.515,519.746 920.966,507.808 931.417,495.933 941.868,484.123 952.319,472.376 962.77,460.693 973.221,449.073 983.672,437.518 994.123,426.025 1004.57,414.597 1015.02,403.232 1025.48,391.931 1035.93,380.693 1046.38,369.519 1056.83,358.409 1067.28,347.363 1077.73,336.38 1088.18,325.461 1098.63,314.605 1109.08,303.813 1119.54,293.085 1129.99,282.421 1140.44,271.82 1150.89,261.283 1161.34,250.809 1171.79,240.399 1182.24,230.053 1192.69,219.771 1203.14,209.552 1213.59,199.397 1224.05,189.305 1234.5,179.278 1244.95,169.313 1255.4,159.413 1265.85,149.576 1276.3,139.803 1286.75,130.094 1297.2,107.778 1307.65,110.866 1318.1,114.145 1328.56,117.614 1339.01,121.275 1349.46,125.127 1359.91,129.17 1370.36,133.404 1380.81,137.829 1391.26,142.445 1401.71,147.252 1412.16,152.25 1422.61,157.439 1433.07,162.819 1443.52,168.39 1453.97,174.152 1464.42,180.105 1474.87,186.249 1485.32,192.584 1495.77,199.11 1506.22,205.827 1516.67,212.735 1527.13,219.834 1537.58,227.125 1548.03,234.606 1558.48,242.278 1568.93,250.141 1579.38,258.195 1589.83,266.44 1600.28,274.876 1610.73,283.503 1621.18,292.321 1631.64,301.33 1642.09,310.53 1652.54,319.922 1662.99,329.504 1673.44,339.277 1683.89,349.241 1694.34,359.396 1704.79,369.742 1715.24,380.279 1725.69,391.008 1736.15,401.927 1746.6,413.037 1757.05,424.338 1767.5,435.83 1777.95,447.513 1788.4,459.388 1798.85,471.453 1809.3,483.709 1819.75,496.156 1830.2,508.795 1840.66,521.624 1851.11,534.644 1861.56,547.855 1872.01,561.258 1882.46,574.851 1892.91,588.635 1903.36,602.61 1913.81,616.777 1924.26,631.134 1934.71,645.682 1945.17,660.421 1955.62,675.352 1966.07,690.473 1976.52,705.785 1986.97,721.289 1997.42,736.983 2007.87,752.868 2018.32,768.945 2028.77,785.212 2039.23,801.67 2049.68,818.32 2060.13,835.16 2070.58,852.191 2081.03,869.414 2091.48,886.827 2101.93,904.431 2112.38,922.227 2122.83,940.213 2133.28,958.391 2143.74,976.759 2154.19,995.318 2164.64,1014.07 2175.09,1033.01 2185.54,1052.14 2195.99,1071.47 2206.44,1090.98 2216.89,1110.69 2227.34,1130.58 2237.79,1150.67 2248.25,1170.95 2258.7,1191.42 2269.15,1212.08 2279.6,1232.93 2290.05,1253.97 2300.5,1275.21 2310.95,1296.63 2321.4,1318.25 2331.85,1340.05 2342.3,1362.05 2352.76,1384.24 "/>
</svg>
