<?xml version="1.0" encoding="utf-8"?>
<svg xmlns="http://www.w3.org/2000/svg" xmlns:xlink="http://www.w3.org/1999/xlink" width="600" height="400" viewBox="0 0 2400 1600">
<defs>
  <clipPath id="clip180">
    <rect x="0" y="0" width="2400" height="1600"/>
  </clipPath>
</defs>
<path clip-path="url(#clip180)" d="M0 1600 L2400 1600 L2400 8.88178e-14 L0 8.88178e-14  Z" fill="#ffffff" fill-rule="evenodd" fill-opacity="1"/>
<defs>
  <clipPath id="clip181">
    <rect x="480" y="0" width="1681" height="1600"/>
  </clipPath>
</defs>
<path clip-path="url(#clip180)" d="M232.826 1410.22 L2352.76 1410.22 L2352.76 47.2441 L232.826 47.2441  Z" fill="#ffffff" fill-rule="evenodd" fill-opacity="1"/>
<defs>
  <clipPath id="clip182">
    <rect x="232" y="47" width="2121" height="1364"/>
  </clipPath>
</defs>
<polyline clip-path="url(#clip182)" style="stroke:#000000; stroke-linecap:round; stroke-linejoin:round; stroke-width:2; stroke-opacity:0.1; fill:none" points="447.514,1410.22 447.514,47.2441 "/>
<polyline clip-path="url(#clip182)" style="stroke:#000000; stroke-linecap:round; stroke-linejoin:round; stroke-width:2; stroke-opacity:0.1; fill:none" points="958.742,1410.22 958.742,47.2441 "/>
<polyline clip-path="url(#clip182)" style="stroke:#000000; stroke-linecap:round; stroke-linejoin:round; stroke-width:2; stroke-opacity:0.1; fill:none" points="1469.97,1410.22 1469.97,47.2441 "/>
<polyline clip-path="url(#clip182)" style="stroke:#000000; stroke-linecap:round; stroke-linejoin:round; stroke-width:2; stroke-opacity:0.1; fill:none" points="1981.2,1410.22 1981.2,47.2441 "/>
<polyline clip-path="url(#clip182)" style="stroke:#000000; stroke-linecap:round; stroke-linejoin:round; stroke-width:2; stroke-opacity:0.1; fill:none" points="232.826,1241.5 2352.76,1241.5 "/>
<polyline clip-path="url(#clip182)" style="stroke:#000000; stroke-linecap:round; stroke-linejoin:round; stroke-width:2; stroke-opacity:0.1; fill:none" points="232.826,952.579 2352.76,952.579 "/>
<polyline clip-path="url(#clip182)" style="stroke:#000000; stroke-linecap:round; stroke-linejoin:round; stroke-width:2; stroke-opacity:0.1; fill:none" points="232.826,663.659 2352.76,663.659 "/>
<polyline clip-path="url(#clip182)" style="stroke:#000000; stroke-linecap:round; stroke-linejoin:round; stroke-width:2; stroke-opacity:0.1; fill:none" points="232.826,374.739 2352.76,374.739 "/>
<polyline clip-path="url(#clip182)" style="stroke:#000000; stroke-linecap:round; stroke-linejoin:round; stroke-width:2; stroke-opacity:0.1; fill:none" points="232.826,85.8189 2352.76,85.8189 "/>
<polyline clip-path="url(#clip180)" style="stroke:#000000; stroke-linecap:round; stroke-linejoin:round; stroke-width:4; stroke-opacity:1; fill:none" points="232.826,1410.22 2352.76,1410.22 "/>
<polyline clip-path="url(#clip180)" style="stroke:#000000; stroke-linecap:round; stroke-linejoin:round; stroke-width:4; stroke-opacity:1; fill:none" points="447.514,1410.22 447.514,1391.32 "/>
<polyline clip-path="url(#clip180)" style="stroke:#000000; stroke-linecap:round; stroke-linejoin:round; stroke-width:4; stroke-opacity:1; fill:none" points="958.742,1410.22 958.742,1391.32 "/>
<polyline clip-path="url(#clip180)" style="stroke:#000000; stroke-linecap:round; stroke-linejoin:round; stroke-width:4; stroke-opacity:1; fill:none" points="1469.97,1410.22 1469.97,1391.32 "/>
<polyline clip-path="url(#clip180)" style="stroke:#000000; stroke-linecap:round; stroke-linejoin:round; stroke-width:4; stroke-opacity:1; fill:none" points="1981.2,1410.22 1981.2,1391.32 "/>
<path clip-path="url(#clip180)" d="M417.456 1455.79 L447.132 1455.79 L447.132 1459.73 L417.456 1459.73 L417.456 1455.79 Z" fill="#000000" fill-rule="nonzero" fill-opacity="1" /><path clip-path="url(#clip180)" d="M461.252 1468.68 L477.572 1468.68 L477.572 1472.62 L455.627 1472.62 L455.627 1468.68 Q458.289 1465.93 462.873 1461.3 Q467.479 1456.65 468.66 1455.31 Q470.905 1452.78 471.785 1451.05 Q472.688 1449.29 472.688 1447.6 Q472.688 1444.84 470.743 1443.11 Q468.822 1441.37 465.72 1441.37 Q463.521 1441.37 461.067 1442.13 Q458.637 1442.9 455.859 1444.45 L455.859 1439.73 Q458.683 1438.59 461.137 1438.01 Q463.59 1437.43 465.627 1437.43 Q470.998 1437.43 474.192 1440.12 Q477.387 1442.81 477.387 1447.3 Q477.387 1449.43 476.576 1451.35 Q475.789 1453.24 473.683 1455.84 Q473.104 1456.51 470.002 1459.73 Q466.901 1462.92 461.252 1468.68 Z" fill="#000000" fill-rule="nonzero" fill-opacity="1" /><path clip-path="url(#clip180)" d="M928.499 1455.79 L958.174 1455.79 L958.174 1459.73 L928.499 1459.73 L928.499 1455.79 Z" fill="#000000" fill-rule="nonzero" fill-opacity="1" /><path clip-path="url(#clip180)" d="M969.077 1468.68 L976.716 1468.68 L976.716 1442.32 L968.406 1443.99 L968.406 1439.73 L976.67 1438.06 L981.346 1438.06 L981.346 1468.68 L988.984 1468.68 L988.984 1472.62 L969.077 1472.62 L969.077 1468.68 Z" fill="#000000" fill-rule="nonzero" fill-opacity="1" /><path clip-path="url(#clip180)" d="M1469.97 1441.14 Q1466.36 1441.14 1464.53 1444.7 Q1462.72 1448.24 1462.72 1455.37 Q1462.72 1462.48 1464.53 1466.05 Q1466.36 1469.59 1469.97 1469.59 Q1473.6 1469.59 1475.41 1466.05 Q1477.24 1462.48 1477.24 1455.37 Q1477.24 1448.24 1475.41 1444.7 Q1473.6 1441.14 1469.97 1441.14 M1469.97 1437.43 Q1475.78 1437.43 1478.83 1442.04 Q1481.91 1446.62 1481.91 1455.37 Q1481.91 1464.1 1478.83 1468.71 Q1475.78 1473.29 1469.97 1473.29 Q1464.16 1473.29 1461.08 1468.71 Q1458.02 1464.1 1458.02 1455.37 Q1458.02 1446.62 1461.08 1442.04 Q1464.16 1437.43 1469.97 1437.43 Z" fill="#000000" fill-rule="nonzero" fill-opacity="1" /><path clip-path="url(#clip180)" d="M1971.58 1468.68 L1979.22 1468.68 L1979.22 1442.32 L1970.91 1443.99 L1970.91 1439.73 L1979.17 1438.06 L1983.85 1438.06 L1983.85 1468.68 L1991.49 1468.68 L1991.49 1472.62 L1971.58 1472.62 L1971.58 1468.68 Z" fill="#000000" fill-rule="nonzero" fill-opacity="1" /><path clip-path="url(#clip180)" d="M1196.47 1551.56 L1196.47 1548.98 Q1200.94 1548.98 1201.96 1548.45 Q1202.99 1547.87 1202.99 1545.17 L1202.99 1501.51 Q1202.99 1498.4 1201.88 1497.62 Q1200.81 1496.84 1196.47 1496.84 L1196.47 1494.22 L1208.52 1493.32 L1208.52 1545.17 Q1208.52 1547.87 1209.58 1548.45 Q1210.65 1548.98 1215.08 1548.98 L1215.08 1551.56 Q1214.05 1551.56 1211.92 1551.48 Q1209.79 1551.4 1208.23 1551.36 Q1206.67 1551.32 1205.77 1551.32 Q1204.79 1551.32 1196.47 1551.56 Z" fill="#000000" fill-rule="nonzero" fill-opacity="1" /><path clip-path="url(#clip180)" d="M1220.16 1551.56 L1220.16 1548.98 Q1224.63 1548.98 1225.65 1548.45 Q1226.68 1547.87 1226.68 1545.17 L1226.68 1522.67 Q1226.68 1519.55 1225.57 1518.77 Q1224.5 1517.99 1220.16 1517.99 L1220.16 1515.37 L1231.96 1514.47 L1231.96 1523.28 Q1235.9 1514.47 1244.38 1514.47 Q1250.7 1514.47 1253.2 1517.58 Q1255.04 1519.67 1255.41 1522.01 Q1255.82 1524.35 1255.82 1530.41 L1255.82 1546.44 Q1255.9 1548.2 1257.25 1548.61 Q1258.61 1548.98 1262.38 1548.98 L1262.38 1551.56 Q1253.81 1551.32 1252.95 1551.32 Q1252.29 1551.32 1243.48 1551.56 L1243.48 1548.98 Q1247.95 1548.98 1248.97 1548.45 Q1250.04 1547.87 1250.04 1545.17 L1250.04 1525.62 Q1250.04 1521.35 1248.73 1518.85 Q1247.42 1516.31 1243.81 1516.31 Q1239.46 1516.31 1235.98 1519.96 Q1232.5 1523.61 1232.5 1529.76 L1232.5 1545.17 Q1232.5 1547.87 1233.52 1548.45 Q1234.59 1548.98 1239.01 1548.98 L1239.01 1551.56 Q1230.45 1551.32 1229.63 1551.32 Q1228.97 1551.32 1220.16 1551.56 Z" fill="#000000" fill-rule="nonzero" fill-opacity="1" /><path clip-path="url(#clip180)" d="M1362.59 1515.45 Q1362.59 1522.21 1359.68 1528.85 Q1356.81 1535.45 1352.13 1540.45 Q1347.5 1545.41 1341.23 1548.49 Q1334.96 1551.56 1328.57 1551.56 L1300.77 1551.56 Q1299.79 1551.56 1299.38 1551.52 Q1299.01 1551.48 1298.73 1551.28 Q1298.44 1551.03 1298.44 1550.54 Q1298.44 1549.76 1298.77 1549.43 Q1299.09 1549.06 1299.46 1549.02 Q1299.83 1548.98 1300.77 1548.98 Q1302.82 1548.98 1304.05 1548.86 Q1305.28 1548.73 1306.06 1548.57 Q1306.88 1548.37 1307.29 1547.79 Q1307.74 1547.22 1307.95 1546.73 Q1308.15 1546.19 1308.44 1545 L1319.67 1499.92 Q1320 1498.56 1320 1498.36 Q1320 1497.66 1319.59 1497.42 Q1319.22 1497.13 1318.15 1497.01 Q1316.1 1496.84 1314.55 1496.84 Q1313.52 1496.84 1313.11 1496.8 Q1312.74 1496.76 1312.42 1496.56 Q1312.13 1496.31 1312.13 1495.82 Q1312.13 1495.04 1312.46 1494.71 Q1312.83 1494.34 1313.24 1494.3 Q1313.65 1494.22 1314.63 1494.22 L1342.83 1494.22 Q1348.94 1494.22 1353.49 1497.09 Q1358.04 1499.92 1360.29 1504.71 Q1362.59 1509.47 1362.59 1515.45 M1355.25 1512.38 Q1355.25 1504.55 1350.99 1500.7 Q1346.76 1496.84 1340.08 1496.84 L1331.11 1496.84 Q1328.44 1496.84 1327.79 1497.33 Q1327.13 1497.78 1326.56 1500.04 L1315.04 1546.11 Q1314.63 1547.63 1314.63 1548.04 Q1314.63 1548.49 1314.83 1548.65 Q1315.08 1548.78 1315.74 1548.86 Q1316.47 1548.98 1317.58 1548.98 L1327.05 1548.98 Q1330.7 1548.98 1334.02 1548 Q1337.38 1546.97 1339.8 1545.37 Q1342.21 1543.73 1343.77 1542.34 Q1345.33 1540.91 1346.44 1539.47 Q1348.94 1536.23 1350.78 1532.01 Q1352.67 1527.79 1353.53 1523.94 Q1354.43 1520.04 1354.84 1517.17 Q1355.25 1514.26 1355.25 1512.38 Z" fill="#000000" fill-rule="nonzero" fill-opacity="1" /><path clip-path="url(#clip180)" d="M1370.93 1541.28 L1370.93 1539.44 Q1377.99 1539.44 1381.63 1535.68 Q1382.64 1535.68 1382.81 1535.91 Q1382.98 1536.14 1382.98 1537.2 L1382.98 1570.17 Q1382.98 1571.92 1383.84 1572.47 Q1384.7 1573.01 1388.46 1573.01 L1390.33 1573.01 L1390.33 1574.82 Q1388.26 1574.65 1380.8 1574.65 Q1373.34 1574.65 1371.3 1574.82 L1371.3 1573.01 L1373.17 1573.01 Q1376.87 1573.01 1377.76 1572.5 Q1378.65 1571.95 1378.65 1570.17 L1378.65 1539.73 Q1375.58 1541.28 1370.93 1541.28 Z" fill="#000000" fill-rule="nonzero" fill-opacity="1" /><polyline clip-path="url(#clip180)" style="stroke:#000000; stroke-linecap:round; stroke-linejoin:round; stroke-width:4; stroke-opacity:1; fill:none" points="232.826,1410.22 232.826,47.2441 "/>
<polyline clip-path="url(#clip180)" style="stroke:#000000; stroke-linecap:round; stroke-linejoin:round; stroke-width:4; stroke-opacity:1; fill:none" points="232.826,1241.5 251.724,1241.5 "/>
<polyline clip-path="url(#clip180)" style="stroke:#000000; stroke-linecap:round; stroke-linejoin:round; stroke-width:4; stroke-opacity:1; fill:none" points="232.826,952.579 251.724,952.579 "/>
<polyline clip-path="url(#clip180)" style="stroke:#000000; stroke-linecap:round; stroke-linejoin:round; stroke-width:4; stroke-opacity:1; fill:none" points="232.826,663.659 251.724,663.659 "/>
<polyline clip-path="url(#clip180)" style="stroke:#000000; stroke-linecap:round; stroke-linejoin:round; stroke-width:4; stroke-opacity:1; fill:none" points="232.826,374.739 251.724,374.739 "/>
<polyline clip-path="url(#clip180)" style="stroke:#000000; stroke-linecap:round; stroke-linejoin:round; stroke-width:4; stroke-opacity:1; fill:none" points="232.826,85.8189 251.724,85.8189 "/>
<path clip-path="url(#clip180)" d="M141.248 1227.3 Q137.637 1227.3 135.808 1230.86 Q134.003 1234.4 134.003 1241.53 Q134.003 1248.64 135.808 1252.21 Q137.637 1255.75 141.248 1255.75 Q144.882 1255.75 146.688 1252.21 Q148.516 1248.64 148.516 1241.53 Q148.516 1234.4 146.688 1230.86 Q144.882 1227.3 141.248 1227.3 M141.248 1223.59 Q147.058 1223.59 150.114 1228.2 Q153.192 1232.78 153.192 1241.53 Q153.192 1250.26 150.114 1254.87 Q147.058 1259.45 141.248 1259.45 Q135.438 1259.45 132.359 1254.87 Q129.303 1250.26 129.303 1241.53 Q129.303 1232.78 132.359 1228.2 Q135.438 1223.59 141.248 1223.59 Z" fill="#000000" fill-rule="nonzero" fill-opacity="1" /><path clip-path="url(#clip180)" d="M161.41 1252.9 L166.294 1252.9 L166.294 1258.78 L161.41 1258.78 L161.41 1252.9 Z" fill="#000000" fill-rule="nonzero" fill-opacity="1" /><path clip-path="url(#clip180)" d="M180.507 1254.84 L196.826 1254.84 L196.826 1258.78 L174.882 1258.78 L174.882 1254.84 Q177.544 1252.09 182.127 1247.46 Q186.734 1242.81 187.914 1241.46 Q190.16 1238.94 191.039 1237.21 Q191.942 1235.45 191.942 1233.76 Q191.942 1231 189.998 1229.27 Q188.076 1227.53 184.974 1227.53 Q182.775 1227.53 180.322 1228.29 Q177.891 1229.06 175.113 1230.61 L175.113 1225.89 Q177.937 1224.75 180.391 1224.17 Q182.845 1223.59 184.882 1223.59 Q190.252 1223.59 193.447 1226.28 Q196.641 1228.97 196.641 1233.46 Q196.641 1235.59 195.831 1237.51 Q195.044 1239.4 192.937 1242 Q192.359 1242.67 189.257 1245.89 Q186.155 1249.08 180.507 1254.84 Z" fill="#000000" fill-rule="nonzero" fill-opacity="1" /><path clip-path="url(#clip180)" d="M139.165 938.378 Q135.553 938.378 133.725 941.943 Q131.919 945.485 131.919 952.614 Q131.919 959.721 133.725 963.285 Q135.553 966.827 139.165 966.827 Q142.799 966.827 144.604 963.285 Q146.433 959.721 146.433 952.614 Q146.433 945.485 144.604 941.943 Q142.799 938.378 139.165 938.378 M139.165 934.674 Q144.975 934.674 148.03 939.281 Q151.109 943.864 151.109 952.614 Q151.109 961.341 148.03 965.947 Q144.975 970.531 139.165 970.531 Q133.354 970.531 130.276 965.947 Q127.22 961.341 127.22 952.614 Q127.22 943.864 130.276 939.281 Q133.354 934.674 139.165 934.674 Z" fill="#000000" fill-rule="nonzero" fill-opacity="1" /><path clip-path="url(#clip180)" d="M159.326 963.98 L164.211 963.98 L164.211 969.859 L159.326 969.859 L159.326 963.98 Z" fill="#000000" fill-rule="nonzero" fill-opacity="1" /><path clip-path="url(#clip180)" d="M187.243 939.374 L175.437 957.823 L187.243 957.823 L187.243 939.374 M186.016 935.299 L191.896 935.299 L191.896 957.823 L196.826 957.823 L196.826 961.711 L191.896 961.711 L191.896 969.859 L187.243 969.859 L187.243 961.711 L171.641 961.711 L171.641 957.198 L186.016 935.299 Z" fill="#000000" fill-rule="nonzero" fill-opacity="1" /><path clip-path="url(#clip180)" d="M139.489 649.458 Q135.878 649.458 134.049 653.023 Q132.243 656.564 132.243 663.694 Q132.243 670.8 134.049 674.365 Q135.878 677.907 139.489 677.907 Q143.123 677.907 144.928 674.365 Q146.757 670.8 146.757 663.694 Q146.757 656.564 144.928 653.023 Q143.123 649.458 139.489 649.458 M139.489 645.754 Q145.299 645.754 148.354 650.361 Q151.433 654.944 151.433 663.694 Q151.433 672.421 148.354 677.027 Q145.299 681.611 139.489 681.611 Q133.678 681.611 130.6 677.027 Q127.544 672.421 127.544 663.694 Q127.544 654.944 130.6 650.361 Q133.678 645.754 139.489 645.754 Z" fill="#000000" fill-rule="nonzero" fill-opacity="1" /><path clip-path="url(#clip180)" d="M159.651 675.06 L164.535 675.06 L164.535 680.939 L159.651 680.939 L159.651 675.06 Z" fill="#000000" fill-rule="nonzero" fill-opacity="1" /><path clip-path="url(#clip180)" d="M185.299 661.796 Q182.15 661.796 180.299 663.949 Q178.47 666.101 178.47 669.851 Q178.47 673.578 180.299 675.754 Q182.15 677.907 185.299 677.907 Q188.447 677.907 190.275 675.754 Q192.127 673.578 192.127 669.851 Q192.127 666.101 190.275 663.949 Q188.447 661.796 185.299 661.796 M194.581 647.143 L194.581 651.402 Q192.822 650.569 191.016 650.129 Q189.234 649.689 187.474 649.689 Q182.845 649.689 180.391 652.814 Q177.961 655.939 177.613 662.259 Q178.979 660.245 181.039 659.18 Q183.099 658.092 185.576 658.092 Q190.785 658.092 193.794 661.263 Q196.826 664.412 196.826 669.851 Q196.826 675.175 193.678 678.393 Q190.53 681.611 185.299 681.611 Q179.303 681.611 176.132 677.027 Q172.961 672.421 172.961 663.694 Q172.961 655.5 176.85 650.639 Q180.738 645.754 187.289 645.754 Q189.049 645.754 190.831 646.102 Q192.636 646.449 194.581 647.143 Z" fill="#000000" fill-rule="nonzero" fill-opacity="1" /><path clip-path="url(#clip180)" d="M139.743 360.538 Q136.132 360.538 134.303 364.103 Q132.498 367.644 132.498 374.774 Q132.498 381.88 134.303 385.445 Q136.132 388.987 139.743 388.987 Q143.377 388.987 145.183 385.445 Q147.012 381.88 147.012 374.774 Q147.012 367.644 145.183 364.103 Q143.377 360.538 139.743 360.538 M139.743 356.834 Q145.553 356.834 148.609 361.441 Q151.688 366.024 151.688 374.774 Q151.688 383.501 148.609 388.107 Q145.553 392.69 139.743 392.69 Q133.933 392.69 130.854 388.107 Q127.799 383.501 127.799 374.774 Q127.799 366.024 130.854 361.441 Q133.933 356.834 139.743 356.834 Z" fill="#000000" fill-rule="nonzero" fill-opacity="1" /><path clip-path="url(#clip180)" d="M159.905 386.139 L164.789 386.139 L164.789 392.019 L159.905 392.019 L159.905 386.139 Z" fill="#000000" fill-rule="nonzero" fill-opacity="1" /><path clip-path="url(#clip180)" d="M184.974 375.607 Q181.641 375.607 179.72 377.39 Q177.822 379.172 177.822 382.297 Q177.822 385.422 179.72 387.204 Q181.641 388.987 184.974 388.987 Q188.308 388.987 190.229 387.204 Q192.15 385.399 192.15 382.297 Q192.15 379.172 190.229 377.39 Q188.331 375.607 184.974 375.607 M180.299 373.616 Q177.289 372.876 175.6 370.815 Q173.933 368.755 173.933 365.792 Q173.933 361.649 176.873 359.241 Q179.836 356.834 184.974 356.834 Q190.136 356.834 193.076 359.241 Q196.016 361.649 196.016 365.792 Q196.016 368.755 194.326 370.815 Q192.66 372.876 189.674 373.616 Q193.053 374.403 194.928 376.695 Q196.826 378.987 196.826 382.297 Q196.826 387.32 193.748 390.005 Q190.692 392.69 184.974 392.69 Q179.257 392.69 176.178 390.005 Q173.123 387.32 173.123 382.297 Q173.123 378.987 175.021 376.695 Q176.919 374.403 180.299 373.616 M178.586 366.232 Q178.586 368.917 180.252 370.422 Q181.942 371.927 184.974 371.927 Q187.984 371.927 189.674 370.422 Q191.386 368.917 191.386 366.232 Q191.386 363.547 189.674 362.042 Q187.984 360.538 184.974 360.538 Q181.942 360.538 180.252 362.042 Q178.586 363.547 178.586 366.232 Z" fill="#000000" fill-rule="nonzero" fill-opacity="1" /><path clip-path="url(#clip180)" d="M130.461 99.1637 L138.1 99.1637 L138.1 72.7981 L129.79 74.4648 L129.79 70.2055 L138.053 68.5389 L142.729 68.5389 L142.729 99.1637 L150.368 99.1637 L150.368 103.099 L130.461 103.099 L130.461 99.1637 Z" fill="#000000" fill-rule="nonzero" fill-opacity="1" /><path clip-path="url(#clip180)" d="M159.813 97.2193 L164.697 97.2193 L164.697 103.099 L159.813 103.099 L159.813 97.2193 Z" fill="#000000" fill-rule="nonzero" fill-opacity="1" /><path clip-path="url(#clip180)" d="M184.882 71.6176 Q181.271 71.6176 179.442 75.1824 Q177.637 78.724 177.637 85.8536 Q177.637 92.96 179.442 96.5248 Q181.271 100.066 184.882 100.066 Q188.516 100.066 190.322 96.5248 Q192.15 92.96 192.15 85.8536 Q192.15 78.724 190.322 75.1824 Q188.516 71.6176 184.882 71.6176 M184.882 67.9139 Q190.692 67.9139 193.748 72.5203 Q196.826 77.1036 196.826 85.8536 Q196.826 94.5804 193.748 99.1869 Q190.692 103.77 184.882 103.77 Q179.072 103.77 175.993 99.1869 Q172.938 94.5804 172.938 85.8536 Q172.938 77.1036 175.993 72.5203 Q179.072 67.9139 184.882 67.9139 Z" fill="#000000" fill-rule="nonzero" fill-opacity="1" /><path clip-path="url(#clip180)" d="M65.3416 1248.94 L89.404 1248.94 L89.404 1256.43 L26.777 1256.43 L26.777 1248.94 L33.6636 1248.94 Q29.6127 1246.59 27.6682 1243.02 Q25.6833 1239.42 25.6833 1234.44 Q25.6833 1226.17 32.2458 1221.03 Q38.8082 1215.84 49.5026 1215.84 Q60.197 1215.84 66.7595 1221.03 Q73.3219 1226.17 73.3219 1234.44 Q73.3219 1239.42 71.3775 1243.02 Q69.3925 1246.59 65.3416 1248.94 M49.5026 1223.58 Q41.2793 1223.58 36.6207 1226.98 Q31.9217 1230.34 31.9217 1236.26 Q31.9217 1242.17 36.6207 1245.58 Q41.2793 1248.94 49.5026 1248.94 Q57.7259 1248.94 62.425 1245.58 Q67.0835 1242.17 67.0835 1236.26 Q67.0835 1230.34 62.425 1226.98 Q57.7259 1223.58 49.5026 1223.58 Z" fill="#000000" fill-rule="nonzero" fill-opacity="1" /><path clip-path="url(#clip180)" d="M33.7446 1177.2 Q33.0154 1178.45 32.6914 1179.95 Q32.3268 1181.41 32.3268 1183.19 Q32.3268 1189.51 36.4587 1192.91 Q40.5501 1196.28 48.2468 1196.28 L72.1472 1196.28 L72.1472 1203.77 L26.777 1203.77 L26.777 1196.28 L33.8256 1196.28 Q29.6937 1193.93 27.7087 1190.16 Q25.6833 1186.39 25.6833 1181 Q25.6833 1180.23 25.8048 1179.3 Q25.8858 1178.37 26.0884 1177.24 L33.7446 1177.2 Z" fill="#000000" fill-rule="nonzero" fill-opacity="1" /><path clip-path="url(#clip180)" d="M32.0027 1153.62 Q32.0027 1159.62 36.7017 1163.1 Q41.3603 1166.58 49.5026 1166.58 Q57.6449 1166.58 62.344 1163.14 Q67.0025 1159.66 67.0025 1153.62 Q67.0025 1147.67 62.3035 1144.18 Q57.6044 1140.7 49.5026 1140.7 Q41.4413 1140.7 36.7423 1144.18 Q32.0027 1147.67 32.0027 1153.62 M25.6833 1153.62 Q25.6833 1143.9 32.0027 1138.35 Q38.3221 1132.8 49.5026 1132.8 Q60.6426 1132.8 67.0025 1138.35 Q73.3219 1143.9 73.3219 1153.62 Q73.3219 1163.38 67.0025 1168.93 Q60.6426 1174.44 49.5026 1174.44 Q38.3221 1174.44 32.0027 1168.93 Q25.6833 1163.38 25.6833 1153.62 Z" fill="#000000" fill-rule="nonzero" fill-opacity="1" /><path clip-path="url(#clip180)" d="M9.11509 1097.47 L15.313 1097.47 L15.313 1104.6 Q15.313 1108.61 16.9333 1110.19 Q18.5537 1111.73 22.7666 1111.73 L26.777 1111.73 L26.777 1099.46 L32.5698 1099.46 L32.5698 1111.73 L72.1472 1111.73 L72.1472 1119.23 L32.5698 1119.23 L32.5698 1126.36 L26.777 1126.36 L26.777 1119.23 L23.6173 1119.23 Q16.0421 1119.23 12.5989 1115.7 Q9.11509 1112.18 9.11509 1104.52 L9.11509 1097.47 Z" fill="#000000" fill-rule="nonzero" fill-opacity="1" /><path clip-path="url(#clip180)" d="M26.777 1091.24 L26.777 1083.78 L72.1472 1083.78 L72.1472 1091.24 L26.777 1091.24 M9.11509 1091.24 L9.11509 1083.78 L18.5537 1083.78 L18.5537 1091.24 L9.11509 1091.24 Z" fill="#000000" fill-rule="nonzero" fill-opacity="1" /><path clip-path="url(#clip180)" d="M9.11509 1068.19 L9.11509 1060.73 L72.1472 1060.73 L72.1472 1068.19 L9.11509 1068.19 Z" fill="#000000" fill-rule="nonzero" fill-opacity="1" /><path clip-path="url(#clip180)" d="M47.5987 1006.33 L51.2445 1006.33 L51.2445 1040.6 Q58.9412 1040.11 62.9921 1035.98 Q67.0025 1031.81 67.0025 1024.4 Q67.0025 1020.1 65.9493 1016.09 Q64.896 1012.04 62.7896 1008.07 L69.8381 1008.07 Q71.5395 1012.08 72.4307 1016.29 Q73.3219 1020.51 73.3219 1024.84 Q73.3219 1035.7 67.0025 1042.06 Q60.6831 1048.38 49.9077 1048.38 Q38.7677 1048.38 32.2458 1042.38 Q25.6833 1036.35 25.6833 1026.14 Q25.6833 1016.98 31.5976 1011.68 Q37.4714 1006.33 47.5987 1006.33 M45.4112 1013.78 Q39.2943 1013.86 35.6485 1017.23 Q32.0027 1020.55 32.0027 1026.06 Q32.0027 1032.3 35.527 1036.06 Q39.0513 1039.79 45.4517 1040.36 L45.4112 1013.78 Z" fill="#000000" fill-rule="nonzero" fill-opacity="1" /><path clip-path="url(#clip180)" d="M9.11509 967.724 L9.11509 960.27 L72.1472 960.27 L72.1472 967.724 L9.11509 967.724 Z" fill="#000000" fill-rule="nonzero" fill-opacity="1" /><path clip-path="url(#clip180)" d="M26.777 944.674 L26.777 937.221 L72.1472 937.221 L72.1472 944.674 L26.777 944.674 M9.11509 944.674 L9.11509 937.221 L18.5537 937.221 L18.5537 944.674 L9.11509 944.674 Z" fill="#000000" fill-rule="nonzero" fill-opacity="1" /><path clip-path="url(#clip180)" d="M9.11509 921.908 L9.11509 914.414 L46.3429 914.414 L26.777 892.174 L26.777 882.655 L48.0038 906.717 L72.1472 881.642 L72.1472 891.364 L49.9887 914.414 L72.1472 914.414 L72.1472 921.908 L9.11509 921.908 Z" fill="#000000" fill-rule="nonzero" fill-opacity="1" /><path clip-path="url(#clip180)" d="M47.5987 837.73 L51.2445 837.73 L51.2445 872.001 Q58.9412 871.515 62.9921 867.383 Q67.0025 863.211 67.0025 855.797 Q67.0025 851.503 65.9493 847.493 Q64.896 843.442 62.7896 839.472 L69.8381 839.472 Q71.5395 843.483 72.4307 847.696 Q73.3219 851.908 73.3219 856.243 Q73.3219 867.099 67.0025 873.459 Q60.6831 879.779 49.9077 879.779 Q38.7677 879.779 32.2458 873.783 Q25.6833 867.748 25.6833 857.539 Q25.6833 848.384 31.5976 843.078 Q37.4714 837.73 47.5987 837.73 M45.4112 845.184 Q39.2943 845.265 35.6485 848.627 Q32.0027 851.949 32.0027 857.458 Q32.0027 863.697 35.527 867.464 Q39.0513 871.191 45.4517 871.758 L45.4112 845.184 Z" fill="#000000" fill-rule="nonzero" fill-opacity="1" /><path clip-path="url(#clip180)" d="M9.11509 825.497 L9.11509 818.043 L72.1472 818.043 L72.1472 825.497 L9.11509 825.497 Z" fill="#000000" fill-rule="nonzero" fill-opacity="1" /><path clip-path="url(#clip180)" d="M26.777 802.447 L26.777 794.993 L72.1472 794.993 L72.1472 802.447 L26.777 802.447 M9.11509 802.447 L9.11509 794.993 L18.5537 794.993 L18.5537 802.447 L9.11509 802.447 Z" fill="#000000" fill-rule="nonzero" fill-opacity="1" /><path clip-path="url(#clip180)" d="M44.763 741.683 L72.1472 741.683 L72.1472 749.137 L45.0061 749.137 Q38.5652 749.137 35.3649 751.649 Q32.1647 754.16 32.1647 759.183 Q32.1647 765.219 36.0131 768.703 Q39.8615 772.187 46.5049 772.187 L72.1472 772.187 L72.1472 779.681 L9.11509 779.681 L9.11509 772.187 L33.8256 772.187 Q29.7342 769.513 27.7087 765.908 Q25.6833 762.262 25.6833 757.522 Q25.6833 749.704 30.5444 745.694 Q35.3649 741.683 44.763 741.683 Z" fill="#000000" fill-rule="nonzero" fill-opacity="1" /><path clip-path="url(#clip180)" d="M32.0027 709.236 Q32.0027 715.231 36.7017 718.715 Q41.3603 722.199 49.5026 722.199 Q57.6449 722.199 62.344 718.755 Q67.0025 715.271 67.0025 709.236 Q67.0025 703.281 62.3035 699.797 Q57.6044 696.313 49.5026 696.313 Q41.4413 696.313 36.7423 699.797 Q32.0027 703.281 32.0027 709.236 M25.6833 709.236 Q25.6833 699.513 32.0027 693.964 Q38.3221 688.414 49.5026 688.414 Q60.6426 688.414 67.0025 693.964 Q73.3219 699.513 73.3219 709.236 Q73.3219 718.998 67.0025 724.548 Q60.6426 730.057 49.5026 730.057 Q38.3221 730.057 32.0027 724.548 Q25.6833 718.998 25.6833 709.236 Z" fill="#000000" fill-rule="nonzero" fill-opacity="1" /><path clip-path="url(#clip180)" d="M32.0027 658.478 Q32.0027 664.473 36.7017 667.957 Q41.3603 671.441 49.5026 671.441 Q57.6449 671.441 62.344 667.997 Q67.0025 664.514 67.0025 658.478 Q67.0025 652.523 62.3035 649.039 Q57.6044 645.555 49.5026 645.555 Q41.4413 645.555 36.7423 649.039 Q32.0027 652.523 32.0027 658.478 M25.6833 658.478 Q25.6833 648.756 32.0027 643.206 Q38.3221 637.656 49.5026 637.656 Q60.6426 637.656 67.0025 643.206 Q73.3219 648.756 73.3219 658.478 Q73.3219 668.24 67.0025 673.79 Q60.6426 679.299 49.5026 679.299 Q38.3221 679.299 32.0027 673.79 Q25.6833 668.24 25.6833 658.478 Z" fill="#000000" fill-rule="nonzero" fill-opacity="1" /><path clip-path="url(#clip180)" d="M33.6636 595.446 L9.11509 595.446 L9.11509 587.992 L72.1472 587.992 L72.1472 595.446 L65.3416 595.446 Q69.3925 597.795 71.3775 601.401 Q73.3219 604.965 73.3219 609.988 Q73.3219 618.212 66.7595 623.397 Q60.197 628.542 49.5026 628.542 Q38.8082 628.542 32.2458 623.397 Q25.6833 618.212 25.6833 609.988 Q25.6833 604.965 27.6682 601.401 Q29.6127 597.795 33.6636 595.446 M49.5026 620.845 Q57.7259 620.845 62.425 617.483 Q67.0835 614.08 67.0835 608.166 Q67.0835 602.251 62.425 598.848 Q57.7259 595.446 49.5026 595.446 Q41.2793 595.446 36.6207 598.848 Q31.9217 602.251 31.9217 608.166 Q31.9217 614.08 36.6207 617.483 Q41.2793 620.845 49.5026 620.845 Z" fill="#000000" fill-rule="nonzero" fill-opacity="1" /><path clip-path="url(#clip180)" d="M9.11509 523.299 L15.313 523.299 L15.313 530.429 Q15.313 534.439 16.9333 536.019 Q18.5537 537.558 22.7666 537.558 L26.777 537.558 L26.777 525.284 L32.5698 525.284 L32.5698 537.558 L72.1472 537.558 L72.1472 545.052 L32.5698 545.052 L32.5698 552.182 L26.777 552.182 L26.777 545.052 L23.6173 545.052 Q16.0421 545.052 12.5989 541.528 Q9.11509 538.004 9.11509 530.348 L9.11509 523.299 Z" fill="#000000" fill-rule="nonzero" fill-opacity="1" /><path clip-path="url(#clip180)" d="M32.0027 499.48 Q32.0027 505.475 36.7017 508.959 Q41.3603 512.443 49.5026 512.443 Q57.6449 512.443 62.344 508.999 Q67.0025 505.516 67.0025 499.48 Q67.0025 493.525 62.3035 490.041 Q57.6044 486.557 49.5026 486.557 Q41.4413 486.557 36.7423 490.041 Q32.0027 493.525 32.0027 499.48 M25.6833 499.48 Q25.6833 489.758 32.0027 484.208 Q38.3221 478.658 49.5026 478.658 Q60.6426 478.658 67.0025 484.208 Q73.3219 489.758 73.3219 499.48 Q73.3219 509.242 67.0025 514.792 Q60.6426 520.301 49.5026 520.301 Q38.3221 520.301 32.0027 514.792 Q25.6833 509.242 25.6833 499.48 Z" fill="#000000" fill-rule="nonzero" fill-opacity="1" /><path clip-path="url(#clip180)" d="M33.7446 440.013 Q33.0154 441.268 32.6914 442.767 Q32.3268 444.225 32.3268 446.008 Q32.3268 452.327 36.4587 455.73 Q40.5501 459.092 48.2468 459.092 L72.1472 459.092 L72.1472 466.586 L26.777 466.586 L26.777 459.092 L33.8256 459.092 Q29.6937 456.743 27.7087 452.975 Q25.6833 449.208 25.6833 443.82 Q25.6833 443.051 25.8048 442.119 Q25.8858 441.187 26.0884 440.053 L33.7446 440.013 Z" fill="#000000" fill-rule="nonzero" fill-opacity="1" /><path clip-path="url(#clip180)" d="M72.1472 403.66 L69.5648 403.66 Q69.5648 399.192 69.032 398.167 Q68.4581 397.142 65.7528 397.142 L22.0992 397.142 Q18.9841 397.142 18.2053 398.249 Q17.4265 399.315 17.4265 403.66 L14.8032 403.66 L13.9014 391.609 L65.7528 391.609 Q68.4581 391.609 69.032 390.543 Q69.5648 389.477 69.5648 385.05 L72.1472 385.05 Q72.1472 386.075 72.0652 388.207 Q71.9832 390.338 71.9422 391.896 Q71.9012 393.453 71.9012 394.355 Q71.9012 395.339 72.1472 403.66 Z" fill="#000000" fill-rule="nonzero" fill-opacity="1" /><path clip-path="url(#clip180)" d="M72.1472 379.97 L69.5648 379.97 Q69.5648 375.502 69.032 374.477 Q68.4581 373.452 65.7528 373.452 L43.2497 373.452 Q40.1345 373.452 39.3557 374.559 Q38.5769 375.625 38.5769 379.97 L35.9536 379.97 L35.0519 368.165 L43.8646 368.165 Q35.0519 364.23 35.0519 355.745 Q35.0519 349.433 38.167 346.932 Q40.2575 345.088 42.5939 344.719 Q44.9303 344.309 50.9967 344.309 L67.0235 344.309 Q68.786 344.227 69.1959 342.874 Q69.5648 341.522 69.5648 337.751 L72.1472 337.751 Q71.9012 346.317 71.9012 347.178 Q71.9012 347.834 72.1472 356.647 L69.5648 356.647 Q69.5648 352.179 69.032 351.154 Q68.4581 350.088 65.7528 350.088 L46.2009 350.088 Q41.9381 350.088 39.4377 351.4 Q36.8964 352.712 36.8964 356.319 Q36.8964 360.664 40.5444 364.148 Q44.1925 367.632 50.3409 367.632 L65.7528 367.632 Q68.4581 367.632 69.032 366.607 Q69.5648 365.541 69.5648 361.115 L72.1472 361.115 Q71.9012 369.681 71.9012 370.501 Q71.9012 371.157 72.1472 379.97 Z" fill="#000000" fill-rule="nonzero" fill-opacity="1" /><path clip-path="url(#clip180)" d="M36.0356 237.541 Q42.7988 237.541 49.4391 240.452 Q56.0384 243.321 61.0391 247.994 Q65.9988 252.625 69.073 258.897 Q72.1472 265.168 72.1472 271.563 L72.1472 299.353 Q72.1472 300.337 72.1062 300.747 Q72.0652 301.116 71.8602 301.403 Q71.6143 301.69 71.1224 301.69 Q70.3436 301.69 70.0157 301.362 Q69.6468 301.034 69.6058 300.665 Q69.5648 300.296 69.5648 299.353 Q69.5648 297.304 69.4419 296.074 Q69.3189 294.844 69.1549 294.066 Q68.95 293.246 68.3761 292.836 Q67.8023 292.385 67.3104 292.18 Q66.7776 291.975 65.5889 291.688 L20.5007 280.457 Q19.148 280.129 18.9431 280.129 Q18.2463 280.129 18.0003 280.539 Q17.7134 280.908 17.5904 281.974 Q17.4265 284.023 17.4265 285.581 Q17.4265 286.606 17.3855 287.015 Q17.3445 287.384 17.1395 287.712 Q16.8936 287.999 16.4017 287.999 Q15.6229 287.999 15.295 287.671 Q14.9261 287.302 14.8851 286.893 Q14.8032 286.483 14.8032 285.499 L14.8032 257.298 Q14.8032 251.191 17.6724 246.641 Q20.5007 242.091 25.2964 239.837 Q30.0512 237.541 36.0356 237.541 M32.9614 244.879 Q25.1325 244.879 21.2795 249.141 Q17.4265 253.363 17.4265 260.045 L17.4265 269.021 Q17.4265 271.686 17.9183 272.341 Q18.3692 272.997 20.6236 273.571 L66.6956 285.089 Q68.2122 285.499 68.6221 285.499 Q69.073 285.499 69.2369 285.294 Q69.3599 285.048 69.4419 284.392 Q69.5648 283.654 69.5648 282.548 L69.5648 273.079 Q69.5648 269.431 68.5811 266.111 Q67.5564 262.75 65.9578 260.331 Q64.3182 257.913 62.9246 256.356 Q61.4899 254.798 60.0553 253.691 Q56.8172 251.191 52.5953 249.346 Q48.3734 247.461 44.5204 246.6 Q40.6264 245.698 37.7572 245.288 Q34.8469 244.879 32.9614 244.879 Z" fill="#000000" fill-rule="nonzero" fill-opacity="1" /><path clip-path="url(#clip180)" d="M61.8631 229.198 L60.0268 229.198 Q60.0268 222.14 56.2681 218.496 Q56.2681 217.492 56.4976 217.32 Q56.7272 217.148 57.7888 217.148 L90.7565 217.148 Q92.5067 217.148 93.0519 216.287 Q93.597 215.426 93.597 211.667 L93.597 209.802 L95.4047 209.802 Q95.2325 211.868 95.2325 219.328 Q95.2325 226.788 95.4047 228.825 L93.597 228.825 L93.597 226.96 Q93.597 223.259 93.0806 222.37 Q92.5354 221.48 90.7565 221.48 L60.3137 221.48 Q61.8631 224.55 61.8631 229.198 Z" fill="#000000" fill-rule="nonzero" fill-opacity="1" /><polyline clip-path="url(#clip182)" style="stroke:#000000; stroke-linecap:round; stroke-linejoin:round; stroke-width:8; stroke-opacity:1; fill:none" points="292.824,1371.65 296.832,1359.24 300.84,1346.24 304.848,1332.64 308.856,1318.45 312.864,1303.67 316.872,1288.3 320.879,1272.36 324.887,1255.85 328.895,1238.79 332.903,1221.19 336.911,1203.06 340.919,1184.42 344.927,1165.29 348.935,1145.7 352.943,1125.66 356.95,1105.2 360.958,1084.34 364.966,1063.11 368.974,1041.53 372.982,1019.64 376.99,997.461 380.998,975.028 385.006,952.369 389.013,929.515 393.021,906.499 397.029,883.352 401.037,860.106 405.045,836.794 409.053,813.447 413.061,790.098 417.069,766.778 421.077,743.519 425.084,720.352 429.092,697.307 433.1,674.413 437.108,651.701 441.116,629.197 445.124,606.93 449.132,584.926 453.14,563.211 457.147,541.809 461.155,520.744 465.163,500.037 469.171,479.712 473.179,459.786 477.187,440.281 481.195,421.212 485.203,402.598 489.211,384.453 493.218,366.792 497.226,349.627 501.234,332.971 505.242,316.834 509.25,301.226 513.258,286.154 517.266,271.627 521.274,257.65 525.281,244.228 529.289,231.366 533.297,219.066 537.305,207.33 541.313,196.159 545.321,185.554 549.329,175.513 553.337,166.036 557.345,157.119 561.352,148.759 565.36,140.953 569.368,133.696 573.376,126.983 577.384,120.808 581.392,115.163 585.4,110.044 589.408,105.441 593.416,101.347 597.423,97.754 601.431,94.6526 605.439,92.034 609.447,89.8887 613.455,88.2069 617.463,87.0233 621.471,86.2703 625.479,85.881 629.486,85.8189 633.494,85.8189 637.502,85.819 641.51,85.8189 645.518,85.8189 649.526,85.8192 653.534,85.8189 657.542,85.8189 661.55,85.819 665.557,85.8189 669.565,85.8189 673.573,85.8189 677.581,85.8189 681.589,85.8189 685.597,85.8193 689.605,85.8189 693.613,85.8189 697.62,85.8189 701.628,85.8189 705.636,85.8189 709.644,85.8189 713.652,85.8189 717.66,85.8189 721.668,85.8189 725.676,85.8189 729.684,85.8189 733.691,85.8189 737.699,85.8189 741.707,85.8189 745.715,85.8189 749.723,85.8189 753.731,85.8189 757.739,85.8189 761.747,85.8189 765.754,85.8189 769.762,85.8189 773.77,85.8189 777.778,85.8189 781.786,85.8189 785.794,85.8189 789.802,85.8189 793.81,85.8189 797.818,85.8189 801.825,85.8189 805.833,85.8189 809.841,85.819 813.849,85.8189 817.857,85.8189 821.865,85.8189 825.873,85.8189 829.881,85.8189 833.888,85.8189 837.896,85.819 841.904,85.8189 845.912,85.8189 849.92,85.8189 853.928,85.8189 857.936,85.8189 861.944,85.8189 865.952,85.8189 869.959,85.8189 873.967,85.8189 877.975,85.8189 881.983,85.8189 885.991,85.8189 889.999,85.8189 894.007,85.8189 898.015,85.8189 902.022,85.8189 906.03,85.8189 910.038,85.8189 914.046,85.8189 918.054,85.8189 922.062,85.8189 926.07,85.8189 930.078,85.8189 934.086,85.8189 938.093,85.8189 942.101,85.8189 946.109,85.8189 950.117,85.8189 954.125,85.8189 958.133,85.8189 962.141,85.8189 966.149,85.8189 970.157,85.8189 974.164,85.8189 978.172,85.8189 982.18,85.8189 986.188,85.8189 990.196,85.8189 994.204,85.8189 998.212,85.8189 1002.22,85.8189 1006.23,85.8189 1010.24,85.8189 1014.24,85.8189 1018.25,85.8189 1022.26,85.8189 1026.27,85.8189 1030.27,85.8189 1034.28,85.8192 1038.29,85.8189 1042.3,85.8189 1046.31,85.8189 1050.31,85.8189 1054.32,85.8189 1058.33,85.8189 1062.34,85.8189 1066.35,85.8189 1070.35,85.8189 1074.36,85.8189 1078.37,85.8189 1082.38,85.8189 1086.39,85.8189 1090.39,85.8189 1094.4,85.8189 1098.41,85.8189 1102.42,85.8189 1106.42,85.8189 1110.43,85.8189 1114.44,85.8189 1118.45,85.8189 1122.46,85.8189 1126.46,85.8189 1130.47,85.8189 1134.48,85.8189 1138.49,85.8189 1142.5,85.8189 1146.5,85.8189 1150.51,85.8189 1154.52,85.8189 1158.53,85.8189 1162.53,85.8189 1166.54,85.8189 1170.55,85.8189 1174.56,85.8189 1178.57,85.8189 1182.57,85.8189 1186.58,85.8189 1190.59,85.8189 1194.6,85.8189 1198.61,85.8189 1202.61,85.8189 1206.62,85.8189 1210.63,85.8189 1214.64,85.8189 1218.65,85.8189 1222.65,85.8189 1226.66,85.8189 1230.67,85.8189 1234.68,85.8189 1238.68,85.8189 1242.69,85.8189 1246.7,85.8189 1250.71,85.8189 1254.72,85.8189 1258.72,85.8189 1262.73,85.8189 1266.74,85.8189 1270.75,85.8189 1274.76,85.8189 1278.76,85.8189 1282.77,85.8189 1286.78,85.8189 1290.79,85.8189 1294.8,85.8189 1298.8,85.8189 1302.81,85.8189 1306.82,85.8189 1310.83,85.8189 1314.83,85.8189 1318.84,85.8189 1322.85,85.8189 1326.86,85.8189 1330.87,85.8189 1334.87,85.8189 1338.88,85.8189 1342.89,85.8189 1346.9,85.8189 1350.91,85.8189 1354.91,85.8189 1358.92,85.8189 1362.93,85.8189 1366.94,85.8189 1370.94,85.8189 1374.95,85.8189 1378.96,85.8189 1382.97,85.8189 1386.98,85.8189 1390.98,85.8189 1394.99,85.8189 1399,85.8189 1403.01,85.8189 1407.02,85.8189 1411.02,85.8189 1415.03,85.8189 1419.04,85.8189 1423.05,85.8189 1427.06,85.8189 1431.06,85.8189 1435.07,85.8189 1439.08,85.8189 1443.09,85.8189 1447.09,85.8189 1451.1,85.8189 1455.11,85.8189 1459.12,85.8189 1463.13,85.8189 1467.13,85.8189 1471.14,85.8189 1475.15,85.8189 1479.16,85.8189 1483.17,85.8189 1487.17,85.8189 1491.18,85.8189 1495.19,85.8189 1499.2,85.8189 1503.2,85.8189 1507.21,85.8189 1511.22,85.8189 1515.23,85.8189 1519.24,85.8189 1523.24,85.8189 1527.25,85.8189 1531.26,85.8189 1535.27,85.8189 1539.28,85.8189 1543.28,85.8189 1547.29,85.8189 1551.3,85.8189 1555.31,85.8189 1559.32,85.8189 1563.32,85.8189 1567.33,85.8189 1571.34,85.8189 1575.35,85.8189 1579.35,85.8189 1583.36,85.8189 1587.37,85.8189 1591.38,85.8189 1595.39,85.8189 1599.39,85.8189 1603.4,85.8189 1607.41,85.8189 1611.42,85.8189 1615.43,85.8189 1619.43,85.8189 1623.44,85.8189 1627.45,85.8189 1631.46,85.8189 1635.47,85.8189 1639.47,85.8189 1643.48,85.8189 1647.49,85.8189 1651.5,85.8189 1655.5,85.8189 1659.51,85.8189 1663.52,85.8189 1667.53,85.8189 1671.54,85.8189 1675.54,85.8189 1679.55,85.8189 1683.56,85.8189 1687.57,85.8189 1691.58,85.8189 1695.58,85.8189 1699.59,85.8189 1703.6,85.8189 1707.61,85.8189 1711.61,85.8189 1715.62,85.8189 1719.63,85.8189 1723.64,85.8189 1727.65,85.8189 1731.65,85.8189 1735.66,85.8189 1739.67,85.8189 1743.68,85.8189 1747.69,85.8189 1751.69,85.8189 1755.7,85.8189 1759.71,85.8189 1763.72,85.8189 1767.73,85.8189 1771.73,85.8189 1775.74,85.8189 1779.75,85.8189 1783.76,85.8189 1787.76,85.8189 1791.77,85.8189 1795.78,85.8189 1799.79,85.8189 1803.8,85.8189 1807.8,85.8189 1811.81,85.8189 1815.82,85.8189 1819.83,85.8189 1823.84,85.8189 1827.84,85.8189 1831.85,85.8189 1835.86,85.8189 1839.87,85.8189 1843.87,85.8189 1847.88,85.8189 1851.89,85.8189 1855.9,85.8189 1859.91,85.8189 1863.91,85.8189 1867.92,85.8189 1871.93,85.8189 1875.94,85.8189 1879.95,85.8189 1883.95,85.8189 1887.96,85.8189 1891.97,85.8189 1895.98,85.8189 1899.99,85.8189 1903.99,85.8189 1908,85.8189 1912.01,85.8189 1916.02,85.8189 1920.02,85.8189 1924.03,85.8189 1928.04,85.8189 1932.05,85.8189 1936.06,85.8189 1940.06,85.8189 1944.07,85.8189 1948.08,85.8189 1952.09,85.8189 1956.1,85.8189 1960.1,85.8189 1964.11,85.8189 1968.12,85.8189 1972.13,85.8189 1976.14,85.8189 1980.14,85.8189 1984.15,85.8189 1988.16,85.8189 1992.17,85.8189 1996.17,85.8189 2000.18,85.8189 2004.19,85.8189 2008.2,85.8189 2012.21,85.8189 2016.21,85.8189 2020.22,85.8189 2024.23,85.8189 2028.24,85.8189 2032.25,85.8189 2036.25,85.8189 2040.26,85.8189 2044.27,85.8189 2048.28,85.8189 2052.28,85.8189 2056.29,85.8189 2060.3,85.8189 2064.31,85.8189 2068.32,85.8189 2072.32,85.8189 2076.33,85.8189 2080.34,85.8189 2084.35,85.8189 2088.36,85.8189 2092.36,85.8189 2096.37,85.8189 2100.38,85.8189 2104.39,85.8189 2108.4,85.8189 2112.4,85.8189 2116.41,85.8189 2120.42,85.8189 2124.43,85.8189 2128.43,85.8189 2132.44,85.8189 2136.45,85.8189 2140.46,85.8189 2144.47,85.8189 2148.47,85.8189 2152.48,85.8189 2156.49,85.8189 2160.5,85.8189 2164.51,85.8189 2168.51,85.8189 2172.52,85.8189 2176.53,85.8189 2180.54,85.8189 2184.55,85.8189 2188.55,85.8189 2192.56,85.8189 2196.57,85.8189 2200.58,85.8189 2204.58,85.8189 2208.59,85.8189 2212.6,85.8189 2216.61,85.8189 2220.62,85.8189 2224.62,85.8189 2228.63,85.8189 2232.64,85.8189 2236.65,85.8189 2240.66,85.8189 2244.66,85.8189 2248.67,85.8189 2252.68,85.8189 2256.69,85.8189 2260.69,85.8189 2264.7,85.8189 2268.71,85.8189 2272.72,85.8189 2276.73,85.8189 2280.73,85.8189 2284.74,85.8189 2288.75,85.8189 2292.76,85.8189 "/>
<polyline clip-path="url(#clip182)" style="stroke:#000000; stroke-linecap:round; stroke-linejoin:round; stroke-width:8; stroke-opacity:1; fill:none" points="1254.72,2773.2 1254.72,-1315.73 "/>
<polyline clip-path="url(#clip182)" style="stroke:#000000; stroke-linecap:round; stroke-linejoin:round; stroke-width:4; stroke-opacity:1; fill:none" points="-1887.1,1318.79 4472.69,1318.79 "/>
<polyline clip-path="url(#clip182)" style="stroke:#000000; stroke-linecap:round; stroke-linejoin:round; stroke-width:8; stroke-opacity:1; fill:none" stroke-dasharray="32, 20" points="2031.61,2773.2 2031.61,-1315.73 "/>
</svg>
