<?xml version="1.0" encoding="utf-8"?>
<svg xmlns="http://www.w3.org/2000/svg" xmlns:xlink="http://www.w3.org/1999/xlink" width="600" height="400" viewBox="0 0 2400 1600">
<defs>
  <clipPath id="clip500">
    <rect x="0" y="0" width="2400" height="1600"/>
  </clipPath>
</defs>
<path clip-path="url(#clip500)" d="M0 1600 L2400 1600 L2400 8.88178e-14 L0 8.88178e-14  Z" fill="#ffffff" fill-rule="evenodd" fill-opacity="1"/>
<defs>
  <clipPath id="clip501">
    <rect x="480" y="0" width="1681" height="1600"/>
  </clipPath>
</defs>
<path clip-path="url(#clip500)" d="M262.502 1410.22 L2352.76 1410.22 L2352.76 47.2441 L262.502 47.2441  Z" fill="#ffffff" fill-rule="evenodd" fill-opacity="1"/>
<defs>
  <clipPath id="clip502">
    <rect x="262" y="47" width="2091" height="1364"/>
  </clipPath>
</defs>
<polyline clip-path="url(#clip502)" style="stroke:#000000; stroke-linecap:round; stroke-linejoin:round; stroke-width:2; stroke-opacity:0.1; fill:none" points="281.417,1410.22 281.417,47.2441 "/>
<polyline clip-path="url(#clip502)" style="stroke:#000000; stroke-linecap:round; stroke-linejoin:round; stroke-width:2; stroke-opacity:0.1; fill:none" points="683.853,1410.22 683.853,47.2441 "/>
<polyline clip-path="url(#clip502)" style="stroke:#000000; stroke-linecap:round; stroke-linejoin:round; stroke-width:2; stroke-opacity:0.1; fill:none" points="1086.29,1410.22 1086.29,47.2441 "/>
<polyline clip-path="url(#clip502)" style="stroke:#000000; stroke-linecap:round; stroke-linejoin:round; stroke-width:2; stroke-opacity:0.1; fill:none" points="1488.73,1410.22 1488.73,47.2441 "/>
<polyline clip-path="url(#clip502)" style="stroke:#000000; stroke-linecap:round; stroke-linejoin:round; stroke-width:2; stroke-opacity:0.1; fill:none" points="1891.16,1410.22 1891.16,47.2441 "/>
<polyline clip-path="url(#clip502)" style="stroke:#000000; stroke-linecap:round; stroke-linejoin:round; stroke-width:2; stroke-opacity:0.1; fill:none" points="2293.6,1410.22 2293.6,47.2441 "/>
<polyline clip-path="url(#clip502)" style="stroke:#000000; stroke-linecap:round; stroke-linejoin:round; stroke-width:2; stroke-opacity:0.1; fill:none" points="262.502,1396.84 2352.76,1396.84 "/>
<polyline clip-path="url(#clip502)" style="stroke:#000000; stroke-linecap:round; stroke-linejoin:round; stroke-width:2; stroke-opacity:0.1; fill:none" points="262.502,1069.08 2352.76,1069.08 "/>
<polyline clip-path="url(#clip502)" style="stroke:#000000; stroke-linecap:round; stroke-linejoin:round; stroke-width:2; stroke-opacity:0.1; fill:none" points="262.502,741.328 2352.76,741.328 "/>
<polyline clip-path="url(#clip502)" style="stroke:#000000; stroke-linecap:round; stroke-linejoin:round; stroke-width:2; stroke-opacity:0.1; fill:none" points="262.502,413.574 2352.76,413.574 "/>
<polyline clip-path="url(#clip502)" style="stroke:#000000; stroke-linecap:round; stroke-linejoin:round; stroke-width:2; stroke-opacity:0.1; fill:none" points="262.502,85.8189 2352.76,85.8189 "/>
<polyline clip-path="url(#clip500)" style="stroke:#000000; stroke-linecap:round; stroke-linejoin:round; stroke-width:4; stroke-opacity:1; fill:none" points="262.502,1410.22 2352.76,1410.22 "/>
<polyline clip-path="url(#clip500)" style="stroke:#000000; stroke-linecap:round; stroke-linejoin:round; stroke-width:4; stroke-opacity:1; fill:none" points="281.417,1410.22 281.417,1391.32 "/>
<polyline clip-path="url(#clip500)" style="stroke:#000000; stroke-linecap:round; stroke-linejoin:round; stroke-width:4; stroke-opacity:1; fill:none" points="683.853,1410.22 683.853,1391.32 "/>
<polyline clip-path="url(#clip500)" style="stroke:#000000; stroke-linecap:round; stroke-linejoin:round; stroke-width:4; stroke-opacity:1; fill:none" points="1086.29,1410.22 1086.29,1391.32 "/>
<polyline clip-path="url(#clip500)" style="stroke:#000000; stroke-linecap:round; stroke-linejoin:round; stroke-width:4; stroke-opacity:1; fill:none" points="1488.73,1410.22 1488.73,1391.32 "/>
<polyline clip-path="url(#clip500)" style="stroke:#000000; stroke-linecap:round; stroke-linejoin:round; stroke-width:4; stroke-opacity:1; fill:none" points="1891.16,1410.22 1891.16,1391.32 "/>
<polyline clip-path="url(#clip500)" style="stroke:#000000; stroke-linecap:round; stroke-linejoin:round; stroke-width:4; stroke-opacity:1; fill:none" points="2293.6,1410.22 2293.6,1391.32 "/>
<path clip-path="url(#clip500)" d="M281.417 1441.14 Q277.805 1441.14 275.977 1444.7 Q274.171 1448.24 274.171 1455.37 Q274.171 1462.48 275.977 1466.05 Q277.805 1469.59 281.417 1469.59 Q285.051 1469.59 286.856 1466.05 Q288.685 1462.48 288.685 1455.37 Q288.685 1448.24 286.856 1444.7 Q285.051 1441.14 281.417 1441.14 M281.417 1437.43 Q287.227 1437.43 290.282 1442.04 Q293.361 1446.62 293.361 1455.37 Q293.361 1464.1 290.282 1468.71 Q287.227 1473.29 281.417 1473.29 Q275.606 1473.29 272.528 1468.71 Q269.472 1464.1 269.472 1455.37 Q269.472 1446.62 272.528 1442.04 Q275.606 1437.43 281.417 1437.43 Z" fill="#000000" fill-rule="nonzero" fill-opacity="1" /><path clip-path="url(#clip500)" d="M674.235 1468.68 L681.874 1468.68 L681.874 1442.32 L673.563 1443.99 L673.563 1439.73 L681.827 1438.06 L686.503 1438.06 L686.503 1468.68 L694.142 1468.68 L694.142 1472.62 L674.235 1472.62 L674.235 1468.68 Z" fill="#000000" fill-rule="nonzero" fill-opacity="1" /><path clip-path="url(#clip500)" d="M1080.94 1468.68 L1097.26 1468.68 L1097.26 1472.62 L1075.32 1472.62 L1075.32 1468.68 Q1077.98 1465.93 1082.56 1461.3 Q1087.17 1456.65 1088.35 1455.31 Q1090.59 1452.78 1091.47 1451.05 Q1092.38 1449.29 1092.38 1447.6 Q1092.38 1444.84 1090.43 1443.11 Q1088.51 1441.37 1085.41 1441.37 Q1083.21 1441.37 1080.76 1442.13 Q1078.33 1442.9 1075.55 1444.45 L1075.55 1439.73 Q1078.37 1438.59 1080.83 1438.01 Q1083.28 1437.43 1085.32 1437.43 Q1090.69 1437.43 1093.88 1440.12 Q1097.08 1442.81 1097.08 1447.3 Q1097.08 1449.43 1096.27 1451.35 Q1095.48 1453.24 1093.37 1455.84 Q1092.79 1456.51 1089.69 1459.73 Q1086.59 1462.92 1080.94 1468.68 Z" fill="#000000" fill-rule="nonzero" fill-opacity="1" /><path clip-path="url(#clip500)" d="M1492.97 1453.99 Q1496.33 1454.7 1498.2 1456.97 Q1500.1 1459.24 1500.1 1462.57 Q1500.1 1467.69 1496.58 1470.49 Q1493.07 1473.29 1486.58 1473.29 Q1484.41 1473.29 1482.09 1472.85 Q1479.8 1472.43 1477.35 1471.58 L1477.35 1467.06 Q1479.29 1468.2 1481.61 1468.78 Q1483.92 1469.36 1486.45 1469.36 Q1490.84 1469.36 1493.13 1467.62 Q1495.45 1465.88 1495.45 1462.57 Q1495.45 1459.52 1493.3 1457.81 Q1491.17 1456.07 1487.35 1456.07 L1483.32 1456.07 L1483.32 1452.23 L1487.53 1452.23 Q1490.98 1452.23 1492.81 1450.86 Q1494.64 1449.47 1494.64 1446.88 Q1494.64 1444.22 1492.74 1442.81 Q1490.87 1441.37 1487.35 1441.37 Q1485.43 1441.37 1483.23 1441.79 Q1481.03 1442.2 1478.39 1443.08 L1478.39 1438.92 Q1481.05 1438.18 1483.37 1437.81 Q1485.7 1437.43 1487.76 1437.43 Q1493.09 1437.43 1496.19 1439.87 Q1499.29 1442.27 1499.29 1446.39 Q1499.29 1449.26 1497.65 1451.25 Q1496.01 1453.22 1492.97 1453.99 Z" fill="#000000" fill-rule="nonzero" fill-opacity="1" /><path clip-path="url(#clip500)" d="M1894.17 1442.13 L1882.37 1460.58 L1894.17 1460.58 L1894.17 1442.13 M1892.94 1438.06 L1898.82 1438.06 L1898.82 1460.58 L1903.75 1460.58 L1903.75 1464.47 L1898.82 1464.47 L1898.82 1472.62 L1894.17 1472.62 L1894.17 1464.47 L1878.57 1464.47 L1878.57 1459.96 L1892.94 1438.06 Z" fill="#000000" fill-rule="nonzero" fill-opacity="1" /><path clip-path="url(#clip500)" d="M2283.88 1438.06 L2302.23 1438.06 L2302.23 1442 L2288.16 1442 L2288.16 1450.47 Q2289.18 1450.12 2290.2 1449.96 Q2291.21 1449.77 2292.23 1449.77 Q2298.02 1449.77 2301.4 1452.94 Q2304.78 1456.12 2304.78 1461.53 Q2304.78 1467.11 2301.31 1470.21 Q2297.83 1473.29 2291.51 1473.29 Q2289.34 1473.29 2287.07 1472.92 Q2284.82 1472.55 2282.42 1471.81 L2282.42 1467.11 Q2284.5 1468.24 2286.72 1468.8 Q2288.95 1469.36 2291.42 1469.36 Q2295.43 1469.36 2297.76 1467.25 Q2300.1 1465.14 2300.1 1461.53 Q2300.1 1457.92 2297.76 1455.81 Q2295.43 1453.71 2291.42 1453.71 Q2289.55 1453.71 2287.67 1454.12 Q2285.82 1454.54 2283.88 1455.42 L2283.88 1438.06 Z" fill="#000000" fill-rule="nonzero" fill-opacity="1" /><path clip-path="url(#clip500)" d="M1319.43 1515.01 Q1319.43 1521.77 1316.52 1528.41 Q1313.65 1535.01 1308.98 1540.01 Q1304.35 1544.97 1298.08 1548.04 Q1291.8 1551.12 1285.41 1551.12 L1257.62 1551.12 Q1256.63 1551.12 1256.23 1551.08 Q1255.86 1551.04 1255.57 1550.83 Q1255.28 1550.58 1255.28 1550.09 Q1255.28 1549.31 1255.61 1548.99 Q1255.94 1548.62 1256.31 1548.58 Q1256.68 1548.54 1257.62 1548.54 Q1259.67 1548.54 1260.9 1548.41 Q1262.13 1548.29 1262.91 1548.13 Q1263.73 1547.92 1264.14 1547.35 Q1264.59 1546.77 1264.79 1546.28 Q1265 1545.75 1265.28 1544.56 L1276.51 1499.47 Q1276.84 1498.12 1276.84 1497.91 Q1276.84 1497.22 1276.43 1496.97 Q1276.06 1496.68 1275 1496.56 Q1272.95 1496.4 1271.39 1496.4 Q1270.37 1496.4 1269.96 1496.36 Q1269.59 1496.31 1269.26 1496.11 Q1268.97 1495.86 1268.97 1495.37 Q1268.97 1494.59 1269.3 1494.27 Q1269.67 1493.9 1270.08 1493.86 Q1270.49 1493.77 1271.47 1493.77 L1299.67 1493.77 Q1305.78 1493.77 1310.33 1496.64 Q1314.88 1499.47 1317.14 1504.27 Q1319.43 1509.02 1319.43 1515.01 M1312.09 1511.93 Q1312.09 1504.1 1307.83 1500.25 Q1303.61 1496.4 1296.93 1496.4 L1287.95 1496.4 Q1285.29 1496.4 1284.63 1496.89 Q1283.97 1497.34 1283.4 1499.59 L1271.88 1545.67 Q1271.47 1547.18 1271.47 1547.59 Q1271.47 1548.04 1271.68 1548.21 Q1271.92 1548.33 1272.58 1548.41 Q1273.32 1548.54 1274.42 1548.54 L1283.89 1548.54 Q1287.54 1548.54 1290.86 1547.55 Q1294.22 1546.53 1296.64 1544.93 Q1299.06 1543.29 1300.62 1541.89 Q1302.17 1540.46 1303.28 1539.03 Q1305.78 1535.79 1307.63 1531.57 Q1309.51 1527.34 1310.37 1523.49 Q1311.27 1519.6 1311.68 1516.73 Q1312.09 1513.82 1312.09 1511.93 Z" fill="#000000" fill-rule="nonzero" fill-opacity="1" /><path clip-path="url(#clip500)" d="M1327.77 1574.38 Q1327.77 1573.31 1327.86 1573 Q1327.97 1572.68 1328.43 1572.19 L1339.71 1559.63 Q1345.88 1552.68 1345.88 1546.63 Q1345.88 1542.7 1343.81 1539.89 Q1341.78 1537.07 1338.02 1537.07 Q1335.43 1537.07 1333.25 1538.65 Q1331.07 1540.23 1330.07 1543.04 Q1330.24 1542.99 1330.84 1542.99 Q1332.31 1542.99 1333.11 1543.9 Q1333.94 1544.82 1333.94 1546.06 Q1333.94 1547.63 1332.91 1548.41 Q1331.91 1549.15 1330.9 1549.15 Q1330.5 1549.15 1329.95 1549.07 Q1329.44 1548.98 1328.61 1548.18 Q1327.77 1547.35 1327.77 1545.88 Q1327.77 1541.78 1330.87 1538.51 Q1334 1535.24 1338.76 1535.24 Q1344.16 1535.24 1347.69 1538.45 Q1351.24 1541.64 1351.24 1546.63 Q1351.24 1548.38 1350.7 1549.99 Q1350.18 1551.56 1349.47 1552.8 Q1348.78 1554.03 1346.88 1556.01 Q1344.99 1557.99 1343.47 1559.4 Q1341.95 1560.8 1338.53 1563.79 L1332.31 1569.84 L1342.89 1569.84 Q1348.06 1569.84 1348.46 1569.38 Q1349.03 1568.55 1349.75 1564.16 L1351.24 1564.16 L1349.58 1574.38 L1327.77 1574.38 Z" fill="#000000" fill-rule="nonzero" fill-opacity="1" /><polyline clip-path="url(#clip500)" style="stroke:#000000; stroke-linecap:round; stroke-linejoin:round; stroke-width:4; stroke-opacity:1; fill:none" points="262.502,1410.22 262.502,47.2441 "/>
<polyline clip-path="url(#clip500)" style="stroke:#000000; stroke-linecap:round; stroke-linejoin:round; stroke-width:4; stroke-opacity:1; fill:none" points="262.502,1396.84 281.4,1396.84 "/>
<polyline clip-path="url(#clip500)" style="stroke:#000000; stroke-linecap:round; stroke-linejoin:round; stroke-width:4; stroke-opacity:1; fill:none" points="262.502,1069.08 281.4,1069.08 "/>
<polyline clip-path="url(#clip500)" style="stroke:#000000; stroke-linecap:round; stroke-linejoin:round; stroke-width:4; stroke-opacity:1; fill:none" points="262.502,741.328 281.4,741.328 "/>
<polyline clip-path="url(#clip500)" style="stroke:#000000; stroke-linecap:round; stroke-linejoin:round; stroke-width:4; stroke-opacity:1; fill:none" points="262.502,413.574 281.4,413.574 "/>
<polyline clip-path="url(#clip500)" style="stroke:#000000; stroke-linecap:round; stroke-linejoin:round; stroke-width:4; stroke-opacity:1; fill:none" points="262.502,85.8189 281.4,85.8189 "/>
<path clip-path="url(#clip500)" d="M139.165 1382.64 Q135.553 1382.64 133.725 1386.2 Q131.919 1389.74 131.919 1396.87 Q131.919 1403.98 133.725 1407.54 Q135.553 1411.09 139.165 1411.09 Q142.799 1411.09 144.604 1407.54 Q146.433 1403.98 146.433 1396.87 Q146.433 1389.74 144.604 1386.2 Q142.799 1382.64 139.165 1382.64 M139.165 1378.93 Q144.975 1378.93 148.03 1383.54 Q151.109 1388.12 151.109 1396.87 Q151.109 1405.6 148.03 1410.21 Q144.975 1414.79 139.165 1414.79 Q133.354 1414.79 130.276 1410.21 Q127.22 1405.6 127.22 1396.87 Q127.22 1388.12 130.276 1383.54 Q133.354 1378.93 139.165 1378.93 Z" fill="#000000" fill-rule="nonzero" fill-opacity="1" /><path clip-path="url(#clip500)" d="M159.326 1408.24 L164.211 1408.24 L164.211 1414.12 L159.326 1414.12 L159.326 1408.24 Z" fill="#000000" fill-rule="nonzero" fill-opacity="1" /><path clip-path="url(#clip500)" d="M184.396 1382.64 Q180.785 1382.64 178.956 1386.2 Q177.15 1389.74 177.15 1396.87 Q177.15 1403.98 178.956 1407.54 Q180.785 1411.09 184.396 1411.09 Q188.03 1411.09 189.836 1407.54 Q191.664 1403.98 191.664 1396.87 Q191.664 1389.74 189.836 1386.2 Q188.03 1382.64 184.396 1382.64 M184.396 1378.93 Q190.206 1378.93 193.261 1383.54 Q196.34 1388.12 196.34 1396.87 Q196.34 1405.6 193.261 1410.21 Q190.206 1414.79 184.396 1414.79 Q178.586 1414.79 175.507 1410.21 Q172.451 1405.6 172.451 1396.87 Q172.451 1388.12 175.507 1383.54 Q178.586 1378.93 184.396 1378.93 Z" fill="#000000" fill-rule="nonzero" fill-opacity="1" /><path clip-path="url(#clip500)" d="M214.558 1382.64 Q210.947 1382.64 209.118 1386.2 Q207.312 1389.74 207.312 1396.87 Q207.312 1403.98 209.118 1407.54 Q210.947 1411.09 214.558 1411.09 Q218.192 1411.09 219.997 1407.54 Q221.826 1403.98 221.826 1396.87 Q221.826 1389.74 219.997 1386.2 Q218.192 1382.64 214.558 1382.64 M214.558 1378.93 Q220.368 1378.93 223.423 1383.54 Q226.502 1388.12 226.502 1396.87 Q226.502 1405.6 223.423 1410.21 Q220.368 1414.79 214.558 1414.79 Q208.747 1414.79 205.669 1410.21 Q202.613 1405.6 202.613 1396.87 Q202.613 1388.12 205.669 1383.54 Q208.747 1378.93 214.558 1378.93 Z" fill="#000000" fill-rule="nonzero" fill-opacity="1" /><path clip-path="url(#clip500)" d="M140.16 1054.88 Q136.549 1054.88 134.72 1058.45 Q132.915 1061.99 132.915 1069.12 Q132.915 1076.22 134.72 1079.79 Q136.549 1083.33 140.16 1083.33 Q143.794 1083.33 145.6 1079.79 Q147.428 1076.22 147.428 1069.12 Q147.428 1061.99 145.6 1058.45 Q143.794 1054.88 140.16 1054.88 M140.16 1051.18 Q145.97 1051.18 149.026 1055.78 Q152.104 1060.37 152.104 1069.12 Q152.104 1077.84 149.026 1082.45 Q145.97 1087.03 140.16 1087.03 Q134.35 1087.03 131.271 1082.45 Q128.216 1077.84 128.216 1069.12 Q128.216 1060.37 131.271 1055.78 Q134.35 1051.18 140.16 1051.18 Z" fill="#000000" fill-rule="nonzero" fill-opacity="1" /><path clip-path="url(#clip500)" d="M160.322 1080.48 L165.206 1080.48 L165.206 1086.36 L160.322 1086.36 L160.322 1080.48 Z" fill="#000000" fill-rule="nonzero" fill-opacity="1" /><path clip-path="url(#clip500)" d="M179.419 1082.43 L195.738 1082.43 L195.738 1086.36 L173.794 1086.36 L173.794 1082.43 Q176.456 1079.67 181.039 1075.04 Q185.646 1070.39 186.826 1069.05 Q189.072 1066.53 189.951 1064.79 Q190.854 1063.03 190.854 1061.34 Q190.854 1058.59 188.91 1056.85 Q186.988 1055.11 183.887 1055.11 Q181.687 1055.11 179.234 1055.88 Q176.803 1056.64 174.025 1058.19 L174.025 1053.47 Q176.85 1052.34 179.303 1051.76 Q181.757 1051.18 183.794 1051.18 Q189.164 1051.18 192.359 1053.86 Q195.553 1056.55 195.553 1061.04 Q195.553 1063.17 194.743 1065.09 Q193.956 1066.99 191.849 1069.58 Q191.271 1070.25 188.169 1073.47 Q185.067 1076.66 179.419 1082.43 Z" fill="#000000" fill-rule="nonzero" fill-opacity="1" /><path clip-path="url(#clip500)" d="M205.599 1051.8 L223.956 1051.8 L223.956 1055.74 L209.882 1055.74 L209.882 1064.21 Q210.9 1063.86 211.919 1063.7 Q212.937 1063.52 213.956 1063.52 Q219.743 1063.52 223.122 1066.69 Q226.502 1069.86 226.502 1075.28 Q226.502 1080.85 223.03 1083.96 Q219.558 1087.03 213.238 1087.03 Q211.062 1087.03 208.794 1086.66 Q206.548 1086.29 204.141 1085.55 L204.141 1080.85 Q206.224 1081.99 208.447 1082.54 Q210.669 1083.1 213.146 1083.1 Q217.15 1083.1 219.488 1080.99 Q221.826 1078.89 221.826 1075.28 Q221.826 1071.66 219.488 1069.56 Q217.15 1067.45 213.146 1067.45 Q211.271 1067.45 209.396 1067.87 Q207.544 1068.28 205.599 1069.16 L205.599 1051.8 Z" fill="#000000" fill-rule="nonzero" fill-opacity="1" /><path clip-path="url(#clip500)" d="M139.165 727.127 Q135.553 727.127 133.725 730.692 Q131.919 734.234 131.919 741.363 Q131.919 748.47 133.725 752.034 Q135.553 755.576 139.165 755.576 Q142.799 755.576 144.604 752.034 Q146.433 748.47 146.433 741.363 Q146.433 734.234 144.604 730.692 Q142.799 727.127 139.165 727.127 M139.165 723.423 Q144.975 723.423 148.03 728.03 Q151.109 732.613 151.109 741.363 Q151.109 750.09 148.03 754.696 Q144.975 759.28 139.165 759.28 Q133.354 759.28 130.276 754.696 Q127.22 750.09 127.22 741.363 Q127.22 732.613 130.276 728.03 Q133.354 723.423 139.165 723.423 Z" fill="#000000" fill-rule="nonzero" fill-opacity="1" /><path clip-path="url(#clip500)" d="M159.326 752.729 L164.211 752.729 L164.211 758.608 L159.326 758.608 L159.326 752.729 Z" fill="#000000" fill-rule="nonzero" fill-opacity="1" /><path clip-path="url(#clip500)" d="M174.442 724.048 L192.799 724.048 L192.799 727.984 L178.725 727.984 L178.725 736.456 Q179.743 736.109 180.762 735.947 Q181.78 735.761 182.799 735.761 Q188.586 735.761 191.965 738.933 Q195.345 742.104 195.345 747.521 Q195.345 753.099 191.873 756.201 Q188.4 759.28 182.081 759.28 Q179.905 759.28 177.637 758.909 Q175.391 758.539 172.984 757.798 L172.984 753.099 Q175.067 754.233 177.289 754.789 Q179.512 755.345 181.988 755.345 Q185.993 755.345 188.331 753.238 Q190.669 751.132 190.669 747.521 Q190.669 743.909 188.331 741.803 Q185.993 739.697 181.988 739.697 Q180.113 739.697 178.238 740.113 Q176.387 740.53 174.442 741.409 L174.442 724.048 Z" fill="#000000" fill-rule="nonzero" fill-opacity="1" /><path clip-path="url(#clip500)" d="M214.558 727.127 Q210.947 727.127 209.118 730.692 Q207.312 734.234 207.312 741.363 Q207.312 748.47 209.118 752.034 Q210.947 755.576 214.558 755.576 Q218.192 755.576 219.997 752.034 Q221.826 748.47 221.826 741.363 Q221.826 734.234 219.997 730.692 Q218.192 727.127 214.558 727.127 M214.558 723.423 Q220.368 723.423 223.423 728.03 Q226.502 732.613 226.502 741.363 Q226.502 750.09 223.423 754.696 Q220.368 759.28 214.558 759.28 Q208.747 759.28 205.669 754.696 Q202.613 750.09 202.613 741.363 Q202.613 732.613 205.669 728.03 Q208.747 723.423 214.558 723.423 Z" fill="#000000" fill-rule="nonzero" fill-opacity="1" /><path clip-path="url(#clip500)" d="M140.16 399.372 Q136.549 399.372 134.72 402.937 Q132.915 406.479 132.915 413.608 Q132.915 420.715 134.72 424.28 Q136.549 427.821 140.16 427.821 Q143.794 427.821 145.6 424.28 Q147.428 420.715 147.428 413.608 Q147.428 406.479 145.6 402.937 Q143.794 399.372 140.16 399.372 M140.16 395.669 Q145.97 395.669 149.026 400.275 Q152.104 404.858 152.104 413.608 Q152.104 422.335 149.026 426.942 Q145.97 431.525 140.16 431.525 Q134.35 431.525 131.271 426.942 Q128.216 422.335 128.216 413.608 Q128.216 404.858 131.271 400.275 Q134.35 395.669 140.16 395.669 Z" fill="#000000" fill-rule="nonzero" fill-opacity="1" /><path clip-path="url(#clip500)" d="M160.322 424.974 L165.206 424.974 L165.206 430.854 L160.322 430.854 L160.322 424.974 Z" fill="#000000" fill-rule="nonzero" fill-opacity="1" /><path clip-path="url(#clip500)" d="M174.211 396.294 L196.433 396.294 L196.433 398.284 L183.887 430.854 L179.002 430.854 L190.808 400.229 L174.211 400.229 L174.211 396.294 Z" fill="#000000" fill-rule="nonzero" fill-opacity="1" /><path clip-path="url(#clip500)" d="M205.599 396.294 L223.956 396.294 L223.956 400.229 L209.882 400.229 L209.882 408.701 Q210.9 408.354 211.919 408.192 Q212.937 408.007 213.956 408.007 Q219.743 408.007 223.122 411.178 Q226.502 414.349 226.502 419.766 Q226.502 425.344 223.03 428.446 Q219.558 431.525 213.238 431.525 Q211.062 431.525 208.794 431.155 Q206.548 430.784 204.141 430.043 L204.141 425.344 Q206.224 426.479 208.447 427.034 Q210.669 427.59 213.146 427.59 Q217.15 427.59 219.488 425.483 Q221.826 423.377 221.826 419.766 Q221.826 416.155 219.488 414.048 Q217.15 411.942 213.146 411.942 Q211.271 411.942 209.396 412.358 Q207.544 412.775 205.599 413.655 L205.599 396.294 Z" fill="#000000" fill-rule="nonzero" fill-opacity="1" /><path clip-path="url(#clip500)" d="M129.975 99.1637 L137.614 99.1637 L137.614 72.7981 L129.303 74.4648 L129.303 70.2055 L137.567 68.5389 L142.243 68.5389 L142.243 99.1637 L149.882 99.1637 L149.882 103.099 L129.975 103.099 L129.975 99.1637 Z" fill="#000000" fill-rule="nonzero" fill-opacity="1" /><path clip-path="url(#clip500)" d="M159.326 97.2193 L164.211 97.2193 L164.211 103.099 L159.326 103.099 L159.326 97.2193 Z" fill="#000000" fill-rule="nonzero" fill-opacity="1" /><path clip-path="url(#clip500)" d="M184.396 71.6176 Q180.785 71.6176 178.956 75.1824 Q177.15 78.724 177.15 85.8536 Q177.15 92.96 178.956 96.5248 Q180.785 100.066 184.396 100.066 Q188.03 100.066 189.836 96.5248 Q191.664 92.96 191.664 85.8536 Q191.664 78.724 189.836 75.1824 Q188.03 71.6176 184.396 71.6176 M184.396 67.9139 Q190.206 67.9139 193.261 72.5203 Q196.34 77.1036 196.34 85.8536 Q196.34 94.5804 193.261 99.1869 Q190.206 103.77 184.396 103.77 Q178.586 103.77 175.507 99.1869 Q172.451 94.5804 172.451 85.8536 Q172.451 77.1036 175.507 72.5203 Q178.586 67.9139 184.396 67.9139 Z" fill="#000000" fill-rule="nonzero" fill-opacity="1" /><path clip-path="url(#clip500)" d="M214.558 71.6176 Q210.947 71.6176 209.118 75.1824 Q207.312 78.724 207.312 85.8536 Q207.312 92.96 209.118 96.5248 Q210.947 100.066 214.558 100.066 Q218.192 100.066 219.997 96.5248 Q221.826 92.96 221.826 85.8536 Q221.826 78.724 219.997 75.1824 Q218.192 71.6176 214.558 71.6176 M214.558 67.9139 Q220.368 67.9139 223.423 72.5203 Q226.502 77.1036 226.502 85.8536 Q226.502 94.5804 223.423 99.1869 Q220.368 103.77 214.558 103.77 Q208.747 103.77 205.669 99.1869 Q202.613 94.5804 202.613 85.8536 Q202.613 77.1036 205.669 72.5203 Q208.747 67.9139 214.558 67.9139 Z" fill="#000000" fill-rule="nonzero" fill-opacity="1" /><path clip-path="url(#clip500)" d="M64.8963 1194.98 L88.9587 1194.98 L88.9587 1202.47 L26.3317 1202.47 L26.3317 1194.98 L33.2183 1194.98 Q29.1674 1192.63 27.2229 1189.07 Q25.238 1185.46 25.238 1180.48 Q25.238 1172.21 31.8004 1167.07 Q38.3629 1161.88 49.0573 1161.88 Q59.7517 1161.88 66.3141 1167.07 Q72.8766 1172.21 72.8766 1180.48 Q72.8766 1185.46 70.9322 1189.07 Q68.9472 1192.63 64.8963 1194.98 M49.0573 1169.62 Q40.834 1169.62 36.1754 1173.02 Q31.4764 1176.39 31.4764 1182.3 Q31.4764 1188.21 36.1754 1191.62 Q40.834 1194.98 49.0573 1194.98 Q57.2806 1194.98 61.9797 1191.62 Q66.6382 1188.21 66.6382 1182.3 Q66.6382 1176.39 61.9797 1173.02 Q57.2806 1169.62 49.0573 1169.62 Z" fill="#000000" fill-rule="nonzero" fill-opacity="1" /><path clip-path="url(#clip500)" d="M33.2993 1123.24 Q32.5701 1124.49 32.246 1125.99 Q31.8815 1127.45 31.8815 1129.23 Q31.8815 1135.55 36.0134 1138.96 Q40.1048 1142.32 47.8015 1142.32 L71.7018 1142.32 L71.7018 1149.81 L26.3317 1149.81 L26.3317 1142.32 L33.3803 1142.32 Q29.2484 1139.97 27.2634 1136.2 Q25.238 1132.43 25.238 1127.05 Q25.238 1126.28 25.3595 1125.34 Q25.4405 1124.41 25.6431 1123.28 L33.2993 1123.24 Z" fill="#000000" fill-rule="nonzero" fill-opacity="1" /><path clip-path="url(#clip500)" d="M31.5574 1099.66 Q31.5574 1105.66 36.2564 1109.14 Q40.915 1112.62 49.0573 1112.62 Q57.1996 1112.62 61.8987 1109.18 Q66.5572 1105.7 66.5572 1099.66 Q66.5572 1093.71 61.8581 1090.22 Q57.1591 1086.74 49.0573 1086.74 Q40.996 1086.74 36.2969 1090.22 Q31.5574 1093.71 31.5574 1099.66 M25.238 1099.66 Q25.238 1089.94 31.5574 1084.39 Q37.8768 1078.84 49.0573 1078.84 Q60.1973 1078.84 66.5572 1084.39 Q72.8766 1089.94 72.8766 1099.66 Q72.8766 1109.42 66.5572 1114.97 Q60.1973 1120.48 49.0573 1120.48 Q37.8768 1120.48 31.5574 1114.97 Q25.238 1109.42 25.238 1099.66 Z" fill="#000000" fill-rule="nonzero" fill-opacity="1" /><path clip-path="url(#clip500)" d="M8.66978 1043.52 L14.8677 1043.52 L14.8677 1050.65 Q14.8677 1054.66 16.488 1056.24 Q18.1084 1057.78 22.3213 1057.78 L26.3317 1057.78 L26.3317 1045.5 L32.1245 1045.5 L32.1245 1057.78 L71.7018 1057.78 L71.7018 1065.27 L32.1245 1065.27 L32.1245 1072.4 L26.3317 1072.4 L26.3317 1065.27 L23.172 1065.27 Q15.5968 1065.27 12.1536 1061.75 Q8.66978 1058.22 8.66978 1050.57 L8.66978 1043.52 Z" fill="#000000" fill-rule="nonzero" fill-opacity="1" /><path clip-path="url(#clip500)" d="M26.3317 1037.28 L26.3317 1029.82 L71.7018 1029.82 L71.7018 1037.28 L26.3317 1037.28 M8.66978 1037.28 L8.66978 1029.82 L18.1084 1029.82 L18.1084 1037.28 L8.66978 1037.28 Z" fill="#000000" fill-rule="nonzero" fill-opacity="1" /><path clip-path="url(#clip500)" d="M8.66978 1014.23 L8.66978 1006.77 L71.7018 1006.77 L71.7018 1014.23 L8.66978 1014.23 Z" fill="#000000" fill-rule="nonzero" fill-opacity="1" /><path clip-path="url(#clip500)" d="M47.1534 952.371 L50.7992 952.371 L50.7992 986.642 Q58.4959 986.156 62.5468 982.024 Q66.5572 977.851 66.5572 970.438 Q66.5572 966.144 65.504 962.134 Q64.4507 958.083 62.3443 954.113 L69.3928 954.113 Q71.0942 958.123 71.9854 962.336 Q72.8766 966.549 72.8766 970.884 Q72.8766 981.74 66.5572 988.1 Q60.2378 994.42 49.4624 994.42 Q38.3224 994.42 31.8004 988.424 Q25.238 982.388 25.238 972.18 Q25.238 963.025 31.1523 957.718 Q37.0261 952.371 47.1534 952.371 M44.9659 959.825 Q38.849 959.906 35.2032 963.268 Q31.5574 966.59 31.5574 972.099 Q31.5574 978.337 35.0817 982.105 Q38.606 985.832 45.0064 986.399 L44.9659 959.825 Z" fill="#000000" fill-rule="nonzero" fill-opacity="1" /><path clip-path="url(#clip500)" d="M8.66978 913.766 L8.66978 906.312 L71.7018 906.312 L71.7018 913.766 L8.66978 913.766 Z" fill="#000000" fill-rule="nonzero" fill-opacity="1" /><path clip-path="url(#clip500)" d="M26.3317 890.716 L26.3317 883.263 L71.7018 883.263 L71.7018 890.716 L26.3317 890.716 M8.66978 890.716 L8.66978 883.263 L18.1084 883.263 L18.1084 890.716 L8.66978 890.716 Z" fill="#000000" fill-rule="nonzero" fill-opacity="1" /><path clip-path="url(#clip500)" d="M8.66978 867.95 L8.66978 860.456 L45.8976 860.456 L26.3317 838.217 L26.3317 828.697 L47.5585 852.759 L71.7018 827.684 L71.7018 837.407 L49.5434 860.456 L71.7018 860.456 L71.7018 867.95 L8.66978 867.95 Z" fill="#000000" fill-rule="nonzero" fill-opacity="1" /><path clip-path="url(#clip500)" d="M47.1534 783.773 L50.7992 783.773 L50.7992 818.043 Q58.4959 817.557 62.5468 813.425 Q66.5572 809.253 66.5572 801.84 Q66.5572 797.546 65.504 793.535 Q64.4507 789.484 62.3443 785.514 L69.3928 785.514 Q71.0942 789.525 71.9854 793.738 Q72.8766 797.951 72.8766 802.285 Q72.8766 813.142 66.5572 819.502 Q60.2378 825.821 49.4624 825.821 Q38.3224 825.821 31.8004 819.826 Q25.238 813.79 25.238 803.581 Q25.238 794.426 31.1523 789.12 Q37.0261 783.773 47.1534 783.773 M44.9659 791.226 Q38.849 791.307 35.2032 794.669 Q31.5574 797.991 31.5574 803.5 Q31.5574 809.739 35.0817 813.506 Q38.606 817.233 45.0064 817.8 L44.9659 791.226 Z" fill="#000000" fill-rule="nonzero" fill-opacity="1" /><path clip-path="url(#clip500)" d="M8.66978 771.539 L8.66978 764.085 L71.7018 764.085 L71.7018 771.539 L8.66978 771.539 Z" fill="#000000" fill-rule="nonzero" fill-opacity="1" /><path clip-path="url(#clip500)" d="M26.3317 748.489 L26.3317 741.035 L71.7018 741.035 L71.7018 748.489 L26.3317 748.489 M8.66978 748.489 L8.66978 741.035 L18.1084 741.035 L18.1084 748.489 L8.66978 748.489 Z" fill="#000000" fill-rule="nonzero" fill-opacity="1" /><path clip-path="url(#clip500)" d="M44.3177 687.726 L71.7018 687.726 L71.7018 695.179 L44.5608 695.179 Q38.1198 695.179 34.9196 697.691 Q31.7194 700.202 31.7194 705.226 Q31.7194 711.261 35.5678 714.745 Q39.4161 718.229 46.0596 718.229 L71.7018 718.229 L71.7018 725.723 L8.66978 725.723 L8.66978 718.229 L33.3803 718.229 Q29.2889 715.555 27.2634 711.95 Q25.238 708.304 25.238 703.565 Q25.238 695.746 30.0991 691.736 Q34.9196 687.726 44.3177 687.726 Z" fill="#000000" fill-rule="nonzero" fill-opacity="1" /><path clip-path="url(#clip500)" d="M31.5574 655.278 Q31.5574 661.273 36.2564 664.757 Q40.915 668.241 49.0573 668.241 Q57.1996 668.241 61.8987 664.797 Q66.5572 661.314 66.5572 655.278 Q66.5572 649.323 61.8581 645.839 Q57.1591 642.355 49.0573 642.355 Q40.996 642.355 36.2969 645.839 Q31.5574 649.323 31.5574 655.278 M25.238 655.278 Q25.238 645.556 31.5574 640.006 Q37.8768 634.456 49.0573 634.456 Q60.1973 634.456 66.5572 640.006 Q72.8766 645.556 72.8766 655.278 Q72.8766 665.041 66.5572 670.59 Q60.1973 676.1 49.0573 676.1 Q37.8768 676.1 31.5574 670.59 Q25.238 665.041 25.238 655.278 Z" fill="#000000" fill-rule="nonzero" fill-opacity="1" /><path clip-path="url(#clip500)" d="M31.5574 604.52 Q31.5574 610.515 36.2564 613.999 Q40.915 617.483 49.0573 617.483 Q57.1996 617.483 61.8987 614.04 Q66.5572 610.556 66.5572 604.52 Q66.5572 598.565 61.8581 595.081 Q57.1591 591.598 49.0573 591.598 Q40.996 591.598 36.2969 595.081 Q31.5574 598.565 31.5574 604.52 M25.238 604.52 Q25.238 594.798 31.5574 589.248 Q37.8768 583.698 49.0573 583.698 Q60.1973 583.698 66.5572 589.248 Q72.8766 594.798 72.8766 604.52 Q72.8766 614.283 66.5572 619.832 Q60.1973 625.342 49.0573 625.342 Q37.8768 625.342 31.5574 619.832 Q25.238 614.283 25.238 604.52 Z" fill="#000000" fill-rule="nonzero" fill-opacity="1" /><path clip-path="url(#clip500)" d="M33.2183 541.488 L8.66978 541.488 L8.66978 534.034 L71.7018 534.034 L71.7018 541.488 L64.8963 541.488 Q68.9472 543.837 70.9322 547.443 Q72.8766 551.008 72.8766 556.031 Q72.8766 564.254 66.3141 569.439 Q59.7517 574.584 49.0573 574.584 Q38.3629 574.584 31.8004 569.439 Q25.238 564.254 25.238 556.031 Q25.238 551.008 27.2229 547.443 Q29.1674 543.837 33.2183 541.488 M49.0573 566.887 Q57.2806 566.887 61.9797 563.525 Q66.6382 560.122 66.6382 554.208 Q66.6382 548.293 61.9797 544.891 Q57.2806 541.488 49.0573 541.488 Q40.834 541.488 36.1754 544.891 Q31.4764 548.293 31.4764 554.208 Q31.4764 560.122 36.1754 563.525 Q40.834 566.887 49.0573 566.887 Z" fill="#000000" fill-rule="nonzero" fill-opacity="1" /><path clip-path="url(#clip500)" d="M8.66978 469.341 L14.8677 469.341 L14.8677 476.471 Q14.8677 480.481 16.488 482.061 Q18.1084 483.601 22.3213 483.601 L26.3317 483.601 L26.3317 471.326 L32.1245 471.326 L32.1245 483.601 L71.7018 483.601 L71.7018 491.095 L32.1245 491.095 L32.1245 498.224 L26.3317 498.224 L26.3317 491.095 L23.172 491.095 Q15.5968 491.095 12.1536 487.57 Q8.66978 484.046 8.66978 476.39 L8.66978 469.341 Z" fill="#000000" fill-rule="nonzero" fill-opacity="1" /><path clip-path="url(#clip500)" d="M31.5574 445.522 Q31.5574 451.517 36.2564 455.001 Q40.915 458.485 49.0573 458.485 Q57.1996 458.485 61.8987 455.042 Q66.5572 451.558 66.5572 445.522 Q66.5572 439.567 61.8581 436.083 Q57.1591 432.6 49.0573 432.6 Q40.996 432.6 36.2969 436.083 Q31.5574 439.567 31.5574 445.522 M25.238 445.522 Q25.238 435.8 31.5574 430.25 Q37.8768 424.7 49.0573 424.7 Q60.1973 424.7 66.5572 430.25 Q72.8766 435.8 72.8766 445.522 Q72.8766 455.285 66.5572 460.834 Q60.1973 466.344 49.0573 466.344 Q37.8768 466.344 31.5574 460.834 Q25.238 455.285 25.238 445.522 Z" fill="#000000" fill-rule="nonzero" fill-opacity="1" /><path clip-path="url(#clip500)" d="M33.2993 386.055 Q32.5701 387.311 32.246 388.809 Q31.8815 390.268 31.8815 392.05 Q31.8815 398.37 36.0134 401.772 Q40.1048 405.135 47.8015 405.135 L71.7018 405.135 L71.7018 412.629 L26.3317 412.629 L26.3317 405.135 L33.3803 405.135 Q29.2484 402.785 27.2634 399.018 Q25.238 395.25 25.238 389.863 Q25.238 389.093 25.3595 388.161 Q25.4405 387.23 25.6431 386.095 L33.2993 386.055 Z" fill="#000000" fill-rule="nonzero" fill-opacity="1" /><path clip-path="url(#clip500)" d="M35.5903 295.535 Q42.3535 295.535 48.9938 298.445 Q55.5931 301.315 60.5938 305.987 Q65.5535 310.619 68.6276 316.891 Q71.7018 323.162 71.7018 329.556 L71.7018 357.347 Q71.7018 358.331 71.6609 358.741 Q71.6199 359.11 71.4149 359.396 Q71.169 359.683 70.6771 359.683 Q69.8983 359.683 69.5704 359.355 Q69.2015 359.028 69.1605 358.659 Q69.1195 358.29 69.1195 357.347 Q69.1195 355.298 68.9966 354.068 Q68.8736 352.838 68.7096 352.059 Q68.5047 351.24 67.9308 350.83 Q67.357 350.379 66.8651 350.174 Q66.3322 349.969 65.1436 349.682 L20.0554 338.451 Q18.7027 338.123 18.4978 338.123 Q17.8009 338.123 17.555 338.533 Q17.2681 338.902 17.1451 339.968 Q16.9812 342.017 16.9812 343.575 Q16.9812 344.599 16.9402 345.009 Q16.8992 345.378 16.6942 345.706 Q16.4483 345.993 15.9564 345.993 Q15.1776 345.993 14.8497 345.665 Q14.4808 345.296 14.4398 344.886 Q14.3578 344.476 14.3578 343.493 L14.3578 315.292 Q14.3578 309.185 17.2271 304.635 Q20.0554 300.085 24.8511 297.831 Q29.6059 295.535 35.5903 295.535 M32.5161 302.872 Q24.6871 302.872 20.8342 307.135 Q16.9812 311.357 16.9812 318.038 L16.9812 327.015 Q16.9812 329.679 17.473 330.335 Q17.9239 330.991 20.1783 331.565 L66.2503 343.083 Q67.7669 343.493 68.1768 343.493 Q68.6276 343.493 68.7916 343.288 Q68.9146 343.042 68.9966 342.386 Q69.1195 341.648 69.1195 340.541 L69.1195 331.073 Q69.1195 327.425 68.1358 324.105 Q67.111 320.744 65.5125 318.325 Q63.8729 315.907 62.4793 314.349 Q61.0446 312.792 59.61 311.685 Q56.3719 309.185 52.15 307.34 Q47.9281 305.455 44.0751 304.594 Q40.1811 303.692 37.3118 303.282 Q34.4016 302.872 32.5161 302.872 Z" fill="#000000" fill-rule="nonzero" fill-opacity="1" /><path clip-path="url(#clip500)" d="M94.9593 287.192 Q93.8977 287.192 93.5821 287.106 Q93.2665 286.991 92.7787 286.532 L80.2114 275.256 Q73.2678 269.087 67.2137 269.087 Q63.2828 269.087 60.471 271.153 Q57.6591 273.19 57.6591 276.949 Q57.6591 279.531 59.2372 281.712 Q60.8153 283.892 63.6271 284.897 Q63.5698 284.725 63.5698 284.122 Q63.5698 282.659 64.4879 281.855 Q65.4061 281.023 66.6399 281.023 Q68.2179 281.023 68.9926 282.056 Q69.7386 283.06 69.7386 284.065 Q69.7386 284.466 69.6526 285.011 Q69.5665 285.528 68.7631 286.36 Q67.931 287.192 66.4677 287.192 Q62.3647 287.192 59.0937 284.093 Q55.8228 280.966 55.8228 276.203 Q55.8228 270.809 59.0363 267.28 Q62.2212 263.722 67.2137 263.722 Q68.9639 263.722 70.5707 264.267 Q72.1488 264.783 73.3826 265.501 Q74.6164 266.189 76.5961 268.083 Q78.5759 269.977 79.9819 271.497 Q81.3878 273.018 84.3718 276.432 L90.4259 282.659 L90.4259 272.071 Q90.4259 266.907 89.9669 266.505 Q89.1348 265.931 84.7448 265.214 L84.7448 263.722 L94.9593 265.386 L94.9593 287.192 Z" fill="#000000" fill-rule="nonzero" fill-opacity="1" /><polyline clip-path="url(#clip502)" style="stroke:#000000; stroke-linecap:round; stroke-linejoin:round; stroke-width:8; stroke-opacity:1; fill:none" points="321.66,86.5699 325.612,85.8189 329.564,85.8189 333.515,85.8189 337.467,85.8189 341.419,85.8189 345.371,85.8189 349.323,85.8189 353.274,85.8189 357.226,85.8189 361.178,85.8189 365.13,85.8189 369.082,85.8189 373.033,85.8189 376.985,85.8189 380.937,85.8189 384.889,85.8189 388.84,85.8189 392.792,85.8189 396.744,85.8189 400.696,85.8189 404.648,85.8189 408.599,85.8189 412.551,85.8189 416.503,85.8189 420.455,85.8189 424.406,85.8189 428.358,85.8189 432.31,85.8189 436.262,85.8189 440.214,85.8189 444.165,85.8189 448.117,85.8189 452.069,85.8189 456.021,85.8189 459.972,85.8189 463.924,85.8189 467.876,85.8189 471.828,85.8189 475.78,85.8189 479.731,85.8189 483.683,85.8189 487.635,85.8189 491.587,85.8189 495.538,85.8189 499.49,85.8189 503.442,85.8189 507.394,85.8189 511.346,85.819 515.297,85.8189 519.249,85.8189 523.201,85.8189 527.153,85.8189 531.104,85.8189 535.056,85.8189 539.008,85.8189 542.96,85.8189 546.912,85.8189 550.863,85.8189 554.815,85.8189 558.767,85.8189 562.719,85.8189 566.67,85.8189 570.622,85.8189 574.574,85.8189 578.526,85.8189 582.478,85.8189 586.429,85.8189 590.381,85.8189 594.333,85.8189 598.285,85.8189 602.236,85.8189 606.188,85.8189 610.14,85.8189 614.092,85.8189 618.044,85.8189 621.995,85.8189 625.947,85.8189 629.899,85.8189 633.851,85.8189 637.802,85.8189 641.754,85.8189 645.706,85.8189 649.658,85.8189 653.61,85.8189 657.561,85.8189 661.513,85.8189 665.465,85.8189 669.417,85.8189 673.368,85.8189 677.32,85.8189 681.272,85.8189 685.224,85.8189 689.176,85.8189 693.127,85.8189 697.079,85.8189 701.031,85.8189 704.983,85.8189 708.934,85.8189 712.886,85.8189 716.838,85.8189 720.79,85.8189 724.742,85.8189 728.693,85.8189 732.645,85.8189 736.597,85.8189 740.549,85.8189 744.5,85.8189 748.452,85.8189 752.404,85.8189 756.356,85.8189 760.308,85.8189 764.259,85.8189 768.211,85.8189 772.163,85.8189 776.115,85.8189 780.067,85.8189 784.018,85.8189 787.97,85.8189 791.922,85.8189 795.874,85.8189 799.825,85.8189 803.777,85.8189 807.729,85.8189 811.681,85.8189 815.633,85.8189 819.584,85.819 823.536,85.8189 827.488,85.8189 831.44,85.8189 835.391,85.8189 839.343,85.8189 843.295,85.8189 847.247,85.8189 851.199,85.8189 855.15,85.823 859.102,85.8189 863.054,85.8189 867.006,85.8189 870.957,85.8189 874.909,85.8189 878.861,85.8189 882.813,85.8189 886.765,85.8189 890.716,85.8189 894.668,85.8189 898.62,85.8189 902.572,85.8189 906.523,85.8189 910.475,85.8189 914.427,85.8189 918.379,85.8189 922.331,85.8189 926.282,85.8189 930.234,85.8189 934.186,85.8189 938.138,85.8189 942.089,85.8189 946.041,85.8189 949.993,85.8189 953.945,85.8189 957.897,85.8189 961.848,85.8189 965.8,85.8189 969.752,85.8189 973.704,85.8189 977.655,85.8189 981.607,85.8189 985.559,85.8189 989.511,85.8189 993.463,85.8189 997.414,85.8189 1001.37,85.8189 1005.32,85.8189 1009.27,85.8189 1013.22,85.8189 1017.17,85.8189 1021.13,85.8189 1025.08,85.8189 1029.03,85.8189 1032.98,85.8189 1036.93,85.8189 1040.88,85.8189 1044.84,85.8189 1048.79,85.8189 1052.74,85.8189 1056.69,85.819 1060.64,85.8189 1064.59,85.8189 1068.55,85.8189 1072.5,85.8189 1076.45,85.819 1080.4,85.8189 1084.35,85.8189 1088.31,85.8189 1092.26,85.8189 1096.21,85.8189 1100.16,85.8189 1104.11,85.8189 1108.06,85.8189 1112.02,85.8189 1115.97,85.8189 1119.92,85.8189 1123.87,85.8189 1127.82,85.8189 1131.77,85.8189 1135.73,85.8189 1139.68,85.8189 1143.63,85.8189 1147.58,85.8189 1151.53,85.8189 1155.49,85.8189 1159.44,85.8189 1163.39,85.8189 1167.34,85.8189 1171.29,85.8189 1175.24,85.8189 1179.2,85.8189 1183.15,85.8189 1187.1,85.8189 1191.05,85.8189 1195,85.8189 1198.96,85.8189 1202.91,85.819 1206.86,85.8189 1210.81,85.8189 1214.76,85.8189 1218.71,85.819 1222.67,85.8189 1226.62,85.8189 1230.57,85.8189 1234.52,85.8189 1238.47,85.8189 1242.42,85.8189 1246.38,85.8189 1250.33,85.8189 1254.28,85.8189 1258.23,85.8189 1262.18,85.8189 1266.14,85.8189 1270.09,85.8189 1274.04,85.8189 1277.99,85.8189 1281.94,85.819 1285.89,85.8189 1289.85,85.819 1293.8,85.8189 1297.75,85.8189 1301.7,85.8189 1305.65,85.8189 1309.6,85.8189 1313.56,85.8189 1317.51,85.8189 1321.46,85.8189 1325.41,85.8189 1329.36,85.8214 1333.32,85.8866 1337.27,86.0399 1341.22,86.2815 1345.17,86.6114 1349.12,87.0296 1353.07,87.5361 1357.03,88.1309 1360.98,88.814 1364.93,89.5853 1368.88,90.4447 1372.83,91.3922 1376.79,92.4278 1380.74,93.5511 1384.69,94.7622 1388.64,96.0608 1392.59,97.4469 1396.54,98.9201 1400.5,100.48 1404.45,102.127 1408.4,103.861 1412.35,105.681 1416.3,107.587 1420.25,109.578 1424.21,111.655 1428.16,113.817 1432.11,116.064 1436.06,118.395 1440.01,120.81 1443.97,123.308 1447.92,125.89 1451.87,128.554 1455.82,131.301 1459.77,134.13 1463.72,137.04 1467.68,140.03 1471.63,143.101 1475.58,146.252 1479.53,149.482 1483.48,152.791 1487.43,156.178 1491.39,159.642 1495.34,163.184 1499.29,166.801 1503.24,170.495 1507.19,174.263 1511.15,178.106 1515.1,182.022 1519.05,186.012 1523,190.073 1526.95,194.206 1530.9,198.41 1534.86,202.684 1538.81,207.028 1542.76,211.44 1546.71,215.919 1550.66,220.466 1554.62,225.079 1558.57,229.757 1562.52,234.5 1566.47,239.306 1570.42,244.175 1574.37,249.106 1578.33,254.098 1582.28,259.15 1586.23,264.262 1590.18,269.432 1594.13,274.659 1598.08,279.943 1602.04,285.282 1605.99,290.676 1609.94,296.124 1613.89,301.624 1617.84,307.177 1621.8,312.78 1625.75,318.433 1629.7,324.134 1633.65,329.884 1637.6,335.68 1641.55,341.522 1645.51,347.409 1649.46,353.34 1653.41,359.314 1657.36,365.329 1661.31,371.385 1665.26,377.481 1669.22,383.615 1673.17,389.787 1677.12,395.995 1681.07,402.239 1685.02,408.517 1688.98,414.829 1692.93,421.173 1696.88,427.548 1700.83,433.953 1704.78,440.388 1708.73,446.85 1712.69,453.34 1716.64,459.855 1720.59,466.396 1724.54,472.96 1728.49,479.547 1732.45,486.155 1736.4,492.784 1740.35,499.433 1744.3,506.1 1748.25,512.784 1752.2,519.485 1756.16,526.202 1760.11,532.932 1764.06,539.676 1768.01,546.432 1771.96,553.199 1775.91,559.976 1779.87,566.762 1783.82,573.556 1787.77,580.357 1791.72,587.165 1795.67,593.977 1799.63,600.793 1803.58,607.612 1807.53,614.434 1811.48,621.256 1815.43,628.078 1819.38,634.899 1823.34,641.719 1827.29,648.535 1831.24,655.348 1835.19,662.156 1839.14,668.958 1843.09,675.754 1847.05,682.542 1851,689.321 1854.95,696.091 1858.9,702.851 1862.85,709.6 1866.81,716.336 1870.76,723.06 1874.71,729.77 1878.66,736.466 1882.61,743.146 1886.56,749.809 1890.52,756.456 1894.47,763.085 1898.42,769.695 1902.37,776.285 1906.32,782.855 1910.28,789.405 1914.23,795.932 1918.18,802.437 1922.13,808.919 1926.08,815.377 1930.03,821.81 1933.99,828.218 1937.94,834.6 1941.89,840.955 1945.84,847.283 1949.79,853.583 1953.74,859.854 1957.7,866.096 1961.65,872.308 1965.6,878.489 1969.55,884.64 1973.5,890.759 1977.46,896.846 1981.41,902.9 1985.36,908.92 1989.31,914.907 1993.26,920.86 1997.21,926.778 2001.17,932.661 2005.12,938.508 2009.07,944.318 2013.02,950.092 2016.97,955.83 2020.93,961.529 2024.88,967.191 2028.83,972.814 2032.78,978.399 2036.73,983.945 2040.68,989.451 2044.64,994.918 2048.59,1000.34 2052.54,1005.73 2056.49,1011.08 2060.44,1016.38 2064.39,1021.64 2068.35,1026.87 2072.3,1032.05 2076.25,1037.18 2080.2,1042.28 2084.15,1047.33 2088.11,1052.34 2092.06,1057.31 2096.01,1062.24 2099.96,1067.12 2103.91,1071.96 2107.86,1076.75 2111.82,1081.5 2115.77,1086.21 2119.72,1090.87 2123.67,1095.49 2127.62,1100.07 2131.57,1104.6 2135.53,1109.09 2139.48,1113.53 2143.43,1117.93 2147.38,1122.28 2151.33,1126.59 2155.29,1130.9 2159.24,1135.75 2163.19,1141.29 2167.14,1147.46 2171.09,1154.21 2175.04,1161.49 2179,1169.22 2182.95,1177.34 2186.9,1185.8 2190.85,1194.53 2194.8,1203.46 2198.76,1212.53 2202.71,1221.68 2206.66,1230.86 2210.61,1240 2214.56,1249.06 2218.51,1257.99 2222.47,1266.75 2226.42,1275.3 2230.37,1283.61 2234.32,1291.64 2238.27,1299.37 2242.22,1306.78 2246.18,1313.86 2250.13,1320.59 2254.08,1326.96 2258.03,1332.98 2261.98,1338.63 2265.94,1343.93 2269.89,1348.87 2273.84,1353.47 2277.79,1357.73 2281.74,1361.66 2285.69,1365.28 2289.65,1368.61 2293.6,1371.65 "/>
<polyline clip-path="url(#clip502)" style="stroke:#000000; stroke-linecap:round; stroke-linejoin:round; stroke-width:8; stroke-opacity:1; fill:none" points="444.165,2773.2 444.165,-1315.73 "/>
<polyline clip-path="url(#clip502)" style="stroke:#000000; stroke-linecap:round; stroke-linejoin:round; stroke-width:4; stroke-opacity:1; fill:none" points="-1827.75,1204.77 4443.01,1204.77 "/>
<polyline clip-path="url(#clip502)" style="stroke:#000000; stroke-linecap:round; stroke-linejoin:round; stroke-width:8; stroke-opacity:1; fill:none" stroke-dasharray="32, 20" points="683.853,2773.2 683.853,-1315.73 "/>
</svg>
