<?xml version="1.0" encoding="utf-8"?>
<svg xmlns="http://www.w3.org/2000/svg" xmlns:xlink="http://www.w3.org/1999/xlink" width="600" height="400" viewBox="0 0 2400 1600">
<defs>
  <clipPath id="clip660">
    <rect x="0" y="0" width="2400" height="1600"/>
  </clipPath>
</defs>
<path clip-path="url(#clip660)" d="M0 1600 L2400 1600 L2400 0 L0 0  Z" fill="#ffffff" fill-rule="evenodd" fill-opacity="1"/>
<defs>
  <clipPath id="clip661">
    <rect x="480" y="0" width="1681" height="1600"/>
  </clipPath>
</defs>
<defs>
  <clipPath id="clip662">
    <rect x="321" y="47" width="2032" height="1305"/>
  </clipPath>
</defs>
<path clip-path="url(#clip660)" d="M321.355 1351.37 L2352.76 1351.37 L2352.76 47.2441 L321.355 47.2441  Z" fill="#ffffff" fill-rule="evenodd" fill-opacity="1"/>
<polyline clip-path="url(#clip662)" style="stroke:#000000; stroke-linecap:round; stroke-linejoin:round; stroke-width:2; stroke-opacity:0.1; fill:none" points="570.489,1351.37 570.489,47.2441 "/>
<polyline clip-path="url(#clip662)" style="stroke:#000000; stroke-linecap:round; stroke-linejoin:round; stroke-width:2; stroke-opacity:0.1; fill:none" points="953.772,1351.37 953.772,47.2441 "/>
<polyline clip-path="url(#clip662)" style="stroke:#000000; stroke-linecap:round; stroke-linejoin:round; stroke-width:2; stroke-opacity:0.1; fill:none" points="1337.06,1351.37 1337.06,47.2441 "/>
<polyline clip-path="url(#clip662)" style="stroke:#000000; stroke-linecap:round; stroke-linejoin:round; stroke-width:2; stroke-opacity:0.1; fill:none" points="1720.34,1351.37 1720.34,47.2441 "/>
<polyline clip-path="url(#clip662)" style="stroke:#000000; stroke-linecap:round; stroke-linejoin:round; stroke-width:2; stroke-opacity:0.1; fill:none" points="2103.62,1351.37 2103.62,47.2441 "/>
<polyline clip-path="url(#clip660)" style="stroke:#000000; stroke-linecap:round; stroke-linejoin:round; stroke-width:4; stroke-opacity:1; fill:none" points="321.355,1351.37 2352.76,1351.37 "/>
<polyline clip-path="url(#clip660)" style="stroke:#000000; stroke-linecap:round; stroke-linejoin:round; stroke-width:4; stroke-opacity:1; fill:none" points="570.489,1351.37 570.489,1332.47 "/>
<polyline clip-path="url(#clip660)" style="stroke:#000000; stroke-linecap:round; stroke-linejoin:round; stroke-width:4; stroke-opacity:1; fill:none" points="953.772,1351.37 953.772,1332.47 "/>
<polyline clip-path="url(#clip660)" style="stroke:#000000; stroke-linecap:round; stroke-linejoin:round; stroke-width:4; stroke-opacity:1; fill:none" points="1337.06,1351.37 1337.06,1332.47 "/>
<polyline clip-path="url(#clip660)" style="stroke:#000000; stroke-linecap:round; stroke-linejoin:round; stroke-width:4; stroke-opacity:1; fill:none" points="1720.34,1351.37 1720.34,1332.47 "/>
<polyline clip-path="url(#clip660)" style="stroke:#000000; stroke-linecap:round; stroke-linejoin:round; stroke-width:4; stroke-opacity:1; fill:none" points="2103.62,1351.37 2103.62,1332.47 "/>
<path clip-path="url(#clip660)" d="M547.792 1382.29 Q544.181 1382.29 542.353 1385.85 Q540.547 1389.39 540.547 1396.52 Q540.547 1403.63 542.353 1407.19 Q544.181 1410.73 547.792 1410.73 Q551.427 1410.73 553.232 1407.19 Q555.061 1403.63 555.061 1396.52 Q555.061 1389.39 553.232 1385.85 Q551.427 1382.29 547.792 1382.29 M547.792 1378.58 Q553.603 1378.58 556.658 1383.19 Q559.737 1387.77 559.737 1396.52 Q559.737 1405.25 556.658 1409.85 Q553.603 1414.44 547.792 1414.44 Q541.982 1414.44 538.904 1409.85 Q535.848 1405.25 535.848 1396.52 Q535.848 1387.77 538.904 1383.19 Q541.982 1378.58 547.792 1378.58 Z" fill="#000000" fill-rule="nonzero" fill-opacity="1" /><path clip-path="url(#clip660)" d="M567.954 1407.89 L572.839 1407.89 L572.839 1413.77 L567.954 1413.77 L567.954 1407.89 Z" fill="#000000" fill-rule="nonzero" fill-opacity="1" /><path clip-path="url(#clip660)" d="M593.602 1394.62 Q590.454 1394.62 588.602 1396.78 Q586.774 1398.93 586.774 1402.68 Q586.774 1406.41 588.602 1408.58 Q590.454 1410.73 593.602 1410.73 Q596.75 1410.73 598.579 1408.58 Q600.431 1406.41 600.431 1402.68 Q600.431 1398.93 598.579 1396.78 Q596.75 1394.62 593.602 1394.62 M602.885 1379.97 L602.885 1384.23 Q601.125 1383.4 599.32 1382.96 Q597.537 1382.52 595.778 1382.52 Q591.149 1382.52 588.695 1385.64 Q586.264 1388.77 585.917 1395.09 Q587.283 1393.07 589.343 1392.01 Q591.403 1390.92 593.88 1390.92 Q599.088 1390.92 602.098 1394.09 Q605.13 1397.24 605.13 1402.68 Q605.13 1408 601.982 1411.22 Q598.834 1414.44 593.602 1414.44 Q587.607 1414.44 584.436 1409.85 Q581.264 1405.25 581.264 1396.52 Q581.264 1388.33 585.153 1383.47 Q589.042 1378.58 595.593 1378.58 Q597.352 1378.58 599.135 1378.93 Q600.94 1379.28 602.885 1379.97 Z" fill="#000000" fill-rule="nonzero" fill-opacity="1" /><path clip-path="url(#clip660)" d="M931.203 1382.29 Q927.592 1382.29 925.763 1385.85 Q923.958 1389.39 923.958 1396.52 Q923.958 1403.63 925.763 1407.19 Q927.592 1410.73 931.203 1410.73 Q934.837 1410.73 936.643 1407.19 Q938.471 1403.63 938.471 1396.52 Q938.471 1389.39 936.643 1385.85 Q934.837 1382.29 931.203 1382.29 M931.203 1378.58 Q937.013 1378.58 940.069 1383.19 Q943.147 1387.77 943.147 1396.52 Q943.147 1405.25 940.069 1409.85 Q937.013 1414.44 931.203 1414.44 Q925.393 1414.44 922.314 1409.85 Q919.259 1405.25 919.259 1396.52 Q919.259 1387.77 922.314 1383.19 Q925.393 1378.58 931.203 1378.58 Z" fill="#000000" fill-rule="nonzero" fill-opacity="1" /><path clip-path="url(#clip660)" d="M951.365 1407.89 L956.249 1407.89 L956.249 1413.77 L951.365 1413.77 L951.365 1407.89 Z" fill="#000000" fill-rule="nonzero" fill-opacity="1" /><path clip-path="url(#clip660)" d="M976.434 1397.35 Q973.101 1397.35 971.18 1399.14 Q969.281 1400.92 969.281 1404.04 Q969.281 1407.17 971.18 1408.95 Q973.101 1410.73 976.434 1410.73 Q979.767 1410.73 981.689 1408.95 Q983.61 1407.15 983.61 1404.04 Q983.61 1400.92 981.689 1399.14 Q979.791 1397.35 976.434 1397.35 M971.758 1395.36 Q968.749 1394.62 967.059 1392.56 Q965.393 1390.5 965.393 1387.54 Q965.393 1383.4 968.332 1380.99 Q971.295 1378.58 976.434 1378.58 Q981.596 1378.58 984.536 1380.99 Q987.476 1383.4 987.476 1387.54 Q987.476 1390.5 985.786 1392.56 Q984.119 1394.62 981.133 1395.36 Q984.513 1396.15 986.388 1398.44 Q988.286 1400.73 988.286 1404.04 Q988.286 1409.07 985.207 1411.75 Q982.152 1414.44 976.434 1414.44 Q970.717 1414.44 967.638 1411.75 Q964.582 1409.07 964.582 1404.04 Q964.582 1400.73 966.48 1398.44 Q968.379 1396.15 971.758 1395.36 M970.045 1387.98 Q970.045 1390.67 971.712 1392.17 Q973.402 1393.67 976.434 1393.67 Q979.443 1393.67 981.133 1392.17 Q982.846 1390.67 982.846 1387.98 Q982.846 1385.29 981.133 1383.79 Q979.443 1382.29 976.434 1382.29 Q973.402 1382.29 971.712 1383.79 Q970.045 1385.29 970.045 1387.98 Z" fill="#000000" fill-rule="nonzero" fill-opacity="1" /><path clip-path="url(#clip660)" d="M1304.21 1409.83 L1311.85 1409.83 L1311.85 1383.47 L1303.54 1385.13 L1303.54 1380.87 L1311.8 1379.21 L1316.48 1379.21 L1316.48 1409.83 L1324.12 1409.83 L1324.12 1413.77 L1304.21 1413.77 L1304.21 1409.83 Z" fill="#000000" fill-rule="nonzero" fill-opacity="1" /><path clip-path="url(#clip660)" d="M1333.56 1407.89 L1338.44 1407.89 L1338.44 1413.77 L1333.56 1413.77 L1333.56 1407.89 Z" fill="#000000" fill-rule="nonzero" fill-opacity="1" /><path clip-path="url(#clip660)" d="M1358.63 1382.29 Q1355.02 1382.29 1353.19 1385.85 Q1351.38 1389.39 1351.38 1396.52 Q1351.38 1403.63 1353.19 1407.19 Q1355.02 1410.73 1358.63 1410.73 Q1362.26 1410.73 1364.07 1407.19 Q1365.9 1403.63 1365.9 1396.52 Q1365.9 1389.39 1364.07 1385.85 Q1362.26 1382.29 1358.63 1382.29 M1358.63 1378.58 Q1364.44 1378.58 1367.5 1383.19 Q1370.57 1387.77 1370.57 1396.52 Q1370.57 1405.25 1367.5 1409.85 Q1364.44 1414.44 1358.63 1414.44 Q1352.82 1414.44 1349.74 1409.85 Q1346.69 1405.25 1346.69 1396.52 Q1346.69 1387.77 1349.74 1383.19 Q1352.82 1378.58 1358.63 1378.58 Z" fill="#000000" fill-rule="nonzero" fill-opacity="1" /><path clip-path="url(#clip660)" d="M1688.29 1409.83 L1695.93 1409.83 L1695.93 1383.47 L1687.62 1385.13 L1687.62 1380.87 L1695.88 1379.21 L1700.56 1379.21 L1700.56 1409.83 L1708.2 1409.83 L1708.2 1413.77 L1688.29 1413.77 L1688.29 1409.83 Z" fill="#000000" fill-rule="nonzero" fill-opacity="1" /><path clip-path="url(#clip660)" d="M1717.64 1407.89 L1722.53 1407.89 L1722.53 1413.77 L1717.64 1413.77 L1717.64 1407.89 Z" fill="#000000" fill-rule="nonzero" fill-opacity="1" /><path clip-path="url(#clip660)" d="M1736.74 1409.83 L1753.06 1409.83 L1753.06 1413.77 L1731.11 1413.77 L1731.11 1409.83 Q1733.78 1407.08 1738.36 1402.45 Q1742.97 1397.79 1744.15 1396.45 Q1746.39 1393.93 1747.27 1392.19 Q1748.17 1390.43 1748.17 1388.74 Q1748.17 1385.99 1746.23 1384.25 Q1744.31 1382.52 1741.21 1382.52 Q1739.01 1382.52 1736.55 1383.28 Q1734.12 1384.04 1731.35 1385.6 L1731.35 1380.87 Q1734.17 1379.74 1736.62 1379.16 Q1739.08 1378.58 1741.11 1378.58 Q1746.48 1378.58 1749.68 1381.27 Q1752.87 1383.95 1752.87 1388.44 Q1752.87 1390.57 1752.06 1392.49 Q1751.28 1394.39 1749.17 1396.98 Q1748.59 1397.66 1745.49 1400.87 Q1742.39 1404.07 1736.74 1409.83 Z" fill="#000000" fill-rule="nonzero" fill-opacity="1" /><path clip-path="url(#clip660)" d="M2070.53 1409.83 L2078.17 1409.83 L2078.17 1383.47 L2069.86 1385.13 L2069.86 1380.87 L2078.12 1379.21 L2082.8 1379.21 L2082.8 1409.83 L2090.44 1409.83 L2090.44 1413.77 L2070.53 1413.77 L2070.53 1409.83 Z" fill="#000000" fill-rule="nonzero" fill-opacity="1" /><path clip-path="url(#clip660)" d="M2099.88 1407.89 L2104.77 1407.89 L2104.77 1413.77 L2099.88 1413.77 L2099.88 1407.89 Z" fill="#000000" fill-rule="nonzero" fill-opacity="1" /><path clip-path="url(#clip660)" d="M2127.8 1383.28 L2115.99 1401.73 L2127.8 1401.73 L2127.8 1383.28 M2126.57 1379.21 L2132.45 1379.21 L2132.45 1401.73 L2137.38 1401.73 L2137.38 1405.62 L2132.45 1405.62 L2132.45 1413.77 L2127.8 1413.77 L2127.8 1405.62 L2112.2 1405.62 L2112.2 1401.1 L2126.57 1379.21 Z" fill="#000000" fill-rule="nonzero" fill-opacity="1" /><path clip-path="url(#clip660)" d="M1348.86 1441.99 Q1348.86 1448.76 1345.95 1455.4 Q1343.08 1462 1338.4 1467 Q1333.77 1471.96 1327.5 1475.03 Q1321.23 1478.1 1314.84 1478.1 L1287.05 1478.1 Q1286.06 1478.1 1285.65 1478.06 Q1285.28 1478.02 1285 1477.82 Q1284.71 1477.57 1284.71 1477.08 Q1284.71 1476.3 1285.04 1475.97 Q1285.36 1475.6 1285.73 1475.56 Q1286.1 1475.52 1287.05 1475.52 Q1289.09 1475.52 1290.32 1475.4 Q1291.55 1475.28 1292.33 1475.11 Q1293.15 1474.91 1293.56 1474.33 Q1294.01 1473.76 1294.22 1473.27 Q1294.42 1472.73 1294.71 1471.55 L1305.94 1426.46 Q1306.27 1425.1 1306.27 1424.9 Q1306.27 1424.2 1305.86 1423.96 Q1305.49 1423.67 1304.42 1423.55 Q1302.38 1423.38 1300.82 1423.38 Q1299.79 1423.38 1299.38 1423.34 Q1299.01 1423.3 1298.69 1423.1 Q1298.4 1422.85 1298.4 1422.36 Q1298.4 1421.58 1298.73 1421.25 Q1299.1 1420.88 1299.51 1420.84 Q1299.92 1420.76 1300.9 1420.76 L1329.1 1420.76 Q1335.21 1420.76 1339.76 1423.63 Q1344.31 1426.46 1346.56 1431.25 Q1348.86 1436.01 1348.86 1441.99 M1341.52 1438.92 Q1341.52 1431.09 1337.26 1427.24 Q1333.04 1423.38 1326.35 1423.38 L1317.38 1423.38 Q1314.71 1423.38 1314.06 1423.88 Q1313.4 1424.33 1312.83 1426.58 L1301.31 1472.65 Q1300.9 1474.17 1300.9 1474.58 Q1300.9 1475.03 1301.1 1475.19 Q1301.35 1475.32 1302.01 1475.4 Q1302.74 1475.52 1303.85 1475.52 L1313.32 1475.52 Q1316.97 1475.52 1320.29 1474.54 Q1323.65 1473.51 1326.07 1471.91 Q1328.49 1470.27 1330.04 1468.88 Q1331.6 1467.45 1332.71 1466.01 Q1335.21 1462.77 1337.05 1458.55 Q1338.94 1454.33 1339.8 1450.48 Q1340.7 1446.58 1341.11 1443.71 Q1341.52 1440.8 1341.52 1438.92 Z" fill="#000000" fill-rule="nonzero" fill-opacity="1" /><path clip-path="url(#clip660)" d="M1357.2 1501.36 Q1357.2 1500.3 1357.29 1499.98 Q1357.4 1499.67 1357.86 1499.18 L1369.14 1486.61 Q1375.3 1479.67 1375.3 1473.62 Q1375.3 1469.68 1373.24 1466.87 Q1371.2 1464.06 1367.44 1464.06 Q1364.86 1464.06 1362.68 1465.64 Q1360.5 1467.22 1359.5 1470.03 Q1359.67 1469.97 1360.27 1469.97 Q1361.73 1469.97 1362.54 1470.89 Q1363.37 1471.81 1363.37 1473.04 Q1363.37 1474.62 1362.34 1475.39 Q1361.33 1476.14 1360.33 1476.14 Q1359.93 1476.14 1359.38 1476.05 Q1358.86 1475.97 1358.03 1475.17 Q1357.2 1474.33 1357.2 1472.87 Q1357.2 1468.77 1360.3 1465.5 Q1363.43 1462.22 1368.19 1462.22 Q1373.58 1462.22 1377.11 1465.44 Q1380.67 1468.62 1380.67 1473.62 Q1380.67 1475.37 1380.13 1476.97 Q1379.61 1478.55 1378.89 1479.78 Q1378.2 1481.02 1376.31 1483 Q1374.42 1484.98 1372.89 1486.38 Q1371.37 1487.79 1367.96 1490.77 L1361.73 1496.83 L1372.32 1496.83 Q1377.49 1496.83 1377.89 1496.37 Q1378.46 1495.54 1379.18 1491.15 L1380.67 1491.15 L1379.01 1501.36 L1357.2 1501.36 Z" fill="#000000" fill-rule="nonzero" fill-opacity="1" /><path clip-path="url(#clip660)" d="M1284.71 1523.76 L1398.36 1523.76 L1398.36 1519.28 L1284.71 1519.28  Z" fill="#000000" fill-rule="evenodd" fill-opacity="1"/>
<path clip-path="url(#clip660)" d="M1358.49 1552.04 Q1358.49 1550.68 1358.13 1549.58 Q1357.8 1548.43 1357.26 1547.65 Q1356.77 1546.83 1355.83 1546.22 Q1354.89 1545.56 1354.11 1545.15 Q1353.33 1544.74 1352.02 1544.5 Q1350.71 1544.21 1349.85 1544.09 Q1348.98 1543.92 1347.51 1543.84 Q1346.03 1543.76 1345.3 1543.76 Q1344.6 1543.76 1343.21 1543.76 Q1338.82 1543.76 1338.08 1543.84 Q1336.98 1544 1336.57 1544.66 Q1336.16 1545.27 1335.75 1546.95 L1330.29 1568.84 L1339.68 1568.84 Q1344.8 1568.84 1348.33 1567.41 Q1351.85 1565.97 1353.86 1563.97 Q1356.08 1561.75 1357.26 1558.19 Q1358.49 1554.62 1358.49 1552.04 M1367.64 1590.69 Q1367.64 1591.14 1367.27 1592.17 Q1366.94 1593.19 1366.12 1594.63 Q1365.3 1596.02 1364.19 1597.29 Q1363.09 1598.56 1361.32 1599.42 Q1359.56 1600.32 1357.55 1600.32 Q1357.06 1600.32 1356.57 1600.28 Q1356.08 1600.28 1354.85 1600.08 Q1353.66 1599.91 1352.67 1599.58 Q1351.69 1599.3 1350.46 1598.6 Q1349.23 1597.95 1348.37 1597.04 Q1347.55 1596.1 1346.98 1594.63 Q1346.4 1593.11 1346.4 1591.26 Q1346.4 1589.62 1347.76 1584.13 Q1348.94 1579.46 1348.94 1578.31 Q1348.94 1577.04 1348.53 1575.85 Q1348.17 1574.66 1347.22 1573.43 Q1346.32 1572.2 1344.39 1571.47 Q1342.47 1570.69 1339.76 1570.69 L1329.8 1570.69 L1324.23 1592.94 Q1324.23 1592.99 1324.1 1593.56 Q1323.98 1594.09 1323.98 1594.38 Q1323.98 1594.91 1324.31 1595.24 Q1324.68 1595.57 1325.58 1595.73 Q1326.48 1595.85 1327.18 1595.9 Q1327.92 1595.9 1329.43 1595.9 Q1331.32 1595.9 1331.65 1596.22 Q1331.81 1596.43 1331.81 1596.8 Q1331.81 1597.37 1331.65 1597.78 Q1331.52 1598.15 1331.2 1598.27 Q1330.91 1598.4 1330.7 1598.44 Q1330.5 1598.48 1330.13 1598.48 L1319.47 1598.23 L1308.9 1598.48 Q1307.71 1598.48 1307.71 1597.54 Q1307.71 1596.72 1308 1596.39 Q1308.28 1596.02 1308.65 1595.98 Q1309.02 1595.9 1309.96 1595.9 Q1312.01 1595.9 1313.24 1595.77 Q1314.47 1595.65 1315.25 1595.49 Q1316.07 1595.28 1316.48 1594.71 Q1316.93 1594.13 1317.14 1593.64 Q1317.34 1593.11 1317.63 1591.92 L1328.86 1546.83 Q1329.19 1545.48 1329.19 1545.27 Q1329.19 1544.5 1328.7 1544.29 Q1328.24 1544.04 1326.93 1543.92 L1323.74 1543.76 Q1322.75 1543.76 1322.34 1543.72 Q1321.97 1543.68 1321.69 1543.47 Q1321.4 1543.27 1321.4 1542.81 Q1321.4 1541.67 1321.89 1541.42 Q1322.38 1541.13 1323.82 1541.13 L1347.76 1541.13 Q1355.91 1541.13 1361.08 1544.7 Q1366.28 1548.27 1366.28 1553.72 Q1366.28 1556.18 1365.18 1558.47 Q1364.07 1560.77 1362.22 1562.57 Q1360.42 1564.38 1358 1565.89 Q1355.58 1567.37 1353 1568.39 Q1350.46 1569.38 1347.84 1569.95 Q1348.98 1570.36 1350.05 1570.97 Q1351.16 1571.59 1352.55 1572.74 Q1353.99 1573.88 1354.85 1575.73 Q1355.71 1577.57 1355.71 1579.83 Q1355.71 1581.43 1355.38 1583.8 Q1354.56 1590.57 1354.56 1593.35 Q1354.56 1596.02 1355.26 1597.25 Q1355.95 1598.48 1357.92 1598.48 Q1359.85 1598.48 1361.98 1596.76 Q1364.15 1594.99 1365.54 1590.85 Q1365.87 1589.67 1366.65 1589.67 Q1366.69 1589.67 1366.73 1589.67 Q1366.82 1589.67 1366.98 1589.75 Q1367.14 1589.79 1367.27 1589.91 Q1367.43 1589.99 1367.51 1590.2 Q1367.64 1590.4 1367.64 1590.69 Z" fill="#000000" fill-rule="nonzero" fill-opacity="1" /><polyline clip-path="url(#clip662)" style="stroke:#000000; stroke-linecap:round; stroke-linejoin:round; stroke-width:2; stroke-opacity:0.1; fill:none" points="321.355,1314.46 2352.76,1314.46 "/>
<polyline clip-path="url(#clip662)" style="stroke:#000000; stroke-linecap:round; stroke-linejoin:round; stroke-width:2; stroke-opacity:0.1; fill:none" points="321.355,1006.88 2352.76,1006.88 "/>
<polyline clip-path="url(#clip662)" style="stroke:#000000; stroke-linecap:round; stroke-linejoin:round; stroke-width:2; stroke-opacity:0.1; fill:none" points="321.355,699.306 2352.76,699.306 "/>
<polyline clip-path="url(#clip662)" style="stroke:#000000; stroke-linecap:round; stroke-linejoin:round; stroke-width:2; stroke-opacity:0.1; fill:none" points="321.355,391.729 2352.76,391.729 "/>
<polyline clip-path="url(#clip662)" style="stroke:#000000; stroke-linecap:round; stroke-linejoin:round; stroke-width:2; stroke-opacity:0.1; fill:none" points="321.355,84.1532 2352.76,84.1532 "/>
<polyline clip-path="url(#clip660)" style="stroke:#000000; stroke-linecap:round; stroke-linejoin:round; stroke-width:4; stroke-opacity:1; fill:none" points="321.355,1351.37 321.355,47.2441 "/>
<polyline clip-path="url(#clip660)" style="stroke:#000000; stroke-linecap:round; stroke-linejoin:round; stroke-width:4; stroke-opacity:1; fill:none" points="321.355,1314.46 340.253,1314.46 "/>
<polyline clip-path="url(#clip660)" style="stroke:#000000; stroke-linecap:round; stroke-linejoin:round; stroke-width:4; stroke-opacity:1; fill:none" points="321.355,1006.88 340.253,1006.88 "/>
<polyline clip-path="url(#clip660)" style="stroke:#000000; stroke-linecap:round; stroke-linejoin:round; stroke-width:4; stroke-opacity:1; fill:none" points="321.355,699.306 340.253,699.306 "/>
<polyline clip-path="url(#clip660)" style="stroke:#000000; stroke-linecap:round; stroke-linejoin:round; stroke-width:4; stroke-opacity:1; fill:none" points="321.355,391.729 340.253,391.729 "/>
<polyline clip-path="url(#clip660)" style="stroke:#000000; stroke-linecap:round; stroke-linejoin:round; stroke-width:4; stroke-opacity:1; fill:none" points="321.355,84.1532 340.253,84.1532 "/>
<path clip-path="url(#clip660)" d="M198.017 1300.26 Q194.406 1300.26 192.578 1303.82 Q190.772 1307.36 190.772 1314.49 Q190.772 1321.6 192.578 1325.16 Q194.406 1328.71 198.017 1328.71 Q201.652 1328.71 203.457 1325.16 Q205.286 1321.6 205.286 1314.49 Q205.286 1307.36 203.457 1303.82 Q201.652 1300.26 198.017 1300.26 M198.017 1296.55 Q203.828 1296.55 206.883 1301.16 Q209.962 1305.74 209.962 1314.49 Q209.962 1323.22 206.883 1327.83 Q203.828 1332.41 198.017 1332.41 Q192.207 1332.41 189.129 1327.83 Q186.073 1323.22 186.073 1314.49 Q186.073 1305.74 189.129 1301.16 Q192.207 1296.55 198.017 1296.55 Z" fill="#000000" fill-rule="nonzero" fill-opacity="1" /><path clip-path="url(#clip660)" d="M218.179 1325.86 L223.064 1325.86 L223.064 1331.74 L218.179 1331.74 L218.179 1325.86 Z" fill="#000000" fill-rule="nonzero" fill-opacity="1" /><path clip-path="url(#clip660)" d="M243.249 1300.26 Q239.638 1300.26 237.809 1303.82 Q236.003 1307.36 236.003 1314.49 Q236.003 1321.6 237.809 1325.16 Q239.638 1328.71 243.249 1328.71 Q246.883 1328.71 248.688 1325.16 Q250.517 1321.6 250.517 1314.49 Q250.517 1307.36 248.688 1303.82 Q246.883 1300.26 243.249 1300.26 M243.249 1296.55 Q249.059 1296.55 252.114 1301.16 Q255.193 1305.74 255.193 1314.49 Q255.193 1323.22 252.114 1327.83 Q249.059 1332.41 243.249 1332.41 Q237.439 1332.41 234.36 1327.83 Q231.304 1323.22 231.304 1314.49 Q231.304 1305.74 234.36 1301.16 Q237.439 1296.55 243.249 1296.55 Z" fill="#000000" fill-rule="nonzero" fill-opacity="1" /><path clip-path="url(#clip660)" d="M273.411 1300.26 Q269.799 1300.26 267.971 1303.82 Q266.165 1307.36 266.165 1314.49 Q266.165 1321.6 267.971 1325.16 Q269.799 1328.71 273.411 1328.71 Q277.045 1328.71 278.85 1325.16 Q280.679 1321.6 280.679 1314.49 Q280.679 1307.36 278.85 1303.82 Q277.045 1300.26 273.411 1300.26 M273.411 1296.55 Q279.221 1296.55 282.276 1301.16 Q285.355 1305.74 285.355 1314.49 Q285.355 1323.22 282.276 1327.83 Q279.221 1332.41 273.411 1332.41 Q267.6 1332.41 264.522 1327.83 Q261.466 1323.22 261.466 1314.49 Q261.466 1305.74 264.522 1301.16 Q267.6 1296.55 273.411 1296.55 Z" fill="#000000" fill-rule="nonzero" fill-opacity="1" /><path clip-path="url(#clip660)" d="M199.013 992.68 Q195.402 992.68 193.573 996.245 Q191.767 999.787 191.767 1006.92 Q191.767 1014.02 193.573 1017.59 Q195.402 1021.13 199.013 1021.13 Q202.647 1021.13 204.453 1017.59 Q206.281 1014.02 206.281 1006.92 Q206.281 999.787 204.453 996.245 Q202.647 992.68 199.013 992.68 M199.013 988.977 Q204.823 988.977 207.879 993.583 Q210.957 998.166 210.957 1006.92 Q210.957 1015.64 207.879 1020.25 Q204.823 1024.83 199.013 1024.83 Q193.203 1024.83 190.124 1020.25 Q187.068 1015.64 187.068 1006.92 Q187.068 998.166 190.124 993.583 Q193.203 988.977 199.013 988.977 Z" fill="#000000" fill-rule="nonzero" fill-opacity="1" /><path clip-path="url(#clip660)" d="M219.175 1018.28 L224.059 1018.28 L224.059 1024.16 L219.175 1024.16 L219.175 1018.28 Z" fill="#000000" fill-rule="nonzero" fill-opacity="1" /><path clip-path="url(#clip660)" d="M238.272 1020.23 L254.591 1020.23 L254.591 1024.16 L232.647 1024.16 L232.647 1020.23 Q235.309 1017.47 239.892 1012.84 Q244.499 1008.19 245.679 1006.85 Q247.925 1004.32 248.804 1002.59 Q249.707 1000.83 249.707 999.139 Q249.707 996.384 247.763 994.648 Q245.841 992.912 242.739 992.912 Q240.54 992.912 238.087 993.676 Q235.656 994.44 232.878 995.991 L232.878 991.268 Q235.702 990.134 238.156 989.555 Q240.61 988.977 242.647 988.977 Q248.017 988.977 251.212 991.662 Q254.406 994.347 254.406 998.838 Q254.406 1000.97 253.596 1002.89 Q252.809 1004.79 250.702 1007.38 Q250.124 1008.05 247.022 1011.27 Q243.92 1014.46 238.272 1020.23 Z" fill="#000000" fill-rule="nonzero" fill-opacity="1" /><path clip-path="url(#clip660)" d="M264.452 989.602 L282.809 989.602 L282.809 993.537 L268.735 993.537 L268.735 1002.01 Q269.753 1001.66 270.772 1001.5 Q271.79 1001.31 272.809 1001.31 Q278.596 1001.31 281.975 1004.49 Q285.355 1007.66 285.355 1013.07 Q285.355 1018.65 281.883 1021.75 Q278.411 1024.83 272.091 1024.83 Q269.915 1024.83 267.647 1024.46 Q265.401 1024.09 262.994 1023.35 L262.994 1018.65 Q265.077 1019.79 267.299 1020.34 Q269.522 1020.9 271.999 1020.9 Q276.003 1020.9 278.341 1018.79 Q280.679 1016.68 280.679 1013.07 Q280.679 1009.46 278.341 1007.36 Q276.003 1005.25 271.999 1005.25 Q270.124 1005.25 268.249 1005.67 Q266.397 1006.08 264.452 1006.96 L264.452 989.602 Z" fill="#000000" fill-rule="nonzero" fill-opacity="1" /><path clip-path="url(#clip660)" d="M198.017 685.104 Q194.406 685.104 192.578 688.669 Q190.772 692.211 190.772 699.34 Q190.772 706.447 192.578 710.011 Q194.406 713.553 198.017 713.553 Q201.652 713.553 203.457 710.011 Q205.286 706.447 205.286 699.34 Q205.286 692.211 203.457 688.669 Q201.652 685.104 198.017 685.104 M198.017 681.401 Q203.828 681.401 206.883 686.007 Q209.962 690.59 209.962 699.34 Q209.962 708.067 206.883 712.673 Q203.828 717.257 198.017 717.257 Q192.207 717.257 189.129 712.673 Q186.073 708.067 186.073 699.34 Q186.073 690.59 189.129 686.007 Q192.207 681.401 198.017 681.401 Z" fill="#000000" fill-rule="nonzero" fill-opacity="1" /><path clip-path="url(#clip660)" d="M218.179 710.706 L223.064 710.706 L223.064 716.586 L218.179 716.586 L218.179 710.706 Z" fill="#000000" fill-rule="nonzero" fill-opacity="1" /><path clip-path="url(#clip660)" d="M233.295 682.026 L251.651 682.026 L251.651 685.961 L237.577 685.961 L237.577 694.433 Q238.596 694.086 239.614 693.924 Q240.633 693.738 241.651 693.738 Q247.438 693.738 250.818 696.91 Q254.198 700.081 254.198 705.498 Q254.198 711.076 250.726 714.178 Q247.253 717.257 240.934 717.257 Q238.758 717.257 236.489 716.886 Q234.244 716.516 231.837 715.775 L231.837 711.076 Q233.92 712.211 236.142 712.766 Q238.364 713.322 240.841 713.322 Q244.846 713.322 247.184 711.215 Q249.522 709.109 249.522 705.498 Q249.522 701.887 247.184 699.78 Q244.846 697.674 240.841 697.674 Q238.966 697.674 237.091 698.09 Q235.239 698.507 233.295 699.387 L233.295 682.026 Z" fill="#000000" fill-rule="nonzero" fill-opacity="1" /><path clip-path="url(#clip660)" d="M273.411 685.104 Q269.799 685.104 267.971 688.669 Q266.165 692.211 266.165 699.34 Q266.165 706.447 267.971 710.011 Q269.799 713.553 273.411 713.553 Q277.045 713.553 278.85 710.011 Q280.679 706.447 280.679 699.34 Q280.679 692.211 278.85 688.669 Q277.045 685.104 273.411 685.104 M273.411 681.401 Q279.221 681.401 282.276 686.007 Q285.355 690.59 285.355 699.34 Q285.355 708.067 282.276 712.673 Q279.221 717.257 273.411 717.257 Q267.6 717.257 264.522 712.673 Q261.466 708.067 261.466 699.34 Q261.466 690.59 264.522 686.007 Q267.6 681.401 273.411 681.401 Z" fill="#000000" fill-rule="nonzero" fill-opacity="1" /><path clip-path="url(#clip660)" d="M199.013 377.528 Q195.402 377.528 193.573 381.093 Q191.767 384.635 191.767 391.764 Q191.767 398.871 193.573 402.435 Q195.402 405.977 199.013 405.977 Q202.647 405.977 204.453 402.435 Q206.281 398.871 206.281 391.764 Q206.281 384.635 204.453 381.093 Q202.647 377.528 199.013 377.528 M199.013 373.824 Q204.823 373.824 207.879 378.431 Q210.957 383.014 210.957 391.764 Q210.957 400.491 207.879 405.097 Q204.823 409.681 199.013 409.681 Q193.203 409.681 190.124 405.097 Q187.068 400.491 187.068 391.764 Q187.068 383.014 190.124 378.431 Q193.203 373.824 199.013 373.824 Z" fill="#000000" fill-rule="nonzero" fill-opacity="1" /><path clip-path="url(#clip660)" d="M219.175 403.13 L224.059 403.13 L224.059 409.009 L219.175 409.009 L219.175 403.13 Z" fill="#000000" fill-rule="nonzero" fill-opacity="1" /><path clip-path="url(#clip660)" d="M233.064 374.449 L255.286 374.449 L255.286 376.44 L242.739 409.009 L237.855 409.009 L249.661 378.385 L233.064 378.385 L233.064 374.449 Z" fill="#000000" fill-rule="nonzero" fill-opacity="1" /><path clip-path="url(#clip660)" d="M264.452 374.449 L282.809 374.449 L282.809 378.385 L268.735 378.385 L268.735 386.857 Q269.753 386.509 270.772 386.347 Q271.79 386.162 272.809 386.162 Q278.596 386.162 281.975 389.334 Q285.355 392.505 285.355 397.921 Q285.355 403.5 281.883 406.602 Q278.411 409.681 272.091 409.681 Q269.915 409.681 267.647 409.31 Q265.401 408.94 262.994 408.199 L262.994 403.5 Q265.077 404.634 267.299 405.19 Q269.522 405.745 271.999 405.745 Q276.003 405.745 278.341 403.639 Q280.679 401.533 280.679 397.921 Q280.679 394.31 278.341 392.204 Q276.003 390.097 271.999 390.097 Q270.124 390.097 268.249 390.514 Q266.397 390.931 264.452 391.81 L264.452 374.449 Z" fill="#000000" fill-rule="nonzero" fill-opacity="1" /><path clip-path="url(#clip660)" d="M188.828 97.4981 L196.467 97.4981 L196.467 71.1325 L188.156 72.7991 L188.156 68.5399 L196.42 66.8732 L201.096 66.8732 L201.096 97.4981 L208.735 97.4981 L208.735 101.433 L188.828 101.433 L188.828 97.4981 Z" fill="#000000" fill-rule="nonzero" fill-opacity="1" /><path clip-path="url(#clip660)" d="M218.179 95.5536 L223.064 95.5536 L223.064 101.433 L218.179 101.433 L218.179 95.5536 Z" fill="#000000" fill-rule="nonzero" fill-opacity="1" /><path clip-path="url(#clip660)" d="M243.249 69.9519 Q239.638 69.9519 237.809 73.5167 Q236.003 77.0584 236.003 84.188 Q236.003 91.2944 237.809 94.8592 Q239.638 98.4008 243.249 98.4008 Q246.883 98.4008 248.688 94.8592 Q250.517 91.2944 250.517 84.188 Q250.517 77.0584 248.688 73.5167 Q246.883 69.9519 243.249 69.9519 M243.249 66.2482 Q249.059 66.2482 252.114 70.8547 Q255.193 75.438 255.193 84.188 Q255.193 92.9148 252.114 97.5212 Q249.059 102.105 243.249 102.105 Q237.439 102.105 234.36 97.5212 Q231.304 92.9148 231.304 84.188 Q231.304 75.438 234.36 70.8547 Q237.439 66.2482 243.249 66.2482 Z" fill="#000000" fill-rule="nonzero" fill-opacity="1" /><path clip-path="url(#clip660)" d="M273.411 69.9519 Q269.799 69.9519 267.971 73.5167 Q266.165 77.0584 266.165 84.188 Q266.165 91.2944 267.971 94.8592 Q269.799 98.4008 273.411 98.4008 Q277.045 98.4008 278.85 94.8592 Q280.679 91.2944 280.679 84.188 Q280.679 77.0584 278.85 73.5167 Q277.045 69.9519 273.411 69.9519 M273.411 66.2482 Q279.221 66.2482 282.276 70.8547 Q285.355 75.438 285.355 84.188 Q285.355 92.9148 282.276 97.5212 Q279.221 102.105 273.411 102.105 Q267.6 102.105 264.522 97.5212 Q261.466 92.9148 261.466 84.188 Q261.466 75.438 264.522 70.8547 Q267.6 66.2482 273.411 66.2482 Z" fill="#000000" fill-rule="nonzero" fill-opacity="1" /><path clip-path="url(#clip660)" d="M103.164 1183.47 L127.226 1183.47 L127.226 1190.97 L64.5991 1190.97 L64.5991 1183.47 L71.4857 1183.47 Q67.4348 1181.12 65.4903 1177.56 Q63.5054 1173.95 63.5054 1168.97 Q63.5054 1160.71 70.0679 1155.56 Q76.6303 1150.38 87.3247 1150.38 Q98.0191 1150.38 104.582 1155.56 Q111.144 1160.71 111.144 1168.97 Q111.144 1173.95 109.2 1177.56 Q107.215 1181.12 103.164 1183.47 M87.3247 1158.11 Q79.1014 1158.11 74.4428 1161.52 Q69.7438 1164.88 69.7438 1170.79 Q69.7438 1176.71 74.4428 1180.11 Q79.1014 1183.47 87.3247 1183.47 Q95.548 1183.47 100.247 1180.11 Q104.906 1176.71 104.906 1170.79 Q104.906 1164.88 100.247 1161.52 Q95.548 1158.11 87.3247 1158.11 Z" fill="#000000" fill-rule="nonzero" fill-opacity="1" /><path clip-path="url(#clip660)" d="M71.5667 1111.73 Q70.8375 1112.99 70.5135 1114.49 Q70.1489 1115.94 70.1489 1117.73 Q70.1489 1124.05 74.2808 1127.45 Q78.3722 1130.81 86.0689 1130.81 L109.969 1130.81 L109.969 1138.31 L64.5991 1138.31 L64.5991 1130.81 L71.6477 1130.81 Q67.5158 1128.46 65.5308 1124.69 Q63.5054 1120.93 63.5054 1115.54 Q63.5054 1114.77 63.6269 1113.84 Q63.7079 1112.91 63.9105 1111.77 L71.5667 1111.73 Z" fill="#000000" fill-rule="nonzero" fill-opacity="1" /><path clip-path="url(#clip660)" d="M69.8248 1088.16 Q69.8248 1094.15 74.5238 1097.63 Q79.1824 1101.12 87.3247 1101.12 Q95.467 1101.12 100.166 1097.68 Q104.825 1094.19 104.825 1088.16 Q104.825 1082.2 100.126 1078.72 Q95.4265 1075.23 87.3247 1075.23 Q79.2634 1075.23 74.5644 1078.72 Q69.8248 1082.2 69.8248 1088.16 M63.5054 1088.16 Q63.5054 1078.43 69.8248 1072.88 Q76.1442 1067.33 87.3247 1067.33 Q98.4647 1067.33 104.825 1072.88 Q111.144 1078.43 111.144 1088.16 Q111.144 1097.92 104.825 1103.47 Q98.4647 1108.98 87.3247 1108.98 Q76.1442 1108.98 69.8248 1103.47 Q63.5054 1097.92 63.5054 1088.16 Z" fill="#000000" fill-rule="nonzero" fill-opacity="1" /><path clip-path="url(#clip660)" d="M46.9372 1032.01 L53.1351 1032.01 L53.1351 1039.14 Q53.1351 1043.15 54.7554 1044.73 Q56.3758 1046.27 60.5887 1046.27 L64.5991 1046.27 L64.5991 1034 L70.3919 1034 L70.3919 1046.27 L109.969 1046.27 L109.969 1053.76 L70.3919 1053.76 L70.3919 1060.89 L64.5991 1060.89 L64.5991 1053.76 L61.4394 1053.76 Q53.8642 1053.76 50.421 1050.24 Q46.9372 1046.71 46.9372 1039.06 L46.9372 1032.01 Z" fill="#000000" fill-rule="nonzero" fill-opacity="1" /><path clip-path="url(#clip660)" d="M64.5991 1025.77 L64.5991 1018.32 L109.969 1018.32 L109.969 1025.77 L64.5991 1025.77 M46.9372 1025.77 L46.9372 1018.32 L56.3758 1018.32 L56.3758 1025.77 L46.9372 1025.77 Z" fill="#000000" fill-rule="nonzero" fill-opacity="1" /><path clip-path="url(#clip660)" d="M46.9372 1002.72 L46.9372 995.268 L109.969 995.268 L109.969 1002.72 L46.9372 1002.72 Z" fill="#000000" fill-rule="nonzero" fill-opacity="1" /><path clip-path="url(#clip660)" d="M85.4208 940.865 L89.0666 940.865 L89.0666 975.135 Q96.7633 974.649 100.814 970.517 Q104.825 966.345 104.825 958.932 Q104.825 954.638 103.771 950.627 Q102.718 946.576 100.612 942.607 L107.66 942.607 Q109.362 946.617 110.253 950.83 Q111.144 955.043 111.144 959.377 Q111.144 970.234 104.825 976.594 Q98.5052 982.913 87.7298 982.913 Q76.5898 982.913 70.0679 976.918 Q63.5054 970.882 63.5054 960.674 Q63.5054 951.519 69.4197 946.212 Q75.2935 940.865 85.4208 940.865 M83.2333 948.318 Q77.1164 948.399 73.4706 951.762 Q69.8248 955.083 69.8248 960.593 Q69.8248 966.831 73.3491 970.598 Q76.8734 974.325 83.2738 974.892 L83.2333 948.318 Z" fill="#000000" fill-rule="nonzero" fill-opacity="1" /><path clip-path="url(#clip660)" d="M46.9372 902.26 L46.9372 894.806 L109.969 894.806 L109.969 902.26 L46.9372 902.26 Z" fill="#000000" fill-rule="nonzero" fill-opacity="1" /><path clip-path="url(#clip660)" d="M64.5991 879.21 L64.5991 871.756 L109.969 871.756 L109.969 879.21 L64.5991 879.21 M46.9372 879.21 L46.9372 871.756 L56.3758 871.756 L56.3758 879.21 L46.9372 879.21 Z" fill="#000000" fill-rule="nonzero" fill-opacity="1" /><path clip-path="url(#clip660)" d="M46.9372 856.444 L46.9372 848.95 L84.165 848.95 L64.5991 826.71 L64.5991 817.191 L85.8259 841.253 L109.969 816.178 L109.969 825.9 L87.8108 848.95 L109.969 848.95 L109.969 856.444 L46.9372 856.444 Z" fill="#000000" fill-rule="nonzero" fill-opacity="1" /><path clip-path="url(#clip660)" d="M85.4208 772.266 L89.0666 772.266 L89.0666 806.537 Q96.7633 806.051 100.814 801.919 Q104.825 797.746 104.825 790.333 Q104.825 786.039 103.771 782.029 Q102.718 777.978 100.612 774.008 L107.66 774.008 Q109.362 778.018 110.253 782.231 Q111.144 786.444 111.144 790.779 Q111.144 801.635 104.825 807.995 Q98.5052 814.314 87.7298 814.314 Q76.5898 814.314 70.0679 808.319 Q63.5054 802.283 63.5054 792.075 Q63.5054 782.92 69.4197 777.613 Q75.2935 772.266 85.4208 772.266 M83.2333 779.72 Q77.1164 779.801 73.4706 783.163 Q69.8248 786.485 69.8248 791.994 Q69.8248 798.232 73.3491 802 Q76.8734 805.727 83.2738 806.294 L83.2333 779.72 Z" fill="#000000" fill-rule="nonzero" fill-opacity="1" /><path clip-path="url(#clip660)" d="M46.9372 760.032 L46.9372 752.579 L109.969 752.579 L109.969 760.032 L46.9372 760.032 Z" fill="#000000" fill-rule="nonzero" fill-opacity="1" /><path clip-path="url(#clip660)" d="M64.5991 736.983 L64.5991 729.529 L109.969 729.529 L109.969 736.983 L64.5991 736.983 M46.9372 736.983 L46.9372 729.529 L56.3758 729.529 L56.3758 736.983 L46.9372 736.983 Z" fill="#000000" fill-rule="nonzero" fill-opacity="1" /><path clip-path="url(#clip660)" d="M82.5851 676.219 L109.969 676.219 L109.969 683.673 L82.8282 683.673 Q76.3873 683.673 73.1871 686.184 Q69.9868 688.696 69.9868 693.719 Q69.9868 699.755 73.8352 703.239 Q77.6836 706.722 84.327 706.722 L109.969 706.722 L109.969 714.217 L46.9372 714.217 L46.9372 706.722 L71.6477 706.722 Q67.5563 704.049 65.5308 700.444 Q63.5054 696.798 63.5054 692.058 Q63.5054 684.24 68.3665 680.23 Q73.1871 676.219 82.5851 676.219 Z" fill="#000000" fill-rule="nonzero" fill-opacity="1" /><path clip-path="url(#clip660)" d="M69.8248 643.771 Q69.8248 649.767 74.5238 653.251 Q79.1824 656.734 87.3247 656.734 Q95.467 656.734 100.166 653.291 Q104.825 649.807 104.825 643.771 Q104.825 637.817 100.126 634.333 Q95.4265 630.849 87.3247 630.849 Q79.2634 630.849 74.5644 634.333 Q69.8248 637.817 69.8248 643.771 M63.5054 643.771 Q63.5054 634.049 69.8248 628.499 Q76.1442 622.95 87.3247 622.95 Q98.4647 622.95 104.825 628.499 Q111.144 634.049 111.144 643.771 Q111.144 653.534 104.825 659.084 Q98.4647 664.593 87.3247 664.593 Q76.1442 664.593 69.8248 659.084 Q63.5054 653.534 63.5054 643.771 Z" fill="#000000" fill-rule="nonzero" fill-opacity="1" /><path clip-path="url(#clip660)" d="M69.8248 593.014 Q69.8248 599.009 74.5238 602.493 Q79.1824 605.976 87.3247 605.976 Q95.467 605.976 100.166 602.533 Q104.825 599.049 104.825 593.014 Q104.825 587.059 100.126 583.575 Q95.4265 580.091 87.3247 580.091 Q79.2634 580.091 74.5644 583.575 Q69.8248 587.059 69.8248 593.014 M63.5054 593.014 Q63.5054 583.291 69.8248 577.742 Q76.1442 572.192 87.3247 572.192 Q98.4647 572.192 104.825 577.742 Q111.144 583.291 111.144 593.014 Q111.144 602.776 104.825 608.326 Q98.4647 613.835 87.3247 613.835 Q76.1442 613.835 69.8248 608.326 Q63.5054 602.776 63.5054 593.014 Z" fill="#000000" fill-rule="nonzero" fill-opacity="1" /><path clip-path="url(#clip660)" d="M71.4857 529.981 L46.9372 529.981 L46.9372 522.528 L109.969 522.528 L109.969 529.981 L103.164 529.981 Q107.215 532.331 109.2 535.936 Q111.144 539.501 111.144 544.524 Q111.144 552.748 104.582 557.933 Q98.0191 563.077 87.3247 563.077 Q76.6303 563.077 70.0679 557.933 Q63.5054 552.748 63.5054 544.524 Q63.5054 539.501 65.4903 535.936 Q67.4348 532.331 71.4857 529.981 M87.3247 555.381 Q95.548 555.381 100.247 552.018 Q104.906 548.616 104.906 542.701 Q104.906 536.787 100.247 533.384 Q95.548 529.981 87.3247 529.981 Q79.1014 529.981 74.4428 533.384 Q69.7438 536.787 69.7438 542.701 Q69.7438 548.616 74.4428 552.018 Q79.1014 555.381 87.3247 555.381 Z" fill="#000000" fill-rule="nonzero" fill-opacity="1" /><path clip-path="url(#clip660)" d="M46.9372 457.835 L53.1351 457.835 L53.1351 464.964 Q53.1351 468.975 54.7554 470.555 Q56.3758 472.094 60.5887 472.094 L64.5991 472.094 L64.5991 459.82 L70.3919 459.82 L70.3919 472.094 L109.969 472.094 L109.969 479.588 L70.3919 479.588 L70.3919 486.718 L64.5991 486.718 L64.5991 479.588 L61.4394 479.588 Q53.8642 479.588 50.421 476.064 Q46.9372 472.54 46.9372 464.883 L46.9372 457.835 Z" fill="#000000" fill-rule="nonzero" fill-opacity="1" /><path clip-path="url(#clip660)" d="M69.8248 434.016 Q69.8248 440.011 74.5238 443.495 Q79.1824 446.978 87.3247 446.978 Q95.467 446.978 100.166 443.535 Q104.825 440.051 104.825 434.016 Q104.825 428.061 100.126 424.577 Q95.4265 421.093 87.3247 421.093 Q79.2634 421.093 74.5644 424.577 Q69.8248 428.061 69.8248 434.016 M63.5054 434.016 Q63.5054 424.293 69.8248 418.744 Q76.1442 413.194 87.3247 413.194 Q98.4647 413.194 104.825 418.744 Q111.144 424.293 111.144 434.016 Q111.144 443.778 104.825 449.328 Q98.4647 454.837 87.3247 454.837 Q76.1442 454.837 69.8248 449.328 Q63.5054 443.778 63.5054 434.016 Z" fill="#000000" fill-rule="nonzero" fill-opacity="1" /><path clip-path="url(#clip660)" d="M71.5667 374.548 Q70.8375 375.804 70.5135 377.303 Q70.1489 378.761 70.1489 380.544 Q70.1489 386.863 74.2808 390.266 Q78.3722 393.628 86.0689 393.628 L109.969 393.628 L109.969 401.122 L64.5991 401.122 L64.5991 393.628 L71.6477 393.628 Q67.5158 391.279 65.5308 387.511 Q63.5054 383.744 63.5054 378.356 Q63.5054 377.586 63.6269 376.655 Q63.7079 375.723 63.9105 374.589 L71.5667 374.548 Z" fill="#000000" fill-rule="nonzero" fill-opacity="1" /><path clip-path="url(#clip660)" d="M9.65896 266.109 Q16.4222 266.109 23.0625 269.019 Q29.6617 271.888 34.6624 276.561 Q39.6221 281.193 42.6963 287.464 Q45.7705 293.735 45.7705 300.13 L45.7705 327.921 Q45.7705 328.904 45.7295 329.314 Q45.6885 329.683 45.4836 329.97 Q45.2377 330.257 44.7458 330.257 Q43.967 330.257 43.6391 329.929 Q43.2702 329.601 43.2292 329.232 Q43.1882 328.863 43.1882 327.921 Q43.1882 325.871 43.0652 324.641 Q42.9423 323.412 42.7783 322.633 Q42.5733 321.813 41.9995 321.403 Q41.4256 320.952 40.9338 320.747 Q40.4009 320.542 39.2122 320.256 L-5.87598 309.024 Q-7.22862 308.697 -7.43357 308.697 Q-8.13039 308.697 -8.37632 309.106 Q-8.66325 309.475 -8.78622 310.541 Q-8.95017 312.591 -8.95017 314.148 Q-8.95017 315.173 -8.99116 315.583 Q-9.03215 315.952 -9.2371 316.28 Q-9.48304 316.566 -9.97491 316.566 Q-10.7537 316.566 -11.0816 316.239 Q-11.4505 315.87 -11.4915 315.46 Q-11.5735 315.05 -11.5735 314.066 L-11.5735 285.866 Q-11.5735 279.758 -8.70424 275.208 Q-5.87598 270.659 -1.08023 268.404 Q3.67452 266.109 9.65896 266.109 M6.58476 273.446 Q-1.24419 273.446 -5.09718 277.709 Q-8.95017 281.931 -8.95017 288.612 L-8.95017 297.588 Q-8.95017 300.253 -8.4583 300.909 Q-8.00742 301.564 -5.75301 302.138 L40.3189 313.656 Q41.8355 314.066 42.2454 314.066 Q42.6963 314.066 42.8603 313.861 Q42.9832 313.615 43.0652 312.959 Q43.1882 312.222 43.1882 311.115 L43.1882 301.646 Q43.1882 297.998 42.2044 294.678 Q41.1797 291.317 39.5811 288.899 Q37.9416 286.48 36.5479 284.923 Q35.1133 283.365 33.6787 282.258 Q30.4405 279.758 26.2186 277.914 Q21.9967 276.028 18.1437 275.167 Q14.2498 274.266 11.3805 273.856 Q8.47027 273.446 6.58476 273.446 Z" fill="#000000" fill-rule="nonzero" fill-opacity="1" /><path clip-path="url(#clip660)" d="M69.028 257.766 Q67.9664 257.766 67.6508 257.68 Q67.3352 257.565 66.8474 257.106 L54.2801 245.83 Q47.3365 239.661 41.2824 239.661 Q37.3515 239.661 34.5396 241.727 Q31.7278 243.764 31.7278 247.522 Q31.7278 250.105 33.3059 252.285 Q34.8839 254.466 37.6958 255.47 Q37.6384 255.298 37.6384 254.696 Q37.6384 253.232 38.5566 252.429 Q39.4747 251.597 40.7085 251.597 Q42.2866 251.597 43.0613 252.63 Q43.8073 253.634 43.8073 254.638 Q43.8073 255.04 43.7212 255.585 Q43.6352 256.102 42.8318 256.934 Q41.9997 257.766 40.5364 257.766 Q36.4333 257.766 33.1624 254.667 Q29.8914 251.539 29.8914 246.776 Q29.8914 241.382 33.105 237.853 Q36.2899 234.295 41.2824 234.295 Q43.0326 234.295 44.6394 234.84 Q46.2175 235.357 47.4513 236.074 Q48.685 236.763 50.6648 238.656 Q52.6446 240.55 54.0505 242.071 Q55.4565 243.592 58.4405 247.006 L64.4946 253.232 L64.4946 242.645 Q64.4946 237.48 64.0355 237.078 Q63.2034 236.505 58.8135 235.787 L58.8135 234.295 L69.028 235.959 L69.028 257.766 Z" fill="#000000" fill-rule="nonzero" fill-opacity="1" /><path clip-path="url(#clip660)" d="M91.428 330.257 L91.428 216.603 L86.948 216.603 L86.948 330.257  Z" fill="#000000" fill-rule="evenodd" fill-opacity="1"/>
<path clip-path="url(#clip660)" d="M119.704 256.471 Q118.351 256.471 117.245 256.84 Q116.097 257.168 115.318 257.701 Q114.498 258.193 113.884 259.136 Q113.228 260.078 112.818 260.857 Q112.408 261.636 112.162 262.948 Q111.875 264.259 111.752 265.12 Q111.588 265.981 111.506 267.456 Q111.424 268.932 111.424 269.67 Q111.424 270.367 111.424 271.76 Q111.424 276.146 111.506 276.884 Q111.67 277.991 112.326 278.4 Q112.941 278.81 114.621 279.22 L136.51 284.672 L136.51 275.285 Q136.51 270.162 135.075 266.637 Q133.64 263.111 131.632 261.103 Q129.418 258.89 125.852 257.701 Q122.286 256.471 119.704 256.471 M158.357 247.331 Q158.808 247.331 159.833 247.699 Q160.857 248.027 162.292 248.847 Q163.686 249.667 164.956 250.774 Q166.227 251.88 167.088 253.643 Q167.989 255.405 167.989 257.414 Q167.989 257.906 167.948 258.398 Q167.948 258.89 167.743 260.119 Q167.58 261.308 167.252 262.292 Q166.965 263.275 166.268 264.505 Q165.612 265.735 164.71 266.596 Q163.768 267.415 162.292 267.989 Q160.775 268.563 158.931 268.563 Q157.291 268.563 151.799 267.21 Q147.126 266.022 145.978 266.022 Q144.707 266.022 143.519 266.432 Q142.33 266.801 141.1 267.743 Q139.871 268.645 139.133 270.572 Q138.354 272.498 138.354 275.203 L138.354 285.164 L160.611 290.738 Q160.652 290.738 161.226 290.861 Q161.759 290.984 162.046 290.984 Q162.579 290.984 162.907 290.656 Q163.235 290.287 163.399 289.386 Q163.522 288.484 163.563 287.787 Q163.563 287.049 163.563 285.533 Q163.563 283.647 163.89 283.319 Q164.095 283.155 164.464 283.155 Q165.038 283.155 165.448 283.319 Q165.817 283.442 165.94 283.77 Q166.063 284.057 166.104 284.262 Q166.145 284.467 166.145 284.836 L165.899 295.493 L166.145 306.068 Q166.145 307.257 165.202 307.257 Q164.382 307.257 164.054 306.97 Q163.686 306.683 163.645 306.314 Q163.563 305.945 163.563 305.003 Q163.563 302.953 163.44 301.723 Q163.317 300.494 163.153 299.715 Q162.948 298.895 162.374 298.485 Q161.8 298.034 161.308 297.829 Q160.775 297.624 159.587 297.338 L114.498 286.106 Q113.146 285.779 112.941 285.779 Q112.162 285.779 111.957 286.27 Q111.711 286.721 111.588 288.033 L111.424 291.23 Q111.424 292.214 111.383 292.624 Q111.342 292.993 111.137 293.28 Q110.932 293.566 110.481 293.566 Q109.334 293.566 109.088 293.075 Q108.801 292.583 108.801 291.148 L108.801 267.21 Q108.801 259.054 112.367 253.889 Q115.933 248.683 121.385 248.683 Q123.844 248.683 126.139 249.79 Q128.435 250.897 130.238 252.741 Q132.042 254.545 133.558 256.963 Q135.034 259.381 136.059 261.964 Q137.042 264.505 137.616 267.128 Q138.026 265.981 138.641 264.915 Q139.256 263.808 140.404 262.415 Q141.551 260.98 143.396 260.119 Q145.24 259.258 147.495 259.258 Q149.093 259.258 151.471 259.586 Q158.234 260.406 161.021 260.406 Q163.686 260.406 164.915 259.709 Q166.145 259.013 166.145 257.045 Q166.145 255.119 164.423 252.987 Q162.661 250.815 158.521 249.421 Q157.332 249.093 157.332 248.314 Q157.332 248.273 157.332 248.232 Q157.332 248.15 157.414 247.986 Q157.455 247.822 157.578 247.699 Q157.66 247.536 157.865 247.454 Q158.07 247.331 158.357 247.331 Z" fill="#000000" fill-rule="nonzero" fill-opacity="1" /><polyline clip-path="url(#clip662)" style="stroke:#000000; stroke-linecap:round; stroke-linejoin:round; stroke-width:8; stroke-opacity:1; fill:none" points="378.847,1314.46 382.688,1314.46 386.528,1314.46 390.369,1314.46 394.209,1314.46 398.05,1314.46 401.891,1314.46 405.731,1314.46 409.572,1314.46 413.412,1314.46 417.253,1314.46 421.093,1314.46 424.934,1314.46 428.774,1314.46 432.615,1314.46 436.455,1314.46 440.296,1314.46 444.136,1314.46 447.977,1314.46 451.817,1314.46 455.658,1314.46 459.498,1314.46 463.339,1314.46 467.179,1314.46 471.02,1314.46 474.86,1314.46 478.701,1314.46 482.541,1314.46 486.382,1314.46 490.222,1314.46 494.063,1314.46 497.903,1314.46 501.744,1314.46 505.584,1314.46 509.425,1314.46 513.265,1314.46 517.106,1314.46 520.946,1314.46 524.787,1314.46 528.627,1314.46 532.468,1314.46 536.308,1314.46 540.149,1314.46 543.989,1314.46 547.83,1314.46 551.671,1314.46 555.511,1314.46 559.352,1314.46 563.192,1314.46 567.033,1314.46 570.873,1314.46 574.714,1314.46 578.554,1314.46 582.395,1314.46 586.235,1314.46 590.076,1314.46 593.916,1314.46 597.757,1314.46 601.597,1314.46 605.438,1314.46 609.278,1314.46 613.119,1314.46 616.959,1314.46 620.8,1314.46 624.64,1314.46 628.481,1314.46 632.321,1314.46 636.162,1314.46 640.002,1314.46 643.843,1314.46 647.683,1314.46 651.524,1314.46 655.364,1314.46 659.205,1314.46 663.045,1314.46 666.886,1314.46 670.726,1314.46 674.567,1314.46 678.407,1314.46 682.248,1314.46 686.088,1314.46 689.929,1314.46 693.769,1314.46 697.61,1314.46 701.451,1314.46 705.291,1314.46 709.132,1314.46 712.972,1314.46 716.813,1314.46 720.653,1314.46 724.494,1314.46 728.334,1314.46 732.175,1314.46 736.015,1314.46 739.856,1314.46 743.696,1314.46 747.537,1314.46 751.377,1314.46 755.218,1314.46 759.058,1314.46 762.899,1314.46 766.739,1314.46 770.58,1314.46 774.42,1314.46 778.261,1314.46 782.101,1314.46 785.942,1314.46 789.782,1314.46 793.623,1314.46 797.463,1314.46 801.304,1314.46 805.144,1314.46 808.985,1314.46 812.825,1314.46 816.666,1314.46 820.506,1314.46 824.347,1314.46 828.187,1314.46 832.028,1314.46 835.868,1314.46 839.709,1314.46 843.55,1314.46 847.39,1314.46 851.231,1314.46 855.071,1314.46 858.912,1314.46 862.752,1314.46 866.593,1314.46 870.433,1314.46 874.274,1314.46 878.114,1314.46 881.955,1314.46 885.795,1314.46 889.636,1314.46 893.476,1314.46 897.317,1314.46 901.157,1314.46 904.998,1314.46 908.838,1314.46 912.679,1314.46 916.519,1314.46 920.36,1314.46 924.2,1314.46 928.041,1314.46 931.881,1314.46 935.722,1314.46 939.562,1314.46 943.403,1314.46 947.243,1314.46 951.084,1314.46 954.924,1314.46 958.765,1314.46 962.605,1314.46 966.446,1314.46 970.286,1314.46 974.127,1314.46 977.967,1314.46 981.808,1314.46 985.648,1314.46 989.489,1314.46 993.33,1314.46 997.17,1314.46 1001.01,1314.46 1004.85,1314.46 1008.69,1314.46 1012.53,1314.46 1016.37,1314.46 1020.21,1314.46 1024.05,1314.46 1027.89,1314.46 1031.73,1314.46 1035.58,1314.46 1039.42,1314.46 1043.26,1314.46 1047.1,1314.46 1050.94,1314.46 1054.78,1314.46 1058.62,1314.46 1062.46,1314.46 1066.3,1314.46 1070.14,1314.46 1073.98,1314.46 1077.82,1314.46 1081.66,1314.46 1085.5,1314.46 1089.34,1314.46 1093.18,1314.46 1097.02,1314.46 1100.86,1314.46 1104.7,1314.46 1108.54,1314.46 1112.39,1314.46 1116.23,1314.46 1120.07,1314.46 1123.91,1314.46 1127.75,1314.46 1131.59,1314.46 1135.43,1314.46 1139.27,1314.46 1143.11,1314.46 1146.95,1314.46 1150.79,1314.46 1154.63,1314.46 1158.47,1314.46 1162.31,1314.46 1166.15,1314.46 1169.99,1314.46 1173.83,1314.46 1177.67,1314.46 1181.51,1314.46 1185.36,1314.46 1189.2,1314.46 1193.04,1314.46 1196.88,1314.46 1200.72,1314.46 1204.56,1314.46 1208.4,1314.46 1212.24,1314.46 1216.08,1314.46 1219.92,1314.46 1223.76,1314.45 1227.6,1314.45 1231.44,1314.44 1235.28,1314.43 1239.12,1314.41 1242.96,1314.38 1246.8,1314.33 1250.64,1314.25 1254.48,1314.12 1258.32,1313.92 1262.17,1313.61 1266.01,1313.15 1269.85,1312.46 1273.69,1311.46 1277.53,1310.02 1281.37,1307.97 1285.21,1305.16 1289.05,1301.18 1292.89,1295.84 1296.73,1288.71 1300.57,1279.32 1304.41,1267.16 1308.25,1251.63 1312.09,1232.11 1315.93,1207.95 1319.77,1178.5 1323.61,1143.19 1327.45,1101.51 1331.29,1053.11 1335.14,997.859 1338.98,935.845 1342.82,867.472 1346.66,793.469 1350.5,714.91 1354.34,633.211 1358.18,550.104 1362.02,467.587 1365.86,387.848 1369.7,313.174 1373.54,245.843 1377.38,188.006 1381.22,141.577 1385.06,108.118 1388.9,88.7654 1392.74,84.1532 1396.58,94.3851 1400.42,119.03 1404.26,157.153 1408.1,207.372 1411.95,267.941 1415.79,336.851 1419.63,411.936 1423.47,490.987 1427.31,571.856 1431.15,652.537 1434.99,731.259 1438.83,806.521 1442.67,877.13 1446.51,942.212 1450.35,1001.2 1454.19,1053.82 1458.03,1100.04 1461.87,1140.04 1465.71,1174.16 1469.55,1202.86 1473.39,1226.67 1477.23,1246.16 1481.07,1261.91 1484.92,1274.47 1488.76,1284.35 1492.6,1292.04 1496.44,1297.95 1500.28,1302.43 1504.12,1305.79 1507.96,1308.27 1511.8,1310.09 1515.64,1311.41 1519.48,1312.35 1523.32,1313.02 1527.16,1313.49 1531,1313.82 1534.84,1314.04 1538.68,1314.19 1542.52,1314.29 1546.36,1314.35 1550.2,1314.39 1554.04,1314.42 1557.88,1314.44 1561.73,1314.44 1565.57,1314.45 1569.41,1314.45 1573.25,1314.46 1577.09,1314.46 1580.93,1314.46 1584.77,1314.46 1588.61,1314.46 1592.45,1314.46 1596.29,1314.46 1600.13,1314.46 1603.97,1314.46 1607.81,1314.46 1611.65,1314.46 1615.49,1314.46 1619.33,1314.46 1623.17,1314.46 1627.01,1314.46 1630.85,1314.46 1634.7,1314.46 1638.54,1314.46 1642.38,1314.46 1646.22,1314.46 1650.06,1314.46 1653.9,1314.46 1657.74,1314.46 1661.58,1314.46 1665.42,1314.46 1669.26,1314.46 1673.1,1314.46 1676.94,1314.46 1680.78,1314.46 1684.62,1314.46 1688.46,1314.46 1692.3,1314.46 1696.14,1314.46 1699.98,1314.46 1703.82,1314.46 1707.66,1314.46 1711.51,1314.46 1715.35,1314.46 1719.19,1314.46 1723.03,1314.46 1726.87,1314.46 1730.71,1314.46 1734.55,1314.46 1738.39,1314.46 1742.23,1314.46 1746.07,1314.46 1749.91,1314.46 1753.75,1314.46 1757.59,1314.46 1761.43,1314.46 1765.27,1314.46 1769.11,1314.46 1772.95,1314.46 1776.79,1314.46 1780.63,1314.46 1784.48,1314.46 1788.32,1314.46 1792.16,1314.46 1796,1314.46 1799.84,1314.46 1803.68,1314.46 1807.52,1314.46 1811.36,1314.46 1815.2,1314.46 1819.04,1314.46 1822.88,1314.46 1826.72,1314.46 1830.56,1314.46 1834.4,1314.46 1838.24,1314.46 1842.08,1314.46 1845.92,1314.46 1849.76,1314.46 1853.6,1314.46 1857.44,1314.46 1861.29,1314.46 1865.13,1314.46 1868.97,1314.46 1872.81,1314.46 1876.65,1314.46 1880.49,1314.46 1884.33,1314.46 1888.17,1314.46 1892.01,1314.46 1895.85,1314.46 1899.69,1314.46 1903.53,1314.46 1907.37,1314.46 1911.21,1314.46 1915.05,1314.46 1918.89,1314.46 1922.73,1314.46 1926.57,1314.46 1930.41,1314.46 1934.26,1314.46 1938.1,1314.46 1941.94,1314.46 1945.78,1314.46 1949.62,1314.46 1953.46,1314.46 1957.3,1314.46 1961.14,1314.46 1964.98,1314.46 1968.82,1314.46 1972.66,1314.46 1976.5,1314.46 1980.34,1314.46 1984.18,1314.46 1988.02,1314.46 1991.86,1314.46 1995.7,1314.46 1999.54,1314.46 2003.38,1314.46 2007.22,1314.46 2011.07,1314.46 2014.91,1314.46 2018.75,1314.46 2022.59,1314.46 2026.43,1314.46 2030.27,1314.46 2034.11,1314.46 2037.95,1314.46 2041.79,1314.46 2045.63,1314.46 2049.47,1314.46 2053.31,1314.46 2057.15,1314.46 2060.99,1314.46 2064.83,1314.46 2068.67,1314.46 2072.51,1314.46 2076.35,1314.46 2080.19,1314.46 2084.04,1314.46 2087.88,1314.46 2091.72,1314.46 2095.56,1314.46 2099.4,1314.46 2103.24,1314.46 2107.08,1314.46 2110.92,1314.46 2114.76,1314.46 2118.6,1314.46 2122.44,1314.46 2126.28,1314.46 2130.12,1314.46 2133.96,1314.46 2137.8,1314.46 2141.64,1314.46 2145.48,1314.46 2149.32,1314.46 2153.16,1314.46 2157,1314.46 2160.85,1314.46 2164.69,1314.46 2168.53,1314.46 2172.37,1314.46 2176.21,1314.46 2180.05,1314.46 2183.89,1314.46 2187.73,1314.46 2191.57,1314.46 2195.41,1314.46 2199.25,1314.46 2203.09,1314.46 2206.93,1314.46 2210.77,1314.46 2214.61,1314.46 2218.45,1314.46 2222.29,1314.46 2226.13,1314.46 2229.97,1314.46 2233.82,1314.46 2237.66,1314.46 2241.5,1314.46 2245.34,1314.46 2249.18,1314.46 2253.02,1314.46 2256.86,1314.46 2260.7,1314.46 2264.54,1314.46 2268.38,1314.46 2272.22,1314.46 2276.06,1314.46 2279.9,1314.46 2283.74,1314.46 2287.58,1314.46 2291.42,1314.46 2295.26,1314.46 "/>
<polyline clip-path="url(#clip662)" style="stroke:#000000; stroke-linecap:round; stroke-linejoin:round; stroke-width:8; stroke-opacity:1; fill:none" stroke-dasharray="32, 20" points="378.847,1314.46 382.688,1314.46 386.528,1314.46 390.369,1314.46 394.209,1314.46 398.05,1314.46 401.891,1314.46 405.731,1314.46 409.572,1314.46 413.412,1314.46 417.253,1314.46 421.093,1314.46 424.934,1314.46 428.774,1314.46 432.615,1314.46 436.455,1314.46 440.296,1314.46 444.136,1314.46 447.977,1314.46 451.817,1314.46 455.658,1314.46 459.498,1314.46 463.339,1314.46 467.179,1314.46 471.02,1314.46 474.86,1314.46 478.701,1314.46 482.541,1314.46 486.382,1314.46 490.222,1314.46 494.063,1314.46 497.903,1314.46 501.744,1314.46 505.584,1314.46 509.425,1314.46 513.265,1314.46 517.106,1314.46 520.946,1314.46 524.787,1314.46 528.627,1314.46 532.468,1314.46 536.308,1314.46 540.149,1314.46 543.989,1314.46 547.83,1314.46 551.671,1314.46 555.511,1314.46 559.352,1314.46 563.192,1314.46 567.033,1314.46 570.873,1314.46 574.714,1314.46 578.554,1314.46 582.395,1314.46 586.235,1314.46 590.076,1314.46 593.916,1314.46 597.757,1314.46 601.597,1314.46 605.438,1314.46 609.278,1314.46 613.119,1314.46 616.959,1314.46 620.8,1314.46 624.64,1314.46 628.481,1314.46 632.321,1314.46 636.162,1314.46 640.002,1314.46 643.843,1314.46 647.683,1314.46 651.524,1314.46 655.364,1314.46 659.205,1314.46 663.045,1314.46 666.886,1314.46 670.726,1314.46 674.567,1314.46 678.407,1314.46 682.248,1314.46 686.088,1314.46 689.929,1314.46 693.769,1314.46 697.61,1314.46 701.451,1314.46 705.291,1314.46 709.132,1314.46 712.972,1314.46 716.813,1314.46 720.653,1314.46 724.494,1314.46 728.334,1314.46 732.175,1314.46 736.015,1314.46 739.856,1314.46 743.696,1314.46 747.537,1314.46 751.377,1314.46 755.218,1314.46 759.058,1314.46 762.899,1314.46 766.739,1314.46 770.58,1314.46 774.42,1314.46 778.261,1314.46 782.101,1314.46 785.942,1314.46 789.782,1314.46 793.623,1314.46 797.463,1314.46 801.304,1314.46 805.144,1314.46 808.985,1314.46 812.825,1314.46 816.666,1314.46 820.506,1314.46 824.347,1314.46 828.187,1314.46 832.028,1314.46 835.868,1314.46 839.709,1314.46 843.55,1314.46 847.39,1314.46 851.231,1314.46 855.071,1314.46 858.912,1314.46 862.752,1314.46 866.593,1314.46 870.433,1314.46 874.274,1314.46 878.114,1314.46 881.955,1314.46 885.795,1314.46 889.636,1314.46 893.476,1314.46 897.317,1314.46 901.157,1314.46 904.998,1314.46 908.838,1314.46 912.679,1314.46 916.519,1314.46 920.36,1314.46 924.2,1314.46 928.041,1314.46 931.881,1314.46 935.722,1314.46 939.562,1314.46 943.403,1314.46 947.243,1314.46 951.084,1314.46 954.924,1314.46 958.765,1314.46 962.605,1314.46 966.446,1314.46 970.286,1314.46 974.127,1314.46 977.967,1314.46 981.808,1314.46 985.648,1314.46 989.489,1314.46 993.33,1314.46 997.17,1314.46 1001.01,1314.46 1004.85,1314.46 1008.69,1314.46 1012.53,1314.46 1016.37,1314.46 1020.21,1314.46 1024.05,1314.46 1027.89,1314.46 1031.73,1314.46 1035.58,1314.46 1039.42,1314.46 1043.26,1314.46 1047.1,1314.46 1050.94,1314.46 1054.78,1314.46 1058.62,1314.46 1062.46,1314.46 1066.3,1314.46 1070.14,1314.46 1073.98,1314.46 1077.82,1314.46 1081.66,1314.46 1085.5,1314.46 1089.34,1314.46 1093.18,1314.46 1097.02,1314.46 1100.86,1314.46 1104.7,1314.46 1108.54,1314.46 1112.39,1314.46 1116.23,1314.46 1120.07,1314.46 1123.91,1314.46 1127.75,1314.46 1131.59,1314.46 1135.43,1314.46 1139.27,1314.46 1143.11,1314.46 1146.95,1314.46 1150.79,1314.46 1154.63,1314.46 1158.47,1314.46 1162.31,1314.46 1166.15,1314.46 1169.99,1314.46 1173.83,1314.46 1177.67,1314.46 1181.51,1314.46 1185.36,1314.46 1189.2,1314.46 1193.04,1314.46 1196.88,1314.46 1200.72,1314.46 1204.56,1314.46 1208.4,1314.46 1212.24,1314.46 1216.08,1314.45 1219.92,1314.45 1223.76,1314.45 1227.6,1314.44 1231.44,1314.43 1235.28,1314.41 1239.12,1314.37 1242.96,1314.32 1246.8,1314.24 1250.64,1314.12 1254.48,1313.94 1258.32,1313.66 1262.17,1313.24 1266.01,1312.64 1269.85,1311.77 1273.69,1310.53 1277.53,1308.79 1281.37,1306.37 1285.21,1303.06 1289.05,1298.59 1292.89,1292.63 1296.73,1284.8 1300.57,1274.64 1304.41,1261.65 1308.25,1245.25 1312.09,1224.87 1315.93,1199.87 1319.77,1169.66 1323.61,1133.68 1327.45,1091.5 1331.29,1042.77 1335.14,987.394 1338.98,925.467 1342.82,857.388 1346.66,783.862 1350.5,705.927 1354.34,624.952 1358.18,542.612 1362.02,460.846 1365.86,381.789 1369.7,307.685 1373.54,240.782 1377.38,183.226 1381.22,136.941 1385.06,108.047 1388.9,84.1601 1392.74,84.1532 1396.58,89.8363 1400.42,119.153 1404.26,153.164 1408.1,208.106 1411.95,265.323 1415.79,335.235 1419.63,411.497 1423.47,491.849 1427.31,574.077 1431.15,656.112 1434.99,736.108 1438.83,812.504 1442.67,884.056 1446.51,949.853 1450.35,1009.31 1454.19,1062.15 1458.03,1108.35 1461.87,1148.12 1465.71,1181.84 1469.55,1209.99 1473.39,1233.16 1477.23,1251.95 1481.07,1266.98 1484.92,1278.83 1488.76,1288.04 1492.6,1295.11 1496.44,1300.45 1500.28,1304.45 1504.12,1307.39 1507.96,1309.52 1511.8,1311.06 1515.64,1312.14 1519.48,1312.9 1523.32,1313.42 1527.16,1313.78 1531,1314.02 1534.84,1314.17 1538.68,1314.28 1542.52,1314.35 1546.36,1314.39 1550.2,1314.42 1554.04,1314.43 1557.88,1314.44 1561.73,1314.45 1565.57,1314.45 1569.41,1314.45 1573.25,1314.46 1577.09,1314.46 1580.93,1314.46 1584.77,1314.46 1588.61,1314.46 1592.45,1314.46 1596.29,1314.46 1600.13,1314.46 1603.97,1314.46 1607.81,1314.46 1611.65,1314.46 1615.49,1314.46 1619.33,1314.46 1623.17,1314.46 1627.01,1314.46 1630.85,1314.46 1634.7,1314.46 1638.54,1314.46 1642.38,1314.46 1646.22,1314.46 1650.06,1314.46 1653.9,1314.46 1657.74,1314.46 1661.58,1314.46 1665.42,1314.46 1669.26,1314.46 1673.1,1314.46 1676.94,1314.46 1680.78,1314.46 1684.62,1314.46 1688.46,1314.46 1692.3,1314.46 1696.14,1314.46 1699.98,1314.46 1703.82,1314.46 1707.66,1314.46 1711.51,1314.46 1715.35,1314.46 1719.19,1314.46 1723.03,1314.46 1726.87,1314.46 1730.71,1314.46 1734.55,1314.46 1738.39,1314.46 1742.23,1314.46 1746.07,1314.46 1749.91,1314.46 1753.75,1314.46 1757.59,1314.46 1761.43,1314.46 1765.27,1314.46 1769.11,1314.46 1772.95,1314.46 1776.79,1314.46 1780.63,1314.46 1784.48,1314.46 1788.32,1314.46 1792.16,1314.46 1796,1314.46 1799.84,1314.46 1803.68,1314.46 1807.52,1314.46 1811.36,1314.46 1815.2,1314.46 1819.04,1314.46 1822.88,1314.46 1826.72,1314.46 1830.56,1314.46 1834.4,1314.46 1838.24,1314.46 1842.08,1314.46 1845.92,1314.46 1849.76,1314.46 1853.6,1314.46 1857.44,1314.46 1861.29,1314.46 1865.13,1314.46 1868.97,1314.46 1872.81,1314.46 1876.65,1314.46 1880.49,1314.46 1884.33,1314.46 1888.17,1314.46 1892.01,1314.46 1895.85,1314.46 1899.69,1314.46 1903.53,1314.46 1907.37,1314.46 1911.21,1314.46 1915.05,1314.46 1918.89,1314.46 1922.73,1314.46 1926.57,1314.46 1930.41,1314.46 1934.26,1314.46 1938.1,1314.46 1941.94,1314.46 1945.78,1314.46 1949.62,1314.46 1953.46,1314.46 1957.3,1314.46 1961.14,1314.46 1964.98,1314.46 1968.82,1314.46 1972.66,1314.46 1976.5,1314.46 1980.34,1314.46 1984.18,1314.46 1988.02,1314.46 1991.86,1314.46 1995.7,1314.46 1999.54,1314.46 2003.38,1314.46 2007.22,1314.46 2011.07,1314.46 2014.91,1314.46 2018.75,1314.46 2022.59,1314.46 2026.43,1314.46 2030.27,1314.46 2034.11,1314.46 2037.95,1314.46 2041.79,1314.46 2045.63,1314.46 2049.47,1314.46 2053.31,1314.46 2057.15,1314.46 2060.99,1314.46 2064.83,1314.46 2068.67,1314.46 2072.51,1314.46 2076.35,1314.46 2080.19,1314.46 2084.04,1314.46 2087.88,1314.46 2091.72,1314.46 2095.56,1314.46 2099.4,1314.46 2103.24,1314.46 2107.08,1314.46 2110.92,1314.46 2114.76,1314.46 2118.6,1314.46 2122.44,1314.46 2126.28,1314.46 2130.12,1314.46 2133.96,1314.46 2137.8,1314.46 2141.64,1314.46 2145.48,1314.46 2149.32,1314.46 2153.16,1314.46 2157,1314.46 2160.85,1314.46 2164.69,1314.46 2168.53,1314.46 2172.37,1314.46 2176.21,1314.46 2180.05,1314.46 2183.89,1314.46 2187.73,1314.46 2191.57,1314.46 2195.41,1314.46 2199.25,1314.46 2203.09,1314.46 2206.93,1314.46 2210.77,1314.46 2214.61,1314.46 2218.45,1314.46 2222.29,1314.46 2226.13,1314.46 2229.97,1314.46 2233.82,1314.46 2237.66,1314.46 2241.5,1314.46 2245.34,1314.46 2249.18,1314.46 2253.02,1314.46 2256.86,1314.46 2260.7,1314.46 2264.54,1314.46 2268.38,1314.46 2272.22,1314.46 2276.06,1314.46 2279.9,1314.46 2283.74,1314.46 2287.58,1314.46 2291.42,1314.46 2295.26,1314.46 "/>
<polyline clip-path="url(#clip662)" style="stroke:#000000; stroke-linecap:round; stroke-linejoin:round; stroke-width:8; stroke-opacity:1; fill:none" stroke-dasharray="4, 8" points="1392.74,2655.49 1392.74,-1256.88 "/>
<polyline clip-path="url(#clip662)" style="stroke:#000000; stroke-linecap:round; stroke-linejoin:round; stroke-width:4; stroke-opacity:1; fill:none" points="-1710.05,1134.22 4384.16,1134.22 "/>
<polyline clip-path="url(#clip662)" style="stroke:#808080; stroke-linecap:round; stroke-linejoin:round; stroke-width:8; stroke-opacity:1; fill:none" points="1337.06,2655.49 1337.06,-1256.88 "/>
</svg>
