<?xml version="1.0" encoding="utf-8"?>
<svg xmlns="http://www.w3.org/2000/svg" xmlns:xlink="http://www.w3.org/1999/xlink" width="600" height="400" viewBox="0 0 2400 1600">
<defs>
  <clipPath id="clip310">
    <rect x="0" y="0" width="2400" height="1600"/>
  </clipPath>
</defs>
<path clip-path="url(#clip310)" d="M0 1600 L2400 1600 L2400 0 L0 0  Z" fill="#ffffff" fill-rule="evenodd" fill-opacity="1"/>
<defs>
  <clipPath id="clip311">
    <rect x="480" y="0" width="1681" height="1600"/>
  </clipPath>
</defs>
<defs>
  <clipPath id="clip312">
    <rect x="262" y="47" width="2091" height="1364"/>
  </clipPath>
</defs>
<path clip-path="url(#clip310)" d="M262.502 1410.22 L2352.76 1410.22 L2352.76 47.2441 L262.502 47.2441  Z" fill="#ffffff" fill-rule="evenodd" fill-opacity="1"/>
<polyline clip-path="url(#clip312)" style="stroke:#000000; stroke-linecap:round; stroke-linejoin:round; stroke-width:2; stroke-opacity:0.1; fill:none" points="281.417,1410.22 281.417,47.2441 "/>
<polyline clip-path="url(#clip312)" style="stroke:#000000; stroke-linecap:round; stroke-linejoin:round; stroke-width:2; stroke-opacity:0.1; fill:none" points="683.853,1410.22 683.853,47.2441 "/>
<polyline clip-path="url(#clip312)" style="stroke:#000000; stroke-linecap:round; stroke-linejoin:round; stroke-width:2; stroke-opacity:0.1; fill:none" points="1086.29,1410.22 1086.29,47.2441 "/>
<polyline clip-path="url(#clip312)" style="stroke:#000000; stroke-linecap:round; stroke-linejoin:round; stroke-width:2; stroke-opacity:0.1; fill:none" points="1488.73,1410.22 1488.73,47.2441 "/>
<polyline clip-path="url(#clip312)" style="stroke:#000000; stroke-linecap:round; stroke-linejoin:round; stroke-width:2; stroke-opacity:0.1; fill:none" points="1891.16,1410.22 1891.16,47.2441 "/>
<polyline clip-path="url(#clip312)" style="stroke:#000000; stroke-linecap:round; stroke-linejoin:round; stroke-width:2; stroke-opacity:0.1; fill:none" points="2293.6,1410.22 2293.6,47.2441 "/>
<polyline clip-path="url(#clip310)" style="stroke:#000000; stroke-linecap:round; stroke-linejoin:round; stroke-width:4; stroke-opacity:1; fill:none" points="262.502,1410.22 2352.76,1410.22 "/>
<polyline clip-path="url(#clip310)" style="stroke:#000000; stroke-linecap:round; stroke-linejoin:round; stroke-width:4; stroke-opacity:1; fill:none" points="281.417,1410.22 281.417,1391.32 "/>
<polyline clip-path="url(#clip310)" style="stroke:#000000; stroke-linecap:round; stroke-linejoin:round; stroke-width:4; stroke-opacity:1; fill:none" points="683.853,1410.22 683.853,1391.32 "/>
<polyline clip-path="url(#clip310)" style="stroke:#000000; stroke-linecap:round; stroke-linejoin:round; stroke-width:4; stroke-opacity:1; fill:none" points="1086.29,1410.22 1086.29,1391.32 "/>
<polyline clip-path="url(#clip310)" style="stroke:#000000; stroke-linecap:round; stroke-linejoin:round; stroke-width:4; stroke-opacity:1; fill:none" points="1488.73,1410.22 1488.73,1391.32 "/>
<polyline clip-path="url(#clip310)" style="stroke:#000000; stroke-linecap:round; stroke-linejoin:round; stroke-width:4; stroke-opacity:1; fill:none" points="1891.16,1410.22 1891.16,1391.32 "/>
<polyline clip-path="url(#clip310)" style="stroke:#000000; stroke-linecap:round; stroke-linejoin:round; stroke-width:4; stroke-opacity:1; fill:none" points="2293.6,1410.22 2293.6,1391.32 "/>
<path clip-path="url(#clip310)" d="M281.417 1441.14 Q277.805 1441.14 275.977 1444.7 Q274.171 1448.24 274.171 1455.37 Q274.171 1462.48 275.977 1466.05 Q277.805 1469.59 281.417 1469.59 Q285.051 1469.59 286.856 1466.05 Q288.685 1462.48 288.685 1455.37 Q288.685 1448.24 286.856 1444.7 Q285.051 1441.14 281.417 1441.14 M281.417 1437.43 Q287.227 1437.43 290.282 1442.04 Q293.361 1446.62 293.361 1455.37 Q293.361 1464.1 290.282 1468.71 Q287.227 1473.29 281.417 1473.29 Q275.606 1473.29 272.528 1468.71 Q269.472 1464.1 269.472 1455.37 Q269.472 1446.62 272.528 1442.04 Q275.606 1437.43 281.417 1437.43 Z" fill="#000000" fill-rule="nonzero" fill-opacity="1" /><path clip-path="url(#clip310)" d="M674.235 1468.68 L681.874 1468.68 L681.874 1442.32 L673.563 1443.99 L673.563 1439.73 L681.827 1438.06 L686.503 1438.06 L686.503 1468.68 L694.142 1468.68 L694.142 1472.62 L674.235 1472.62 L674.235 1468.68 Z" fill="#000000" fill-rule="nonzero" fill-opacity="1" /><path clip-path="url(#clip310)" d="M1080.94 1468.68 L1097.26 1468.68 L1097.26 1472.62 L1075.32 1472.62 L1075.32 1468.68 Q1077.98 1465.93 1082.56 1461.3 Q1087.17 1456.65 1088.35 1455.31 Q1090.59 1452.78 1091.47 1451.05 Q1092.38 1449.29 1092.38 1447.6 Q1092.38 1444.84 1090.43 1443.11 Q1088.51 1441.37 1085.41 1441.37 Q1083.21 1441.37 1080.76 1442.13 Q1078.33 1442.9 1075.55 1444.45 L1075.55 1439.73 Q1078.37 1438.59 1080.83 1438.01 Q1083.28 1437.43 1085.32 1437.43 Q1090.69 1437.43 1093.88 1440.12 Q1097.08 1442.81 1097.08 1447.3 Q1097.08 1449.43 1096.27 1451.35 Q1095.48 1453.24 1093.37 1455.84 Q1092.79 1456.51 1089.69 1459.73 Q1086.59 1462.92 1080.94 1468.68 Z" fill="#000000" fill-rule="nonzero" fill-opacity="1" /><path clip-path="url(#clip310)" d="M1492.97 1453.99 Q1496.33 1454.7 1498.2 1456.97 Q1500.1 1459.24 1500.1 1462.57 Q1500.1 1467.69 1496.58 1470.49 Q1493.07 1473.29 1486.58 1473.29 Q1484.41 1473.29 1482.09 1472.85 Q1479.8 1472.43 1477.35 1471.58 L1477.35 1467.06 Q1479.29 1468.2 1481.61 1468.78 Q1483.92 1469.36 1486.45 1469.36 Q1490.84 1469.36 1493.13 1467.62 Q1495.45 1465.88 1495.45 1462.57 Q1495.45 1459.52 1493.3 1457.81 Q1491.17 1456.07 1487.35 1456.07 L1483.32 1456.07 L1483.32 1452.23 L1487.53 1452.23 Q1490.98 1452.23 1492.81 1450.86 Q1494.64 1449.47 1494.64 1446.88 Q1494.64 1444.22 1492.74 1442.81 Q1490.87 1441.37 1487.35 1441.37 Q1485.43 1441.37 1483.23 1441.79 Q1481.03 1442.2 1478.39 1443.08 L1478.39 1438.92 Q1481.05 1438.18 1483.37 1437.81 Q1485.7 1437.43 1487.76 1437.43 Q1493.09 1437.43 1496.19 1439.87 Q1499.29 1442.27 1499.29 1446.39 Q1499.29 1449.26 1497.65 1451.25 Q1496.01 1453.22 1492.97 1453.99 Z" fill="#000000" fill-rule="nonzero" fill-opacity="1" /><path clip-path="url(#clip310)" d="M1894.17 1442.13 L1882.37 1460.58 L1894.17 1460.58 L1894.17 1442.13 M1892.94 1438.06 L1898.82 1438.06 L1898.82 1460.58 L1903.75 1460.58 L1903.75 1464.47 L1898.82 1464.47 L1898.82 1472.62 L1894.17 1472.62 L1894.17 1464.47 L1878.57 1464.47 L1878.57 1459.96 L1892.94 1438.06 Z" fill="#000000" fill-rule="nonzero" fill-opacity="1" /><path clip-path="url(#clip310)" d="M2283.88 1438.06 L2302.23 1438.06 L2302.23 1442 L2288.16 1442 L2288.16 1450.47 Q2289.18 1450.12 2290.2 1449.96 Q2291.21 1449.77 2292.23 1449.77 Q2298.02 1449.77 2301.4 1452.94 Q2304.78 1456.12 2304.78 1461.53 Q2304.78 1467.11 2301.31 1470.21 Q2297.83 1473.29 2291.51 1473.29 Q2289.34 1473.29 2287.07 1472.92 Q2284.82 1472.55 2282.42 1471.81 L2282.42 1467.11 Q2284.5 1468.24 2286.72 1468.8 Q2288.95 1469.36 2291.42 1469.36 Q2295.43 1469.36 2297.76 1467.25 Q2300.1 1465.14 2300.1 1461.53 Q2300.1 1457.92 2297.76 1455.81 Q2295.43 1453.71 2291.42 1453.71 Q2289.55 1453.71 2287.67 1454.12 Q2285.82 1454.54 2283.88 1455.42 L2283.88 1438.06 Z" fill="#000000" fill-rule="nonzero" fill-opacity="1" /><path clip-path="url(#clip310)" d="M1319.43 1515.01 Q1319.43 1521.77 1316.52 1528.41 Q1313.65 1535.01 1308.98 1540.01 Q1304.35 1544.97 1298.08 1548.04 Q1291.8 1551.12 1285.41 1551.12 L1257.62 1551.12 Q1256.63 1551.12 1256.23 1551.08 Q1255.86 1551.04 1255.57 1550.83 Q1255.28 1550.58 1255.28 1550.09 Q1255.28 1549.31 1255.61 1548.99 Q1255.94 1548.62 1256.31 1548.58 Q1256.68 1548.54 1257.62 1548.54 Q1259.67 1548.54 1260.9 1548.41 Q1262.13 1548.29 1262.91 1548.13 Q1263.73 1547.92 1264.14 1547.35 Q1264.59 1546.77 1264.79 1546.28 Q1265 1545.75 1265.28 1544.56 L1276.51 1499.47 Q1276.84 1498.12 1276.84 1497.91 Q1276.84 1497.22 1276.43 1496.97 Q1276.06 1496.68 1275 1496.56 Q1272.95 1496.4 1271.39 1496.4 Q1270.37 1496.4 1269.96 1496.36 Q1269.59 1496.31 1269.26 1496.11 Q1268.97 1495.86 1268.97 1495.37 Q1268.97 1494.59 1269.3 1494.27 Q1269.67 1493.9 1270.08 1493.86 Q1270.49 1493.77 1271.47 1493.77 L1299.67 1493.77 Q1305.78 1493.77 1310.33 1496.64 Q1314.88 1499.47 1317.14 1504.27 Q1319.43 1509.02 1319.43 1515.01 M1312.09 1511.93 Q1312.09 1504.1 1307.83 1500.25 Q1303.61 1496.4 1296.93 1496.4 L1287.95 1496.4 Q1285.29 1496.4 1284.63 1496.89 Q1283.97 1497.34 1283.4 1499.59 L1271.88 1545.67 Q1271.47 1547.18 1271.47 1547.59 Q1271.47 1548.04 1271.68 1548.21 Q1271.92 1548.33 1272.58 1548.41 Q1273.32 1548.54 1274.42 1548.54 L1283.89 1548.54 Q1287.54 1548.54 1290.86 1547.55 Q1294.22 1546.53 1296.64 1544.93 Q1299.06 1543.29 1300.62 1541.89 Q1302.17 1540.46 1303.28 1539.03 Q1305.78 1535.79 1307.63 1531.57 Q1309.51 1527.34 1310.37 1523.49 Q1311.27 1519.6 1311.68 1516.73 Q1312.09 1513.82 1312.09 1511.93 Z" fill="#000000" fill-rule="nonzero" fill-opacity="1" /><path clip-path="url(#clip310)" d="M1327.77 1574.38 Q1327.77 1573.31 1327.86 1573 Q1327.97 1572.68 1328.43 1572.19 L1339.71 1559.63 Q1345.88 1552.68 1345.88 1546.63 Q1345.88 1542.7 1343.81 1539.89 Q1341.78 1537.07 1338.02 1537.07 Q1335.43 1537.07 1333.25 1538.65 Q1331.07 1540.23 1330.07 1543.04 Q1330.24 1542.99 1330.84 1542.99 Q1332.31 1542.99 1333.11 1543.9 Q1333.94 1544.82 1333.94 1546.06 Q1333.94 1547.63 1332.91 1548.41 Q1331.91 1549.15 1330.9 1549.15 Q1330.5 1549.15 1329.95 1549.07 Q1329.44 1548.98 1328.61 1548.18 Q1327.77 1547.35 1327.77 1545.88 Q1327.77 1541.78 1330.87 1538.51 Q1334 1535.24 1338.76 1535.24 Q1344.16 1535.24 1347.69 1538.45 Q1351.24 1541.64 1351.24 1546.63 Q1351.24 1548.38 1350.7 1549.99 Q1350.18 1551.56 1349.47 1552.8 Q1348.78 1554.03 1346.88 1556.01 Q1344.99 1557.99 1343.47 1559.4 Q1341.95 1560.8 1338.53 1563.79 L1332.31 1569.84 L1342.89 1569.84 Q1348.06 1569.84 1348.46 1569.38 Q1349.03 1568.55 1349.75 1564.16 L1351.24 1564.16 L1349.58 1574.38 L1327.77 1574.38 Z" fill="#000000" fill-rule="nonzero" fill-opacity="1" /><polyline clip-path="url(#clip312)" style="stroke:#000000; stroke-linecap:round; stroke-linejoin:round; stroke-width:2; stroke-opacity:0.1; fill:none" points="262.502,1371.65 2352.76,1371.65 "/>
<polyline clip-path="url(#clip312)" style="stroke:#000000; stroke-linecap:round; stroke-linejoin:round; stroke-width:2; stroke-opacity:0.1; fill:none" points="262.502,1050.19 2352.76,1050.19 "/>
<polyline clip-path="url(#clip312)" style="stroke:#000000; stroke-linecap:round; stroke-linejoin:round; stroke-width:2; stroke-opacity:0.1; fill:none" points="262.502,728.732 2352.76,728.732 "/>
<polyline clip-path="url(#clip312)" style="stroke:#000000; stroke-linecap:round; stroke-linejoin:round; stroke-width:2; stroke-opacity:0.1; fill:none" points="262.502,407.275 2352.76,407.275 "/>
<polyline clip-path="url(#clip312)" style="stroke:#000000; stroke-linecap:round; stroke-linejoin:round; stroke-width:2; stroke-opacity:0.1; fill:none" points="262.502,85.8189 2352.76,85.8189 "/>
<polyline clip-path="url(#clip310)" style="stroke:#000000; stroke-linecap:round; stroke-linejoin:round; stroke-width:4; stroke-opacity:1; fill:none" points="262.502,1410.22 262.502,47.2441 "/>
<polyline clip-path="url(#clip310)" style="stroke:#000000; stroke-linecap:round; stroke-linejoin:round; stroke-width:4; stroke-opacity:1; fill:none" points="262.502,1371.65 281.4,1371.65 "/>
<polyline clip-path="url(#clip310)" style="stroke:#000000; stroke-linecap:round; stroke-linejoin:round; stroke-width:4; stroke-opacity:1; fill:none" points="262.502,1050.19 281.4,1050.19 "/>
<polyline clip-path="url(#clip310)" style="stroke:#000000; stroke-linecap:round; stroke-linejoin:round; stroke-width:4; stroke-opacity:1; fill:none" points="262.502,728.732 281.4,728.732 "/>
<polyline clip-path="url(#clip310)" style="stroke:#000000; stroke-linecap:round; stroke-linejoin:round; stroke-width:4; stroke-opacity:1; fill:none" points="262.502,407.275 281.4,407.275 "/>
<polyline clip-path="url(#clip310)" style="stroke:#000000; stroke-linecap:round; stroke-linejoin:round; stroke-width:4; stroke-opacity:1; fill:none" points="262.502,85.8189 281.4,85.8189 "/>
<path clip-path="url(#clip310)" d="M139.165 1357.44 Q135.553 1357.44 133.725 1361.01 Q131.919 1364.55 131.919 1371.68 Q131.919 1378.79 133.725 1382.35 Q135.553 1385.89 139.165 1385.89 Q142.799 1385.89 144.604 1382.35 Q146.433 1378.79 146.433 1371.68 Q146.433 1364.55 144.604 1361.01 Q142.799 1357.44 139.165 1357.44 M139.165 1353.74 Q144.975 1353.74 148.03 1358.35 Q151.109 1362.93 151.109 1371.68 Q151.109 1380.41 148.03 1385.01 Q144.975 1389.6 139.165 1389.6 Q133.354 1389.6 130.276 1385.01 Q127.22 1380.41 127.22 1371.68 Q127.22 1362.93 130.276 1358.35 Q133.354 1353.74 139.165 1353.74 Z" fill="#000000" fill-rule="nonzero" fill-opacity="1" /><path clip-path="url(#clip310)" d="M159.326 1383.05 L164.211 1383.05 L164.211 1388.93 L159.326 1388.93 L159.326 1383.05 Z" fill="#000000" fill-rule="nonzero" fill-opacity="1" /><path clip-path="url(#clip310)" d="M184.396 1357.44 Q180.785 1357.44 178.956 1361.01 Q177.15 1364.55 177.15 1371.68 Q177.15 1378.79 178.956 1382.35 Q180.785 1385.89 184.396 1385.89 Q188.03 1385.89 189.836 1382.35 Q191.664 1378.79 191.664 1371.68 Q191.664 1364.55 189.836 1361.01 Q188.03 1357.44 184.396 1357.44 M184.396 1353.74 Q190.206 1353.74 193.261 1358.35 Q196.34 1362.93 196.34 1371.68 Q196.34 1380.41 193.261 1385.01 Q190.206 1389.6 184.396 1389.6 Q178.586 1389.6 175.507 1385.01 Q172.451 1380.41 172.451 1371.68 Q172.451 1362.93 175.507 1358.35 Q178.586 1353.74 184.396 1353.74 Z" fill="#000000" fill-rule="nonzero" fill-opacity="1" /><path clip-path="url(#clip310)" d="M214.558 1357.44 Q210.947 1357.44 209.118 1361.01 Q207.312 1364.55 207.312 1371.68 Q207.312 1378.79 209.118 1382.35 Q210.947 1385.89 214.558 1385.89 Q218.192 1385.89 219.997 1382.35 Q221.826 1378.79 221.826 1371.68 Q221.826 1364.55 219.997 1361.01 Q218.192 1357.44 214.558 1357.44 M214.558 1353.74 Q220.368 1353.74 223.423 1358.35 Q226.502 1362.93 226.502 1371.68 Q226.502 1380.41 223.423 1385.01 Q220.368 1389.6 214.558 1389.6 Q208.747 1389.6 205.669 1385.01 Q202.613 1380.41 202.613 1371.68 Q202.613 1362.93 205.669 1358.35 Q208.747 1353.74 214.558 1353.74 Z" fill="#000000" fill-rule="nonzero" fill-opacity="1" /><path clip-path="url(#clip310)" d="M140.16 1035.99 Q136.549 1035.99 134.72 1039.55 Q132.915 1043.09 132.915 1050.22 Q132.915 1057.33 134.72 1060.89 Q136.549 1064.44 140.16 1064.44 Q143.794 1064.44 145.6 1060.89 Q147.428 1057.33 147.428 1050.22 Q147.428 1043.09 145.6 1039.55 Q143.794 1035.99 140.16 1035.99 M140.16 1032.28 Q145.97 1032.28 149.026 1036.89 Q152.104 1041.47 152.104 1050.22 Q152.104 1058.95 149.026 1063.56 Q145.97 1068.14 140.16 1068.14 Q134.35 1068.14 131.271 1063.56 Q128.216 1058.95 128.216 1050.22 Q128.216 1041.47 131.271 1036.89 Q134.35 1032.28 140.16 1032.28 Z" fill="#000000" fill-rule="nonzero" fill-opacity="1" /><path clip-path="url(#clip310)" d="M160.322 1061.59 L165.206 1061.59 L165.206 1067.47 L160.322 1067.47 L160.322 1061.59 Z" fill="#000000" fill-rule="nonzero" fill-opacity="1" /><path clip-path="url(#clip310)" d="M179.419 1063.53 L195.738 1063.53 L195.738 1067.47 L173.794 1067.47 L173.794 1063.53 Q176.456 1060.78 181.039 1056.15 Q185.646 1051.5 186.826 1050.15 Q189.072 1047.63 189.951 1045.89 Q190.854 1044.14 190.854 1042.45 Q190.854 1039.69 188.91 1037.95 Q186.988 1036.22 183.887 1036.22 Q181.687 1036.22 179.234 1036.98 Q176.803 1037.75 174.025 1039.3 L174.025 1034.58 Q176.85 1033.44 179.303 1032.86 Q181.757 1032.28 183.794 1032.28 Q189.164 1032.28 192.359 1034.97 Q195.553 1037.65 195.553 1042.14 Q195.553 1044.27 194.743 1046.2 Q193.956 1048.09 191.849 1050.69 Q191.271 1051.36 188.169 1054.58 Q185.067 1057.77 179.419 1063.53 Z" fill="#000000" fill-rule="nonzero" fill-opacity="1" /><path clip-path="url(#clip310)" d="M205.599 1032.91 L223.956 1032.91 L223.956 1036.84 L209.882 1036.84 L209.882 1045.32 Q210.9 1044.97 211.919 1044.81 Q212.937 1044.62 213.956 1044.62 Q219.743 1044.62 223.122 1047.79 Q226.502 1050.96 226.502 1056.38 Q226.502 1061.96 223.03 1065.06 Q219.558 1068.14 213.238 1068.14 Q211.062 1068.14 208.794 1067.77 Q206.548 1067.4 204.141 1066.66 L204.141 1061.96 Q206.224 1063.09 208.447 1063.65 Q210.669 1064.2 213.146 1064.2 Q217.15 1064.2 219.488 1062.1 Q221.826 1059.99 221.826 1056.38 Q221.826 1052.77 219.488 1050.66 Q217.15 1048.56 213.146 1048.56 Q211.271 1048.56 209.396 1048.97 Q207.544 1049.39 205.599 1050.27 L205.599 1032.91 Z" fill="#000000" fill-rule="nonzero" fill-opacity="1" /><path clip-path="url(#clip310)" d="M139.165 714.531 Q135.553 714.531 133.725 718.095 Q131.919 721.637 131.919 728.767 Q131.919 735.873 133.725 739.438 Q135.553 742.98 139.165 742.98 Q142.799 742.98 144.604 739.438 Q146.433 735.873 146.433 728.767 Q146.433 721.637 144.604 718.095 Q142.799 714.531 139.165 714.531 M139.165 710.827 Q144.975 710.827 148.03 715.433 Q151.109 720.017 151.109 728.767 Q151.109 737.493 148.03 742.1 Q144.975 746.683 139.165 746.683 Q133.354 746.683 130.276 742.1 Q127.22 737.493 127.22 728.767 Q127.22 720.017 130.276 715.433 Q133.354 710.827 139.165 710.827 Z" fill="#000000" fill-rule="nonzero" fill-opacity="1" /><path clip-path="url(#clip310)" d="M159.326 740.132 L164.211 740.132 L164.211 746.012 L159.326 746.012 L159.326 740.132 Z" fill="#000000" fill-rule="nonzero" fill-opacity="1" /><path clip-path="url(#clip310)" d="M174.442 711.452 L192.799 711.452 L192.799 715.387 L178.725 715.387 L178.725 723.859 Q179.743 723.512 180.762 723.35 Q181.78 723.165 182.799 723.165 Q188.586 723.165 191.965 726.336 Q195.345 729.507 195.345 734.924 Q195.345 740.503 191.873 743.605 Q188.4 746.683 182.081 746.683 Q179.905 746.683 177.637 746.313 Q175.391 745.943 172.984 745.202 L172.984 740.503 Q175.067 741.637 177.289 742.193 Q179.512 742.748 181.988 742.748 Q185.993 742.748 188.331 740.642 Q190.669 738.535 190.669 734.924 Q190.669 731.313 188.331 729.207 Q185.993 727.1 181.988 727.1 Q180.113 727.1 178.238 727.517 Q176.387 727.933 174.442 728.813 L174.442 711.452 Z" fill="#000000" fill-rule="nonzero" fill-opacity="1" /><path clip-path="url(#clip310)" d="M214.558 714.531 Q210.947 714.531 209.118 718.095 Q207.312 721.637 207.312 728.767 Q207.312 735.873 209.118 739.438 Q210.947 742.98 214.558 742.98 Q218.192 742.98 219.997 739.438 Q221.826 735.873 221.826 728.767 Q221.826 721.637 219.997 718.095 Q218.192 714.531 214.558 714.531 M214.558 710.827 Q220.368 710.827 223.423 715.433 Q226.502 720.017 226.502 728.767 Q226.502 737.493 223.423 742.1 Q220.368 746.683 214.558 746.683 Q208.747 746.683 205.669 742.1 Q202.613 737.493 202.613 728.767 Q202.613 720.017 205.669 715.433 Q208.747 710.827 214.558 710.827 Z" fill="#000000" fill-rule="nonzero" fill-opacity="1" /><path clip-path="url(#clip310)" d="M140.16 393.074 Q136.549 393.074 134.72 396.639 Q132.915 400.181 132.915 407.31 Q132.915 414.417 134.72 417.981 Q136.549 421.523 140.16 421.523 Q143.794 421.523 145.6 417.981 Q147.428 414.417 147.428 407.31 Q147.428 400.181 145.6 396.639 Q143.794 393.074 140.16 393.074 M140.16 389.37 Q145.97 389.37 149.026 393.977 Q152.104 398.56 152.104 407.31 Q152.104 416.037 149.026 420.643 Q145.97 425.227 140.16 425.227 Q134.35 425.227 131.271 420.643 Q128.216 416.037 128.216 407.31 Q128.216 398.56 131.271 393.977 Q134.35 389.37 140.16 389.37 Z" fill="#000000" fill-rule="nonzero" fill-opacity="1" /><path clip-path="url(#clip310)" d="M160.322 418.676 L165.206 418.676 L165.206 424.555 L160.322 424.555 L160.322 418.676 Z" fill="#000000" fill-rule="nonzero" fill-opacity="1" /><path clip-path="url(#clip310)" d="M174.211 389.995 L196.433 389.995 L196.433 391.986 L183.887 424.555 L179.002 424.555 L190.808 393.931 L174.211 393.931 L174.211 389.995 Z" fill="#000000" fill-rule="nonzero" fill-opacity="1" /><path clip-path="url(#clip310)" d="M205.599 389.995 L223.956 389.995 L223.956 393.931 L209.882 393.931 L209.882 402.403 Q210.9 402.056 211.919 401.894 Q212.937 401.708 213.956 401.708 Q219.743 401.708 223.122 404.88 Q226.502 408.051 226.502 413.468 Q226.502 419.046 223.03 422.148 Q219.558 425.227 213.238 425.227 Q211.062 425.227 208.794 424.856 Q206.548 424.486 204.141 423.745 L204.141 419.046 Q206.224 420.18 208.447 420.736 Q210.669 421.292 213.146 421.292 Q217.15 421.292 219.488 419.185 Q221.826 417.079 221.826 413.468 Q221.826 409.856 219.488 407.75 Q217.15 405.643 213.146 405.643 Q211.271 405.643 209.396 406.06 Q207.544 406.477 205.599 407.356 L205.599 389.995 Z" fill="#000000" fill-rule="nonzero" fill-opacity="1" /><path clip-path="url(#clip310)" d="M129.975 99.1637 L137.614 99.1637 L137.614 72.7981 L129.303 74.4648 L129.303 70.2055 L137.567 68.5389 L142.243 68.5389 L142.243 99.1637 L149.882 99.1637 L149.882 103.099 L129.975 103.099 L129.975 99.1637 Z" fill="#000000" fill-rule="nonzero" fill-opacity="1" /><path clip-path="url(#clip310)" d="M159.326 97.2193 L164.211 97.2193 L164.211 103.099 L159.326 103.099 L159.326 97.2193 Z" fill="#000000" fill-rule="nonzero" fill-opacity="1" /><path clip-path="url(#clip310)" d="M184.396 71.6176 Q180.785 71.6176 178.956 75.1824 Q177.15 78.724 177.15 85.8536 Q177.15 92.96 178.956 96.5248 Q180.785 100.066 184.396 100.066 Q188.03 100.066 189.836 96.5248 Q191.664 92.96 191.664 85.8536 Q191.664 78.724 189.836 75.1824 Q188.03 71.6176 184.396 71.6176 M184.396 67.9139 Q190.206 67.9139 193.261 72.5203 Q196.34 77.1036 196.34 85.8536 Q196.34 94.5804 193.261 99.1869 Q190.206 103.77 184.396 103.77 Q178.586 103.77 175.507 99.1869 Q172.451 94.5804 172.451 85.8536 Q172.451 77.1036 175.507 72.5203 Q178.586 67.9139 184.396 67.9139 Z" fill="#000000" fill-rule="nonzero" fill-opacity="1" /><path clip-path="url(#clip310)" d="M214.558 71.6176 Q210.947 71.6176 209.118 75.1824 Q207.312 78.724 207.312 85.8536 Q207.312 92.96 209.118 96.5248 Q210.947 100.066 214.558 100.066 Q218.192 100.066 219.997 96.5248 Q221.826 92.96 221.826 85.8536 Q221.826 78.724 219.997 75.1824 Q218.192 71.6176 214.558 71.6176 M214.558 67.9139 Q220.368 67.9139 223.423 72.5203 Q226.502 77.1036 226.502 85.8536 Q226.502 94.5804 223.423 99.1869 Q220.368 103.77 214.558 103.77 Q208.747 103.77 205.669 99.1869 Q202.613 94.5804 202.613 85.8536 Q202.613 77.1036 205.669 72.5203 Q208.747 67.9139 214.558 67.9139 Z" fill="#000000" fill-rule="nonzero" fill-opacity="1" /><path clip-path="url(#clip310)" d="M64.8963 1194.98 L88.9587 1194.98 L88.9587 1202.47 L26.3317 1202.47 L26.3317 1194.98 L33.2183 1194.98 Q29.1674 1192.63 27.2229 1189.07 Q25.238 1185.46 25.238 1180.48 Q25.238 1172.21 31.8004 1167.07 Q38.3629 1161.88 49.0573 1161.88 Q59.7517 1161.88 66.3141 1167.07 Q72.8766 1172.21 72.8766 1180.48 Q72.8766 1185.46 70.9322 1189.07 Q68.9472 1192.63 64.8963 1194.98 M49.0573 1169.62 Q40.834 1169.62 36.1754 1173.02 Q31.4764 1176.39 31.4764 1182.3 Q31.4764 1188.21 36.1754 1191.62 Q40.834 1194.98 49.0573 1194.98 Q57.2806 1194.98 61.9797 1191.62 Q66.6382 1188.21 66.6382 1182.3 Q66.6382 1176.39 61.9797 1173.02 Q57.2806 1169.62 49.0573 1169.62 Z" fill="#000000" fill-rule="nonzero" fill-opacity="1" /><path clip-path="url(#clip310)" d="M33.2993 1123.24 Q32.5701 1124.49 32.246 1125.99 Q31.8815 1127.45 31.8815 1129.23 Q31.8815 1135.55 36.0134 1138.96 Q40.1048 1142.32 47.8015 1142.32 L71.7018 1142.32 L71.7018 1149.81 L26.3317 1149.81 L26.3317 1142.32 L33.3803 1142.32 Q29.2484 1139.97 27.2634 1136.2 Q25.238 1132.43 25.238 1127.05 Q25.238 1126.28 25.3595 1125.34 Q25.4405 1124.41 25.6431 1123.28 L33.2993 1123.24 Z" fill="#000000" fill-rule="nonzero" fill-opacity="1" /><path clip-path="url(#clip310)" d="M31.5574 1099.66 Q31.5574 1105.66 36.2564 1109.14 Q40.915 1112.62 49.0573 1112.62 Q57.1996 1112.62 61.8987 1109.18 Q66.5572 1105.7 66.5572 1099.66 Q66.5572 1093.71 61.8581 1090.22 Q57.1591 1086.74 49.0573 1086.74 Q40.996 1086.74 36.2969 1090.22 Q31.5574 1093.71 31.5574 1099.66 M25.238 1099.66 Q25.238 1089.94 31.5574 1084.39 Q37.8768 1078.84 49.0573 1078.84 Q60.1973 1078.84 66.5572 1084.39 Q72.8766 1089.94 72.8766 1099.66 Q72.8766 1109.42 66.5572 1114.97 Q60.1973 1120.48 49.0573 1120.48 Q37.8768 1120.48 31.5574 1114.97 Q25.238 1109.42 25.238 1099.66 Z" fill="#000000" fill-rule="nonzero" fill-opacity="1" /><path clip-path="url(#clip310)" d="M8.66978 1043.52 L14.8677 1043.52 L14.8677 1050.65 Q14.8677 1054.66 16.488 1056.24 Q18.1084 1057.78 22.3213 1057.78 L26.3317 1057.78 L26.3317 1045.5 L32.1245 1045.5 L32.1245 1057.78 L71.7018 1057.78 L71.7018 1065.27 L32.1245 1065.27 L32.1245 1072.4 L26.3317 1072.4 L26.3317 1065.27 L23.172 1065.27 Q15.5968 1065.27 12.1536 1061.75 Q8.66978 1058.22 8.66978 1050.57 L8.66978 1043.52 Z" fill="#000000" fill-rule="nonzero" fill-opacity="1" /><path clip-path="url(#clip310)" d="M26.3317 1037.28 L26.3317 1029.82 L71.7018 1029.82 L71.7018 1037.28 L26.3317 1037.28 M8.66978 1037.28 L8.66978 1029.82 L18.1084 1029.82 L18.1084 1037.28 L8.66978 1037.28 Z" fill="#000000" fill-rule="nonzero" fill-opacity="1" /><path clip-path="url(#clip310)" d="M8.66978 1014.23 L8.66978 1006.77 L71.7018 1006.77 L71.7018 1014.23 L8.66978 1014.23 Z" fill="#000000" fill-rule="nonzero" fill-opacity="1" /><path clip-path="url(#clip310)" d="M47.1534 952.371 L50.7992 952.371 L50.7992 986.642 Q58.4959 986.156 62.5468 982.024 Q66.5572 977.851 66.5572 970.438 Q66.5572 966.144 65.504 962.134 Q64.4507 958.083 62.3443 954.113 L69.3928 954.113 Q71.0942 958.123 71.9854 962.336 Q72.8766 966.549 72.8766 970.884 Q72.8766 981.74 66.5572 988.1 Q60.2378 994.42 49.4624 994.42 Q38.3224 994.42 31.8004 988.424 Q25.238 982.388 25.238 972.18 Q25.238 963.025 31.1523 957.718 Q37.0261 952.371 47.1534 952.371 M44.9659 959.825 Q38.849 959.906 35.2032 963.268 Q31.5574 966.59 31.5574 972.099 Q31.5574 978.337 35.0817 982.105 Q38.606 985.832 45.0064 986.399 L44.9659 959.825 Z" fill="#000000" fill-rule="nonzero" fill-opacity="1" /><path clip-path="url(#clip310)" d="M8.66978 913.766 L8.66978 906.312 L71.7018 906.312 L71.7018 913.766 L8.66978 913.766 Z" fill="#000000" fill-rule="nonzero" fill-opacity="1" /><path clip-path="url(#clip310)" d="M26.3317 890.716 L26.3317 883.263 L71.7018 883.263 L71.7018 890.716 L26.3317 890.716 M8.66978 890.716 L8.66978 883.263 L18.1084 883.263 L18.1084 890.716 L8.66978 890.716 Z" fill="#000000" fill-rule="nonzero" fill-opacity="1" /><path clip-path="url(#clip310)" d="M8.66978 867.95 L8.66978 860.456 L45.8976 860.456 L26.3317 838.217 L26.3317 828.697 L47.5585 852.759 L71.7018 827.684 L71.7018 837.407 L49.5434 860.456 L71.7018 860.456 L71.7018 867.95 L8.66978 867.95 Z" fill="#000000" fill-rule="nonzero" fill-opacity="1" /><path clip-path="url(#clip310)" d="M47.1534 783.773 L50.7992 783.773 L50.7992 818.043 Q58.4959 817.557 62.5468 813.425 Q66.5572 809.253 66.5572 801.84 Q66.5572 797.546 65.504 793.535 Q64.4507 789.484 62.3443 785.514 L69.3928 785.514 Q71.0942 789.525 71.9854 793.738 Q72.8766 797.951 72.8766 802.285 Q72.8766 813.142 66.5572 819.502 Q60.2378 825.821 49.4624 825.821 Q38.3224 825.821 31.8004 819.826 Q25.238 813.79 25.238 803.581 Q25.238 794.426 31.1523 789.12 Q37.0261 783.773 47.1534 783.773 M44.9659 791.226 Q38.849 791.307 35.2032 794.669 Q31.5574 797.991 31.5574 803.5 Q31.5574 809.739 35.0817 813.506 Q38.606 817.233 45.0064 817.8 L44.9659 791.226 Z" fill="#000000" fill-rule="nonzero" fill-opacity="1" /><path clip-path="url(#clip310)" d="M8.66978 771.539 L8.66978 764.085 L71.7018 764.085 L71.7018 771.539 L8.66978 771.539 Z" fill="#000000" fill-rule="nonzero" fill-opacity="1" /><path clip-path="url(#clip310)" d="M26.3317 748.489 L26.3317 741.035 L71.7018 741.035 L71.7018 748.489 L26.3317 748.489 M8.66978 748.489 L8.66978 741.035 L18.1084 741.035 L18.1084 748.489 L8.66978 748.489 Z" fill="#000000" fill-rule="nonzero" fill-opacity="1" /><path clip-path="url(#clip310)" d="M44.3177 687.726 L71.7018 687.726 L71.7018 695.179 L44.5608 695.179 Q38.1198 695.179 34.9196 697.691 Q31.7194 700.202 31.7194 705.226 Q31.7194 711.261 35.5678 714.745 Q39.4161 718.229 46.0596 718.229 L71.7018 718.229 L71.7018 725.723 L8.66978 725.723 L8.66978 718.229 L33.3803 718.229 Q29.2889 715.555 27.2634 711.95 Q25.238 708.304 25.238 703.565 Q25.238 695.746 30.0991 691.736 Q34.9196 687.726 44.3177 687.726 Z" fill="#000000" fill-rule="nonzero" fill-opacity="1" /><path clip-path="url(#clip310)" d="M31.5574 655.278 Q31.5574 661.273 36.2564 664.757 Q40.915 668.241 49.0573 668.241 Q57.1996 668.241 61.8987 664.797 Q66.5572 661.314 66.5572 655.278 Q66.5572 649.323 61.8581 645.839 Q57.1591 642.355 49.0573 642.355 Q40.996 642.355 36.2969 645.839 Q31.5574 649.323 31.5574 655.278 M25.238 655.278 Q25.238 645.556 31.5574 640.006 Q37.8768 634.456 49.0573 634.456 Q60.1973 634.456 66.5572 640.006 Q72.8766 645.556 72.8766 655.278 Q72.8766 665.041 66.5572 670.59 Q60.1973 676.1 49.0573 676.1 Q37.8768 676.1 31.5574 670.59 Q25.238 665.041 25.238 655.278 Z" fill="#000000" fill-rule="nonzero" fill-opacity="1" /><path clip-path="url(#clip310)" d="M31.5574 604.52 Q31.5574 610.515 36.2564 613.999 Q40.915 617.483 49.0573 617.483 Q57.1996 617.483 61.8987 614.04 Q66.5572 610.556 66.5572 604.52 Q66.5572 598.565 61.8581 595.081 Q57.1591 591.598 49.0573 591.598 Q40.996 591.598 36.2969 595.081 Q31.5574 598.565 31.5574 604.52 M25.238 604.52 Q25.238 594.798 31.5574 589.248 Q37.8768 583.698 49.0573 583.698 Q60.1973 583.698 66.5572 589.248 Q72.8766 594.798 72.8766 604.52 Q72.8766 614.283 66.5572 619.832 Q60.1973 625.342 49.0573 625.342 Q37.8768 625.342 31.5574 619.832 Q25.238 614.283 25.238 604.52 Z" fill="#000000" fill-rule="nonzero" fill-opacity="1" /><path clip-path="url(#clip310)" d="M33.2183 541.488 L8.66978 541.488 L8.66978 534.034 L71.7018 534.034 L71.7018 541.488 L64.8963 541.488 Q68.9472 543.837 70.9322 547.443 Q72.8766 551.008 72.8766 556.031 Q72.8766 564.254 66.3141 569.439 Q59.7517 574.584 49.0573 574.584 Q38.3629 574.584 31.8004 569.439 Q25.238 564.254 25.238 556.031 Q25.238 551.008 27.2229 547.443 Q29.1674 543.837 33.2183 541.488 M49.0573 566.887 Q57.2806 566.887 61.9797 563.525 Q66.6382 560.122 66.6382 554.208 Q66.6382 548.293 61.9797 544.891 Q57.2806 541.488 49.0573 541.488 Q40.834 541.488 36.1754 544.891 Q31.4764 548.293 31.4764 554.208 Q31.4764 560.122 36.1754 563.525 Q40.834 566.887 49.0573 566.887 Z" fill="#000000" fill-rule="nonzero" fill-opacity="1" /><path clip-path="url(#clip310)" d="M8.66978 469.341 L14.8677 469.341 L14.8677 476.471 Q14.8677 480.481 16.488 482.061 Q18.1084 483.601 22.3213 483.601 L26.3317 483.601 L26.3317 471.326 L32.1245 471.326 L32.1245 483.601 L71.7018 483.601 L71.7018 491.095 L32.1245 491.095 L32.1245 498.224 L26.3317 498.224 L26.3317 491.095 L23.172 491.095 Q15.5968 491.095 12.1536 487.57 Q8.66978 484.046 8.66978 476.39 L8.66978 469.341 Z" fill="#000000" fill-rule="nonzero" fill-opacity="1" /><path clip-path="url(#clip310)" d="M31.5574 445.522 Q31.5574 451.517 36.2564 455.001 Q40.915 458.485 49.0573 458.485 Q57.1996 458.485 61.8987 455.042 Q66.5572 451.558 66.5572 445.522 Q66.5572 439.567 61.8581 436.083 Q57.1591 432.6 49.0573 432.6 Q40.996 432.6 36.2969 436.083 Q31.5574 439.567 31.5574 445.522 M25.238 445.522 Q25.238 435.8 31.5574 430.25 Q37.8768 424.7 49.0573 424.7 Q60.1973 424.7 66.5572 430.25 Q72.8766 435.8 72.8766 445.522 Q72.8766 455.285 66.5572 460.834 Q60.1973 466.344 49.0573 466.344 Q37.8768 466.344 31.5574 460.834 Q25.238 455.285 25.238 445.522 Z" fill="#000000" fill-rule="nonzero" fill-opacity="1" /><path clip-path="url(#clip310)" d="M33.2993 386.055 Q32.5701 387.311 32.246 388.809 Q31.8815 390.268 31.8815 392.05 Q31.8815 398.37 36.0134 401.772 Q40.1048 405.135 47.8015 405.135 L71.7018 405.135 L71.7018 412.629 L26.3317 412.629 L26.3317 405.135 L33.3803 405.135 Q29.2484 402.785 27.2634 399.018 Q25.238 395.25 25.238 389.863 Q25.238 389.093 25.3595 388.161 Q25.4405 387.23 25.6431 386.095 L33.2993 386.055 Z" fill="#000000" fill-rule="nonzero" fill-opacity="1" /><path clip-path="url(#clip310)" d="M35.5903 295.535 Q42.3535 295.535 48.9938 298.445 Q55.5931 301.315 60.5938 305.987 Q65.5535 310.619 68.6276 316.891 Q71.7018 323.162 71.7018 329.556 L71.7018 357.347 Q71.7018 358.331 71.6609 358.741 Q71.6199 359.11 71.4149 359.396 Q71.169 359.683 70.6771 359.683 Q69.8983 359.683 69.5704 359.355 Q69.2015 359.028 69.1605 358.659 Q69.1195 358.29 69.1195 357.347 Q69.1195 355.298 68.9966 354.068 Q68.8736 352.838 68.7096 352.059 Q68.5047 351.24 67.9308 350.83 Q67.357 350.379 66.8651 350.174 Q66.3322 349.969 65.1436 349.682 L20.0554 338.451 Q18.7027 338.123 18.4978 338.123 Q17.8009 338.123 17.555 338.533 Q17.2681 338.902 17.1451 339.968 Q16.9812 342.017 16.9812 343.575 Q16.9812 344.599 16.9402 345.009 Q16.8992 345.378 16.6942 345.706 Q16.4483 345.993 15.9564 345.993 Q15.1776 345.993 14.8497 345.665 Q14.4808 345.296 14.4398 344.886 Q14.3578 344.476 14.3578 343.493 L14.3578 315.292 Q14.3578 309.185 17.2271 304.635 Q20.0554 300.085 24.8511 297.831 Q29.6059 295.535 35.5903 295.535 M32.5161 302.872 Q24.6871 302.872 20.8342 307.135 Q16.9812 311.357 16.9812 318.038 L16.9812 327.015 Q16.9812 329.679 17.473 330.335 Q17.9239 330.991 20.1783 331.565 L66.2503 343.083 Q67.7669 343.493 68.1768 343.493 Q68.6276 343.493 68.7916 343.288 Q68.9146 343.042 68.9966 342.386 Q69.1195 341.648 69.1195 340.541 L69.1195 331.073 Q69.1195 327.425 68.1358 324.105 Q67.111 320.744 65.5125 318.325 Q63.8729 315.907 62.4793 314.349 Q61.0446 312.792 59.61 311.685 Q56.3719 309.185 52.15 307.34 Q47.9281 305.455 44.0751 304.594 Q40.1811 303.692 37.3118 303.282 Q34.4016 302.872 32.5161 302.872 Z" fill="#000000" fill-rule="nonzero" fill-opacity="1" /><path clip-path="url(#clip310)" d="M94.9593 287.192 Q93.8977 287.192 93.5821 287.106 Q93.2665 286.991 92.7787 286.532 L80.2114 275.256 Q73.2678 269.087 67.2137 269.087 Q63.2828 269.087 60.471 271.153 Q57.6591 273.19 57.6591 276.949 Q57.6591 279.531 59.2372 281.712 Q60.8153 283.892 63.6271 284.897 Q63.5698 284.725 63.5698 284.122 Q63.5698 282.659 64.4879 281.855 Q65.4061 281.023 66.6399 281.023 Q68.2179 281.023 68.9926 282.056 Q69.7386 283.06 69.7386 284.065 Q69.7386 284.466 69.6526 285.011 Q69.5665 285.528 68.7631 286.36 Q67.931 287.192 66.4677 287.192 Q62.3647 287.192 59.0937 284.093 Q55.8228 280.966 55.8228 276.203 Q55.8228 270.809 59.0363 267.28 Q62.2212 263.722 67.2137 263.722 Q68.9639 263.722 70.5707 264.267 Q72.1488 264.783 73.3826 265.501 Q74.6164 266.189 76.5961 268.083 Q78.5759 269.977 79.9819 271.497 Q81.3878 273.018 84.3718 276.432 L90.4259 282.659 L90.4259 272.071 Q90.4259 266.907 89.9669 266.505 Q89.1348 265.931 84.7448 265.214 L84.7448 263.722 L94.9593 265.386 L94.9593 287.192 Z" fill="#000000" fill-rule="nonzero" fill-opacity="1" /><polyline clip-path="url(#clip312)" style="stroke:#000000; stroke-linecap:round; stroke-linejoin:round; stroke-width:8; stroke-opacity:1; fill:none" points="321.66,1009.3 325.612,130.419 329.564,85.819 333.515,85.819 337.467,85.8189 341.419,85.8189 345.371,85.8195 349.323,85.8189 353.274,85.8195 357.226,85.8189 361.178,85.8372 365.13,85.8189 369.082,85.8189 373.033,85.8191 376.985,85.8189 380.937,85.8189 384.889,85.8189 388.84,85.8189 392.792,85.8191 396.744,85.821 400.696,85.8189 404.648,85.8208 408.599,85.8189 412.551,85.8189 416.503,85.8214 420.455,85.8189 424.406,85.8189 428.358,85.8189 432.31,85.819 436.262,85.8189 440.214,85.8189 444.165,85.819 448.117,85.8189 452.069,85.8189 456.021,85.8189 459.972,85.8278 463.924,85.8335 467.876,85.835 471.828,85.8196 475.78,85.8189 479.731,85.819 483.683,85.8189 487.635,85.8189 491.587,85.8224 495.538,85.8195 499.49,85.819 503.442,85.819 507.394,85.8189 511.346,85.8189 515.297,85.8203 519.249,85.8191 523.201,85.8196 527.153,85.8972 531.104,85.8327 535.056,91.9918 539.008,85.821 542.96,85.8194 546.912,85.8388 550.863,91.3263 554.815,85.8193 558.767,85.8191 562.719,85.8196 566.67,85.819 570.622,85.819 574.574,85.819 578.526,85.9552 582.478,85.8192 586.429,88.0423 590.381,85.819 594.333,87.993 598.285,94.1856 602.236,85.8199 606.188,87.6765 610.14,85.8204 614.092,85.8189 618.044,85.8256 621.995,85.8204 625.947,85.8192 629.899,85.8212 633.851,86.6872 637.802,85.8192 641.754,86.7791 645.706,85.8189 649.658,86.7239 653.61,85.8196 657.561,85.8322 661.513,85.8249 665.465,85.8207 669.417,85.8189 673.368,88.3269 677.32,85.8189 681.272,85.8225 685.224,85.8189 689.176,85.8189 693.127,85.8222 697.079,85.9577 701.031,85.8189 704.983,85.8191 708.934,85.8191 712.886,85.8189 716.838,85.8475 720.79,85.8191 724.742,86.2716 728.693,85.8189 732.645,85.819 736.597,160.896 740.549,195.122 744.5,184.947 748.452,172.868 752.404,161.381 756.356,150.629 760.308,140.639 764.259,131.431 768.211,123.025 772.163,115.438 776.115,108.688 780.067,102.787 784.018,97.7498 787.97,93.5864 791.922,90.3064 795.874,87.917 799.825,86.4235 803.777,85.8308 807.729,86.1386 811.681,87.3487 815.633,89.4584 819.584,92.464 823.536,96.3597 827.488,101.138 831.44,106.789 835.391,113.302 839.343,120.663 843.295,128.859 847.247,137.872 851.199,147.687 855.15,158.277 859.102,169.629 863.054,181.717 867.006,194.517 870.957,208.004 874.909,222.153 878.861,236.935 882.813,252.322 886.765,268.285 890.716,284.793 894.668,301.816 898.62,319.321 902.572,337.278 906.523,355.653 910.475,374.413 914.427,393.526 918.379,412.957 922.331,432.674 926.282,452.644 930.234,472.832 934.186,493.207 938.138,513.735 942.089,534.384 946.041,555.123 949.993,575.92 953.945,596.745 957.897,617.567 961.848,638.358 965.8,659.09 969.752,679.735 973.704,700.266 977.655,720.658 981.607,740.887 985.559,760.929 989.511,780.762 993.463,800.365 997.414,819.718 1001.37,838.802 1005.32,857.6 1009.27,876.094 1013.22,894.27 1017.17,912.114 1021.13,929.613 1025.08,946.755 1029.03,963.53 1032.98,979.929 1036.93,995.943 1040.88,1011.57 1044.84,1026.79 1048.79,1041.61 1052.74,1056.03 1056.69,1070.04 1060.64,1083.64 1064.59,1096.83 1068.55,1109.6 1072.5,1121.97 1076.45,1133.93 1080.4,1145.48 1084.35,1156.63 1088.31,1167.38 1092.26,1177.73 1096.21,1187.7 1100.16,1197.28 1104.11,1206.49 1108.06,1215.32 1112.02,1223.8 1115.97,1231.91 1119.92,1239.68 1123.87,1247.11 1127.82,1254.21 1131.77,1260.99 1135.73,1267.45 1139.68,1273.61 1143.63,1279.48 1147.58,1285.05 1151.53,1290.36 1155.49,1295.39 1159.44,1300.16 1163.39,1304.69 1167.34,1308.98 1171.29,1313.03 1175.24,1316.87 1179.2,1320.49 1183.15,1323.91 1187.1,1327.13 1191.05,1330.17 1195,1333.03 1198.96,1335.72 1202.91,1338.25 1206.86,1340.62 1210.81,1342.85 1214.76,1344.93 1218.71,1346.89 1222.67,1348.72 1226.62,1350.43 1230.57,1352.02 1234.52,1353.51 1238.47,1354.9 1242.42,1356.2 1246.38,1357.41 1250.33,1358.53 1254.28,1359.57 1258.23,1360.54 1262.18,1361.44 1266.14,1362.27 1270.09,1363.04 1274.04,1363.76 1277.99,1364.42 1281.94,1365.03 1285.89,1365.59 1289.85,1366.11 1293.8,1366.59 1297.75,1367.03 1301.7,1367.44 1305.65,1367.81 1309.6,1368.15 1313.56,1368.47 1317.51,1368.76 1321.46,1369.02 1325.41,1369.26 1329.36,1369.48 1333.32,1369.69 1337.27,1369.87 1341.22,1370.04 1345.17,1370.19 1349.12,1370.33 1353.07,1370.46 1357.03,1370.58 1360.98,1370.68 1364.93,1370.78 1368.88,1370.86 1372.83,1370.94 1376.79,1371.01 1380.74,1371.08 1384.69,1371.14 1388.64,1371.19 1392.59,1371.24 1396.54,1371.28 1400.5,1371.32 1404.45,1371.35 1408.4,1371.38 1412.35,1371.41 1416.3,1371.44 1420.25,1371.46 1424.21,1371.48 1428.16,1371.5 1432.11,1371.51 1436.06,1371.53 1440.01,1371.54 1443.97,1371.55 1447.92,1371.56 1451.87,1371.57 1455.82,1371.58 1459.77,1371.59 1463.72,1371.6 1467.68,1371.6 1471.63,1371.61 1475.58,1371.61 1479.53,1371.62 1483.48,1371.62 1487.43,1371.62 1491.39,1371.62 1495.34,1371.63 1499.29,1371.63 1503.24,1371.63 1507.19,1371.63 1511.15,1371.63 1515.1,1371.64 1519.05,1371.64 1523,1371.64 1526.95,1371.64 1530.9,1371.64 1534.86,1371.64 1538.81,1371.64 1542.76,1371.64 1546.71,1371.64 1550.66,1371.64 1554.62,1371.64 1558.57,1371.64 1562.52,1371.64 1566.47,1371.64 1570.42,1371.64 1574.37,1371.64 1578.33,1371.64 1582.28,1371.64 1586.23,1371.64 1590.18,1371.64 1594.13,1371.64 1598.08,1371.64 1602.04,1371.64 1605.99,1371.64 1609.94,1371.64 1613.89,1371.64 1617.84,1371.64 1621.8,1371.64 1625.75,1371.64 1629.7,1371.64 1633.65,1371.64 1637.6,1371.64 1641.55,1371.64 1645.51,1371.64 1649.46,1371.65 1653.41,1371.65 1657.36,1371.65 1661.31,1371.65 1665.26,1371.65 1669.22,1371.65 1673.17,1371.65 1677.12,1371.65 1681.07,1371.65 1685.02,1371.65 1688.98,1371.65 1692.93,1371.65 1696.88,1371.65 1700.83,1371.65 1704.78,1371.65 1708.73,1371.65 1712.69,1371.65 1716.64,1371.65 1720.59,1371.65 1724.54,1371.65 1728.49,1371.65 1732.45,1371.65 1736.4,1371.65 1740.35,1371.65 1744.3,1371.65 1748.25,1371.65 1752.2,1371.65 1756.16,1371.65 1760.11,1371.65 1764.06,1371.65 1768.01,1371.65 1771.96,1371.65 1775.91,1371.65 1779.87,1371.65 1783.82,1371.65 1787.77,1371.65 1791.72,1371.65 1795.67,1371.65 1799.63,1371.65 1803.58,1371.65 1807.53,1371.65 1811.48,1371.65 1815.43,1371.65 1819.38,1371.65 1823.34,1371.65 1827.29,1371.65 1831.24,1371.65 1835.19,1371.65 1839.14,1371.65 1843.09,1371.65 1847.05,1371.65 1851,1371.65 1854.95,1371.65 1858.9,1371.65 1862.85,1371.65 1866.81,1371.65 1870.76,1371.65 1874.71,1371.65 1878.66,1371.65 1882.61,1371.65 1886.56,1371.65 1890.52,1371.65 1894.47,1371.65 1898.42,1371.65 1902.37,1371.65 1906.32,1371.65 1910.28,1371.65 1914.23,1371.65 1918.18,1371.65 1922.13,1371.65 1926.08,1371.65 1930.03,1371.65 1933.99,1371.65 1937.94,1371.65 1941.89,1371.65 1945.84,1371.65 1949.79,1371.65 1953.74,1371.65 1957.7,1371.65 1961.65,1371.65 1965.6,1371.65 1969.55,1371.65 1973.5,1371.65 1977.46,1371.65 1981.41,1371.65 1985.36,1371.65 1989.31,1371.65 1993.26,1371.65 1997.21,1371.65 2001.17,1371.65 2005.12,1371.65 2009.07,1371.65 2013.02,1371.65 2016.97,1371.65 2020.93,1371.65 2024.88,1371.65 2028.83,1371.65 2032.78,1371.65 2036.73,1371.65 2040.68,1371.65 2044.64,1371.65 2048.59,1371.65 2052.54,1371.65 2056.49,1371.65 2060.44,1371.65 2064.39,1371.65 2068.35,1371.65 2072.3,1371.65 2076.25,1371.65 2080.2,1371.65 2084.15,1371.65 2088.11,1371.65 2092.06,1371.65 2096.01,1371.65 2099.96,1371.65 2103.91,1371.65 2107.86,1371.65 2111.82,1371.65 2115.77,1371.65 2119.72,1371.65 2123.67,1371.65 2127.62,1371.65 2131.57,1371.65 2135.53,1371.65 2139.48,1371.65 2143.43,1371.65 2147.38,1371.65 2151.33,1371.65 2155.29,1371.65 2159.24,1371.65 2163.19,1371.65 2167.14,1371.65 2171.09,1371.65 2175.04,1371.65 2179,1371.65 2182.95,1371.65 2186.9,1371.65 2190.85,1371.65 2194.8,1371.65 2198.76,1371.65 2202.71,1371.65 2206.66,1371.65 2210.61,1371.65 2214.56,1371.65 2218.51,1371.65 2222.47,1371.65 2226.42,1371.65 2230.37,1371.65 2234.32,1371.65 2238.27,1371.65 2242.22,1371.65 2246.18,1371.65 2250.13,1371.65 2254.08,1371.65 2258.03,1371.65 2261.98,1371.65 2265.94,1371.65 2269.89,1371.65 2273.84,1371.65 2277.79,1371.65 2281.74,1371.65 2285.69,1371.65 2289.65,1371.65 2293.6,1371.65 "/>
<polyline clip-path="url(#clip312)" style="stroke:#000000; stroke-linecap:round; stroke-linejoin:round; stroke-width:8; stroke-opacity:1; fill:none" stroke-dasharray="32, 20" points="321.66,96.4548 325.612,85.8189 329.564,85.8191 333.515,85.8193 337.467,85.8196 341.419,85.8198 345.371,85.82 349.323,85.8202 353.274,85.8204 357.226,85.8206 361.178,85.8209 365.13,85.8211 369.082,85.8213 373.033,85.8215 376.985,85.8217 380.937,85.8219 384.889,85.8221 388.84,85.8223 392.792,85.8225 396.744,85.8227 400.696,85.8229 404.648,85.8231 408.599,85.8233 412.551,85.8234 416.503,85.8236 420.455,85.8238 424.406,85.824 428.358,85.8242 432.31,85.8244 436.262,85.8245 440.214,85.8247 444.165,85.8249 448.117,85.8251 452.069,85.8252 456.021,85.8254 459.972,85.8256 463.924,85.8257 467.876,85.8259 471.828,85.826 475.78,85.8262 479.731,85.8264 483.683,85.8265 487.635,85.8267 491.587,85.8268 495.538,85.827 499.49,85.8271 503.442,85.8272 507.394,85.8274 511.346,85.8275 515.297,85.8277 519.249,85.8278 523.201,85.8279 527.153,85.8281 531.104,85.8282 535.056,85.8283 539.008,85.8285 542.96,85.8286 546.912,85.8287 550.863,85.8288 554.815,85.829 558.767,85.8291 562.719,85.8292 566.67,85.8293 570.622,85.8294 574.574,85.8295 578.526,85.8296 582.478,85.8297 586.429,85.8298 590.381,85.8299 594.333,85.83 598.285,85.8301 602.236,85.8302 606.188,85.8303 610.14,85.8304 614.092,85.8305 618.044,85.8306 621.995,85.8307 625.947,85.8308 629.899,85.8309 633.851,85.831 637.802,85.831 641.754,85.8311 645.706,85.8312 649.658,85.8313 653.61,85.8313 657.561,85.8314 661.513,85.8315 665.465,85.8315 669.417,85.8316 673.368,85.8317 677.32,85.8317 681.272,85.8318 685.224,85.8319 689.176,85.8319 693.127,85.832 697.079,85.832 701.031,85.8321 704.983,85.8321 708.934,85.8322 712.886,85.8322 716.838,85.8323 720.79,85.8323 724.742,85.8323 728.693,85.8324 732.645,85.8324 736.597,85.8324 740.549,85.8325 744.5,85.8325 748.452,85.8325 752.404,85.8326 756.356,85.8326 760.308,85.8326 764.259,85.8326 768.211,85.8326 772.163,85.8327 776.115,85.8327 780.067,85.8327 784.018,85.8327 787.97,85.8327 791.922,85.8327 795.874,85.8327 799.825,85.8327 803.777,85.8327 807.729,86.0708 811.681,87.1758 815.633,89.1788 819.584,92.0757 823.536,95.8605 827.488,100.525 831.44,106.06 835.391,112.453 839.343,119.692 843.295,127.761 847.247,136.644 851.199,146.323 855.15,156.777 859.102,167.986 863.054,179.927 867.006,192.576 870.957,205.908 874.909,219.897 878.861,234.515 882.813,249.734 886.765,265.525 890.716,281.857 894.668,298.7 898.62,316.024 902.572,333.795 906.523,351.981 910.475,370.551 914.427,389.471 918.379,408.709 922.331,428.231 926.282,448.005 930.234,467.998 934.186,488.177 938.138,508.511 942.089,528.968 946.041,549.516 949.993,570.125 953.945,590.765 957.897,611.406 961.848,632.02 965.8,652.579 969.752,673.057 973.704,693.427 977.655,713.664 981.607,733.744 985.559,753.645 989.511,773.345 993.463,792.822 997.414,812.058 1001.37,831.033 1005.32,849.731 1009.27,868.135 1013.22,886.23 1017.17,904.003 1021.13,921.44 1025.08,938.531 1029.03,955.266 1032.98,971.634 1036.93,987.628 1040.88,1003.24 1044.84,1018.47 1048.79,1033.3 1052.74,1047.74 1056.69,1061.78 1060.64,1075.41 1064.59,1088.65 1068.55,1101.48 1072.5,1113.92 1076.45,1125.95 1080.4,1137.58 1084.35,1148.82 1088.31,1159.67 1092.26,1170.13 1096.21,1180.21 1100.16,1189.92 1104.11,1199.25 1108.06,1208.22 1112.02,1216.83 1115.97,1225.09 1119.92,1233 1123.87,1240.58 1127.82,1247.83 1131.77,1254.77 1135.73,1261.39 1139.68,1267.71 1143.63,1273.73 1147.58,1279.47 1151.53,1284.94 1155.49,1290.14 1159.44,1295.08 1163.39,1299.77 1167.34,1304.22 1171.29,1308.44 1175.24,1312.44 1179.2,1316.22 1183.15,1319.8 1187.1,1323.18 1191.05,1326.37 1195,1329.38 1198.96,1332.22 1202.91,1334.9 1206.86,1337.41 1210.81,1339.78 1214.76,1342 1218.71,1344.09 1222.67,1346.05 1226.62,1347.89 1230.57,1349.61 1234.52,1351.22 1238.47,1352.72 1242.42,1354.13 1246.38,1355.44 1250.33,1356.67 1254.28,1357.81 1258.23,1358.87 1262.18,1359.86 1266.14,1360.79 1270.09,1361.64 1274.04,1362.44 1277.99,1363.18 1281.94,1363.86 1285.89,1364.49 1289.85,1365.08 1293.8,1365.62 1297.75,1366.13 1301.7,1366.59 1305.65,1367.02 1309.6,1367.41 1313.56,1367.78 1317.51,1368.11 1321.46,1368.42 1325.41,1368.7 1329.36,1368.96 1333.32,1369.2 1337.27,1369.42 1341.22,1369.62 1345.17,1369.81 1349.12,1369.98 1353.07,1370.13 1357.03,1370.27 1360.98,1370.4 1364.93,1370.52 1368.88,1370.62 1372.83,1370.72 1376.79,1370.81 1380.74,1370.89 1384.69,1370.96 1388.64,1371.03 1392.59,1371.09 1396.54,1371.15 1400.5,1371.2 1404.45,1371.24 1408.4,1371.28 1412.35,1371.32 1416.3,1371.35 1420.25,1371.38 1424.21,1371.41 1428.16,1371.43 1432.11,1371.46 1436.06,1371.48 1440.01,1371.49 1443.97,1371.51 1447.92,1371.52 1451.87,1371.54 1455.82,1371.55 1459.77,1371.56 1463.72,1371.57 1467.68,1371.58 1471.63,1371.59 1475.58,1371.59 1479.53,1371.6 1483.48,1371.6 1487.43,1371.61 1491.39,1371.61 1495.34,1371.62 1499.29,1371.62 1503.24,1371.62 1507.19,1371.62 1511.15,1371.63 1515.1,1371.63 1519.05,1371.63 1523,1371.63 1526.95,1371.63 1530.9,1371.64 1534.86,1371.64 1538.81,1371.64 1542.76,1371.64 1546.71,1371.64 1550.66,1371.64 1554.62,1371.64 1558.57,1371.64 1562.52,1371.64 1566.47,1371.64 1570.42,1371.64 1574.37,1371.64 1578.33,1371.64 1582.28,1371.64 1586.23,1371.64 1590.18,1371.64 1594.13,1371.64 1598.08,1371.64 1602.04,1371.64 1605.99,1371.64 1609.94,1371.64 1613.89,1371.64 1617.84,1371.64 1621.8,1371.64 1625.75,1371.64 1629.7,1371.64 1633.65,1371.64 1637.6,1371.64 1641.55,1371.64 1645.51,1371.64 1649.46,1371.64 1653.41,1371.64 1657.36,1371.64 1661.31,1371.64 1665.26,1371.64 1669.22,1371.64 1673.17,1371.64 1677.12,1371.65 1681.07,1371.65 1685.02,1371.65 1688.98,1371.65 1692.93,1371.65 1696.88,1371.65 1700.83,1371.65 1704.78,1371.65 1708.73,1371.65 1712.69,1371.65 1716.64,1371.65 1720.59,1371.65 1724.54,1371.65 1728.49,1371.65 1732.45,1371.65 1736.4,1371.65 1740.35,1371.65 1744.3,1371.65 1748.25,1371.65 1752.2,1371.65 1756.16,1371.65 1760.11,1371.65 1764.06,1371.65 1768.01,1371.65 1771.96,1371.65 1775.91,1371.65 1779.87,1371.65 1783.82,1371.65 1787.77,1371.65 1791.72,1371.65 1795.67,1371.65 1799.63,1371.65 1803.58,1371.65 1807.53,1371.65 1811.48,1371.65 1815.43,1371.65 1819.38,1371.65 1823.34,1371.65 1827.29,1371.65 1831.24,1371.65 1835.19,1371.65 1839.14,1371.65 1843.09,1371.65 1847.05,1371.65 1851,1371.65 1854.95,1371.65 1858.9,1371.65 1862.85,1371.65 1866.81,1371.65 1870.76,1371.65 1874.71,1371.65 1878.66,1371.65 1882.61,1371.65 1886.56,1371.65 1890.52,1371.65 1894.47,1371.65 1898.42,1371.65 1902.37,1371.65 1906.32,1371.65 1910.28,1371.65 1914.23,1371.65 1918.18,1371.65 1922.13,1371.65 1926.08,1371.65 1930.03,1371.65 1933.99,1371.65 1937.94,1371.65 1941.89,1371.65 1945.84,1371.65 1949.79,1371.65 1953.74,1371.65 1957.7,1371.65 1961.65,1371.65 1965.6,1371.65 1969.55,1371.65 1973.5,1371.65 1977.46,1371.65 1981.41,1371.65 1985.36,1371.65 1989.31,1371.65 1993.26,1371.65 1997.21,1371.65 2001.17,1371.65 2005.12,1371.65 2009.07,1371.65 2013.02,1371.65 2016.97,1371.65 2020.93,1371.65 2024.88,1371.65 2028.83,1371.65 2032.78,1371.65 2036.73,1371.65 2040.68,1371.65 2044.64,1371.65 2048.59,1371.65 2052.54,1371.65 2056.49,1371.65 2060.44,1371.65 2064.39,1371.65 2068.35,1371.65 2072.3,1371.65 2076.25,1371.65 2080.2,1371.65 2084.15,1371.65 2088.11,1371.65 2092.06,1371.65 2096.01,1371.65 2099.96,1371.65 2103.91,1371.65 2107.86,1371.65 2111.82,1371.65 2115.77,1371.65 2119.72,1371.65 2123.67,1371.65 2127.62,1371.65 2131.57,1371.65 2135.53,1371.65 2139.48,1371.65 2143.43,1371.65 2147.38,1371.65 2151.33,1371.65 2155.29,1371.65 2159.24,1371.65 2163.19,1371.65 2167.14,1371.65 2171.09,1371.65 2175.04,1371.65 2179,1371.65 2182.95,1371.65 2186.9,1371.65 2190.85,1371.65 2194.8,1371.65 2198.76,1371.65 2202.71,1371.65 2206.66,1371.65 2210.61,1371.65 2214.56,1371.65 2218.51,1371.65 2222.47,1371.65 2226.42,1371.65 2230.37,1371.65 2234.32,1371.65 2238.27,1371.65 2242.22,1371.65 2246.18,1371.65 2250.13,1371.65 2254.08,1371.65 2258.03,1371.65 2261.98,1371.65 2265.94,1371.65 2269.89,1371.65 2273.84,1371.65 2277.79,1371.65 2281.74,1371.65 2285.69,1371.65 2289.65,1371.65 2293.6,1371.65 "/>
<polyline clip-path="url(#clip312)" style="stroke:#000000; stroke-linecap:round; stroke-linejoin:round; stroke-width:8; stroke-opacity:1; fill:none" stroke-dasharray="4, 8" points="420.455,2773.2 420.455,-1315.73 "/>
<polyline clip-path="url(#clip312)" style="stroke:#000000; stroke-linecap:round; stroke-linejoin:round; stroke-width:4; stroke-opacity:1; fill:none" points="-1827.75,1183.27 4443.01,1183.27 "/>
<polyline clip-path="url(#clip312)" style="stroke:#808080; stroke-linecap:round; stroke-linejoin:round; stroke-width:8; stroke-opacity:1; fill:none" points="683.853,2773.2 683.853,-1315.73 "/>
</svg>
