<?xml version="1.0" encoding="utf-8"?>
<svg xmlns="http://www.w3.org/2000/svg" xmlns:xlink="http://www.w3.org/1999/xlink" width="600" height="400" viewBox="0 0 2400 1600">
<defs>
  <clipPath id="clip340">
    <rect x="0" y="0" width="2400" height="1600"/>
  </clipPath>
</defs>
<path clip-path="url(#clip340)" d="M0 1600 L2400 1600 L2400 8.88178e-14 L0 8.88178e-14  Z" fill="#ffffff" fill-rule="evenodd" fill-opacity="1"/>
<defs>
  <clipPath id="clip341">
    <rect x="480" y="0" width="1681" height="1600"/>
  </clipPath>
</defs>
<path clip-path="url(#clip340)" d="M351.258 1321.46 L2352.76 1321.46 L2352.76 47.2441 L351.258 47.2441  Z" fill="#ffffff" fill-rule="evenodd" fill-opacity="1"/>
<defs>
  <clipPath id="clip342">
    <rect x="351" y="47" width="2002" height="1275"/>
  </clipPath>
</defs>
<polyline clip-path="url(#clip342)" style="stroke:#000000; stroke-linecap:round; stroke-linejoin:round; stroke-width:2; stroke-opacity:0.1; fill:none" points="407.885,1321.46 407.885,47.2441 "/>
<polyline clip-path="url(#clip342)" style="stroke:#000000; stroke-linecap:round; stroke-linejoin:round; stroke-width:2; stroke-opacity:0.1; fill:none" points="879.941,1321.46 879.941,47.2441 "/>
<polyline clip-path="url(#clip342)" style="stroke:#000000; stroke-linecap:round; stroke-linejoin:round; stroke-width:2; stroke-opacity:0.1; fill:none" points="1352,1321.46 1352,47.2441 "/>
<polyline clip-path="url(#clip342)" style="stroke:#000000; stroke-linecap:round; stroke-linejoin:round; stroke-width:2; stroke-opacity:0.1; fill:none" points="1824.05,1321.46 1824.05,47.2441 "/>
<polyline clip-path="url(#clip342)" style="stroke:#000000; stroke-linecap:round; stroke-linejoin:round; stroke-width:2; stroke-opacity:0.1; fill:none" points="2296.11,1321.46 2296.11,47.2441 "/>
<polyline clip-path="url(#clip342)" style="stroke:#000000; stroke-linecap:round; stroke-linejoin:round; stroke-width:2; stroke-opacity:0.1; fill:none" points="351.258,1285.4 2352.76,1285.4 "/>
<polyline clip-path="url(#clip342)" style="stroke:#000000; stroke-linecap:round; stroke-linejoin:round; stroke-width:2; stroke-opacity:0.1; fill:none" points="351.258,984.878 2352.76,984.878 "/>
<polyline clip-path="url(#clip342)" style="stroke:#000000; stroke-linecap:round; stroke-linejoin:round; stroke-width:2; stroke-opacity:0.1; fill:none" points="351.258,684.354 2352.76,684.354 "/>
<polyline clip-path="url(#clip342)" style="stroke:#000000; stroke-linecap:round; stroke-linejoin:round; stroke-width:2; stroke-opacity:0.1; fill:none" points="351.258,383.831 2352.76,383.831 "/>
<polyline clip-path="url(#clip342)" style="stroke:#000000; stroke-linecap:round; stroke-linejoin:round; stroke-width:2; stroke-opacity:0.1; fill:none" points="351.258,83.3069 2352.76,83.3069 "/>
<polyline clip-path="url(#clip340)" style="stroke:#000000; stroke-linecap:round; stroke-linejoin:round; stroke-width:4; stroke-opacity:1; fill:none" points="351.258,1321.46 2352.76,1321.46 "/>
<polyline clip-path="url(#clip340)" style="stroke:#000000; stroke-linecap:round; stroke-linejoin:round; stroke-width:4; stroke-opacity:1; fill:none" points="407.885,1321.46 407.885,1302.57 "/>
<polyline clip-path="url(#clip340)" style="stroke:#000000; stroke-linecap:round; stroke-linejoin:round; stroke-width:4; stroke-opacity:1; fill:none" points="879.941,1321.46 879.941,1302.57 "/>
<polyline clip-path="url(#clip340)" style="stroke:#000000; stroke-linecap:round; stroke-linejoin:round; stroke-width:4; stroke-opacity:1; fill:none" points="1352,1321.46 1352,1302.57 "/>
<polyline clip-path="url(#clip340)" style="stroke:#000000; stroke-linecap:round; stroke-linejoin:round; stroke-width:4; stroke-opacity:1; fill:none" points="1824.05,1321.46 1824.05,1302.57 "/>
<polyline clip-path="url(#clip340)" style="stroke:#000000; stroke-linecap:round; stroke-linejoin:round; stroke-width:4; stroke-opacity:1; fill:none" points="2296.11,1321.46 2296.11,1302.57 "/>
<path clip-path="url(#clip340)" d="M385.269 1352.38 Q381.658 1352.38 379.829 1355.95 Q378.024 1359.49 378.024 1366.62 Q378.024 1373.73 379.829 1377.29 Q381.658 1380.83 385.269 1380.83 Q388.903 1380.83 390.709 1377.29 Q392.538 1373.73 392.538 1366.62 Q392.538 1359.49 390.709 1355.95 Q388.903 1352.38 385.269 1352.38 M385.269 1348.68 Q391.079 1348.68 394.135 1353.29 Q397.214 1357.87 397.214 1366.62 Q397.214 1375.35 394.135 1379.95 Q391.079 1384.54 385.269 1384.54 Q379.459 1384.54 376.38 1379.95 Q373.325 1375.35 373.325 1366.62 Q373.325 1357.87 376.38 1353.29 Q379.459 1348.68 385.269 1348.68 Z" fill="#000000" fill-rule="nonzero" fill-opacity="1" /><path clip-path="url(#clip340)" d="M405.431 1377.98 L410.315 1377.98 L410.315 1383.86 L405.431 1383.86 L405.431 1377.98 Z" fill="#000000" fill-rule="nonzero" fill-opacity="1" /><path clip-path="url(#clip340)" d="M430.5 1352.38 Q426.889 1352.38 425.061 1355.95 Q423.255 1359.49 423.255 1366.62 Q423.255 1373.73 425.061 1377.29 Q426.889 1380.83 430.5 1380.83 Q434.135 1380.83 435.94 1377.29 Q437.769 1373.73 437.769 1366.62 Q437.769 1359.49 435.94 1355.95 Q434.135 1352.38 430.5 1352.38 M430.5 1348.68 Q436.311 1348.68 439.366 1353.29 Q442.445 1357.87 442.445 1366.62 Q442.445 1375.35 439.366 1379.95 Q436.311 1384.54 430.5 1384.54 Q424.69 1384.54 421.612 1379.95 Q418.556 1375.35 418.556 1366.62 Q418.556 1357.87 421.612 1353.29 Q424.69 1348.68 430.5 1348.68 Z" fill="#000000" fill-rule="nonzero" fill-opacity="1" /><path clip-path="url(#clip340)" d="M851.677 1379.93 L867.997 1379.93 L867.997 1383.86 L846.052 1383.86 L846.052 1379.93 Q848.714 1377.17 853.298 1372.54 Q857.904 1367.89 859.085 1366.55 Q861.33 1364.03 862.21 1362.29 Q863.112 1360.53 863.112 1358.84 Q863.112 1356.09 861.168 1354.35 Q859.247 1352.61 856.145 1352.61 Q853.946 1352.61 851.492 1353.38 Q849.062 1354.14 846.284 1355.69 L846.284 1350.97 Q849.108 1349.84 851.562 1349.26 Q854.015 1348.68 856.052 1348.68 Q861.423 1348.68 864.617 1351.36 Q867.812 1354.05 867.812 1358.54 Q867.812 1360.67 867.001 1362.59 Q866.214 1364.49 864.108 1367.08 Q863.529 1367.75 860.427 1370.97 Q857.325 1374.17 851.677 1379.93 Z" fill="#000000" fill-rule="nonzero" fill-opacity="1" /><path clip-path="url(#clip340)" d="M877.811 1377.98 L882.696 1377.98 L882.696 1383.86 L877.811 1383.86 L877.811 1377.98 Z" fill="#000000" fill-rule="nonzero" fill-opacity="1" /><path clip-path="url(#clip340)" d="M892.927 1349.3 L911.284 1349.3 L911.284 1353.24 L897.21 1353.24 L897.21 1361.71 Q898.228 1361.36 899.247 1361.2 Q900.265 1361.02 901.284 1361.02 Q907.071 1361.02 910.45 1364.19 Q913.83 1367.36 913.83 1372.78 Q913.83 1378.36 910.358 1381.46 Q906.885 1384.54 900.566 1384.54 Q898.39 1384.54 896.122 1384.17 Q893.876 1383.79 891.469 1383.05 L891.469 1378.36 Q893.552 1379.49 895.774 1380.04 Q897.997 1380.6 900.473 1380.6 Q904.478 1380.6 906.816 1378.49 Q909.154 1376.39 909.154 1372.78 Q909.154 1369.17 906.816 1367.06 Q904.478 1364.95 900.473 1364.95 Q898.598 1364.95 896.723 1365.37 Q894.872 1365.79 892.927 1366.67 L892.927 1349.3 Z" fill="#000000" fill-rule="nonzero" fill-opacity="1" /><path clip-path="url(#clip340)" d="M1319.16 1349.3 L1337.52 1349.3 L1337.52 1353.24 L1323.44 1353.24 L1323.44 1361.71 Q1324.46 1361.36 1325.48 1361.2 Q1326.5 1361.02 1327.52 1361.02 Q1333.31 1361.02 1336.68 1364.19 Q1340.06 1367.36 1340.06 1372.78 Q1340.06 1378.36 1336.59 1381.46 Q1333.12 1384.54 1326.8 1384.54 Q1324.62 1384.54 1322.36 1384.17 Q1320.11 1383.79 1317.7 1383.05 L1317.7 1378.36 Q1319.79 1379.49 1322.01 1380.04 Q1324.23 1380.6 1326.71 1380.6 Q1330.71 1380.6 1333.05 1378.49 Q1335.39 1376.39 1335.39 1372.78 Q1335.39 1369.17 1333.05 1367.06 Q1330.71 1364.95 1326.71 1364.95 Q1324.83 1364.95 1322.96 1365.37 Q1321.11 1365.79 1319.16 1366.67 L1319.16 1349.3 Z" fill="#000000" fill-rule="nonzero" fill-opacity="1" /><path clip-path="url(#clip340)" d="M1349.28 1377.98 L1354.16 1377.98 L1354.16 1383.86 L1349.28 1383.86 L1349.28 1377.98 Z" fill="#000000" fill-rule="nonzero" fill-opacity="1" /><path clip-path="url(#clip340)" d="M1374.35 1352.38 Q1370.74 1352.38 1368.91 1355.95 Q1367.1 1359.49 1367.1 1366.62 Q1367.1 1373.73 1368.91 1377.29 Q1370.74 1380.83 1374.35 1380.83 Q1377.98 1380.83 1379.79 1377.29 Q1381.62 1373.73 1381.62 1366.62 Q1381.62 1359.49 1379.79 1355.95 Q1377.98 1352.38 1374.35 1352.38 M1374.35 1348.68 Q1380.16 1348.68 1383.21 1353.29 Q1386.29 1357.87 1386.29 1366.62 Q1386.29 1375.35 1383.21 1379.95 Q1380.16 1384.54 1374.35 1384.54 Q1368.54 1384.54 1365.46 1379.95 Q1362.4 1375.35 1362.4 1366.62 Q1362.4 1357.87 1365.46 1353.29 Q1368.54 1348.68 1374.35 1348.68 Z" fill="#000000" fill-rule="nonzero" fill-opacity="1" /><path clip-path="url(#clip340)" d="M1790.37 1349.3 L1812.6 1349.3 L1812.6 1351.3 L1800.05 1383.86 L1795.16 1383.86 L1806.97 1353.24 L1790.37 1353.24 L1790.37 1349.3 Z" fill="#000000" fill-rule="nonzero" fill-opacity="1" /><path clip-path="url(#clip340)" d="M1821.72 1377.98 L1826.6 1377.98 L1826.6 1383.86 L1821.72 1383.86 L1821.72 1377.98 Z" fill="#000000" fill-rule="nonzero" fill-opacity="1" /><path clip-path="url(#clip340)" d="M1836.83 1349.3 L1855.19 1349.3 L1855.19 1353.24 L1841.11 1353.24 L1841.11 1361.71 Q1842.13 1361.36 1843.15 1361.2 Q1844.17 1361.02 1845.19 1361.02 Q1850.97 1361.02 1854.35 1364.19 Q1857.73 1367.36 1857.73 1372.78 Q1857.73 1378.36 1854.26 1381.46 Q1850.79 1384.54 1844.47 1384.54 Q1842.29 1384.54 1840.03 1384.17 Q1837.78 1383.79 1835.37 1383.05 L1835.37 1378.36 Q1837.46 1379.49 1839.68 1380.04 Q1841.9 1380.6 1844.38 1380.6 Q1848.38 1380.6 1850.72 1378.49 Q1853.06 1376.39 1853.06 1372.78 Q1853.06 1369.17 1850.72 1367.06 Q1848.38 1364.95 1844.38 1364.95 Q1842.5 1364.95 1840.63 1365.37 Q1838.78 1365.79 1836.83 1366.67 L1836.83 1349.3 Z" fill="#000000" fill-rule="nonzero" fill-opacity="1" /><path clip-path="url(#clip340)" d="M2248.18 1379.93 L2255.82 1379.93 L2255.82 1353.56 L2247.51 1355.23 L2247.51 1350.97 L2255.77 1349.3 L2260.45 1349.3 L2260.45 1379.93 L2268.09 1379.93 L2268.09 1383.86 L2248.18 1383.86 L2248.18 1379.93 Z" fill="#000000" fill-rule="nonzero" fill-opacity="1" /><path clip-path="url(#clip340)" d="M2287.53 1352.38 Q2283.92 1352.38 2282.09 1355.95 Q2280.29 1359.49 2280.29 1366.62 Q2280.29 1373.73 2282.09 1377.29 Q2283.92 1380.83 2287.53 1380.83 Q2291.17 1380.83 2292.97 1377.29 Q2294.8 1373.73 2294.8 1366.62 Q2294.8 1359.49 2292.97 1355.95 Q2291.17 1352.38 2287.53 1352.38 M2287.53 1348.68 Q2293.34 1348.68 2296.4 1353.29 Q2299.48 1357.87 2299.48 1366.62 Q2299.48 1375.35 2296.4 1379.95 Q2293.34 1384.54 2287.53 1384.54 Q2281.72 1384.54 2278.64 1379.95 Q2275.59 1375.35 2275.59 1366.62 Q2275.59 1357.87 2278.64 1353.29 Q2281.72 1348.68 2287.53 1348.68 Z" fill="#000000" fill-rule="nonzero" fill-opacity="1" /><path clip-path="url(#clip340)" d="M2307.7 1377.98 L2312.58 1377.98 L2312.58 1383.86 L2307.7 1383.86 L2307.7 1377.98 Z" fill="#000000" fill-rule="nonzero" fill-opacity="1" /><path clip-path="url(#clip340)" d="M2332.76 1352.38 Q2329.15 1352.38 2327.32 1355.95 Q2325.52 1359.49 2325.52 1366.62 Q2325.52 1373.73 2327.32 1377.29 Q2329.15 1380.83 2332.76 1380.83 Q2336.4 1380.83 2338.2 1377.29 Q2340.03 1373.73 2340.03 1366.62 Q2340.03 1359.49 2338.2 1355.95 Q2336.4 1352.38 2332.76 1352.38 M2332.76 1348.68 Q2338.57 1348.68 2341.63 1353.29 Q2344.71 1357.87 2344.71 1366.62 Q2344.71 1375.35 2341.63 1379.95 Q2338.57 1384.54 2332.76 1384.54 Q2326.95 1384.54 2323.88 1379.95 Q2320.82 1375.35 2320.82 1366.62 Q2320.82 1357.87 2323.88 1353.29 Q2326.95 1348.68 2332.76 1348.68 Z" fill="#000000" fill-rule="nonzero" fill-opacity="1" /><path clip-path="url(#clip340)" d="M1365.37 1407.6 Q1365.37 1414.37 1362.46 1421.01 Q1359.59 1427.61 1354.92 1432.61 Q1350.29 1437.57 1344.02 1440.64 Q1337.75 1443.72 1331.35 1443.72 L1303.56 1443.72 Q1302.58 1443.72 1302.17 1443.67 Q1301.8 1443.63 1301.51 1443.43 Q1301.23 1443.18 1301.23 1442.69 Q1301.23 1441.91 1301.55 1441.58 Q1301.88 1441.22 1302.25 1441.17 Q1302.62 1441.13 1303.56 1441.13 Q1305.61 1441.13 1306.84 1441.01 Q1308.07 1440.89 1308.85 1440.72 Q1309.67 1440.52 1310.08 1439.94 Q1310.53 1439.37 1310.74 1438.88 Q1310.94 1438.35 1311.23 1437.16 L1322.46 1392.07 Q1322.79 1390.72 1322.79 1390.51 Q1322.79 1389.81 1322.38 1389.57 Q1322.01 1389.28 1320.94 1389.16 Q1318.89 1389 1317.33 1389 Q1316.31 1389 1315.9 1388.95 Q1315.53 1388.91 1315.2 1388.71 Q1314.92 1388.46 1314.92 1387.97 Q1314.92 1387.19 1315.24 1386.86 Q1315.61 1386.49 1316.02 1386.45 Q1316.43 1386.37 1317.42 1386.37 L1345.62 1386.37 Q1351.72 1386.37 1356.27 1389.24 Q1360.82 1392.07 1363.08 1396.87 Q1365.37 1401.62 1365.37 1407.6 M1358.04 1404.53 Q1358.04 1396.7 1353.77 1392.85 Q1349.55 1389 1342.87 1389 L1333.89 1389 Q1331.23 1389 1330.57 1389.49 Q1329.92 1389.94 1329.34 1392.19 L1317.83 1438.26 Q1317.42 1439.78 1317.42 1440.19 Q1317.42 1440.64 1317.62 1440.81 Q1317.87 1440.93 1318.52 1441.01 Q1319.26 1441.13 1320.37 1441.13 L1329.84 1441.13 Q1333.48 1441.13 1336.8 1440.15 Q1340.17 1439.13 1342.58 1437.53 Q1345 1435.89 1346.56 1434.49 Q1348.12 1433.06 1349.22 1431.62 Q1351.72 1428.39 1353.57 1424.16 Q1355.46 1419.94 1356.32 1416.09 Q1357.22 1412.2 1357.63 1409.33 Q1358.04 1406.42 1358.04 1404.53 Z" fill="#000000" fill-rule="nonzero" fill-opacity="1" /><path clip-path="url(#clip340)" d="M1373.72 1433.43 L1373.72 1431.6 Q1380.78 1431.6 1384.42 1427.84 Q1385.42 1427.84 1385.6 1428.07 Q1385.77 1428.3 1385.77 1429.36 L1385.77 1462.33 Q1385.77 1464.08 1386.63 1464.62 Q1387.49 1465.17 1391.25 1465.17 L1393.11 1465.17 L1393.11 1466.97 Q1391.05 1466.8 1383.59 1466.8 Q1376.13 1466.8 1374.09 1466.97 L1374.09 1465.17 L1375.96 1465.17 Q1379.66 1465.17 1380.55 1464.65 Q1381.44 1464.1 1381.44 1462.33 L1381.44 1431.88 Q1378.37 1433.43 1373.72 1433.43 Z" fill="#000000" fill-rule="nonzero" fill-opacity="1" /><path clip-path="url(#clip340)" d="M1232.23 1489.37 L1480.75 1489.37 L1480.75 1484.89 L1232.23 1484.89  Z" fill="#000000" fill-rule="evenodd" fill-opacity="1"/>
<path clip-path="url(#clip340)" d="M1232.23 1581.15 L1246.44 1559.23 L1252.22 1588.31 L1253.3 1593.61 Q1253.54 1592.22 1254.26 1589.88 Q1255.05 1587.47 1255.17 1586.87 L1274.25 1513.59 Q1274.37 1513.11 1274.55 1512.33 Q1274.79 1511.48 1274.91 1511.18 Q1275.03 1510.88 1275.21 1510.28 Q1275.4 1509.68 1275.52 1509.5 Q1275.64 1509.26 1275.82 1508.84 Q1276 1508.41 1276.24 1508.29 Q1276.48 1508.17 1276.78 1507.93 Q1277.08 1507.69 1277.44 1507.63 Q1277.86 1507.57 1278.29 1507.51 Q1278.71 1507.45 1279.31 1507.45 L1290.09 1507.45 Q1293.88 1507.45 1293.88 1509.92 Q1293.88 1512.39 1290.21 1512.39 L1279.67 1512.39 L1254.8 1607.46 Q1254.44 1608.84 1254.14 1609.38 Q1253.9 1609.93 1253.06 1610.41 Q1252.22 1610.89 1250.71 1610.89 L1249.51 1610.89 L1241.62 1571.69 L1234.21 1583.13 L1232.23 1581.15 Z" fill="#000000" fill-rule="nonzero" fill-opacity="1" /><path clip-path="url(#clip340)" d="M1289.83 1512.42 L1471.79 1512.42 L1471.79 1507.29 L1289.83 1507.29  Z" fill="#000000" fill-rule="evenodd" fill-opacity="1"/>
<path clip-path="url(#clip340)" d="M1362.94 1551.1 Q1362.94 1557.86 1360.03 1564.5 Q1357.16 1571.1 1352.49 1576.1 Q1347.85 1581.06 1341.58 1584.14 Q1335.31 1587.21 1328.92 1587.21 L1301.13 1587.21 Q1300.14 1587.21 1299.73 1587.17 Q1299.36 1587.13 1299.08 1586.93 Q1298.79 1586.68 1298.79 1586.19 Q1298.79 1585.41 1299.12 1585.08 Q1299.45 1584.71 1299.81 1584.67 Q1300.18 1584.63 1301.13 1584.63 Q1303.18 1584.63 1304.41 1584.51 Q1305.64 1584.38 1306.41 1584.22 Q1307.23 1584.02 1307.64 1583.44 Q1308.09 1582.87 1308.3 1582.38 Q1308.5 1581.84 1308.79 1580.65 L1320.02 1535.57 Q1320.35 1534.21 1320.35 1534.01 Q1320.35 1533.31 1319.94 1533.07 Q1319.57 1532.78 1318.51 1532.66 Q1316.46 1532.49 1314.9 1532.49 Q1313.87 1532.49 1313.46 1532.45 Q1313.1 1532.41 1312.77 1532.21 Q1312.48 1531.96 1312.48 1531.47 Q1312.48 1530.69 1312.81 1530.36 Q1313.18 1529.99 1313.59 1529.95 Q1314 1529.87 1314.98 1529.87 L1343.18 1529.87 Q1349.29 1529.87 1353.84 1532.74 Q1358.39 1535.57 1360.64 1540.36 Q1362.94 1545.12 1362.94 1551.1 M1355.6 1548.03 Q1355.6 1540.2 1351.34 1536.35 Q1347.12 1532.49 1340.44 1532.49 L1331.46 1532.49 Q1328.79 1532.49 1328.14 1532.98 Q1327.48 1533.44 1326.91 1535.69 L1315.39 1581.76 Q1314.98 1583.28 1314.98 1583.69 Q1314.98 1584.14 1315.19 1584.3 Q1315.43 1584.43 1316.09 1584.51 Q1316.83 1584.63 1317.93 1584.63 L1327.4 1584.63 Q1331.05 1584.63 1334.37 1583.65 Q1337.73 1582.62 1340.15 1581.02 Q1342.57 1579.38 1344.12 1577.99 Q1345.68 1576.56 1346.79 1575.12 Q1349.29 1571.88 1351.13 1567.66 Q1353.02 1563.44 1353.88 1559.59 Q1354.78 1555.69 1355.19 1552.82 Q1355.6 1549.91 1355.6 1548.03 Z" fill="#000000" fill-rule="nonzero" fill-opacity="1" /><path clip-path="url(#clip340)" d="M1371.28 1610.47 Q1371.28 1609.41 1371.37 1609.09 Q1371.48 1608.78 1371.94 1608.29 L1383.22 1595.72 Q1389.39 1588.78 1389.39 1582.72 Q1389.39 1578.79 1387.32 1575.98 Q1385.28 1573.17 1381.52 1573.17 Q1378.94 1573.17 1376.76 1574.75 Q1374.58 1576.33 1373.58 1579.14 Q1373.75 1579.08 1374.35 1579.08 Q1375.81 1579.08 1376.62 1580 Q1377.45 1580.92 1377.45 1582.15 Q1377.45 1583.73 1376.42 1584.5 Q1375.41 1585.25 1374.41 1585.25 Q1374.01 1585.25 1373.46 1585.16 Q1372.95 1585.08 1372.11 1584.27 Q1371.28 1583.44 1371.28 1581.98 Q1371.28 1577.88 1374.38 1574.6 Q1377.51 1571.33 1382.27 1571.33 Q1387.66 1571.33 1391.19 1574.55 Q1394.75 1577.73 1394.75 1582.72 Q1394.75 1584.48 1394.21 1586.08 Q1393.69 1587.66 1392.97 1588.89 Q1392.28 1590.13 1390.39 1592.11 Q1388.5 1594.09 1386.98 1595.49 Q1385.46 1596.9 1382.04 1599.88 L1375.81 1605.94 L1386.4 1605.94 Q1391.57 1605.94 1391.97 1605.48 Q1392.54 1604.65 1393.26 1600.26 L1394.75 1600.26 L1393.09 1610.47 L1371.28 1610.47 Z" fill="#000000" fill-rule="nonzero" fill-opacity="1" /><path clip-path="url(#clip340)" d="M1454.27 1540.77 Q1454.27 1539.42 1453.9 1538.31 Q1453.57 1537.17 1453.04 1536.39 Q1452.55 1535.57 1451.6 1534.95 Q1450.66 1534.3 1449.88 1533.89 Q1449.1 1533.48 1447.79 1533.23 Q1446.48 1532.94 1445.62 1532.82 Q1444.76 1532.66 1443.28 1532.57 Q1441.81 1532.49 1441.07 1532.49 Q1440.37 1532.49 1438.98 1532.49 Q1434.59 1532.49 1433.86 1532.57 Q1432.75 1532.74 1432.34 1533.39 Q1431.93 1534.01 1431.52 1535.69 L1426.07 1557.58 L1435.46 1557.58 Q1440.58 1557.58 1444.1 1556.14 Q1447.63 1554.71 1449.64 1552.7 Q1451.85 1550.49 1453.04 1546.92 Q1454.27 1543.35 1454.27 1540.77 M1463.41 1579.42 Q1463.41 1579.88 1463.04 1580.9 Q1462.71 1581.93 1461.89 1583.36 Q1461.07 1584.75 1459.97 1586.02 Q1458.86 1587.29 1457.1 1588.16 Q1455.33 1589.06 1453.33 1589.06 Q1452.83 1589.06 1452.34 1589.02 Q1451.85 1589.02 1450.62 1588.81 Q1449.43 1588.65 1448.45 1588.32 Q1447.47 1588.03 1446.24 1587.34 Q1445.01 1586.68 1444.14 1585.78 Q1443.33 1584.84 1442.75 1583.36 Q1442.18 1581.84 1442.18 1580 Q1442.18 1578.36 1443.53 1572.87 Q1444.72 1568.19 1444.72 1567.05 Q1444.72 1565.78 1444.31 1564.59 Q1443.94 1563.4 1443 1562.17 Q1442.1 1560.94 1440.17 1560.2 Q1438.24 1559.42 1435.54 1559.42 L1425.58 1559.42 L1420 1581.68 Q1420 1581.72 1419.88 1582.29 Q1419.76 1582.83 1419.76 1583.11 Q1419.76 1583.65 1420.08 1583.97 Q1420.45 1584.3 1421.35 1584.47 Q1422.26 1584.59 1422.95 1584.63 Q1423.69 1584.63 1425.21 1584.63 Q1427.09 1584.63 1427.42 1584.96 Q1427.59 1585.16 1427.59 1585.53 Q1427.59 1586.11 1427.42 1586.52 Q1427.3 1586.89 1426.97 1587.01 Q1426.68 1587.13 1426.48 1587.17 Q1426.27 1587.21 1425.9 1587.21 L1415.25 1586.97 L1404.67 1587.21 Q1403.48 1587.21 1403.48 1586.27 Q1403.48 1585.45 1403.77 1585.12 Q1404.06 1584.75 1404.43 1584.71 Q1404.8 1584.63 1405.74 1584.63 Q1407.79 1584.63 1409.02 1584.51 Q1410.25 1584.38 1411.03 1584.22 Q1411.85 1584.02 1412.26 1583.44 Q1412.71 1582.87 1412.91 1582.38 Q1413.12 1581.84 1413.4 1580.65 L1424.63 1535.57 Q1424.96 1534.21 1424.96 1534.01 Q1424.96 1533.23 1424.47 1533.03 Q1424.02 1532.78 1422.71 1532.66 L1419.51 1532.49 Q1418.53 1532.49 1418.12 1532.45 Q1417.75 1532.41 1417.46 1532.21 Q1417.17 1532 1417.17 1531.55 Q1417.17 1530.4 1417.67 1530.16 Q1418.16 1529.87 1419.59 1529.87 L1443.53 1529.87 Q1451.69 1529.87 1456.85 1533.44 Q1462.06 1537 1462.06 1542.45 Q1462.06 1544.91 1460.95 1547.21 Q1459.84 1549.5 1458 1551.31 Q1456.2 1553.11 1453.78 1554.63 Q1451.36 1556.1 1448.78 1557.13 Q1446.24 1558.11 1443.61 1558.68 Q1444.76 1559.09 1445.83 1559.71 Q1446.93 1560.32 1448.33 1561.47 Q1449.76 1562.62 1450.62 1564.46 Q1451.48 1566.31 1451.48 1568.56 Q1451.48 1570.16 1451.15 1572.54 Q1450.33 1579.3 1450.33 1582.09 Q1450.33 1584.75 1451.03 1585.98 Q1451.73 1587.21 1453.7 1587.21 Q1455.62 1587.21 1457.75 1585.49 Q1459.93 1583.73 1461.32 1579.59 Q1461.65 1578.4 1462.43 1578.4 Q1462.47 1578.4 1462.51 1578.4 Q1462.59 1578.4 1462.75 1578.48 Q1462.92 1578.52 1463.04 1578.65 Q1463.2 1578.73 1463.29 1578.93 Q1463.41 1579.14 1463.41 1579.42 Z" fill="#000000" fill-rule="nonzero" fill-opacity="1" /><polyline clip-path="url(#clip340)" style="stroke:#000000; stroke-linecap:round; stroke-linejoin:round; stroke-width:4; stroke-opacity:1; fill:none" points="351.258,1321.46 351.258,47.2441 "/>
<polyline clip-path="url(#clip340)" style="stroke:#000000; stroke-linecap:round; stroke-linejoin:round; stroke-width:4; stroke-opacity:1; fill:none" points="351.258,1285.4 370.155,1285.4 "/>
<polyline clip-path="url(#clip340)" style="stroke:#000000; stroke-linecap:round; stroke-linejoin:round; stroke-width:4; stroke-opacity:1; fill:none" points="351.258,984.878 370.155,984.878 "/>
<polyline clip-path="url(#clip340)" style="stroke:#000000; stroke-linecap:round; stroke-linejoin:round; stroke-width:4; stroke-opacity:1; fill:none" points="351.258,684.354 370.155,684.354 "/>
<polyline clip-path="url(#clip340)" style="stroke:#000000; stroke-linecap:round; stroke-linejoin:round; stroke-width:4; stroke-opacity:1; fill:none" points="351.258,383.831 370.155,383.831 "/>
<polyline clip-path="url(#clip340)" style="stroke:#000000; stroke-linecap:round; stroke-linejoin:round; stroke-width:4; stroke-opacity:1; fill:none" points="351.258,83.3069 370.155,83.3069 "/>
<path clip-path="url(#clip340)" d="M227.92 1271.2 Q224.309 1271.2 222.48 1274.76 Q220.675 1278.31 220.675 1285.44 Q220.675 1292.54 222.48 1296.11 Q224.309 1299.65 227.92 1299.65 Q231.554 1299.65 233.36 1296.11 Q235.189 1292.54 235.189 1285.44 Q235.189 1278.31 233.36 1274.76 Q231.554 1271.2 227.92 1271.2 M227.92 1267.5 Q233.73 1267.5 236.786 1272.1 Q239.864 1276.69 239.864 1285.44 Q239.864 1294.16 236.786 1298.77 Q233.73 1303.35 227.92 1303.35 Q222.11 1303.35 219.031 1298.77 Q215.976 1294.16 215.976 1285.44 Q215.976 1276.69 219.031 1272.1 Q222.11 1267.5 227.92 1267.5 Z" fill="#000000" fill-rule="nonzero" fill-opacity="1" /><path clip-path="url(#clip340)" d="M248.082 1296.8 L252.966 1296.8 L252.966 1302.68 L248.082 1302.68 L248.082 1296.8 Z" fill="#000000" fill-rule="nonzero" fill-opacity="1" /><path clip-path="url(#clip340)" d="M273.151 1271.2 Q269.54 1271.2 267.712 1274.76 Q265.906 1278.31 265.906 1285.44 Q265.906 1292.54 267.712 1296.11 Q269.54 1299.65 273.151 1299.65 Q276.786 1299.65 278.591 1296.11 Q280.42 1292.54 280.42 1285.44 Q280.42 1278.31 278.591 1274.76 Q276.786 1271.2 273.151 1271.2 M273.151 1267.5 Q278.961 1267.5 282.017 1272.1 Q285.096 1276.69 285.096 1285.44 Q285.096 1294.16 282.017 1298.77 Q278.961 1303.35 273.151 1303.35 Q267.341 1303.35 264.262 1298.77 Q261.207 1294.16 261.207 1285.44 Q261.207 1276.69 264.262 1272.1 Q267.341 1267.5 273.151 1267.5 Z" fill="#000000" fill-rule="nonzero" fill-opacity="1" /><path clip-path="url(#clip340)" d="M303.313 1271.2 Q299.702 1271.2 297.873 1274.76 Q296.068 1278.31 296.068 1285.44 Q296.068 1292.54 297.873 1296.11 Q299.702 1299.65 303.313 1299.65 Q306.947 1299.65 308.753 1296.11 Q310.582 1292.54 310.582 1285.44 Q310.582 1278.31 308.753 1274.76 Q306.947 1271.2 303.313 1271.2 M303.313 1267.5 Q309.123 1267.5 312.179 1272.1 Q315.258 1276.69 315.258 1285.44 Q315.258 1294.16 312.179 1298.77 Q309.123 1303.35 303.313 1303.35 Q297.503 1303.35 294.424 1298.77 Q291.369 1294.16 291.369 1285.44 Q291.369 1276.69 294.424 1272.1 Q297.503 1267.5 303.313 1267.5 Z" fill="#000000" fill-rule="nonzero" fill-opacity="1" /><path clip-path="url(#clip340)" d="M228.915 970.677 Q225.304 970.677 223.476 974.241 Q221.67 977.783 221.67 984.913 Q221.67 992.019 223.476 995.584 Q225.304 999.125 228.915 999.125 Q232.55 999.125 234.355 995.584 Q236.184 992.019 236.184 984.913 Q236.184 977.783 234.355 974.241 Q232.55 970.677 228.915 970.677 M228.915 966.973 Q234.726 966.973 237.781 971.579 Q240.86 976.163 240.86 984.913 Q240.86 993.639 237.781 998.246 Q234.726 1002.83 228.915 1002.83 Q223.105 1002.83 220.027 998.246 Q216.971 993.639 216.971 984.913 Q216.971 976.163 220.027 971.579 Q223.105 966.973 228.915 966.973 Z" fill="#000000" fill-rule="nonzero" fill-opacity="1" /><path clip-path="url(#clip340)" d="M249.077 996.278 L253.962 996.278 L253.962 1002.16 L249.077 1002.16 L249.077 996.278 Z" fill="#000000" fill-rule="nonzero" fill-opacity="1" /><path clip-path="url(#clip340)" d="M268.174 998.223 L284.494 998.223 L284.494 1002.16 L262.55 1002.16 L262.55 998.223 Q265.212 995.468 269.795 990.838 Q274.401 986.186 275.582 984.843 Q277.827 982.32 278.707 980.584 Q279.61 978.825 279.61 977.135 Q279.61 974.38 277.665 972.644 Q275.744 970.908 272.642 970.908 Q270.443 970.908 267.989 971.672 Q265.559 972.436 262.781 973.987 L262.781 969.264 Q265.605 968.13 268.059 967.552 Q270.512 966.973 272.549 966.973 Q277.92 966.973 281.114 969.658 Q284.309 972.343 284.309 976.834 Q284.309 978.964 283.498 980.885 Q282.711 982.783 280.605 985.376 Q280.026 986.047 276.924 989.264 Q273.823 992.459 268.174 998.223 Z" fill="#000000" fill-rule="nonzero" fill-opacity="1" /><path clip-path="url(#clip340)" d="M294.355 967.598 L312.711 967.598 L312.711 971.533 L298.637 971.533 L298.637 980.005 Q299.656 979.658 300.674 979.496 Q301.693 979.311 302.711 979.311 Q308.498 979.311 311.878 982.482 Q315.258 985.653 315.258 991.07 Q315.258 996.649 311.785 999.75 Q308.313 1002.83 301.994 1002.83 Q299.818 1002.83 297.549 1002.46 Q295.304 1002.09 292.897 1001.35 L292.897 996.649 Q294.98 997.783 297.202 998.338 Q299.424 998.894 301.901 998.894 Q305.906 998.894 308.244 996.787 Q310.582 994.681 310.582 991.07 Q310.582 987.459 308.244 985.352 Q305.906 983.246 301.901 983.246 Q300.026 983.246 298.151 983.663 Q296.299 984.079 294.355 984.959 L294.355 967.598 Z" fill="#000000" fill-rule="nonzero" fill-opacity="1" /><path clip-path="url(#clip340)" d="M227.92 670.153 Q224.309 670.153 222.48 673.718 Q220.675 677.259 220.675 684.389 Q220.675 691.495 222.48 695.06 Q224.309 698.602 227.92 698.602 Q231.554 698.602 233.36 695.06 Q235.189 691.495 235.189 684.389 Q235.189 677.259 233.36 673.718 Q231.554 670.153 227.92 670.153 M227.92 666.449 Q233.73 666.449 236.786 671.056 Q239.864 675.639 239.864 684.389 Q239.864 693.116 236.786 697.722 Q233.73 702.305 227.92 702.305 Q222.11 702.305 219.031 697.722 Q215.976 693.116 215.976 684.389 Q215.976 675.639 219.031 671.056 Q222.11 666.449 227.92 666.449 Z" fill="#000000" fill-rule="nonzero" fill-opacity="1" /><path clip-path="url(#clip340)" d="M248.082 695.755 L252.966 695.755 L252.966 701.634 L248.082 701.634 L248.082 695.755 Z" fill="#000000" fill-rule="nonzero" fill-opacity="1" /><path clip-path="url(#clip340)" d="M263.198 667.074 L281.554 667.074 L281.554 671.009 L267.48 671.009 L267.48 679.482 Q268.499 679.134 269.517 678.972 Q270.536 678.787 271.554 678.787 Q277.341 678.787 280.721 681.958 Q284.1 685.13 284.1 690.546 Q284.1 696.125 280.628 699.227 Q277.156 702.305 270.837 702.305 Q268.661 702.305 266.392 701.935 Q264.147 701.565 261.739 700.824 L261.739 696.125 Q263.823 697.259 266.045 697.815 Q268.267 698.37 270.744 698.37 Q274.749 698.37 277.086 696.264 Q279.424 694.157 279.424 690.546 Q279.424 686.935 277.086 684.829 Q274.749 682.722 270.744 682.722 Q268.869 682.722 266.994 683.139 Q265.142 683.556 263.198 684.435 L263.198 667.074 Z" fill="#000000" fill-rule="nonzero" fill-opacity="1" /><path clip-path="url(#clip340)" d="M303.313 670.153 Q299.702 670.153 297.873 673.718 Q296.068 677.259 296.068 684.389 Q296.068 691.495 297.873 695.06 Q299.702 698.602 303.313 698.602 Q306.947 698.602 308.753 695.06 Q310.582 691.495 310.582 684.389 Q310.582 677.259 308.753 673.718 Q306.947 670.153 303.313 670.153 M303.313 666.449 Q309.123 666.449 312.179 671.056 Q315.258 675.639 315.258 684.389 Q315.258 693.116 312.179 697.722 Q309.123 702.305 303.313 702.305 Q297.503 702.305 294.424 697.722 Q291.369 693.116 291.369 684.389 Q291.369 675.639 294.424 671.056 Q297.503 666.449 303.313 666.449 Z" fill="#000000" fill-rule="nonzero" fill-opacity="1" /><path clip-path="url(#clip340)" d="M228.915 369.629 Q225.304 369.629 223.476 373.194 Q221.67 376.736 221.67 383.865 Q221.67 390.972 223.476 394.537 Q225.304 398.078 228.915 398.078 Q232.55 398.078 234.355 394.537 Q236.184 390.972 236.184 383.865 Q236.184 376.736 234.355 373.194 Q232.55 369.629 228.915 369.629 M228.915 365.926 Q234.726 365.926 237.781 370.532 Q240.86 375.115 240.86 383.865 Q240.86 392.592 237.781 397.199 Q234.726 401.782 228.915 401.782 Q223.105 401.782 220.027 397.199 Q216.971 392.592 216.971 383.865 Q216.971 375.115 220.027 370.532 Q223.105 365.926 228.915 365.926 Z" fill="#000000" fill-rule="nonzero" fill-opacity="1" /><path clip-path="url(#clip340)" d="M249.077 395.231 L253.962 395.231 L253.962 401.111 L249.077 401.111 L249.077 395.231 Z" fill="#000000" fill-rule="nonzero" fill-opacity="1" /><path clip-path="url(#clip340)" d="M262.966 366.551 L285.188 366.551 L285.188 368.541 L272.642 401.111 L267.758 401.111 L279.563 370.486 L262.966 370.486 L262.966 366.551 Z" fill="#000000" fill-rule="nonzero" fill-opacity="1" /><path clip-path="url(#clip340)" d="M294.355 366.551 L312.711 366.551 L312.711 370.486 L298.637 370.486 L298.637 378.958 Q299.656 378.611 300.674 378.449 Q301.693 378.263 302.711 378.263 Q308.498 378.263 311.878 381.435 Q315.258 384.606 315.258 390.023 Q315.258 395.601 311.785 398.703 Q308.313 401.782 301.994 401.782 Q299.818 401.782 297.549 401.411 Q295.304 401.041 292.897 400.3 L292.897 395.601 Q294.98 396.736 297.202 397.291 Q299.424 397.847 301.901 397.847 Q305.906 397.847 308.244 395.74 Q310.582 393.634 310.582 390.023 Q310.582 386.412 308.244 384.305 Q305.906 382.199 301.901 382.199 Q300.026 382.199 298.151 382.615 Q296.299 383.032 294.355 383.912 L294.355 366.551 Z" fill="#000000" fill-rule="nonzero" fill-opacity="1" /><path clip-path="url(#clip340)" d="M218.73 96.6518 L226.369 96.6518 L226.369 70.2862 L218.059 71.9528 L218.059 67.6936 L226.323 66.0269 L230.999 66.0269 L230.999 96.6518 L238.638 96.6518 L238.638 100.587 L218.73 100.587 L218.73 96.6518 Z" fill="#000000" fill-rule="nonzero" fill-opacity="1" /><path clip-path="url(#clip340)" d="M248.082 94.7073 L252.966 94.7073 L252.966 100.587 L248.082 100.587 L248.082 94.7073 Z" fill="#000000" fill-rule="nonzero" fill-opacity="1" /><path clip-path="url(#clip340)" d="M273.151 69.1056 Q269.54 69.1056 267.712 72.6704 Q265.906 76.2121 265.906 83.3417 Q265.906 90.4481 267.712 94.0129 Q269.54 97.5545 273.151 97.5545 Q276.786 97.5545 278.591 94.0129 Q280.42 90.4481 280.42 83.3417 Q280.42 76.2121 278.591 72.6704 Q276.786 69.1056 273.151 69.1056 M273.151 65.4019 Q278.961 65.4019 282.017 70.0084 Q285.096 74.5917 285.096 83.3417 Q285.096 92.0685 282.017 96.6749 Q278.961 101.258 273.151 101.258 Q267.341 101.258 264.262 96.6749 Q261.207 92.0685 261.207 83.3417 Q261.207 74.5917 264.262 70.0084 Q267.341 65.4019 273.151 65.4019 Z" fill="#000000" fill-rule="nonzero" fill-opacity="1" /><path clip-path="url(#clip340)" d="M303.313 69.1056 Q299.702 69.1056 297.873 72.6704 Q296.068 76.2121 296.068 83.3417 Q296.068 90.4481 297.873 94.0129 Q299.702 97.5545 303.313 97.5545 Q306.947 97.5545 308.753 94.0129 Q310.582 90.4481 310.582 83.3417 Q310.582 76.2121 308.753 72.6704 Q306.947 69.1056 303.313 69.1056 M303.313 65.4019 Q309.123 65.4019 312.179 70.0084 Q315.258 74.5917 315.258 83.3417 Q315.258 92.0685 312.179 96.6749 Q309.123 101.258 303.313 101.258 Q297.503 101.258 294.424 96.6749 Q291.369 92.0685 291.369 83.3417 Q291.369 74.5917 294.424 70.0084 Q297.503 65.4019 303.313 65.4019 Z" fill="#000000" fill-rule="nonzero" fill-opacity="1" /><path clip-path="url(#clip340)" d="M92.6978 1235.96 L116.76 1235.96 L116.76 1243.45 L54.1332 1243.45 L54.1332 1235.96 L61.0198 1235.96 Q56.9689 1233.61 55.0244 1230.04 Q53.0395 1226.44 53.0395 1221.45 Q53.0395 1213.19 59.6019 1208.05 Q66.1644 1202.86 76.8588 1202.86 Q87.5532 1202.86 94.1156 1208.05 Q100.678 1213.19 100.678 1221.45 Q100.678 1226.44 98.7337 1230.04 Q96.7487 1233.61 92.6978 1235.96 M76.8588 1210.6 Q68.6355 1210.6 63.9769 1214 Q59.2779 1217.36 59.2779 1223.28 Q59.2779 1229.19 63.9769 1232.59 Q68.6355 1235.96 76.8588 1235.96 Q85.0821 1235.96 89.7812 1232.59 Q94.4397 1229.19 94.4397 1223.28 Q94.4397 1217.36 89.7812 1214 Q85.0821 1210.6 76.8588 1210.6 Z" fill="#000000" fill-rule="nonzero" fill-opacity="1" /><path clip-path="url(#clip340)" d="M61.1008 1164.21 Q60.3716 1165.47 60.0475 1166.97 Q59.683 1168.43 59.683 1170.21 Q59.683 1176.53 63.8149 1179.93 Q67.9063 1183.29 75.603 1183.29 L99.5033 1183.29 L99.5033 1190.79 L54.1332 1190.79 L54.1332 1183.29 L61.1818 1183.29 Q57.0499 1180.94 55.0649 1177.18 Q53.0395 1173.41 53.0395 1168.02 Q53.0395 1167.25 53.161 1166.32 Q53.242 1165.39 53.4446 1164.25 L61.1008 1164.21 Z" fill="#000000" fill-rule="nonzero" fill-opacity="1" /><path clip-path="url(#clip340)" d="M59.3589 1140.64 Q59.3589 1146.63 64.0579 1150.12 Q68.7165 1153.6 76.8588 1153.6 Q85.0011 1153.6 89.7002 1150.16 Q94.3587 1146.67 94.3587 1140.64 Q94.3587 1134.68 89.6597 1131.2 Q84.9606 1127.72 76.8588 1127.72 Q68.7975 1127.72 64.0984 1131.2 Q59.3589 1134.68 59.3589 1140.64 M53.0395 1140.64 Q53.0395 1130.92 59.3589 1125.37 Q65.6783 1119.82 76.8588 1119.82 Q87.9988 1119.82 94.3587 1125.37 Q100.678 1130.92 100.678 1140.64 Q100.678 1150.4 94.3587 1155.95 Q87.9988 1161.46 76.8588 1161.46 Q65.6783 1161.46 59.3589 1155.95 Q53.0395 1150.4 53.0395 1140.64 Z" fill="#000000" fill-rule="nonzero" fill-opacity="1" /><path clip-path="url(#clip340)" d="M36.4713 1084.49 L42.6692 1084.49 L42.6692 1091.62 Q42.6692 1095.63 44.2895 1097.21 Q45.9099 1098.75 50.1228 1098.75 L54.1332 1098.75 L54.1332 1086.48 L59.926 1086.48 L59.926 1098.75 L99.5033 1098.75 L99.5033 1106.25 L59.926 1106.25 L59.926 1113.38 L54.1332 1113.38 L54.1332 1106.25 L50.9735 1106.25 Q43.3983 1106.25 39.9551 1102.72 Q36.4713 1099.2 36.4713 1091.54 L36.4713 1084.49 Z" fill="#000000" fill-rule="nonzero" fill-opacity="1" /><path clip-path="url(#clip340)" d="M54.1332 1078.25 L54.1332 1070.8 L99.5033 1070.8 L99.5033 1078.25 L54.1332 1078.25 M36.4713 1078.25 L36.4713 1070.8 L45.9099 1070.8 L45.9099 1078.25 L36.4713 1078.25 Z" fill="#000000" fill-rule="nonzero" fill-opacity="1" /><path clip-path="url(#clip340)" d="M36.4713 1055.2 L36.4713 1047.75 L99.5033 1047.75 L99.5033 1055.2 L36.4713 1055.2 Z" fill="#000000" fill-rule="nonzero" fill-opacity="1" /><path clip-path="url(#clip340)" d="M74.9549 993.347 L78.6007 993.347 L78.6007 1027.62 Q86.2974 1027.13 90.3483 1023 Q94.3587 1018.83 94.3587 1011.41 Q94.3587 1007.12 93.3055 1003.11 Q92.2522 999.059 90.1458 995.089 L97.1943 995.089 Q98.8957 999.1 99.7869 1003.31 Q100.678 1007.53 100.678 1011.86 Q100.678 1022.72 94.3587 1029.08 Q88.0393 1035.4 77.2639 1035.4 Q66.1239 1035.4 59.6019 1029.4 Q53.0395 1023.36 53.0395 1013.16 Q53.0395 1004 58.9538 998.694 Q64.8276 993.347 74.9549 993.347 M72.7674 1000.8 Q66.6505 1000.88 63.0047 1004.24 Q59.3589 1007.57 59.3589 1013.08 Q59.3589 1019.31 62.8832 1023.08 Q66.4075 1026.81 72.8079 1027.37 L72.7674 1000.8 Z" fill="#000000" fill-rule="nonzero" fill-opacity="1" /><path clip-path="url(#clip340)" d="M36.4713 954.742 L36.4713 947.288 L99.5033 947.288 L99.5033 954.742 L36.4713 954.742 Z" fill="#000000" fill-rule="nonzero" fill-opacity="1" /><path clip-path="url(#clip340)" d="M54.1332 931.692 L54.1332 924.239 L99.5033 924.239 L99.5033 931.692 L54.1332 931.692 M36.4713 931.692 L36.4713 924.239 L45.9099 924.239 L45.9099 931.692 L36.4713 931.692 Z" fill="#000000" fill-rule="nonzero" fill-opacity="1" /><path clip-path="url(#clip340)" d="M36.4713 908.926 L36.4713 901.432 L73.6991 901.432 L54.1332 879.193 L54.1332 869.673 L75.36 893.735 L99.5033 868.66 L99.5033 878.383 L77.3449 901.432 L99.5033 901.432 L99.5033 908.926 L36.4713 908.926 Z" fill="#000000" fill-rule="nonzero" fill-opacity="1" /><path clip-path="url(#clip340)" d="M74.9549 824.749 L78.6007 824.749 L78.6007 859.019 Q86.2974 858.533 90.3483 854.401 Q94.3587 850.229 94.3587 842.816 Q94.3587 838.522 93.3055 834.511 Q92.2522 830.46 90.1458 826.49 L97.1943 826.49 Q98.8957 830.501 99.7869 834.714 Q100.678 838.927 100.678 843.261 Q100.678 854.118 94.3587 860.478 Q88.0393 866.797 77.2639 866.797 Q66.1239 866.797 59.6019 860.802 Q53.0395 854.766 53.0395 844.558 Q53.0395 835.402 58.9538 830.096 Q64.8276 824.749 74.9549 824.749 M72.7674 832.202 Q66.6505 832.283 63.0047 835.646 Q59.3589 838.967 59.3589 844.476 Q59.3589 850.715 62.8832 854.482 Q66.4075 858.209 72.8079 858.776 L72.7674 832.202 Z" fill="#000000" fill-rule="nonzero" fill-opacity="1" /><path clip-path="url(#clip340)" d="M36.4713 812.515 L36.4713 805.061 L99.5033 805.061 L99.5033 812.515 L36.4713 812.515 Z" fill="#000000" fill-rule="nonzero" fill-opacity="1" /><path clip-path="url(#clip340)" d="M54.1332 789.465 L54.1332 782.012 L99.5033 782.012 L99.5033 789.465 L54.1332 789.465 M36.4713 789.465 L36.4713 782.012 L45.9099 782.012 L45.9099 789.465 L36.4713 789.465 Z" fill="#000000" fill-rule="nonzero" fill-opacity="1" /><path clip-path="url(#clip340)" d="M72.1192 728.702 L99.5033 728.702 L99.5033 736.155 L72.3623 736.155 Q65.9214 736.155 62.7211 738.667 Q59.5209 741.178 59.5209 746.202 Q59.5209 752.237 63.3693 755.721 Q67.2176 759.205 73.8611 759.205 L99.5033 759.205 L99.5033 766.699 L36.4713 766.699 L36.4713 759.205 L61.1818 759.205 Q57.0904 756.531 55.0649 752.926 Q53.0395 749.28 53.0395 744.541 Q53.0395 736.722 57.9006 732.712 Q62.7211 728.702 72.1192 728.702 Z" fill="#000000" fill-rule="nonzero" fill-opacity="1" /><path clip-path="url(#clip340)" d="M59.3589 696.254 Q59.3589 702.249 64.0579 705.733 Q68.7165 709.217 76.8588 709.217 Q85.0011 709.217 89.7002 705.774 Q94.3587 702.29 94.3587 696.254 Q94.3587 690.299 89.6597 686.815 Q84.9606 683.332 76.8588 683.332 Q68.7975 683.332 64.0984 686.815 Q59.3589 690.299 59.3589 696.254 M53.0395 696.254 Q53.0395 686.532 59.3589 680.982 Q65.6783 675.432 76.8588 675.432 Q87.9988 675.432 94.3587 680.982 Q100.678 686.532 100.678 696.254 Q100.678 706.017 94.3587 711.566 Q87.9988 717.076 76.8588 717.076 Q65.6783 717.076 59.3589 711.566 Q53.0395 706.017 53.0395 696.254 Z" fill="#000000" fill-rule="nonzero" fill-opacity="1" /><path clip-path="url(#clip340)" d="M59.3589 645.496 Q59.3589 651.491 64.0579 654.975 Q68.7165 658.459 76.8588 658.459 Q85.0011 658.459 89.7002 655.016 Q94.3587 651.532 94.3587 645.496 Q94.3587 639.541 89.6597 636.057 Q84.9606 632.574 76.8588 632.574 Q68.7975 632.574 64.0984 636.057 Q59.3589 639.541 59.3589 645.496 M53.0395 645.496 Q53.0395 635.774 59.3589 630.224 Q65.6783 624.674 76.8588 624.674 Q87.9988 624.674 94.3587 630.224 Q100.678 635.774 100.678 645.496 Q100.678 655.259 94.3587 660.808 Q87.9988 666.318 76.8588 666.318 Q65.6783 666.318 59.3589 660.808 Q53.0395 655.259 53.0395 645.496 Z" fill="#000000" fill-rule="nonzero" fill-opacity="1" /><path clip-path="url(#clip340)" d="M61.0198 582.464 L36.4713 582.464 L36.4713 575.01 L99.5033 575.01 L99.5033 582.464 L92.6978 582.464 Q96.7487 584.814 98.7337 588.419 Q100.678 591.984 100.678 597.007 Q100.678 605.23 94.1156 610.415 Q87.5532 615.56 76.8588 615.56 Q66.1644 615.56 59.6019 610.415 Q53.0395 605.23 53.0395 597.007 Q53.0395 591.984 55.0244 588.419 Q56.9689 584.814 61.0198 582.464 M76.8588 607.863 Q85.0821 607.863 89.7812 604.501 Q94.4397 601.098 94.4397 595.184 Q94.4397 589.27 89.7812 585.867 Q85.0821 582.464 76.8588 582.464 Q68.6355 582.464 63.9769 585.867 Q59.2779 589.27 59.2779 595.184 Q59.2779 601.098 63.9769 604.501 Q68.6355 607.863 76.8588 607.863 Z" fill="#000000" fill-rule="nonzero" fill-opacity="1" /><path clip-path="url(#clip340)" d="M36.4713 510.317 L42.6692 510.317 L42.6692 517.447 Q42.6692 521.457 44.2895 523.037 Q45.9099 524.577 50.1228 524.577 L54.1332 524.577 L54.1332 512.302 L59.926 512.302 L59.926 524.577 L99.5033 524.577 L99.5033 532.071 L59.926 532.071 L59.926 539.2 L54.1332 539.2 L54.1332 532.071 L50.9735 532.071 Q43.3983 532.071 39.9551 528.546 Q36.4713 525.022 36.4713 517.366 L36.4713 510.317 Z" fill="#000000" fill-rule="nonzero" fill-opacity="1" /><path clip-path="url(#clip340)" d="M59.3589 486.498 Q59.3589 492.493 64.0579 495.977 Q68.7165 499.461 76.8588 499.461 Q85.0011 499.461 89.7002 496.018 Q94.3587 492.534 94.3587 486.498 Q94.3587 480.543 89.6597 477.059 Q84.9606 473.576 76.8588 473.576 Q68.7975 473.576 64.0984 477.059 Q59.3589 480.543 59.3589 486.498 M53.0395 486.498 Q53.0395 476.776 59.3589 471.226 Q65.6783 465.676 76.8588 465.676 Q87.9988 465.676 94.3587 471.226 Q100.678 476.776 100.678 486.498 Q100.678 496.261 94.3587 501.811 Q87.9988 507.32 76.8588 507.32 Q65.6783 507.32 59.3589 501.811 Q53.0395 496.261 53.0395 486.498 Z" fill="#000000" fill-rule="nonzero" fill-opacity="1" /><path clip-path="url(#clip340)" d="M61.1008 427.031 Q60.3716 428.287 60.0475 429.785 Q59.683 431.244 59.683 433.026 Q59.683 439.346 63.8149 442.748 Q67.9063 446.111 75.603 446.111 L99.5033 446.111 L99.5033 453.605 L54.1332 453.605 L54.1332 446.111 L61.1818 446.111 Q57.0499 443.761 55.0649 439.994 Q53.0395 436.226 53.0395 430.839 Q53.0395 430.069 53.161 429.137 Q53.242 428.206 53.4446 427.071 L61.1008 427.031 Z" fill="#000000" fill-rule="nonzero" fill-opacity="1" /><path clip-path="url(#clip340)" d="M-0.806957 249.591 Q5.95627 249.591 12.5965 252.501 Q19.1958 255.371 24.1965 260.043 Q29.1562 264.675 32.2304 270.947 Q35.3046 277.218 35.3046 283.612 L35.3046 311.403 Q35.3046 312.387 35.2636 312.797 Q35.2226 313.166 35.0177 313.453 Q34.7717 313.739 34.2799 313.739 Q33.5011 313.739 33.1732 313.412 Q32.8043 313.084 32.7633 312.715 Q32.7223 312.346 32.7223 311.403 Q32.7223 309.354 32.5993 308.124 Q32.4763 306.894 32.3124 306.115 Q32.1074 305.296 31.5336 304.886 Q30.9597 304.435 30.4679 304.23 Q29.935 304.025 28.7463 303.738 L-16.3419 292.507 Q-17.6945 292.179 -17.8995 292.179 Q-18.5963 292.179 -18.8422 292.589 Q-19.1292 292.958 -19.2521 294.024 Q-19.4161 296.073 -19.4161 297.631 Q-19.4161 298.655 -19.4571 299.065 Q-19.4981 299.434 -19.703 299.762 Q-19.9489 300.049 -20.4408 300.049 Q-21.2196 300.049 -21.5475 299.721 Q-21.9164 299.352 -21.9574 298.942 Q-22.0394 298.532 -22.0394 297.549 L-22.0394 269.348 Q-22.0394 263.241 -19.1702 258.691 Q-16.3419 254.141 -11.5461 251.887 Q-6.79139 249.591 -0.806957 249.591 M-3.88115 256.928 Q-11.7101 256.928 -15.5631 261.191 Q-19.4161 265.413 -19.4161 272.094 L-19.4161 281.071 Q-19.4161 283.735 -18.9242 284.391 Q-18.4733 285.047 -16.2189 285.621 L29.853 297.139 Q31.3696 297.549 31.7795 297.549 Q32.2304 297.549 32.3944 297.344 Q32.5173 297.098 32.5993 296.442 Q32.7223 295.704 32.7223 294.597 L32.7223 285.129 Q32.7223 281.481 31.7385 278.161 Q30.7138 274.8 29.1152 272.381 Q27.4756 269.963 26.082 268.405 Q24.6474 266.848 23.2128 265.741 Q19.9746 263.241 15.7527 261.396 Q11.5308 259.511 7.67782 258.65 Q3.78384 257.748 0.914593 257.338 Q-1.99565 256.928 -3.88115 256.928 Z" fill="#000000" fill-rule="nonzero" fill-opacity="1" /><path clip-path="url(#clip340)" d="M25.0206 241.248 L23.1843 241.248 Q23.1843 234.19 19.4255 230.546 Q19.4255 229.542 19.6551 229.369 Q19.8846 229.197 20.9462 229.197 L53.9139 229.197 Q55.6642 229.197 56.2093 228.337 Q56.7545 227.476 56.7545 223.717 L56.7545 221.852 L58.5621 221.852 Q58.3899 223.918 58.3899 231.378 Q58.3899 238.838 58.5621 240.875 L56.7545 240.875 L56.7545 239.01 Q56.7545 235.309 56.238 234.419 Q55.6928 233.53 53.9139 233.53 L23.4712 233.53 Q25.0206 236.6 25.0206 241.248 Z" fill="#000000" fill-rule="nonzero" fill-opacity="1" /><path clip-path="url(#clip340)" d="M80.9621 382.739 L80.9621 134.218 L76.4821 134.218 L76.4821 382.739  Z" fill="#000000" fill-rule="evenodd" fill-opacity="1"/>
<path clip-path="url(#clip340)" d="M172.735 382.739 L150.819 368.53 L179.9 362.75 L185.198 361.667 Q183.813 361.426 181.465 360.703 Q179.057 359.92 178.455 359.8 L105.181 340.714 Q104.699 340.594 103.917 340.413 Q103.074 340.172 102.773 340.052 Q102.472 339.931 101.87 339.751 Q101.267 339.57 101.087 339.45 Q100.846 339.329 100.425 339.149 Q100.003 338.968 99.8827 338.727 Q99.7623 338.486 99.5214 338.185 Q99.2806 337.884 99.2204 337.523 Q99.1602 337.102 99.1 336.68 Q99.0398 336.259 99.0398 335.657 L99.0398 324.879 Q99.0398 321.086 101.508 321.086 Q103.977 321.086 103.977 324.759 L103.977 335.295 L199.046 360.161 Q200.431 360.523 200.972 360.824 Q201.514 361.064 201.996 361.907 Q202.478 362.75 202.478 364.255 L202.478 365.46 L163.282 373.347 L174.722 380.753 L172.735 382.739 Z" fill="#000000" fill-rule="nonzero" fill-opacity="1" /><path clip-path="url(#clip340)" d="M104.005 325.136 L104.005 143.178 L98.8821 143.178 L98.8821 325.136  Z" fill="#000000" fill-rule="evenodd" fill-opacity="1"/>
<path clip-path="url(#clip340)" d="M142.69 252.027 Q149.453 252.027 156.094 254.938 Q162.693 257.807 167.694 262.48 Q172.653 267.111 175.727 273.383 Q178.802 279.654 178.802 286.048 L178.802 313.839 Q178.802 314.823 178.761 315.233 Q178.72 315.602 178.515 315.889 Q178.269 316.176 177.777 316.176 Q176.998 316.176 176.67 315.848 Q176.301 315.52 176.26 315.151 Q176.219 314.782 176.219 313.839 Q176.219 311.79 176.096 310.56 Q175.973 309.33 175.809 308.552 Q175.605 307.732 175.031 307.322 Q174.457 306.871 173.965 306.666 Q173.432 306.461 172.243 306.174 L127.155 294.943 Q125.803 294.615 125.598 294.615 Q124.901 294.615 124.655 295.025 Q124.368 295.394 124.245 296.46 Q124.081 298.509 124.081 300.067 Q124.081 301.091 124.04 301.501 Q123.999 301.87 123.794 302.198 Q123.548 302.485 123.056 302.485 Q122.277 302.485 121.95 302.157 Q121.581 301.788 121.54 301.378 Q121.458 300.969 121.458 299.985 L121.458 271.784 Q121.458 265.677 124.327 261.127 Q127.155 256.577 131.951 254.323 Q136.706 252.027 142.69 252.027 M139.616 259.364 Q131.787 259.364 127.934 263.627 Q124.081 267.849 124.081 274.53 L124.081 283.507 Q124.081 286.171 124.573 286.827 Q125.024 287.483 127.278 288.057 L173.35 299.575 Q174.867 299.985 175.277 299.985 Q175.727 299.985 175.891 299.78 Q176.014 299.534 176.096 298.878 Q176.219 298.14 176.219 297.034 L176.219 287.565 Q176.219 283.917 175.236 280.597 Q174.211 277.236 172.612 274.817 Q170.973 272.399 169.579 270.841 Q168.144 269.284 166.71 268.177 Q163.472 265.677 159.25 263.832 Q155.028 261.947 151.175 261.086 Q147.281 260.184 144.412 259.774 Q141.501 259.364 139.616 259.364 Z" fill="#000000" fill-rule="nonzero" fill-opacity="1" /><path clip-path="url(#clip340)" d="M202.059 243.684 Q200.998 243.684 200.682 243.598 Q200.366 243.483 199.879 243.024 L187.311 231.748 Q180.368 225.579 174.314 225.579 Q170.383 225.579 167.571 227.645 Q164.759 229.682 164.759 233.441 Q164.759 236.023 166.337 238.204 Q167.915 240.385 170.727 241.389 Q170.67 241.217 170.67 240.614 Q170.67 239.151 171.588 238.347 Q172.506 237.515 173.74 237.515 Q175.318 237.515 176.092 238.548 Q176.838 239.553 176.838 240.557 Q176.838 240.959 176.752 241.504 Q176.666 242.02 175.863 242.852 Q175.031 243.684 173.568 243.684 Q169.465 243.684 166.194 240.586 Q162.923 237.458 162.923 232.695 Q162.923 227.301 166.136 223.772 Q169.321 220.214 174.314 220.214 Q176.064 220.214 177.671 220.759 Q179.249 221.275 180.482 221.993 Q181.716 222.681 183.696 224.575 Q185.676 226.469 187.082 227.99 Q188.488 229.51 191.472 232.925 L197.526 239.151 L197.526 228.563 Q197.526 223.399 197.067 222.997 Q196.235 222.423 191.845 221.706 L191.845 220.214 L202.059 221.878 L202.059 243.684 Z" fill="#000000" fill-rule="nonzero" fill-opacity="1" /><path clip-path="url(#clip340)" d="M132.361 160.696 Q131.008 160.696 129.901 161.065 Q128.754 161.393 127.975 161.926 Q127.155 162.418 126.54 163.361 Q125.885 164.303 125.475 165.082 Q125.065 165.861 124.819 167.173 Q124.532 168.484 124.409 169.345 Q124.245 170.206 124.163 171.682 Q124.081 173.157 124.081 173.895 Q124.081 174.592 124.081 175.985 Q124.081 180.371 124.163 181.109 Q124.327 182.216 124.983 182.626 Q125.598 183.036 127.278 183.445 L149.166 188.897 L149.166 179.51 Q149.166 174.387 147.732 170.862 Q146.297 167.337 144.289 165.328 Q142.075 163.115 138.509 161.926 Q134.943 160.696 132.361 160.696 M171.014 151.556 Q171.465 151.556 172.489 151.925 Q173.514 152.253 174.949 153.072 Q176.342 153.892 177.613 154.999 Q178.884 156.106 179.744 157.868 Q180.646 159.631 180.646 161.639 Q180.646 162.131 180.605 162.623 Q180.605 163.115 180.4 164.344 Q180.236 165.533 179.908 166.517 Q179.621 167.501 178.925 168.73 Q178.269 169.96 177.367 170.821 Q176.424 171.641 174.949 172.214 Q173.432 172.788 171.588 172.788 Q169.948 172.788 164.455 171.436 Q159.783 170.247 158.635 170.247 Q157.364 170.247 156.176 170.657 Q154.987 171.026 153.757 171.968 Q152.528 172.87 151.79 174.797 Q151.011 176.723 151.011 179.428 L151.011 189.389 L173.268 194.963 Q173.309 194.963 173.883 195.086 Q174.416 195.209 174.703 195.209 Q175.236 195.209 175.564 194.881 Q175.891 194.513 176.055 193.611 Q176.178 192.709 176.219 192.012 Q176.219 191.274 176.219 189.758 Q176.219 187.872 176.547 187.544 Q176.752 187.38 177.121 187.38 Q177.695 187.38 178.105 187.544 Q178.474 187.667 178.597 187.995 Q178.72 188.282 178.761 188.487 Q178.802 188.692 178.802 189.061 L178.556 199.718 L178.802 210.293 Q178.802 211.482 177.859 211.482 Q177.039 211.482 176.711 211.195 Q176.342 210.908 176.301 210.539 Q176.219 210.17 176.219 209.228 Q176.219 207.178 176.096 205.949 Q175.973 204.719 175.809 203.94 Q175.605 203.12 175.031 202.71 Q174.457 202.26 173.965 202.055 Q173.432 201.85 172.243 201.563 L127.155 190.332 Q125.803 190.004 125.598 190.004 Q124.819 190.004 124.614 190.496 Q124.368 190.946 124.245 192.258 L124.081 195.455 Q124.081 196.439 124.04 196.849 Q123.999 197.218 123.794 197.505 Q123.589 197.792 123.138 197.792 Q121.991 197.792 121.745 197.3 Q121.458 196.808 121.458 195.373 L121.458 171.436 Q121.458 163.279 125.024 158.114 Q128.59 152.908 134.041 152.908 Q136.501 152.908 138.796 154.015 Q141.092 155.122 142.895 156.966 Q144.699 158.77 146.215 161.188 Q147.691 163.607 148.716 166.189 Q149.699 168.73 150.273 171.354 Q150.683 170.206 151.298 169.14 Q151.913 168.033 153.06 166.64 Q154.208 165.205 156.053 164.344 Q157.897 163.484 160.152 163.484 Q161.75 163.484 164.128 163.812 Q170.891 164.631 173.678 164.631 Q176.342 164.631 177.572 163.935 Q178.802 163.238 178.802 161.27 Q178.802 159.344 177.08 157.212 Q175.318 155.04 171.178 153.646 Q169.989 153.318 169.989 152.54 Q169.989 152.499 169.989 152.458 Q169.989 152.376 170.071 152.212 Q170.112 152.048 170.235 151.925 Q170.317 151.761 170.522 151.679 Q170.727 151.556 171.014 151.556 Z" fill="#000000" fill-rule="nonzero" fill-opacity="1" /><polyline clip-path="url(#clip342)" style="stroke:#000000; stroke-linecap:round; stroke-linejoin:round; stroke-width:8; stroke-opacity:1; fill:none" points="407.904,1285.4 411.688,1285.4 415.472,1285.4 419.256,1285.4 423.04,1285.4 426.824,1285.4 430.608,1285.4 434.392,1285.4 438.176,1285.4 441.96,1285.4 445.744,1285.4 449.528,1285.4 453.312,1285.4 457.095,1285.4 460.879,1285.4 464.663,1285.4 468.447,1285.4 472.231,1285.4 476.015,1285.4 479.799,1285.4 483.583,1285.4 487.367,1285.4 491.151,1285.4 494.935,1285.4 498.719,1285.4 502.503,1285.4 506.287,1285.4 510.071,1285.4 513.855,1285.4 517.639,1285.39 521.423,1285.37 525.207,1285.31 528.991,1285.19 532.775,1284.94 536.559,1284.47 540.343,1283.67 544.127,1282.37 547.911,1280.37 551.695,1277.43 555.479,1273.3 559.263,1267.71 563.047,1260.41 566.831,1251.14 570.615,1239.69 574.399,1225.9 578.183,1209.64 581.967,1190.84 585.751,1169.51 589.535,1145.68 593.319,1119.46 597.103,1090.98 600.887,1060.42 604.671,1028.01 608.455,993.979 612.239,958.575 616.023,922.062 619.807,884.701 623.591,846.754 627.375,808.471 631.159,770.091 634.943,731.839 638.727,693.922 642.51,656.529 646.294,619.83 650.078,583.974 653.862,549.091 657.646,515.295 661.43,482.677 665.214,451.315 668.998,421.269 672.782,392.585 676.566,365.295 680.35,339.42 684.134,314.968 687.918,291.94 691.702,270.326 695.486,250.11 699.27,231.271 703.054,213.779 706.838,197.602 710.622,182.705 714.406,169.049 718.19,156.592 721.974,145.291 725.758,135.101 729.542,125.978 733.326,117.877 737.11,110.751 740.894,104.556 744.678,99.2463 748.462,94.7785 752.246,91.1092 756.03,88.1964 759.814,85.9989 763.598,84.4769 767.382,83.592 771.166,83.3069 774.95,83.5859 778.734,84.3946 782.518,85.6999 786.302,87.4702 790.086,89.6754 793.87,92.2865 797.654,95.276 801.438,98.6178 805.222,102.287 809.006,106.26 812.79,110.514 816.574,115.027 820.358,119.781 824.142,124.755 827.926,129.932 831.709,135.294 835.493,140.825 839.277,146.511 843.061,152.337 846.845,158.289 850.629,164.354 854.413,170.522 858.197,176.78 861.981,183.117 865.765,189.525 869.549,195.994 873.333,202.514 877.117,209.079 880.901,215.679 884.685,222.309 888.469,228.961 892.253,235.63 896.037,242.308 899.821,248.992 903.605,255.676 907.389,262.354 911.173,269.024 914.957,275.68 918.741,282.319 922.525,288.937 926.309,295.532 930.093,302.1 933.877,308.639 937.661,315.145 941.445,321.617 945.229,328.052 949.013,334.449 952.797,340.805 956.581,347.12 960.365,353.391 964.149,359.617 967.933,365.797 971.717,371.93 975.501,378.015 979.285,384.051 983.069,390.038 986.853,395.973 990.637,401.858 994.421,407.691 998.205,413.472 1001.99,419.201 1005.77,424.878 1009.56,430.501 1013.34,436.072 1017.12,441.589 1020.91,447.053 1024.69,452.464 1028.48,457.822 1032.26,463.127 1036.04,468.378 1039.83,473.577 1043.61,478.723 1047.4,483.817 1051.18,488.858 1054.96,493.848 1058.75,498.786 1062.53,503.672 1066.32,508.507 1070.1,513.292 1073.88,518.026 1077.67,522.71 1081.45,527.344 1085.24,531.93 1089.02,536.466 1092.8,540.954 1096.59,545.394 1100.37,549.787 1104.16,554.132 1107.94,558.431 1111.72,562.683 1115.51,566.89 1119.29,571.052 1123.08,575.169 1126.86,579.241 1130.64,583.27 1134.43,587.255 1138.21,591.197 1142,595.097 1145.78,598.954 1149.56,602.771 1153.35,606.546 1157.13,610.28 1160.92,613.975 1164.7,617.63 1168.48,621.245 1172.27,624.822 1176.05,628.361 1179.84,631.862 1183.62,635.325 1187.4,638.752 1191.19,642.142 1194.97,645.496 1198.76,648.815 1202.54,652.098 1206.32,655.347 1210.11,658.562 1213.89,661.742 1217.68,664.889 1221.46,668.004 1225.24,671.085 1229.03,674.135 1232.81,677.152 1236.6,680.139 1240.38,683.094 1244.16,686.018 1247.95,688.913 1251.73,691.777 1255.52,694.613 1259.3,697.419 1263.08,700.196 1266.87,702.945 1270.65,705.666 1274.44,708.359 1278.22,711.025 1282,713.664 1285.79,716.277 1289.57,718.863 1293.36,721.423 1297.14,723.958 1300.92,726.467 1304.71,728.952 1308.49,731.412 1312.27,733.847 1316.06,736.259 1319.84,738.646 1323.63,741.01 1327.41,743.352 1331.19,745.67 1334.98,747.966 1338.76,750.239 1342.55,752.491 1346.33,754.72 1350.11,756.929 1353.9,759.116 1357.68,761.282 1361.47,763.428 1365.25,765.553 1369.03,767.658 1372.82,769.743 1376.6,771.809 1380.39,773.855 1384.17,775.882 1387.95,777.89 1391.74,779.879 1395.52,781.85 1399.31,783.802 1403.09,785.737 1406.87,787.654 1410.66,789.553 1414.44,791.435 1418.23,793.3 1422.01,795.147 1425.79,796.978 1429.58,798.793 1433.36,800.591 1437.15,802.373 1440.93,804.139 1444.71,805.889 1448.5,807.624 1452.28,809.344 1456.07,811.048 1459.85,812.737 1463.63,814.411 1467.42,816.071 1471.2,817.716 1474.99,819.347 1478.77,820.963 1482.55,822.566 1486.34,824.155 1490.12,825.73 1493.91,827.292 1497.69,828.84 1501.47,830.375 1505.26,831.897 1509.04,833.406 1512.83,834.903 1516.61,836.387 1520.39,837.858 1524.18,839.317 1527.96,840.764 1531.75,842.199 1535.53,843.622 1539.31,845.033 1543.1,846.433 1546.88,847.821 1550.67,849.198 1554.45,850.563 1558.23,851.918 1562.02,853.261 1565.8,854.594 1569.59,855.916 1573.37,857.227 1577.15,858.527 1580.94,859.818 1584.72,861.098 1588.51,862.367 1592.29,863.627 1596.07,864.877 1599.86,866.117 1603.64,867.347 1607.43,868.568 1611.21,869.779 1614.99,870.981 1618.78,872.173 1622.56,873.356 1626.35,874.53 1630.13,875.695 1633.91,876.851 1637.7,877.998 1641.48,879.137 1645.27,880.267 1649.05,881.388 1652.83,882.501 1656.62,883.605 1660.4,884.701 1664.19,885.789 1667.97,886.869 1671.75,887.941 1675.54,889.005 1679.32,890.061 1683.1,891.109 1686.89,892.149 1690.67,893.182 1694.46,894.208 1698.24,895.225 1702.02,896.236 1705.81,897.239 1709.59,898.235 1713.38,899.223 1717.16,900.205 1720.94,901.18 1724.73,902.147 1728.51,903.108 1732.3,904.062 1736.08,905.009 1739.86,905.949 1743.65,906.883 1747.43,907.81 1751.22,908.731 1755,909.645 1758.78,910.553 1762.57,911.455 1766.35,912.35 1770.14,913.24 1773.92,914.123 1777.7,915 1781.49,915.871 1785.27,916.736 1789.06,917.595 1792.84,918.449 1796.62,919.296 1800.41,920.138 1804.19,920.974 1807.98,921.805 1811.76,922.63 1815.54,923.449 1819.33,924.263 1823.11,925.072 1826.9,925.875 1830.68,926.673 1834.46,927.466 1838.25,928.254 1842.03,929.036 1845.82,929.813 1849.6,930.586 1853.38,931.353 1857.17,932.115 1860.95,932.872 1864.74,933.625 1868.52,934.372 1872.3,935.115 1876.09,935.853 1879.87,936.586 1883.66,937.315 1887.44,938.039 1891.22,938.759 1895.01,939.474 1898.79,940.184 1902.58,940.89 1906.36,941.592 1910.14,942.289 1913.93,942.982 1917.71,943.67 1921.5,944.354 1925.28,945.035 1929.06,945.71 1932.85,946.382 1936.63,947.05 1940.42,947.713 1944.2,948.373 1947.98,949.028 1951.77,949.68 1955.55,950.327 1959.34,950.971 1963.12,951.611 1966.9,952.246 1970.69,952.879 1974.47,953.507 1978.26,954.132 1982.04,954.752 1985.82,955.37 1989.61,955.983 1993.39,956.593 1997.18,957.199 2000.96,957.802 2004.74,958.401 2008.53,958.997 2012.31,959.59 2016.1,960.178 2019.88,960.764 2023.66,961.346 2027.45,961.925 2031.23,962.5 2035.02,963.072 2038.8,963.641 2042.58,964.206 2046.37,964.769 2050.15,965.328 2053.94,965.884 2057.72,966.437 2061.5,966.986 2065.29,967.533 2069.07,968.077 2072.85,968.617 2076.64,969.155 2080.42,969.689 2084.21,970.221 2087.99,970.749 2091.77,971.275 2095.56,971.798 2099.34,972.318 2103.13,972.835 2106.91,973.349 2110.69,973.86 2114.48,974.369 2118.26,974.875 2122.05,975.378 2125.83,975.878 2129.61,976.376 2133.4,976.871 2137.18,977.363 2140.97,977.853 2144.75,978.34 2148.53,978.824 2152.32,979.306 2156.1,979.785 2159.89,980.262 2163.67,980.736 2167.45,981.208 2171.24,981.677 2175.02,982.144 2178.81,982.609 2182.59,983.071 2186.37,983.53 2190.16,983.987 2193.94,984.442 2197.73,984.894 2201.51,985.344 2205.29,985.792 2209.08,986.238 2212.86,986.681 2216.65,987.122 2220.43,987.56 2224.21,987.997 2228,988.431 2231.78,988.863 2235.57,989.293 2239.35,989.72 2243.13,990.146 2246.92,990.569 2250.7,990.99 2254.49,991.409 2258.27,991.827 2262.05,992.241 2265.84,992.654 2269.62,993.065 2273.41,993.474 2277.19,993.881 2280.97,994.285 2284.76,994.688 2288.54,995.089 2292.33,995.488 2296.11,995.885 "/>
<polyline clip-path="url(#clip342)" style="stroke:#000000; stroke-linecap:round; stroke-linejoin:round; stroke-width:8; stroke-opacity:1; fill:none" points="771.166,2595.68 771.166,-1226.98 "/>
<polyline clip-path="url(#clip342)" style="stroke:#000000; stroke-linecap:round; stroke-linejoin:round; stroke-width:4; stroke-opacity:1; fill:none" points="-1650.24,1109.29 4354.25,1109.29 "/>
<polyline clip-path="url(#clip342)" style="stroke:#000000; stroke-linecap:round; stroke-linejoin:round; stroke-width:8; stroke-opacity:1; fill:none" stroke-dasharray="32, 20" points="974.352,2595.68 974.352,-1226.98 "/>
</svg>
