<?xml version="1.0" encoding="utf-8"?>
<svg xmlns="http://www.w3.org/2000/svg" xmlns:xlink="http://www.w3.org/1999/xlink" width="600" height="400" viewBox="0 0 2400 1600">
<defs>
  <clipPath id="clip740">
    <rect x="0" y="0" width="2400" height="1600"/>
  </clipPath>
</defs>
<path clip-path="url(#clip740)" d="M0 1600 L2400 1600 L2400 8.88178e-14 L0 8.88178e-14  Z" fill="#ffffff" fill-rule="evenodd" fill-opacity="1"/>
<defs>
  <clipPath id="clip741">
    <rect x="480" y="0" width="1681" height="1600"/>
  </clipPath>
</defs>
<path clip-path="url(#clip740)" d="M232.826 1410.22 L2352.76 1410.22 L2352.76 47.2441 L232.826 47.2441  Z" fill="#ffffff" fill-rule="evenodd" fill-opacity="1"/>
<defs>
  <clipPath id="clip742">
    <rect x="232" y="47" width="2121" height="1364"/>
  </clipPath>
</defs>
<polyline clip-path="url(#clip742)" style="stroke:#000000; stroke-linecap:round; stroke-linejoin:round; stroke-width:2; stroke-opacity:0.1; fill:none" points="252.009,1410.22 252.009,47.2441 "/>
<polyline clip-path="url(#clip742)" style="stroke:#000000; stroke-linecap:round; stroke-linejoin:round; stroke-width:2; stroke-opacity:0.1; fill:none" points="660.159,1410.22 660.159,47.2441 "/>
<polyline clip-path="url(#clip742)" style="stroke:#000000; stroke-linecap:round; stroke-linejoin:round; stroke-width:2; stroke-opacity:0.1; fill:none" points="1068.31,1410.22 1068.31,47.2441 "/>
<polyline clip-path="url(#clip742)" style="stroke:#000000; stroke-linecap:round; stroke-linejoin:round; stroke-width:2; stroke-opacity:0.1; fill:none" points="1476.46,1410.22 1476.46,47.2441 "/>
<polyline clip-path="url(#clip742)" style="stroke:#000000; stroke-linecap:round; stroke-linejoin:round; stroke-width:2; stroke-opacity:0.1; fill:none" points="1884.61,1410.22 1884.61,47.2441 "/>
<polyline clip-path="url(#clip742)" style="stroke:#000000; stroke-linecap:round; stroke-linejoin:round; stroke-width:2; stroke-opacity:0.1; fill:none" points="2292.76,1410.22 2292.76,47.2441 "/>
<polyline clip-path="url(#clip742)" style="stroke:#000000; stroke-linecap:round; stroke-linejoin:round; stroke-width:2; stroke-opacity:0.1; fill:none" points="232.826,1291.05 2352.76,1291.05 "/>
<polyline clip-path="url(#clip742)" style="stroke:#000000; stroke-linecap:round; stroke-linejoin:round; stroke-width:2; stroke-opacity:0.1; fill:none" points="232.826,989.739 2352.76,989.739 "/>
<polyline clip-path="url(#clip742)" style="stroke:#000000; stroke-linecap:round; stroke-linejoin:round; stroke-width:2; stroke-opacity:0.1; fill:none" points="232.826,688.432 2352.76,688.432 "/>
<polyline clip-path="url(#clip742)" style="stroke:#000000; stroke-linecap:round; stroke-linejoin:round; stroke-width:2; stroke-opacity:0.1; fill:none" points="232.826,387.126 2352.76,387.126 "/>
<polyline clip-path="url(#clip742)" style="stroke:#000000; stroke-linecap:round; stroke-linejoin:round; stroke-width:2; stroke-opacity:0.1; fill:none" points="232.826,85.8189 2352.76,85.8189 "/>
<polyline clip-path="url(#clip740)" style="stroke:#000000; stroke-linecap:round; stroke-linejoin:round; stroke-width:4; stroke-opacity:1; fill:none" points="232.826,1410.22 2352.76,1410.22 "/>
<polyline clip-path="url(#clip740)" style="stroke:#000000; stroke-linecap:round; stroke-linejoin:round; stroke-width:4; stroke-opacity:1; fill:none" points="252.009,1410.22 252.009,1391.32 "/>
<polyline clip-path="url(#clip740)" style="stroke:#000000; stroke-linecap:round; stroke-linejoin:round; stroke-width:4; stroke-opacity:1; fill:none" points="660.159,1410.22 660.159,1391.32 "/>
<polyline clip-path="url(#clip740)" style="stroke:#000000; stroke-linecap:round; stroke-linejoin:round; stroke-width:4; stroke-opacity:1; fill:none" points="1068.31,1410.22 1068.31,1391.32 "/>
<polyline clip-path="url(#clip740)" style="stroke:#000000; stroke-linecap:round; stroke-linejoin:round; stroke-width:4; stroke-opacity:1; fill:none" points="1476.46,1410.22 1476.46,1391.32 "/>
<polyline clip-path="url(#clip740)" style="stroke:#000000; stroke-linecap:round; stroke-linejoin:round; stroke-width:4; stroke-opacity:1; fill:none" points="1884.61,1410.22 1884.61,1391.32 "/>
<polyline clip-path="url(#clip740)" style="stroke:#000000; stroke-linecap:round; stroke-linejoin:round; stroke-width:4; stroke-opacity:1; fill:none" points="2292.76,1410.22 2292.76,1391.32 "/>
<path clip-path="url(#clip740)" d="M252.009 1441.14 Q248.398 1441.14 246.57 1444.7 Q244.764 1448.24 244.764 1455.37 Q244.764 1462.48 246.57 1466.05 Q248.398 1469.59 252.009 1469.59 Q255.644 1469.59 257.449 1466.05 Q259.278 1462.48 259.278 1455.37 Q259.278 1448.24 257.449 1444.7 Q255.644 1441.14 252.009 1441.14 M252.009 1437.43 Q257.819 1437.43 260.875 1442.04 Q263.954 1446.62 263.954 1455.37 Q263.954 1464.1 260.875 1468.71 Q257.819 1473.29 252.009 1473.29 Q246.199 1473.29 243.12 1468.71 Q240.065 1464.1 240.065 1455.37 Q240.065 1446.62 243.12 1442.04 Q246.199 1437.43 252.009 1437.43 Z" fill="#000000" fill-rule="nonzero" fill-opacity="1" /><path clip-path="url(#clip740)" d="M650.541 1468.68 L658.18 1468.68 L658.18 1442.32 L649.87 1443.99 L649.87 1439.73 L658.134 1438.06 L662.809 1438.06 L662.809 1468.68 L670.448 1468.68 L670.448 1472.62 L650.541 1472.62 L650.541 1468.68 Z" fill="#000000" fill-rule="nonzero" fill-opacity="1" /><path clip-path="url(#clip740)" d="M1062.96 1468.68 L1079.28 1468.68 L1079.28 1472.62 L1057.34 1472.62 L1057.34 1468.68 Q1060 1465.93 1064.58 1461.3 Q1069.19 1456.65 1070.37 1455.31 Q1072.61 1452.78 1073.49 1451.05 Q1074.4 1449.29 1074.4 1447.6 Q1074.4 1444.84 1072.45 1443.11 Q1070.53 1441.37 1067.43 1441.37 Q1065.23 1441.37 1062.78 1442.13 Q1060.35 1442.9 1057.57 1444.45 L1057.57 1439.73 Q1060.39 1438.59 1062.85 1438.01 Q1065.3 1437.43 1067.34 1437.43 Q1072.71 1437.43 1075.9 1440.12 Q1079.1 1442.81 1079.1 1447.3 Q1079.1 1449.43 1078.29 1451.35 Q1077.5 1453.24 1075.39 1455.84 Q1074.81 1456.51 1071.71 1459.73 Q1068.61 1462.92 1062.96 1468.68 Z" fill="#000000" fill-rule="nonzero" fill-opacity="1" /><path clip-path="url(#clip740)" d="M1480.71 1453.99 Q1484.06 1454.7 1485.94 1456.97 Q1487.84 1459.24 1487.84 1462.57 Q1487.84 1467.69 1484.32 1470.49 Q1480.8 1473.29 1474.32 1473.29 Q1472.14 1473.29 1469.83 1472.85 Q1467.53 1472.43 1465.08 1471.58 L1465.08 1467.06 Q1467.03 1468.2 1469.34 1468.78 Q1471.66 1469.36 1474.18 1469.36 Q1478.58 1469.36 1480.87 1467.62 Q1483.18 1465.88 1483.18 1462.57 Q1483.18 1459.52 1481.03 1457.81 Q1478.9 1456.07 1475.08 1456.07 L1471.05 1456.07 L1471.05 1452.23 L1475.27 1452.23 Q1478.72 1452.23 1480.54 1450.86 Q1482.37 1449.47 1482.37 1446.88 Q1482.37 1444.22 1480.47 1442.81 Q1478.6 1441.37 1475.08 1441.37 Q1473.16 1441.37 1470.96 1441.79 Q1468.76 1442.2 1466.12 1443.08 L1466.12 1438.92 Q1468.78 1438.18 1471.1 1437.81 Q1473.44 1437.43 1475.5 1437.43 Q1480.82 1437.43 1483.92 1439.87 Q1487.03 1442.27 1487.03 1446.39 Q1487.03 1449.26 1485.38 1451.25 Q1483.74 1453.22 1480.71 1453.99 Z" fill="#000000" fill-rule="nonzero" fill-opacity="1" /><path clip-path="url(#clip740)" d="M1887.62 1442.13 L1875.81 1460.58 L1887.62 1460.58 L1887.62 1442.13 M1886.39 1438.06 L1892.27 1438.06 L1892.27 1460.58 L1897.2 1460.58 L1897.2 1464.47 L1892.27 1464.47 L1892.27 1472.62 L1887.62 1472.62 L1887.62 1464.47 L1872.02 1464.47 L1872.02 1459.96 L1886.39 1438.06 Z" fill="#000000" fill-rule="nonzero" fill-opacity="1" /><path clip-path="url(#clip740)" d="M2283.04 1438.06 L2301.39 1438.06 L2301.39 1442 L2287.32 1442 L2287.32 1450.47 Q2288.34 1450.12 2289.36 1449.96 Q2290.37 1449.77 2291.39 1449.77 Q2297.18 1449.77 2300.56 1452.94 Q2303.94 1456.12 2303.94 1461.53 Q2303.94 1467.11 2300.47 1470.21 Q2296.99 1473.29 2290.67 1473.29 Q2288.5 1473.29 2286.23 1472.92 Q2283.98 1472.55 2281.58 1471.81 L2281.58 1467.11 Q2283.66 1468.24 2285.88 1468.8 Q2288.11 1469.36 2290.58 1469.36 Q2294.59 1469.36 2296.92 1467.25 Q2299.26 1465.14 2299.26 1461.53 Q2299.26 1457.92 2296.92 1455.81 Q2294.59 1453.71 2290.58 1453.71 Q2288.71 1453.71 2286.83 1454.12 Q2284.98 1454.54 2283.04 1455.42 L2283.04 1438.06 Z" fill="#000000" fill-rule="nonzero" fill-opacity="1" /><path clip-path="url(#clip740)" d="M1312.03 1515.39 Q1312.03 1514.04 1311.66 1512.93 Q1311.34 1511.78 1310.8 1511.01 Q1310.31 1510.19 1309.37 1509.57 Q1308.43 1508.92 1307.65 1508.51 Q1306.87 1508.1 1305.56 1507.85 Q1304.25 1507.56 1303.38 1507.44 Q1302.52 1507.28 1301.05 1507.19 Q1299.57 1507.11 1298.84 1507.11 Q1298.14 1507.11 1296.74 1507.11 Q1292.36 1507.11 1291.62 1507.19 Q1290.51 1507.36 1290.1 1508.01 Q1289.69 1508.63 1289.28 1510.31 L1283.83 1532.2 L1293.22 1532.2 Q1298.34 1532.2 1301.87 1530.76 Q1305.39 1529.33 1307.4 1527.32 Q1309.62 1525.11 1310.8 1521.54 Q1312.03 1517.97 1312.03 1515.39 M1321.17 1554.04 Q1321.17 1554.5 1320.81 1555.52 Q1320.48 1556.54 1319.66 1557.98 Q1318.84 1559.37 1317.73 1560.64 Q1316.62 1561.91 1314.86 1562.77 Q1313.1 1563.68 1311.09 1563.68 Q1310.6 1563.68 1310.11 1563.64 Q1309.62 1563.64 1308.39 1563.43 Q1307.2 1563.27 1306.21 1562.94 Q1305.23 1562.65 1304 1561.96 Q1302.77 1561.3 1301.91 1560.4 Q1301.09 1559.45 1300.52 1557.98 Q1299.94 1556.46 1299.94 1554.62 Q1299.94 1552.98 1301.29 1547.49 Q1302.48 1542.81 1302.48 1541.67 Q1302.48 1540.39 1302.07 1539.21 Q1301.7 1538.02 1300.76 1536.79 Q1299.86 1535.56 1297.93 1534.82 Q1296.01 1534.04 1293.3 1534.04 L1283.34 1534.04 L1277.77 1556.3 Q1277.77 1556.34 1277.64 1556.91 Q1277.52 1557.45 1277.52 1557.73 Q1277.52 1558.27 1277.85 1558.59 Q1278.22 1558.92 1279.12 1559.09 Q1280.02 1559.21 1280.72 1559.25 Q1281.46 1559.25 1282.97 1559.25 Q1284.86 1559.25 1285.19 1559.58 Q1285.35 1559.78 1285.35 1560.15 Q1285.35 1560.73 1285.19 1561.14 Q1285.06 1561.5 1284.73 1561.63 Q1284.45 1561.75 1284.24 1561.79 Q1284.04 1561.83 1283.67 1561.83 L1273.01 1561.59 L1262.44 1561.83 Q1261.25 1561.83 1261.25 1560.89 Q1261.25 1560.07 1261.53 1559.74 Q1261.82 1559.37 1262.19 1559.33 Q1262.56 1559.25 1263.5 1559.25 Q1265.55 1559.25 1266.78 1559.13 Q1268.01 1559 1268.79 1558.84 Q1269.61 1558.64 1270.02 1558.06 Q1270.47 1557.49 1270.68 1557 Q1270.88 1556.46 1271.17 1555.27 L1282.4 1510.19 Q1282.73 1508.83 1282.73 1508.63 Q1282.73 1507.85 1282.23 1507.64 Q1281.78 1507.4 1280.47 1507.28 L1277.27 1507.11 Q1276.29 1507.11 1275.88 1507.07 Q1275.51 1507.03 1275.23 1506.82 Q1274.94 1506.62 1274.94 1506.17 Q1274.94 1505.02 1275.43 1504.78 Q1275.92 1504.49 1277.36 1504.49 L1301.29 1504.49 Q1309.45 1504.49 1314.62 1508.05 Q1319.82 1511.62 1319.82 1517.07 Q1319.82 1519.53 1318.71 1521.83 Q1317.61 1524.12 1315.76 1525.93 Q1313.96 1527.73 1311.54 1529.25 Q1309.12 1530.72 1306.54 1531.75 Q1304 1532.73 1301.38 1533.3 Q1302.52 1533.71 1303.59 1534.33 Q1304.7 1534.94 1306.09 1536.09 Q1307.52 1537.24 1308.39 1539.08 Q1309.25 1540.93 1309.25 1543.18 Q1309.25 1544.78 1308.92 1547.16 Q1308.1 1553.92 1308.1 1556.71 Q1308.1 1559.37 1308.8 1560.6 Q1309.49 1561.83 1311.46 1561.83 Q1313.39 1561.83 1315.52 1560.11 Q1317.69 1558.35 1319.08 1554.21 Q1319.41 1553.02 1320.19 1553.02 Q1320.23 1553.02 1320.27 1553.02 Q1320.35 1553.02 1320.52 1553.1 Q1320.68 1553.14 1320.81 1553.27 Q1320.97 1553.35 1321.05 1553.55 Q1321.17 1553.76 1321.17 1554.04 Z" fill="#000000" fill-rule="nonzero" fill-opacity="1" /><polyline clip-path="url(#clip740)" style="stroke:#000000; stroke-linecap:round; stroke-linejoin:round; stroke-width:4; stroke-opacity:1; fill:none" points="232.826,1410.22 232.826,47.2441 "/>
<polyline clip-path="url(#clip740)" style="stroke:#000000; stroke-linecap:round; stroke-linejoin:round; stroke-width:4; stroke-opacity:1; fill:none" points="232.826,1291.05 251.724,1291.05 "/>
<polyline clip-path="url(#clip740)" style="stroke:#000000; stroke-linecap:round; stroke-linejoin:round; stroke-width:4; stroke-opacity:1; fill:none" points="232.826,989.739 251.724,989.739 "/>
<polyline clip-path="url(#clip740)" style="stroke:#000000; stroke-linecap:round; stroke-linejoin:round; stroke-width:4; stroke-opacity:1; fill:none" points="232.826,688.432 251.724,688.432 "/>
<polyline clip-path="url(#clip740)" style="stroke:#000000; stroke-linecap:round; stroke-linejoin:round; stroke-width:4; stroke-opacity:1; fill:none" points="232.826,387.126 251.724,387.126 "/>
<polyline clip-path="url(#clip740)" style="stroke:#000000; stroke-linecap:round; stroke-linejoin:round; stroke-width:4; stroke-opacity:1; fill:none" points="232.826,85.8189 251.724,85.8189 "/>
<path clip-path="url(#clip740)" d="M141.248 1276.84 Q137.637 1276.84 135.808 1280.41 Q134.003 1283.95 134.003 1291.08 Q134.003 1298.19 135.808 1301.75 Q137.637 1305.29 141.248 1305.29 Q144.882 1305.29 146.688 1301.75 Q148.516 1298.19 148.516 1291.08 Q148.516 1283.95 146.688 1280.41 Q144.882 1276.84 141.248 1276.84 M141.248 1273.14 Q147.058 1273.14 150.114 1277.75 Q153.192 1282.33 153.192 1291.08 Q153.192 1299.81 150.114 1304.41 Q147.058 1309 141.248 1309 Q135.438 1309 132.359 1304.41 Q129.303 1299.81 129.303 1291.08 Q129.303 1282.33 132.359 1277.75 Q135.438 1273.14 141.248 1273.14 Z" fill="#000000" fill-rule="nonzero" fill-opacity="1" /><path clip-path="url(#clip740)" d="M161.41 1302.45 L166.294 1302.45 L166.294 1308.33 L161.41 1308.33 L161.41 1302.45 Z" fill="#000000" fill-rule="nonzero" fill-opacity="1" /><path clip-path="url(#clip740)" d="M180.507 1304.39 L196.826 1304.39 L196.826 1308.33 L174.882 1308.33 L174.882 1304.39 Q177.544 1301.64 182.127 1297.01 Q186.734 1292.35 187.914 1291.01 Q190.16 1288.49 191.039 1286.75 Q191.942 1284.99 191.942 1283.3 Q191.942 1280.55 189.998 1278.81 Q188.076 1277.08 184.974 1277.08 Q182.775 1277.08 180.322 1277.84 Q177.891 1278.6 175.113 1280.15 L175.113 1275.43 Q177.937 1274.3 180.391 1273.72 Q182.845 1273.14 184.882 1273.14 Q190.252 1273.14 193.447 1275.83 Q196.641 1278.51 196.641 1283 Q196.641 1285.13 195.831 1287.05 Q195.044 1288.95 192.937 1291.54 Q192.359 1292.21 189.257 1295.43 Q186.155 1298.63 180.507 1304.39 Z" fill="#000000" fill-rule="nonzero" fill-opacity="1" /><path clip-path="url(#clip740)" d="M139.165 975.538 Q135.553 975.538 133.725 979.102 Q131.919 982.644 131.919 989.774 Q131.919 996.88 133.725 1000.44 Q135.553 1003.99 139.165 1003.99 Q142.799 1003.99 144.604 1000.44 Q146.433 996.88 146.433 989.774 Q146.433 982.644 144.604 979.102 Q142.799 975.538 139.165 975.538 M139.165 971.834 Q144.975 971.834 148.03 976.44 Q151.109 981.024 151.109 989.774 Q151.109 998.5 148.03 1003.11 Q144.975 1007.69 139.165 1007.69 Q133.354 1007.69 130.276 1003.11 Q127.22 998.5 127.22 989.774 Q127.22 981.024 130.276 976.44 Q133.354 971.834 139.165 971.834 Z" fill="#000000" fill-rule="nonzero" fill-opacity="1" /><path clip-path="url(#clip740)" d="M159.326 1001.14 L164.211 1001.14 L164.211 1007.02 L159.326 1007.02 L159.326 1001.14 Z" fill="#000000" fill-rule="nonzero" fill-opacity="1" /><path clip-path="url(#clip740)" d="M187.243 976.533 L175.437 994.982 L187.243 994.982 L187.243 976.533 M186.016 972.459 L191.896 972.459 L191.896 994.982 L196.826 994.982 L196.826 998.871 L191.896 998.871 L191.896 1007.02 L187.243 1007.02 L187.243 998.871 L171.641 998.871 L171.641 994.357 L186.016 972.459 Z" fill="#000000" fill-rule="nonzero" fill-opacity="1" /><path clip-path="url(#clip740)" d="M139.489 674.231 Q135.878 674.231 134.049 677.796 Q132.243 681.337 132.243 688.467 Q132.243 695.573 134.049 699.138 Q135.878 702.68 139.489 702.68 Q143.123 702.68 144.928 699.138 Q146.757 695.573 146.757 688.467 Q146.757 681.337 144.928 677.796 Q143.123 674.231 139.489 674.231 M139.489 670.527 Q145.299 670.527 148.354 675.134 Q151.433 679.717 151.433 688.467 Q151.433 697.194 148.354 701.8 Q145.299 706.384 139.489 706.384 Q133.678 706.384 130.6 701.8 Q127.544 697.194 127.544 688.467 Q127.544 679.717 130.6 675.134 Q133.678 670.527 139.489 670.527 Z" fill="#000000" fill-rule="nonzero" fill-opacity="1" /><path clip-path="url(#clip740)" d="M159.651 699.833 L164.535 699.833 L164.535 705.712 L159.651 705.712 L159.651 699.833 Z" fill="#000000" fill-rule="nonzero" fill-opacity="1" /><path clip-path="url(#clip740)" d="M185.299 686.569 Q182.15 686.569 180.299 688.722 Q178.47 690.874 178.47 694.624 Q178.47 698.351 180.299 700.527 Q182.15 702.68 185.299 702.68 Q188.447 702.68 190.275 700.527 Q192.127 698.351 192.127 694.624 Q192.127 690.874 190.275 688.722 Q188.447 686.569 185.299 686.569 M194.581 671.916 L194.581 676.175 Q192.822 675.342 191.016 674.902 Q189.234 674.462 187.474 674.462 Q182.845 674.462 180.391 677.587 Q177.961 680.712 177.613 687.032 Q178.979 685.018 181.039 683.953 Q183.099 682.865 185.576 682.865 Q190.785 682.865 193.794 686.036 Q196.826 689.185 196.826 694.624 Q196.826 699.948 193.678 703.166 Q190.53 706.384 185.299 706.384 Q179.303 706.384 176.132 701.8 Q172.961 697.194 172.961 688.467 Q172.961 680.273 176.85 675.411 Q180.738 670.527 187.289 670.527 Q189.049 670.527 190.831 670.874 Q192.636 671.222 194.581 671.916 Z" fill="#000000" fill-rule="nonzero" fill-opacity="1" /><path clip-path="url(#clip740)" d="M139.743 372.924 Q136.132 372.924 134.303 376.489 Q132.498 380.031 132.498 387.16 Q132.498 394.267 134.303 397.832 Q136.132 401.373 139.743 401.373 Q143.377 401.373 145.183 397.832 Q147.012 394.267 147.012 387.16 Q147.012 380.031 145.183 376.489 Q143.377 372.924 139.743 372.924 M139.743 369.221 Q145.553 369.221 148.609 373.827 Q151.688 378.41 151.688 387.16 Q151.688 395.887 148.609 400.494 Q145.553 405.077 139.743 405.077 Q133.933 405.077 130.854 400.494 Q127.799 395.887 127.799 387.16 Q127.799 378.41 130.854 373.827 Q133.933 369.221 139.743 369.221 Z" fill="#000000" fill-rule="nonzero" fill-opacity="1" /><path clip-path="url(#clip740)" d="M159.905 398.526 L164.789 398.526 L164.789 404.406 L159.905 404.406 L159.905 398.526 Z" fill="#000000" fill-rule="nonzero" fill-opacity="1" /><path clip-path="url(#clip740)" d="M184.974 387.994 Q181.641 387.994 179.72 389.776 Q177.822 391.558 177.822 394.683 Q177.822 397.808 179.72 399.591 Q181.641 401.373 184.974 401.373 Q188.308 401.373 190.229 399.591 Q192.15 397.785 192.15 394.683 Q192.15 391.558 190.229 389.776 Q188.331 387.994 184.974 387.994 M180.299 386.003 Q177.289 385.262 175.6 383.202 Q173.933 381.142 173.933 378.179 Q173.933 374.035 176.873 371.628 Q179.836 369.221 184.974 369.221 Q190.136 369.221 193.076 371.628 Q196.016 374.035 196.016 378.179 Q196.016 381.142 194.326 383.202 Q192.66 385.262 189.674 386.003 Q193.053 386.79 194.928 389.082 Q196.826 391.373 196.826 394.683 Q196.826 399.707 193.748 402.392 Q190.692 405.077 184.974 405.077 Q179.257 405.077 176.178 402.392 Q173.123 399.707 173.123 394.683 Q173.123 391.373 175.021 389.082 Q176.919 386.79 180.299 386.003 M178.586 378.619 Q178.586 381.304 180.252 382.808 Q181.942 384.313 184.974 384.313 Q187.984 384.313 189.674 382.808 Q191.386 381.304 191.386 378.619 Q191.386 375.933 189.674 374.429 Q187.984 372.924 184.974 372.924 Q181.942 372.924 180.252 374.429 Q178.586 375.933 178.586 378.619 Z" fill="#000000" fill-rule="nonzero" fill-opacity="1" /><path clip-path="url(#clip740)" d="M130.461 99.1637 L138.1 99.1637 L138.1 72.7981 L129.79 74.4648 L129.79 70.2055 L138.053 68.5389 L142.729 68.5389 L142.729 99.1637 L150.368 99.1637 L150.368 103.099 L130.461 103.099 L130.461 99.1637 Z" fill="#000000" fill-rule="nonzero" fill-opacity="1" /><path clip-path="url(#clip740)" d="M159.813 97.2193 L164.697 97.2193 L164.697 103.099 L159.813 103.099 L159.813 97.2193 Z" fill="#000000" fill-rule="nonzero" fill-opacity="1" /><path clip-path="url(#clip740)" d="M184.882 71.6176 Q181.271 71.6176 179.442 75.1824 Q177.637 78.724 177.637 85.8536 Q177.637 92.96 179.442 96.5248 Q181.271 100.066 184.882 100.066 Q188.516 100.066 190.322 96.5248 Q192.15 92.96 192.15 85.8536 Q192.15 78.724 190.322 75.1824 Q188.516 71.6176 184.882 71.6176 M184.882 67.9139 Q190.692 67.9139 193.748 72.5203 Q196.826 77.1036 196.826 85.8536 Q196.826 94.5804 193.748 99.1869 Q190.692 103.77 184.882 103.77 Q179.072 103.77 175.993 99.1869 Q172.938 94.5804 172.938 85.8536 Q172.938 77.1036 175.993 72.5203 Q179.072 67.9139 184.882 67.9139 Z" fill="#000000" fill-rule="nonzero" fill-opacity="1" /><path clip-path="url(#clip740)" d="M75.611 1174.18 L99.6734 1174.18 L99.6734 1181.67 L37.0464 1181.67 L37.0464 1174.18 L43.9329 1174.18 Q39.882 1171.83 37.9376 1168.26 Q35.9527 1164.66 35.9527 1159.67 Q35.9527 1151.41 42.5151 1146.27 Q49.0776 1141.08 59.772 1141.08 Q70.4664 1141.08 77.0288 1146.27 Q83.5913 1151.41 83.5913 1159.67 Q83.5913 1164.66 81.6469 1168.26 Q79.6619 1171.83 75.611 1174.18 M59.772 1148.82 Q51.5486 1148.82 46.8901 1152.22 Q42.1911 1155.58 42.1911 1161.5 Q42.1911 1167.41 46.8901 1170.81 Q51.5486 1174.18 59.772 1174.18 Q67.9953 1174.18 72.6944 1170.81 Q77.3529 1167.41 77.3529 1161.5 Q77.3529 1155.58 72.6944 1152.22 Q67.9953 1148.82 59.772 1148.82 Z" fill="#000000" fill-rule="nonzero" fill-opacity="1" /><path clip-path="url(#clip740)" d="M44.014 1102.43 Q43.2848 1103.69 42.9607 1105.19 Q42.5961 1106.65 42.5961 1108.43 Q42.5961 1114.75 46.7281 1118.15 Q50.8195 1121.51 58.5162 1121.51 L82.4165 1121.51 L82.4165 1129.01 L37.0464 1129.01 L37.0464 1121.51 L44.095 1121.51 Q39.9631 1119.16 37.9781 1115.4 Q35.9527 1111.63 35.9527 1106.24 Q35.9527 1105.47 36.0742 1104.54 Q36.1552 1103.61 36.3578 1102.48 L44.014 1102.43 Z" fill="#000000" fill-rule="nonzero" fill-opacity="1" /><path clip-path="url(#clip740)" d="M42.2721 1078.86 Q42.2721 1084.85 46.9711 1088.34 Q51.6297 1091.82 59.772 1091.82 Q67.9143 1091.82 72.6133 1088.38 Q77.2719 1084.89 77.2719 1078.86 Q77.2719 1072.9 72.5728 1069.42 Q67.8738 1065.94 59.772 1065.94 Q51.7107 1065.94 47.0116 1069.42 Q42.2721 1072.9 42.2721 1078.86 M35.9527 1078.86 Q35.9527 1069.14 42.2721 1063.59 Q48.5915 1058.04 59.772 1058.04 Q70.912 1058.04 77.2719 1063.59 Q83.5913 1069.14 83.5913 1078.86 Q83.5913 1088.62 77.2719 1094.17 Q70.912 1099.68 59.772 1099.68 Q48.5915 1099.68 42.2721 1094.17 Q35.9527 1088.62 35.9527 1078.86 Z" fill="#000000" fill-rule="nonzero" fill-opacity="1" /><path clip-path="url(#clip740)" d="M19.3845 1022.71 L25.5823 1022.71 L25.5823 1029.84 Q25.5823 1033.85 27.2027 1035.43 Q28.8231 1036.97 33.036 1036.97 L37.0464 1036.97 L37.0464 1024.7 L42.8392 1024.7 L42.8392 1036.97 L82.4165 1036.97 L82.4165 1044.47 L42.8392 1044.47 L42.8392 1051.6 L37.0464 1051.6 L37.0464 1044.47 L33.8867 1044.47 Q26.3115 1044.47 22.8682 1040.94 Q19.3845 1037.42 19.3845 1029.76 L19.3845 1022.71 Z" fill="#000000" fill-rule="nonzero" fill-opacity="1" /><path clip-path="url(#clip740)" d="M37.0464 1016.47 L37.0464 1009.02 L82.4165 1009.02 L82.4165 1016.47 L37.0464 1016.47 M19.3845 1016.47 L19.3845 1009.02 L28.8231 1009.02 L28.8231 1016.47 L19.3845 1016.47 Z" fill="#000000" fill-rule="nonzero" fill-opacity="1" /><path clip-path="url(#clip740)" d="M19.3845 993.425 L19.3845 985.971 L82.4165 985.971 L82.4165 993.425 L19.3845 993.425 Z" fill="#000000" fill-rule="nonzero" fill-opacity="1" /><path clip-path="url(#clip740)" d="M57.8681 931.568 L61.5139 931.568 L61.5139 965.838 Q69.2106 965.352 73.2615 961.22 Q77.2719 957.048 77.2719 949.635 Q77.2719 945.341 76.2186 941.33 Q75.1654 937.279 73.0589 933.309 L80.1075 933.309 Q81.8089 937.32 82.7001 941.533 Q83.5913 945.746 83.5913 950.08 Q83.5913 960.937 77.2719 967.297 Q70.9525 973.616 60.1771 973.616 Q49.0371 973.616 42.5151 967.621 Q35.9527 961.585 35.9527 951.376 Q35.9527 942.221 41.867 936.915 Q47.7408 931.568 57.8681 931.568 M55.6806 939.021 Q49.5637 939.102 45.9179 942.464 Q42.2721 945.786 42.2721 951.295 Q42.2721 957.534 45.7964 961.301 Q49.3206 965.028 55.7211 965.595 L55.6806 939.021 Z" fill="#000000" fill-rule="nonzero" fill-opacity="1" /><path clip-path="url(#clip740)" d="M19.3845 892.962 L19.3845 885.509 L82.4165 885.509 L82.4165 892.962 L19.3845 892.962 Z" fill="#000000" fill-rule="nonzero" fill-opacity="1" /><path clip-path="url(#clip740)" d="M37.0464 869.913 L37.0464 862.459 L82.4165 862.459 L82.4165 869.913 L37.0464 869.913 M19.3845 869.913 L19.3845 862.459 L28.8231 862.459 L28.8231 869.913 L19.3845 869.913 Z" fill="#000000" fill-rule="nonzero" fill-opacity="1" /><path clip-path="url(#clip740)" d="M19.3845 847.147 L19.3845 839.653 L56.6123 839.653 L37.0464 817.413 L37.0464 807.893 L58.2731 831.956 L82.4165 806.881 L82.4165 816.603 L60.2581 839.653 L82.4165 839.653 L82.4165 847.147 L19.3845 847.147 Z" fill="#000000" fill-rule="nonzero" fill-opacity="1" /><path clip-path="url(#clip740)" d="M57.8681 762.969 L61.5139 762.969 L61.5139 797.24 Q69.2106 796.753 73.2615 792.622 Q77.2719 788.449 77.2719 781.036 Q77.2719 776.742 76.2186 772.732 Q75.1654 768.681 73.0589 764.711 L80.1075 764.711 Q81.8089 768.721 82.7001 772.934 Q83.5913 777.147 83.5913 781.482 Q83.5913 792.338 77.2719 798.698 Q70.9525 805.017 60.1771 805.017 Q49.0371 805.017 42.5151 799.022 Q35.9527 792.986 35.9527 782.778 Q35.9527 773.623 41.867 768.316 Q47.7408 762.969 57.8681 762.969 M55.6806 770.423 Q49.5637 770.504 45.9179 773.866 Q42.2721 777.188 42.2721 782.697 Q42.2721 788.935 45.7964 792.703 Q49.3206 796.429 55.7211 796.997 L55.6806 770.423 Z" fill="#000000" fill-rule="nonzero" fill-opacity="1" /><path clip-path="url(#clip740)" d="M19.3845 750.735 L19.3845 743.282 L82.4165 743.282 L82.4165 750.735 L19.3845 750.735 Z" fill="#000000" fill-rule="nonzero" fill-opacity="1" /><path clip-path="url(#clip740)" d="M37.0464 727.686 L37.0464 720.232 L82.4165 720.232 L82.4165 727.686 L37.0464 727.686 M19.3845 727.686 L19.3845 720.232 L28.8231 720.232 L28.8231 727.686 L19.3845 727.686 Z" fill="#000000" fill-rule="nonzero" fill-opacity="1" /><path clip-path="url(#clip740)" d="M55.0324 666.922 L82.4165 666.922 L82.4165 674.376 L55.2755 674.376 Q48.8345 674.376 45.6343 676.887 Q42.4341 679.399 42.4341 684.422 Q42.4341 690.458 46.2825 693.942 Q50.1308 697.425 56.7743 697.425 L82.4165 697.425 L82.4165 704.919 L19.3845 704.919 L19.3845 697.425 L44.095 697.425 Q40.0036 694.752 37.9781 691.146 Q35.9527 687.501 35.9527 682.761 Q35.9527 674.943 40.8137 670.932 Q45.6343 666.922 55.0324 666.922 Z" fill="#000000" fill-rule="nonzero" fill-opacity="1" /><path clip-path="url(#clip740)" d="M42.2721 634.474 Q42.2721 640.47 46.9711 643.953 Q51.6297 647.437 59.772 647.437 Q67.9143 647.437 72.6133 643.994 Q77.2719 640.51 77.2719 634.474 Q77.2719 628.519 72.5728 625.036 Q67.8738 621.552 59.772 621.552 Q51.7107 621.552 47.0116 625.036 Q42.2721 628.519 42.2721 634.474 M35.9527 634.474 Q35.9527 624.752 42.2721 619.202 Q48.5915 613.653 59.772 613.653 Q70.912 613.653 77.2719 619.202 Q83.5913 624.752 83.5913 634.474 Q83.5913 644.237 77.2719 649.787 Q70.912 655.296 59.772 655.296 Q48.5915 655.296 42.2721 649.787 Q35.9527 644.237 35.9527 634.474 Z" fill="#000000" fill-rule="nonzero" fill-opacity="1" /><path clip-path="url(#clip740)" d="M42.2721 583.716 Q42.2721 589.712 46.9711 593.196 Q51.6297 596.679 59.772 596.679 Q67.9143 596.679 72.6133 593.236 Q77.2719 589.752 77.2719 583.716 Q77.2719 577.762 72.5728 574.278 Q67.8738 570.794 59.772 570.794 Q51.7107 570.794 47.0116 574.278 Q42.2721 577.762 42.2721 583.716 M35.9527 583.716 Q35.9527 573.994 42.2721 568.444 Q48.5915 562.895 59.772 562.895 Q70.912 562.895 77.2719 568.444 Q83.5913 573.994 83.5913 583.716 Q83.5913 593.479 77.2719 599.029 Q70.912 604.538 59.772 604.538 Q48.5915 604.538 42.2721 599.029 Q35.9527 593.479 35.9527 583.716 Z" fill="#000000" fill-rule="nonzero" fill-opacity="1" /><path clip-path="url(#clip740)" d="M43.9329 520.684 L19.3845 520.684 L19.3845 513.231 L82.4165 513.231 L82.4165 520.684 L75.611 520.684 Q79.6619 523.034 81.6469 526.639 Q83.5913 530.204 83.5913 535.227 Q83.5913 543.45 77.0288 548.636 Q70.4664 553.78 59.772 553.78 Q49.0776 553.78 42.5151 548.636 Q35.9527 543.45 35.9527 535.227 Q35.9527 530.204 37.9376 526.639 Q39.882 523.034 43.9329 520.684 M59.772 546.084 Q67.9953 546.084 72.6944 542.721 Q77.3529 539.318 77.3529 533.404 Q77.3529 527.49 72.6944 524.087 Q67.9953 520.684 59.772 520.684 Q51.5486 520.684 46.8901 524.087 Q42.1911 527.49 42.1911 533.404 Q42.1911 539.318 46.8901 542.721 Q51.5486 546.084 59.772 546.084 Z" fill="#000000" fill-rule="nonzero" fill-opacity="1" /><path clip-path="url(#clip740)" d="M19.3845 448.538 L25.5823 448.538 L25.5823 455.667 Q25.5823 459.678 27.2027 461.258 Q28.8231 462.797 33.036 462.797 L37.0464 462.797 L37.0464 450.523 L42.8392 450.523 L42.8392 462.797 L82.4165 462.797 L82.4165 470.291 L42.8392 470.291 L42.8392 477.421 L37.0464 477.421 L37.0464 470.291 L33.8867 470.291 Q26.3115 470.291 22.8682 466.767 Q19.3845 463.243 19.3845 455.586 L19.3845 448.538 Z" fill="#000000" fill-rule="nonzero" fill-opacity="1" /><path clip-path="url(#clip740)" d="M42.2721 424.718 Q42.2721 430.714 46.9711 434.198 Q51.6297 437.681 59.772 437.681 Q67.9143 437.681 72.6133 434.238 Q77.2719 430.754 77.2719 424.718 Q77.2719 418.764 72.5728 415.28 Q67.8738 411.796 59.772 411.796 Q51.7107 411.796 47.0116 415.28 Q42.2721 418.764 42.2721 424.718 M35.9527 424.718 Q35.9527 414.996 42.2721 409.447 Q48.5915 403.897 59.772 403.897 Q70.912 403.897 77.2719 409.447 Q83.5913 414.996 83.5913 424.718 Q83.5913 434.481 77.2719 440.031 Q70.912 445.54 59.772 445.54 Q48.5915 445.54 42.2721 440.031 Q35.9527 434.481 35.9527 424.718 Z" fill="#000000" fill-rule="nonzero" fill-opacity="1" /><path clip-path="url(#clip740)" d="M44.014 365.251 Q43.2848 366.507 42.9607 368.006 Q42.5961 369.464 42.5961 371.246 Q42.5961 377.566 46.7281 380.969 Q50.8195 384.331 58.5162 384.331 L82.4165 384.331 L82.4165 391.825 L37.0464 391.825 L37.0464 384.331 L44.095 384.331 Q39.9631 381.981 37.9781 378.214 Q35.9527 374.447 35.9527 369.059 Q35.9527 368.289 36.0742 367.358 Q36.1552 366.426 36.3578 365.292 L44.014 365.251 Z" fill="#000000" fill-rule="nonzero" fill-opacity="1" /><path clip-path="url(#clip740)" d="M35.9757 288.094 Q34.623 288.094 33.5163 288.463 Q32.3686 288.791 31.5898 289.324 Q30.77 289.816 30.1552 290.758 Q29.4994 291.701 29.0895 292.48 Q28.6796 293.259 28.4337 294.57 Q28.1467 295.882 28.0238 296.743 Q27.8598 297.604 27.7778 299.079 Q27.6958 300.555 27.6958 301.293 Q27.6958 301.989 27.6958 303.383 Q27.6958 307.769 27.7778 308.507 Q27.9418 309.613 28.5976 310.023 Q29.2124 310.433 30.893 310.843 L52.7813 316.295 L52.7813 306.908 Q52.7813 301.784 51.3467 298.259 Q49.912 294.734 47.9036 292.726 Q45.6901 290.512 42.1241 289.324 Q38.558 288.094 35.9757 288.094 M74.6286 278.953 Q75.0795 278.953 76.1042 279.322 Q77.1289 279.65 78.5635 280.47 Q79.9572 281.29 81.2278 282.397 Q82.4985 283.503 83.3593 285.266 Q84.261 287.028 84.261 289.037 Q84.261 289.529 84.2201 290.021 Q84.2201 290.512 84.0151 291.742 Q83.8512 292.931 83.5232 293.915 Q83.2363 294.898 82.5395 296.128 Q81.8837 297.358 80.9819 298.218 Q80.0392 299.038 78.5635 299.612 Q77.0469 300.186 75.2024 300.186 Q73.5628 300.186 68.0703 298.833 Q63.3975 297.645 62.2498 297.645 Q60.9791 297.645 59.7905 298.054 Q58.6018 298.423 57.3721 299.366 Q56.1424 300.268 55.4046 302.194 Q54.6258 304.121 54.6258 306.826 L54.6258 316.787 L76.883 322.361 Q76.924 322.361 77.4978 322.484 Q78.0307 322.607 78.3176 322.607 Q78.8505 322.607 79.1784 322.279 Q79.5063 321.91 79.6703 321.008 Q79.7932 320.107 79.8342 319.41 Q79.8342 318.672 79.8342 317.155 Q79.8342 315.27 80.1621 314.942 Q80.3671 314.778 80.736 314.778 Q81.3098 314.778 81.7197 314.942 Q82.0886 315.065 82.2116 315.393 Q82.3346 315.68 82.3755 315.885 Q82.4165 316.09 82.4165 316.459 L82.1706 327.116 L82.4165 337.691 Q82.4165 338.88 81.4738 338.88 Q80.654 338.88 80.3261 338.593 Q79.9572 338.306 79.9162 337.937 Q79.8342 337.568 79.8342 336.625 Q79.8342 334.576 79.7112 333.346 Q79.5883 332.117 79.4243 331.338 Q79.2194 330.518 78.6455 330.108 Q78.0717 329.657 77.5798 329.452 Q77.0469 329.247 75.8582 328.96 L30.77 317.729 Q29.4174 317.401 29.2124 317.401 Q28.4337 317.401 28.2287 317.893 Q27.9828 318.344 27.8598 319.656 L27.6958 322.853 Q27.6958 323.837 27.6549 324.247 Q27.6139 324.615 27.4089 324.902 Q27.204 325.189 26.7531 325.189 Q25.6054 325.189 25.3595 324.697 Q25.0725 324.206 25.0725 322.771 L25.0725 298.833 Q25.0725 290.676 28.6386 285.512 Q32.2047 280.306 37.6562 280.306 Q40.1156 280.306 42.411 281.413 Q44.7064 282.519 46.5099 284.364 Q48.3135 286.168 49.8301 288.586 Q51.3057 291.004 52.3304 293.587 Q53.3141 296.128 53.888 298.751 Q54.2979 297.604 54.9127 296.538 Q55.5276 295.431 56.6753 294.037 Q57.823 292.603 59.6675 291.742 Q61.512 290.881 63.7664 290.881 Q65.365 290.881 67.7424 291.209 Q74.5056 292.029 77.2929 292.029 Q79.9572 292.029 81.1869 291.332 Q82.4165 290.635 82.4165 288.668 Q82.4165 286.741 80.695 284.61 Q78.9324 282.438 74.7925 281.044 Q73.6038 280.716 73.6038 279.937 Q73.6038 279.896 73.6038 279.855 Q73.6038 279.773 73.6858 279.609 Q73.7268 279.445 73.8498 279.322 Q73.9318 279.158 74.1367 279.076 Q74.3416 278.953 74.6286 278.953 Z" fill="#000000" fill-rule="nonzero" fill-opacity="1" /><polyline clip-path="url(#clip742)" style="stroke:#000000; stroke-linecap:round; stroke-linejoin:round; stroke-width:8; stroke-opacity:1; fill:none" points="292.824,85.8189 296.832,85.8189 300.84,85.8189 304.848,85.8189 308.856,85.8189 312.864,85.8189 316.872,85.8189 320.879,85.8189 324.887,85.8189 328.895,85.8189 332.903,85.8189 336.911,85.8189 340.919,85.8189 344.927,85.8189 348.935,85.8189 352.943,85.8189 356.95,85.8189 360.958,85.8189 364.966,85.8189 368.974,85.8189 372.982,85.8189 376.99,85.8189 380.998,85.8189 385.006,85.8189 389.013,85.8189 393.021,85.8189 397.029,85.8189 401.037,85.8189 405.045,85.8189 409.053,85.8189 413.061,85.8189 417.069,85.8189 421.077,85.8189 425.084,85.8189 429.092,85.8189 433.1,85.819 437.108,85.8189 441.116,85.8189 445.124,85.819 449.132,85.8197 453.14,85.8189 457.147,85.8189 461.155,85.8189 465.163,85.8189 469.171,85.8196 473.179,85.8189 477.187,85.8189 481.195,85.8189 485.203,85.8189 489.211,85.8189 493.218,85.8189 497.226,85.8189 501.234,85.8189 505.242,85.8189 509.25,85.8189 513.258,85.8189 517.266,85.8189 521.274,85.819 525.281,85.8189 529.289,85.8189 533.297,85.8189 537.305,85.8189 541.313,85.8189 545.321,85.8189 549.329,85.8189 553.337,85.8189 557.345,85.8189 561.352,85.8189 565.36,85.8189 569.368,85.8189 573.376,85.8189 577.384,85.8189 581.392,85.8189 585.4,85.8189 589.408,85.8189 593.416,85.8189 597.423,85.8189 601.431,85.8189 605.439,85.8189 609.447,85.8189 613.455,85.8189 617.463,85.8189 621.471,85.8189 625.479,85.8189 629.486,85.8189 633.494,85.8189 637.502,85.8189 641.51,85.8189 645.518,85.8189 649.526,85.8189 653.534,85.8189 657.542,85.8189 661.55,85.8189 665.557,85.819 669.565,85.8189 673.573,85.8189 677.581,85.8189 681.589,85.8189 685.597,85.8189 689.605,85.8189 693.613,85.8189 697.62,85.8189 701.628,85.8189 705.636,85.8189 709.644,85.8189 713.652,85.8189 717.66,85.819 721.668,85.8189 725.676,85.8189 729.684,85.8189 733.691,85.8189 737.699,85.8189 741.707,85.8189 745.715,85.8189 749.723,85.8189 753.731,85.8189 757.739,85.8189 761.747,85.8189 765.754,85.8189 769.762,85.8189 773.77,85.8189 777.778,85.8189 781.786,85.8189 785.794,85.8189 789.802,85.8189 793.81,85.819 797.818,85.8189 801.825,85.8189 805.833,85.8189 809.841,85.8189 813.849,85.8189 817.857,85.8189 821.865,85.8189 825.873,85.8189 829.881,85.8189 833.888,85.819 837.896,85.8189 841.904,85.8189 845.912,85.8189 849.92,85.82 853.928,85.8189 857.936,85.8189 861.944,85.8189 865.952,85.819 869.959,85.8189 873.967,85.8189 877.975,85.8189 881.983,85.8189 885.991,85.8189 889.999,85.8189 894.007,85.819 898.015,85.8189 902.022,85.8189 906.03,85.819 910.038,85.8189 914.046,85.8189 918.054,85.8189 922.062,85.8189 926.07,85.8189 930.078,85.8189 934.086,85.8189 938.093,85.8189 942.101,85.819 946.109,85.8189 950.117,85.8189 954.125,85.8189 958.133,85.8189 962.141,85.8189 966.149,85.8189 970.157,85.8189 974.164,85.8189 978.172,85.8189 982.18,85.8189 986.188,85.8189 990.196,85.8189 994.204,85.8189 998.212,85.8189 1002.22,85.8189 1006.23,85.8189 1010.24,85.8189 1014.24,85.8197 1018.25,85.8189 1022.26,85.8189 1026.27,85.8189 1030.27,85.8189 1034.28,85.8189 1038.29,85.8189 1042.3,85.8189 1046.31,85.8189 1050.31,85.8189 1054.32,85.8189 1058.33,85.8189 1062.34,85.8189 1066.35,85.8189 1070.35,85.8189 1074.36,85.8189 1078.37,85.8189 1082.38,85.8189 1086.39,85.8189 1090.39,85.8189 1094.4,85.8189 1098.41,85.8189 1102.42,85.8189 1106.42,85.8194 1110.43,85.8189 1114.44,85.8189 1118.45,85.8189 1122.46,85.8189 1126.46,85.8189 1130.47,85.8189 1134.48,85.8189 1138.49,85.8189 1142.5,85.8189 1146.5,85.8189 1150.51,85.8189 1154.52,85.8189 1158.53,85.8189 1162.53,85.8189 1166.54,85.8189 1170.55,85.8189 1174.56,85.8189 1178.57,85.8189 1182.57,85.8189 1186.58,85.8189 1190.59,85.8189 1194.6,85.8189 1198.61,85.8189 1202.61,85.8189 1206.62,85.8189 1210.63,85.8189 1214.64,85.8189 1218.65,85.819 1222.65,85.8189 1226.66,85.8189 1230.67,85.8189 1234.68,85.8189 1238.68,85.8189 1242.69,85.8189 1246.7,85.8189 1250.71,85.8189 1254.72,85.8189 1258.72,85.8189 1262.73,85.8189 1266.74,85.8189 1270.75,85.8189 1274.76,85.8189 1278.76,85.8189 1282.77,85.8189 1286.78,85.8189 1290.79,85.8189 1294.8,85.8189 1298.8,85.8192 1302.81,85.8189 1306.82,85.8189 1310.83,85.8189 1314.83,85.8451 1318.84,85.9546 1322.85,86.1494 1326.86,86.4293 1330.87,86.7941 1334.87,87.2437 1338.88,87.778 1342.89,88.3967 1346.9,89.0996 1350.91,89.8866 1354.91,90.7573 1358.92,91.7116 1362.93,92.7492 1366.94,93.8698 1370.94,95.0732 1374.95,96.359 1378.96,97.727 1382.97,99.1767 1386.98,100.708 1390.98,102.32 1394.99,104.013 1399,105.787 1403.01,107.641 1407.02,109.574 1411.02,111.586 1415.03,113.677 1419.04,115.847 1423.05,118.094 1427.06,120.419 1431.06,122.82 1435.07,125.299 1439.08,127.853 1443.09,130.483 1447.09,133.187 1451.1,135.966 1455.11,138.819 1459.12,141.746 1463.13,144.745 1467.13,147.816 1471.14,150.96 1475.15,154.174 1479.16,157.458 1483.17,160.813 1487.17,164.237 1491.18,167.729 1495.19,171.289 1499.2,174.917 1503.2,178.612 1507.21,182.372 1511.22,186.198 1515.23,190.089 1519.24,194.043 1523.24,198.061 1527.25,202.142 1531.26,206.285 1535.27,210.488 1539.28,214.753 1543.28,219.077 1547.29,223.46 1551.3,227.901 1555.31,232.4 1559.32,236.956 1563.32,241.568 1567.33,246.235 1571.34,250.957 1575.35,255.733 1579.35,260.561 1583.36,265.442 1587.37,270.374 1591.38,275.357 1595.39,280.39 1599.39,285.472 1603.4,290.602 1607.41,295.779 1611.42,301.004 1615.43,306.274 1619.43,311.589 1623.44,316.948 1627.45,322.351 1631.46,327.796 1635.47,333.283 1639.47,338.811 1643.48,344.379 1647.49,349.986 1651.5,355.632 1655.5,361.316 1659.51,367.036 1663.52,372.792 1667.53,378.584 1671.54,384.409 1675.54,390.268 1679.55,396.16 1683.56,402.084 1687.57,408.038 1691.58,414.023 1695.58,420.037 1699.59,426.08 1703.6,432.15 1707.61,438.247 1711.61,444.37 1715.62,450.519 1719.63,456.691 1723.64,462.887 1727.65,469.106 1731.65,475.347 1735.66,481.609 1739.67,487.891 1743.68,494.193 1747.69,500.514 1751.69,506.852 1755.7,513.207 1759.71,519.579 1763.72,525.966 1767.73,532.368 1771.73,538.784 1775.74,545.213 1779.75,551.654 1783.76,558.107 1787.76,564.57 1791.77,571.044 1795.78,577.527 1799.79,584.019 1803.8,590.518 1807.8,597.024 1811.81,603.537 1815.82,610.055 1819.83,616.578 1823.84,623.106 1827.84,629.636 1831.85,636.169 1835.86,642.705 1839.87,649.241 1843.87,655.778 1847.88,662.315 1851.89,668.851 1855.9,675.386 1859.91,681.918 1863.91,688.448 1867.92,694.974 1871.93,701.496 1875.94,708.013 1879.95,714.525 1883.95,721.031 1887.96,727.53 1891.97,734.022 1895.98,740.505 1899.99,746.981 1903.99,753.447 1908,759.903 1912.01,766.349 1916.02,772.785 1920.02,779.208 1924.03,785.62 1928.04,792.019 1932.05,798.405 1936.06,804.778 1940.06,811.136 1944.07,817.479 1948.08,823.807 1952.09,830.12 1956.1,836.416 1960.1,842.695 1964.11,848.957 1968.12,855.201 1972.13,861.428 1976.14,867.635 1980.14,873.823 1984.15,879.992 1988.16,886.14 1992.17,892.269 1996.17,898.376 2000.18,904.462 2004.19,910.526 2008.2,916.568 2012.21,922.587 2016.21,928.584 2020.22,934.557 2024.23,940.507 2028.24,946.432 2032.25,952.333 2036.25,958.21 2040.26,964.061 2044.27,969.887 2048.28,975.686 2052.28,981.46 2056.29,987.208 2060.3,992.928 2064.31,998.622 2068.32,1004.29 2072.32,1009.93 2076.33,1015.54 2080.34,1021.12 2084.35,1026.68 2088.36,1032.2 2092.36,1037.7 2096.37,1043.17 2100.38,1048.6 2104.39,1054.01 2108.4,1059.39 2112.4,1064.74 2116.41,1070.06 2120.42,1075.35 2124.43,1080.6 2128.43,1085.83 2132.44,1091.03 2136.45,1096.19 2140.46,1101.32 2144.47,1106.42 2148.47,1111.49 2152.48,1116.53 2156.49,1121.54 2160.5,1126.51 2164.51,1131.46 2168.51,1136.37 2172.52,1141.24 2176.53,1146.09 2180.54,1150.9 2184.55,1155.68 2188.55,1160.43 2192.56,1165.14 2196.57,1169.82 2200.58,1174.47 2204.58,1179.08 2208.59,1183.67 2212.6,1188.22 2216.61,1192.73 2220.62,1197.21 2224.62,1201.66 2228.63,1206.08 2232.64,1210.46 2236.65,1214.81 2240.66,1219.12 2244.66,1223.41 2248.67,1227.65 2252.68,1231.87 2256.69,1236.05 2260.69,1240.2 2264.7,1244.32 2268.71,1248.4 2272.72,1252.45 2276.73,1256.46 2280.73,1260.44 2284.74,1264.39 2288.75,1268.31 2292.76,1272.19 "/>
<polyline clip-path="url(#clip742)" style="stroke:#000000; stroke-linecap:round; stroke-linejoin:round; stroke-width:8; stroke-opacity:1; fill:none" points="505.242,2773.2 505.242,-1315.73 "/>
<polyline clip-path="url(#clip742)" style="stroke:#000000; stroke-linecap:round; stroke-linejoin:round; stroke-width:4; stroke-opacity:1; fill:none" points="-1887.1,1371.65 4472.69,1371.65 "/>
<polyline clip-path="url(#clip742)" style="stroke:#000000; stroke-linecap:round; stroke-linejoin:round; stroke-width:8; stroke-opacity:1; fill:none" stroke-dasharray="32, 20" points="660.159,2773.2 660.159,-1315.73 "/>
</svg>
