<?xml version="1.0" encoding="utf-8"?>
<svg xmlns="http://www.w3.org/2000/svg" xmlns:xlink="http://www.w3.org/1999/xlink" width="600" height="400" viewBox="0 0 2400 1600">
<defs>
  <clipPath id="clip660">
    <rect x="0" y="0" width="2400" height="1600"/>
  </clipPath>
</defs>
<path clip-path="url(#clip660)" d="M0 1600 L2400 1600 L2400 8.88178e-14 L0 8.88178e-14  Z" fill="#ffffff" fill-rule="evenodd" fill-opacity="1"/>
<defs>
  <clipPath id="clip661">
    <rect x="480" y="0" width="1681" height="1600"/>
  </clipPath>
</defs>
<path clip-path="url(#clip660)" d="M232.826 1410.22 L2352.76 1410.22 L2352.76 47.2441 L232.826 47.2441  Z" fill="#ffffff" fill-rule="evenodd" fill-opacity="1"/>
<defs>
  <clipPath id="clip662">
    <rect x="232" y="47" width="2121" height="1364"/>
  </clipPath>
</defs>
<polyline clip-path="url(#clip662)" style="stroke:#000000; stroke-linecap:round; stroke-linejoin:round; stroke-width:2; stroke-opacity:0.1; fill:none" points="447.514,1410.22 447.514,47.2441 "/>
<polyline clip-path="url(#clip662)" style="stroke:#000000; stroke-linecap:round; stroke-linejoin:round; stroke-width:2; stroke-opacity:0.1; fill:none" points="958.742,1410.22 958.742,47.2441 "/>
<polyline clip-path="url(#clip662)" style="stroke:#000000; stroke-linecap:round; stroke-linejoin:round; stroke-width:2; stroke-opacity:0.1; fill:none" points="1469.97,1410.22 1469.97,47.2441 "/>
<polyline clip-path="url(#clip662)" style="stroke:#000000; stroke-linecap:round; stroke-linejoin:round; stroke-width:2; stroke-opacity:0.1; fill:none" points="1981.2,1410.22 1981.2,47.2441 "/>
<polyline clip-path="url(#clip662)" style="stroke:#000000; stroke-linecap:round; stroke-linejoin:round; stroke-width:2; stroke-opacity:0.1; fill:none" points="232.826,1291.05 2352.76,1291.05 "/>
<polyline clip-path="url(#clip662)" style="stroke:#000000; stroke-linecap:round; stroke-linejoin:round; stroke-width:2; stroke-opacity:0.1; fill:none" points="232.826,989.739 2352.76,989.739 "/>
<polyline clip-path="url(#clip662)" style="stroke:#000000; stroke-linecap:round; stroke-linejoin:round; stroke-width:2; stroke-opacity:0.1; fill:none" points="232.826,688.432 2352.76,688.432 "/>
<polyline clip-path="url(#clip662)" style="stroke:#000000; stroke-linecap:round; stroke-linejoin:round; stroke-width:2; stroke-opacity:0.1; fill:none" points="232.826,387.126 2352.76,387.126 "/>
<polyline clip-path="url(#clip662)" style="stroke:#000000; stroke-linecap:round; stroke-linejoin:round; stroke-width:2; stroke-opacity:0.1; fill:none" points="232.826,85.8189 2352.76,85.8189 "/>
<polyline clip-path="url(#clip660)" style="stroke:#000000; stroke-linecap:round; stroke-linejoin:round; stroke-width:4; stroke-opacity:1; fill:none" points="232.826,1410.22 2352.76,1410.22 "/>
<polyline clip-path="url(#clip660)" style="stroke:#000000; stroke-linecap:round; stroke-linejoin:round; stroke-width:4; stroke-opacity:1; fill:none" points="447.514,1410.22 447.514,1391.32 "/>
<polyline clip-path="url(#clip660)" style="stroke:#000000; stroke-linecap:round; stroke-linejoin:round; stroke-width:4; stroke-opacity:1; fill:none" points="958.742,1410.22 958.742,1391.32 "/>
<polyline clip-path="url(#clip660)" style="stroke:#000000; stroke-linecap:round; stroke-linejoin:round; stroke-width:4; stroke-opacity:1; fill:none" points="1469.97,1410.22 1469.97,1391.32 "/>
<polyline clip-path="url(#clip660)" style="stroke:#000000; stroke-linecap:round; stroke-linejoin:round; stroke-width:4; stroke-opacity:1; fill:none" points="1981.2,1410.22 1981.2,1391.32 "/>
<path clip-path="url(#clip660)" d="M417.456 1455.79 L447.132 1455.79 L447.132 1459.73 L417.456 1459.73 L417.456 1455.79 Z" fill="#000000" fill-rule="nonzero" fill-opacity="1" /><path clip-path="url(#clip660)" d="M461.252 1468.68 L477.572 1468.68 L477.572 1472.62 L455.627 1472.62 L455.627 1468.68 Q458.289 1465.93 462.873 1461.3 Q467.479 1456.65 468.66 1455.31 Q470.905 1452.78 471.785 1451.05 Q472.688 1449.29 472.688 1447.6 Q472.688 1444.84 470.743 1443.11 Q468.822 1441.37 465.72 1441.37 Q463.521 1441.37 461.067 1442.13 Q458.637 1442.9 455.859 1444.45 L455.859 1439.73 Q458.683 1438.59 461.137 1438.01 Q463.59 1437.43 465.627 1437.43 Q470.998 1437.43 474.192 1440.12 Q477.387 1442.81 477.387 1447.3 Q477.387 1449.43 476.576 1451.35 Q475.789 1453.24 473.683 1455.84 Q473.104 1456.51 470.002 1459.73 Q466.901 1462.92 461.252 1468.68 Z" fill="#000000" fill-rule="nonzero" fill-opacity="1" /><path clip-path="url(#clip660)" d="M928.499 1455.79 L958.174 1455.79 L958.174 1459.73 L928.499 1459.73 L928.499 1455.79 Z" fill="#000000" fill-rule="nonzero" fill-opacity="1" /><path clip-path="url(#clip660)" d="M969.077 1468.68 L976.716 1468.68 L976.716 1442.32 L968.406 1443.99 L968.406 1439.73 L976.67 1438.06 L981.346 1438.06 L981.346 1468.68 L988.984 1468.68 L988.984 1472.62 L969.077 1472.62 L969.077 1468.68 Z" fill="#000000" fill-rule="nonzero" fill-opacity="1" /><path clip-path="url(#clip660)" d="M1469.97 1441.14 Q1466.36 1441.14 1464.53 1444.7 Q1462.72 1448.24 1462.72 1455.37 Q1462.72 1462.48 1464.53 1466.05 Q1466.36 1469.59 1469.97 1469.59 Q1473.6 1469.59 1475.41 1466.05 Q1477.24 1462.48 1477.24 1455.37 Q1477.24 1448.24 1475.41 1444.7 Q1473.6 1441.14 1469.97 1441.14 M1469.97 1437.43 Q1475.78 1437.43 1478.83 1442.04 Q1481.91 1446.62 1481.91 1455.37 Q1481.91 1464.1 1478.83 1468.71 Q1475.78 1473.29 1469.97 1473.29 Q1464.16 1473.29 1461.08 1468.71 Q1458.02 1464.1 1458.02 1455.37 Q1458.02 1446.62 1461.08 1442.04 Q1464.16 1437.43 1469.97 1437.43 Z" fill="#000000" fill-rule="nonzero" fill-opacity="1" /><path clip-path="url(#clip660)" d="M1971.58 1468.68 L1979.22 1468.68 L1979.22 1442.32 L1970.91 1443.99 L1970.91 1439.73 L1979.17 1438.06 L1983.85 1438.06 L1983.85 1468.68 L1991.49 1468.68 L1991.49 1472.62 L1971.58 1472.62 L1971.58 1468.68 Z" fill="#000000" fill-rule="nonzero" fill-opacity="1" /><path clip-path="url(#clip660)" d="M1215.25 1562.28 L1215.25 1559.7 Q1219.72 1559.7 1220.75 1559.16 Q1221.77 1558.59 1221.77 1555.88 L1221.77 1512.23 Q1221.77 1509.11 1220.66 1508.34 Q1219.6 1507.56 1215.25 1507.56 L1215.25 1504.93 L1227.3 1504.03 L1227.3 1555.88 Q1227.3 1558.59 1228.37 1559.16 Q1229.44 1559.7 1233.86 1559.7 L1233.86 1562.28 Q1232.84 1562.28 1230.71 1562.2 Q1228.58 1562.11 1227.02 1562.07 Q1225.46 1562.03 1224.56 1562.03 Q1223.57 1562.03 1215.25 1562.28 Z" fill="#000000" fill-rule="nonzero" fill-opacity="1" /><path clip-path="url(#clip660)" d="M1238.94 1562.28 L1238.94 1559.7 Q1243.41 1559.7 1244.44 1559.16 Q1245.46 1558.59 1245.46 1555.88 L1245.46 1533.38 Q1245.46 1530.26 1244.35 1529.49 Q1243.29 1528.71 1238.94 1528.71 L1238.94 1526.08 L1250.75 1525.18 L1250.75 1533.99 Q1254.68 1525.18 1263.17 1525.18 Q1269.48 1525.18 1271.98 1528.3 Q1273.83 1530.39 1274.19 1532.72 Q1274.6 1535.06 1274.6 1541.13 L1274.6 1557.15 Q1274.69 1558.92 1276.04 1559.33 Q1277.39 1559.7 1281.16 1559.7 L1281.16 1562.28 Q1272.6 1562.03 1271.74 1562.03 Q1271.08 1562.03 1262.27 1562.28 L1262.27 1559.7 Q1266.73 1559.7 1267.76 1559.16 Q1268.82 1558.59 1268.82 1555.88 L1268.82 1536.33 Q1268.82 1532.07 1267.51 1529.57 Q1266.2 1527.03 1262.59 1527.03 Q1258.25 1527.03 1254.77 1530.67 Q1251.28 1534.32 1251.28 1540.47 L1251.28 1555.88 Q1251.28 1558.59 1252.31 1559.16 Q1253.37 1559.7 1257.8 1559.7 L1257.8 1562.28 Q1249.23 1562.03 1248.41 1562.03 Q1247.76 1562.03 1238.94 1562.28 Z" fill="#000000" fill-rule="nonzero" fill-opacity="1" /><path clip-path="url(#clip660)" d="M1368.01 1515.84 Q1368.01 1514.48 1367.64 1513.38 Q1367.31 1512.23 1366.78 1511.45 Q1366.29 1510.63 1365.35 1510.02 Q1364.4 1509.36 1363.62 1508.95 Q1362.84 1508.54 1361.53 1508.29 Q1360.22 1508.01 1359.36 1507.88 Q1358.5 1507.72 1357.02 1507.64 Q1355.55 1507.56 1354.81 1507.56 Q1354.11 1507.56 1352.72 1507.56 Q1348.33 1507.56 1347.6 1507.64 Q1346.49 1507.8 1346.08 1508.46 Q1345.67 1509.07 1345.26 1510.75 L1339.81 1532.64 L1349.2 1532.64 Q1354.32 1532.64 1357.84 1531.21 Q1361.37 1529.77 1363.38 1527.76 Q1365.59 1525.55 1366.78 1521.99 Q1368.01 1518.42 1368.01 1515.84 M1377.15 1554.49 Q1377.15 1554.94 1376.78 1555.97 Q1376.45 1556.99 1375.63 1558.42 Q1374.81 1559.82 1373.71 1561.09 Q1372.6 1562.36 1370.84 1563.22 Q1369.08 1564.12 1367.07 1564.12 Q1366.57 1564.12 1366.08 1564.08 Q1365.59 1564.08 1364.36 1563.88 Q1363.17 1563.71 1362.19 1563.38 Q1361.21 1563.1 1359.98 1562.4 Q1358.75 1561.74 1357.89 1560.84 Q1357.07 1559.9 1356.49 1558.42 Q1355.92 1556.91 1355.92 1555.06 Q1355.92 1553.42 1357.27 1547.93 Q1358.46 1543.26 1358.46 1542.11 Q1358.46 1540.84 1358.05 1539.65 Q1357.68 1538.46 1356.74 1537.23 Q1355.84 1536 1353.91 1535.27 Q1351.98 1534.49 1349.28 1534.49 L1339.32 1534.49 L1333.74 1556.74 Q1333.74 1556.78 1333.62 1557.36 Q1333.5 1557.89 1333.5 1558.18 Q1333.5 1558.71 1333.82 1559.04 Q1334.19 1559.37 1335.1 1559.53 Q1336 1559.65 1336.69 1559.7 Q1337.43 1559.7 1338.95 1559.7 Q1340.83 1559.7 1341.16 1560.02 Q1341.33 1560.23 1341.33 1560.6 Q1341.33 1561.17 1341.16 1561.58 Q1341.04 1561.95 1340.71 1562.07 Q1340.42 1562.2 1340.22 1562.24 Q1340.01 1562.28 1339.64 1562.28 L1328.99 1562.03 L1318.41 1562.28 Q1317.22 1562.28 1317.22 1561.33 Q1317.22 1560.51 1317.51 1560.19 Q1317.8 1559.82 1318.17 1559.78 Q1318.54 1559.7 1319.48 1559.7 Q1321.53 1559.7 1322.76 1559.57 Q1323.99 1559.45 1324.77 1559.29 Q1325.59 1559.08 1326 1558.51 Q1326.45 1557.93 1326.65 1557.44 Q1326.86 1556.91 1327.14 1555.72 L1338.37 1510.63 Q1338.7 1509.28 1338.7 1509.07 Q1338.7 1508.29 1338.21 1508.09 Q1337.76 1507.84 1336.45 1507.72 L1333.25 1507.56 Q1332.27 1507.56 1331.86 1507.52 Q1331.49 1507.47 1331.2 1507.27 Q1330.91 1507.06 1330.91 1506.61 Q1330.91 1505.47 1331.41 1505.22 Q1331.9 1504.93 1333.33 1504.93 L1357.27 1504.93 Q1365.43 1504.93 1370.59 1508.5 Q1375.8 1512.07 1375.8 1517.52 Q1375.8 1519.98 1374.69 1522.27 Q1373.58 1524.57 1371.74 1526.37 Q1369.94 1528.17 1367.52 1529.69 Q1365.1 1531.17 1362.52 1532.19 Q1359.98 1533.18 1357.35 1533.75 Q1358.5 1534.16 1359.57 1534.77 Q1360.67 1535.39 1362.07 1536.54 Q1363.5 1537.68 1364.36 1539.53 Q1365.22 1541.37 1365.22 1543.63 Q1365.22 1545.23 1364.89 1547.6 Q1364.07 1554.37 1364.07 1557.15 Q1364.07 1559.82 1364.77 1561.05 Q1365.47 1562.28 1367.44 1562.28 Q1369.36 1562.28 1371.49 1560.56 Q1373.67 1558.79 1375.06 1554.65 Q1375.39 1553.46 1376.17 1553.46 Q1376.21 1553.46 1376.25 1553.46 Q1376.33 1553.46 1376.49 1553.55 Q1376.66 1553.59 1376.78 1553.71 Q1376.95 1553.79 1377.03 1554 Q1377.15 1554.2 1377.15 1554.49 Z" fill="#000000" fill-rule="nonzero" fill-opacity="1" /><polyline clip-path="url(#clip660)" style="stroke:#000000; stroke-linecap:round; stroke-linejoin:round; stroke-width:4; stroke-opacity:1; fill:none" points="232.826,1410.22 232.826,47.2441 "/>
<polyline clip-path="url(#clip660)" style="stroke:#000000; stroke-linecap:round; stroke-linejoin:round; stroke-width:4; stroke-opacity:1; fill:none" points="232.826,1291.05 251.724,1291.05 "/>
<polyline clip-path="url(#clip660)" style="stroke:#000000; stroke-linecap:round; stroke-linejoin:round; stroke-width:4; stroke-opacity:1; fill:none" points="232.826,989.739 251.724,989.739 "/>
<polyline clip-path="url(#clip660)" style="stroke:#000000; stroke-linecap:round; stroke-linejoin:round; stroke-width:4; stroke-opacity:1; fill:none" points="232.826,688.432 251.724,688.432 "/>
<polyline clip-path="url(#clip660)" style="stroke:#000000; stroke-linecap:round; stroke-linejoin:round; stroke-width:4; stroke-opacity:1; fill:none" points="232.826,387.126 251.724,387.126 "/>
<polyline clip-path="url(#clip660)" style="stroke:#000000; stroke-linecap:round; stroke-linejoin:round; stroke-width:4; stroke-opacity:1; fill:none" points="232.826,85.8189 251.724,85.8189 "/>
<path clip-path="url(#clip660)" d="M141.248 1276.84 Q137.637 1276.84 135.808 1280.41 Q134.003 1283.95 134.003 1291.08 Q134.003 1298.19 135.808 1301.75 Q137.637 1305.29 141.248 1305.29 Q144.882 1305.29 146.688 1301.75 Q148.516 1298.19 148.516 1291.08 Q148.516 1283.95 146.688 1280.41 Q144.882 1276.84 141.248 1276.84 M141.248 1273.14 Q147.058 1273.14 150.114 1277.75 Q153.192 1282.33 153.192 1291.08 Q153.192 1299.81 150.114 1304.41 Q147.058 1309 141.248 1309 Q135.438 1309 132.359 1304.41 Q129.303 1299.81 129.303 1291.08 Q129.303 1282.33 132.359 1277.75 Q135.438 1273.14 141.248 1273.14 Z" fill="#000000" fill-rule="nonzero" fill-opacity="1" /><path clip-path="url(#clip660)" d="M161.41 1302.45 L166.294 1302.45 L166.294 1308.33 L161.41 1308.33 L161.41 1302.45 Z" fill="#000000" fill-rule="nonzero" fill-opacity="1" /><path clip-path="url(#clip660)" d="M180.507 1304.39 L196.826 1304.39 L196.826 1308.33 L174.882 1308.33 L174.882 1304.39 Q177.544 1301.64 182.127 1297.01 Q186.734 1292.35 187.914 1291.01 Q190.16 1288.49 191.039 1286.75 Q191.942 1284.99 191.942 1283.3 Q191.942 1280.55 189.998 1278.81 Q188.076 1277.08 184.974 1277.08 Q182.775 1277.08 180.322 1277.84 Q177.891 1278.6 175.113 1280.15 L175.113 1275.43 Q177.937 1274.3 180.391 1273.72 Q182.845 1273.14 184.882 1273.14 Q190.252 1273.14 193.447 1275.83 Q196.641 1278.51 196.641 1283 Q196.641 1285.13 195.831 1287.05 Q195.044 1288.95 192.937 1291.54 Q192.359 1292.21 189.257 1295.43 Q186.155 1298.63 180.507 1304.39 Z" fill="#000000" fill-rule="nonzero" fill-opacity="1" /><path clip-path="url(#clip660)" d="M139.165 975.538 Q135.553 975.538 133.725 979.102 Q131.919 982.644 131.919 989.774 Q131.919 996.88 133.725 1000.44 Q135.553 1003.99 139.165 1003.99 Q142.799 1003.99 144.604 1000.44 Q146.433 996.88 146.433 989.774 Q146.433 982.644 144.604 979.102 Q142.799 975.538 139.165 975.538 M139.165 971.834 Q144.975 971.834 148.03 976.44 Q151.109 981.024 151.109 989.774 Q151.109 998.5 148.03 1003.11 Q144.975 1007.69 139.165 1007.69 Q133.354 1007.69 130.276 1003.11 Q127.22 998.5 127.22 989.774 Q127.22 981.024 130.276 976.44 Q133.354 971.834 139.165 971.834 Z" fill="#000000" fill-rule="nonzero" fill-opacity="1" /><path clip-path="url(#clip660)" d="M159.326 1001.14 L164.211 1001.14 L164.211 1007.02 L159.326 1007.02 L159.326 1001.14 Z" fill="#000000" fill-rule="nonzero" fill-opacity="1" /><path clip-path="url(#clip660)" d="M187.243 976.533 L175.437 994.982 L187.243 994.982 L187.243 976.533 M186.016 972.459 L191.896 972.459 L191.896 994.982 L196.826 994.982 L196.826 998.871 L191.896 998.871 L191.896 1007.02 L187.243 1007.02 L187.243 998.871 L171.641 998.871 L171.641 994.357 L186.016 972.459 Z" fill="#000000" fill-rule="nonzero" fill-opacity="1" /><path clip-path="url(#clip660)" d="M139.489 674.231 Q135.878 674.231 134.049 677.796 Q132.243 681.337 132.243 688.467 Q132.243 695.573 134.049 699.138 Q135.878 702.68 139.489 702.68 Q143.123 702.68 144.928 699.138 Q146.757 695.573 146.757 688.467 Q146.757 681.337 144.928 677.796 Q143.123 674.231 139.489 674.231 M139.489 670.527 Q145.299 670.527 148.354 675.134 Q151.433 679.717 151.433 688.467 Q151.433 697.194 148.354 701.8 Q145.299 706.384 139.489 706.384 Q133.678 706.384 130.6 701.8 Q127.544 697.194 127.544 688.467 Q127.544 679.717 130.6 675.134 Q133.678 670.527 139.489 670.527 Z" fill="#000000" fill-rule="nonzero" fill-opacity="1" /><path clip-path="url(#clip660)" d="M159.651 699.833 L164.535 699.833 L164.535 705.712 L159.651 705.712 L159.651 699.833 Z" fill="#000000" fill-rule="nonzero" fill-opacity="1" /><path clip-path="url(#clip660)" d="M185.299 686.569 Q182.15 686.569 180.299 688.722 Q178.47 690.874 178.47 694.624 Q178.47 698.351 180.299 700.527 Q182.15 702.68 185.299 702.68 Q188.447 702.68 190.275 700.527 Q192.127 698.351 192.127 694.624 Q192.127 690.874 190.275 688.722 Q188.447 686.569 185.299 686.569 M194.581 671.916 L194.581 676.175 Q192.822 675.342 191.016 674.902 Q189.234 674.462 187.474 674.462 Q182.845 674.462 180.391 677.587 Q177.961 680.712 177.613 687.032 Q178.979 685.018 181.039 683.953 Q183.099 682.865 185.576 682.865 Q190.785 682.865 193.794 686.036 Q196.826 689.185 196.826 694.624 Q196.826 699.948 193.678 703.166 Q190.53 706.384 185.299 706.384 Q179.303 706.384 176.132 701.8 Q172.961 697.194 172.961 688.467 Q172.961 680.273 176.85 675.411 Q180.738 670.527 187.289 670.527 Q189.049 670.527 190.831 670.874 Q192.636 671.222 194.581 671.916 Z" fill="#000000" fill-rule="nonzero" fill-opacity="1" /><path clip-path="url(#clip660)" d="M139.743 372.924 Q136.132 372.924 134.303 376.489 Q132.498 380.031 132.498 387.16 Q132.498 394.267 134.303 397.832 Q136.132 401.373 139.743 401.373 Q143.377 401.373 145.183 397.832 Q147.012 394.267 147.012 387.16 Q147.012 380.031 145.183 376.489 Q143.377 372.924 139.743 372.924 M139.743 369.221 Q145.553 369.221 148.609 373.827 Q151.688 378.41 151.688 387.16 Q151.688 395.887 148.609 400.494 Q145.553 405.077 139.743 405.077 Q133.933 405.077 130.854 400.494 Q127.799 395.887 127.799 387.16 Q127.799 378.41 130.854 373.827 Q133.933 369.221 139.743 369.221 Z" fill="#000000" fill-rule="nonzero" fill-opacity="1" /><path clip-path="url(#clip660)" d="M159.905 398.526 L164.789 398.526 L164.789 404.406 L159.905 404.406 L159.905 398.526 Z" fill="#000000" fill-rule="nonzero" fill-opacity="1" /><path clip-path="url(#clip660)" d="M184.974 387.994 Q181.641 387.994 179.72 389.776 Q177.822 391.558 177.822 394.683 Q177.822 397.808 179.72 399.591 Q181.641 401.373 184.974 401.373 Q188.308 401.373 190.229 399.591 Q192.15 397.785 192.15 394.683 Q192.15 391.558 190.229 389.776 Q188.331 387.994 184.974 387.994 M180.299 386.003 Q177.289 385.262 175.6 383.202 Q173.933 381.142 173.933 378.179 Q173.933 374.035 176.873 371.628 Q179.836 369.221 184.974 369.221 Q190.136 369.221 193.076 371.628 Q196.016 374.035 196.016 378.179 Q196.016 381.142 194.326 383.202 Q192.66 385.262 189.674 386.003 Q193.053 386.79 194.928 389.082 Q196.826 391.373 196.826 394.683 Q196.826 399.707 193.748 402.392 Q190.692 405.077 184.974 405.077 Q179.257 405.077 176.178 402.392 Q173.123 399.707 173.123 394.683 Q173.123 391.373 175.021 389.082 Q176.919 386.79 180.299 386.003 M178.586 378.619 Q178.586 381.304 180.252 382.808 Q181.942 384.313 184.974 384.313 Q187.984 384.313 189.674 382.808 Q191.386 381.304 191.386 378.619 Q191.386 375.933 189.674 374.429 Q187.984 372.924 184.974 372.924 Q181.942 372.924 180.252 374.429 Q178.586 375.933 178.586 378.619 Z" fill="#000000" fill-rule="nonzero" fill-opacity="1" /><path clip-path="url(#clip660)" d="M130.461 99.1637 L138.1 99.1637 L138.1 72.7981 L129.79 74.4648 L129.79 70.2055 L138.053 68.5389 L142.729 68.5389 L142.729 99.1637 L150.368 99.1637 L150.368 103.099 L130.461 103.099 L130.461 99.1637 Z" fill="#000000" fill-rule="nonzero" fill-opacity="1" /><path clip-path="url(#clip660)" d="M159.813 97.2193 L164.697 97.2193 L164.697 103.099 L159.813 103.099 L159.813 97.2193 Z" fill="#000000" fill-rule="nonzero" fill-opacity="1" /><path clip-path="url(#clip660)" d="M184.882 71.6176 Q181.271 71.6176 179.442 75.1824 Q177.637 78.724 177.637 85.8536 Q177.637 92.96 179.442 96.5248 Q181.271 100.066 184.882 100.066 Q188.516 100.066 190.322 96.5248 Q192.15 92.96 192.15 85.8536 Q192.15 78.724 190.322 75.1824 Q188.516 71.6176 184.882 71.6176 M184.882 67.9139 Q190.692 67.9139 193.748 72.5203 Q196.826 77.1036 196.826 85.8536 Q196.826 94.5804 193.748 99.1869 Q190.692 103.77 184.882 103.77 Q179.072 103.77 175.993 99.1869 Q172.938 94.5804 172.938 85.8536 Q172.938 77.1036 175.993 72.5203 Q179.072 67.9139 184.882 67.9139 Z" fill="#000000" fill-rule="nonzero" fill-opacity="1" /><path clip-path="url(#clip660)" d="M76.0563 1230.15 L100.119 1230.15 L100.119 1237.65 L37.4917 1237.65 L37.4917 1230.15 L44.3783 1230.15 Q40.3274 1227.8 38.3829 1224.24 Q36.398 1220.63 36.398 1215.65 Q36.398 1207.39 42.9604 1202.24 Q49.5229 1197.06 60.2173 1197.06 Q70.9117 1197.06 77.4741 1202.24 Q84.0366 1207.39 84.0366 1215.65 Q84.0366 1220.63 82.0922 1224.24 Q80.1072 1227.8 76.0563 1230.15 M60.2173 1204.79 Q51.994 1204.79 47.3354 1208.2 Q42.6364 1211.56 42.6364 1217.47 Q42.6364 1223.39 47.3354 1226.79 Q51.994 1230.15 60.2173 1230.15 Q68.4406 1230.15 73.1397 1226.79 Q77.7982 1223.39 77.7982 1217.47 Q77.7982 1211.56 73.1397 1208.2 Q68.4406 1204.79 60.2173 1204.79 Z" fill="#000000" fill-rule="nonzero" fill-opacity="1" /><path clip-path="url(#clip660)" d="M44.4593 1158.41 Q43.7301 1159.67 43.406 1161.17 Q43.0415 1162.62 43.0415 1164.41 Q43.0415 1170.73 47.1734 1174.13 Q51.2648 1177.49 58.9615 1177.49 L82.8618 1177.49 L82.8618 1184.98 L37.4917 1184.98 L37.4917 1177.49 L44.5403 1177.49 Q40.4084 1175.14 38.4234 1171.37 Q36.398 1167.61 36.398 1162.22 Q36.398 1161.45 36.5195 1160.52 Q36.6005 1159.59 36.8031 1158.45 L44.4593 1158.41 Z" fill="#000000" fill-rule="nonzero" fill-opacity="1" /><path clip-path="url(#clip660)" d="M42.7174 1134.83 Q42.7174 1140.83 47.4164 1144.31 Q52.075 1147.8 60.2173 1147.8 Q68.3596 1147.8 73.0587 1144.35 Q77.7172 1140.87 77.7172 1134.83 Q77.7172 1128.88 73.0181 1125.4 Q68.3191 1121.91 60.2173 1121.91 Q52.156 1121.91 47.4569 1125.4 Q42.7174 1128.88 42.7174 1134.83 M36.398 1134.83 Q36.398 1125.11 42.7174 1119.56 Q49.0368 1114.01 60.2173 1114.01 Q71.3573 1114.01 77.7172 1119.56 Q84.0366 1125.11 84.0366 1134.83 Q84.0366 1144.6 77.7172 1150.15 Q71.3573 1155.66 60.2173 1155.66 Q49.0368 1155.66 42.7174 1150.15 Q36.398 1144.6 36.398 1134.83 Z" fill="#000000" fill-rule="nonzero" fill-opacity="1" /><path clip-path="url(#clip660)" d="M19.8298 1078.69 L26.0277 1078.69 L26.0277 1085.82 Q26.0277 1089.83 27.648 1091.41 Q29.2684 1092.95 33.4813 1092.95 L37.4917 1092.95 L37.4917 1080.67 L43.2845 1080.67 L43.2845 1092.95 L82.8618 1092.95 L82.8618 1100.44 L43.2845 1100.44 L43.2845 1107.57 L37.4917 1107.57 L37.4917 1100.44 L34.332 1100.44 Q26.7568 1100.44 23.3136 1096.92 Q19.8298 1093.39 19.8298 1085.74 L19.8298 1078.69 Z" fill="#000000" fill-rule="nonzero" fill-opacity="1" /><path clip-path="url(#clip660)" d="M37.4917 1072.45 L37.4917 1065 L82.8618 1065 L82.8618 1072.45 L37.4917 1072.45 M19.8298 1072.45 L19.8298 1065 L29.2684 1065 L29.2684 1072.45 L19.8298 1072.45 Z" fill="#000000" fill-rule="nonzero" fill-opacity="1" /><path clip-path="url(#clip660)" d="M19.8298 1049.4 L19.8298 1041.95 L82.8618 1041.95 L82.8618 1049.4 L19.8298 1049.4 Z" fill="#000000" fill-rule="nonzero" fill-opacity="1" /><path clip-path="url(#clip660)" d="M58.3134 987.543 L61.9592 987.543 L61.9592 1021.81 Q69.6559 1021.33 73.7068 1017.2 Q77.7172 1013.02 77.7172 1005.61 Q77.7172 1001.32 76.664 997.306 Q75.6107 993.255 73.5043 989.285 L80.5528 989.285 Q82.2542 993.296 83.1454 997.509 Q84.0366 1001.72 84.0366 1006.06 Q84.0366 1016.91 77.7172 1023.27 Q71.3978 1029.59 60.6224 1029.59 Q49.4824 1029.59 42.9604 1023.6 Q36.398 1017.56 36.398 1007.35 Q36.398 998.197 42.3123 992.89 Q48.1861 987.543 58.3134 987.543 M56.1259 994.997 Q50.009 995.078 46.3632 998.44 Q42.7174 1001.76 42.7174 1007.27 Q42.7174 1013.51 46.2417 1017.28 Q49.766 1021 56.1664 1021.57 L56.1259 994.997 Z" fill="#000000" fill-rule="nonzero" fill-opacity="1" /><path clip-path="url(#clip660)" d="M19.8298 948.938 L19.8298 941.485 L82.8618 941.485 L82.8618 948.938 L19.8298 948.938 Z" fill="#000000" fill-rule="nonzero" fill-opacity="1" /><path clip-path="url(#clip660)" d="M37.4917 925.889 L37.4917 918.435 L82.8618 918.435 L82.8618 925.889 L37.4917 925.889 M19.8298 925.889 L19.8298 918.435 L29.2684 918.435 L29.2684 925.889 L19.8298 925.889 Z" fill="#000000" fill-rule="nonzero" fill-opacity="1" /><path clip-path="url(#clip660)" d="M19.8298 903.122 L19.8298 895.628 L57.0576 895.628 L37.4917 873.389 L37.4917 863.869 L58.7185 887.932 L82.8618 862.856 L82.8618 872.579 L60.7034 895.628 L82.8618 895.628 L82.8618 903.122 L19.8298 903.122 Z" fill="#000000" fill-rule="nonzero" fill-opacity="1" /><path clip-path="url(#clip660)" d="M58.3134 818.945 L61.9592 818.945 L61.9592 853.215 Q69.6559 852.729 73.7068 848.597 Q77.7172 844.425 77.7172 837.012 Q77.7172 832.718 76.664 828.707 Q75.6107 824.656 73.5043 820.687 L80.5528 820.687 Q82.2542 824.697 83.1454 828.91 Q84.0366 833.123 84.0366 837.457 Q84.0366 848.314 77.7172 854.674 Q71.3978 860.993 60.6224 860.993 Q49.4824 860.993 42.9604 854.998 Q36.398 848.962 36.398 838.754 Q36.398 829.599 42.3123 824.292 Q48.1861 818.945 58.3134 818.945 M56.1259 826.398 Q50.009 826.479 46.3632 829.842 Q42.7174 833.163 42.7174 838.673 Q42.7174 844.911 46.2417 848.678 Q49.766 852.405 56.1664 852.972 L56.1259 826.398 Z" fill="#000000" fill-rule="nonzero" fill-opacity="1" /><path clip-path="url(#clip660)" d="M19.8298 806.711 L19.8298 799.257 L82.8618 799.257 L82.8618 806.711 L19.8298 806.711 Z" fill="#000000" fill-rule="nonzero" fill-opacity="1" /><path clip-path="url(#clip660)" d="M37.4917 783.661 L37.4917 776.208 L82.8618 776.208 L82.8618 783.661 L37.4917 783.661 M19.8298 783.661 L19.8298 776.208 L29.2684 776.208 L29.2684 783.661 L19.8298 783.661 Z" fill="#000000" fill-rule="nonzero" fill-opacity="1" /><path clip-path="url(#clip660)" d="M55.4777 722.898 L82.8618 722.898 L82.8618 730.351 L55.7208 730.351 Q49.2798 730.351 46.0796 732.863 Q42.8794 735.375 42.8794 740.398 Q42.8794 746.433 46.7278 749.917 Q50.5761 753.401 57.2196 753.401 L82.8618 753.401 L82.8618 760.895 L19.8298 760.895 L19.8298 753.401 L44.5403 753.401 Q40.4489 750.727 38.4234 747.122 Q36.398 743.476 36.398 738.737 Q36.398 730.919 41.2591 726.908 Q46.0796 722.898 55.4777 722.898 Z" fill="#000000" fill-rule="nonzero" fill-opacity="1" /><path clip-path="url(#clip660)" d="M42.7174 690.45 Q42.7174 696.445 47.4164 699.929 Q52.075 703.413 60.2173 703.413 Q68.3596 703.413 73.0587 699.97 Q77.7172 696.486 77.7172 690.45 Q77.7172 684.495 73.0181 681.011 Q68.3191 677.528 60.2173 677.528 Q52.156 677.528 47.4569 681.011 Q42.7174 684.495 42.7174 690.45 M36.398 690.45 Q36.398 680.728 42.7174 675.178 Q49.0368 669.628 60.2173 669.628 Q71.3573 669.628 77.7172 675.178 Q84.0366 680.728 84.0366 690.45 Q84.0366 700.213 77.7172 705.762 Q71.3573 711.272 60.2173 711.272 Q49.0368 711.272 42.7174 705.762 Q36.398 700.213 36.398 690.45 Z" fill="#000000" fill-rule="nonzero" fill-opacity="1" /><path clip-path="url(#clip660)" d="M42.7174 639.692 Q42.7174 645.687 47.4164 649.171 Q52.075 652.655 60.2173 652.655 Q68.3596 652.655 73.0587 649.212 Q77.7172 645.728 77.7172 639.692 Q77.7172 633.737 73.0181 630.254 Q68.3191 626.77 60.2173 626.77 Q52.156 626.77 47.4569 630.254 Q42.7174 633.737 42.7174 639.692 M36.398 639.692 Q36.398 629.97 42.7174 624.42 Q49.0368 618.871 60.2173 618.871 Q71.3573 618.871 77.7172 624.42 Q84.0366 629.97 84.0366 639.692 Q84.0366 649.455 77.7172 655.005 Q71.3573 660.514 60.2173 660.514 Q49.0368 660.514 42.7174 655.005 Q36.398 649.455 36.398 639.692 Z" fill="#000000" fill-rule="nonzero" fill-opacity="1" /><path clip-path="url(#clip660)" d="M44.3783 576.66 L19.8298 576.66 L19.8298 569.206 L82.8618 569.206 L82.8618 576.66 L76.0563 576.66 Q80.1072 579.01 82.0922 582.615 Q84.0366 586.18 84.0366 591.203 Q84.0366 599.426 77.4741 604.611 Q70.9117 609.756 60.2173 609.756 Q49.5229 609.756 42.9604 604.611 Q36.398 599.426 36.398 591.203 Q36.398 586.18 38.3829 582.615 Q40.3274 579.01 44.3783 576.66 M60.2173 602.059 Q68.4406 602.059 73.1397 598.697 Q77.7982 595.294 77.7982 589.38 Q77.7982 583.466 73.1397 580.063 Q68.4406 576.66 60.2173 576.66 Q51.994 576.66 47.3354 580.063 Q42.6364 583.466 42.6364 589.38 Q42.6364 595.294 47.3354 598.697 Q51.994 602.059 60.2173 602.059 Z" fill="#000000" fill-rule="nonzero" fill-opacity="1" /><path clip-path="url(#clip660)" d="M19.8298 504.513 L26.0277 504.513 L26.0277 511.643 Q26.0277 515.653 27.648 517.233 Q29.2684 518.773 33.4813 518.773 L37.4917 518.773 L37.4917 506.498 L43.2845 506.498 L43.2845 518.773 L82.8618 518.773 L82.8618 526.267 L43.2845 526.267 L43.2845 533.396 L37.4917 533.396 L37.4917 526.267 L34.332 526.267 Q26.7568 526.267 23.3136 522.743 Q19.8298 519.218 19.8298 511.562 L19.8298 504.513 Z" fill="#000000" fill-rule="nonzero" fill-opacity="1" /><path clip-path="url(#clip660)" d="M42.7174 480.694 Q42.7174 486.69 47.4164 490.173 Q52.075 493.657 60.2173 493.657 Q68.3596 493.657 73.0587 490.214 Q77.7172 486.73 77.7172 480.694 Q77.7172 474.739 73.0181 471.256 Q68.3191 467.772 60.2173 467.772 Q52.156 467.772 47.4569 471.256 Q42.7174 474.739 42.7174 480.694 M36.398 480.694 Q36.398 470.972 42.7174 465.422 Q49.0368 459.873 60.2173 459.873 Q71.3573 459.873 77.7172 465.422 Q84.0366 470.972 84.0366 480.694 Q84.0366 490.457 77.7172 496.007 Q71.3573 501.516 60.2173 501.516 Q49.0368 501.516 42.7174 496.007 Q36.398 490.457 36.398 480.694 Z" fill="#000000" fill-rule="nonzero" fill-opacity="1" /><path clip-path="url(#clip660)" d="M44.4593 421.227 Q43.7301 422.483 43.406 423.982 Q43.0415 425.44 43.0415 427.222 Q43.0415 433.542 47.1734 436.944 Q51.2648 440.307 58.9615 440.307 L82.8618 440.307 L82.8618 447.801 L37.4917 447.801 L37.4917 440.307 L44.5403 440.307 Q40.4084 437.957 38.4234 434.19 Q36.398 430.422 36.398 425.035 Q36.398 424.265 36.5195 423.333 Q36.6005 422.402 36.8031 421.267 L44.4593 421.227 Z" fill="#000000" fill-rule="nonzero" fill-opacity="1" /><path clip-path="url(#clip660)" d="M82.8618 384.874 L80.2795 384.874 Q80.2795 380.406 79.7467 379.381 Q79.1728 378.357 76.4675 378.357 L32.8139 378.357 Q29.6988 378.357 28.92 379.463 Q28.1412 380.529 28.1412 384.874 L25.5178 384.874 L24.6161 372.823 L76.4675 372.823 Q79.1728 372.823 79.7467 371.757 Q80.2795 370.692 80.2795 366.265 L82.8618 366.265 Q82.8618 367.289 82.7799 369.421 Q82.6979 371.552 82.6569 373.11 Q82.6159 374.668 82.6159 375.569 Q82.6159 376.553 82.8618 384.874 Z" fill="#000000" fill-rule="nonzero" fill-opacity="1" /><path clip-path="url(#clip660)" d="M82.8618 361.184 L80.2795 361.184 Q80.2795 356.716 79.7467 355.691 Q79.1728 354.667 76.4675 354.667 L53.9644 354.667 Q50.8492 354.667 50.0704 355.773 Q49.2916 356.839 49.2916 361.184 L46.6683 361.184 L45.7665 349.379 L54.5792 349.379 Q45.7665 345.444 45.7665 336.959 Q45.7665 330.647 48.8817 328.147 Q50.9722 326.302 53.3086 325.933 Q55.645 325.523 61.7114 325.523 L77.7382 325.523 Q79.5007 325.441 79.9106 324.089 Q80.2795 322.736 80.2795 318.965 L82.8618 318.965 Q82.6159 327.532 82.6159 328.393 Q82.6159 329.048 82.8618 337.861 L80.2795 337.861 Q80.2795 333.393 79.7467 332.368 Q79.1728 331.303 76.4675 331.303 L56.9156 331.303 Q52.6527 331.303 50.1524 332.614 Q47.6111 333.926 47.6111 337.533 Q47.6111 341.878 51.2591 345.362 Q54.9072 348.846 61.0555 348.846 L76.4675 348.846 Q79.1728 348.846 79.7467 347.821 Q80.2795 346.756 80.2795 342.329 L82.8618 342.329 Q82.6159 350.896 82.6159 351.715 Q82.6159 352.371 82.8618 361.184 Z" fill="#000000" fill-rule="nonzero" fill-opacity="1" /><path clip-path="url(#clip660)" d="M36.421 232.118 Q35.0683 232.118 33.9616 232.487 Q32.8139 232.815 32.0351 233.348 Q31.2154 233.84 30.6005 234.783 Q29.9447 235.725 29.5348 236.504 Q29.1249 237.283 28.879 238.595 Q28.592 239.906 28.4691 240.767 Q28.3051 241.628 28.2231 243.103 Q28.1412 244.579 28.1412 245.317 Q28.1412 246.014 28.1412 247.407 Q28.1412 251.793 28.2231 252.531 Q28.3871 253.638 29.0429 254.048 Q29.6578 254.457 31.3383 254.867 L53.2266 260.319 L53.2266 250.932 Q53.2266 245.809 51.792 242.284 Q50.3573 238.759 48.3489 236.75 Q46.1355 234.537 42.5694 233.348 Q39.0033 232.118 36.421 232.118 M75.0739 222.978 Q75.5248 222.978 76.5495 223.347 Q77.5742 223.674 79.0089 224.494 Q80.4025 225.314 81.6732 226.421 Q82.9438 227.527 83.8046 229.29 Q84.7064 231.053 84.7064 233.061 Q84.7064 233.553 84.6654 234.045 Q84.6654 234.537 84.4604 235.766 Q84.2965 236.955 83.9686 237.939 Q83.6816 238.923 82.9848 240.152 Q82.329 241.382 81.4272 242.243 Q80.4845 243.062 79.0089 243.636 Q77.4922 244.21 75.6477 244.21 Q74.0082 244.21 68.5156 242.857 Q63.8428 241.669 62.6951 241.669 Q61.4245 241.669 60.2358 242.079 Q59.0471 242.448 57.8174 243.39 Q56.5877 244.292 55.8499 246.219 Q55.0711 248.145 55.0711 250.85 L55.0711 260.811 L77.3283 266.385 Q77.3693 266.385 77.9431 266.508 Q78.476 266.631 78.7629 266.631 Q79.2958 266.631 79.6237 266.303 Q79.9516 265.934 80.1156 265.033 Q80.2385 264.131 80.2795 263.434 Q80.2795 262.696 80.2795 261.18 Q80.2795 259.294 80.6074 258.966 Q80.8124 258.802 81.1813 258.802 Q81.7551 258.802 82.165 258.966 Q82.5339 259.089 82.6569 259.417 Q82.7799 259.704 82.8209 259.909 Q82.8618 260.114 82.8618 260.483 L82.6159 271.14 L82.8618 281.715 Q82.8618 282.904 81.9191 282.904 Q81.0993 282.904 80.7714 282.617 Q80.4025 282.33 80.3615 281.961 Q80.2795 281.592 80.2795 280.65 Q80.2795 278.6 80.1566 277.37 Q80.0336 276.141 79.8696 275.362 Q79.6647 274.542 79.0908 274.132 Q78.517 273.681 78.0251 273.476 Q77.4922 273.272 76.3036 272.985 L31.2154 261.754 Q29.8627 261.426 29.6578 261.426 Q28.879 261.426 28.674 261.917 Q28.4281 262.368 28.3051 263.68 L28.1412 266.877 Q28.1412 267.861 28.1002 268.271 Q28.0592 268.64 27.8542 268.927 Q27.6493 269.214 27.1984 269.214 Q26.0507 269.214 25.8048 268.722 Q25.5178 268.23 25.5178 266.795 L25.5178 242.857 Q25.5178 234.701 29.0839 229.536 Q32.65 224.33 38.1016 224.33 Q40.5609 224.33 42.8563 225.437 Q45.1517 226.544 46.9552 228.388 Q48.7588 230.192 50.2754 232.61 Q51.751 235.029 52.7757 237.611 Q53.7595 240.152 54.3333 242.776 Q54.7432 241.628 55.358 240.562 Q55.9729 239.455 57.1206 238.062 Q58.2683 236.627 60.1128 235.766 Q61.9573 234.906 64.2117 234.906 Q65.8103 234.906 68.1877 235.233 Q74.9509 236.053 77.7382 236.053 Q80.4025 236.053 81.6322 235.356 Q82.8618 234.66 82.8618 232.692 Q82.8618 230.766 81.1403 228.634 Q79.3778 226.462 75.2378 225.068 Q74.0492 224.74 74.0492 223.961 Q74.0492 223.92 74.0492 223.879 Q74.0492 223.797 74.1311 223.634 Q74.1721 223.47 74.2951 223.347 Q74.3771 223.183 74.582 223.101 Q74.787 222.978 75.0739 222.978 Z" fill="#000000" fill-rule="nonzero" fill-opacity="1" /><polyline clip-path="url(#clip662)" style="stroke:#000000; stroke-linecap:round; stroke-linejoin:round; stroke-width:8; stroke-opacity:1; fill:none" points="292.824,85.8189 296.832,85.8189 300.84,85.8189 304.848,85.8189 308.856,85.8189 312.864,85.8189 316.872,85.8189 320.879,85.8189 324.887,85.8189 328.895,85.8189 332.903,85.8189 336.911,85.8189 340.919,85.8189 344.927,85.8189 348.935,85.8189 352.943,85.8189 356.95,85.8189 360.958,85.8189 364.966,85.8189 368.974,85.8189 372.982,85.8189 376.99,85.8189 380.998,85.8189 385.006,85.8189 389.013,85.8189 393.021,85.8189 397.029,85.8189 401.037,85.8189 405.045,85.8189 409.053,85.8189 413.061,85.8189 417.069,85.8189 421.077,85.8189 425.084,85.8189 429.092,85.8189 433.1,85.8189 437.108,85.8189 441.116,85.8189 445.124,85.8189 449.132,85.8189 453.14,85.8189 457.147,85.8189 461.155,85.8189 465.163,85.8189 469.171,85.8189 473.179,85.8189 477.187,85.8189 481.195,85.8189 485.203,85.8189 489.211,85.8189 493.218,85.8189 497.226,85.8189 501.234,85.8189 505.242,85.8189 509.25,85.8189 513.258,85.8189 517.266,85.8189 521.274,85.8189 525.281,85.8189 529.289,85.8189 533.297,85.8189 537.305,85.8189 541.313,85.8189 545.321,85.8189 549.329,85.8189 553.337,85.8189 557.345,85.8189 561.352,85.8189 565.36,85.8189 569.368,85.8189 573.376,85.8189 577.384,85.8189 581.392,85.8189 585.4,85.8189 589.408,85.8189 593.416,85.8189 597.423,85.8189 601.431,85.8189 605.439,85.8189 609.447,85.8189 613.455,85.8189 617.463,85.8189 621.471,85.8189 625.479,85.8189 629.486,85.8189 633.494,85.8189 637.502,85.8189 641.51,85.8189 645.518,85.8189 649.526,85.8189 653.534,85.8189 657.542,85.8189 661.55,85.8189 665.557,85.8189 669.565,85.8189 673.573,85.8189 677.581,85.8189 681.589,85.8189 685.597,85.8189 689.605,85.8189 693.613,85.8189 697.62,85.8189 701.628,85.8189 705.636,85.8189 709.644,85.8189 713.652,85.8189 717.66,85.8189 721.668,85.8189 725.676,85.8189 729.684,85.8189 733.691,85.8189 737.699,85.8189 741.707,85.8189 745.715,85.8189 749.723,85.8189 753.731,85.8189 757.739,85.8189 761.747,85.8189 765.754,85.8189 769.762,85.8189 773.77,85.8189 777.778,85.8189 781.786,85.8189 785.794,85.8189 789.802,85.8189 793.81,85.8189 797.818,85.8189 801.825,85.8189 805.833,85.8189 809.841,85.8189 813.849,85.8189 817.857,85.8189 821.865,85.8189 825.873,85.8189 829.881,85.8189 833.888,85.8189 837.896,85.8189 841.904,85.8189 845.912,85.8189 849.92,85.8189 853.928,85.8189 857.936,85.8189 861.944,85.8189 865.952,85.8189 869.959,85.8189 873.967,85.8189 877.975,85.8189 881.983,85.8189 885.991,85.8189 889.999,85.8189 894.007,85.8189 898.015,85.8189 902.022,85.8189 906.03,85.8189 910.038,85.8189 914.046,85.8189 918.054,85.8189 922.062,85.8189 926.07,85.8189 930.078,85.8189 934.086,85.8189 938.093,85.8189 942.101,85.8189 946.109,85.8189 950.117,85.8189 954.125,85.8189 958.133,85.8189 962.141,85.8189 966.149,85.8189 970.157,85.8189 974.164,85.8189 978.172,85.8189 982.18,85.8189 986.188,85.8189 990.196,85.8189 994.204,85.8189 998.212,85.8189 1002.22,85.8189 1006.23,85.8189 1010.24,85.8189 1014.24,85.8189 1018.25,85.8189 1022.26,85.8189 1026.27,85.8189 1030.27,85.8189 1034.28,85.8189 1038.29,85.8189 1042.3,85.8189 1046.31,85.8189 1050.31,85.8189 1054.32,85.8189 1058.33,85.8189 1062.34,85.8189 1066.35,85.8189 1070.35,85.8189 1074.36,85.8189 1078.37,85.8189 1082.38,85.8189 1086.39,85.8189 1090.39,85.8189 1094.4,85.8189 1098.41,85.8189 1102.42,85.8189 1106.42,85.8189 1110.43,85.8189 1114.44,85.8189 1118.45,85.8189 1122.46,85.8189 1126.46,85.8189 1130.47,85.8189 1134.48,85.8189 1138.49,85.8189 1142.5,85.8189 1146.5,85.8189 1150.51,85.8189 1154.52,85.8189 1158.53,85.8189 1162.53,85.8189 1166.54,85.8189 1170.55,85.8189 1174.56,85.8189 1178.57,85.8189 1182.57,85.8189 1186.58,85.8189 1190.59,85.8189 1194.6,85.8189 1198.61,85.8189 1202.61,85.8189 1206.62,85.8189 1210.63,85.8189 1214.64,85.8189 1218.65,85.8189 1222.65,85.8189 1226.66,85.8189 1230.67,85.8189 1234.68,85.8189 1238.68,85.8189 1242.69,85.8189 1246.7,85.8189 1250.71,85.8189 1254.72,85.8189 1258.72,85.8189 1262.73,85.8189 1266.74,85.8189 1270.75,85.8189 1274.76,85.8189 1278.76,85.8189 1282.77,85.8189 1286.78,85.8189 1290.79,85.8189 1294.8,85.8189 1298.8,85.8189 1302.81,85.8189 1306.82,85.8189 1310.83,85.8189 1314.83,85.8189 1318.84,85.8189 1322.85,85.8189 1326.86,85.8189 1330.87,85.8189 1334.87,85.8189 1338.88,85.8189 1342.89,85.8189 1346.9,85.8189 1350.91,85.8189 1354.91,85.8189 1358.92,85.8189 1362.93,85.8189 1366.94,85.8189 1370.94,85.8189 1374.95,85.8189 1378.96,85.8189 1382.97,85.8189 1386.98,85.8189 1390.98,85.8189 1394.99,85.8189 1399,85.8189 1403.01,85.8189 1407.02,85.8189 1411.02,85.8189 1415.03,85.8189 1419.04,85.8189 1423.05,85.8189 1427.06,85.8189 1431.06,85.8189 1435.07,85.8189 1439.08,85.8189 1443.09,85.8189 1447.09,85.8189 1451.1,85.8189 1455.11,85.8189 1459.12,85.8189 1463.13,85.8189 1467.13,85.8189 1471.14,85.8189 1475.15,85.8189 1479.16,85.8189 1483.17,85.8189 1487.17,85.8189 1491.18,85.8189 1495.19,85.8189 1499.2,85.8189 1503.2,85.8189 1507.21,85.8189 1511.22,85.8189 1515.23,85.8189 1519.24,85.8189 1523.24,85.8189 1527.25,85.8189 1531.26,85.8189 1535.27,85.8189 1539.28,85.8189 1543.28,85.8189 1547.29,85.8189 1551.3,85.8189 1555.31,85.8189 1559.32,85.8189 1563.32,85.8189 1567.33,85.8189 1571.34,85.8189 1575.35,85.8189 1579.35,85.8189 1583.36,85.8189 1587.37,85.8189 1591.38,85.8189 1595.39,85.8189 1599.39,85.8189 1603.4,85.8189 1607.41,85.8189 1611.42,85.8189 1615.43,85.8189 1619.43,85.8189 1623.44,85.8189 1627.45,85.8189 1631.46,85.8189 1635.47,85.8189 1639.47,85.8189 1643.48,85.8189 1647.49,85.8189 1651.5,85.8189 1655.5,85.8189 1659.51,85.8189 1663.52,85.8189 1667.53,85.8189 1671.54,85.8189 1675.54,85.8189 1679.55,85.8189 1683.56,85.8189 1687.57,85.8189 1691.58,85.8189 1695.58,85.8189 1699.59,85.8189 1703.6,85.819 1707.61,85.8189 1711.61,85.8189 1715.62,85.8189 1719.63,85.8189 1723.64,85.8189 1727.65,85.8189 1731.65,85.8189 1735.66,85.8189 1739.67,85.8189 1743.68,85.8189 1747.69,85.8189 1751.69,85.8189 1755.7,85.8189 1759.71,85.8189 1763.72,85.8189 1767.73,85.8189 1771.73,85.8189 1775.74,85.8189 1779.75,85.8189 1783.76,85.8189 1787.76,85.8189 1791.77,85.8189 1795.78,85.8189 1799.79,85.8189 1803.8,85.8189 1807.8,85.8189 1811.81,85.8189 1815.82,85.8189 1819.83,85.8189 1823.84,85.8189 1827.84,85.8189 1831.85,85.8189 1835.86,85.8189 1839.87,85.8189 1843.87,85.8189 1847.88,85.8189 1851.89,85.8189 1855.9,85.8189 1859.91,85.8189 1863.91,85.8189 1867.92,85.8189 1871.93,85.8189 1875.94,85.8189 1879.95,85.819 1883.95,85.8189 1887.96,85.8189 1891.97,85.8189 1895.98,85.8189 1899.99,85.8189 1903.99,85.8189 1908,85.8189 1912.01,85.8189 1916.02,85.8189 1920.02,85.8189 1924.03,85.8189 1928.04,85.8189 1932.05,85.8189 1936.06,85.8189 1940.06,85.8189 1944.07,85.8189 1948.08,85.8189 1952.09,85.8189 1956.1,85.8189 1960.1,85.8836 1964.11,86.2897 1968.12,87.0749 1972.13,88.2467 1976.14,89.8124 1980.14,91.779 1984.15,94.1531 1988.16,96.9413 1992.17,100.15 1996.17,103.785 2000.18,107.851 2004.19,112.355 2008.2,117.301 2012.21,122.694 2016.21,128.538 2020.22,134.836 2024.23,141.591 2028.24,148.808 2032.25,156.488 2036.25,164.632 2040.26,173.242 2044.27,182.32 2048.28,191.865 2052.28,201.876 2056.29,212.353 2060.3,223.294 2064.31,234.698 2068.32,246.56 2072.32,258.878 2076.33,271.648 2080.34,284.864 2084.35,298.521 2088.36,312.613 2092.36,327.132 2096.37,342.072 2100.38,357.423 2104.39,373.176 2108.4,389.322 2112.4,405.85 2116.41,422.749 2120.42,440.006 2124.43,457.61 2128.43,475.545 2132.44,493.799 2136.45,512.357 2140.46,531.203 2144.47,550.322 2148.47,569.695 2152.48,589.308 2156.49,609.141 2160.5,629.176 2164.51,649.396 2168.51,669.779 2172.52,690.308 2176.53,710.961 2180.54,731.719 2184.55,752.56 2188.55,773.465 2192.56,794.412 2196.57,815.379 2200.58,836.346 2204.58,857.291 2208.59,878.192 2212.6,899.029 2216.61,919.78 2220.62,940.424 2224.62,960.94 2228.63,981.308 2232.64,1001.51 2236.65,1021.52 2240.66,1041.32 2244.66,1060.9 2248.67,1080.23 2252.68,1099.3 2256.69,1118.1 2260.69,1136.59 2264.7,1154.77 2268.71,1172.63 2272.72,1190.15 2276.73,1207.31 2280.73,1224.11 2284.74,1240.52 2288.75,1256.56 2292.76,1272.19 "/>
<polyline clip-path="url(#clip662)" style="stroke:#000000; stroke-linecap:round; stroke-linejoin:round; stroke-width:8; stroke-opacity:1; fill:none" points="765.754,2773.2 765.754,-1315.73 "/>
<polyline clip-path="url(#clip662)" style="stroke:#000000; stroke-linecap:round; stroke-linejoin:round; stroke-width:4; stroke-opacity:1; fill:none" points="-1887.1,1371.65 4472.69,1371.65 "/>
<polyline clip-path="url(#clip662)" style="stroke:#000000; stroke-linecap:round; stroke-linejoin:round; stroke-width:8; stroke-opacity:1; fill:none" stroke-dasharray="32, 20" points="1469.97,2773.2 1469.97,-1315.73 "/>
</svg>
