<?xml version="1.0" encoding="utf-8"?>
<svg xmlns="http://www.w3.org/2000/svg" xmlns:xlink="http://www.w3.org/1999/xlink" width="600" height="400" viewBox="0 0 2400 1600">
<defs>
  <clipPath id="clip420">
    <rect x="0" y="0" width="2400" height="1600"/>
  </clipPath>
</defs>
<path clip-path="url(#clip420)" d="M0 1600 L2400 1600 L2400 8.88178e-14 L0 8.88178e-14  Z" fill="#ffffff" fill-rule="evenodd" fill-opacity="1"/>
<defs>
  <clipPath id="clip421">
    <rect x="480" y="0" width="1681" height="1600"/>
  </clipPath>
</defs>
<path clip-path="url(#clip420)" d="M262.551 1423.18 L2352.76 1423.18 L2352.76 47.2441 L262.551 47.2441  Z" fill="#ffffff" fill-rule="evenodd" fill-opacity="1"/>
<defs>
  <clipPath id="clip422">
    <rect x="262" y="47" width="2091" height="1377"/>
  </clipPath>
</defs>
<polyline clip-path="url(#clip422)" style="stroke:#000000; stroke-linecap:round; stroke-linejoin:round; stroke-width:2; stroke-opacity:0.1; fill:none" points="262.551,1423.18 262.551,47.2441 "/>
<polyline clip-path="url(#clip422)" style="stroke:#000000; stroke-linecap:round; stroke-linejoin:round; stroke-width:2; stroke-opacity:0.1; fill:none" points="680.592,1423.18 680.592,47.2441 "/>
<polyline clip-path="url(#clip422)" style="stroke:#000000; stroke-linecap:round; stroke-linejoin:round; stroke-width:2; stroke-opacity:0.1; fill:none" points="1098.63,1423.18 1098.63,47.2441 "/>
<polyline clip-path="url(#clip422)" style="stroke:#000000; stroke-linecap:round; stroke-linejoin:round; stroke-width:2; stroke-opacity:0.1; fill:none" points="1516.67,1423.18 1516.67,47.2441 "/>
<polyline clip-path="url(#clip422)" style="stroke:#000000; stroke-linecap:round; stroke-linejoin:round; stroke-width:2; stroke-opacity:0.1; fill:none" points="1934.71,1423.18 1934.71,47.2441 "/>
<polyline clip-path="url(#clip422)" style="stroke:#000000; stroke-linecap:round; stroke-linejoin:round; stroke-width:2; stroke-opacity:0.1; fill:none" points="2352.76,1423.18 2352.76,47.2441 "/>
<polyline clip-path="url(#clip422)" style="stroke:#000000; stroke-linecap:round; stroke-linejoin:round; stroke-width:2; stroke-opacity:0.1; fill:none" points="262.551,1384.24 2352.76,1384.24 "/>
<polyline clip-path="url(#clip422)" style="stroke:#000000; stroke-linecap:round; stroke-linejoin:round; stroke-width:2; stroke-opacity:0.1; fill:none" points="262.551,1003.46 2352.76,1003.46 "/>
<polyline clip-path="url(#clip422)" style="stroke:#000000; stroke-linecap:round; stroke-linejoin:round; stroke-width:2; stroke-opacity:0.1; fill:none" points="262.551,622.675 2352.76,622.675 "/>
<polyline clip-path="url(#clip422)" style="stroke:#000000; stroke-linecap:round; stroke-linejoin:round; stroke-width:2; stroke-opacity:0.1; fill:none" points="262.551,241.894 2352.76,241.894 "/>
<polyline clip-path="url(#clip420)" style="stroke:#000000; stroke-linecap:round; stroke-linejoin:round; stroke-width:4; stroke-opacity:1; fill:none" points="262.551,1423.18 2352.76,1423.18 "/>
<polyline clip-path="url(#clip420)" style="stroke:#000000; stroke-linecap:round; stroke-linejoin:round; stroke-width:4; stroke-opacity:1; fill:none" points="262.551,1423.18 262.551,1404.28 "/>
<polyline clip-path="url(#clip420)" style="stroke:#000000; stroke-linecap:round; stroke-linejoin:round; stroke-width:4; stroke-opacity:1; fill:none" points="680.592,1423.18 680.592,1404.28 "/>
<polyline clip-path="url(#clip420)" style="stroke:#000000; stroke-linecap:round; stroke-linejoin:round; stroke-width:4; stroke-opacity:1; fill:none" points="1098.63,1423.18 1098.63,1404.28 "/>
<polyline clip-path="url(#clip420)" style="stroke:#000000; stroke-linecap:round; stroke-linejoin:round; stroke-width:4; stroke-opacity:1; fill:none" points="1516.67,1423.18 1516.67,1404.28 "/>
<polyline clip-path="url(#clip420)" style="stroke:#000000; stroke-linecap:round; stroke-linejoin:round; stroke-width:4; stroke-opacity:1; fill:none" points="1934.71,1423.18 1934.71,1404.28 "/>
<polyline clip-path="url(#clip420)" style="stroke:#000000; stroke-linecap:round; stroke-linejoin:round; stroke-width:4; stroke-opacity:1; fill:none" points="2352.76,1423.18 2352.76,1404.28 "/>
<path clip-path="url(#clip420)" d="M262.551 1454.1 Q258.94 1454.1 257.111 1457.66 Q255.306 1461.2 255.306 1468.33 Q255.306 1475.44 257.111 1479.01 Q258.94 1482.55 262.551 1482.55 Q266.185 1482.55 267.991 1479.01 Q269.82 1475.44 269.82 1468.33 Q269.82 1461.2 267.991 1457.66 Q266.185 1454.1 262.551 1454.1 M262.551 1450.39 Q268.361 1450.39 271.417 1455 Q274.496 1459.58 274.496 1468.33 Q274.496 1477.06 271.417 1481.67 Q268.361 1486.25 262.551 1486.25 Q256.741 1486.25 253.662 1481.67 Q250.607 1477.06 250.607 1468.33 Q250.607 1459.58 253.662 1455 Q256.741 1450.39 262.551 1450.39 Z" fill="#000000" fill-rule="nonzero" fill-opacity="1" /><path clip-path="url(#clip420)" d="M659.365 1481.64 L675.685 1481.64 L675.685 1485.58 L653.74 1485.58 L653.74 1481.64 Q656.402 1478.89 660.986 1474.26 Q665.592 1469.61 666.773 1468.27 Q669.018 1465.74 669.898 1464.01 Q670.801 1462.25 670.801 1460.56 Q670.801 1457.8 668.856 1456.07 Q666.935 1454.33 663.833 1454.33 Q661.634 1454.33 659.18 1455.09 Q656.75 1455.86 653.972 1457.41 L653.972 1452.69 Q656.796 1451.55 659.25 1450.97 Q661.703 1450.39 663.74 1450.39 Q669.111 1450.39 672.305 1453.08 Q675.5 1455.77 675.5 1460.26 Q675.5 1462.39 674.689 1464.31 Q673.902 1466.2 671.796 1468.8 Q671.217 1469.47 668.115 1472.69 Q665.014 1475.88 659.365 1481.64 Z" fill="#000000" fill-rule="nonzero" fill-opacity="1" /><path clip-path="url(#clip420)" d="M695.499 1454.1 Q691.888 1454.1 690.06 1457.66 Q688.254 1461.2 688.254 1468.33 Q688.254 1475.44 690.06 1479.01 Q691.888 1482.55 695.499 1482.55 Q699.134 1482.55 700.939 1479.01 Q702.768 1475.44 702.768 1468.33 Q702.768 1461.2 700.939 1457.66 Q699.134 1454.1 695.499 1454.1 M695.499 1450.39 Q701.31 1450.39 704.365 1455 Q707.444 1459.58 707.444 1468.33 Q707.444 1477.06 704.365 1481.67 Q701.31 1486.25 695.499 1486.25 Q689.689 1486.25 686.611 1481.67 Q683.555 1477.06 683.555 1468.33 Q683.555 1459.58 686.611 1455 Q689.689 1450.39 695.499 1450.39 Z" fill="#000000" fill-rule="nonzero" fill-opacity="1" /><path clip-path="url(#clip420)" d="M1086.8 1455.09 L1075 1473.54 L1086.8 1473.54 L1086.8 1455.09 M1085.58 1451.02 L1091.46 1451.02 L1091.46 1473.54 L1096.39 1473.54 L1096.39 1477.43 L1091.46 1477.43 L1091.46 1485.58 L1086.8 1485.58 L1086.8 1477.43 L1071.2 1477.43 L1071.2 1472.92 L1085.58 1451.02 Z" fill="#000000" fill-rule="nonzero" fill-opacity="1" /><path clip-path="url(#clip420)" d="M1114.12 1454.1 Q1110.51 1454.1 1108.68 1457.66 Q1106.87 1461.2 1106.87 1468.33 Q1106.87 1475.44 1108.68 1479.01 Q1110.51 1482.55 1114.12 1482.55 Q1117.75 1482.55 1119.56 1479.01 Q1121.39 1475.44 1121.39 1468.33 Q1121.39 1461.2 1119.56 1457.66 Q1117.75 1454.1 1114.12 1454.1 M1114.12 1450.39 Q1119.93 1450.39 1122.98 1455 Q1126.06 1459.58 1126.06 1468.33 Q1126.06 1477.06 1122.98 1481.67 Q1119.93 1486.25 1114.12 1486.25 Q1108.31 1486.25 1105.23 1481.67 Q1102.17 1477.06 1102.17 1468.33 Q1102.17 1459.58 1105.23 1455 Q1108.31 1450.39 1114.12 1450.39 Z" fill="#000000" fill-rule="nonzero" fill-opacity="1" /><path clip-path="url(#clip420)" d="M1502.08 1466.44 Q1498.93 1466.44 1497.08 1468.59 Q1495.25 1470.74 1495.25 1474.49 Q1495.25 1478.22 1497.08 1480.39 Q1498.93 1482.55 1502.08 1482.55 Q1505.23 1482.55 1507.06 1480.39 Q1508.91 1478.22 1508.91 1474.49 Q1508.91 1470.74 1507.06 1468.59 Q1505.23 1466.44 1502.08 1466.44 M1511.36 1451.78 L1511.36 1456.04 Q1509.6 1455.21 1507.8 1454.77 Q1506.01 1454.33 1504.26 1454.33 Q1499.63 1454.33 1497.17 1457.45 Q1494.74 1460.58 1494.39 1466.9 Q1495.76 1464.89 1497.82 1463.82 Q1499.88 1462.73 1502.36 1462.73 Q1507.57 1462.73 1510.57 1465.9 Q1513.61 1469.05 1513.61 1474.49 Q1513.61 1479.82 1510.46 1483.03 Q1507.31 1486.25 1502.08 1486.25 Q1496.08 1486.25 1492.91 1481.67 Q1489.74 1477.06 1489.74 1468.33 Q1489.74 1460.14 1493.63 1455.28 Q1497.52 1450.39 1504.07 1450.39 Q1505.83 1450.39 1507.61 1450.74 Q1509.42 1451.09 1511.36 1451.78 Z" fill="#000000" fill-rule="nonzero" fill-opacity="1" /><path clip-path="url(#clip420)" d="M1531.66 1454.1 Q1528.05 1454.1 1526.22 1457.66 Q1524.42 1461.2 1524.42 1468.33 Q1524.42 1475.44 1526.22 1479.01 Q1528.05 1482.55 1531.66 1482.55 Q1535.3 1482.55 1537.1 1479.01 Q1538.93 1475.44 1538.93 1468.33 Q1538.93 1461.2 1537.1 1457.66 Q1535.3 1454.1 1531.66 1454.1 M1531.66 1450.39 Q1537.47 1450.39 1540.53 1455 Q1543.61 1459.58 1543.61 1468.33 Q1543.61 1477.06 1540.53 1481.67 Q1537.47 1486.25 1531.66 1486.25 Q1525.85 1486.25 1522.77 1481.67 Q1519.72 1477.06 1519.72 1468.33 Q1519.72 1459.58 1522.77 1455 Q1525.85 1450.39 1531.66 1450.39 Z" fill="#000000" fill-rule="nonzero" fill-opacity="1" /><path clip-path="url(#clip420)" d="M1919.59 1469.17 Q1916.25 1469.17 1914.33 1470.95 Q1912.43 1472.73 1912.43 1475.86 Q1912.43 1478.98 1914.33 1480.77 Q1916.25 1482.55 1919.59 1482.55 Q1922.92 1482.55 1924.84 1480.77 Q1926.76 1478.96 1926.76 1475.86 Q1926.76 1472.73 1924.84 1470.95 Q1922.94 1469.17 1919.59 1469.17 M1914.91 1467.18 Q1911.9 1466.44 1910.21 1464.38 Q1908.55 1462.32 1908.55 1459.35 Q1908.55 1455.21 1911.49 1452.8 Q1914.45 1450.39 1919.59 1450.39 Q1924.75 1450.39 1927.69 1452.8 Q1930.63 1455.21 1930.63 1459.35 Q1930.63 1462.32 1928.94 1464.38 Q1927.27 1466.44 1924.29 1467.18 Q1927.67 1467.96 1929.54 1470.26 Q1931.44 1472.55 1931.44 1475.86 Q1931.44 1480.88 1928.36 1483.57 Q1925.31 1486.25 1919.59 1486.25 Q1913.87 1486.25 1910.79 1483.57 Q1907.74 1480.88 1907.74 1475.86 Q1907.74 1472.55 1909.63 1470.26 Q1911.53 1467.96 1914.91 1467.18 M1913.2 1459.79 Q1913.2 1462.48 1914.87 1463.98 Q1916.56 1465.49 1919.59 1465.49 Q1922.6 1465.49 1924.29 1463.98 Q1926 1462.48 1926 1459.79 Q1926 1457.11 1924.29 1455.6 Q1922.6 1454.1 1919.59 1454.1 Q1916.56 1454.1 1914.87 1455.6 Q1913.2 1457.11 1913.2 1459.79 Z" fill="#000000" fill-rule="nonzero" fill-opacity="1" /><path clip-path="url(#clip420)" d="M1949.75 1454.1 Q1946.14 1454.1 1944.31 1457.66 Q1942.5 1461.2 1942.5 1468.33 Q1942.5 1475.44 1944.31 1479.01 Q1946.14 1482.55 1949.75 1482.55 Q1953.38 1482.55 1955.19 1479.01 Q1957.02 1475.44 1957.02 1468.33 Q1957.02 1461.2 1955.19 1457.66 Q1953.38 1454.1 1949.75 1454.1 M1949.75 1450.39 Q1955.56 1450.39 1958.62 1455 Q1961.69 1459.58 1961.69 1468.33 Q1961.69 1477.06 1958.62 1481.67 Q1955.56 1486.25 1949.75 1486.25 Q1943.94 1486.25 1940.86 1481.67 Q1937.81 1477.06 1937.81 1468.33 Q1937.81 1459.58 1940.86 1455 Q1943.94 1450.39 1949.75 1450.39 Z" fill="#000000" fill-rule="nonzero" fill-opacity="1" /><path clip-path="url(#clip420)" d="M2312.36 1481.64 L2320 1481.64 L2320 1455.28 L2311.69 1456.95 L2311.69 1452.69 L2319.96 1451.02 L2324.63 1451.02 L2324.63 1481.64 L2332.27 1481.64 L2332.27 1485.58 L2312.36 1485.58 L2312.36 1481.64 Z" fill="#000000" fill-rule="nonzero" fill-opacity="1" /><path clip-path="url(#clip420)" d="M2351.71 1454.1 Q2348.1 1454.1 2346.27 1457.66 Q2344.47 1461.2 2344.47 1468.33 Q2344.47 1475.44 2346.27 1479.01 Q2348.1 1482.55 2351.71 1482.55 Q2355.35 1482.55 2357.15 1479.01 Q2358.98 1475.44 2358.98 1468.33 Q2358.98 1461.2 2357.15 1457.66 Q2355.35 1454.1 2351.71 1454.1 M2351.71 1450.39 Q2357.52 1450.39 2360.58 1455 Q2363.66 1459.58 2363.66 1468.33 Q2363.66 1477.06 2360.58 1481.67 Q2357.52 1486.25 2351.71 1486.25 Q2345.9 1486.25 2342.83 1481.67 Q2339.77 1477.06 2339.77 1468.33 Q2339.77 1459.58 2342.83 1455 Q2345.9 1450.39 2351.71 1450.39 Z" fill="#000000" fill-rule="nonzero" fill-opacity="1" /><path clip-path="url(#clip420)" d="M2381.88 1454.1 Q2378.27 1454.1 2376.44 1457.66 Q2374.63 1461.2 2374.63 1468.33 Q2374.63 1475.44 2376.44 1479.01 Q2378.27 1482.55 2381.88 1482.55 Q2385.51 1482.55 2387.32 1479.01 Q2389.14 1475.44 2389.14 1468.33 Q2389.14 1461.2 2387.32 1457.66 Q2385.51 1454.1 2381.88 1454.1 M2381.88 1450.39 Q2387.69 1450.39 2390.74 1455 Q2393.82 1459.58 2393.82 1468.33 Q2393.82 1477.06 2390.74 1481.67 Q2387.69 1486.25 2381.88 1486.25 Q2376.07 1486.25 2372.99 1481.67 Q2369.93 1477.06 2369.93 1468.33 Q2369.93 1459.58 2372.99 1455 Q2376.07 1450.39 2381.88 1450.39 Z" fill="#000000" fill-rule="nonzero" fill-opacity="1" /><path clip-path="url(#clip420)" d="M1321.83 1528.8 Q1321.83 1530.61 1320.7 1531.64 Q1319.57 1532.64 1318.28 1532.64 Q1317.06 1532.64 1316.42 1531.93 Q1315.77 1531.22 1315.77 1530.32 Q1315.77 1529.09 1316.67 1528.03 Q1317.58 1526.97 1318.93 1526.74 Q1317.61 1525.91 1315.64 1525.91 Q1314.36 1525.91 1313.23 1526.58 Q1312.13 1527.26 1311.46 1528.13 Q1310.81 1529 1310.23 1530.25 Q1309.69 1531.48 1309.46 1532.22 Q1309.27 1532.93 1309.11 1533.7 L1306.85 1542.72 Q1305.76 1547 1305.76 1548.51 Q1305.76 1550.38 1306.66 1551.64 Q1307.56 1552.86 1309.36 1552.86 Q1310.07 1552.86 1310.88 1552.67 Q1311.68 1552.44 1312.71 1551.86 Q1313.78 1551.25 1314.71 1550.35 Q1315.68 1549.42 1316.61 1547.84 Q1317.54 1546.26 1318.16 1544.23 Q1318.35 1543.52 1318.99 1543.52 Q1319.8 1543.52 1319.8 1544.17 Q1319.8 1544.71 1319.35 1545.87 Q1318.93 1547 1317.99 1548.48 Q1317.09 1549.93 1315.9 1551.25 Q1314.71 1552.54 1312.94 1553.44 Q1311.17 1554.34 1309.23 1554.34 Q1306.46 1554.34 1304.63 1552.86 Q1302.79 1551.38 1302.12 1549.32 Q1301.96 1549.61 1301.73 1550 Q1301.51 1550.38 1300.83 1551.25 Q1300.18 1552.09 1299.44 1552.73 Q1298.7 1553.34 1297.54 1553.83 Q1296.42 1554.34 1295.19 1554.34 Q1293.65 1554.34 1292.26 1553.89 Q1290.91 1553.44 1289.94 1552.41 Q1288.98 1551.38 1288.98 1549.96 Q1288.98 1548.38 1290.04 1547.29 Q1291.13 1546.16 1292.62 1546.16 Q1293.55 1546.16 1294.29 1546.71 Q1295.06 1547.26 1295.06 1548.45 Q1295.06 1549.77 1294.16 1550.77 Q1293.26 1551.77 1291.97 1552.02 Q1293.29 1552.86 1295.26 1552.86 Q1297.38 1552.86 1299.06 1550.99 Q1300.73 1549.13 1301.54 1546 Q1303.53 1538.5 1304.31 1535.15 Q1305.08 1531.77 1305.08 1530.32 Q1305.08 1528.96 1304.73 1528.03 Q1304.37 1527.1 1303.76 1526.68 Q1303.18 1526.23 1302.63 1526.07 Q1302.12 1525.91 1301.54 1525.91 Q1300.57 1525.91 1299.48 1526.29 Q1298.41 1526.68 1297.13 1527.58 Q1295.87 1528.45 1294.68 1530.25 Q1293.49 1532.06 1292.68 1534.54 Q1292.52 1535.28 1291.81 1535.28 Q1291.04 1535.24 1291.04 1534.6 Q1291.04 1534.05 1291.46 1532.93 Q1291.91 1531.77 1292.81 1530.32 Q1293.74 1528.87 1294.94 1527.58 Q1296.16 1526.26 1297.93 1525.36 Q1299.73 1524.46 1301.67 1524.46 Q1302.54 1524.46 1303.37 1524.65 Q1304.24 1524.81 1305.27 1525.29 Q1306.34 1525.78 1307.27 1526.84 Q1308.2 1527.9 1308.78 1529.45 Q1309.17 1528.71 1309.69 1528 Q1310.23 1527.29 1311.07 1526.42 Q1311.94 1525.52 1313.13 1525 Q1314.36 1524.46 1315.71 1524.46 Q1317.03 1524.46 1318.32 1524.81 Q1319.6 1525.13 1320.7 1526.19 Q1321.83 1527.23 1321.83 1528.8 Z" fill="#000000" fill-rule="nonzero" fill-opacity="1" /><polyline clip-path="url(#clip420)" style="stroke:#000000; stroke-linecap:round; stroke-linejoin:round; stroke-width:4; stroke-opacity:1; fill:none" points="262.551,1423.18 262.551,47.2441 "/>
<polyline clip-path="url(#clip420)" style="stroke:#000000; stroke-linecap:round; stroke-linejoin:round; stroke-width:4; stroke-opacity:1; fill:none" points="262.551,1384.24 281.449,1384.24 "/>
<polyline clip-path="url(#clip420)" style="stroke:#000000; stroke-linecap:round; stroke-linejoin:round; stroke-width:4; stroke-opacity:1; fill:none" points="262.551,1003.46 281.449,1003.46 "/>
<polyline clip-path="url(#clip420)" style="stroke:#000000; stroke-linecap:round; stroke-linejoin:round; stroke-width:4; stroke-opacity:1; fill:none" points="262.551,622.675 281.449,622.675 "/>
<polyline clip-path="url(#clip420)" style="stroke:#000000; stroke-linecap:round; stroke-linejoin:round; stroke-width:4; stroke-opacity:1; fill:none" points="262.551,241.894 281.449,241.894 "/>
<path clip-path="url(#clip420)" d="M214.607 1370.04 Q210.996 1370.04 209.167 1373.6 Q207.362 1377.14 207.362 1384.27 Q207.362 1391.38 209.167 1394.94 Q210.996 1398.49 214.607 1398.49 Q218.241 1398.49 220.047 1394.94 Q221.875 1391.38 221.875 1384.27 Q221.875 1377.14 220.047 1373.6 Q218.241 1370.04 214.607 1370.04 M214.607 1366.33 Q220.417 1366.33 223.473 1370.94 Q226.551 1375.52 226.551 1384.27 Q226.551 1393 223.473 1397.61 Q220.417 1402.19 214.607 1402.19 Q208.797 1402.19 205.718 1397.61 Q202.662 1393 202.662 1384.27 Q202.662 1375.52 205.718 1370.94 Q208.797 1366.33 214.607 1366.33 Z" fill="#000000" fill-rule="nonzero" fill-opacity="1" /><path clip-path="url(#clip420)" d="M144.329 986.177 L162.686 986.177 L162.686 990.112 L148.612 990.112 L148.612 998.584 Q149.63 998.237 150.649 998.075 Q151.667 997.89 152.686 997.89 Q158.473 997.89 161.852 1001.06 Q165.232 1004.23 165.232 1009.65 Q165.232 1015.23 161.76 1018.33 Q158.288 1021.41 151.968 1021.41 Q149.792 1021.41 147.524 1021.04 Q145.279 1020.67 142.871 1019.93 L142.871 1015.23 Q144.954 1016.36 147.177 1016.92 Q149.399 1017.47 151.876 1017.47 Q155.88 1017.47 158.218 1015.37 Q160.556 1013.26 160.556 1009.65 Q160.556 1006.04 158.218 1003.93 Q155.88 1001.82 151.876 1001.82 Q150.001 1001.82 148.126 1002.24 Q146.274 1002.66 144.329 1003.54 L144.329 986.177 Z" fill="#000000" fill-rule="nonzero" fill-opacity="1" /><path clip-path="url(#clip420)" d="M184.445 989.256 Q180.834 989.256 179.005 992.82 Q177.2 996.362 177.2 1003.49 Q177.2 1010.6 179.005 1014.16 Q180.834 1017.7 184.445 1017.7 Q188.079 1017.7 189.885 1014.16 Q191.713 1010.6 191.713 1003.49 Q191.713 996.362 189.885 992.82 Q188.079 989.256 184.445 989.256 M184.445 985.552 Q190.255 985.552 193.311 990.158 Q196.389 994.742 196.389 1003.49 Q196.389 1012.22 193.311 1016.82 Q190.255 1021.41 184.445 1021.41 Q178.635 1021.41 175.556 1016.82 Q172.501 1012.22 172.501 1003.49 Q172.501 994.742 175.556 990.158 Q178.635 985.552 184.445 985.552 Z" fill="#000000" fill-rule="nonzero" fill-opacity="1" /><path clip-path="url(#clip420)" d="M214.607 989.256 Q210.996 989.256 209.167 992.82 Q207.362 996.362 207.362 1003.49 Q207.362 1010.6 209.167 1014.16 Q210.996 1017.7 214.607 1017.7 Q218.241 1017.7 220.047 1014.16 Q221.875 1010.6 221.875 1003.49 Q221.875 996.362 220.047 992.82 Q218.241 989.256 214.607 989.256 M214.607 985.552 Q220.417 985.552 223.473 990.158 Q226.551 994.742 226.551 1003.49 Q226.551 1012.22 223.473 1016.82 Q220.417 1021.41 214.607 1021.41 Q208.797 1021.41 205.718 1016.82 Q202.662 1012.22 202.662 1003.49 Q202.662 994.742 205.718 990.158 Q208.797 985.552 214.607 985.552 Z" fill="#000000" fill-rule="nonzero" fill-opacity="1" /><path clip-path="url(#clip420)" d="M114.931 636.02 L122.57 636.02 L122.57 609.655 L114.26 611.321 L114.26 607.062 L122.524 605.395 L127.2 605.395 L127.2 636.02 L134.839 636.02 L134.839 639.955 L114.931 639.955 L114.931 636.02 Z" fill="#000000" fill-rule="nonzero" fill-opacity="1" /><path clip-path="url(#clip420)" d="M154.283 608.474 Q150.672 608.474 148.843 612.039 Q147.038 615.581 147.038 622.71 Q147.038 629.817 148.843 633.381 Q150.672 636.923 154.283 636.923 Q157.917 636.923 159.723 633.381 Q161.552 629.817 161.552 622.71 Q161.552 615.581 159.723 612.039 Q157.917 608.474 154.283 608.474 M154.283 604.77 Q160.093 604.77 163.149 609.377 Q166.227 613.96 166.227 622.71 Q166.227 631.437 163.149 636.043 Q160.093 640.627 154.283 640.627 Q148.473 640.627 145.394 636.043 Q142.339 631.437 142.339 622.71 Q142.339 613.96 145.394 609.377 Q148.473 604.77 154.283 604.77 Z" fill="#000000" fill-rule="nonzero" fill-opacity="1" /><path clip-path="url(#clip420)" d="M184.445 608.474 Q180.834 608.474 179.005 612.039 Q177.2 615.581 177.2 622.71 Q177.2 629.817 179.005 633.381 Q180.834 636.923 184.445 636.923 Q188.079 636.923 189.885 633.381 Q191.713 629.817 191.713 622.71 Q191.713 615.581 189.885 612.039 Q188.079 608.474 184.445 608.474 M184.445 604.77 Q190.255 604.77 193.311 609.377 Q196.389 613.96 196.389 622.71 Q196.389 631.437 193.311 636.043 Q190.255 640.627 184.445 640.627 Q178.635 640.627 175.556 636.043 Q172.501 631.437 172.501 622.71 Q172.501 613.96 175.556 609.377 Q178.635 604.77 184.445 604.77 Z" fill="#000000" fill-rule="nonzero" fill-opacity="1" /><path clip-path="url(#clip420)" d="M214.607 608.474 Q210.996 608.474 209.167 612.039 Q207.362 615.581 207.362 622.71 Q207.362 629.817 209.167 633.381 Q210.996 636.923 214.607 636.923 Q218.241 636.923 220.047 633.381 Q221.875 629.817 221.875 622.71 Q221.875 615.581 220.047 612.039 Q218.241 608.474 214.607 608.474 M214.607 604.77 Q220.417 604.77 223.473 609.377 Q226.551 613.96 226.551 622.71 Q226.551 631.437 223.473 636.043 Q220.417 640.627 214.607 640.627 Q208.797 640.627 205.718 636.043 Q202.662 631.437 202.662 622.71 Q202.662 613.96 205.718 609.377 Q208.797 604.77 214.607 604.77 Z" fill="#000000" fill-rule="nonzero" fill-opacity="1" /><path clip-path="url(#clip420)" d="M114.931 255.239 L122.57 255.239 L122.57 228.873 L114.26 230.54 L114.26 226.281 L122.524 224.614 L127.2 224.614 L127.2 255.239 L134.839 255.239 L134.839 259.174 L114.931 259.174 L114.931 255.239 Z" fill="#000000" fill-rule="nonzero" fill-opacity="1" /><path clip-path="url(#clip420)" d="M144.329 224.614 L162.686 224.614 L162.686 228.549 L148.612 228.549 L148.612 237.021 Q149.63 236.674 150.649 236.512 Q151.667 236.327 152.686 236.327 Q158.473 236.327 161.852 239.498 Q165.232 242.669 165.232 248.086 Q165.232 253.665 161.76 256.767 Q158.288 259.845 151.968 259.845 Q149.792 259.845 147.524 259.475 Q145.279 259.105 142.871 258.364 L142.871 253.665 Q144.954 254.799 147.177 255.355 Q149.399 255.91 151.876 255.91 Q155.88 255.91 158.218 253.804 Q160.556 251.697 160.556 248.086 Q160.556 244.475 158.218 242.368 Q155.88 240.262 151.876 240.262 Q150.001 240.262 148.126 240.679 Q146.274 241.095 144.329 241.975 L144.329 224.614 Z" fill="#000000" fill-rule="nonzero" fill-opacity="1" /><path clip-path="url(#clip420)" d="M184.445 227.693 Q180.834 227.693 179.005 231.257 Q177.2 234.799 177.2 241.929 Q177.2 249.035 179.005 252.6 Q180.834 256.142 184.445 256.142 Q188.079 256.142 189.885 252.6 Q191.713 249.035 191.713 241.929 Q191.713 234.799 189.885 231.257 Q188.079 227.693 184.445 227.693 M184.445 223.989 Q190.255 223.989 193.311 228.595 Q196.389 233.179 196.389 241.929 Q196.389 250.655 193.311 255.262 Q190.255 259.845 184.445 259.845 Q178.635 259.845 175.556 255.262 Q172.501 250.655 172.501 241.929 Q172.501 233.179 175.556 228.595 Q178.635 223.989 184.445 223.989 Z" fill="#000000" fill-rule="nonzero" fill-opacity="1" /><path clip-path="url(#clip420)" d="M214.607 227.693 Q210.996 227.693 209.167 231.257 Q207.362 234.799 207.362 241.929 Q207.362 249.035 209.167 252.6 Q210.996 256.142 214.607 256.142 Q218.241 256.142 220.047 252.6 Q221.875 249.035 221.875 241.929 Q221.875 234.799 220.047 231.257 Q218.241 227.693 214.607 227.693 M214.607 223.989 Q220.417 223.989 223.473 228.595 Q226.551 233.179 226.551 241.929 Q226.551 250.655 223.473 255.262 Q220.417 259.845 214.607 259.845 Q208.797 259.845 205.718 255.262 Q202.662 250.655 202.662 241.929 Q202.662 233.179 205.718 228.595 Q208.797 223.989 214.607 223.989 Z" fill="#000000" fill-rule="nonzero" fill-opacity="1" /><path clip-path="url(#clip420)" d="M58.657 1209.79 L77.5631 1209.79 L77.5631 1215.68 L28.3562 1215.68 L28.3562 1209.79 L33.7671 1209.79 Q30.5842 1207.95 29.0564 1205.14 Q27.4968 1202.31 27.4968 1198.4 Q27.4968 1191.9 32.6531 1187.86 Q37.8093 1183.79 46.212 1183.79 Q54.6147 1183.79 59.771 1187.86 Q64.9272 1191.9 64.9272 1198.4 Q64.9272 1202.31 63.3994 1205.14 Q61.8398 1207.95 58.657 1209.79 M46.212 1189.87 Q39.7508 1189.87 36.0905 1192.54 Q32.3984 1195.18 32.3984 1199.83 Q32.3984 1204.48 36.0905 1207.15 Q39.7508 1209.79 46.212 1209.79 Q52.6732 1209.79 56.3653 1207.15 Q60.0256 1204.48 60.0256 1199.83 Q60.0256 1195.18 56.3653 1192.54 Q52.6732 1189.87 46.212 1189.87 Z" fill="#000000" fill-rule="nonzero" fill-opacity="1" /><path clip-path="url(#clip420)" d="M33.8307 1153.42 Q33.2578 1154.41 33.0032 1155.59 Q32.7167 1156.73 32.7167 1158.13 Q32.7167 1163.1 35.9632 1165.77 Q39.1779 1168.41 45.2253 1168.41 L64.0042 1168.41 L64.0042 1174.3 L28.3562 1174.3 L28.3562 1168.41 L33.8944 1168.41 Q30.6479 1166.57 29.0883 1163.61 Q27.4968 1160.65 27.4968 1156.41 Q27.4968 1155.81 27.5923 1155.08 Q27.656 1154.35 27.8151 1153.45 L33.8307 1153.42 Z" fill="#000000" fill-rule="nonzero" fill-opacity="1" /><path clip-path="url(#clip420)" d="M32.4621 1134.9 Q32.4621 1139.61 36.1542 1142.35 Q39.8145 1145.08 46.212 1145.08 Q52.6095 1145.08 56.3017 1142.38 Q59.9619 1139.64 59.9619 1134.9 Q59.9619 1130.22 56.2698 1127.48 Q52.5777 1124.75 46.212 1124.75 Q39.8781 1124.75 36.186 1127.48 Q32.4621 1130.22 32.4621 1134.9 M27.4968 1134.9 Q27.4968 1127.26 32.4621 1122.9 Q37.4273 1118.54 46.212 1118.54 Q54.9649 1118.54 59.9619 1122.9 Q64.9272 1127.26 64.9272 1134.9 Q64.9272 1142.57 59.9619 1146.93 Q54.9649 1151.26 46.212 1151.26 Q37.4273 1151.26 32.4621 1146.93 Q27.4968 1142.57 27.4968 1134.9 Z" fill="#000000" fill-rule="nonzero" fill-opacity="1" /><path clip-path="url(#clip420)" d="M14.479 1090.78 L19.3487 1090.78 L19.3487 1096.39 Q19.3487 1099.54 20.6219 1100.78 Q21.895 1101.99 25.2052 1101.99 L28.3562 1101.99 L28.3562 1092.34 L32.9077 1092.34 L32.9077 1101.99 L64.0042 1101.99 L64.0042 1107.88 L32.9077 1107.88 L32.9077 1113.48 L28.3562 1113.48 L28.3562 1107.88 L25.8736 1107.88 Q19.9216 1107.88 17.2162 1105.11 Q14.479 1102.34 14.479 1096.32 L14.479 1090.78 Z" fill="#000000" fill-rule="nonzero" fill-opacity="1" /><path clip-path="url(#clip420)" d="M28.3562 1085.88 L28.3562 1080.03 L64.0042 1080.03 L64.0042 1085.88 L28.3562 1085.88 M14.479 1085.88 L14.479 1080.03 L21.895 1080.03 L21.895 1085.88 L14.479 1085.88 Z" fill="#000000" fill-rule="nonzero" fill-opacity="1" /><path clip-path="url(#clip420)" d="M14.479 1067.77 L14.479 1061.92 L64.0042 1061.92 L64.0042 1067.77 L14.479 1067.77 Z" fill="#000000" fill-rule="nonzero" fill-opacity="1" /><path clip-path="url(#clip420)" d="M44.7161 1019.17 L47.5806 1019.17 L47.5806 1046.1 Q53.6281 1045.72 56.8109 1042.47 Q59.9619 1039.19 59.9619 1033.37 Q59.9619 1029.99 59.1344 1026.84 Q58.3069 1023.66 56.6518 1020.54 L62.1899 1020.54 Q63.5267 1023.69 64.227 1027 Q64.9272 1030.31 64.9272 1033.72 Q64.9272 1042.25 59.9619 1047.24 Q54.9967 1052.21 46.5303 1052.21 Q37.7774 1052.21 32.6531 1047.5 Q27.4968 1042.76 27.4968 1034.73 Q27.4968 1027.54 32.1438 1023.37 Q36.7589 1019.17 44.7161 1019.17 M42.9973 1025.03 Q38.1912 1025.09 35.3266 1027.73 Q32.4621 1030.34 32.4621 1034.67 Q32.4621 1039.57 35.2312 1042.53 Q38.0002 1045.46 43.0292 1045.91 L42.9973 1025.03 Z" fill="#000000" fill-rule="nonzero" fill-opacity="1" /><path clip-path="url(#clip420)" d="M14.479 988.838 L14.479 982.981 L64.0042 982.981 L64.0042 988.838 L14.479 988.838 Z" fill="#000000" fill-rule="nonzero" fill-opacity="1" /><path clip-path="url(#clip420)" d="M28.3562 970.727 L28.3562 964.871 L64.0042 964.871 L64.0042 970.727 L28.3562 970.727 M14.479 970.727 L14.479 964.871 L21.895 964.871 L21.895 970.727 L14.479 970.727 Z" fill="#000000" fill-rule="nonzero" fill-opacity="1" /><path clip-path="url(#clip420)" d="M14.479 952.84 L14.479 946.951 L43.7294 946.951 L28.3562 929.477 L28.3562 921.998 L45.0344 940.904 L64.0042 921.202 L64.0042 928.841 L46.5939 946.951 L64.0042 946.951 L64.0042 952.84 L14.479 952.84 Z" fill="#000000" fill-rule="nonzero" fill-opacity="1" /><path clip-path="url(#clip420)" d="M44.7161 886.7 L47.5806 886.7 L47.5806 913.627 Q53.6281 913.245 56.8109 909.998 Q59.9619 906.72 59.9619 900.895 Q59.9619 897.522 59.1344 894.371 Q58.3069 891.188 56.6518 888.068 L62.1899 888.068 Q63.5267 891.22 64.227 894.53 Q64.9272 897.84 64.9272 901.246 Q64.9272 909.776 59.9619 914.773 Q54.9967 919.738 46.5303 919.738 Q37.7774 919.738 32.6531 915.027 Q27.4968 910.285 27.4968 902.264 Q27.4968 895.071 32.1438 890.901 Q36.7589 886.7 44.7161 886.7 M42.9973 892.556 Q38.1912 892.62 35.3266 895.262 Q32.4621 897.872 32.4621 902.2 Q32.4621 907.102 35.2312 910.062 Q38.0002 912.99 43.0292 913.436 L42.9973 892.556 Z" fill="#000000" fill-rule="nonzero" fill-opacity="1" /><path clip-path="url(#clip420)" d="M14.479 877.088 L14.479 871.231 L64.0042 871.231 L64.0042 877.088 L14.479 877.088 Z" fill="#000000" fill-rule="nonzero" fill-opacity="1" /><path clip-path="url(#clip420)" d="M28.3562 858.977 L28.3562 853.121 L64.0042 853.121 L64.0042 858.977 L28.3562 858.977 M14.479 858.977 L14.479 853.121 L21.895 853.121 L21.895 858.977 L14.479 858.977 Z" fill="#000000" fill-rule="nonzero" fill-opacity="1" /><path clip-path="url(#clip420)" d="M42.4881 811.234 L64.0042 811.234 L64.0042 817.091 L42.679 817.091 Q37.6183 817.091 35.1038 819.064 Q32.5894 821.038 32.5894 824.984 Q32.5894 829.727 35.6131 832.464 Q38.6368 835.201 43.8567 835.201 L64.0042 835.201 L64.0042 841.09 L14.479 841.09 L14.479 835.201 L33.8944 835.201 Q30.6797 833.101 29.0883 830.268 Q27.4968 827.403 27.4968 823.679 Q27.4968 817.536 31.3163 814.385 Q35.1038 811.234 42.4881 811.234 Z" fill="#000000" fill-rule="nonzero" fill-opacity="1" /><path clip-path="url(#clip420)" d="M32.4621 785.74 Q32.4621 790.45 36.1542 793.188 Q39.8145 795.925 46.212 795.925 Q52.6095 795.925 56.3017 793.219 Q59.9619 790.482 59.9619 785.74 Q59.9619 781.061 56.2698 778.324 Q52.5777 775.586 46.212 775.586 Q39.8781 775.586 36.186 778.324 Q32.4621 781.061 32.4621 785.74 M27.4968 785.74 Q27.4968 778.101 32.4621 773.74 Q37.4273 769.38 46.212 769.38 Q54.9649 769.38 59.9619 773.74 Q64.9272 778.101 64.9272 785.74 Q64.9272 793.41 59.9619 797.771 Q54.9649 802.1 46.212 802.1 Q37.4273 802.1 32.4621 797.771 Q27.4968 793.41 27.4968 785.74 Z" fill="#000000" fill-rule="nonzero" fill-opacity="1" /><path clip-path="url(#clip420)" d="M32.4621 745.859 Q32.4621 750.569 36.1542 753.306 Q39.8145 756.044 46.212 756.044 Q52.6095 756.044 56.3017 753.338 Q59.9619 750.601 59.9619 745.859 Q59.9619 741.18 56.2698 738.443 Q52.5777 735.705 46.212 735.705 Q39.8781 735.705 36.186 738.443 Q32.4621 741.18 32.4621 745.859 M27.4968 745.859 Q27.4968 738.22 32.4621 733.859 Q37.4273 729.499 46.212 729.499 Q54.9649 729.499 59.9619 733.859 Q64.9272 738.22 64.9272 745.859 Q64.9272 753.529 59.9619 757.89 Q54.9649 762.218 46.212 762.218 Q37.4273 762.218 32.4621 757.89 Q27.4968 753.529 27.4968 745.859 Z" fill="#000000" fill-rule="nonzero" fill-opacity="1" /><path clip-path="url(#clip420)" d="M33.7671 696.333 L14.479 696.333 L14.479 690.477 L64.0042 690.477 L64.0042 696.333 L58.657 696.333 Q61.8398 698.179 63.3994 701.012 Q64.9272 703.813 64.9272 707.76 Q64.9272 714.221 59.771 718.295 Q54.6147 722.337 46.212 722.337 Q37.8093 722.337 32.6531 718.295 Q27.4968 714.221 27.4968 707.76 Q27.4968 703.813 29.0564 701.012 Q30.5842 698.179 33.7671 696.333 M46.212 716.29 Q52.6732 716.29 56.3653 713.648 Q60.0256 710.975 60.0256 706.328 Q60.0256 701.681 56.3653 699.007 Q52.6732 696.333 46.212 696.333 Q39.7508 696.333 36.0905 699.007 Q32.3984 701.681 32.3984 706.328 Q32.3984 710.975 36.0905 713.648 Q39.7508 716.29 46.212 716.29 Z" fill="#000000" fill-rule="nonzero" fill-opacity="1" /><path clip-path="url(#clip420)" d="M20.1444 621.855 L26.9239 621.855 Q23.9002 625.101 22.4043 628.793 Q20.9083 632.454 20.9083 636.591 Q20.9083 644.739 25.9054 649.068 Q30.8707 653.397 40.2919 653.397 Q49.6813 653.397 54.6784 649.068 Q59.6436 644.739 59.6436 636.591 Q59.6436 632.454 58.1477 628.793 Q56.6518 625.101 53.6281 621.855 L60.3439 621.855 Q62.6355 625.228 63.7814 629.016 Q64.9272 632.772 64.9272 636.973 Q64.9272 647.763 58.3387 653.97 Q51.7183 660.176 40.2919 660.176 Q28.8336 660.176 22.2451 653.97 Q15.6248 647.763 15.6248 636.973 Q15.6248 632.708 16.7706 628.952 Q17.8846 625.165 20.1444 621.855 Z" fill="#000000" fill-rule="nonzero" fill-opacity="1" /><path clip-path="url(#clip420)" d="M16.4842 611.924 L16.4842 605.495 L64.0042 605.495 L64.0042 611.924 L16.4842 611.924 Z" fill="#000000" fill-rule="nonzero" fill-opacity="1" /><path clip-path="url(#clip420)" d="M29.4065 570.229 L34.9447 570.229 Q33.6716 572.711 33.035 575.385 Q32.3984 578.059 32.3984 580.923 Q32.3984 585.284 33.7352 587.48 Q35.072 589.644 37.7456 589.644 Q39.7826 589.644 40.9603 588.085 Q42.1061 586.525 43.1565 581.814 L43.6021 579.809 Q44.9389 573.571 47.3897 570.961 Q49.8086 568.319 54.1691 568.319 Q59.1344 568.319 62.0308 572.266 Q64.9272 576.181 64.9272 583.056 Q64.9272 585.92 64.3543 589.039 Q63.8132 592.127 62.6992 595.564 L56.6518 595.564 Q58.3387 592.318 59.198 589.167 Q60.0256 586.016 60.0256 582.928 Q60.0256 578.791 58.6251 576.563 Q57.1929 574.335 54.6147 574.335 Q52.2276 574.335 50.9545 575.958 Q49.6813 577.549 48.5037 582.992 L48.0262 585.029 Q46.8804 590.472 44.5251 592.891 Q42.138 595.31 38.0002 595.31 Q32.9713 595.31 30.2341 591.745 Q27.4968 588.18 27.4968 581.623 Q27.4968 578.377 27.9743 575.512 Q28.4517 572.648 29.4065 570.229 Z" fill="#000000" fill-rule="nonzero" fill-opacity="1" /><path clip-path="url(#clip420)" d="M14.479 520.226 L19.3487 520.226 L19.3487 525.828 Q19.3487 528.979 20.6219 530.22 Q21.895 531.43 25.2052 531.43 L28.3562 531.43 L28.3562 521.786 L32.9077 521.786 L32.9077 531.43 L64.0042 531.43 L64.0042 537.318 L32.9077 537.318 L32.9077 542.92 L28.3562 542.92 L28.3562 537.318 L25.8736 537.318 Q19.9216 537.318 17.2162 534.549 Q14.479 531.78 14.479 525.764 L14.479 520.226 Z" fill="#000000" fill-rule="nonzero" fill-opacity="1" /><path clip-path="url(#clip420)" d="M32.4621 501.511 Q32.4621 506.222 36.1542 508.959 Q39.8145 511.696 46.212 511.696 Q52.6095 511.696 56.3017 508.991 Q59.9619 506.253 59.9619 501.511 Q59.9619 496.832 56.2698 494.095 Q52.5777 491.358 46.212 491.358 Q39.8781 491.358 36.186 494.095 Q32.4621 496.832 32.4621 501.511 M27.4968 501.511 Q27.4968 493.872 32.4621 489.512 Q37.4273 485.151 46.212 485.151 Q54.9649 485.151 59.9619 489.512 Q64.9272 493.872 64.9272 501.511 Q64.9272 509.182 59.9619 513.542 Q54.9649 517.871 46.212 517.871 Q37.4273 517.871 32.4621 513.542 Q27.4968 509.182 27.4968 501.511 Z" fill="#000000" fill-rule="nonzero" fill-opacity="1" /><path clip-path="url(#clip420)" d="M33.8307 454.787 Q33.2578 455.773 33.0032 456.951 Q32.7167 458.097 32.7167 459.497 Q32.7167 464.463 35.9632 467.136 Q39.1779 469.778 45.2253 469.778 L64.0042 469.778 L64.0042 475.666 L28.3562 475.666 L28.3562 469.778 L33.8944 469.778 Q30.6479 467.932 29.0883 464.972 Q27.4968 462.012 27.4968 457.779 Q27.4968 457.174 27.5923 456.442 Q27.656 455.71 27.8151 454.819 L33.8307 454.787 Z" fill="#000000" fill-rule="nonzero" fill-opacity="1" /><path clip-path="url(#clip420)" d="M35.1993 400.169 Q31.2526 397.973 29.3747 394.917 Q27.4968 391.862 27.4968 387.724 Q27.4968 382.154 31.4117 379.13 Q35.2948 376.107 42.4881 376.107 L64.0042 376.107 L64.0042 381.995 L42.679 381.995 Q37.5546 381.995 35.072 383.809 Q32.5894 385.623 32.5894 389.347 Q32.5894 393.899 35.6131 396.54 Q38.6368 399.182 43.8567 399.182 L64.0042 399.182 L64.0042 405.071 L42.679 405.071 Q37.5228 405.071 35.072 406.885 Q32.5894 408.699 32.5894 412.487 Q32.5894 416.974 35.6449 419.616 Q38.6686 422.258 43.8567 422.258 L64.0042 422.258 L64.0042 428.146 L28.3562 428.146 L28.3562 422.258 L33.8944 422.258 Q30.616 420.253 29.0564 417.452 Q27.4968 414.651 27.4968 410.8 Q27.4968 406.917 29.4702 404.211 Q31.4436 401.474 35.1993 400.169 Z" fill="#000000" fill-rule="nonzero" fill-opacity="1" /><path clip-path="url(#clip420)" d="M44.7161 333.934 L47.5806 333.934 L47.5806 360.861 Q53.6281 360.479 56.8109 357.232 Q59.9619 353.954 59.9619 348.129 Q59.9619 344.755 59.1344 341.604 Q58.3069 338.422 56.6518 335.302 L62.1899 335.302 Q63.5267 338.453 64.227 341.764 Q64.9272 345.074 64.9272 348.479 Q64.9272 357.009 59.9619 362.007 Q54.9967 366.972 46.5303 366.972 Q37.7774 366.972 32.6531 362.261 Q27.4968 357.519 27.4968 349.498 Q27.4968 342.305 32.1438 338.135 Q36.7589 333.934 44.7161 333.934 M42.9973 339.79 Q38.1912 339.854 35.3266 342.496 Q32.4621 345.106 32.4621 349.434 Q32.4621 354.336 35.2312 357.296 Q38.0002 360.224 43.0292 360.67 L42.9973 339.79 Z" fill="#000000" fill-rule="nonzero" fill-opacity="1" /><path clip-path="url(#clip420)" d="M46.0847 308.121 Q46.0847 315.219 47.7079 317.956 Q49.3312 320.693 53.2461 320.693 Q56.3653 320.693 58.2114 318.656 Q60.0256 316.587 60.0256 313.054 Q60.0256 308.184 56.5881 305.256 Q53.1188 302.296 47.3897 302.296 L46.0847 302.296 L46.0847 308.121 M43.6657 296.44 L64.0042 296.44 L64.0042 302.296 L58.5933 302.296 Q61.8398 304.301 63.3994 307.293 Q64.9272 310.285 64.9272 314.614 Q64.9272 320.088 61.8716 323.335 Q58.7843 326.55 53.6281 326.55 Q47.6125 326.55 44.5569 322.539 Q41.5014 318.497 41.5014 310.508 L41.5014 302.296 L40.9285 302.296 Q36.8862 302.296 34.6901 304.97 Q32.4621 307.612 32.4621 312.418 Q32.4621 315.473 33.1941 318.37 Q33.9262 321.266 35.3903 323.94 L29.9795 323.94 Q28.7381 320.725 28.1334 317.701 Q27.4968 314.677 27.4968 311.813 Q27.4968 304.079 31.5072 300.259 Q35.5176 296.44 43.6657 296.44 Z" fill="#000000" fill-rule="nonzero" fill-opacity="1" /><path clip-path="url(#clip420)" d="M42.4881 254.744 L64.0042 254.744 L64.0042 260.601 L42.679 260.601 Q37.6183 260.601 35.1038 262.574 Q32.5894 264.548 32.5894 268.494 Q32.5894 273.237 35.6131 275.974 Q38.6368 278.711 43.8567 278.711 L64.0042 278.711 L64.0042 284.6 L28.3562 284.6 L28.3562 278.711 L33.8944 278.711 Q30.6797 276.611 29.0883 273.778 Q27.4968 270.913 27.4968 267.189 Q27.4968 261.046 31.3163 257.895 Q35.1038 254.744 42.4881 254.744 Z" fill="#000000" fill-rule="nonzero" fill-opacity="1" /><path clip-path="url(#clip422)" d="M262.551 1384.24 L273.002 1367.23 L283.453 1350.32 L293.904 1333.52 L304.355 1316.81 L314.806 1300.21 L325.257 1283.71 L335.708 1267.31 L346.159 1251 L356.61 1234.8 L367.061 1218.7 L377.512 1202.7 L387.964 1186.81 L398.415 1171.01 L408.866 1155.31 L419.317 1139.72 L429.768 1124.22 L440.219 1108.83 L450.67 1093.54 L461.121 1078.34 L471.572 1063.25 L482.023 1048.26 L492.474 1033.37 L502.925 1018.58 L513.376 1003.89 L523.827 989.305 L534.278 974.819 L544.729 960.433 L555.18 946.148 L565.631 931.963 L576.082 917.88 L586.533 903.897 L596.984 890.016 L607.435 876.235 L617.886 862.554 L628.337 848.976 L638.788 835.497 L649.239 822.12 L659.69 808.844 L670.141 795.668 L680.592 782.594 L691.043 769.62 L701.494 756.747 L711.945 743.975 L722.396 731.304 L732.847 718.733 L743.298 706.264 L753.749 693.895 L764.2 681.627 L774.651 669.46 L785.102 657.394 L795.553 645.428 L806.004 633.564 L816.455 621.8 L826.906 610.137 L837.358 598.575 L847.809 587.114 L858.26 575.754 L868.711 564.494 L879.162 553.336 L889.613 542.278 L900.064 531.321 L910.515 520.465 L920.966 509.71 L931.417 499.055 L941.868 488.502 L952.319 478.049 L962.77 467.697 L973.221 457.446 L983.672 447.296 L994.123 437.247 L1004.57 427.298 L1015.02 417.451 L1025.48 407.704 L1035.93 399.033 L1046.38 392.283 L1056.83 386.25 L1067.28 380.407 L1077.73 374.754 L1088.18 369.289 L1098.63 364.014 L1109.08 358.928 L1119.54 354.032 L1129.99 349.325 L1140.44 344.807 L1150.89 340.478 L1161.34 336.339 L1171.79 332.389 L1182.24 328.629 L1192.69 325.057 L1203.14 321.676 L1213.59 318.483 L1224.05 315.48 L1234.5 312.665 L1244.95 310.041 L1255.4 307.605 L1265.85 305.359 L1276.3 303.302 L1286.75 301.435 L1297.2 297.907 L1307.65 298.268 L1318.1 298.837 L1328.56 299.613 L1339.01 300.598 L1349.46 301.79 L1359.91 303.19 L1370.36 304.798 L1380.81 306.615 L1391.26 308.639 L1401.71 310.87 L1412.16 313.31 L1422.61 315.958 L1433.07 318.813 L1443.52 321.877 L1453.97 325.148 L1464.42 328.628 L1474.87 332.315 L1485.32 336.21 L1495.77 340.313 L1506.22 344.624 L1516.67 349.143 L1527.13 353.869 L1537.58 358.804 L1548.03 363.946 L1558.48 369.297 L1568.93 374.855 L1579.38 380.621 L1589.83 386.595 L1600.28 392.777 L1610.73 399.167 L1621.18 405.765 L1631.64 412.57 L1642.09 419.584 L1652.54 426.805 L1662.99 434.235 L1673.44 441.872 L1683.89 449.717 L1694.34 457.77 L1704.79 466.031 L1715.24 474.5 L1725.69 483.177 L1736.15 492.062 L1746.6 501.154 L1757.05 510.455 L1767.5 519.963 L1777.95 529.679 L1788.4 539.603 L1798.85 549.735 L1809.3 560.075 L1819.75 570.623 L1830.2 581.379 L1840.66 592.343 L1851.11 603.514 L1861.56 614.894 L1872.01 626.481 L1882.46 638.276 L1892.91 650.279 L1903.36 662.49 L1913.81 674.909 L1924.26 687.536 L1934.71 700.371 L1945.17 713.414 L1955.62 726.664 L1966.07 740.123 L1976.52 753.789 L1986.97 767.663 L1997.42 781.745 L2007.87 796.035 L2018.32 810.533 L2028.77 825.239 L2039.23 840.153 L2049.68 855.275 L2060.13 870.604 L2070.58 886.141 L2081.03 901.887 L2091.48 917.84 L2101.93 934.001 L2112.38 950.37 L2122.83 966.947 L2133.28 983.732 L2143.74 1000.72 L2154.19 1017.93 L2164.64 1035.33 L2175.09 1052.95 L2185.54 1070.77 L2195.99 1088.81 L2206.44 1107.05 L2216.89 1125.5 L2227.34 1144.15 L2237.79 1163.01 L2248.25 1182.09 L2258.7 1201.37 L2269.15 1220.85 L2279.6 1240.55 L2290.05 1260.45 L2300.5 1280.56 L2310.95 1300.88 L2321.4 1321.41 L2331.85 1342.14 L2342.3 1363.09 L2352.76 1384.24 L2352.76 1384.24 L2342.3 1362.63 L2331.85 1341.21 L2321.4 1319.98 L2310.95 1298.95 L2300.5 1278.11 L2290.05 1257.47 L2279.6 1237.02 L2269.15 1216.76 L2258.7 1196.7 L2248.25 1176.83 L2237.79 1157.16 L2227.34 1137.68 L2216.89 1118.39 L2206.44 1099.3 L2195.99 1080.4 L2185.54 1061.69 L2175.09 1043.18 L2164.64 1024.86 L2154.19 1006.74 L2143.74 988.81 L2133.28 971.074 L2122.83 953.531 L2112.38 936.183 L2101.93 919.028 L2091.48 902.068 L2081.03 885.301 L2070.58 868.728 L2060.13 852.349 L2049.68 836.163 L2039.23 820.172 L2028.77 804.374 L2018.32 788.77 L2007.87 773.36 L1997.42 758.144 L1986.97 743.122 L1976.52 728.293 L1966.07 713.659 L1955.62 699.218 L1945.17 684.971 L1934.71 670.918 L1924.26 657.058 L1913.81 643.393 L1903.36 629.921 L1892.91 616.644 L1882.46 603.56 L1872.01 590.67 L1861.56 577.974 L1851.11 565.471 L1840.66 553.163 L1830.2 541.048 L1819.75 529.127 L1809.3 517.4 L1798.85 505.867 L1788.4 494.528 L1777.95 483.382 L1767.5 472.43 L1757.05 461.673 L1746.6 451.109 L1736.15 440.738 L1725.69 430.562 L1715.24 420.58 L1704.79 410.791 L1694.34 401.196 L1683.89 391.795 L1673.44 382.588 L1662.99 373.575 L1652.54 364.756 L1642.09 356.13 L1631.64 347.698 L1621.18 339.461 L1610.73 331.416 L1600.28 323.566 L1589.83 315.91 L1579.38 308.447 L1568.93 301.179 L1558.48 294.104 L1548.03 287.223 L1537.58 280.536 L1527.13 274.042 L1516.67 267.743 L1506.22 261.637 L1495.77 255.726 L1485.32 250.008 L1474.87 244.484 L1464.42 239.153 L1453.97 234.017 L1443.52 229.074 L1433.07 224.326 L1422.61 219.771 L1412.16 215.41 L1401.71 211.242 L1391.26 207.269 L1380.81 203.489 L1370.36 199.904 L1359.91 196.512 L1349.46 193.314 L1339.01 190.31 L1328.56 187.499 L1318.1 184.883 L1307.65 182.46 L1297.2 180.232 L1286.75 196.616 L1276.3 203.845 L1265.85 211.176 L1255.4 218.606 L1244.95 226.138 L1234.5 233.77 L1224.05 241.504 L1213.59 249.338 L1203.14 257.273 L1192.69 265.308 L1182.24 273.445 L1171.79 281.682 L1161.34 290.02 L1150.89 298.459 L1140.44 306.999 L1129.99 315.64 L1119.54 324.381 L1109.08 333.223 L1098.63 342.166 L1088.18 351.21 L1077.73 360.355 L1067.28 369.6 L1056.83 378.946 L1046.38 388.393 L1035.93 397.903 L1025.48 404.915 L1015.02 411.515 L1004.57 418.305 L994.123 425.284 L983.672 432.452 L973.221 439.809 L962.77 447.356 L952.319 455.092 L941.868 463.018 L931.417 471.132 L920.966 479.436 L910.515 487.93 L900.064 496.612 L889.613 505.484 L879.162 514.546 L868.711 523.796 L858.26 533.236 L847.809 542.865 L837.358 552.684 L826.906 562.692 L816.455 572.889 L806.004 583.275 L795.553 593.851 L785.102 604.616 L774.651 615.57 L764.2 626.714 L753.749 638.047 L743.298 649.569 L732.847 661.281 L722.396 673.182 L711.945 685.272 L701.494 697.551 L691.043 710.02 L680.592 722.678 L670.141 735.526 L659.69 748.563 L649.239 761.789 L638.788 775.204 L628.337 788.809 L617.886 802.603 L607.435 816.586 L596.984 830.759 L586.533 845.121 L576.082 859.672 L565.631 874.412 L555.18 889.342 L544.729 904.461 L534.278 919.77 L523.827 935.268 L513.376 950.955 L502.925 966.831 L492.474 982.897 L482.023 999.152 L471.572 1015.6 L461.121 1032.23 L450.67 1049.05 L440.219 1066.07 L429.768 1083.27 L419.317 1100.66 L408.866 1118.24 L398.415 1136.01 L387.964 1153.97 L377.512 1172.11 L367.061 1190.45 L356.61 1208.98 L346.159 1227.69 L335.708 1246.6 L325.257 1265.69 L314.806 1284.98 L304.355 1304.45 L293.904 1324.11 L283.453 1343.97 L273.002 1364.01 L262.551 1384.24  Z" fill="#800080" fill-rule="evenodd" fill-opacity="0.2"/>
<polyline clip-path="url(#clip422)" style="stroke:#800080; stroke-linecap:round; stroke-linejoin:round; stroke-width:0; stroke-opacity:1; fill:none" points="262.551,1384.24 273.002,1367.23 283.453,1350.32 293.904,1333.52 304.355,1316.81 314.806,1300.21 325.257,1283.71 335.708,1267.31 346.159,1251 356.61,1234.8 367.061,1218.7 377.512,1202.7 387.964,1186.81 398.415,1171.01 408.866,1155.31 419.317,1139.72 429.768,1124.22 440.219,1108.83 450.67,1093.54 461.121,1078.34 471.572,1063.25 482.023,1048.26 492.474,1033.37 502.925,1018.58 513.376,1003.89 523.827,989.305 534.278,974.819 544.729,960.433 555.18,946.148 565.631,931.963 576.082,917.88 586.533,903.897 596.984,890.016 607.435,876.235 617.886,862.554 628.337,848.976 638.788,835.497 649.239,822.12 659.69,808.844 670.141,795.668 680.592,782.594 691.043,769.62 701.494,756.747 711.945,743.975 722.396,731.304 732.847,718.733 743.298,706.264 753.749,693.895 764.2,681.627 774.651,669.46 785.102,657.394 795.553,645.428 806.004,633.564 816.455,621.8 826.906,610.137 837.358,598.575 847.809,587.114 858.26,575.754 868.711,564.494 879.162,553.336 889.613,542.278 900.064,531.321 910.515,520.465 920.966,509.71 931.417,499.055 941.868,488.502 952.319,478.049 962.77,467.697 973.221,457.446 983.672,447.296 994.123,437.247 1004.57,427.298 1015.02,417.451 1025.48,407.704 1035.93,399.033 1046.38,392.283 1056.83,386.25 1067.28,380.407 1077.73,374.754 1088.18,369.289 1098.63,364.014 1109.08,358.928 1119.54,354.032 1129.99,349.325 1140.44,344.807 1150.89,340.478 1161.34,336.339 1171.79,332.389 1182.24,328.629 1192.69,325.057 1203.14,321.676 1213.59,318.483 1224.05,315.48 1234.5,312.665 1244.95,310.041 1255.4,307.605 1265.85,305.359 1276.3,303.302 1286.75,301.435 1297.2,297.907 1307.65,298.268 1318.1,298.837 1328.56,299.613 1339.01,300.598 1349.46,301.79 1359.91,303.19 1370.36,304.798 1380.81,306.615 1391.26,308.639 1401.71,310.87 1412.16,313.31 1422.61,315.958 1433.07,318.813 1443.52,321.877 1453.97,325.148 1464.42,328.628 1474.87,332.315 1485.32,336.21 1495.77,340.313 1506.22,344.624 1516.67,349.143 1527.13,353.869 1537.58,358.804 1548.03,363.946 1558.48,369.297 1568.93,374.855 1579.38,380.621 1589.83,386.595 1600.28,392.777 1610.73,399.167 1621.18,405.765 1631.64,412.57 1642.09,419.584 1652.54,426.805 1662.99,434.235 1673.44,441.872 1683.89,449.717 1694.34,457.77 1704.79,466.031 1715.24,474.5 1725.69,483.177 1736.15,492.062 1746.6,501.154 1757.05,510.455 1767.5,519.963 1777.95,529.679 1788.4,539.603 1798.85,549.735 1809.3,560.075 1819.75,570.623 1830.2,581.379 1840.66,592.343 1851.11,603.514 1861.56,614.894 1872.01,626.481 1882.46,638.276 1892.91,650.279 1903.36,662.49 1913.81,674.909 1924.26,687.536 1934.71,700.371 1945.17,713.414 1955.62,726.664 1966.07,740.123 1976.52,753.789 1986.97,767.663 1997.42,781.745 2007.87,796.035 2018.32,810.533 2028.77,825.239 2039.23,840.153 2049.68,855.275 2060.13,870.604 2070.58,886.141 2081.03,901.887 2091.48,917.84 2101.93,934.001 2112.38,950.37 2122.83,966.947 2133.28,983.732 2143.74,1000.72 2154.19,1017.93 2164.64,1035.33 2175.09,1052.95 2185.54,1070.77 2195.99,1088.81 2206.44,1107.05 2216.89,1125.5 2227.34,1144.15 2237.79,1163.01 2248.25,1182.09 2258.7,1201.37 2269.15,1220.85 2279.6,1240.55 2290.05,1260.45 2300.5,1280.56 2310.95,1300.88 2321.4,1321.41 2331.85,1342.14 2342.3,1363.09 2352.76,1384.24 "/>
<polyline clip-path="url(#clip422)" style="stroke:#551a8b; stroke-linecap:round; stroke-linejoin:round; stroke-width:4; stroke-opacity:1; fill:none" points="262.551,1384.24 273.002,1367.23 283.453,1350.32 293.904,1333.51 304.355,1316.81 314.806,1300.2 325.257,1283.7 335.708,1267.29 346.159,1250.99 356.61,1234.79 367.061,1218.69 377.512,1202.69 387.964,1186.79 398.415,1170.99 408.866,1155.29 419.317,1139.69 429.768,1124.2 440.219,1108.8 450.67,1093.51 461.121,1078.32 471.572,1063.22 482.023,1048.23 492.474,1033.34 502.925,1018.55 513.376,1003.86 523.827,989.273 534.278,974.785 544.729,960.399 555.18,946.113 565.631,931.928 576.082,917.844 586.533,903.861 596.984,889.979 607.435,876.197 617.886,862.517 628.337,848.937 638.788,835.458 649.239,822.08 659.69,808.803 670.141,795.627 680.592,782.552 691.043,769.577 701.494,756.703 711.945,743.931 722.396,731.259 732.847,718.688 743.298,706.217 753.749,693.848 764.2,681.58 774.651,669.412 785.102,657.345 795.553,645.379 806.004,633.514 816.455,621.75 826.906,610.087 837.358,598.524 847.809,587.062 858.26,575.702 868.711,564.442 879.162,553.283 889.613,542.225 900.064,531.267 910.515,520.411 920.966,509.655 931.417,499 941.868,488.447 952.319,477.994 962.77,467.641 973.221,457.39 983.672,447.24 994.123,437.19 1004.57,427.241 1015.02,417.393 1025.48,407.646 1035.93,398 1046.38,388.455 1056.83,379.011 1067.28,369.667 1077.73,360.424 1088.18,351.283 1098.63,342.242 1109.08,333.301 1119.54,324.462 1129.99,315.724 1140.44,307.086 1150.89,298.55 1161.34,290.114 1171.79,281.779 1182.24,273.545 1192.69,265.412 1203.14,257.379 1213.59,249.448 1224.05,241.617 1234.5,233.887 1244.95,226.258 1255.4,218.73 1265.85,211.303 1276.3,203.977 1286.75,196.751 1297.2,180.375 1307.65,182.603 1318.1,185.024 1328.56,187.639 1339.01,190.448 1349.46,193.451 1359.91,196.648 1370.36,200.039 1380.81,203.623 1391.26,207.401 1401.71,211.373 1412.16,215.539 1422.61,219.899 1433.07,224.452 1443.52,229.2 1453.97,234.141 1464.42,239.276 1474.87,244.605 1485.32,250.128 1495.77,255.845 1506.22,261.755 1516.67,267.859 1527.13,274.157 1537.58,280.649 1548.03,287.335 1558.48,294.215 1568.93,301.288 1579.38,308.556 1589.83,316.017 1600.28,323.672 1610.73,331.521 1621.18,339.563 1631.64,347.8 1642.09,356.23 1652.54,364.854 1662.99,373.672 1673.44,382.684 1683.89,391.89 1694.34,401.289 1704.79,410.883 1715.24,420.67 1725.69,430.651 1736.15,440.826 1746.6,451.195 1757.05,461.757 1767.5,472.514 1777.95,483.464 1788.4,494.608 1798.85,505.946 1809.3,517.478 1819.75,529.203 1830.2,541.123 1840.66,553.236 1851.11,565.543 1861.56,578.044 1872.01,590.739 1882.46,603.628 1892.91,616.71 1903.36,629.986 1913.81,643.456 1924.26,657.12 1934.71,670.978 1945.17,685.03 1955.62,699.275 1966.07,713.715 1976.52,728.348 1986.97,743.175 1997.42,758.196 2007.87,773.41 2018.32,788.819 2028.77,804.421 2039.23,820.218 2049.68,836.208 2060.13,852.391 2070.58,868.769 2081.03,885.341 2091.48,902.106 2101.93,919.065 2112.38,936.218 2122.83,953.565 2133.28,971.106 2143.74,988.841 2154.19,1006.77 2164.64,1024.89 2175.09,1043.21 2185.54,1061.72 2195.99,1080.42 2206.44,1099.32 2216.89,1118.41 2227.34,1137.7 2237.79,1157.17 2248.25,1176.85 2258.7,1196.71 2269.15,1216.77 2279.6,1237.03 2290.05,1257.48 2300.5,1278.12 2310.95,1298.96 2321.4,1319.99 2331.85,1341.21 2342.3,1362.63 2352.76,1384.24 "/>
<line clip-path="url(#clip422)" x1="356.61" y1="1242.27" x2="344.61" y2="1230.27" style="stroke:#000000; stroke-width:3.2; stroke-opacity:1"/>
<line clip-path="url(#clip422)" x1="356.61" y1="1242.27" x2="344.61" y2="1254.27" style="stroke:#000000; stroke-width:3.2; stroke-opacity:1"/>
<line clip-path="url(#clip422)" x1="356.61" y1="1242.27" x2="368.61" y2="1254.27" style="stroke:#000000; stroke-width:3.2; stroke-opacity:1"/>
<line clip-path="url(#clip422)" x1="356.61" y1="1242.27" x2="368.61" y2="1230.27" style="stroke:#000000; stroke-width:3.2; stroke-opacity:1"/>
<line clip-path="url(#clip422)" x1="461.121" y1="1077.64" x2="449.121" y2="1065.64" style="stroke:#000000; stroke-width:3.2; stroke-opacity:1"/>
<line clip-path="url(#clip422)" x1="461.121" y1="1077.64" x2="449.121" y2="1089.64" style="stroke:#000000; stroke-width:3.2; stroke-opacity:1"/>
<line clip-path="url(#clip422)" x1="461.121" y1="1077.64" x2="473.121" y2="1089.64" style="stroke:#000000; stroke-width:3.2; stroke-opacity:1"/>
<line clip-path="url(#clip422)" x1="461.121" y1="1077.64" x2="473.121" y2="1065.64" style="stroke:#000000; stroke-width:3.2; stroke-opacity:1"/>
<line clip-path="url(#clip422)" x1="565.631" y1="999.504" x2="553.631" y2="987.504" style="stroke:#000000; stroke-width:3.2; stroke-opacity:1"/>
<line clip-path="url(#clip422)" x1="565.631" y1="999.504" x2="553.631" y2="1011.5" style="stroke:#000000; stroke-width:3.2; stroke-opacity:1"/>
<line clip-path="url(#clip422)" x1="565.631" y1="999.504" x2="577.631" y2="1011.5" style="stroke:#000000; stroke-width:3.2; stroke-opacity:1"/>
<line clip-path="url(#clip422)" x1="565.631" y1="999.504" x2="577.631" y2="987.504" style="stroke:#000000; stroke-width:3.2; stroke-opacity:1"/>
<line clip-path="url(#clip422)" x1="670.141" y1="808.384" x2="658.141" y2="796.384" style="stroke:#000000; stroke-width:3.2; stroke-opacity:1"/>
<line clip-path="url(#clip422)" x1="670.141" y1="808.384" x2="658.141" y2="820.384" style="stroke:#000000; stroke-width:3.2; stroke-opacity:1"/>
<line clip-path="url(#clip422)" x1="670.141" y1="808.384" x2="682.141" y2="820.384" style="stroke:#000000; stroke-width:3.2; stroke-opacity:1"/>
<line clip-path="url(#clip422)" x1="670.141" y1="808.384" x2="682.141" y2="796.384" style="stroke:#000000; stroke-width:3.2; stroke-opacity:1"/>
<line clip-path="url(#clip422)" x1="774.651" y1="512.918" x2="762.651" y2="500.918" style="stroke:#000000; stroke-width:3.2; stroke-opacity:1"/>
<line clip-path="url(#clip422)" x1="774.651" y1="512.918" x2="762.651" y2="524.918" style="stroke:#000000; stroke-width:3.2; stroke-opacity:1"/>
<line clip-path="url(#clip422)" x1="774.651" y1="512.918" x2="786.651" y2="524.918" style="stroke:#000000; stroke-width:3.2; stroke-opacity:1"/>
<line clip-path="url(#clip422)" x1="774.651" y1="512.918" x2="786.651" y2="500.918" style="stroke:#000000; stroke-width:3.2; stroke-opacity:1"/>
<line clip-path="url(#clip422)" x1="879.162" y1="781.892" x2="867.162" y2="769.892" style="stroke:#000000; stroke-width:3.2; stroke-opacity:1"/>
<line clip-path="url(#clip422)" x1="879.162" y1="781.892" x2="867.162" y2="793.892" style="stroke:#000000; stroke-width:3.2; stroke-opacity:1"/>
<line clip-path="url(#clip422)" x1="879.162" y1="781.892" x2="891.162" y2="793.892" style="stroke:#000000; stroke-width:3.2; stroke-opacity:1"/>
<line clip-path="url(#clip422)" x1="879.162" y1="781.892" x2="891.162" y2="769.892" style="stroke:#000000; stroke-width:3.2; stroke-opacity:1"/>
<line clip-path="url(#clip422)" x1="983.672" y1="406.77" x2="971.672" y2="394.77" style="stroke:#000000; stroke-width:3.2; stroke-opacity:1"/>
<line clip-path="url(#clip422)" x1="983.672" y1="406.77" x2="971.672" y2="418.77" style="stroke:#000000; stroke-width:3.2; stroke-opacity:1"/>
<line clip-path="url(#clip422)" x1="983.672" y1="406.77" x2="995.672" y2="418.77" style="stroke:#000000; stroke-width:3.2; stroke-opacity:1"/>
<line clip-path="url(#clip422)" x1="983.672" y1="406.77" x2="995.672" y2="394.77" style="stroke:#000000; stroke-width:3.2; stroke-opacity:1"/>
<line clip-path="url(#clip422)" x1="1088.18" y1="129.452" x2="1076.18" y2="117.452" style="stroke:#000000; stroke-width:3.2; stroke-opacity:1"/>
<line clip-path="url(#clip422)" x1="1088.18" y1="129.452" x2="1076.18" y2="141.452" style="stroke:#000000; stroke-width:3.2; stroke-opacity:1"/>
<line clip-path="url(#clip422)" x1="1088.18" y1="129.452" x2="1100.18" y2="141.452" style="stroke:#000000; stroke-width:3.2; stroke-opacity:1"/>
<line clip-path="url(#clip422)" x1="1088.18" y1="129.452" x2="1100.18" y2="117.452" style="stroke:#000000; stroke-width:3.2; stroke-opacity:1"/>
<line clip-path="url(#clip422)" x1="1192.69" y1="719.936" x2="1180.69" y2="707.936" style="stroke:#000000; stroke-width:3.2; stroke-opacity:1"/>
<line clip-path="url(#clip422)" x1="1192.69" y1="719.936" x2="1180.69" y2="731.936" style="stroke:#000000; stroke-width:3.2; stroke-opacity:1"/>
<line clip-path="url(#clip422)" x1="1192.69" y1="719.936" x2="1204.69" y2="731.936" style="stroke:#000000; stroke-width:3.2; stroke-opacity:1"/>
<line clip-path="url(#clip422)" x1="1192.69" y1="719.936" x2="1204.69" y2="707.936" style="stroke:#000000; stroke-width:3.2; stroke-opacity:1"/>
<line clip-path="url(#clip422)" x1="1297.2" y1="512.737" x2="1285.2" y2="500.737" style="stroke:#000000; stroke-width:3.2; stroke-opacity:1"/>
<line clip-path="url(#clip422)" x1="1297.2" y1="512.737" x2="1285.2" y2="524.737" style="stroke:#000000; stroke-width:3.2; stroke-opacity:1"/>
<line clip-path="url(#clip422)" x1="1297.2" y1="512.737" x2="1309.2" y2="524.737" style="stroke:#000000; stroke-width:3.2; stroke-opacity:1"/>
<line clip-path="url(#clip422)" x1="1297.2" y1="512.737" x2="1309.2" y2="500.737" style="stroke:#000000; stroke-width:3.2; stroke-opacity:1"/>
<line clip-path="url(#clip422)" x1="1401.71" y1="96.3194" x2="1389.71" y2="84.3194" style="stroke:#000000; stroke-width:3.2; stroke-opacity:1"/>
<line clip-path="url(#clip422)" x1="1401.71" y1="96.3194" x2="1389.71" y2="108.319" style="stroke:#000000; stroke-width:3.2; stroke-opacity:1"/>
<line clip-path="url(#clip422)" x1="1401.71" y1="96.3194" x2="1413.71" y2="108.319" style="stroke:#000000; stroke-width:3.2; stroke-opacity:1"/>
<line clip-path="url(#clip422)" x1="1401.71" y1="96.3194" x2="1413.71" y2="84.3194" style="stroke:#000000; stroke-width:3.2; stroke-opacity:1"/>
<line clip-path="url(#clip422)" x1="1506.22" y1="354.041" x2="1494.22" y2="342.041" style="stroke:#000000; stroke-width:3.2; stroke-opacity:1"/>
<line clip-path="url(#clip422)" x1="1506.22" y1="354.041" x2="1494.22" y2="366.041" style="stroke:#000000; stroke-width:3.2; stroke-opacity:1"/>
<line clip-path="url(#clip422)" x1="1506.22" y1="354.041" x2="1518.22" y2="366.041" style="stroke:#000000; stroke-width:3.2; stroke-opacity:1"/>
<line clip-path="url(#clip422)" x1="1506.22" y1="354.041" x2="1518.22" y2="342.041" style="stroke:#000000; stroke-width:3.2; stroke-opacity:1"/>
<line clip-path="url(#clip422)" x1="1610.73" y1="226.747" x2="1598.73" y2="214.747" style="stroke:#000000; stroke-width:3.2; stroke-opacity:1"/>
<line clip-path="url(#clip422)" x1="1610.73" y1="226.747" x2="1598.73" y2="238.747" style="stroke:#000000; stroke-width:3.2; stroke-opacity:1"/>
<line clip-path="url(#clip422)" x1="1610.73" y1="226.747" x2="1622.73" y2="238.747" style="stroke:#000000; stroke-width:3.2; stroke-opacity:1"/>
<line clip-path="url(#clip422)" x1="1610.73" y1="226.747" x2="1622.73" y2="214.747" style="stroke:#000000; stroke-width:3.2; stroke-opacity:1"/>
<line clip-path="url(#clip422)" x1="1715.24" y1="382.034" x2="1703.24" y2="370.034" style="stroke:#000000; stroke-width:3.2; stroke-opacity:1"/>
<line clip-path="url(#clip422)" x1="1715.24" y1="382.034" x2="1703.24" y2="394.034" style="stroke:#000000; stroke-width:3.2; stroke-opacity:1"/>
<line clip-path="url(#clip422)" x1="1715.24" y1="382.034" x2="1727.24" y2="394.034" style="stroke:#000000; stroke-width:3.2; stroke-opacity:1"/>
<line clip-path="url(#clip422)" x1="1715.24" y1="382.034" x2="1727.24" y2="370.034" style="stroke:#000000; stroke-width:3.2; stroke-opacity:1"/>
<line clip-path="url(#clip422)" x1="1819.75" y1="289.815" x2="1807.75" y2="277.815" style="stroke:#000000; stroke-width:3.2; stroke-opacity:1"/>
<line clip-path="url(#clip422)" x1="1819.75" y1="289.815" x2="1807.75" y2="301.815" style="stroke:#000000; stroke-width:3.2; stroke-opacity:1"/>
<line clip-path="url(#clip422)" x1="1819.75" y1="289.815" x2="1831.75" y2="301.815" style="stroke:#000000; stroke-width:3.2; stroke-opacity:1"/>
<line clip-path="url(#clip422)" x1="1819.75" y1="289.815" x2="1831.75" y2="277.815" style="stroke:#000000; stroke-width:3.2; stroke-opacity:1"/>
<line clip-path="url(#clip422)" x1="1924.26" y1="830.815" x2="1912.26" y2="818.815" style="stroke:#000000; stroke-width:3.2; stroke-opacity:1"/>
<line clip-path="url(#clip422)" x1="1924.26" y1="830.815" x2="1912.26" y2="842.815" style="stroke:#000000; stroke-width:3.2; stroke-opacity:1"/>
<line clip-path="url(#clip422)" x1="1924.26" y1="830.815" x2="1936.26" y2="842.815" style="stroke:#000000; stroke-width:3.2; stroke-opacity:1"/>
<line clip-path="url(#clip422)" x1="1924.26" y1="830.815" x2="1936.26" y2="818.815" style="stroke:#000000; stroke-width:3.2; stroke-opacity:1"/>
<line clip-path="url(#clip422)" x1="2028.77" y1="659.011" x2="2016.77" y2="647.011" style="stroke:#000000; stroke-width:3.2; stroke-opacity:1"/>
<line clip-path="url(#clip422)" x1="2028.77" y1="659.011" x2="2016.77" y2="671.011" style="stroke:#000000; stroke-width:3.2; stroke-opacity:1"/>
<line clip-path="url(#clip422)" x1="2028.77" y1="659.011" x2="2040.77" y2="671.011" style="stroke:#000000; stroke-width:3.2; stroke-opacity:1"/>
<line clip-path="url(#clip422)" x1="2028.77" y1="659.011" x2="2040.77" y2="647.011" style="stroke:#000000; stroke-width:3.2; stroke-opacity:1"/>
<line clip-path="url(#clip422)" x1="2133.28" y1="805.912" x2="2121.28" y2="793.912" style="stroke:#000000; stroke-width:3.2; stroke-opacity:1"/>
<line clip-path="url(#clip422)" x1="2133.28" y1="805.912" x2="2121.28" y2="817.912" style="stroke:#000000; stroke-width:3.2; stroke-opacity:1"/>
<line clip-path="url(#clip422)" x1="2133.28" y1="805.912" x2="2145.28" y2="817.912" style="stroke:#000000; stroke-width:3.2; stroke-opacity:1"/>
<line clip-path="url(#clip422)" x1="2133.28" y1="805.912" x2="2145.28" y2="793.912" style="stroke:#000000; stroke-width:3.2; stroke-opacity:1"/>
<line clip-path="url(#clip422)" x1="2237.79" y1="1177.1" x2="2225.79" y2="1165.1" style="stroke:#000000; stroke-width:3.2; stroke-opacity:1"/>
<line clip-path="url(#clip422)" x1="2237.79" y1="1177.1" x2="2225.79" y2="1189.1" style="stroke:#000000; stroke-width:3.2; stroke-opacity:1"/>
<line clip-path="url(#clip422)" x1="2237.79" y1="1177.1" x2="2249.79" y2="1189.1" style="stroke:#000000; stroke-width:3.2; stroke-opacity:1"/>
<line clip-path="url(#clip422)" x1="2237.79" y1="1177.1" x2="2249.79" y2="1165.1" style="stroke:#000000; stroke-width:3.2; stroke-opacity:1"/>
<polyline clip-path="url(#clip422)" style="stroke:#000000; stroke-linecap:round; stroke-linejoin:round; stroke-width:4; stroke-opacity:1; fill:none" stroke-dasharray="16, 10" points="262.551,1384.24 273.002,1368.08 283.453,1351.99 293.904,1335.97 304.355,1320.01 314.806,1304.12 325.257,1288.29 335.708,1272.52 346.159,1256.82 356.61,1241.18 367.061,1225.61 377.512,1210.1 387.964,1194.66 398.415,1179.29 408.866,1163.97 419.317,1148.73 429.768,1133.54 440.219,1118.43 450.67,1103.37 461.121,1088.38 471.572,1073.46 482.023,1058.6 492.474,1043.81 502.925,1029.08 513.376,1014.41 523.827,999.811 534.278,985.276 544.729,970.805 555.18,956.399 565.631,942.058 576.082,927.782 586.533,913.57 596.984,899.423 607.435,885.341 617.886,871.323 628.337,857.371 638.788,843.483 649.239,829.66 659.69,815.901 670.141,802.208 680.592,788.579 691.043,775.014 701.494,761.515 711.945,748.08 722.396,734.71 732.847,721.405 743.298,708.164 753.749,694.989 764.2,681.878 774.651,668.832 785.102,655.85 795.553,642.933 806.004,630.081 816.455,617.294 826.906,604.571 837.358,591.914 847.809,579.321 858.26,566.792 868.711,554.329 879.162,541.93 889.613,529.596 900.064,517.327 910.515,505.122 920.966,492.982 931.417,480.907 941.868,468.897 952.319,456.951 962.77,445.071 973.221,433.255 983.672,421.503 994.123,409.817 1004.57,398.195 1015.02,386.638 1025.48,375.145 1035.93,363.718 1046.38,352.355 1056.83,341.057 1067.28,329.823 1077.73,318.655 1088.18,307.551 1098.63,296.512 1109.08,285.537 1119.54,274.628 1129.99,263.783 1140.44,253.003 1150.89,242.287 1161.34,231.637 1171.79,221.051 1182.24,210.53 1192.69,200.073 1203.14,189.682 1213.59,179.355 1224.05,169.092 1234.5,158.895 1244.95,148.762 1255.4,138.694 1265.85,128.691 1276.3,118.753 1286.75,108.879 1297.2,86.1857 1307.65,89.3258 1318.1,92.6602 1328.56,96.1889 1339.01,99.9117 1349.46,103.829 1359.91,107.94 1370.36,112.246 1380.81,116.746 1391.26,121.44 1401.71,126.328 1412.16,131.41 1422.61,136.687 1433.07,142.158 1443.52,147.824 1453.97,153.683 1464.42,159.737 1474.87,165.985 1485.32,172.427 1495.77,179.063 1506.22,185.894 1516.67,192.919 1527.13,200.138 1537.58,207.551 1548.03,215.159 1558.48,222.961 1568.93,230.957 1579.38,239.147 1589.83,247.532 1600.28,256.111 1610.73,264.884 1621.18,273.851 1631.64,283.012 1642.09,292.368 1652.54,301.918 1662.99,311.662 1673.44,321.601 1683.89,331.733 1694.34,342.06 1704.79,352.582 1715.24,363.297 1725.69,374.207 1736.15,385.31 1746.6,396.609 1757.05,408.101 1767.5,419.787 1777.95,431.668 1788.4,443.743 1798.85,456.013 1809.3,468.476 1819.75,481.134 1830.2,493.986 1840.66,507.032 1851.11,520.273 1861.56,533.707 1872.01,547.336 1882.46,561.16 1892.91,575.177 1903.36,589.389 1913.81,603.795 1924.26,618.395 1934.71,633.189 1945.17,648.178 1955.62,663.361 1966.07,678.738 1976.52,694.309 1986.97,710.074 1997.42,726.034 2007.87,742.188 2018.32,758.537 2028.77,775.079 2039.23,791.816 2049.68,808.747 2060.13,825.872 2070.58,843.191 2081.03,860.705 2091.48,878.413 2101.93,896.315 2112.38,914.412 2122.83,932.702 2133.28,951.187 2143.74,969.866 2154.19,988.74 2164.64,1007.81 2175.09,1027.07 2185.54,1046.53 2195.99,1066.18 2206.44,1086.02 2216.89,1106.06 2227.34,1126.29 2237.79,1146.72 2248.25,1167.34 2258.7,1188.16 2269.15,1209.17 2279.6,1230.37 2290.05,1251.77 2300.5,1273.36 2310.95,1295.15 2321.4,1317.13 2331.85,1339.3 2342.3,1361.67 2352.76,1384.24 "/>
</svg>
