<?xml version="1.0" encoding="utf-8"?>
<svg xmlns="http://www.w3.org/2000/svg" xmlns:xlink="http://www.w3.org/1999/xlink" width="600" height="400" viewBox="0 0 2400 1600">
<defs>
  <clipPath id="clip500">
    <rect x="0" y="0" width="2400" height="1600"/>
  </clipPath>
</defs>
<path clip-path="url(#clip500)" d="M0 1600 L2400 1600 L2400 8.88178e-14 L0 8.88178e-14  Z" fill="#ffffff" fill-rule="evenodd" fill-opacity="1"/>
<defs>
  <clipPath id="clip501">
    <rect x="480" y="0" width="1681" height="1600"/>
  </clipPath>
</defs>
<path clip-path="url(#clip500)" d="M262.502 1410.22 L2352.76 1410.22 L2352.76 47.2441 L262.502 47.2441  Z" fill="#ffffff" fill-rule="evenodd" fill-opacity="1"/>
<defs>
  <clipPath id="clip502">
    <rect x="262" y="47" width="2091" height="1364"/>
  </clipPath>
</defs>
<polyline clip-path="url(#clip502)" style="stroke:#000000; stroke-linecap:round; stroke-linejoin:round; stroke-width:2; stroke-opacity:0.1; fill:none" points="474.185,1410.22 474.185,47.2441 "/>
<polyline clip-path="url(#clip502)" style="stroke:#000000; stroke-linecap:round; stroke-linejoin:round; stroke-width:2; stroke-opacity:0.1; fill:none" points="978.256,1410.22 978.256,47.2441 "/>
<polyline clip-path="url(#clip502)" style="stroke:#000000; stroke-linecap:round; stroke-linejoin:round; stroke-width:2; stroke-opacity:0.1; fill:none" points="1482.33,1410.22 1482.33,47.2441 "/>
<polyline clip-path="url(#clip502)" style="stroke:#000000; stroke-linecap:round; stroke-linejoin:round; stroke-width:2; stroke-opacity:0.1; fill:none" points="1986.4,1410.22 1986.4,47.2441 "/>
<polyline clip-path="url(#clip502)" style="stroke:#000000; stroke-linecap:round; stroke-linejoin:round; stroke-width:2; stroke-opacity:0.1; fill:none" points="262.502,1396.84 2352.76,1396.84 "/>
<polyline clip-path="url(#clip502)" style="stroke:#000000; stroke-linecap:round; stroke-linejoin:round; stroke-width:2; stroke-opacity:0.1; fill:none" points="262.502,1069.08 2352.76,1069.08 "/>
<polyline clip-path="url(#clip502)" style="stroke:#000000; stroke-linecap:round; stroke-linejoin:round; stroke-width:2; stroke-opacity:0.1; fill:none" points="262.502,741.328 2352.76,741.328 "/>
<polyline clip-path="url(#clip502)" style="stroke:#000000; stroke-linecap:round; stroke-linejoin:round; stroke-width:2; stroke-opacity:0.1; fill:none" points="262.502,413.574 2352.76,413.574 "/>
<polyline clip-path="url(#clip502)" style="stroke:#000000; stroke-linecap:round; stroke-linejoin:round; stroke-width:2; stroke-opacity:0.1; fill:none" points="262.502,85.8189 2352.76,85.8189 "/>
<polyline clip-path="url(#clip500)" style="stroke:#000000; stroke-linecap:round; stroke-linejoin:round; stroke-width:4; stroke-opacity:1; fill:none" points="262.502,1410.22 2352.76,1410.22 "/>
<polyline clip-path="url(#clip500)" style="stroke:#000000; stroke-linecap:round; stroke-linejoin:round; stroke-width:4; stroke-opacity:1; fill:none" points="474.185,1410.22 474.185,1391.32 "/>
<polyline clip-path="url(#clip500)" style="stroke:#000000; stroke-linecap:round; stroke-linejoin:round; stroke-width:4; stroke-opacity:1; fill:none" points="978.256,1410.22 978.256,1391.32 "/>
<polyline clip-path="url(#clip500)" style="stroke:#000000; stroke-linecap:round; stroke-linejoin:round; stroke-width:4; stroke-opacity:1; fill:none" points="1482.33,1410.22 1482.33,1391.32 "/>
<polyline clip-path="url(#clip500)" style="stroke:#000000; stroke-linecap:round; stroke-linejoin:round; stroke-width:4; stroke-opacity:1; fill:none" points="1986.4,1410.22 1986.4,1391.32 "/>
<path clip-path="url(#clip500)" d="M444.127 1455.79 L473.803 1455.79 L473.803 1459.73 L444.127 1459.73 L444.127 1455.79 Z" fill="#000000" fill-rule="nonzero" fill-opacity="1" /><path clip-path="url(#clip500)" d="M487.923 1468.68 L504.242 1468.68 L504.242 1472.62 L482.298 1472.62 L482.298 1468.68 Q484.96 1465.93 489.543 1461.3 Q494.15 1456.65 495.33 1455.31 Q497.576 1452.78 498.455 1451.05 Q499.358 1449.29 499.358 1447.6 Q499.358 1444.84 497.414 1443.11 Q495.492 1441.37 492.39 1441.37 Q490.191 1441.37 487.738 1442.13 Q485.307 1442.9 482.529 1444.45 L482.529 1439.73 Q485.353 1438.59 487.807 1438.01 Q490.261 1437.43 492.298 1437.43 Q497.668 1437.43 500.863 1440.12 Q504.057 1442.81 504.057 1447.3 Q504.057 1449.43 503.247 1451.35 Q502.46 1453.24 500.353 1455.84 Q499.775 1456.51 496.673 1459.73 Q493.571 1462.92 487.923 1468.68 Z" fill="#000000" fill-rule="nonzero" fill-opacity="1" /><path clip-path="url(#clip500)" d="M948.013 1455.79 L977.688 1455.79 L977.688 1459.73 L948.013 1459.73 L948.013 1455.79 Z" fill="#000000" fill-rule="nonzero" fill-opacity="1" /><path clip-path="url(#clip500)" d="M988.591 1468.68 L996.23 1468.68 L996.23 1442.32 L987.92 1443.99 L987.92 1439.73 L996.184 1438.06 L1000.86 1438.06 L1000.86 1468.68 L1008.5 1468.68 L1008.5 1472.62 L988.591 1472.62 L988.591 1468.68 Z" fill="#000000" fill-rule="nonzero" fill-opacity="1" /><path clip-path="url(#clip500)" d="M1482.33 1441.14 Q1478.72 1441.14 1476.89 1444.7 Q1475.08 1448.24 1475.08 1455.37 Q1475.08 1462.48 1476.89 1466.05 Q1478.72 1469.59 1482.33 1469.59 Q1485.96 1469.59 1487.77 1466.05 Q1489.6 1462.48 1489.6 1455.37 Q1489.6 1448.24 1487.77 1444.7 Q1485.96 1441.14 1482.33 1441.14 M1482.33 1437.43 Q1488.14 1437.43 1491.19 1442.04 Q1494.27 1446.62 1494.27 1455.37 Q1494.27 1464.1 1491.19 1468.71 Q1488.14 1473.29 1482.33 1473.29 Q1476.52 1473.29 1473.44 1468.71 Q1470.38 1464.1 1470.38 1455.37 Q1470.38 1446.62 1473.44 1442.04 Q1476.52 1437.43 1482.33 1437.43 Z" fill="#000000" fill-rule="nonzero" fill-opacity="1" /><path clip-path="url(#clip500)" d="M1976.78 1468.68 L1984.42 1468.68 L1984.42 1442.32 L1976.11 1443.99 L1976.11 1439.73 L1984.37 1438.06 L1989.05 1438.06 L1989.05 1468.68 L1996.69 1468.68 L1996.69 1472.62 L1976.78 1472.62 L1976.78 1468.68 Z" fill="#000000" fill-rule="nonzero" fill-opacity="1" /><path clip-path="url(#clip500)" d="M1209.29 1551.56 L1209.29 1548.98 Q1213.76 1548.98 1214.78 1548.45 Q1215.81 1547.87 1215.81 1545.17 L1215.81 1501.51 Q1215.81 1498.4 1214.7 1497.62 Q1213.63 1496.84 1209.29 1496.84 L1209.29 1494.22 L1221.34 1493.32 L1221.34 1545.17 Q1221.34 1547.87 1222.4 1548.45 Q1223.47 1548.98 1227.9 1548.98 L1227.9 1551.56 Q1226.87 1551.56 1224.74 1551.48 Q1222.61 1551.4 1221.05 1551.36 Q1219.49 1551.32 1218.59 1551.32 Q1217.61 1551.32 1209.29 1551.56 Z" fill="#000000" fill-rule="nonzero" fill-opacity="1" /><path clip-path="url(#clip500)" d="M1232.98 1551.56 L1232.98 1548.98 Q1237.45 1548.98 1238.47 1548.45 Q1239.5 1547.87 1239.5 1545.17 L1239.5 1522.67 Q1239.5 1519.55 1238.39 1518.77 Q1237.32 1517.99 1232.98 1517.99 L1232.98 1515.37 L1244.78 1514.47 L1244.78 1523.28 Q1248.72 1514.47 1257.2 1514.47 Q1263.52 1514.47 1266.02 1517.58 Q1267.86 1519.67 1268.23 1522.01 Q1268.64 1524.35 1268.64 1530.41 L1268.64 1546.44 Q1268.72 1548.2 1270.07 1548.61 Q1271.43 1548.98 1275.2 1548.98 L1275.2 1551.56 Q1266.63 1551.32 1265.77 1551.32 Q1265.11 1551.32 1256.3 1551.56 L1256.3 1548.98 Q1260.77 1548.98 1261.79 1548.45 Q1262.86 1547.87 1262.86 1545.17 L1262.86 1525.62 Q1262.86 1521.35 1261.55 1518.85 Q1260.24 1516.31 1256.63 1516.31 Q1252.28 1516.31 1248.8 1519.96 Q1245.32 1523.61 1245.32 1529.76 L1245.32 1545.17 Q1245.32 1547.87 1246.34 1548.45 Q1247.41 1548.98 1251.83 1548.98 L1251.83 1551.56 Q1243.27 1551.32 1242.45 1551.32 Q1241.79 1551.32 1232.98 1551.56 Z" fill="#000000" fill-rule="nonzero" fill-opacity="1" /><path clip-path="url(#clip500)" d="M1375.41 1515.45 Q1375.41 1522.21 1372.5 1528.85 Q1369.63 1535.45 1364.95 1540.45 Q1360.32 1545.41 1354.05 1548.49 Q1347.78 1551.56 1341.39 1551.56 L1313.59 1551.56 Q1312.61 1551.56 1312.2 1551.52 Q1311.83 1551.48 1311.54 1551.28 Q1311.26 1551.03 1311.26 1550.54 Q1311.26 1549.76 1311.59 1549.43 Q1311.91 1549.06 1312.28 1549.02 Q1312.65 1548.98 1313.59 1548.98 Q1315.64 1548.98 1316.87 1548.86 Q1318.1 1548.73 1318.88 1548.57 Q1319.7 1548.37 1320.11 1547.79 Q1320.56 1547.22 1320.77 1546.73 Q1320.97 1546.19 1321.26 1545 L1332.49 1499.92 Q1332.82 1498.56 1332.82 1498.36 Q1332.82 1497.66 1332.41 1497.42 Q1332.04 1497.13 1330.97 1497.01 Q1328.92 1496.84 1327.37 1496.84 Q1326.34 1496.84 1325.93 1496.8 Q1325.56 1496.76 1325.24 1496.56 Q1324.95 1496.31 1324.95 1495.82 Q1324.95 1495.04 1325.28 1494.71 Q1325.65 1494.34 1326.06 1494.3 Q1326.47 1494.22 1327.45 1494.22 L1355.65 1494.22 Q1361.76 1494.22 1366.31 1497.09 Q1370.86 1499.92 1373.11 1504.71 Q1375.41 1509.47 1375.41 1515.45 M1368.07 1512.38 Q1368.07 1504.55 1363.81 1500.7 Q1359.58 1496.84 1352.9 1496.84 L1343.93 1496.84 Q1341.26 1496.84 1340.61 1497.33 Q1339.95 1497.78 1339.38 1500.04 L1327.86 1546.11 Q1327.45 1547.63 1327.45 1548.04 Q1327.45 1548.49 1327.65 1548.65 Q1327.9 1548.78 1328.56 1548.86 Q1329.29 1548.98 1330.4 1548.98 L1339.87 1548.98 Q1343.52 1548.98 1346.84 1548 Q1350.2 1546.97 1352.62 1545.37 Q1355.03 1543.73 1356.59 1542.34 Q1358.15 1540.91 1359.26 1539.47 Q1361.76 1536.23 1363.6 1532.01 Q1365.49 1527.79 1366.35 1523.94 Q1367.25 1520.04 1367.66 1517.17 Q1368.07 1514.26 1368.07 1512.38 Z" fill="#000000" fill-rule="nonzero" fill-opacity="1" /><path clip-path="url(#clip500)" d="M1383.75 1574.82 Q1383.75 1573.76 1383.84 1573.44 Q1383.95 1573.13 1384.41 1572.64 L1395.69 1560.07 Q1401.85 1553.13 1401.85 1547.07 Q1401.85 1543.14 1399.79 1540.33 Q1397.75 1537.52 1393.99 1537.52 Q1391.41 1537.52 1389.23 1539.1 Q1387.05 1540.68 1386.04 1543.49 Q1386.22 1543.43 1386.82 1543.43 Q1388.28 1543.43 1389.09 1544.35 Q1389.92 1545.27 1389.92 1546.5 Q1389.92 1548.08 1388.89 1548.85 Q1387.88 1549.6 1386.88 1549.6 Q1386.48 1549.6 1385.93 1549.51 Q1385.41 1549.43 1384.58 1548.62 Q1383.75 1547.79 1383.75 1546.33 Q1383.75 1542.23 1386.85 1538.95 Q1389.98 1535.68 1394.74 1535.68 Q1400.13 1535.68 1403.66 1538.9 Q1407.22 1542.08 1407.22 1547.07 Q1407.22 1548.82 1406.67 1550.43 Q1406.16 1552.01 1405.44 1553.24 Q1404.75 1554.48 1402.86 1556.46 Q1400.96 1558.44 1399.44 1559.84 Q1397.92 1561.25 1394.51 1564.23 L1388.28 1570.29 L1398.87 1570.29 Q1404.03 1570.29 1404.44 1569.83 Q1405.01 1569 1405.73 1564.61 L1407.22 1564.61 L1405.56 1574.82 L1383.75 1574.82 Z" fill="#000000" fill-rule="nonzero" fill-opacity="1" /><polyline clip-path="url(#clip500)" style="stroke:#000000; stroke-linecap:round; stroke-linejoin:round; stroke-width:4; stroke-opacity:1; fill:none" points="262.502,1410.22 262.502,47.2441 "/>
<polyline clip-path="url(#clip500)" style="stroke:#000000; stroke-linecap:round; stroke-linejoin:round; stroke-width:4; stroke-opacity:1; fill:none" points="262.502,1396.84 281.4,1396.84 "/>
<polyline clip-path="url(#clip500)" style="stroke:#000000; stroke-linecap:round; stroke-linejoin:round; stroke-width:4; stroke-opacity:1; fill:none" points="262.502,1069.08 281.4,1069.08 "/>
<polyline clip-path="url(#clip500)" style="stroke:#000000; stroke-linecap:round; stroke-linejoin:round; stroke-width:4; stroke-opacity:1; fill:none" points="262.502,741.328 281.4,741.328 "/>
<polyline clip-path="url(#clip500)" style="stroke:#000000; stroke-linecap:round; stroke-linejoin:round; stroke-width:4; stroke-opacity:1; fill:none" points="262.502,413.574 281.4,413.574 "/>
<polyline clip-path="url(#clip500)" style="stroke:#000000; stroke-linecap:round; stroke-linejoin:round; stroke-width:4; stroke-opacity:1; fill:none" points="262.502,85.8189 281.4,85.8189 "/>
<path clip-path="url(#clip500)" d="M139.165 1382.64 Q135.553 1382.64 133.725 1386.2 Q131.919 1389.74 131.919 1396.87 Q131.919 1403.98 133.725 1407.54 Q135.553 1411.09 139.165 1411.09 Q142.799 1411.09 144.604 1407.54 Q146.433 1403.98 146.433 1396.87 Q146.433 1389.74 144.604 1386.2 Q142.799 1382.64 139.165 1382.64 M139.165 1378.93 Q144.975 1378.93 148.03 1383.54 Q151.109 1388.12 151.109 1396.87 Q151.109 1405.6 148.03 1410.21 Q144.975 1414.79 139.165 1414.79 Q133.354 1414.79 130.276 1410.21 Q127.22 1405.6 127.22 1396.87 Q127.22 1388.12 130.276 1383.54 Q133.354 1378.93 139.165 1378.93 Z" fill="#000000" fill-rule="nonzero" fill-opacity="1" /><path clip-path="url(#clip500)" d="M159.326 1408.24 L164.211 1408.24 L164.211 1414.12 L159.326 1414.12 L159.326 1408.24 Z" fill="#000000" fill-rule="nonzero" fill-opacity="1" /><path clip-path="url(#clip500)" d="M184.396 1382.64 Q180.785 1382.64 178.956 1386.2 Q177.15 1389.74 177.15 1396.87 Q177.15 1403.98 178.956 1407.54 Q180.785 1411.09 184.396 1411.09 Q188.03 1411.09 189.836 1407.54 Q191.664 1403.98 191.664 1396.87 Q191.664 1389.74 189.836 1386.2 Q188.03 1382.64 184.396 1382.64 M184.396 1378.93 Q190.206 1378.93 193.261 1383.54 Q196.34 1388.12 196.34 1396.87 Q196.34 1405.6 193.261 1410.21 Q190.206 1414.79 184.396 1414.79 Q178.586 1414.79 175.507 1410.21 Q172.451 1405.6 172.451 1396.87 Q172.451 1388.12 175.507 1383.54 Q178.586 1378.93 184.396 1378.93 Z" fill="#000000" fill-rule="nonzero" fill-opacity="1" /><path clip-path="url(#clip500)" d="M214.558 1382.64 Q210.947 1382.64 209.118 1386.2 Q207.312 1389.74 207.312 1396.87 Q207.312 1403.98 209.118 1407.54 Q210.947 1411.09 214.558 1411.09 Q218.192 1411.09 219.997 1407.54 Q221.826 1403.98 221.826 1396.87 Q221.826 1389.74 219.997 1386.2 Q218.192 1382.64 214.558 1382.64 M214.558 1378.93 Q220.368 1378.93 223.423 1383.54 Q226.502 1388.12 226.502 1396.87 Q226.502 1405.6 223.423 1410.21 Q220.368 1414.79 214.558 1414.79 Q208.747 1414.79 205.669 1410.21 Q202.613 1405.6 202.613 1396.87 Q202.613 1388.12 205.669 1383.54 Q208.747 1378.93 214.558 1378.93 Z" fill="#000000" fill-rule="nonzero" fill-opacity="1" /><path clip-path="url(#clip500)" d="M140.16 1054.88 Q136.549 1054.88 134.72 1058.45 Q132.915 1061.99 132.915 1069.12 Q132.915 1076.22 134.72 1079.79 Q136.549 1083.33 140.16 1083.33 Q143.794 1083.33 145.6 1079.79 Q147.428 1076.22 147.428 1069.12 Q147.428 1061.99 145.6 1058.45 Q143.794 1054.88 140.16 1054.88 M140.16 1051.18 Q145.97 1051.18 149.026 1055.78 Q152.104 1060.37 152.104 1069.12 Q152.104 1077.84 149.026 1082.45 Q145.97 1087.03 140.16 1087.03 Q134.35 1087.03 131.271 1082.45 Q128.216 1077.84 128.216 1069.12 Q128.216 1060.37 131.271 1055.78 Q134.35 1051.18 140.16 1051.18 Z" fill="#000000" fill-rule="nonzero" fill-opacity="1" /><path clip-path="url(#clip500)" d="M160.322 1080.48 L165.206 1080.48 L165.206 1086.36 L160.322 1086.36 L160.322 1080.48 Z" fill="#000000" fill-rule="nonzero" fill-opacity="1" /><path clip-path="url(#clip500)" d="M179.419 1082.43 L195.738 1082.43 L195.738 1086.36 L173.794 1086.36 L173.794 1082.43 Q176.456 1079.67 181.039 1075.04 Q185.646 1070.39 186.826 1069.05 Q189.072 1066.53 189.951 1064.79 Q190.854 1063.03 190.854 1061.34 Q190.854 1058.59 188.91 1056.85 Q186.988 1055.11 183.887 1055.11 Q181.687 1055.11 179.234 1055.88 Q176.803 1056.64 174.025 1058.19 L174.025 1053.47 Q176.85 1052.34 179.303 1051.76 Q181.757 1051.18 183.794 1051.18 Q189.164 1051.18 192.359 1053.86 Q195.553 1056.55 195.553 1061.04 Q195.553 1063.17 194.743 1065.09 Q193.956 1066.99 191.849 1069.58 Q191.271 1070.25 188.169 1073.47 Q185.067 1076.66 179.419 1082.43 Z" fill="#000000" fill-rule="nonzero" fill-opacity="1" /><path clip-path="url(#clip500)" d="M205.599 1051.8 L223.956 1051.8 L223.956 1055.74 L209.882 1055.74 L209.882 1064.21 Q210.9 1063.86 211.919 1063.7 Q212.937 1063.52 213.956 1063.52 Q219.743 1063.52 223.122 1066.69 Q226.502 1069.86 226.502 1075.28 Q226.502 1080.85 223.03 1083.96 Q219.558 1087.03 213.238 1087.03 Q211.062 1087.03 208.794 1086.66 Q206.548 1086.29 204.141 1085.55 L204.141 1080.85 Q206.224 1081.99 208.447 1082.54 Q210.669 1083.1 213.146 1083.1 Q217.15 1083.1 219.488 1080.99 Q221.826 1078.89 221.826 1075.28 Q221.826 1071.66 219.488 1069.56 Q217.15 1067.45 213.146 1067.45 Q211.271 1067.45 209.396 1067.87 Q207.544 1068.28 205.599 1069.16 L205.599 1051.8 Z" fill="#000000" fill-rule="nonzero" fill-opacity="1" /><path clip-path="url(#clip500)" d="M139.165 727.127 Q135.553 727.127 133.725 730.692 Q131.919 734.234 131.919 741.363 Q131.919 748.47 133.725 752.034 Q135.553 755.576 139.165 755.576 Q142.799 755.576 144.604 752.034 Q146.433 748.47 146.433 741.363 Q146.433 734.234 144.604 730.692 Q142.799 727.127 139.165 727.127 M139.165 723.423 Q144.975 723.423 148.03 728.03 Q151.109 732.613 151.109 741.363 Q151.109 750.09 148.03 754.696 Q144.975 759.28 139.165 759.28 Q133.354 759.28 130.276 754.696 Q127.22 750.09 127.22 741.363 Q127.22 732.613 130.276 728.03 Q133.354 723.423 139.165 723.423 Z" fill="#000000" fill-rule="nonzero" fill-opacity="1" /><path clip-path="url(#clip500)" d="M159.326 752.729 L164.211 752.729 L164.211 758.608 L159.326 758.608 L159.326 752.729 Z" fill="#000000" fill-rule="nonzero" fill-opacity="1" /><path clip-path="url(#clip500)" d="M174.442 724.048 L192.799 724.048 L192.799 727.984 L178.725 727.984 L178.725 736.456 Q179.743 736.109 180.762 735.947 Q181.78 735.761 182.799 735.761 Q188.586 735.761 191.965 738.933 Q195.345 742.104 195.345 747.521 Q195.345 753.099 191.873 756.201 Q188.4 759.28 182.081 759.28 Q179.905 759.28 177.637 758.909 Q175.391 758.539 172.984 757.798 L172.984 753.099 Q175.067 754.233 177.289 754.789 Q179.512 755.345 181.988 755.345 Q185.993 755.345 188.331 753.238 Q190.669 751.132 190.669 747.521 Q190.669 743.909 188.331 741.803 Q185.993 739.697 181.988 739.697 Q180.113 739.697 178.238 740.113 Q176.387 740.53 174.442 741.409 L174.442 724.048 Z" fill="#000000" fill-rule="nonzero" fill-opacity="1" /><path clip-path="url(#clip500)" d="M214.558 727.127 Q210.947 727.127 209.118 730.692 Q207.312 734.234 207.312 741.363 Q207.312 748.47 209.118 752.034 Q210.947 755.576 214.558 755.576 Q218.192 755.576 219.997 752.034 Q221.826 748.47 221.826 741.363 Q221.826 734.234 219.997 730.692 Q218.192 727.127 214.558 727.127 M214.558 723.423 Q220.368 723.423 223.423 728.03 Q226.502 732.613 226.502 741.363 Q226.502 750.09 223.423 754.696 Q220.368 759.28 214.558 759.28 Q208.747 759.28 205.669 754.696 Q202.613 750.09 202.613 741.363 Q202.613 732.613 205.669 728.03 Q208.747 723.423 214.558 723.423 Z" fill="#000000" fill-rule="nonzero" fill-opacity="1" /><path clip-path="url(#clip500)" d="M140.16 399.372 Q136.549 399.372 134.72 402.937 Q132.915 406.479 132.915 413.608 Q132.915 420.715 134.72 424.28 Q136.549 427.821 140.16 427.821 Q143.794 427.821 145.6 424.28 Q147.428 420.715 147.428 413.608 Q147.428 406.479 145.6 402.937 Q143.794 399.372 140.16 399.372 M140.16 395.669 Q145.97 395.669 149.026 400.275 Q152.104 404.858 152.104 413.608 Q152.104 422.335 149.026 426.942 Q145.97 431.525 140.16 431.525 Q134.35 431.525 131.271 426.942 Q128.216 422.335 128.216 413.608 Q128.216 404.858 131.271 400.275 Q134.35 395.669 140.16 395.669 Z" fill="#000000" fill-rule="nonzero" fill-opacity="1" /><path clip-path="url(#clip500)" d="M160.322 424.974 L165.206 424.974 L165.206 430.854 L160.322 430.854 L160.322 424.974 Z" fill="#000000" fill-rule="nonzero" fill-opacity="1" /><path clip-path="url(#clip500)" d="M174.211 396.294 L196.433 396.294 L196.433 398.284 L183.887 430.854 L179.002 430.854 L190.808 400.229 L174.211 400.229 L174.211 396.294 Z" fill="#000000" fill-rule="nonzero" fill-opacity="1" /><path clip-path="url(#clip500)" d="M205.599 396.294 L223.956 396.294 L223.956 400.229 L209.882 400.229 L209.882 408.701 Q210.9 408.354 211.919 408.192 Q212.937 408.007 213.956 408.007 Q219.743 408.007 223.122 411.178 Q226.502 414.349 226.502 419.766 Q226.502 425.344 223.03 428.446 Q219.558 431.525 213.238 431.525 Q211.062 431.525 208.794 431.155 Q206.548 430.784 204.141 430.043 L204.141 425.344 Q206.224 426.479 208.447 427.034 Q210.669 427.59 213.146 427.59 Q217.15 427.59 219.488 425.483 Q221.826 423.377 221.826 419.766 Q221.826 416.155 219.488 414.048 Q217.15 411.942 213.146 411.942 Q211.271 411.942 209.396 412.358 Q207.544 412.775 205.599 413.655 L205.599 396.294 Z" fill="#000000" fill-rule="nonzero" fill-opacity="1" /><path clip-path="url(#clip500)" d="M129.975 99.1637 L137.614 99.1637 L137.614 72.7981 L129.303 74.4648 L129.303 70.2055 L137.567 68.5389 L142.243 68.5389 L142.243 99.1637 L149.882 99.1637 L149.882 103.099 L129.975 103.099 L129.975 99.1637 Z" fill="#000000" fill-rule="nonzero" fill-opacity="1" /><path clip-path="url(#clip500)" d="M159.326 97.2193 L164.211 97.2193 L164.211 103.099 L159.326 103.099 L159.326 97.2193 Z" fill="#000000" fill-rule="nonzero" fill-opacity="1" /><path clip-path="url(#clip500)" d="M184.396 71.6176 Q180.785 71.6176 178.956 75.1824 Q177.15 78.724 177.15 85.8536 Q177.15 92.96 178.956 96.5248 Q180.785 100.066 184.396 100.066 Q188.03 100.066 189.836 96.5248 Q191.664 92.96 191.664 85.8536 Q191.664 78.724 189.836 75.1824 Q188.03 71.6176 184.396 71.6176 M184.396 67.9139 Q190.206 67.9139 193.261 72.5203 Q196.34 77.1036 196.34 85.8536 Q196.34 94.5804 193.261 99.1869 Q190.206 103.77 184.396 103.77 Q178.586 103.77 175.507 99.1869 Q172.451 94.5804 172.451 85.8536 Q172.451 77.1036 175.507 72.5203 Q178.586 67.9139 184.396 67.9139 Z" fill="#000000" fill-rule="nonzero" fill-opacity="1" /><path clip-path="url(#clip500)" d="M214.558 71.6176 Q210.947 71.6176 209.118 75.1824 Q207.312 78.724 207.312 85.8536 Q207.312 92.96 209.118 96.5248 Q210.947 100.066 214.558 100.066 Q218.192 100.066 219.997 96.5248 Q221.826 92.96 221.826 85.8536 Q221.826 78.724 219.997 75.1824 Q218.192 71.6176 214.558 71.6176 M214.558 67.9139 Q220.368 67.9139 223.423 72.5203 Q226.502 77.1036 226.502 85.8536 Q226.502 94.5804 223.423 99.1869 Q220.368 103.77 214.558 103.77 Q208.747 103.77 205.669 99.1869 Q202.613 94.5804 202.613 85.8536 Q202.613 77.1036 205.669 72.5203 Q208.747 67.9139 214.558 67.9139 Z" fill="#000000" fill-rule="nonzero" fill-opacity="1" /><path clip-path="url(#clip500)" d="M65.3416 1250.96 L89.404 1250.96 L89.404 1258.45 L26.777 1258.45 L26.777 1250.96 L33.6636 1250.96 Q29.6127 1248.61 27.6682 1245.04 Q25.6833 1241.44 25.6833 1236.45 Q25.6833 1228.19 32.2458 1223.04 Q38.8082 1217.86 49.5026 1217.86 Q60.197 1217.86 66.7595 1223.04 Q73.3219 1228.19 73.3219 1236.45 Q73.3219 1241.44 71.3775 1245.04 Q69.3925 1248.61 65.3416 1250.96 M49.5026 1225.6 Q41.2793 1225.6 36.6207 1229 Q31.9217 1232.36 31.9217 1238.28 Q31.9217 1244.19 36.6207 1247.59 Q41.2793 1250.96 49.5026 1250.96 Q57.7259 1250.96 62.425 1247.59 Q67.0835 1244.19 67.0835 1238.28 Q67.0835 1232.36 62.425 1229 Q57.7259 1225.6 49.5026 1225.6 Z" fill="#000000" fill-rule="nonzero" fill-opacity="1" /><path clip-path="url(#clip500)" d="M33.7446 1179.21 Q33.0154 1180.47 32.6914 1181.97 Q32.3268 1183.43 32.3268 1185.21 Q32.3268 1191.53 36.4587 1194.93 Q40.5501 1198.29 48.2468 1198.29 L72.1472 1198.29 L72.1472 1205.79 L26.777 1205.79 L26.777 1198.29 L33.8256 1198.29 Q29.6937 1195.94 27.7087 1192.18 Q25.6833 1188.41 25.6833 1183.02 Q25.6833 1182.25 25.8048 1181.32 Q25.8858 1180.39 26.0884 1179.25 L33.7446 1179.21 Z" fill="#000000" fill-rule="nonzero" fill-opacity="1" /><path clip-path="url(#clip500)" d="M32.0027 1155.64 Q32.0027 1161.63 36.7017 1165.12 Q41.3603 1168.6 49.5026 1168.6 Q57.6449 1168.6 62.344 1165.16 Q67.0025 1161.67 67.0025 1155.64 Q67.0025 1149.68 62.3035 1146.2 Q57.6044 1142.72 49.5026 1142.72 Q41.4413 1142.72 36.7423 1146.2 Q32.0027 1149.68 32.0027 1155.64 M25.6833 1155.64 Q25.6833 1145.92 32.0027 1140.37 Q38.3221 1134.82 49.5026 1134.82 Q60.6426 1134.82 67.0025 1140.37 Q73.3219 1145.92 73.3219 1155.64 Q73.3219 1165.4 67.0025 1170.95 Q60.6426 1176.46 49.5026 1176.46 Q38.3221 1176.46 32.0027 1170.95 Q25.6833 1165.4 25.6833 1155.64 Z" fill="#000000" fill-rule="nonzero" fill-opacity="1" /><path clip-path="url(#clip500)" d="M9.11509 1099.49 L15.313 1099.49 L15.313 1106.62 Q15.313 1110.63 16.9333 1112.21 Q18.5537 1113.75 22.7666 1113.75 L26.777 1113.75 L26.777 1101.48 L32.5698 1101.48 L32.5698 1113.75 L72.1472 1113.75 L72.1472 1121.25 L32.5698 1121.25 L32.5698 1128.38 L26.777 1128.38 L26.777 1121.25 L23.6173 1121.25 Q16.0421 1121.25 12.5989 1117.72 Q9.11509 1114.2 9.11509 1106.54 L9.11509 1099.49 Z" fill="#000000" fill-rule="nonzero" fill-opacity="1" /><path clip-path="url(#clip500)" d="M26.777 1093.25 L26.777 1085.8 L72.1472 1085.8 L72.1472 1093.25 L26.777 1093.25 M9.11509 1093.25 L9.11509 1085.8 L18.5537 1085.8 L18.5537 1093.25 L9.11509 1093.25 Z" fill="#000000" fill-rule="nonzero" fill-opacity="1" /><path clip-path="url(#clip500)" d="M9.11509 1070.2 L9.11509 1062.75 L72.1472 1062.75 L72.1472 1070.2 L9.11509 1070.2 Z" fill="#000000" fill-rule="nonzero" fill-opacity="1" /><path clip-path="url(#clip500)" d="M47.5987 1008.35 L51.2445 1008.35 L51.2445 1042.62 Q58.9412 1042.13 62.9921 1038 Q67.0025 1033.83 67.0025 1026.41 Q67.0025 1022.12 65.9493 1018.11 Q64.896 1014.06 62.7896 1010.09 L69.8381 1010.09 Q71.5395 1014.1 72.4307 1018.31 Q73.3219 1022.53 73.3219 1026.86 Q73.3219 1037.72 67.0025 1044.08 Q60.6831 1050.4 49.9077 1050.4 Q38.7677 1050.4 32.2458 1044.4 Q25.6833 1038.36 25.6833 1028.16 Q25.6833 1019 31.5976 1013.69 Q37.4714 1008.35 47.5987 1008.35 M45.4112 1015.8 Q39.2943 1015.88 35.6485 1019.24 Q32.0027 1022.57 32.0027 1028.07 Q32.0027 1034.31 35.527 1038.08 Q39.0513 1041.81 45.4517 1042.37 L45.4112 1015.8 Z" fill="#000000" fill-rule="nonzero" fill-opacity="1" /><path clip-path="url(#clip500)" d="M9.11509 969.742 L9.11509 962.288 L72.1472 962.288 L72.1472 969.742 L9.11509 969.742 Z" fill="#000000" fill-rule="nonzero" fill-opacity="1" /><path clip-path="url(#clip500)" d="M26.777 946.692 L26.777 939.238 L72.1472 939.238 L72.1472 946.692 L26.777 946.692 M9.11509 946.692 L9.11509 939.238 L18.5537 939.238 L18.5537 946.692 L9.11509 946.692 Z" fill="#000000" fill-rule="nonzero" fill-opacity="1" /><path clip-path="url(#clip500)" d="M9.11509 923.926 L9.11509 916.432 L46.3429 916.432 L26.777 894.192 L26.777 884.673 L48.0038 908.735 L72.1472 883.66 L72.1472 893.382 L49.9887 916.432 L72.1472 916.432 L72.1472 923.926 L9.11509 923.926 Z" fill="#000000" fill-rule="nonzero" fill-opacity="1" /><path clip-path="url(#clip500)" d="M47.5987 839.748 L51.2445 839.748 L51.2445 874.019 Q58.9412 873.533 62.9921 869.401 Q67.0025 865.228 67.0025 857.815 Q67.0025 853.521 65.9493 849.511 Q64.896 845.46 62.7896 841.49 L69.8381 841.49 Q71.5395 845.501 72.4307 849.714 Q73.3219 853.926 73.3219 858.261 Q73.3219 869.117 67.0025 875.477 Q60.6831 881.797 49.9077 881.797 Q38.7677 881.797 32.2458 875.801 Q25.6833 869.765 25.6833 859.557 Q25.6833 850.402 31.5976 845.095 Q37.4714 839.748 47.5987 839.748 M45.4112 847.202 Q39.2943 847.283 35.6485 850.645 Q32.0027 853.967 32.0027 859.476 Q32.0027 865.715 35.527 869.482 Q39.0513 873.209 45.4517 873.776 L45.4112 847.202 Z" fill="#000000" fill-rule="nonzero" fill-opacity="1" /><path clip-path="url(#clip500)" d="M9.11509 827.515 L9.11509 820.061 L72.1472 820.061 L72.1472 827.515 L9.11509 827.515 Z" fill="#000000" fill-rule="nonzero" fill-opacity="1" /><path clip-path="url(#clip500)" d="M26.777 804.465 L26.777 797.011 L72.1472 797.011 L72.1472 804.465 L26.777 804.465 M9.11509 804.465 L9.11509 797.011 L18.5537 797.011 L18.5537 804.465 L9.11509 804.465 Z" fill="#000000" fill-rule="nonzero" fill-opacity="1" /><path clip-path="url(#clip500)" d="M44.763 743.701 L72.1472 743.701 L72.1472 751.155 L45.0061 751.155 Q38.5652 751.155 35.3649 753.667 Q32.1647 756.178 32.1647 761.201 Q32.1647 767.237 36.0131 770.721 Q39.8615 774.205 46.5049 774.205 L72.1472 774.205 L72.1472 781.699 L9.11509 781.699 L9.11509 774.205 L33.8256 774.205 Q29.7342 771.531 27.7087 767.926 Q25.6833 764.28 25.6833 759.54 Q25.6833 751.722 30.5444 747.712 Q35.3649 743.701 44.763 743.701 Z" fill="#000000" fill-rule="nonzero" fill-opacity="1" /><path clip-path="url(#clip500)" d="M32.0027 711.254 Q32.0027 717.249 36.7017 720.733 Q41.3603 724.217 49.5026 724.217 Q57.6449 724.217 62.344 720.773 Q67.0025 717.289 67.0025 711.254 Q67.0025 705.299 62.3035 701.815 Q57.6044 698.331 49.5026 698.331 Q41.4413 698.331 36.7423 701.815 Q32.0027 705.299 32.0027 711.254 M25.6833 711.254 Q25.6833 701.531 32.0027 695.982 Q38.3221 690.432 49.5026 690.432 Q60.6426 690.432 67.0025 695.982 Q73.3219 701.531 73.3219 711.254 Q73.3219 721.016 67.0025 726.566 Q60.6426 732.075 49.5026 732.075 Q38.3221 732.075 32.0027 726.566 Q25.6833 721.016 25.6833 711.254 Z" fill="#000000" fill-rule="nonzero" fill-opacity="1" /><path clip-path="url(#clip500)" d="M32.0027 660.496 Q32.0027 666.491 36.7017 669.975 Q41.3603 673.459 49.5026 673.459 Q57.6449 673.459 62.344 670.015 Q67.0025 666.532 67.0025 660.496 Q67.0025 654.541 62.3035 651.057 Q57.6044 647.573 49.5026 647.573 Q41.4413 647.573 36.7423 651.057 Q32.0027 654.541 32.0027 660.496 M25.6833 660.496 Q25.6833 650.774 32.0027 645.224 Q38.3221 639.674 49.5026 639.674 Q60.6426 639.674 67.0025 645.224 Q73.3219 650.774 73.3219 660.496 Q73.3219 670.258 67.0025 675.808 Q60.6426 681.317 49.5026 681.317 Q38.3221 681.317 32.0027 675.808 Q25.6833 670.258 25.6833 660.496 Z" fill="#000000" fill-rule="nonzero" fill-opacity="1" /><path clip-path="url(#clip500)" d="M33.6636 597.464 L9.11509 597.464 L9.11509 590.01 L72.1472 590.01 L72.1472 597.464 L65.3416 597.464 Q69.3925 599.813 71.3775 603.419 Q73.3219 606.983 73.3219 612.006 Q73.3219 620.23 66.7595 625.415 Q60.197 630.56 49.5026 630.56 Q38.8082 630.56 32.2458 625.415 Q25.6833 620.23 25.6833 612.006 Q25.6833 606.983 27.6682 603.419 Q29.6127 599.813 33.6636 597.464 M49.5026 622.863 Q57.7259 622.863 62.425 619.501 Q67.0835 616.098 67.0835 610.184 Q67.0835 604.269 62.425 600.866 Q57.7259 597.464 49.5026 597.464 Q41.2793 597.464 36.6207 600.866 Q31.9217 604.269 31.9217 610.184 Q31.9217 616.098 36.6207 619.501 Q41.2793 622.863 49.5026 622.863 Z" fill="#000000" fill-rule="nonzero" fill-opacity="1" /><path clip-path="url(#clip500)" d="M9.11509 525.317 L15.313 525.317 L15.313 532.447 Q15.313 536.457 16.9333 538.037 Q18.5537 539.576 22.7666 539.576 L26.777 539.576 L26.777 527.302 L32.5698 527.302 L32.5698 539.576 L72.1472 539.576 L72.1472 547.07 L32.5698 547.07 L32.5698 554.2 L26.777 554.2 L26.777 547.07 L23.6173 547.07 Q16.0421 547.07 12.5989 543.546 Q9.11509 540.022 9.11509 532.366 L9.11509 525.317 Z" fill="#000000" fill-rule="nonzero" fill-opacity="1" /><path clip-path="url(#clip500)" d="M32.0027 501.498 Q32.0027 507.493 36.7017 510.977 Q41.3603 514.461 49.5026 514.461 Q57.6449 514.461 62.344 511.017 Q67.0025 507.534 67.0025 501.498 Q67.0025 495.543 62.3035 492.059 Q57.6044 488.575 49.5026 488.575 Q41.4413 488.575 36.7423 492.059 Q32.0027 495.543 32.0027 501.498 M25.6833 501.498 Q25.6833 491.776 32.0027 486.226 Q38.3221 480.676 49.5026 480.676 Q60.6426 480.676 67.0025 486.226 Q73.3219 491.776 73.3219 501.498 Q73.3219 511.26 67.0025 516.81 Q60.6426 522.319 49.5026 522.319 Q38.3221 522.319 32.0027 516.81 Q25.6833 511.26 25.6833 501.498 Z" fill="#000000" fill-rule="nonzero" fill-opacity="1" /><path clip-path="url(#clip500)" d="M33.7446 442.031 Q33.0154 443.286 32.6914 444.785 Q32.3268 446.243 32.3268 448.026 Q32.3268 454.345 36.4587 457.748 Q40.5501 461.11 48.2468 461.11 L72.1472 461.11 L72.1472 468.604 L26.777 468.604 L26.777 461.11 L33.8256 461.11 Q29.6937 458.761 27.7087 454.993 Q25.6833 451.226 25.6833 445.838 Q25.6833 445.069 25.8048 444.137 Q25.8858 443.205 26.0884 442.071 L33.7446 442.031 Z" fill="#000000" fill-rule="nonzero" fill-opacity="1" /><path clip-path="url(#clip500)" d="M72.1472 405.677 L69.5648 405.677 Q69.5648 401.21 69.032 400.185 Q68.4581 399.16 65.7528 399.16 L22.0992 399.16 Q18.9841 399.16 18.2053 400.267 Q17.4265 401.333 17.4265 405.677 L14.8032 405.677 L13.9014 393.627 L65.7528 393.627 Q68.4581 393.627 69.032 392.561 Q69.5648 391.495 69.5648 387.068 L72.1472 387.068 Q72.1472 388.093 72.0652 390.225 Q71.9832 392.356 71.9422 393.914 Q71.9012 395.471 71.9012 396.373 Q71.9012 397.357 72.1472 405.677 Z" fill="#000000" fill-rule="nonzero" fill-opacity="1" /><path clip-path="url(#clip500)" d="M72.1472 381.988 L69.5648 381.988 Q69.5648 377.52 69.032 376.495 Q68.4581 375.47 65.7528 375.47 L43.2497 375.47 Q40.1345 375.47 39.3557 376.577 Q38.5769 377.643 38.5769 381.988 L35.9536 381.988 L35.0519 370.183 L43.8646 370.183 Q35.0519 366.248 35.0519 357.763 Q35.0519 351.451 38.167 348.95 Q40.2575 347.106 42.5939 346.737 Q44.9303 346.327 50.9967 346.327 L67.0235 346.327 Q68.786 346.245 69.1959 344.892 Q69.5648 343.54 69.5648 339.769 L72.1472 339.769 Q71.9012 348.335 71.9012 349.196 Q71.9012 349.852 72.1472 358.665 L69.5648 358.665 Q69.5648 354.197 69.032 353.172 Q68.4581 352.106 65.7528 352.106 L46.2009 352.106 Q41.9381 352.106 39.4377 353.418 Q36.8964 354.73 36.8964 358.337 Q36.8964 362.682 40.5444 366.166 Q44.1925 369.65 50.3409 369.65 L65.7528 369.65 Q68.4581 369.65 69.032 368.625 Q69.5648 367.559 69.5648 363.132 L72.1472 363.132 Q71.9012 371.699 71.9012 372.519 Q71.9012 373.175 72.1472 381.988 Z" fill="#000000" fill-rule="nonzero" fill-opacity="1" /><path clip-path="url(#clip500)" d="M36.0356 239.559 Q42.7988 239.559 49.4391 242.47 Q56.0384 245.339 61.0391 250.012 Q65.9988 254.643 69.073 260.915 Q72.1472 267.186 72.1472 273.581 L72.1472 301.371 Q72.1472 302.355 72.1062 302.765 Q72.0652 303.134 71.8602 303.421 Q71.6143 303.708 71.1224 303.708 Q70.3436 303.708 70.0157 303.38 Q69.6468 303.052 69.6058 302.683 Q69.5648 302.314 69.5648 301.371 Q69.5648 299.322 69.4419 298.092 Q69.3189 296.862 69.1549 296.084 Q68.95 295.264 68.3761 294.854 Q67.8023 294.403 67.3104 294.198 Q66.7776 293.993 65.5889 293.706 L20.5007 282.475 Q19.148 282.147 18.9431 282.147 Q18.2463 282.147 18.0003 282.557 Q17.7134 282.926 17.5904 283.992 Q17.4265 286.041 17.4265 287.599 Q17.4265 288.624 17.3855 289.033 Q17.3445 289.402 17.1395 289.73 Q16.8936 290.017 16.4017 290.017 Q15.6229 290.017 15.295 289.689 Q14.9261 289.32 14.8851 288.91 Q14.8032 288.501 14.8032 287.517 L14.8032 259.316 Q14.8032 253.209 17.6724 248.659 Q20.5007 244.109 25.2964 241.855 Q30.0512 239.559 36.0356 239.559 M32.9614 246.896 Q25.1325 246.896 21.2795 251.159 Q17.4265 255.381 17.4265 262.063 L17.4265 271.039 Q17.4265 273.703 17.9183 274.359 Q18.3692 275.015 20.6236 275.589 L66.6956 287.107 Q68.2122 287.517 68.6221 287.517 Q69.073 287.517 69.2369 287.312 Q69.3599 287.066 69.4419 286.41 Q69.5648 285.672 69.5648 284.566 L69.5648 275.097 Q69.5648 271.449 68.5811 268.129 Q67.5564 264.768 65.9578 262.349 Q64.3182 259.931 62.9246 258.373 Q61.4899 256.816 60.0553 255.709 Q56.8172 253.209 52.5953 251.364 Q48.3734 249.479 44.5204 248.618 Q40.6264 247.716 37.7572 247.306 Q34.8469 246.896 32.9614 246.896 Z" fill="#000000" fill-rule="nonzero" fill-opacity="1" /><path clip-path="url(#clip500)" d="M95.4047 231.216 Q94.343 231.216 94.0274 231.13 Q93.7118 231.016 93.224 230.556 L80.6567 219.28 Q73.7131 213.111 67.659 213.111 Q63.7281 213.111 60.9163 215.177 Q58.1044 217.214 58.1044 220.973 Q58.1044 223.555 59.6825 225.736 Q61.2606 227.917 64.0725 228.921 Q64.0151 228.749 64.0151 228.146 Q64.0151 226.683 64.9332 225.88 Q65.8514 225.047 67.0852 225.047 Q68.6633 225.047 69.4379 226.08 Q70.184 227.085 70.184 228.089 Q70.184 228.491 70.0979 229.036 Q70.0118 229.552 69.2084 230.384 Q68.3763 231.216 66.913 231.216 Q62.81 231.216 59.539 228.118 Q56.2681 224.99 56.2681 220.227 Q56.2681 214.833 59.4817 211.304 Q62.6665 207.746 67.659 207.746 Q69.4093 207.746 71.016 208.291 Q72.5941 208.808 73.8279 209.525 Q75.0617 210.213 77.0415 212.107 Q79.0212 214.001 80.4272 215.522 Q81.8331 217.042 84.8171 220.457 L90.8712 226.683 L90.8712 216.095 Q90.8712 210.931 90.4122 210.529 Q89.5801 209.955 85.1901 209.238 L85.1901 207.746 L95.4047 209.41 L95.4047 231.216 Z" fill="#000000" fill-rule="nonzero" fill-opacity="1" /><polyline clip-path="url(#clip502)" style="stroke:#000000; stroke-linecap:round; stroke-linejoin:round; stroke-width:8; stroke-opacity:1; fill:none" points="321.66,86.5699 325.612,85.8189 329.564,85.8189 333.515,85.8189 337.467,85.8189 341.419,85.8189 345.371,85.8189 349.323,85.8189 353.274,85.8189 357.226,85.8189 361.178,85.8189 365.13,85.8189 369.082,85.8189 373.033,85.8189 376.985,85.8189 380.937,85.8189 384.889,85.8189 388.84,85.8189 392.792,85.8189 396.744,85.8189 400.696,85.8189 404.648,85.8189 408.599,85.8189 412.551,85.8189 416.503,85.8189 420.455,85.8189 424.406,85.8189 428.358,85.8189 432.31,85.8189 436.262,85.8189 440.214,85.8189 444.165,85.8189 448.117,85.8189 452.069,85.8189 456.021,85.8189 459.972,85.8189 463.924,85.8189 467.876,85.8189 471.828,85.8189 475.78,85.8189 479.731,85.8189 483.683,85.8189 487.635,85.8189 491.587,85.8189 495.538,85.8189 499.49,85.8189 503.442,85.8189 507.394,85.8189 511.346,85.8189 515.297,85.8189 519.249,85.8189 523.201,85.8189 527.153,85.8189 531.104,85.8189 535.056,85.8189 539.008,85.8189 542.96,85.8189 546.912,85.8189 550.863,85.8189 554.815,85.8189 558.767,85.8189 562.719,85.8189 566.67,85.8189 570.622,85.8189 574.574,85.8189 578.526,85.8189 582.478,85.8189 586.429,85.8189 590.381,85.8189 594.333,85.8189 598.285,85.8189 602.236,85.8189 606.188,85.8189 610.14,85.8189 614.092,85.8189 618.044,85.8189 621.995,85.8189 625.947,85.8189 629.899,85.8189 633.851,85.8189 637.802,85.8189 641.754,85.8189 645.706,85.8189 649.658,85.8189 653.61,85.8189 657.561,85.8189 661.513,85.8189 665.465,85.8189 669.417,85.8189 673.368,85.8189 677.32,85.8189 681.272,85.8189 685.224,85.8189 689.176,85.8189 693.127,85.8189 697.079,85.8189 701.031,85.8189 704.983,85.8189 708.934,85.8189 712.886,85.8189 716.838,85.8189 720.79,85.8189 724.742,85.8189 728.693,85.8189 732.645,85.8189 736.597,85.8189 740.549,85.8189 744.5,85.8189 748.452,85.8189 752.404,85.8189 756.356,85.8189 760.308,85.8189 764.259,85.8189 768.211,85.8189 772.163,85.8189 776.115,85.8189 780.067,85.8189 784.018,85.8189 787.97,85.8189 791.922,85.8189 795.874,85.8189 799.825,85.8189 803.777,85.8189 807.729,85.8189 811.681,85.8189 815.633,85.8189 819.584,85.8189 823.536,85.8189 827.488,85.8189 831.44,85.8189 835.391,85.8189 839.343,85.8189 843.295,85.8189 847.247,85.8189 851.199,85.8189 855.15,85.8189 859.102,85.8189 863.054,85.8189 867.006,85.8189 870.957,85.8189 874.909,85.8189 878.861,85.8189 882.813,85.8189 886.765,85.8189 890.716,85.8189 894.668,85.8189 898.62,85.8189 902.572,85.8189 906.523,85.8189 910.475,85.8189 914.427,85.8189 918.379,85.8189 922.331,85.8189 926.282,85.8189 930.234,85.8189 934.186,85.8189 938.138,85.8189 942.089,85.8189 946.041,85.8189 949.993,85.8189 953.945,85.8189 957.897,85.8189 961.848,85.8189 965.8,85.8189 969.752,85.8189 973.704,85.8189 977.655,85.8189 981.607,85.8189 985.559,85.8189 989.511,85.8189 993.463,85.8189 997.414,85.8189 1001.37,85.8189 1005.32,85.8189 1009.27,85.8189 1013.22,85.8189 1017.17,85.8189 1021.13,85.8189 1025.08,85.8189 1029.03,85.8189 1032.98,85.8189 1036.93,85.8189 1040.88,85.8189 1044.84,85.8189 1048.79,85.8189 1052.74,85.8189 1056.69,85.8189 1060.64,85.8189 1064.59,85.8189 1068.55,85.8189 1072.5,85.8189 1076.45,85.8189 1080.4,85.8189 1084.35,85.8189 1088.31,85.8189 1092.26,85.8189 1096.21,85.8189 1100.16,85.8189 1104.11,85.8189 1108.06,85.8189 1112.02,85.8189 1115.97,85.8189 1119.92,85.8189 1123.87,85.8189 1127.82,85.8189 1131.77,85.8189 1135.73,85.8189 1139.68,85.8189 1143.63,85.8189 1147.58,85.8189 1151.53,85.8189 1155.49,85.8189 1159.44,85.8189 1163.39,85.8189 1167.34,85.8189 1171.29,85.8189 1175.24,85.8189 1179.2,85.8189 1183.15,85.8189 1187.1,85.8189 1191.05,85.8189 1195,85.8189 1198.96,85.8189 1202.91,85.8189 1206.86,85.8189 1210.81,85.8189 1214.76,85.8189 1218.71,85.8189 1222.67,85.8189 1226.62,85.8189 1230.57,85.8189 1234.52,85.8189 1238.47,85.8189 1242.42,85.8189 1246.38,85.8189 1250.33,85.8189 1254.28,85.8189 1258.23,85.8189 1262.18,85.8189 1266.14,85.8189 1270.09,85.8189 1274.04,85.8189 1277.99,85.8189 1281.94,85.8189 1285.89,85.8189 1289.85,85.8189 1293.8,85.8189 1297.75,85.8189 1301.7,85.8189 1305.65,85.8189 1309.6,85.8189 1313.56,85.8189 1317.51,85.8189 1321.46,85.8189 1325.41,85.8189 1329.36,85.8189 1333.32,85.8189 1337.27,85.8189 1341.22,85.8189 1345.17,85.8189 1349.12,85.8189 1353.07,85.8189 1357.03,85.8189 1360.98,85.8189 1364.93,85.8189 1368.88,85.8189 1372.83,85.8189 1376.79,85.8189 1380.74,85.8189 1384.69,85.8189 1388.64,85.8189 1392.59,85.8189 1396.54,85.8189 1400.5,85.8189 1404.45,85.8189 1408.4,85.8189 1412.35,85.8189 1416.3,85.8189 1420.25,85.8189 1424.21,85.8189 1428.16,85.8189 1432.11,85.8189 1436.06,85.8189 1440.01,85.8189 1443.97,85.8189 1447.92,85.8189 1451.87,85.8189 1455.82,85.8189 1459.77,85.8189 1463.72,85.8189 1467.68,85.8189 1471.63,85.8189 1475.58,85.8189 1479.53,85.8189 1483.48,85.8189 1487.43,85.8189 1491.39,85.8189 1495.34,85.8189 1499.29,85.8189 1503.24,85.8189 1507.19,85.8189 1511.15,85.8189 1515.1,85.8189 1519.05,85.8189 1523,85.8189 1526.95,85.8189 1530.9,85.8189 1534.86,85.8189 1538.81,85.8189 1542.76,85.8189 1546.71,85.8189 1550.66,85.8189 1554.62,85.8189 1558.57,85.8189 1562.52,85.8189 1566.47,85.8189 1570.42,85.8189 1574.37,85.8189 1578.33,85.8189 1582.28,85.8189 1586.23,85.8189 1590.18,85.8189 1594.13,85.8189 1598.08,85.8189 1602.04,85.8189 1605.99,85.8189 1609.94,85.8189 1613.89,85.8189 1617.84,85.8189 1621.8,85.8189 1625.75,85.8189 1629.7,85.8189 1633.65,85.8189 1637.6,85.8189 1641.55,85.8189 1645.51,85.8189 1649.46,85.8189 1653.41,85.8189 1657.36,85.8189 1661.31,85.8189 1665.26,85.8189 1669.22,85.8189 1673.17,85.8189 1677.12,85.8189 1681.07,85.8189 1685.02,85.8189 1688.98,85.8189 1692.93,85.8189 1696.88,85.8189 1700.83,85.8189 1704.78,85.8189 1708.73,85.8189 1712.69,85.8189 1716.64,85.8189 1720.59,85.8189 1724.54,85.8189 1728.49,85.8189 1732.45,85.8189 1736.4,85.8189 1740.35,85.8189 1744.3,85.8189 1748.25,85.8189 1752.2,85.8189 1756.16,85.8189 1760.11,85.8189 1764.06,85.8189 1768.01,85.8189 1771.96,85.8189 1775.91,85.8189 1779.87,85.8189 1783.82,85.8189 1787.77,85.8189 1791.72,85.8189 1795.67,85.8189 1799.63,85.8189 1803.58,85.8189 1807.53,85.8189 1811.48,85.8189 1815.43,85.8189 1819.38,85.8189 1823.34,85.8189 1827.29,85.8189 1831.24,85.8189 1835.19,85.8189 1839.14,85.8189 1843.09,85.8189 1847.05,85.8189 1851,85.8189 1854.95,85.8189 1858.9,85.8189 1862.85,85.8189 1866.81,85.8189 1870.76,85.8189 1874.71,85.8189 1878.66,85.8189 1882.61,85.8189 1886.56,85.8189 1890.52,85.8189 1894.47,85.8189 1898.42,85.8189 1902.37,85.8189 1906.32,85.8189 1910.28,85.8189 1914.23,85.8189 1918.18,85.8189 1922.13,85.8189 1926.08,85.8189 1930.03,85.8189 1933.99,85.8189 1937.94,85.8189 1941.89,85.8189 1945.84,85.8189 1949.79,85.8189 1953.74,85.8191 1957.7,85.8189 1961.65,85.8189 1965.6,85.8397 1969.55,86.1592 1973.5,86.8715 1977.46,87.9861 1981.41,89.5124 1985.36,91.4593 1989.31,93.8358 1993.26,96.6503 1997.21,99.9112 2001.17,103.626 2005.12,107.804 2009.07,112.45 2013.02,117.572 2016.97,123.177 2020.93,129.269 2024.88,135.855 2028.83,142.939 2032.78,150.526 2036.73,158.618 2040.68,167.219 2044.64,176.332 2048.59,185.956 2052.54,196.094 2056.49,206.745 2060.44,217.907 2064.39,229.58 2068.35,241.761 2072.3,254.446 2076.25,267.629 2080.2,281.307 2084.15,295.472 2088.11,310.117 2092.06,325.233 2096.01,340.811 2099.96,356.839 2103.91,373.306 2107.86,390.199 2111.82,407.504 2115.77,425.206 2119.72,443.288 2123.67,461.735 2127.62,480.526 2131.57,499.644 2135.53,519.067 2139.48,538.774 2143.43,558.743 2147.38,578.951 2151.33,599.374 2155.29,619.986 2159.24,640.763 2163.19,661.677 2167.14,682.702 2171.09,703.81 2175.04,724.973 2179,746.163 2182.95,767.351 2186.9,788.508 2190.85,809.604 2194.8,830.611 2198.76,851.499 2202.71,872.239 2206.66,892.803 2210.61,913.162 2214.56,933.289 2218.51,953.155 2222.47,972.736 2226.42,992.004 2230.37,1010.94 2234.32,1029.51 2238.27,1047.69 2242.22,1065.48 2246.18,1082.83 2250.13,1099.75 2254.08,1116.2 2258.03,1132.33 2261.98,1154.54 2265.94,1184.17 2269.89,1218.05 2273.84,1252.89 2277.79,1285.89 2281.74,1314.99 2285.69,1339.06 2289.65,1357.82 2293.6,1371.65 "/>
<polyline clip-path="url(#clip502)" style="stroke:#000000; stroke-linecap:round; stroke-linejoin:round; stroke-width:8; stroke-opacity:1; fill:none" stroke-dasharray="4, 8" points="321.66,86.5683 325.612,85.8189 329.564,85.8189 333.515,85.8189 337.467,85.8189 341.419,85.8189 345.371,85.8189 349.323,85.8189 353.274,85.8189 357.226,85.8189 361.178,85.8189 365.13,85.8189 369.082,85.8189 373.033,85.8189 376.985,85.8189 380.937,85.8189 384.889,85.8189 388.84,85.8189 392.792,85.8189 396.744,85.8189 400.696,85.8189 404.648,85.8189 408.599,85.8189 412.551,85.8189 416.503,85.8189 420.455,85.8189 424.406,85.8189 428.358,85.8189 432.31,85.8189 436.262,85.8189 440.214,85.8189 444.165,85.8189 448.117,85.8189 452.069,85.8189 456.021,85.8189 459.972,85.8189 463.924,85.8189 467.876,85.8189 471.828,85.8189 475.78,85.8189 479.731,85.8189 483.683,85.8189 487.635,85.8189 491.587,85.8189 495.538,85.8189 499.49,85.8189 503.442,85.8189 507.394,85.8189 511.346,85.8189 515.297,85.8189 519.249,85.8189 523.201,85.8189 527.153,85.8189 531.104,85.8189 535.056,85.8189 539.008,85.8189 542.96,85.8189 546.912,85.8189 550.863,85.8189 554.815,85.8189 558.767,85.8189 562.719,85.8189 566.67,85.8189 570.622,85.8189 574.574,85.8189 578.526,85.8189 582.478,85.8189 586.429,85.8189 590.381,85.8189 594.333,85.8189 598.285,85.8189 602.236,85.8189 606.188,85.8189 610.14,85.8189 614.092,85.8189 618.044,85.8189 621.995,85.8189 625.947,85.8189 629.899,85.8189 633.851,85.8189 637.802,85.8189 641.754,85.8189 645.706,85.8189 649.658,85.8189 653.61,85.8189 657.561,85.8189 661.513,85.8189 665.465,85.8189 669.417,85.8189 673.368,85.8189 677.32,85.8189 681.272,85.8189 685.224,85.8189 689.176,85.8189 693.127,85.8189 697.079,85.8189 701.031,85.8189 704.983,85.8189 708.934,85.8189 712.886,85.8189 716.838,85.8189 720.79,85.8189 724.742,85.8189 728.693,85.8189 732.645,85.8189 736.597,85.8189 740.549,85.8189 744.5,85.8189 748.452,85.8189 752.404,85.8189 756.356,85.8189 760.308,85.8189 764.259,85.8189 768.211,85.8189 772.163,85.8189 776.115,85.8189 780.067,85.8189 784.018,85.8189 787.97,85.8189 791.922,85.8189 795.874,85.8189 799.825,85.8189 803.777,85.8189 807.729,85.8189 811.681,85.8189 815.633,85.8189 819.584,85.8189 823.536,85.8189 827.488,85.8189 831.44,85.8189 835.391,85.8189 839.343,85.8189 843.295,85.8189 847.247,85.8189 851.199,85.8189 855.15,85.8189 859.102,85.8189 863.054,85.8189 867.006,85.8189 870.957,85.8189 874.909,85.8189 878.861,85.8189 882.813,85.8189 886.765,85.8189 890.716,85.8189 894.668,85.8189 898.62,85.8189 902.572,85.8189 906.523,85.8189 910.475,85.8189 914.427,85.8189 918.379,85.8189 922.331,85.8189 926.282,85.8189 930.234,85.8189 934.186,85.8189 938.138,85.8189 942.089,85.8189 946.041,85.8189 949.993,85.8189 953.945,85.8189 957.897,85.8189 961.848,85.8189 965.8,85.8189 969.752,85.8189 973.704,85.8189 977.655,85.8189 981.607,85.8189 985.559,85.8189 989.511,85.8189 993.463,85.8189 997.414,85.8189 1001.37,85.8189 1005.32,85.8189 1009.27,85.8189 1013.22,85.8189 1017.17,85.8189 1021.13,85.8189 1025.08,85.8189 1029.03,85.8189 1032.98,85.8189 1036.93,85.8189 1040.88,85.8189 1044.84,85.8189 1048.79,85.8189 1052.74,85.8189 1056.69,85.8189 1060.64,85.8189 1064.59,85.8189 1068.55,85.8189 1072.5,85.8189 1076.45,85.8189 1080.4,85.8189 1084.35,85.8189 1088.31,85.8189 1092.26,85.8189 1096.21,85.8189 1100.16,85.8189 1104.11,85.8189 1108.06,85.8189 1112.02,85.8189 1115.97,85.8189 1119.92,85.8189 1123.87,85.8189 1127.82,85.8189 1131.77,85.8189 1135.73,85.8189 1139.68,85.8189 1143.63,85.8189 1147.58,85.8189 1151.53,85.8189 1155.49,85.8189 1159.44,85.8189 1163.39,85.8189 1167.34,85.8189 1171.29,85.8189 1175.24,85.8189 1179.2,85.8189 1183.15,85.8189 1187.1,85.8189 1191.05,85.8189 1195,85.8189 1198.96,85.8189 1202.91,85.8189 1206.86,85.8189 1210.81,85.8189 1214.76,85.8189 1218.71,85.8189 1222.67,85.8189 1226.62,85.8189 1230.57,85.8189 1234.52,85.8189 1238.47,85.8189 1242.42,85.8189 1246.38,85.8189 1250.33,85.8189 1254.28,85.8189 1258.23,85.8189 1262.18,85.8189 1266.14,85.8189 1270.09,85.8189 1274.04,85.8189 1277.99,85.8189 1281.94,85.8189 1285.89,85.8189 1289.85,85.8189 1293.8,85.8189 1297.75,85.8189 1301.7,85.8189 1305.65,85.8189 1309.6,85.8189 1313.56,85.8189 1317.51,85.8189 1321.46,85.8189 1325.41,85.8189 1329.36,85.8189 1333.32,85.8189 1337.27,85.8189 1341.22,85.8189 1345.17,85.8189 1349.12,85.8189 1353.07,85.8189 1357.03,85.8189 1360.98,85.8189 1364.93,85.8189 1368.88,85.8189 1372.83,85.8189 1376.79,85.8189 1380.74,85.8189 1384.69,85.8189 1388.64,85.8189 1392.59,85.8189 1396.54,85.8189 1400.5,85.8189 1404.45,85.8189 1408.4,85.8189 1412.35,85.8189 1416.3,85.8189 1420.25,85.8189 1424.21,85.8189 1428.16,85.8189 1432.11,85.8189 1436.06,85.8189 1440.01,85.8189 1443.97,85.8189 1447.92,85.8189 1451.87,85.8189 1455.82,85.8189 1459.77,85.8189 1463.72,85.8189 1467.68,85.8189 1471.63,85.8189 1475.58,85.8189 1479.53,85.8189 1483.48,85.8189 1487.43,85.8189 1491.39,85.8189 1495.34,85.8189 1499.29,85.8189 1503.24,85.8189 1507.19,85.8189 1511.15,85.8189 1515.1,85.8189 1519.05,85.8189 1523,85.8189 1526.95,85.8189 1530.9,85.8189 1534.86,85.8189 1538.81,85.8189 1542.76,85.8189 1546.71,85.8189 1550.66,85.8189 1554.62,85.8189 1558.57,85.8189 1562.52,85.8189 1566.47,85.8189 1570.42,85.8189 1574.37,85.8189 1578.33,85.8189 1582.28,85.8189 1586.23,85.8189 1590.18,85.8189 1594.13,85.8189 1598.08,85.8189 1602.04,85.8189 1605.99,85.8189 1609.94,85.8189 1613.89,85.8189 1617.84,85.8189 1621.8,85.8189 1625.75,85.8189 1629.7,85.8189 1633.65,85.8189 1637.6,85.8189 1641.55,85.8189 1645.51,85.8189 1649.46,85.8189 1653.41,85.8189 1657.36,85.8189 1661.31,85.8189 1665.26,85.8189 1669.22,85.8189 1673.17,85.8189 1677.12,85.8189 1681.07,85.8189 1685.02,85.8189 1688.98,85.8189 1692.93,85.8189 1696.88,85.8189 1700.83,85.8189 1704.78,85.8189 1708.73,85.8189 1712.69,85.8189 1716.64,85.8189 1720.59,85.8189 1724.54,85.8189 1728.49,85.8189 1732.45,85.8189 1736.4,85.8189 1740.35,85.8189 1744.3,85.8189 1748.25,85.8189 1752.2,85.8189 1756.16,85.8189 1760.11,85.8189 1764.06,85.8189 1768.01,85.8189 1771.96,85.8189 1775.91,85.8189 1779.87,85.8189 1783.82,85.8189 1787.77,85.8189 1791.72,85.8189 1795.67,85.8189 1799.63,85.8189 1803.58,85.8189 1807.53,85.8189 1811.48,85.8189 1815.43,85.8189 1819.38,85.8189 1823.34,85.8189 1827.29,85.8189 1831.24,85.8189 1835.19,85.8189 1839.14,85.8189 1843.09,85.8189 1847.05,85.8189 1851,85.8189 1854.95,85.8189 1858.9,85.8189 1862.85,85.8189 1866.81,85.8189 1870.76,85.8189 1874.71,85.8189 1878.66,85.8189 1882.61,85.8189 1886.56,85.8189 1890.52,85.8189 1894.47,85.8189 1898.42,85.8189 1902.37,85.8189 1906.32,85.8189 1910.28,85.8189 1914.23,85.8189 1918.18,85.8189 1922.13,85.8189 1926.08,85.8189 1930.03,85.8189 1933.99,85.8189 1937.94,85.8189 1941.89,85.8189 1945.84,85.8189 1949.79,85.8189 1953.74,85.8189 1957.7,85.8189 1961.65,85.8189 1965.6,85.8393 1969.55,86.1539 1973.5,86.8483 1977.46,87.9218 1981.41,89.3735 1985.36,91.2022 1989.31,93.4063 1993.26,95.9837 1997.21,98.9324 2001.17,102.25 2005.12,105.933 2009.07,109.979 2013.02,114.384 2016.97,119.144 2020.93,124.256 2024.88,129.714 2028.83,135.515 2032.78,141.654 2036.73,148.124 2040.68,154.921 2044.64,162.04 2048.59,169.473 2052.54,177.215 2056.49,185.26 2060.44,193.6 2064.39,202.229 2068.35,211.141 2072.3,220.327 2076.25,229.78 2080.2,239.492 2084.15,249.457 2088.11,259.665 2092.06,270.11 2096.01,280.782 2099.96,291.673 2103.91,302.775 2107.86,314.08 2111.82,325.579 2115.77,337.262 2119.72,349.122 2123.67,361.15 2127.62,373.336 2131.57,385.672 2135.53,398.149 2139.48,410.758 2143.43,423.489 2147.38,436.335 2151.33,449.286 2155.29,462.334 2159.24,475.469 2163.19,488.683 2167.14,501.966 2171.09,515.311 2175.04,528.709 2179,542.15 2182.95,555.628 2186.9,569.133 2190.85,582.657 2194.8,596.193 2198.76,609.731 2202.71,623.265 2206.66,636.787 2210.61,650.289 2214.56,663.763 2218.51,677.203 2222.47,690.601 2226.42,703.951 2230.37,717.245 2234.32,730.478 2238.27,743.642 2242.22,756.732 2246.18,769.741 2250.13,782.664 2254.08,795.495 2258.03,808.229 2261.98,820.86 2265.94,833.383 2269.89,847.109 2273.84,875.285 2277.79,918.909 2281.74,973.835 2285.69,1035.23 2289.65,1098.27 2293.6,1158.73 "/>
<polyline clip-path="url(#clip502)" style="stroke:#000000; stroke-linecap:round; stroke-linejoin:round; stroke-width:8; stroke-opacity:1; fill:none" points="376.985,2773.2 376.985,-1315.73 "/>
<polyline clip-path="url(#clip502)" style="stroke:#000000; stroke-linecap:round; stroke-linejoin:round; stroke-width:4; stroke-opacity:1; fill:none" points="-1827.75,1204.77 4443.01,1204.77 "/>
<polyline clip-path="url(#clip502)" style="stroke:#000000; stroke-linecap:round; stroke-linejoin:round; stroke-width:8; stroke-opacity:1; fill:none" stroke-dasharray="32, 20" points="1482.33,2773.2 1482.33,-1315.73 "/>
</svg>
